<svg width="113" height="391" viewBox="0 0 113 391" fill="none" xmlns="http://www.w3.org/2000/svg">
<g opacity="0.4">
<mask id="mask0_1710_10978" style="mask-type:alpha" maskUnits="userSpaceOnUse" x="6" y="103" width="63" height="288">
<rect x="6.06561" y="103.53" width="62.932" height="287.118" fill="url(#paint0_radial_1710_10978)"/>
</mask>
<g mask="url(#mask0_1710_10978)">
<rect opacity="0.5" x="6.06555" y="107.274" width="30.3287" height="283.373" fill="url(#paint1_linear_1710_10978)"/>
<rect opacity="0.5" width="30.3287" height="283.373" transform="matrix(-1 0 0 1 68.9986 107.274)" fill="url(#paint2_linear_1710_10978)"/>
</g>
</g>
<path d="M18.7537 115.639C10.9125 110.887 6.99182 108.51 6.24607 105.657C6.00522 104.735 6.00522 103.796 6.24607 102.874C6.99182 100.021 10.9125 97.6443 18.7537 92.8918C26.595 88.1393 30.5156 85.763 35.2241 85.311C36.7448 85.165 38.2939 85.165 39.8145 85.311C44.523 85.763 48.4437 88.1393 56.2849 92.8918C64.1262 97.6443 68.0468 100.021 68.7926 102.874C69.0334 103.796 69.0334 104.735 68.7926 105.657C68.0468 108.51 64.1262 110.887 56.2849 115.639C48.4437 120.392 44.523 122.768 39.8145 123.22C38.2939 123.366 36.7448 123.366 35.2241 123.22C30.5156 122.768 26.595 120.392 18.7537 115.639Z" fill="url(#paint3_linear_1710_10978)"/>
<path d="M18.7537 115.639C10.9125 110.887 6.99182 108.51 6.24607 105.657C6.00522 104.735 6.00522 103.796 6.24607 102.874C6.99182 100.021 10.9125 97.6443 18.7537 92.8918C26.595 88.1393 30.5156 85.763 35.2241 85.311C36.7448 85.165 38.2939 85.165 39.8145 85.311C44.523 85.763 48.4437 88.1393 56.2849 92.8918C64.1262 97.6443 68.0468 100.021 68.7926 102.874C69.0334 103.796 69.0334 104.735 68.7926 105.657C68.0468 108.51 64.1262 110.887 56.2849 115.639C48.4437 120.392 44.523 122.768 39.8145 123.22C38.2939 123.366 36.7448 123.366 35.2241 123.22C30.5156 122.768 26.595 120.392 18.7537 115.639Z" fill="white" fill-opacity="0.6"/>
<path d="M6.06543 101.124H68.9974V104.157H6.06543V101.124Z" fill="url(#paint4_linear_1710_10978)"/>
<path d="M6.06543 101.124H68.9974V104.157H6.06543V101.124Z" fill="white" fill-opacity="0.6"/>
<rect width="43.8866" height="43.8866" rx="12.1315" transform="matrix(0.855186 -0.518321 0.855186 0.518321 0.00109863 100.747)" fill="white"/>
<g opacity="0.4">
<mask id="mask1_1710_10978" style="mask-type:alpha" maskUnits="userSpaceOnUse" x="43" y="25" width="63" height="288">
<rect x="43.0656" y="25.5299" width="62.932" height="287.118" fill="url(#paint5_radial_1710_10978)"/>
</mask>
<g mask="url(#mask1_1710_10978)">
<rect opacity="0.5" x="43.0656" y="29.274" width="30.3287" height="283.373" fill="url(#paint6_linear_1710_10978)"/>
<rect opacity="0.5" width="30.3287" height="283.373" transform="matrix(-1 0 0 1 105.999 29.274)" fill="url(#paint7_linear_1710_10978)"/>
</g>
</g>
<path d="M55.7537 37.6392C47.9125 32.8866 43.9918 30.5104 43.2461 27.6566C43.0052 26.7349 43.0052 25.796 43.2461 24.8744C43.9918 22.0206 47.9125 19.6443 55.7537 14.8918C63.595 10.1393 67.5156 7.76302 72.2241 7.31102C73.7448 7.16504 75.2939 7.16504 76.8145 7.31102C81.523 7.76302 85.4437 10.1393 93.2849 14.8918C101.126 19.6443 105.047 22.0206 105.793 24.8744C106.033 25.796 106.033 26.7349 105.793 27.6566C105.047 30.5104 101.126 32.8866 93.2849 37.6392C85.4437 42.3917 81.523 44.7679 76.8145 45.2199C75.2939 45.3659 73.7448 45.3659 72.2241 45.2199C67.5156 44.7679 63.595 42.3917 55.7537 37.6392Z" fill="url(#paint8_linear_1710_10978)"/>
<path d="M55.7537 37.6392C47.9125 32.8866 43.9918 30.5104 43.2461 27.6566C43.0052 26.7349 43.0052 25.796 43.2461 24.8744C43.9918 22.0206 47.9125 19.6443 55.7537 14.8918C63.595 10.1393 67.5156 7.76302 72.2241 7.31102C73.7448 7.16504 75.2939 7.16504 76.8145 7.31102C81.523 7.76302 85.4437 10.1393 93.2849 14.8918C101.126 19.6443 105.047 22.0206 105.793 24.8744C106.033 25.796 106.033 26.7349 105.793 27.6566C105.047 30.5104 101.126 32.8866 93.2849 37.6392C85.4437 42.3917 81.523 44.7679 76.8145 45.2199C75.2939 45.3659 73.7448 45.3659 72.2241 45.2199C67.5156 44.7679 63.595 42.3917 55.7537 37.6392Z" fill="white" fill-opacity="0.6"/>
<path d="M43.0654 23.1241H105.997V26.157H43.0654V23.1241Z" fill="url(#paint9_linear_1710_10978)"/>
<path d="M43.0654 23.1241H105.997V26.157H43.0654V23.1241Z" fill="white" fill-opacity="0.6"/>
<rect width="43.8866" height="43.8866" rx="12.1315" transform="matrix(0.855186 -0.518321 0.855186 0.518321 37.0011 22.7472)" fill="white"/>
<defs>
<radialGradient id="paint0_radial_1710_10978" cx="0" cy="0" r="1" gradientUnits="userSpaceOnUse" gradientTransform="translate(37.9107 103.53) rotate(90.0757) scale(287.118 151.273)">
<stop stop-opacity="0"/>
<stop offset="0.221563"/>
<stop offset="1" stop-opacity="0"/>
</radialGradient>
<linearGradient id="paint1_linear_1710_10978" x1="36.3942" y1="186.544" x2="6.06555" y2="186.544" gradientUnits="userSpaceOnUse">
<stop stop-color="white" stop-opacity="0"/>
<stop offset="1" stop-color="white"/>
</linearGradient>
<linearGradient id="paint2_linear_1710_10978" x1="30.3287" y1="79.2695" x2="-1.91273e-06" y2="79.2695" gradientUnits="userSpaceOnUse">
<stop stop-color="white" stop-opacity="0"/>
<stop offset="1" stop-color="white"/>
</linearGradient>
<linearGradient id="paint3_linear_1710_10978" x1="6.06543" y1="104.157" x2="68.9974" y2="104.157" gradientUnits="userSpaceOnUse">
<stop stop-color="#E3E3E3"/>
<stop offset="0.21988" stop-color="#99C2FF"/>
<stop offset="0.512048" stop-color="#F48DA5"/>
<stop offset="0.75" stop-color="#A699DC"/>
<stop offset="1" stop-color="#E3E3E3"/>
</linearGradient>
<linearGradient id="paint4_linear_1710_10978" x1="6.06543" y1="104.157" x2="68.9974" y2="104.157" gradientUnits="userSpaceOnUse">
<stop stop-color="#E3E3E3"/>
<stop offset="0.21988" stop-color="#99C2FF"/>
<stop offset="0.512048" stop-color="#F48DA5"/>
<stop offset="0.75" stop-color="#A699DC"/>
<stop offset="1" stop-color="#E3E3E3"/>
</linearGradient>
<radialGradient id="paint5_radial_1710_10978" cx="0" cy="0" r="1" gradientUnits="userSpaceOnUse" gradientTransform="translate(74.9107 25.5299) rotate(90.0757) scale(287.118 151.273)">
<stop stop-opacity="0"/>
<stop offset="0.221563"/>
<stop offset="1" stop-opacity="0"/>
</radialGradient>
<linearGradient id="paint6_linear_1710_10978" x1="73.3942" y1="108.544" x2="43.0655" y2="108.544" gradientUnits="userSpaceOnUse">
<stop stop-color="white" stop-opacity="0"/>
<stop offset="1" stop-color="white"/>
</linearGradient>
<linearGradient id="paint7_linear_1710_10978" x1="30.3287" y1="79.2695" x2="-1.91273e-06" y2="79.2695" gradientUnits="userSpaceOnUse">
<stop stop-color="white" stop-opacity="0"/>
<stop offset="1" stop-color="white"/>
</linearGradient>
<linearGradient id="paint8_linear_1710_10978" x1="43.0654" y1="26.157" x2="105.997" y2="26.157" gradientUnits="userSpaceOnUse">
<stop stop-color="#E3E3E3"/>
<stop offset="0.21988" stop-color="#99C2FF"/>
<stop offset="0.512048" stop-color="#F48DA5"/>
<stop offset="0.75" stop-color="#A699DC"/>
<stop offset="1" stop-color="#E3E3E3"/>
</linearGradient>
<linearGradient id="paint9_linear_1710_10978" x1="43.0654" y1="26.157" x2="105.997" y2="26.157" gradientUnits="userSpaceOnUse">
<stop stop-color="#E3E3E3"/>
<stop offset="0.21988" stop-color="#99C2FF"/>
<stop offset="0.512048" stop-color="#F48DA5"/>
<stop offset="0.75" stop-color="#A699DC"/>
<stop offset="1" stop-color="#E3E3E3"/>
</linearGradient>
</defs>
</svg>
