<svg width="352" height="68" viewBox="0 0 352 68" fill="none" xmlns="http://www.w3.org/2000/svg">
<rect x="1.94067" y="0.475769" width="349.899" height="56.5319" rx="13.2727" transform="rotate(1.78857 1.94067 0.475769)" fill="#F9B400"/>
<path d="M15.1654 16.9957L23.4357 17.254C24.5887 17.29 25.6755 17.4288 26.6962 17.6706C27.7169 17.9123 28.5964 18.307 29.3348 18.8546C30.0947 19.382 30.6811 20.0928 31.0938 20.987C31.5282 21.8609 31.7247 22.9583 31.6835 24.279C31.6429 25.5788 31.3992 26.6623 30.9525 27.5297C30.5057 28.3971 29.9072 29.0814 29.1571 29.5826C28.407 30.0838 27.5252 30.434 26.5118 30.6331C25.499 30.8114 24.4056 30.8821 23.2316 30.8455L19.6467 30.7335L19.3757 39.4126L14.4702 39.2594L15.1654 16.9957ZM19.7764 26.5827L23.0467 26.6848C23.487 26.6985 23.9076 26.6697 24.3085 26.5983C24.7304 26.5275 25.1015 26.4027 25.4219 26.2239C25.7638 26.0247 26.0344 25.7604 26.2336 25.4308C26.4543 25.081 26.5729 24.644 26.5893 24.1199C26.6069 23.5539 26.4847 23.0989 26.2227 22.755C25.9822 22.3907 25.6553 22.1077 25.2419 21.906C24.8495 21.7048 24.4024 21.5755 23.9006 21.5178C23.3994 21.4392 22.9182 21.3927 22.457 21.3783L19.9413 21.2998L19.7764 26.5827ZM34.9726 17.6142L43.5888 17.8833C44.7209 17.9186 45.7864 18.0673 46.7855 18.3294C47.8062 18.5711 48.6857 18.9658 49.424 19.5134C50.184 20.0408 50.7703 20.7516 51.1831 21.6458C51.6174 22.5197 51.8143 23.6066 51.7737 24.9063C51.7246 26.4786 51.274 27.8076 50.4217 28.8931C49.57 29.9577 48.3535 30.6122 46.772 30.8566L52.1387 40.4357L46.2583 40.2521L41.8822 31.2075L39.4609 31.1319L39.183 40.0311L34.2774 39.8779L34.9726 17.6142ZM39.5905 26.9811L42.4835 27.0714C42.9237 27.0852 43.3853 27.0891 43.8681 27.0832C44.3725 27.0569 44.8262 26.9767 45.2291 26.8424C45.6327 26.6871 45.9655 26.4457 46.2275 26.1181C46.5105 25.7912 46.6615 25.3238 46.6805 24.7158C46.6982 24.1498 46.5969 23.6955 46.3768 23.3528C46.1567 23.0102 45.871 22.7495 45.5199 22.5706C45.1694 22.3708 44.7645 22.2323 44.3053 22.155C43.846 22.0777 43.3963 22.0322 42.9561 22.0184L39.7486 21.9183L39.5905 26.9811ZM53.8208 29.3455C53.8764 27.5636 54.2203 25.9585 54.8525 24.5303C55.5056 23.1028 56.3825 21.9026 57.483 20.9297C58.5843 19.9359 59.8771 19.1893 61.3616 18.6901C62.8461 18.1908 64.4584 17.9684 66.1984 18.0227C67.9384 18.0771 69.5336 18.3997 70.9841 18.9906C72.4345 19.5814 73.6783 20.4072 74.7154 21.4678C75.7531 22.5075 76.5429 23.7597 77.0847 25.2246C77.6475 26.6901 77.9011 28.3138 77.8455 30.0957C77.7898 31.8776 77.4354 33.4824 76.7823 34.9099C76.1501 36.3381 75.2834 37.5491 74.1822 38.5429C73.0816 39.5158 71.7891 40.2519 70.3046 40.7511C68.8201 41.2504 67.2078 41.4728 65.4678 41.4185C63.7278 41.3641 62.1326 41.0415 60.6821 40.4507C59.2317 39.8598 57.9876 39.0445 56.9498 38.0048C55.9128 36.9442 55.1128 35.6812 54.55 34.2157C54.0082 32.7508 53.7651 31.1274 53.8208 29.3455ZM58.915 29.5046C58.8823 30.5528 59.0094 31.522 59.2964 32.4123C59.6049 33.2823 60.0531 34.0518 60.6407 34.7206C61.229 35.3685 61.9369 35.8838 62.7643 36.2663C63.6127 36.6496 64.561 36.8575 65.6092 36.8903C66.6574 36.923 67.6064 36.7743 68.4561 36.4441C69.3267 36.1145 70.0758 35.6448 70.7034 35.0348C71.3317 34.4039 71.8164 33.6636 72.1577 32.8139C72.5207 31.9439 72.7185 30.9848 72.7512 29.9366C72.7833 28.9094 72.6454 27.9503 72.3374 27.0593C72.0505 26.169 71.6128 25.3999 71.0245 24.752C70.4369 24.0832 69.7188 23.5571 68.8704 23.1739C68.043 22.7913 67.1052 22.5837 66.057 22.5509C65.0088 22.5182 64.0494 22.6666 63.1787 22.9962C62.329 23.3264 61.5901 23.8069 60.9618 24.4378C60.3342 25.0477 59.839 25.7877 59.4761 26.6577C59.1341 27.5284 58.9471 28.4773 58.915 29.5046ZM81.5273 19.068L88.9485 19.2997L93.6206 33.9878L93.6835 33.9897L99.2942 19.6228L106.684 19.8535L105.989 42.1172L101.083 41.9641L101.616 24.8889L101.554 24.887L95.1714 41.7794L91.4294 41.6626L86.3337 24.4117L86.2708 24.4097L85.7376 41.4849L80.8321 41.3317L81.5273 19.068ZM109.68 31.0898C109.736 29.3079 110.08 27.7028 110.712 26.2746C111.365 24.8471 112.242 23.6469 113.343 22.674C114.444 21.6802 115.737 20.9336 117.221 20.4344C118.706 19.9351 120.318 19.7127 122.058 19.767C123.798 19.8214 125.393 20.144 126.844 20.7349C128.294 21.3257 129.538 22.1515 130.575 23.2121C131.613 24.2518 132.402 25.504 132.944 26.9689C133.507 28.4344 133.761 30.0581 133.705 31.84C133.649 33.6219 133.295 35.2267 132.642 36.6542C132.01 38.0824 131.143 39.2934 130.042 40.2872C128.941 41.2601 127.649 41.9962 126.164 42.4954C124.68 42.9947 123.067 43.2171 121.327 43.1628C119.587 43.1084 117.992 42.7858 116.542 42.195C115.091 41.6041 113.847 40.7888 112.809 39.7491C111.772 38.6885 110.972 37.4255 110.41 35.96C109.868 34.4951 109.625 32.8717 109.68 31.0898ZM114.774 31.2489C114.742 32.2971 114.869 33.2663 115.156 34.1566C115.464 35.0266 115.913 35.7961 116.5 36.4649C117.089 37.1128 117.796 37.6281 118.624 38.0106C119.472 38.3939 120.421 38.6018 121.469 38.6346C122.517 38.6673 123.466 38.5186 124.316 38.1884C125.186 37.8588 125.935 37.3891 126.563 36.7791C127.191 36.1482 127.676 35.4079 128.017 34.5582C128.38 33.6882 128.578 32.7291 128.611 31.6809C128.643 30.6537 128.505 29.6946 128.197 28.8036C127.91 27.9133 127.472 27.1442 126.884 26.4963C126.296 25.8275 125.578 25.3014 124.73 24.9182C123.902 24.5356 122.965 24.328 121.916 24.2952C120.868 24.2625 119.909 24.4109 119.038 24.7405C118.189 25.0707 117.45 25.5512 116.821 26.1821C116.194 26.792 115.698 27.532 115.336 28.402C114.994 29.2727 114.807 30.2216 114.774 31.2489ZM151.766 27.053C151.302 26.4509 150.718 25.9815 150.015 25.6448C149.333 25.3088 148.531 25.1263 147.609 25.0975C146.686 25.0687 145.821 25.2201 145.014 25.5516C144.227 25.8837 143.53 26.3656 142.922 26.9972C142.337 27.6084 141.862 28.349 141.5 29.219C141.158 30.0897 140.971 31.0387 140.938 32.0659C140.906 33.1141 141.033 34.0833 141.32 34.9736C141.628 35.8436 142.056 36.6124 142.601 37.28C143.148 37.9266 143.793 38.4398 144.536 38.8198C145.301 39.2004 146.123 39.4044 147.004 39.4319C148.01 39.4634 148.908 39.2815 149.696 38.8865C150.485 38.4914 151.143 37.9244 151.669 37.1854L155.662 40.3633C154.678 41.6546 153.452 42.5921 151.986 43.1759C150.52 43.7596 149.022 44.0276 147.491 43.9798C145.751 43.9255 144.156 43.6028 142.706 43.012C141.255 42.4211 140.011 41.6058 138.973 40.5661C137.936 39.5055 137.136 38.2425 136.573 36.777C136.032 35.3121 135.789 33.6887 135.844 31.9068C135.9 30.1249 136.244 28.5198 136.876 27.0916C137.529 25.6641 138.406 24.4639 139.506 23.491C140.608 22.4972 141.901 21.7506 143.385 21.2514C144.87 20.7522 146.482 20.5297 148.222 20.584C148.851 20.6037 149.499 20.6869 150.166 20.8336C150.854 20.96 151.519 21.1592 152.161 21.431C152.824 21.7035 153.453 22.0589 154.048 22.4972C154.643 22.9355 155.172 23.4661 155.635 24.0891L151.766 27.053ZM157.371 32.579C157.427 30.7971 157.771 29.192 158.403 27.7638C159.056 26.3363 159.933 25.1361 161.033 24.1632C162.135 23.1694 163.428 22.4228 164.912 21.9236C166.397 21.4244 168.009 21.2019 169.749 21.2563C171.489 21.3106 173.084 21.6332 174.534 22.2241C175.985 22.815 177.229 23.6407 178.266 24.7013C179.304 25.741 180.093 26.9932 180.635 28.4581C181.198 29.9236 181.451 31.5473 181.396 33.3292C181.34 35.1112 180.986 36.7159 180.333 38.1434C179.701 39.5716 178.834 40.7826 177.733 41.7765C176.632 42.7494 175.339 43.4854 173.855 43.9847C172.37 44.4839 170.758 44.7063 169.018 44.652C167.278 44.5977 165.683 44.2751 164.233 43.6842C162.782 43.0933 161.538 42.278 160.5 41.2384C159.463 40.1777 158.663 38.9147 158.1 37.4492C157.559 35.9843 157.316 34.361 157.371 32.579ZM162.465 32.7381C162.433 33.7863 162.56 34.7555 162.847 35.6459C163.155 36.5158 163.603 37.2853 164.191 37.9541C164.779 38.602 165.487 39.1173 166.315 39.4999C167.163 39.8831 168.111 40.0911 169.16 40.1238C170.208 40.1565 171.157 40.0078 172.006 39.6776C172.877 39.348 173.626 38.8783 174.254 38.2684C174.882 37.6375 175.367 36.8972 175.708 36.0475C176.071 35.1775 176.269 34.2184 176.302 33.1702C176.334 32.1429 176.196 31.1838 175.888 30.2929C175.601 29.4026 175.163 28.6335 174.575 27.9856C173.987 27.3167 173.269 26.7906 172.421 26.4074C171.593 26.0248 170.656 25.8172 169.607 25.7845C168.559 25.7517 167.6 25.9001 166.729 26.2297C165.879 26.5599 165.14 27.0404 164.512 27.6713C163.885 28.2813 163.389 29.0212 163.026 29.8913C162.684 30.7619 162.497 31.7109 162.465 32.7381ZM185.078 22.3015L192.436 22.5313C194.218 22.5869 195.899 22.8388 197.48 23.2868C199.082 23.7356 200.466 24.4293 201.633 25.3681C202.8 26.2859 203.708 27.4683 204.355 28.9155C205.023 30.3633 205.326 32.104 205.262 34.1375C205.206 35.9404 204.81 37.5228 204.075 38.8848C203.362 40.2265 202.414 41.3511 201.232 42.2584C200.05 43.1449 198.697 43.8056 197.172 44.2406C195.648 44.6757 194.057 44.8673 192.401 44.8156L184.382 44.5652L185.078 22.3015ZM189.429 40.1902L191.977 40.2697C193.109 40.3051 194.16 40.2225 195.132 40.022C196.124 39.8222 196.985 39.4713 197.714 38.9695C198.444 38.4467 199.022 37.7617 199.447 36.9147C199.894 36.0473 200.137 34.9846 200.176 33.7268C200.21 32.6367 200.03 31.6868 199.635 30.877C199.263 30.047 198.738 29.3591 198.063 28.8134C197.388 28.2677 196.582 27.8544 195.647 27.5734C194.733 27.272 193.762 27.1053 192.735 27.0732L189.842 26.9829L189.429 40.1902ZM209.127 23.0525L224.253 23.5248L224.111 28.053L213.891 27.7339L213.762 31.8847L223.416 32.1862L223.274 36.7144L213.62 36.4129L213.479 40.9412L224.265 41.278L224.123 45.8062L208.432 45.3162L209.127 23.0525ZM227.632 43.2087C227.644 42.8104 227.729 42.4354 227.887 42.0836C228.045 41.7318 228.254 41.434 228.513 41.1903C228.794 40.9263 229.115 40.7265 229.476 40.5908C229.837 40.4552 230.217 40.3936 230.615 40.4061C231.014 40.4185 231.389 40.5037 231.74 40.6615C232.092 40.8194 232.39 41.0385 232.633 41.3189C232.897 41.579 233.097 41.8895 233.233 42.2505C233.369 42.6115 233.43 42.9911 233.418 43.3894C233.405 43.7877 233.32 44.1628 233.162 44.5146C233.005 44.8664 232.785 45.1743 232.504 45.4383C232.245 45.6821 231.934 45.8717 231.573 46.0073C231.212 46.143 230.833 46.2045 230.435 46.1921C230.036 46.1797 229.661 46.0945 229.309 45.9366C228.958 45.7788 228.649 45.5698 228.385 45.3097C228.142 45.0293 227.952 44.7086 227.817 44.3477C227.681 43.9867 227.619 43.6071 227.632 43.2087ZM227.946 33.1461C227.958 32.7477 228.044 32.3727 228.202 32.0209C228.359 31.6691 228.568 31.3713 228.827 31.1276C229.109 30.8636 229.43 30.6638 229.79 30.5281C230.151 30.3925 230.531 30.3309 230.929 30.3434C231.328 30.3558 231.703 30.441 232.055 30.5988C232.406 30.7567 232.704 30.9759 232.947 31.2562C233.212 31.5163 233.412 31.8268 233.547 32.1878C233.683 32.5488 233.745 32.9284 233.732 33.3267C233.72 33.725 233.634 34.1001 233.477 34.4519C233.319 34.8037 233.099 35.1116 232.818 35.3757C232.559 35.6194 232.249 35.809 231.888 35.9446C231.527 36.0803 231.147 36.1419 230.749 36.1294C230.35 36.117 229.975 36.0318 229.624 35.8739C229.272 35.7161 228.964 35.5071 228.699 35.247C228.456 34.9666 228.266 34.646 228.131 34.285C227.995 33.924 227.934 33.5444 227.946 33.1461Z" fill="white"/>
<path d="M245.028 24.1736L250.374 24.3405L253.482 38.7279L253.545 38.7298L258.644 24.5987L263.204 24.7411L267.369 39.5393L267.432 39.5412L271.632 25.0043L276.6 25.1594L269.395 47.2199L265.025 47.0834L260.6 31.5217L260.537 31.5197L255.151 46.775L250.937 46.6435L245.028 24.1736ZM278.801 25.2282L283.707 25.3813L283.448 33.6831L292.976 33.9806L293.235 25.6789L298.14 25.8321L297.445 48.0958L292.54 47.9426L292.84 38.3201L283.312 38.0226L283.012 47.645L278.106 47.4919L278.801 25.2282ZM309.989 26.2021L314.045 26.3287L323.036 48.8949L317.501 48.722L315.73 43.9453L307.083 43.6752L305.08 48.3342L299.671 48.1653L309.989 26.2021ZM311.673 32.7388L308.753 39.5725L314.193 39.7424L311.673 32.7388ZM327.256 31.085L320.904 30.8867L321.039 26.5471L338.649 27.097L338.514 31.4365L332.162 31.2382L331.602 49.1624L326.696 49.0092L327.256 31.085Z" fill="#6C19BF"/>
</svg>
