<svg width="265" height="427" viewBox="0 0 265 427" fill="none" xmlns="http://www.w3.org/2000/svg">
<g opacity="0.4">
<mask id="mask0_1628_10967" style="mask-type:alpha" maskUnits="userSpaceOnUse" x="14" y="245" width="150" height="680">
<rect x="14.4569" y="245.444" width="148.839" height="679.057" fill="url(#paint0_radial_1628_10967)"/>
</mask>
<g mask="url(#mask0_1628_10967)">
<rect opacity="0.5" x="14.4569" y="254.299" width="71.7297" height="670.2" fill="url(#paint1_linear_1628_10967)"/>
<rect opacity="0.5" width="71.7297" height="670.2" transform="matrix(-1 0 0 1 163.298 254.299)" fill="url(#paint2_linear_1628_10967)"/>
</g>
</g>
<path d="M44.4651 274.083C25.9199 262.843 16.6473 257.223 14.8835 250.474C14.3139 248.294 14.3139 246.073 14.8835 243.893C16.6473 237.144 25.9199 231.524 44.4651 220.284C63.0103 209.044 72.2829 203.424 83.4189 202.355C87.0154 202.01 90.6791 202.01 94.2756 202.355C105.412 203.424 114.684 209.044 133.229 220.284C151.775 231.524 161.047 237.144 162.811 243.893C163.381 246.073 163.381 248.294 162.811 250.474C161.047 257.223 151.775 262.843 133.229 274.083C114.684 285.323 105.412 290.943 94.2756 292.012C90.6791 292.358 87.0154 292.358 83.4189 292.012C72.2829 290.943 63.0103 285.323 44.4651 274.083Z" fill="url(#paint3_linear_1628_10967)"/>
<path d="M44.4651 274.083C25.9199 262.843 16.6473 257.223 14.8835 250.474C14.3139 248.294 14.3139 246.073 14.8835 243.893C16.6473 237.144 25.9199 231.524 44.4651 220.284C63.0103 209.044 72.2829 203.424 83.4189 202.355C87.0154 202.01 90.6791 202.01 94.2756 202.355C105.412 203.424 114.684 209.044 133.229 220.284C151.775 231.524 161.047 237.144 162.811 243.893C163.381 246.073 163.381 248.294 162.811 250.474C161.047 257.223 151.775 262.843 133.229 274.083C114.684 285.323 105.412 290.943 94.2756 292.012C90.6791 292.358 87.0154 292.358 83.4189 292.012C72.2829 290.943 63.0103 285.323 44.4651 274.083Z" fill="white" fill-opacity="0.6"/>
<path d="M14.4563 239.754H163.296V246.927H14.4563V239.754Z" fill="url(#paint4_linear_1628_10967)"/>
<path d="M14.4563 239.754H163.296V246.927H14.4563V239.754Z" fill="white" fill-opacity="0.6"/>
<rect width="103.795" height="103.795" rx="28.6919" transform="matrix(0.855186 -0.518321 0.855186 0.518321 0.11377 238.863)" fill="white"/>
<g opacity="0.4">
<mask id="mask1_1628_10967" style="mask-type:alpha" maskUnits="userSpaceOnUse" x="101" y="60" width="150" height="681">
<rect x="101.965" y="60.9675" width="148.839" height="679.057" fill="url(#paint5_radial_1628_10967)"/>
</mask>
<g mask="url(#mask1_1628_10967)">
<rect opacity="0.5" x="101.965" y="69.8227" width="71.7297" height="670.2" fill="url(#paint6_linear_1628_10967)"/>
<rect opacity="0.5" width="71.7297" height="670.2" transform="matrix(-1 0 0 1 250.806 69.8227)" fill="url(#paint7_linear_1628_10967)"/>
</g>
</g>
<path d="M131.973 89.6069C113.428 78.3668 104.155 72.7468 102.391 65.9973C101.822 63.8175 101.822 61.597 102.391 59.4172C104.155 52.6677 113.428 47.0477 131.973 35.8076C150.518 24.5675 159.791 18.9475 170.927 17.8784C174.523 17.5332 178.187 17.5332 181.784 17.8784C192.92 18.9475 202.192 24.5675 220.737 35.8076C239.283 47.0477 248.555 52.6677 250.319 59.4172C250.889 61.597 250.889 63.8175 250.319 65.9973C248.555 72.7468 239.283 78.3668 220.737 89.6069C202.192 100.847 192.92 106.467 181.784 107.536C178.187 107.881 174.523 107.881 170.927 107.536C159.791 106.467 150.518 100.847 131.973 89.6069Z" fill="url(#paint8_linear_1628_10967)"/>
<path d="M131.973 89.6069C113.428 78.3668 104.155 72.7468 102.391 65.9973C101.822 63.8175 101.822 61.597 102.391 59.4172C104.155 52.6677 113.428 47.0477 131.973 35.8076C150.518 24.5675 159.791 18.9475 170.927 17.8784C174.523 17.5332 178.187 17.5332 181.784 17.8784C192.92 18.9475 202.192 24.5675 220.737 35.8076C239.283 47.0477 248.555 52.6677 250.319 59.4172C250.889 61.597 250.889 63.8175 250.319 65.9973C248.555 72.7468 239.283 78.3668 220.737 89.6069C202.192 100.847 192.92 106.467 181.784 107.536C178.187 107.881 174.523 107.881 170.927 107.536C159.791 106.467 150.518 100.847 131.973 89.6069Z" fill="white" fill-opacity="0.6"/>
<path d="M101.964 55.2776H250.803V62.4506H101.964V55.2776Z" fill="url(#paint9_linear_1628_10967)"/>
<path d="M101.964 55.2776H250.803V62.4506H101.964V55.2776Z" fill="white" fill-opacity="0.6"/>
<rect width="103.795" height="103.795" rx="28.6919" transform="matrix(0.855186 -0.518321 0.855186 0.518321 87.6217 54.3863)" fill="white"/>
<defs>
<radialGradient id="paint0_radial_1628_10967" cx="0" cy="0" r="1" gradientUnits="userSpaceOnUse" gradientTransform="translate(89.7731 245.444) rotate(90.0757) scale(679.057 357.773)">
<stop stop-opacity="0"/>
<stop offset="0.221563"/>
<stop offset="1" stop-opacity="0"/>
</radialGradient>
<linearGradient id="paint1_linear_1628_10967" x1="86.1866" y1="441.778" x2="14.4569" y2="441.778" gradientUnits="userSpaceOnUse">
<stop stop-color="white" stop-opacity="0"/>
<stop offset="1" stop-color="white"/>
</linearGradient>
<linearGradient id="paint2_linear_1628_10967" x1="71.7297" y1="187.479" x2="-4.52376e-06" y2="187.479" gradientUnits="userSpaceOnUse">
<stop stop-color="white" stop-opacity="0"/>
<stop offset="1" stop-color="white"/>
</linearGradient>
<linearGradient id="paint3_linear_1628_10967" x1="14.4563" y1="246.927" x2="163.296" y2="246.927" gradientUnits="userSpaceOnUse">
<stop stop-color="#E3E3E3"/>
<stop offset="0.21988" stop-color="#99C2FF"/>
<stop offset="0.512048" stop-color="#F48DA5"/>
<stop offset="0.75" stop-color="#A699DC"/>
<stop offset="1" stop-color="#E3E3E3"/>
</linearGradient>
<linearGradient id="paint4_linear_1628_10967" x1="14.4563" y1="246.927" x2="163.296" y2="246.927" gradientUnits="userSpaceOnUse">
<stop stop-color="#E3E3E3"/>
<stop offset="0.21988" stop-color="#99C2FF"/>
<stop offset="0.512048" stop-color="#F48DA5"/>
<stop offset="0.75" stop-color="#A699DC"/>
<stop offset="1" stop-color="#E3E3E3"/>
</linearGradient>
<radialGradient id="paint5_radial_1628_10967" cx="0" cy="0" r="1" gradientUnits="userSpaceOnUse" gradientTransform="translate(177.281 60.9675) rotate(90.0757) scale(679.057 357.773)">
<stop stop-opacity="0"/>
<stop offset="0.221563"/>
<stop offset="1" stop-opacity="0"/>
</radialGradient>
<linearGradient id="paint6_linear_1628_10967" x1="173.695" y1="257.301" x2="101.965" y2="257.301" gradientUnits="userSpaceOnUse">
<stop stop-color="white" stop-opacity="0"/>
<stop offset="1" stop-color="white"/>
</linearGradient>
<linearGradient id="paint7_linear_1628_10967" x1="71.7297" y1="187.479" x2="-4.52376e-06" y2="187.479" gradientUnits="userSpaceOnUse">
<stop stop-color="white" stop-opacity="0"/>
<stop offset="1" stop-color="white"/>
</linearGradient>
<linearGradient id="paint8_linear_1628_10967" x1="101.964" y1="62.4506" x2="250.803" y2="62.4506" gradientUnits="userSpaceOnUse">
<stop stop-color="#E3E3E3"/>
<stop offset="0.21988" stop-color="#99C2FF"/>
<stop offset="0.512048" stop-color="#F48DA5"/>
<stop offset="0.75" stop-color="#A699DC"/>
<stop offset="1" stop-color="#E3E3E3"/>
</linearGradient>
<linearGradient id="paint9_linear_1628_10967" x1="101.964" y1="62.4506" x2="250.803" y2="62.4506" gradientUnits="userSpaceOnUse">
<stop stop-color="#E3E3E3"/>
<stop offset="0.21988" stop-color="#99C2FF"/>
<stop offset="0.512048" stop-color="#F48DA5"/>
<stop offset="0.75" stop-color="#A699DC"/>
<stop offset="1" stop-color="#E3E3E3"/>
</linearGradient>
</defs>
</svg>
