<svg width="497" height="756" viewBox="0 0 497 756" fill="none" xmlns="http://www.w3.org/2000/svg">
<g opacity="0.4">
<mask id="mask0_1380_16677" style="mask-type:alpha" maskUnits="userSpaceOnUse" x="111" y="84" width="32" height="144">
<rect width="31.4843" height="143.642" transform="matrix(-1 0 0 1 142.519 84.0602)" fill="url(#paint0_radial_1380_16677)"/>
</mask>
<g mask="url(#mask0_1380_16677)">
<rect opacity="0.5" width="15.1731" height="141.769" transform="matrix(-1 0 0 1 142.519 85.9332)" fill="url(#paint1_linear_1380_16677)"/>
<rect opacity="0.5" x="111.034" y="85.9332" width="15.1731" height="141.769" fill="url(#paint2_linear_1380_16677)"/>
</g>
</g>
<path d="M136.171 90.1184C140.094 87.7408 142.055 86.5519 142.428 85.1242C142.549 84.6631 142.549 84.1934 142.428 83.7323C142.055 82.3046 140.094 81.1157 136.171 78.7381C132.248 76.3605 130.286 75.1716 127.931 74.9455C127.17 74.8725 126.395 74.8725 125.634 74.9455C123.279 75.1716 121.317 76.3605 117.394 78.7381C113.471 81.1157 111.51 82.3046 111.137 83.7323C111.016 84.1934 111.016 84.6631 111.137 85.1242C111.51 86.5519 113.471 87.7408 117.394 90.1184C121.317 92.496 123.279 93.6849 125.634 93.911C126.395 93.984 127.17 93.984 127.931 93.911C130.286 93.6849 132.248 92.496 136.171 90.1184Z" fill="url(#paint3_linear_1380_16677)"/>
<path d="M136.171 90.1184C140.094 87.7408 142.055 86.5519 142.428 85.1242C142.549 84.6631 142.549 84.1934 142.428 83.7323C142.055 82.3046 140.094 81.1157 136.171 78.7381C132.248 76.3605 130.286 75.1716 127.931 74.9455C127.17 74.8725 126.395 74.8725 125.634 74.9455C123.279 75.1716 121.317 76.3605 117.394 78.7381C113.471 81.1157 111.51 82.3046 111.137 83.7323C111.016 84.1934 111.016 84.6631 111.137 85.1242C111.51 86.5519 113.471 87.7408 117.394 90.1184C121.317 92.496 123.279 93.6849 125.634 93.911C126.395 93.984 127.17 93.984 127.931 93.911C130.286 93.6849 132.248 92.496 136.171 90.1184Z" fill="white" fill-opacity="0.6"/>
<path d="M142.519 82.8567H111.034V84.374H142.519V82.8567Z" fill="url(#paint4_linear_1380_16677)"/>
<path d="M142.519 82.8567H111.034V84.374H142.519V82.8567Z" fill="white" fill-opacity="0.6"/>
<rect width="21.9561" height="21.9561" rx="6.06926" transform="matrix(-0.855186 -0.518321 -0.855186 0.518321 145.552 82.6681)" fill="white"/>
<g opacity="0.4">
<mask id="mask1_1380_16677" style="mask-type:alpha" maskUnits="userSpaceOnUse" x="329" y="428" width="14" height="62">
<rect width="13.265" height="60.5196" transform="matrix(-1 0 0 1 342.544 428.669)" fill="url(#paint5_radial_1380_16677)"/>
</mask>
<g mask="url(#mask1_1380_16677)">
<rect opacity="0.5" width="6.39278" height="59.7302" transform="matrix(-1 0 0 1 342.544 429.457)" fill="url(#paint6_linear_1380_16677)"/>
<rect opacity="0.5" x="329.279" y="429.457" width="6.39278" height="59.7302" fill="url(#paint7_linear_1380_16677)"/>
</g>
</g>
<path d="M339.869 431.221C341.522 430.219 342.348 429.718 342.506 429.117C342.556 428.923 342.556 428.725 342.506 428.53C342.348 427.929 341.522 427.428 339.869 426.426C338.216 425.425 337.39 424.924 336.397 424.828C336.077 424.798 335.75 424.798 335.43 424.828C334.437 424.924 333.611 425.425 331.958 426.426C330.305 427.428 329.479 427.929 329.322 428.53C329.271 428.725 329.271 428.923 329.322 429.117C329.479 429.718 330.305 430.219 331.958 431.221C333.611 432.223 334.437 432.724 335.43 432.819C335.75 432.85 336.077 432.85 336.397 432.819C337.39 432.724 338.216 432.223 339.869 431.221Z" fill="url(#paint8_linear_1380_16677)"/>
<path d="M339.869 431.221C341.522 430.219 342.348 429.718 342.506 429.117C342.556 428.923 342.556 428.725 342.506 428.53C342.348 427.929 341.522 427.428 339.869 426.426C338.216 425.425 337.39 424.924 336.397 424.828C336.077 424.798 335.75 424.798 335.43 424.828C334.437 424.924 333.611 425.425 331.958 426.426C330.305 427.428 329.479 427.929 329.322 428.53C329.271 428.725 329.271 428.923 329.322 429.117C329.479 429.718 330.305 430.219 331.958 431.221C333.611 432.223 334.437 432.724 335.43 432.819C335.75 432.85 336.077 432.85 336.397 432.819C337.39 432.724 338.216 432.223 339.869 431.221Z" fill="white" fill-opacity="0.6"/>
<path d="M342.544 428.162H329.279V428.801H342.544V428.162Z" fill="url(#paint9_linear_1380_16677)"/>
<path d="M342.544 428.162H329.279V428.801H342.544V428.162Z" fill="white" fill-opacity="0.6"/>
<rect width="9.25056" height="9.25056" rx="2.55711" transform="matrix(-0.855186 -0.518321 -0.855186 0.518321 343.821 428.082)" fill="white"/>
<g opacity="0.4">
<mask id="mask2_1380_16677" style="mask-type:alpha" maskUnits="userSpaceOnUse" x="60" y="254" width="348" height="446">
<rect x="60" y="254" width="348" height="446" fill="url(#paint10_radial_1380_16677)"/>
</mask>
<g mask="url(#mask2_1380_16677)">
<rect opacity="0.5" x="59.5931" y="274.245" width="167.949" height="1569.21" fill="url(#paint11_linear_1380_16677)"/>
<rect opacity="0.1" width="167.949" height="1569.21" transform="matrix(-1 0 0 1 408.089 274.245)" fill="url(#paint12_linear_1380_16677)"/>
</g>
</g>
<g opacity="0.4" filter="url(#filter0_f_1380_16677)">
<rect width="254.06" height="254.06" rx="74.6705" transform="matrix(0.82945 -0.558581 0.82945 0.558581 23.1891 311.695)" fill="#004316"/>
</g>
<path d="M129.882 330.832C86.445 301.58 64.7263 286.954 60.5951 269.388C59.2609 263.715 59.2609 257.936 60.5951 252.263C64.7263 234.698 86.445 220.072 129.882 190.819C173.32 161.567 195.038 146.941 221.122 144.159C229.546 143.26 238.127 143.26 246.551 144.159C272.634 146.941 294.353 161.567 337.79 190.819C381.228 220.072 402.946 234.698 407.077 252.263C408.412 257.936 408.412 263.715 407.077 269.388C402.946 286.954 381.228 301.58 337.79 330.832C294.353 360.084 272.634 374.71 246.551 377.492C238.127 378.391 229.546 378.391 221.122 377.492C195.038 374.71 173.32 360.084 129.882 330.832Z" fill="url(#paint13_linear_1380_16677)"/>
<path d="M129.882 330.832C86.445 301.58 64.7263 286.954 60.5951 269.388C59.2609 263.715 59.2609 257.936 60.5951 252.263C64.7263 234.698 86.445 220.072 129.882 190.819C173.32 161.567 195.038 146.941 221.122 144.159C229.546 143.26 238.127 143.26 246.551 144.159C272.634 146.941 294.353 161.567 337.79 190.819C381.228 220.072 402.946 234.698 407.077 252.263C408.412 257.936 408.412 263.715 407.077 269.388C402.946 286.954 381.228 301.58 337.79 330.832C294.353 360.084 272.634 374.71 246.551 377.492C238.127 378.391 229.546 378.391 221.122 377.492C195.038 374.71 173.32 360.084 129.882 330.832Z" fill="white" fill-opacity="0.6"/>
<path d="M59.5945 241.49H408.212V260.158H59.5945V241.49Z" fill="url(#paint14_linear_1380_16677)"/>
<path d="M59.5945 241.49H408.212V260.158H59.5945V241.49Z" fill="white" fill-opacity="0.6"/>
<rect width="254.06" height="254.06" rx="74.6705" transform="matrix(0.82945 -0.558581 0.82945 0.558581 23.1896 239.166)" fill="white"/>
<g opacity="0.2" filter="url(#filter1_f_1380_16677)">
<path fill-rule="evenodd" clip-rule="evenodd" d="M212.704 344.022C195.124 344.022 177.901 340.7 162.816 334.471L159.516 333.087C159.344 333.014 159.154 332.994 158.97 333.028L123.89 339.474C123.149 339.61 122.546 338.88 122.82 338.178L131.832 315.099C131.966 314.756 131.893 314.367 131.643 314.097L129.675 311.964C119.909 301.059 114.723 288.455 114.709 275.588C114.709 237.883 158.658 207.154 212.585 207.154C238.717 207.154 263.305 214.297 281.716 227.253C290.832 233.597 298.057 241.144 302.971 249.456C307.884 257.767 310.39 266.678 310.342 275.671C310.58 313.376 266.631 344.022 212.704 344.022ZM246.319 286.135C248.932 286.883 263.423 291.866 266.393 292.863C269.363 293.859 271.144 294.274 271.976 295.188C272.807 296.102 272.807 300.171 270.313 304.988C267.937 309.805 256.178 314.207 250.476 314.788C245.369 315.286 238.954 315.535 231.946 313.957C227.67 313.044 222.206 311.798 215.198 309.639C185.74 300.752 166.379 279.99 164.954 278.578L164.93 278.556C163.418 277.147 152.957 267.396 152.957 257.317C152.957 247.185 160.559 242.202 163.172 240.126C165.904 238.049 168.992 237.551 171.011 237.551H176.713C178.495 237.634 180.989 237.136 183.365 241.122C185.74 245.275 191.679 255.407 192.392 256.403C193.105 257.4 193.58 258.563 192.63 259.975C191.679 261.303 191.086 262.217 189.66 263.38C188.235 264.542 186.572 266.037 185.265 266.951C183.721 268.03 182.296 269.11 183.959 271.186C185.74 273.263 191.561 279.99 200.35 285.471C211.516 292.447 221.018 294.69 223.988 295.686C226.958 296.766 228.739 296.6 230.402 295.188C232.065 293.859 237.648 289.208 239.667 287.132C241.686 285.139 243.587 285.471 246.319 286.135Z" fill="#00C64F"/>
<path fill-rule="evenodd" clip-rule="evenodd" d="M212.704 344.022C195.124 344.022 177.901 340.7 162.816 334.471L159.516 333.087C159.344 333.014 159.154 332.994 158.97 333.028L123.89 339.474C123.149 339.61 122.546 338.88 122.82 338.178L131.832 315.099C131.966 314.756 131.893 314.367 131.643 314.097L129.675 311.964C119.909 301.059 114.723 288.455 114.709 275.588C114.709 237.883 158.658 207.154 212.585 207.154C238.717 207.154 263.305 214.297 281.716 227.253C290.832 233.597 298.057 241.144 302.971 249.456C307.884 257.767 310.39 266.678 310.342 275.671C310.58 313.376 266.631 344.022 212.704 344.022ZM246.319 286.135C248.932 286.883 263.423 291.866 266.393 292.863C269.363 293.859 271.144 294.274 271.976 295.188C272.807 296.102 272.807 300.171 270.313 304.988C267.937 309.805 256.178 314.207 250.476 314.788C245.369 315.286 238.954 315.535 231.946 313.957C227.67 313.044 222.206 311.798 215.198 309.639C185.74 300.752 166.379 279.99 164.954 278.578L164.93 278.556C163.418 277.147 152.957 267.396 152.957 257.317C152.957 247.185 160.559 242.202 163.172 240.126C165.904 238.049 168.992 237.551 171.011 237.551H176.713C178.495 237.634 180.989 237.136 183.365 241.122C185.74 245.275 191.679 255.407 192.392 256.403C193.105 257.4 193.58 258.563 192.63 259.975C191.679 261.303 191.086 262.217 189.66 263.38C188.235 264.542 186.572 266.037 185.265 266.951C183.721 268.03 182.296 269.11 183.959 271.186C185.74 273.263 191.561 279.99 200.35 285.471C211.516 292.447 221.018 294.69 223.988 295.686C226.958 296.766 228.739 296.6 230.402 295.188C232.065 293.859 237.648 289.208 239.667 287.132C241.686 285.139 243.587 285.471 246.319 286.135Z" fill="url(#paint15_radial_1380_16677)" fill-opacity="0.2"/>
<path fill-rule="evenodd" clip-rule="evenodd" d="M212.704 344.022C195.124 344.022 177.901 340.7 162.816 334.471L159.516 333.087C159.344 333.014 159.154 332.994 158.97 333.028L123.89 339.474C123.149 339.61 122.546 338.88 122.82 338.178L131.832 315.099C131.966 314.756 131.893 314.367 131.643 314.097L129.675 311.964C119.909 301.059 114.723 288.455 114.709 275.588C114.709 237.883 158.658 207.154 212.585 207.154C238.717 207.154 263.305 214.297 281.716 227.253C290.832 233.597 298.057 241.144 302.971 249.456C307.884 257.767 310.39 266.678 310.342 275.671C310.58 313.376 266.631 344.022 212.704 344.022ZM246.319 286.135C248.932 286.883 263.423 291.866 266.393 292.863C269.363 293.859 271.144 294.274 271.976 295.188C272.807 296.102 272.807 300.171 270.313 304.988C267.937 309.805 256.178 314.207 250.476 314.788C245.369 315.286 238.954 315.535 231.946 313.957C227.67 313.044 222.206 311.798 215.198 309.639C185.74 300.752 166.379 279.99 164.954 278.578L164.93 278.556C163.418 277.147 152.957 267.396 152.957 257.317C152.957 247.185 160.559 242.202 163.172 240.126C165.904 238.049 168.992 237.551 171.011 237.551H176.713C178.495 237.634 180.989 237.136 183.365 241.122C185.74 245.275 191.679 255.407 192.392 256.403C193.105 257.4 193.58 258.563 192.63 259.975C191.679 261.303 191.086 262.217 189.66 263.38C188.235 264.542 186.572 266.037 185.265 266.951C183.721 268.03 182.296 269.11 183.959 271.186C185.74 273.263 191.561 279.99 200.35 285.471C211.516 292.447 221.018 294.69 223.988 295.686C226.958 296.766 228.739 296.6 230.402 295.188C232.065 293.859 237.648 289.208 239.667 287.132C241.686 285.139 243.587 285.471 246.319 286.135Z" fill="url(#paint16_radial_1380_16677)" fill-opacity="0.2"/>
<path fill-rule="evenodd" clip-rule="evenodd" d="M257.813 199.514C272.109 203.664 285.08 209.762 295.97 217.453C318.182 232.983 330.416 253.663 330.416 275.671C330.416 321.017 277.558 357.974 212.704 357.974C193.082 357.974 173.813 354.52 156.653 348.02C156.488 347.958 156.31 347.942 156.137 347.974L95.7369 359.074C94.9962 359.21 94.3936 358.481 94.6669 357.779L110.466 317.222C110.592 316.898 110.533 316.531 110.315 316.261C100.328 303.911 94.9913 289.952 94.9913 275.588C94.9913 230.242 147.849 193.285 212.704 193.285C228.182 193.247 243.517 195.365 257.813 199.514ZM162.816 334.471C177.901 340.7 195.124 344.022 212.704 344.022C266.631 344.022 310.58 313.376 310.342 275.671C310.39 266.678 307.884 257.767 302.971 249.456C298.057 241.144 290.832 233.597 281.716 227.253C263.305 214.297 238.717 207.154 212.585 207.154C158.658 207.154 114.709 237.883 114.709 275.588C114.723 288.455 119.909 301.059 129.675 311.964L131.643 314.097C131.893 314.367 131.966 314.756 131.832 315.099L122.82 338.178C122.546 338.88 123.149 339.61 123.89 339.474L158.97 333.028C159.154 332.994 159.344 333.014 159.516 333.087L162.816 334.471Z" fill="#00C64F"/>
<path fill-rule="evenodd" clip-rule="evenodd" d="M257.813 199.514C272.109 203.664 285.08 209.762 295.97 217.453C318.182 232.983 330.416 253.663 330.416 275.671C330.416 321.017 277.558 357.974 212.704 357.974C193.082 357.974 173.813 354.52 156.653 348.02C156.488 347.958 156.31 347.942 156.137 347.974L95.7369 359.074C94.9962 359.21 94.3936 358.481 94.6669 357.779L110.466 317.222C110.592 316.898 110.533 316.531 110.315 316.261C100.328 303.911 94.9913 289.952 94.9913 275.588C94.9913 230.242 147.849 193.285 212.704 193.285C228.182 193.247 243.517 195.365 257.813 199.514ZM162.816 334.471C177.901 340.7 195.124 344.022 212.704 344.022C266.631 344.022 310.58 313.376 310.342 275.671C310.39 266.678 307.884 257.767 302.971 249.456C298.057 241.144 290.832 233.597 281.716 227.253C263.305 214.297 238.717 207.154 212.585 207.154C158.658 207.154 114.709 237.883 114.709 275.588C114.723 288.455 119.909 301.059 129.675 311.964L131.643 314.097C131.893 314.367 131.966 314.756 131.832 315.099L122.82 338.178C122.546 338.88 123.149 339.61 123.89 339.474L158.97 333.028C159.154 332.994 159.344 333.014 159.516 333.087L162.816 334.471Z" fill="url(#paint17_radial_1380_16677)" fill-opacity="0.2"/>
<path fill-rule="evenodd" clip-rule="evenodd" d="M257.813 199.514C272.109 203.664 285.08 209.762 295.97 217.453C318.182 232.983 330.416 253.663 330.416 275.671C330.416 321.017 277.558 357.974 212.704 357.974C193.082 357.974 173.813 354.52 156.653 348.02C156.488 347.958 156.31 347.942 156.137 347.974L95.7369 359.074C94.9962 359.21 94.3936 358.481 94.6669 357.779L110.466 317.222C110.592 316.898 110.533 316.531 110.315 316.261C100.328 303.911 94.9913 289.952 94.9913 275.588C94.9913 230.242 147.849 193.285 212.704 193.285C228.182 193.247 243.517 195.365 257.813 199.514ZM162.816 334.471C177.901 340.7 195.124 344.022 212.704 344.022C266.631 344.022 310.58 313.376 310.342 275.671C310.39 266.678 307.884 257.767 302.971 249.456C298.057 241.144 290.832 233.597 281.716 227.253C263.305 214.297 238.717 207.154 212.585 207.154C158.658 207.154 114.709 237.883 114.709 275.588C114.723 288.455 119.909 301.059 129.675 311.964L131.643 314.097C131.893 314.367 131.966 314.756 131.832 315.099L122.82 338.178C122.546 338.88 123.149 339.61 123.89 339.474L158.97 333.028C159.154 332.994 159.344 333.014 159.516 333.087L162.816 334.471Z" fill="url(#paint18_radial_1380_16677)" fill-opacity="0.2"/>
</g>
<path fill-rule="evenodd" clip-rule="evenodd" d="M211.391 295.413C193.811 295.413 176.588 292.091 161.502 285.862L158.203 284.478C158.031 284.406 157.841 284.385 157.657 284.419L122.576 290.865C121.835 291.001 121.233 290.271 121.507 289.57L130.519 266.49C130.653 266.147 130.58 265.758 130.33 265.488L128.362 263.355C118.595 252.451 113.409 239.846 113.396 226.979C113.396 189.274 157.345 185.404 211.272 185.404C237.404 185.404 261.991 165.688 280.403 178.644C289.519 184.989 296.743 192.535 301.657 200.847C306.571 209.158 309.077 218.069 309.029 227.062C309.267 264.767 265.317 295.413 211.391 295.413ZM245.006 237.527C247.619 238.274 262.11 243.257 265.08 244.254C268.049 245.25 269.831 245.666 270.663 246.579C271.494 247.493 271.494 251.562 269 256.379C266.624 261.196 254.865 265.598 249.163 266.179C244.055 266.677 237.641 266.926 230.633 265.349C226.357 264.435 220.893 263.189 213.885 261.03C184.427 252.143 165.066 231.381 163.64 229.969L163.617 229.947C162.105 228.538 151.643 218.787 151.643 208.708C151.643 198.576 159.245 193.593 161.859 191.517C164.591 189.44 167.679 188.942 169.698 188.942H175.4C177.181 189.025 179.676 188.527 182.051 192.513C184.427 196.666 190.366 206.798 191.079 207.795C191.792 208.791 192.267 209.954 191.316 211.366C190.366 212.694 189.772 213.608 188.347 214.771C186.922 215.933 185.259 217.428 183.952 218.342C182.408 219.422 180.982 220.501 182.645 222.577C184.427 224.654 190.247 231.381 199.037 236.862C210.203 243.838 219.705 246.081 222.675 247.077C225.644 248.157 227.426 247.991 229.089 246.579C230.752 245.25 236.335 240.599 238.354 238.523C240.373 236.53 242.274 236.862 245.006 237.527Z" fill="url(#paint19_linear_1380_16677)"/>
<path fill-rule="evenodd" clip-rule="evenodd" d="M211.391 295.413C193.811 295.413 176.588 292.091 161.502 285.862L158.203 284.478C158.031 284.406 157.841 284.385 157.657 284.419L122.576 290.865C121.835 291.001 121.233 290.271 121.507 289.57L130.519 266.49C130.653 266.147 130.58 265.758 130.33 265.488L128.362 263.355C118.595 252.451 113.409 239.846 113.396 226.979C113.396 189.274 157.345 185.404 211.272 185.404C237.404 185.404 261.991 165.688 280.403 178.644C289.519 184.989 296.743 192.535 301.657 200.847C306.571 209.158 309.077 218.069 309.029 227.062C309.267 264.767 265.317 295.413 211.391 295.413ZM245.006 237.527C247.619 238.274 262.11 243.257 265.08 244.254C268.049 245.25 269.831 245.666 270.663 246.579C271.494 247.493 271.494 251.562 269 256.379C266.624 261.196 254.865 265.598 249.163 266.179C244.055 266.677 237.641 266.926 230.633 265.349C226.357 264.435 220.893 263.189 213.885 261.03C184.427 252.143 165.066 231.381 163.64 229.969L163.617 229.947C162.105 228.538 151.643 218.787 151.643 208.708C151.643 198.576 159.245 193.593 161.859 191.517C164.591 189.44 167.679 188.942 169.698 188.942H175.4C177.181 189.025 179.676 188.527 182.051 192.513C184.427 196.666 190.366 206.798 191.079 207.795C191.792 208.791 192.267 209.954 191.316 211.366C190.366 212.694 189.772 213.608 188.347 214.771C186.922 215.933 185.259 217.428 183.952 218.342C182.408 219.422 180.982 220.501 182.645 222.577C184.427 224.654 190.247 231.381 199.037 236.862C210.203 243.838 219.705 246.081 222.675 247.077C225.644 248.157 227.426 247.991 229.089 246.579C230.752 245.25 236.335 240.599 238.354 238.523C240.373 236.53 242.274 236.862 245.006 237.527Z" fill="url(#paint20_linear_1380_16677)" fill-opacity="0.2"/>
<path fill-rule="evenodd" clip-rule="evenodd" d="M256.499 177.764C269.787 181.621 321.1 187.141 328.269 187.9C328.759 187.952 329.103 188.355 329.103 188.847C329.103 192.566 329.103 207.95 329.103 227.062C329.103 272.408 276.245 309.365 211.391 309.365C191.769 309.365 172.5 305.911 155.339 299.412C155.175 299.349 154.997 299.333 154.823 299.365L93.8634 310.568C93.2725 310.677 92.7278 310.23 92.728 309.629C92.7455 257.569 93.9404 193.309 94.035 188.3C94.0393 188.075 94.0972 187.923 94.2478 187.755C97.42 184.226 136.878 141.762 199.037 141.762C214.516 141.724 242.204 173.615 256.499 177.764ZM161.502 285.862C176.588 292.091 193.811 295.413 211.391 295.413C265.317 295.413 309.267 264.767 309.029 227.062C309.077 218.069 306.571 209.158 301.657 200.847C296.743 192.535 289.519 184.989 280.403 178.644C261.991 165.688 237.404 185.404 211.272 185.404C157.345 185.404 113.396 189.274 113.396 226.979C113.409 239.846 118.595 252.451 128.362 263.355L130.33 265.488C130.58 265.758 130.653 266.147 130.519 266.49L121.507 289.57C121.233 290.271 121.835 291.001 122.576 290.865L157.657 284.419C157.841 284.385 158.031 284.406 158.203 284.478L161.502 285.862Z" fill="url(#paint21_linear_1380_16677)"/>
<path fill-rule="evenodd" clip-rule="evenodd" d="M256.499 177.764C269.787 181.621 321.1 187.141 328.269 187.9C328.759 187.952 329.103 188.355 329.103 188.847C329.103 192.566 329.103 207.95 329.103 227.062C329.103 272.408 276.245 309.365 211.391 309.365C191.769 309.365 172.5 305.911 155.339 299.412C155.175 299.349 154.997 299.333 154.823 299.365L93.8634 310.568C93.2725 310.677 92.7278 310.23 92.728 309.629C92.7455 257.569 93.9404 193.309 94.035 188.3C94.0393 188.075 94.0972 187.923 94.2478 187.755C97.42 184.226 136.878 141.762 199.037 141.762C214.516 141.724 242.204 173.615 256.499 177.764ZM161.502 285.862C176.588 292.091 193.811 295.413 211.391 295.413C265.317 295.413 309.267 264.767 309.029 227.062C309.077 218.069 306.571 209.158 301.657 200.847C296.743 192.535 289.519 184.989 280.403 178.644C261.991 165.688 237.404 185.404 211.272 185.404C157.345 185.404 113.396 189.274 113.396 226.979C113.409 239.846 118.595 252.451 128.362 263.355L130.33 265.488C130.58 265.758 130.653 266.147 130.519 266.49L121.507 289.57C121.233 290.271 121.835 291.001 122.576 290.865L157.657 284.419C157.841 284.385 158.031 284.406 158.203 284.478L161.502 285.862Z" fill="url(#paint22_linear_1380_16677)" fill-opacity="0.2"/>
<path d="M265.08 244.254C262.11 243.257 247.619 238.274 245.006 237.527C242.274 236.862 240.373 236.53 238.354 238.523C236.335 240.599 230.752 245.25 229.089 246.579C227.426 247.991 225.644 248.157 222.675 247.077C219.705 246.081 210.203 243.838 199.037 236.862C190.247 231.381 184.427 224.654 182.645 222.577C180.982 220.501 182.408 219.422 183.952 218.342C185.259 217.428 186.922 215.933 188.347 214.771C189.772 213.608 190.366 212.694 191.316 211.366C192.267 209.954 191.792 208.791 191.079 207.795C190.366 206.798 184.427 196.666 182.051 192.513C179.676 188.527 177.181 189.025 175.4 188.942H169.698C167.679 188.942 164.591 189.44 161.859 191.517C159.245 193.593 151.643 198.576 151.643 208.708C151.643 218.787 162.105 228.538 163.617 229.947L163.64 229.969C165.066 231.381 184.427 252.143 213.885 261.03C220.893 263.189 226.357 264.435 230.633 265.349C237.641 266.926 244.055 266.677 249.163 266.179C254.865 265.598 266.624 261.196 269 256.379C271.494 251.562 271.494 247.493 270.663 246.579C269.831 245.666 268.049 245.25 265.08 244.254Z" fill="url(#paint23_linear_1380_16677)"/>
<path d="M265.08 244.254C262.11 243.257 247.619 238.274 245.006 237.527C242.274 236.862 240.373 236.53 238.354 238.523C236.335 240.599 230.752 245.25 229.089 246.579C227.426 247.991 225.644 248.157 222.675 247.077C219.705 246.081 210.203 243.838 199.037 236.862C190.247 231.381 184.427 224.654 182.645 222.577C180.982 220.501 182.408 219.422 183.952 218.342C185.259 217.428 186.922 215.933 188.347 214.771C189.772 213.608 190.366 212.694 191.316 211.366C192.267 209.954 191.792 208.791 191.079 207.795C190.366 206.798 184.427 196.666 182.051 192.513C179.676 188.527 177.181 189.025 175.4 188.942H169.698C167.679 188.942 164.591 189.44 161.859 191.517C159.245 193.593 151.643 198.576 151.643 208.708C151.643 218.787 162.105 228.538 163.617 229.947L163.64 229.969C165.066 231.381 184.427 252.143 213.885 261.03C220.893 263.189 226.357 264.435 230.633 265.349C237.641 266.926 244.055 266.677 249.163 266.179C254.865 265.598 266.624 261.196 269 256.379C271.494 251.562 271.494 247.493 270.663 246.579C269.831 245.666 268.049 245.25 265.08 244.254Z" fill="url(#paint24_linear_1380_16677)" fill-opacity="0.2"/>
<ellipse cx="213.592" cy="173.795" rx="91.7676" ry="66.0279" fill="url(#paint25_linear_1380_16677)"/>
<g opacity="0.3" filter="url(#filter2_f_1380_16677)">
<path fill-rule="evenodd" clip-rule="evenodd" d="M211.391 253.548C193.811 253.548 176.588 250.226 161.502 243.998L158.203 242.613C158.031 242.541 157.841 242.521 157.657 242.554L122.576 249.001C121.835 249.137 121.233 248.407 121.507 247.705L130.519 224.626C130.653 224.283 130.58 223.894 130.33 223.624L128.362 221.491C118.595 210.586 113.409 197.981 113.396 185.115C113.396 147.41 157.345 116.681 211.272 116.681C237.404 116.681 261.991 123.824 280.403 136.779C289.519 143.124 296.743 150.671 301.657 158.982C306.571 167.294 309.077 176.204 309.029 185.198C309.267 222.903 265.317 253.548 211.391 253.548ZM245.006 195.662C247.619 196.41 262.11 201.393 265.08 202.389C268.049 203.386 269.831 203.801 270.663 204.715C271.494 205.628 271.494 209.698 269 214.515C266.624 219.332 254.865 223.733 249.163 224.315C244.055 224.813 237.641 225.062 230.633 223.484C226.357 222.571 220.893 221.325 213.885 219.165C184.427 210.279 165.066 189.516 163.64 188.105L163.617 188.083C162.105 186.673 151.643 176.923 151.643 166.844C151.643 156.712 159.245 151.729 161.859 149.652C164.591 147.576 167.679 147.078 169.698 147.078H175.4C177.181 147.161 179.676 146.662 182.051 150.649C184.427 154.801 190.366 164.934 191.079 165.93C191.792 166.927 192.267 168.089 191.316 169.501C190.366 170.83 189.772 171.744 188.347 172.906C186.922 174.069 185.259 175.564 183.952 176.478C182.408 177.557 180.982 178.637 182.645 180.713C184.427 182.789 190.247 189.516 199.037 194.998C210.203 201.974 219.705 204.216 222.675 205.213C225.644 206.293 227.426 206.127 229.089 204.715C230.752 203.386 236.335 198.735 238.354 196.659C240.373 194.666 242.274 194.998 245.006 195.662Z" fill="url(#paint26_linear_1380_16677)"/>
<path fill-rule="evenodd" clip-rule="evenodd" d="M211.391 253.548C193.811 253.548 176.588 250.226 161.502 243.998L158.203 242.613C158.031 242.541 157.841 242.521 157.657 242.554L122.576 249.001C121.835 249.137 121.233 248.407 121.507 247.705L130.519 224.626C130.653 224.283 130.58 223.894 130.33 223.624L128.362 221.491C118.595 210.586 113.409 197.981 113.396 185.115C113.396 147.41 157.345 116.681 211.272 116.681C237.404 116.681 261.991 123.824 280.403 136.779C289.519 143.124 296.743 150.671 301.657 158.982C306.571 167.294 309.077 176.204 309.029 185.198C309.267 222.903 265.317 253.548 211.391 253.548ZM245.006 195.662C247.619 196.41 262.11 201.393 265.08 202.389C268.049 203.386 269.831 203.801 270.663 204.715C271.494 205.628 271.494 209.698 269 214.515C266.624 219.332 254.865 223.733 249.163 224.315C244.055 224.813 237.641 225.062 230.633 223.484C226.357 222.571 220.893 221.325 213.885 219.165C184.427 210.279 165.066 189.516 163.64 188.105L163.617 188.083C162.105 186.673 151.643 176.923 151.643 166.844C151.643 156.712 159.245 151.729 161.859 149.652C164.591 147.576 167.679 147.078 169.698 147.078H175.4C177.181 147.161 179.676 146.662 182.051 150.649C184.427 154.801 190.366 164.934 191.079 165.93C191.792 166.927 192.267 168.089 191.316 169.501C190.366 170.83 189.772 171.744 188.347 172.906C186.922 174.069 185.259 175.564 183.952 176.478C182.408 177.557 180.982 178.637 182.645 180.713C184.427 182.789 190.247 189.516 199.037 194.998C210.203 201.974 219.705 204.216 222.675 205.213C225.644 206.293 227.426 206.127 229.089 204.715C230.752 203.386 236.335 198.735 238.354 196.659C240.373 194.666 242.274 194.998 245.006 195.662Z" fill="url(#paint27_radial_1380_16677)" fill-opacity="0.2"/>
<path fill-rule="evenodd" clip-rule="evenodd" d="M211.391 253.548C193.811 253.548 176.588 250.226 161.502 243.998L158.203 242.613C158.031 242.541 157.841 242.521 157.657 242.554L122.576 249.001C121.835 249.137 121.233 248.407 121.507 247.705L130.519 224.626C130.653 224.283 130.58 223.894 130.33 223.624L128.362 221.491C118.595 210.586 113.409 197.981 113.396 185.115C113.396 147.41 157.345 116.681 211.272 116.681C237.404 116.681 261.991 123.824 280.403 136.779C289.519 143.124 296.743 150.671 301.657 158.982C306.571 167.294 309.077 176.204 309.029 185.198C309.267 222.903 265.317 253.548 211.391 253.548ZM245.006 195.662C247.619 196.41 262.11 201.393 265.08 202.389C268.049 203.386 269.831 203.801 270.663 204.715C271.494 205.628 271.494 209.698 269 214.515C266.624 219.332 254.865 223.733 249.163 224.315C244.055 224.813 237.641 225.062 230.633 223.484C226.357 222.571 220.893 221.325 213.885 219.165C184.427 210.279 165.066 189.516 163.64 188.105L163.617 188.083C162.105 186.673 151.643 176.923 151.643 166.844C151.643 156.712 159.245 151.729 161.859 149.652C164.591 147.576 167.679 147.078 169.698 147.078H175.4C177.181 147.161 179.676 146.662 182.051 150.649C184.427 154.801 190.366 164.934 191.079 165.93C191.792 166.927 192.267 168.089 191.316 169.501C190.366 170.83 189.772 171.744 188.347 172.906C186.922 174.069 185.259 175.564 183.952 176.478C182.408 177.557 180.982 178.637 182.645 180.713C184.427 182.789 190.247 189.516 199.037 194.998C210.203 201.974 219.705 204.216 222.675 205.213C225.644 206.293 227.426 206.127 229.089 204.715C230.752 203.386 236.335 198.735 238.354 196.659C240.373 194.666 242.274 194.998 245.006 195.662Z" fill="url(#paint28_radial_1380_16677)" fill-opacity="0.2"/>
<path fill-rule="evenodd" clip-rule="evenodd" d="M256.499 109.041C270.795 113.19 283.766 119.288 294.656 126.979C316.869 142.51 329.103 163.189 329.103 185.198C329.103 230.543 276.245 267.501 211.391 267.501C191.769 267.501 172.5 264.047 155.339 257.547C155.175 257.485 154.997 257.469 154.823 257.5L94.4237 268.601C93.683 268.737 93.0803 268.008 93.3537 267.306L109.153 226.749C109.279 226.425 109.22 226.058 109.001 225.788C99.0151 213.437 93.678 199.479 93.678 185.115C93.678 139.769 146.536 102.812 211.391 102.812C226.869 102.774 242.204 104.892 256.499 109.041ZM161.502 243.998C176.588 250.226 193.811 253.548 211.391 253.548C265.317 253.548 309.267 222.903 309.029 185.198C309.077 176.204 306.571 167.294 301.657 158.982C296.743 150.671 289.519 143.124 280.403 136.779C261.991 123.824 237.404 116.681 211.272 116.681C157.345 116.681 113.396 147.41 113.396 185.115C113.409 197.981 118.595 210.586 128.362 221.491L130.33 223.624C130.58 223.894 130.653 224.283 130.519 224.626L121.507 247.705C121.233 248.407 121.835 249.137 122.576 249.001L157.657 242.554C157.841 242.521 158.031 242.541 158.203 242.613L161.502 243.998Z" fill="url(#paint29_linear_1380_16677)"/>
<path fill-rule="evenodd" clip-rule="evenodd" d="M256.499 109.041C270.795 113.19 283.766 119.288 294.656 126.979C316.869 142.51 329.103 163.189 329.103 185.198C329.103 230.543 276.245 267.501 211.391 267.501C191.769 267.501 172.5 264.047 155.339 257.547C155.175 257.485 154.997 257.469 154.823 257.5L94.4237 268.601C93.683 268.737 93.0803 268.008 93.3537 267.306L109.153 226.749C109.279 226.425 109.22 226.058 109.001 225.788C99.0151 213.437 93.678 199.479 93.678 185.115C93.678 139.769 146.536 102.812 211.391 102.812C226.869 102.774 242.204 104.892 256.499 109.041ZM161.502 243.998C176.588 250.226 193.811 253.548 211.391 253.548C265.317 253.548 309.267 222.903 309.029 185.198C309.077 176.204 306.571 167.294 301.657 158.982C296.743 150.671 289.519 143.124 280.403 136.779C261.991 123.824 237.404 116.681 211.272 116.681C157.345 116.681 113.396 147.41 113.396 185.115C113.409 197.981 118.595 210.586 128.362 221.491L130.33 223.624C130.58 223.894 130.653 224.283 130.519 224.626L121.507 247.705C121.233 248.407 121.835 249.137 122.576 249.001L157.657 242.554C157.841 242.521 158.031 242.541 158.203 242.613L161.502 243.998Z" fill="url(#paint30_radial_1380_16677)" fill-opacity="0.2"/>
<path fill-rule="evenodd" clip-rule="evenodd" d="M256.499 109.041C270.795 113.19 283.766 119.288 294.656 126.979C316.869 142.51 329.103 163.189 329.103 185.198C329.103 230.543 276.245 267.501 211.391 267.501C191.769 267.501 172.5 264.047 155.339 257.547C155.175 257.485 154.997 257.469 154.823 257.5L94.4237 268.601C93.683 268.737 93.0803 268.008 93.3537 267.306L109.153 226.749C109.279 226.425 109.22 226.058 109.001 225.788C99.0151 213.437 93.678 199.479 93.678 185.115C93.678 139.769 146.536 102.812 211.391 102.812C226.869 102.774 242.204 104.892 256.499 109.041ZM161.502 243.998C176.588 250.226 193.811 253.548 211.391 253.548C265.317 253.548 309.267 222.903 309.029 185.198C309.077 176.204 306.571 167.294 301.657 158.982C296.743 150.671 289.519 143.124 280.403 136.779C261.991 123.824 237.404 116.681 211.272 116.681C157.345 116.681 113.396 147.41 113.396 185.115C113.409 197.981 118.595 210.586 128.362 221.491L130.33 223.624C130.58 223.894 130.653 224.283 130.519 224.626L121.507 247.705C121.233 248.407 121.835 249.137 122.576 249.001L157.657 242.554C157.841 242.521 158.031 242.541 158.203 242.613L161.502 243.998Z" fill="url(#paint31_radial_1380_16677)" fill-opacity="0.2"/>
</g>
<path fill-rule="evenodd" clip-rule="evenodd" d="M211.391 255.115C193.811 255.115 176.588 251.793 161.502 245.565L158.203 244.18C158.031 244.108 157.841 244.088 157.657 244.121L122.576 250.568C121.835 250.704 121.233 249.974 121.507 249.272L130.519 226.193C130.653 225.85 130.58 225.461 130.33 225.191L128.362 223.058C118.595 212.153 113.409 199.548 113.396 186.682C113.396 148.977 157.345 118.248 211.272 118.248C237.404 118.248 261.991 125.391 280.403 138.346C289.519 144.691 296.743 152.238 301.657 160.549C306.571 168.861 309.077 177.771 309.029 186.765C309.267 224.47 265.317 255.115 211.391 255.115ZM245.006 197.229C247.619 197.977 262.11 202.96 265.08 203.956C268.049 204.953 269.831 205.368 270.663 206.282C271.494 207.195 271.494 211.265 269 216.082C266.624 220.899 254.865 225.3 249.163 225.882C244.055 226.38 237.641 226.629 230.633 225.051C226.357 224.138 220.893 222.892 213.885 220.733C184.427 211.846 165.066 191.083 163.64 189.672L163.617 189.65C162.105 188.24 151.643 178.49 151.643 168.411C151.643 158.279 159.245 153.296 161.859 151.219C164.591 149.143 167.679 148.645 169.698 148.645H175.4C177.181 148.728 179.676 148.229 182.051 152.216C184.427 156.368 190.366 166.501 191.079 167.497C191.792 168.494 192.267 169.656 191.316 171.068C190.366 172.397 189.772 173.311 188.347 174.473C186.922 175.636 185.259 177.131 183.952 178.045C182.408 179.124 180.982 180.204 182.645 182.28C184.427 184.356 190.247 191.083 199.037 196.565C210.203 203.541 219.705 205.783 222.675 206.78C225.644 207.86 227.426 207.694 229.089 206.282C230.752 204.953 236.335 200.302 238.354 198.226C240.373 196.233 242.274 196.565 245.006 197.229Z" fill="url(#paint32_linear_1380_16677)"/>
<path fill-rule="evenodd" clip-rule="evenodd" d="M256.499 110.608C270.795 114.757 283.766 120.855 294.656 128.546C316.869 144.077 329.103 164.756 329.103 186.765C329.103 232.11 276.245 269.068 211.391 269.068C191.769 269.068 172.5 265.614 155.339 259.114C155.175 259.052 154.997 259.036 154.823 259.067L94.4237 270.168C93.683 270.304 93.0803 269.575 93.3537 268.873L109.153 228.316C109.279 227.992 109.22 227.625 109.001 227.355C99.0151 215.004 93.678 201.046 93.678 186.682C93.678 141.336 146.536 104.379 211.391 104.379C226.869 104.341 242.204 106.459 256.499 110.608ZM161.502 245.565C176.588 251.793 193.811 255.115 211.391 255.115C265.317 255.115 309.267 224.47 309.029 186.765C309.077 177.771 306.571 168.861 301.657 160.549C296.743 152.238 289.519 144.691 280.403 138.346C261.991 125.391 237.404 118.248 211.272 118.248C157.345 118.248 113.396 148.977 113.396 186.682C113.409 199.548 118.595 212.153 128.362 223.058L130.33 225.191C130.58 225.461 130.653 225.85 130.519 226.193L121.507 249.272C121.233 249.974 121.835 250.704 122.576 250.568L157.657 244.121C157.841 244.088 158.031 244.108 158.203 244.18L161.502 245.565Z" fill="url(#paint33_linear_1380_16677)"/>
<path fill-rule="evenodd" clip-rule="evenodd" d="M211.391 253.548C193.811 253.548 176.588 250.226 161.502 243.998L158.203 242.613C158.031 242.541 157.841 242.521 157.657 242.554L122.576 249.001C121.835 249.137 121.233 248.407 121.507 247.705L130.519 224.626C130.653 224.283 130.58 223.894 130.33 223.624L128.362 221.491C118.595 210.586 113.409 197.981 113.396 185.115C113.396 147.41 157.345 116.681 211.272 116.681C237.404 116.681 261.991 123.824 280.403 136.779C289.519 143.124 296.743 150.671 301.657 158.982C306.571 167.294 309.077 176.204 309.029 185.198C309.267 222.903 265.317 253.548 211.391 253.548ZM245.006 195.662C247.619 196.41 262.11 201.393 265.08 202.389C268.049 203.386 269.831 203.801 270.663 204.715C271.494 205.628 271.494 209.698 269 214.515C266.624 219.332 254.865 223.733 249.163 224.315C244.055 224.813 237.641 225.062 230.633 223.484C226.357 222.571 220.893 221.325 213.885 219.165C184.427 210.279 165.066 189.516 163.64 188.105L163.617 188.083C162.105 186.673 151.643 176.923 151.643 166.844C151.643 156.712 159.245 151.729 161.859 149.652C164.591 147.576 167.679 147.078 169.698 147.078H175.4C177.181 147.161 179.676 146.662 182.051 150.649C184.427 154.801 190.366 164.934 191.079 165.93C191.792 166.927 192.267 168.089 191.316 169.501C190.366 170.83 189.772 171.744 188.347 172.906C186.922 174.069 185.259 175.564 183.952 176.478C182.408 177.557 180.982 178.637 182.645 180.713C184.427 182.789 190.247 189.516 199.037 194.998C210.203 201.974 219.705 204.216 222.675 205.213C225.644 206.293 227.426 206.127 229.089 204.715C230.752 203.386 236.335 198.735 238.354 196.659C240.373 194.666 242.274 194.998 245.006 195.662Z" fill="url(#paint34_linear_1380_16677)"/>
<path fill-rule="evenodd" clip-rule="evenodd" d="M211.391 253.548C193.811 253.548 176.588 250.226 161.502 243.998L158.203 242.613C158.031 242.541 157.841 242.521 157.657 242.554L122.576 249.001C121.835 249.137 121.233 248.407 121.507 247.705L130.519 224.626C130.653 224.283 130.58 223.894 130.33 223.624L128.362 221.491C118.595 210.586 113.409 197.981 113.396 185.115C113.396 147.41 157.345 116.681 211.272 116.681C237.404 116.681 261.991 123.824 280.403 136.779C289.519 143.124 296.743 150.671 301.657 158.982C306.571 167.294 309.077 176.204 309.029 185.198C309.267 222.903 265.317 253.548 211.391 253.548ZM245.006 195.662C247.619 196.41 262.11 201.393 265.08 202.389C268.049 203.386 269.831 203.801 270.663 204.715C271.494 205.628 271.494 209.698 269 214.515C266.624 219.332 254.865 223.733 249.163 224.315C244.055 224.813 237.641 225.062 230.633 223.484C226.357 222.571 220.893 221.325 213.885 219.165C184.427 210.279 165.066 189.516 163.64 188.105L163.617 188.083C162.105 186.673 151.643 176.923 151.643 166.844C151.643 156.712 159.245 151.729 161.859 149.652C164.591 147.576 167.679 147.078 169.698 147.078H175.4C177.181 147.161 179.676 146.662 182.051 150.649C184.427 154.801 190.366 164.934 191.079 165.93C191.792 166.927 192.267 168.089 191.316 169.501C190.366 170.83 189.772 171.744 188.347 172.906C186.922 174.069 185.259 175.564 183.952 176.478C182.408 177.557 180.982 178.637 182.645 180.713C184.427 182.789 190.247 189.516 199.037 194.998C210.203 201.974 219.705 204.216 222.675 205.213C225.644 206.293 227.426 206.127 229.089 204.715C230.752 203.386 236.335 198.735 238.354 196.659C240.373 194.666 242.274 194.998 245.006 195.662Z" fill="url(#paint35_radial_1380_16677)" fill-opacity="0.2"/>
<path fill-rule="evenodd" clip-rule="evenodd" d="M211.391 253.548C193.811 253.548 176.588 250.226 161.502 243.998L158.203 242.613C158.031 242.541 157.841 242.521 157.657 242.554L122.576 249.001C121.835 249.137 121.233 248.407 121.507 247.705L130.519 224.626C130.653 224.283 130.58 223.894 130.33 223.624L128.362 221.491C118.595 210.586 113.409 197.981 113.396 185.115C113.396 147.41 157.345 116.681 211.272 116.681C237.404 116.681 261.991 123.824 280.403 136.779C289.519 143.124 296.743 150.671 301.657 158.982C306.571 167.294 309.077 176.204 309.029 185.198C309.267 222.903 265.317 253.548 211.391 253.548ZM245.006 195.662C247.619 196.41 262.11 201.393 265.08 202.389C268.049 203.386 269.831 203.801 270.663 204.715C271.494 205.628 271.494 209.698 269 214.515C266.624 219.332 254.865 223.733 249.163 224.315C244.055 224.813 237.641 225.062 230.633 223.484C226.357 222.571 220.893 221.325 213.885 219.165C184.427 210.279 165.066 189.516 163.64 188.105L163.617 188.083C162.105 186.673 151.643 176.923 151.643 166.844C151.643 156.712 159.245 151.729 161.859 149.652C164.591 147.576 167.679 147.078 169.698 147.078H175.4C177.181 147.161 179.676 146.662 182.051 150.649C184.427 154.801 190.366 164.934 191.079 165.93C191.792 166.927 192.267 168.089 191.316 169.501C190.366 170.83 189.772 171.744 188.347 172.906C186.922 174.069 185.259 175.564 183.952 176.478C182.408 177.557 180.982 178.637 182.645 180.713C184.427 182.789 190.247 189.516 199.037 194.998C210.203 201.974 219.705 204.216 222.675 205.213C225.644 206.293 227.426 206.127 229.089 204.715C230.752 203.386 236.335 198.735 238.354 196.659C240.373 194.666 242.274 194.998 245.006 195.662Z" fill="url(#paint36_radial_1380_16677)" fill-opacity="0.2"/>
<path fill-rule="evenodd" clip-rule="evenodd" d="M256.499 109.041C270.795 113.19 283.766 119.288 294.656 126.979C316.869 142.51 329.103 163.189 329.103 185.198C329.103 230.543 276.245 267.501 211.391 267.501C191.769 267.501 172.5 264.047 155.339 257.547C155.175 257.485 154.997 257.469 154.823 257.5L94.4237 268.601C93.683 268.737 93.0803 268.008 93.3537 267.306L109.153 226.749C109.279 226.425 109.22 226.058 109.001 225.788C99.0151 213.437 93.678 199.479 93.678 185.115C93.678 139.769 146.536 102.812 211.391 102.812C226.869 102.774 242.204 104.892 256.499 109.041ZM161.502 243.998C176.588 250.226 193.811 253.548 211.391 253.548C265.317 253.548 309.267 222.903 309.029 185.198C309.077 176.204 306.571 167.294 301.657 158.982C296.743 150.671 289.519 143.124 280.403 136.779C261.991 123.824 237.404 116.681 211.272 116.681C157.345 116.681 113.396 147.41 113.396 185.115C113.409 197.981 118.595 210.586 128.362 221.491L130.33 223.624C130.58 223.894 130.653 224.283 130.519 224.626L121.507 247.705C121.233 248.407 121.835 249.137 122.576 249.001L157.657 242.554C157.841 242.521 158.031 242.541 158.203 242.613L161.502 243.998Z" fill="url(#paint37_linear_1380_16677)"/>
<path fill-rule="evenodd" clip-rule="evenodd" d="M256.499 109.041C270.795 113.19 283.766 119.288 294.656 126.979C316.869 142.51 329.103 163.189 329.103 185.198C329.103 230.543 276.245 267.501 211.391 267.501C191.769 267.501 172.5 264.047 155.339 257.547C155.175 257.485 154.997 257.469 154.823 257.5L94.4237 268.601C93.683 268.737 93.0803 268.008 93.3537 267.306L109.153 226.749C109.279 226.425 109.22 226.058 109.001 225.788C99.0151 213.437 93.678 199.479 93.678 185.115C93.678 139.769 146.536 102.812 211.391 102.812C226.869 102.774 242.204 104.892 256.499 109.041ZM161.502 243.998C176.588 250.226 193.811 253.548 211.391 253.548C265.317 253.548 309.267 222.903 309.029 185.198C309.077 176.204 306.571 167.294 301.657 158.982C296.743 150.671 289.519 143.124 280.403 136.779C261.991 123.824 237.404 116.681 211.272 116.681C157.345 116.681 113.396 147.41 113.396 185.115C113.409 197.981 118.595 210.586 128.362 221.491L130.33 223.624C130.58 223.894 130.653 224.283 130.519 224.626L121.507 247.705C121.233 248.407 121.835 249.137 122.576 249.001L157.657 242.554C157.841 242.521 158.031 242.541 158.203 242.613L161.502 243.998Z" fill="url(#paint38_radial_1380_16677)" fill-opacity="0.2"/>
<path fill-rule="evenodd" clip-rule="evenodd" d="M256.499 109.041C270.795 113.19 283.766 119.288 294.656 126.979C316.869 142.51 329.103 163.189 329.103 185.198C329.103 230.543 276.245 267.501 211.391 267.501C191.769 267.501 172.5 264.047 155.339 257.547C155.175 257.485 154.997 257.469 154.823 257.5L94.4237 268.601C93.683 268.737 93.0803 268.008 93.3537 267.306L109.153 226.749C109.279 226.425 109.22 226.058 109.001 225.788C99.0151 213.437 93.678 199.479 93.678 185.115C93.678 139.769 146.536 102.812 211.391 102.812C226.869 102.774 242.204 104.892 256.499 109.041ZM161.502 243.998C176.588 250.226 193.811 253.548 211.391 253.548C265.317 253.548 309.267 222.903 309.029 185.198C309.077 176.204 306.571 167.294 301.657 158.982C296.743 150.671 289.519 143.124 280.403 136.779C261.991 123.824 237.404 116.681 211.272 116.681C157.345 116.681 113.396 147.41 113.396 185.115C113.409 197.981 118.595 210.586 128.362 221.491L130.33 223.624C130.58 223.894 130.653 224.283 130.519 224.626L121.507 247.705C121.233 248.407 121.835 249.137 122.576 249.001L157.657 242.554C157.841 242.521 158.031 242.541 158.203 242.613L161.502 243.998Z" fill="url(#paint39_radial_1380_16677)" fill-opacity="0.2"/>
<g opacity="0.32" filter="url(#filter3_f_1380_16677)">
<path fill-rule="evenodd" clip-rule="evenodd" d="M308.115 194.839C308.737 191.689 309.05 188.47 309.029 185.198C309.077 176.205 306.571 167.294 301.657 158.983C296.743 150.671 289.519 143.124 280.403 136.78C273.345 131.813 265.379 127.701 256.766 124.517C248.062 139.652 244.987 154.986 249.363 167.953C256.163 188.103 279.254 197.495 308.115 194.839Z" fill="url(#paint40_linear_1380_16677)"/>
<path fill-rule="evenodd" clip-rule="evenodd" d="M328.805 191.081C329.002 189.138 329.103 187.176 329.103 185.198C329.103 163.19 316.869 142.51 294.656 126.98C286.061 120.909 276.169 115.831 265.352 111.92C262.076 116.066 259.201 120.284 256.766 124.517C265.379 127.701 273.345 131.813 280.403 136.78C289.519 143.124 296.743 150.671 301.657 158.983C306.571 167.294 309.077 176.205 309.029 185.198C309.05 188.47 308.737 191.689 308.115 194.839C314.749 194.228 321.688 192.981 328.805 191.081Z" fill="url(#paint41_linear_1380_16677)"/>
<path fill-rule="evenodd" clip-rule="evenodd" d="M308.115 194.839C314.749 194.228 321.688 192.981 328.805 191.081C329.002 189.138 329.103 187.176 329.103 185.198C329.103 163.19 316.869 142.51 294.656 126.98C286.061 120.909 276.169 115.831 265.352 111.92C262.076 116.066 259.201 120.284 256.766 124.517C248.062 139.652 244.987 154.986 249.363 167.953C256.163 188.103 279.254 197.495 308.115 194.839Z" fill="url(#paint42_linear_1380_16677)"/>
</g>
<g opacity="0.32">
<path fill-rule="evenodd" clip-rule="evenodd" d="M308.115 194.839C308.737 191.689 309.05 188.47 309.029 185.198C309.077 176.205 306.571 167.294 301.657 158.983C296.743 150.671 289.519 143.124 280.403 136.78C273.345 131.813 265.379 127.701 256.766 124.517C248.062 139.652 244.987 154.986 249.363 167.953C256.163 188.103 279.254 197.495 308.115 194.839Z" fill="url(#paint43_linear_1380_16677)"/>
<path fill-rule="evenodd" clip-rule="evenodd" d="M328.805 191.081C329.002 189.138 329.103 187.176 329.103 185.198C329.103 163.19 316.869 142.51 294.656 126.98C286.061 120.909 276.169 115.831 265.352 111.92C262.076 116.066 259.201 120.284 256.766 124.517C265.379 127.701 273.345 131.813 280.403 136.78C289.519 143.124 296.743 150.671 301.657 158.983C306.571 167.294 309.077 176.205 309.029 185.198C309.05 188.47 308.737 191.689 308.115 194.839C314.749 194.228 321.688 192.981 328.805 191.081Z" fill="url(#paint44_linear_1380_16677)"/>
<path fill-rule="evenodd" clip-rule="evenodd" d="M308.115 194.839C314.749 194.228 321.688 192.981 328.805 191.081C329.002 189.138 329.103 187.176 329.103 185.198C329.103 163.19 316.869 142.51 294.656 126.98C286.061 120.909 276.169 115.831 265.352 111.92C262.076 116.066 259.201 120.284 256.766 124.517C248.062 139.652 244.987 154.986 249.363 167.953C256.163 188.103 279.254 197.495 308.115 194.839Z" fill="url(#paint45_linear_1380_16677)"/>
</g>
<g opacity="0.4">
<mask id="mask3_1380_16677" style="mask-type:alpha" maskUnits="userSpaceOnUse" x="294" y="53" width="14" height="62">
<rect width="13.265" height="60.5196" transform="matrix(-1 0 0 1 307.544 53.6687)" fill="url(#paint46_radial_1380_16677)"/>
</mask>
<g mask="url(#mask3_1380_16677)">
<rect opacity="0.5" width="6.39278" height="59.7302" transform="matrix(-1 0 0 1 307.544 54.4574)" fill="url(#paint47_linear_1380_16677)"/>
<rect opacity="0.5" x="294.279" y="54.4574" width="6.39278" height="59.7302" fill="url(#paint48_linear_1380_16677)"/>
</g>
</g>
<path d="M304.869 56.221C306.522 55.2193 307.348 54.7184 307.506 54.1169C307.556 53.9226 307.556 53.7247 307.506 53.5304C307.348 52.9289 306.522 52.428 304.869 51.4263C303.216 50.4245 302.39 49.9236 301.397 49.8284C301.077 49.7976 300.75 49.7976 300.43 49.8284C299.437 49.9236 298.611 50.4245 296.958 51.4263C295.305 52.428 294.479 52.9289 294.322 53.5304C294.271 53.7247 294.271 53.9226 294.322 54.1169C294.479 54.7184 295.305 55.2193 296.958 56.221C298.611 57.2228 299.437 57.7237 300.43 57.8189C300.75 57.8497 301.077 57.8497 301.397 57.8189C302.39 57.7237 303.216 57.2228 304.869 56.221Z" fill="url(#paint49_linear_1380_16677)"/>
<path d="M304.869 56.221C306.522 55.2193 307.348 54.7184 307.506 54.1169C307.556 53.9226 307.556 53.7247 307.506 53.5304C307.348 52.9289 306.522 52.428 304.869 51.4263C303.216 50.4245 302.39 49.9236 301.397 49.8284C301.077 49.7976 300.75 49.7976 300.43 49.8284C299.437 49.9236 298.611 50.4245 296.958 51.4263C295.305 52.428 294.479 52.9289 294.322 53.5304C294.271 53.7247 294.271 53.9226 294.322 54.1169C294.479 54.7184 295.305 55.2193 296.958 56.221C298.611 57.2228 299.437 57.7237 300.43 57.8189C300.75 57.8497 301.077 57.8497 301.397 57.8189C302.39 57.7237 303.216 57.2228 304.869 56.221Z" fill="white" fill-opacity="0.6"/>
<path d="M307.544 53.1615H294.279V53.8008H307.544V53.1615Z" fill="url(#paint50_linear_1380_16677)"/>
<path d="M307.544 53.1615H294.279V53.8008H307.544V53.1615Z" fill="white" fill-opacity="0.6"/>
<rect width="9.25056" height="9.25056" rx="2.55711" transform="matrix(-0.855186 -0.518321 -0.855186 0.518321 308.821 53.0818)" fill="white"/>
<g opacity="0.4">
<mask id="mask4_1380_16677" style="mask-type:alpha" maskUnits="userSpaceOnUse" x="446" y="162" width="47" height="210">
<rect width="45.7294" height="208.634" transform="matrix(-1 0 0 1 492.593 162.947)" fill="url(#paint51_radial_1380_16677)"/>
</mask>
<g mask="url(#mask4_1380_16677)">
<rect opacity="0.5" width="22.0383" height="205.912" transform="matrix(-1 0 0 1 492.593 165.667)" fill="url(#paint52_linear_1380_16677)"/>
<rect opacity="0.5" x="446.863" y="165.667" width="22.0383" height="205.912" fill="url(#paint53_linear_1380_16677)"/>
</g>
</g>
<path d="M483.373 171.746C489.071 168.292 491.92 166.566 492.462 164.492C492.637 163.822 492.637 163.14 492.462 162.47C491.92 160.397 489.071 158.67 483.373 155.216C477.675 151.763 474.826 150.036 471.405 149.708C470.3 149.602 469.174 149.602 468.069 149.708C464.648 150.036 461.799 151.763 456.101 155.216C450.403 158.67 447.554 160.397 447.012 162.47C446.837 163.14 446.837 163.822 447.012 164.492C447.554 166.566 450.403 168.292 456.101 171.746C461.799 175.199 464.648 176.926 468.069 177.254C469.174 177.36 470.3 177.36 471.405 177.254C474.826 176.926 477.675 175.199 483.373 171.746Z" fill="url(#paint54_linear_1380_16677)"/>
<path d="M483.373 171.746C489.071 168.292 491.92 166.566 492.462 164.492C492.637 163.822 492.637 163.14 492.462 162.47C491.92 160.397 489.071 158.67 483.373 155.216C477.675 151.763 474.826 150.036 471.405 149.708C470.3 149.602 469.174 149.602 468.069 149.708C464.648 150.036 461.799 151.763 456.101 155.216C450.403 158.67 447.554 160.397 447.012 162.47C446.837 163.14 446.837 163.822 447.012 164.492C447.554 166.566 450.403 168.292 456.101 171.746C461.799 175.199 464.648 176.926 468.069 177.254C469.174 177.36 470.3 177.36 471.405 177.254C474.826 176.926 477.675 175.199 483.373 171.746Z" fill="white" fill-opacity="0.6"/>
<path d="M492.593 161.198H446.863V163.402H492.593V161.198Z" fill="url(#paint55_linear_1380_16677)"/>
<path d="M492.593 161.198H446.863V163.402H492.593V161.198Z" fill="white" fill-opacity="0.6"/>
<rect width="31.8901" height="31.8901" rx="8.81531" transform="matrix(-0.855186 -0.518321 -0.855186 0.518321 496.999 160.925)" fill="white"/>
<g opacity="0.4">
<mask id="mask5_1380_16677" style="mask-type:alpha" maskUnits="userSpaceOnUse" x="352" y="124" width="27" height="118">
<rect x="352.255" y="124.451" width="25.7599" height="117.526" fill="url(#paint56_radial_1380_16677)"/>
</mask>
<g mask="url(#mask5_1380_16677)">
<rect opacity="0.5" x="352.256" y="125.983" width="12.4144" height="115.993" fill="url(#paint57_linear_1380_16677)"/>
<rect opacity="0.5" width="12.4144" height="115.993" transform="matrix(-1 0 0 1 378.016 125.983)" fill="url(#paint58_linear_1380_16677)"/>
</g>
</g>
<path d="M357.449 129.407C354.239 127.462 352.634 126.489 352.329 125.321C352.231 124.944 352.231 124.56 352.329 124.182C352.634 123.014 354.239 122.042 357.449 120.096C360.659 118.151 362.263 117.178 364.191 116.993C364.813 116.933 365.447 116.933 366.07 116.993C367.997 117.178 369.602 118.151 372.812 120.096C376.021 122.042 377.626 123.014 377.931 124.182C378.03 124.56 378.03 124.944 377.931 125.321C377.626 126.489 376.021 127.462 372.812 129.407C369.602 131.353 367.997 132.325 366.07 132.51C365.447 132.57 364.813 132.57 364.191 132.51C362.263 132.325 360.659 131.353 357.449 129.407Z" fill="url(#paint59_linear_1380_16677)"/>
<path d="M357.449 129.407C354.239 127.462 352.634 126.489 352.329 125.321C352.231 124.944 352.231 124.56 352.329 124.182C352.634 123.014 354.239 122.042 357.449 120.096C360.659 118.151 362.263 117.178 364.191 116.993C364.813 116.933 365.447 116.933 366.07 116.993C367.997 117.178 369.602 118.151 372.812 120.096C376.021 122.042 377.626 123.014 377.931 124.182C378.03 124.56 378.03 124.944 377.931 125.321C377.626 126.489 376.021 127.462 372.812 129.407C369.602 131.353 367.997 132.325 366.07 132.51C365.447 132.57 364.813 132.57 364.191 132.51C362.263 132.325 360.659 131.353 357.449 129.407Z" fill="white" fill-opacity="0.6"/>
<path d="M352.255 123.466H378.015V124.707H352.255V123.466Z" fill="url(#paint60_linear_1380_16677)"/>
<path d="M352.255 123.466H378.015V124.707H352.255V123.466Z" fill="white" fill-opacity="0.6"/>
<rect width="17.9641" height="17.9641" rx="4.96577" transform="matrix(0.855186 -0.518321 0.855186 0.518321 349.774 123.312)" fill="white"/>
<g opacity="0.4">
<mask id="mask6_1380_16677" style="mask-type:alpha" maskUnits="userSpaceOnUse" x="2" y="298" width="27" height="119">
<rect x="2.48328" y="298.739" width="25.7599" height="117.526" fill="url(#paint61_radial_1380_16677)"/>
</mask>
<g mask="url(#mask6_1380_16677)">
<rect opacity="0.5" x="2.4834" y="300.271" width="12.4144" height="115.993" fill="url(#paint62_linear_1380_16677)"/>
<rect opacity="0.5" width="12.4144" height="115.993" transform="matrix(-1 0 0 1 28.2437 300.271)" fill="url(#paint63_linear_1380_16677)"/>
</g>
</g>
<path d="M7.67671 303.695C4.46706 301.75 2.86223 300.777 2.55697 299.609C2.45839 299.232 2.45839 298.847 2.55697 298.47C2.86223 297.302 4.46706 296.329 7.67671 294.384C10.8864 292.439 12.4912 291.466 14.4185 291.281C15.041 291.221 15.6751 291.221 16.2975 291.281C18.2249 291.466 19.8297 292.439 23.0393 294.384C26.249 296.329 27.8538 297.302 28.1591 298.47C28.2577 298.847 28.2577 299.232 28.1591 299.609C27.8538 300.777 26.249 301.75 23.0393 303.695C19.8297 305.641 18.2249 306.613 16.2975 306.798C15.6751 306.858 15.041 306.858 14.4185 306.798C12.4912 306.613 10.8864 305.641 7.67671 303.695Z" fill="url(#paint64_linear_1380_16677)"/>
<path d="M7.67671 303.695C4.46706 301.75 2.86223 300.777 2.55697 299.609C2.45839 299.232 2.45839 298.847 2.55697 298.47C2.86223 297.302 4.46706 296.329 7.67671 294.384C10.8864 292.439 12.4912 291.466 14.4185 291.281C15.041 291.221 15.6751 291.221 16.2975 291.281C18.2249 291.466 19.8297 292.439 23.0393 294.384C26.249 296.329 27.8538 297.302 28.1591 298.47C28.2577 298.847 28.2577 299.232 28.1591 299.609C27.8538 300.777 26.249 301.75 23.0393 303.695C19.8297 305.641 18.2249 306.613 16.2975 306.798C15.6751 306.858 15.041 306.858 14.4185 306.798C12.4912 306.613 10.8864 305.641 7.67671 303.695Z" fill="white" fill-opacity="0.6"/>
<path d="M2.48303 297.754H28.2429V298.995H2.48303V297.754Z" fill="url(#paint65_linear_1380_16677)"/>
<path d="M2.48303 297.754H28.2429V298.995H2.48303V297.754Z" fill="white" fill-opacity="0.6"/>
<rect width="17.9641" height="17.9641" rx="4.96577" transform="matrix(0.855186 -0.518321 0.855186 0.518321 0.00195312 297.599)" fill="white"/>
<g opacity="0.4">
<mask id="mask7_1380_16677" style="mask-type:alpha" maskUnits="userSpaceOnUse" x="91" y="424" width="73" height="332">
<rect x="91.0961" y="424.409" width="72.5237" height="330.879" fill="url(#paint66_radial_1380_16677)"/>
</mask>
<g mask="url(#mask7_1380_16677)">
<rect opacity="0.5" x="91.0961" y="428.725" width="34.9512" height="326.563" fill="url(#paint67_linear_1380_16677)"/>
<rect opacity="0.1" width="34.9512" height="326.563" transform="matrix(-1 0 0 1 163.62 428.725)" fill="url(#paint68_linear_1380_16677)"/>
</g>
</g>
<path d="M105.724 440.501C96.6841 434.414 92.1643 431.37 91.3046 427.714C91.0269 426.534 91.0269 425.331 91.3046 424.151C92.1643 420.495 96.6841 417.451 105.724 411.364C114.763 405.276 119.283 402.233 124.711 401.654C126.464 401.467 128.25 401.467 130.003 401.654C135.431 402.233 139.951 405.276 148.99 411.364C158.03 417.451 162.55 420.495 163.41 424.151C163.687 425.331 163.687 426.534 163.41 427.714C162.55 431.37 158.03 434.414 148.99 440.501C139.951 446.589 135.431 449.633 130.003 450.212C128.25 450.399 126.464 450.399 124.711 450.212C119.283 449.633 114.763 446.589 105.724 440.501Z" fill="url(#paint69_linear_1380_16677)"/>
<path d="M105.724 440.501C96.6841 434.414 92.1643 431.37 91.3046 427.714C91.0269 426.534 91.0269 425.331 91.3046 424.151C92.1643 420.495 96.6841 417.451 105.724 411.364C114.763 405.276 119.283 402.233 124.711 401.654C126.464 401.467 128.25 401.467 130.003 401.654C135.431 402.233 139.951 405.276 148.99 411.364C158.03 417.451 162.55 420.495 163.41 424.151C163.687 425.331 163.687 426.534 163.41 427.714C162.55 431.37 158.03 434.414 148.99 440.501C139.951 446.589 135.431 449.633 130.003 450.212C128.25 450.399 126.464 450.399 124.711 450.212C119.283 449.633 114.763 446.589 105.724 440.501Z" fill="white" fill-opacity="0.6"/>
<path d="M91.0963 421.909H163.646V425.794H91.0963V421.909Z" fill="url(#paint70_linear_1380_16677)"/>
<path d="M91.0963 421.909H163.646V425.794H91.0963V421.909Z" fill="white" fill-opacity="0.6"/>
<rect width="52.8714" height="52.8714" rx="15.5394" transform="matrix(0.82945 -0.558581 0.82945 0.558581 83.5201 421.425)" fill="white"/>
<defs>
<filter id="filter0_f_1380_16677" x="27.628" y="162.373" width="412.583" height="298.645" filterUnits="userSpaceOnUse" color-interpolation-filters="sRGB">
<feFlood flood-opacity="0" result="BackgroundImageFix"/>
<feBlend mode="normal" in="SourceGraphic" in2="BackgroundImageFix" result="shape"/>
<feGaussianBlur stdDeviation="15.9211" result="effect1_foregroundBlur_1380_16677"/>
</filter>
<filter id="filter1_f_1380_16677" x="80.0453" y="178.73" width="264.926" height="194.915" filterUnits="userSpaceOnUse" color-interpolation-filters="sRGB">
<feFlood flood-opacity="0" result="BackgroundImageFix"/>
<feBlend mode="normal" in="SourceGraphic" in2="BackgroundImageFix" result="shape"/>
<feGaussianBlur stdDeviation="7.27729" result="effect1_foregroundBlur_1380_16677"/>
</filter>
<filter id="filter2_f_1380_16677" x="77.619" y="87.1436" width="267.152" height="197.142" filterUnits="userSpaceOnUse" color-interpolation-filters="sRGB">
<feFlood flood-opacity="0" result="BackgroundImageFix"/>
<feBlend mode="normal" in="SourceGraphic" in2="BackgroundImageFix" result="shape"/>
<feGaussianBlur stdDeviation="7.83382" result="effect1_foregroundBlur_1380_16677"/>
</filter>
<filter id="filter3_f_1380_16677" x="231.719" y="96.2525" width="113.052" height="114.695" filterUnits="userSpaceOnUse" color-interpolation-filters="sRGB">
<feFlood flood-opacity="0" result="BackgroundImageFix"/>
<feBlend mode="normal" in="SourceGraphic" in2="BackgroundImageFix" result="shape"/>
<feGaussianBlur stdDeviation="7.83382" result="effect1_foregroundBlur_1380_16677"/>
</filter>
<radialGradient id="paint0_radial_1380_16677" cx="0" cy="0" r="1" gradientUnits="userSpaceOnUse" gradientTransform="translate(15.9318) rotate(90.0757) scale(143.642 75.6806)">
<stop stop-opacity="0"/>
<stop offset="0.221563"/>
<stop offset="1" stop-opacity="0"/>
</radialGradient>
<linearGradient id="paint1_linear_1380_16677" x1="15.1731" y1="39.6578" x2="-9.56921e-07" y2="39.6578" gradientUnits="userSpaceOnUse">
<stop stop-color="white" stop-opacity="0"/>
<stop offset="1" stop-color="white"/>
</linearGradient>
<linearGradient id="paint2_linear_1380_16677" x1="126.207" y1="125.591" x2="111.034" y2="125.591" gradientUnits="userSpaceOnUse">
<stop stop-color="white" stop-opacity="0"/>
<stop offset="1" stop-color="white"/>
</linearGradient>
<linearGradient id="paint3_linear_1380_16677" x1="142.519" y1="84.374" x2="111.034" y2="84.374" gradientUnits="userSpaceOnUse">
<stop stop-color="#E3E3E3"/>
<stop offset="0.21988" stop-color="#99C2FF"/>
<stop offset="0.512048" stop-color="#F48DA5"/>
<stop offset="0.75" stop-color="#A699DC"/>
<stop offset="1" stop-color="#E3E3E3"/>
</linearGradient>
<linearGradient id="paint4_linear_1380_16677" x1="142.519" y1="84.374" x2="111.034" y2="84.374" gradientUnits="userSpaceOnUse">
<stop stop-color="#E3E3E3"/>
<stop offset="0.21988" stop-color="#99C2FF"/>
<stop offset="0.512048" stop-color="#F48DA5"/>
<stop offset="0.75" stop-color="#A699DC"/>
<stop offset="1" stop-color="#E3E3E3"/>
</linearGradient>
<radialGradient id="paint5_radial_1380_16677" cx="0" cy="0" r="1" gradientUnits="userSpaceOnUse" gradientTransform="translate(6.71241) rotate(90.0757) scale(60.5197 31.8858)">
<stop stop-opacity="0"/>
<stop offset="0.221563"/>
<stop offset="1" stop-opacity="0"/>
</radialGradient>
<linearGradient id="paint6_linear_1380_16677" x1="6.39278" y1="16.7087" x2="-4.03171e-07" y2="16.7087" gradientUnits="userSpaceOnUse">
<stop stop-color="white" stop-opacity="0"/>
<stop offset="1" stop-color="white"/>
</linearGradient>
<linearGradient id="paint7_linear_1380_16677" x1="335.671" y1="446.166" x2="329.279" y2="446.166" gradientUnits="userSpaceOnUse">
<stop stop-color="white" stop-opacity="0"/>
<stop offset="1" stop-color="white"/>
</linearGradient>
<linearGradient id="paint8_linear_1380_16677" x1="342.544" y1="428.801" x2="329.279" y2="428.801" gradientUnits="userSpaceOnUse">
<stop stop-color="#E3E3E3"/>
<stop offset="0.21988" stop-color="#99C2FF"/>
<stop offset="0.512048" stop-color="#F48DA5"/>
<stop offset="0.75" stop-color="#A699DC"/>
<stop offset="1" stop-color="#E3E3E3"/>
</linearGradient>
<linearGradient id="paint9_linear_1380_16677" x1="342.544" y1="428.801" x2="329.279" y2="428.801" gradientUnits="userSpaceOnUse">
<stop stop-color="#E3E3E3"/>
<stop offset="0.21988" stop-color="#99C2FF"/>
<stop offset="0.512048" stop-color="#F48DA5"/>
<stop offset="0.75" stop-color="#A699DC"/>
<stop offset="1" stop-color="#E3E3E3"/>
</linearGradient>
<radialGradient id="paint10_radial_1380_16677" cx="0" cy="0" r="1" gradientUnits="userSpaceOnUse" gradientTransform="translate(236.096 254) rotate(90.2693) scale(446.005 836.499)">
<stop stop-opacity="0"/>
<stop offset="0.221563"/>
<stop offset="1" stop-opacity="0"/>
</radialGradient>
<linearGradient id="paint11_linear_1380_16677" x1="227.542" y1="713.211" x2="59.5931" y2="713.211" gradientUnits="userSpaceOnUse">
<stop stop-color="white" stop-opacity="0"/>
<stop offset="1" stop-color="white"/>
</linearGradient>
<linearGradient id="paint12_linear_1380_16677" x1="167.949" y1="438.965" x2="-1.0592e-05" y2="438.965" gradientUnits="userSpaceOnUse">
<stop stop-color="white" stop-opacity="0"/>
<stop offset="1" stop-color="white"/>
</linearGradient>
<linearGradient id="paint13_linear_1380_16677" x1="59.5945" y1="260.158" x2="408.212" y2="260.158" gradientUnits="userSpaceOnUse">
<stop stop-color="#E3E3E3"/>
<stop offset="0.21988" stop-color="#99C2FF"/>
<stop offset="0.512048" stop-color="#F48DA5"/>
<stop offset="0.75" stop-color="#A699DC"/>
<stop offset="1" stop-color="#E3E3E3"/>
</linearGradient>
<linearGradient id="paint14_linear_1380_16677" x1="59.5945" y1="260.158" x2="408.212" y2="260.158" gradientUnits="userSpaceOnUse">
<stop stop-color="#E3E3E3"/>
<stop offset="0.21988" stop-color="#99C2FF"/>
<stop offset="0.512048" stop-color="#F48DA5"/>
<stop offset="0.75" stop-color="#A699DC"/>
<stop offset="1" stop-color="#E3E3E3"/>
</linearGradient>
<radialGradient id="paint15_radial_1380_16677" cx="0" cy="0" r="1" gradientUnits="userSpaceOnUse" gradientTransform="translate(163.701 337.545) rotate(-69.4146) scale(29.1689 59.1695)">
<stop stop-color="white"/>
<stop offset="1" stop-color="white" stop-opacity="0"/>
</radialGradient>
<radialGradient id="paint16_radial_1380_16677" cx="0" cy="0" r="1" gradientUnits="userSpaceOnUse" gradientTransform="translate(251.494 217.636) rotate(156.19) scale(108.559 30.998)">
<stop stop-color="#B78AFF"/>
<stop offset="1" stop-color="#8233FF" stop-opacity="0"/>
</radialGradient>
<radialGradient id="paint17_radial_1380_16677" cx="0" cy="0" r="1" gradientUnits="userSpaceOnUse" gradientTransform="translate(163.701 337.545) rotate(-69.4146) scale(29.1689 59.1695)">
<stop stop-color="white"/>
<stop offset="1" stop-color="white" stop-opacity="0"/>
</radialGradient>
<radialGradient id="paint18_radial_1380_16677" cx="0" cy="0" r="1" gradientUnits="userSpaceOnUse" gradientTransform="translate(251.494 217.636) rotate(156.19) scale(108.559 30.998)">
<stop stop-color="#B78AFF"/>
<stop offset="1" stop-color="#8233FF" stop-opacity="0"/>
</radialGradient>
<linearGradient id="paint19_linear_1380_16677" x1="329.981" y1="212.964" x2="82.6557" y2="212.964" gradientUnits="userSpaceOnUse">
<stop stop-color="#1EB749"/>
<stop offset="0.143921" stop-color="#22D76A"/>
<stop offset="0.490941" stop-color="#21FF5F"/>
<stop offset="0.894441" stop-color="#23E258"/>
<stop offset="1" stop-color="#1EB749"/>
</linearGradient>
<linearGradient id="paint20_linear_1380_16677" x1="103.89" y1="267.685" x2="216.168" y2="267.685" gradientUnits="userSpaceOnUse">
<stop offset="0.369908" stop-color="white" stop-opacity="0"/>
<stop offset="0.461462" stop-color="#16FF8F"/>
<stop offset="0.483342" stop-color="white" stop-opacity="0"/>
</linearGradient>
<linearGradient id="paint21_linear_1380_16677" x1="329.981" y1="212.964" x2="82.6557" y2="212.964" gradientUnits="userSpaceOnUse">
<stop stop-color="#1EB749"/>
<stop offset="0.143921" stop-color="#22D76A"/>
<stop offset="0.490941" stop-color="#21FF5F"/>
<stop offset="0.894441" stop-color="#23E258"/>
<stop offset="1" stop-color="#1EB749"/>
</linearGradient>
<linearGradient id="paint22_linear_1380_16677" x1="103.89" y1="267.685" x2="216.168" y2="267.685" gradientUnits="userSpaceOnUse">
<stop offset="0.369908" stop-color="white" stop-opacity="0"/>
<stop offset="0.461462" stop-color="#16FF8F"/>
<stop offset="0.483342" stop-color="white" stop-opacity="0"/>
</linearGradient>
<linearGradient id="paint23_linear_1380_16677" x1="329.981" y1="212.964" x2="82.6557" y2="212.964" gradientUnits="userSpaceOnUse">
<stop stop-color="#1EB749"/>
<stop offset="0.143921" stop-color="#22D76A"/>
<stop offset="0.490941" stop-color="#21FF5F"/>
<stop offset="0.894441" stop-color="#23E258"/>
<stop offset="1" stop-color="#1EB749"/>
</linearGradient>
<linearGradient id="paint24_linear_1380_16677" x1="103.89" y1="267.685" x2="216.168" y2="267.685" gradientUnits="userSpaceOnUse">
<stop offset="0.369908" stop-color="white" stop-opacity="0"/>
<stop offset="0.461462" stop-color="#16FF8F"/>
<stop offset="0.483342" stop-color="white" stop-opacity="0"/>
</linearGradient>
<linearGradient id="paint25_linear_1380_16677" x1="172.898" y1="101.271" x2="310.603" y2="279.153" gradientUnits="userSpaceOnUse">
<stop stop-color="#27AA4B"/>
<stop offset="1" stop-color="#1F9440"/>
</linearGradient>
<linearGradient id="paint26_linear_1380_16677" x1="336.796" y1="233.594" x2="259.015" y2="312.861" gradientUnits="userSpaceOnUse">
<stop stop-color="#34FF85"/>
<stop offset="1" stop-color="#23CD53"/>
</linearGradient>
<radialGradient id="paint27_radial_1380_16677" cx="0" cy="0" r="1" gradientUnits="userSpaceOnUse" gradientTransform="translate(162.388 247.072) rotate(-69.4146) scale(29.1689 59.1695)">
<stop stop-color="white"/>
<stop offset="1" stop-color="white" stop-opacity="0"/>
</radialGradient>
<radialGradient id="paint28_radial_1380_16677" cx="0" cy="0" r="1" gradientUnits="userSpaceOnUse" gradientTransform="translate(250.181 127.163) rotate(156.19) scale(108.559 30.998)">
<stop stop-color="#B78AFF"/>
<stop offset="1" stop-color="#8233FF" stop-opacity="0"/>
</radialGradient>
<linearGradient id="paint29_linear_1380_16677" x1="336.796" y1="233.594" x2="259.015" y2="312.861" gradientUnits="userSpaceOnUse">
<stop stop-color="#34FF85"/>
<stop offset="1" stop-color="#23CD53"/>
</linearGradient>
<radialGradient id="paint30_radial_1380_16677" cx="0" cy="0" r="1" gradientUnits="userSpaceOnUse" gradientTransform="translate(162.388 247.072) rotate(-69.4146) scale(29.1689 59.1695)">
<stop stop-color="white"/>
<stop offset="1" stop-color="white" stop-opacity="0"/>
</radialGradient>
<radialGradient id="paint31_radial_1380_16677" cx="0" cy="0" r="1" gradientUnits="userSpaceOnUse" gradientTransform="translate(250.181 127.163) rotate(156.19) scale(108.559 30.998)">
<stop stop-color="#B78AFF"/>
<stop offset="1" stop-color="#8233FF" stop-opacity="0"/>
</radialGradient>
<linearGradient id="paint32_linear_1380_16677" x1="336.796" y1="235.161" x2="253.11" y2="354.634" gradientUnits="userSpaceOnUse">
<stop stop-color="#34FF85"/>
<stop offset="0.613503" stop-color="#CDFFDB"/>
<stop offset="1" stop-color="#23CD53"/>
</linearGradient>
<linearGradient id="paint33_linear_1380_16677" x1="336.796" y1="235.161" x2="253.11" y2="354.634" gradientUnits="userSpaceOnUse">
<stop stop-color="#34FF85"/>
<stop offset="0.613503" stop-color="#CDFFDB"/>
<stop offset="1" stop-color="#23CD53"/>
</linearGradient>
<linearGradient id="paint34_linear_1380_16677" x1="336.796" y1="233.594" x2="259.015" y2="312.861" gradientUnits="userSpaceOnUse">
<stop stop-color="#34FF85"/>
<stop offset="1" stop-color="#23CD53"/>
</linearGradient>
<radialGradient id="paint35_radial_1380_16677" cx="0" cy="0" r="1" gradientUnits="userSpaceOnUse" gradientTransform="translate(162.388 247.072) rotate(-69.4146) scale(29.1689 59.1695)">
<stop stop-color="white"/>
<stop offset="1" stop-color="white" stop-opacity="0"/>
</radialGradient>
<radialGradient id="paint36_radial_1380_16677" cx="0" cy="0" r="1" gradientUnits="userSpaceOnUse" gradientTransform="translate(250.181 127.163) rotate(156.19) scale(108.559 30.998)">
<stop stop-color="#B78AFF"/>
<stop offset="1" stop-color="#8233FF" stop-opacity="0"/>
</radialGradient>
<linearGradient id="paint37_linear_1380_16677" x1="336.796" y1="233.594" x2="259.015" y2="312.861" gradientUnits="userSpaceOnUse">
<stop stop-color="#34FF85"/>
<stop offset="1" stop-color="#23CD53"/>
</linearGradient>
<radialGradient id="paint38_radial_1380_16677" cx="0" cy="0" r="1" gradientUnits="userSpaceOnUse" gradientTransform="translate(162.388 247.072) rotate(-69.4146) scale(29.1689 59.1695)">
<stop stop-color="white"/>
<stop offset="1" stop-color="white" stop-opacity="0"/>
</radialGradient>
<radialGradient id="paint39_radial_1380_16677" cx="0" cy="0" r="1" gradientUnits="userSpaceOnUse" gradientTransform="translate(250.181 127.163) rotate(156.19) scale(108.559 30.998)">
<stop stop-color="#B78AFF"/>
<stop offset="1" stop-color="#8233FF" stop-opacity="0"/>
</radialGradient>
<linearGradient id="paint40_linear_1380_16677" x1="247.356" y1="184.687" x2="290.025" y2="124.346" gradientUnits="userSpaceOnUse">
<stop stop-color="white"/>
<stop offset="1" stop-color="white" stop-opacity="0"/>
</linearGradient>
<linearGradient id="paint41_linear_1380_16677" x1="247.356" y1="184.687" x2="290.025" y2="124.346" gradientUnits="userSpaceOnUse">
<stop stop-color="white"/>
<stop offset="1" stop-color="white" stop-opacity="0"/>
</linearGradient>
<linearGradient id="paint42_linear_1380_16677" x1="247.356" y1="184.687" x2="290.025" y2="124.346" gradientUnits="userSpaceOnUse">
<stop stop-color="white"/>
<stop offset="1" stop-color="white" stop-opacity="0"/>
</linearGradient>
<linearGradient id="paint43_linear_1380_16677" x1="247.356" y1="184.687" x2="290.025" y2="124.346" gradientUnits="userSpaceOnUse">
<stop stop-color="white"/>
<stop offset="1" stop-color="white" stop-opacity="0"/>
</linearGradient>
<linearGradient id="paint44_linear_1380_16677" x1="247.356" y1="184.687" x2="290.025" y2="124.346" gradientUnits="userSpaceOnUse">
<stop stop-color="white"/>
<stop offset="1" stop-color="white" stop-opacity="0"/>
</linearGradient>
<linearGradient id="paint45_linear_1380_16677" x1="247.356" y1="184.687" x2="290.025" y2="124.346" gradientUnits="userSpaceOnUse">
<stop stop-color="white"/>
<stop offset="1" stop-color="white" stop-opacity="0"/>
</linearGradient>
<radialGradient id="paint46_radial_1380_16677" cx="0" cy="0" r="1" gradientUnits="userSpaceOnUse" gradientTransform="translate(6.71241) rotate(90.0757) scale(60.5197 31.8858)">
<stop stop-opacity="0"/>
<stop offset="0.221563"/>
<stop offset="1" stop-opacity="0"/>
</radialGradient>
<linearGradient id="paint47_linear_1380_16677" x1="6.39278" y1="16.7087" x2="-4.03171e-07" y2="16.7087" gradientUnits="userSpaceOnUse">
<stop stop-color="white" stop-opacity="0"/>
<stop offset="1" stop-color="white"/>
</linearGradient>
<linearGradient id="paint48_linear_1380_16677" x1="300.671" y1="71.1661" x2="294.279" y2="71.1661" gradientUnits="userSpaceOnUse">
<stop stop-color="white" stop-opacity="0"/>
<stop offset="1" stop-color="white"/>
</linearGradient>
<linearGradient id="paint49_linear_1380_16677" x1="307.544" y1="53.8008" x2="294.279" y2="53.8008" gradientUnits="userSpaceOnUse">
<stop stop-color="#E3E3E3"/>
<stop offset="0.21988" stop-color="#99C2FF"/>
<stop offset="0.512048" stop-color="#F48DA5"/>
<stop offset="0.75" stop-color="#A699DC"/>
<stop offset="1" stop-color="#E3E3E3"/>
</linearGradient>
<linearGradient id="paint50_linear_1380_16677" x1="307.544" y1="53.8008" x2="294.279" y2="53.8008" gradientUnits="userSpaceOnUse">
<stop stop-color="#E3E3E3"/>
<stop offset="0.21988" stop-color="#99C2FF"/>
<stop offset="0.512048" stop-color="#F48DA5"/>
<stop offset="0.75" stop-color="#A699DC"/>
<stop offset="1" stop-color="#E3E3E3"/>
</linearGradient>
<radialGradient id="paint51_radial_1380_16677" cx="0" cy="0" r="1" gradientUnits="userSpaceOnUse" gradientTransform="translate(23.1402 1.37994e-06) rotate(90.0757) scale(208.634 109.922)">
<stop stop-opacity="0"/>
<stop offset="0.221563"/>
<stop offset="1" stop-opacity="0"/>
</radialGradient>
<linearGradient id="paint52_linear_1380_16677" x1="22.0383" y1="57.6011" x2="-1.38988e-06" y2="57.6011" gradientUnits="userSpaceOnUse">
<stop stop-color="white" stop-opacity="0"/>
<stop offset="1" stop-color="white"/>
</linearGradient>
<linearGradient id="paint53_linear_1380_16677" x1="468.901" y1="223.268" x2="446.863" y2="223.268" gradientUnits="userSpaceOnUse">
<stop stop-color="white" stop-opacity="0"/>
<stop offset="1" stop-color="white"/>
</linearGradient>
<linearGradient id="paint54_linear_1380_16677" x1="492.593" y1="163.402" x2="446.863" y2="163.402" gradientUnits="userSpaceOnUse">
<stop stop-color="#E3E3E3"/>
<stop offset="0.21988" stop-color="#99C2FF"/>
<stop offset="0.512048" stop-color="#F48DA5"/>
<stop offset="0.75" stop-color="#A699DC"/>
<stop offset="1" stop-color="#E3E3E3"/>
</linearGradient>
<linearGradient id="paint55_linear_1380_16677" x1="492.593" y1="163.402" x2="446.863" y2="163.402" gradientUnits="userSpaceOnUse">
<stop stop-color="#E3E3E3"/>
<stop offset="0.21988" stop-color="#99C2FF"/>
<stop offset="0.512048" stop-color="#F48DA5"/>
<stop offset="0.75" stop-color="#A699DC"/>
<stop offset="1" stop-color="#E3E3E3"/>
</linearGradient>
<radialGradient id="paint56_radial_1380_16677" cx="0" cy="0" r="1" gradientUnits="userSpaceOnUse" gradientTransform="translate(365.291 124.451) rotate(90.0757) scale(117.526 61.9205)">
<stop stop-opacity="0"/>
<stop offset="0.221563"/>
<stop offset="1" stop-opacity="0"/>
</radialGradient>
<linearGradient id="paint57_linear_1380_16677" x1="364.67" y1="158.43" x2="352.256" y2="158.43" gradientUnits="userSpaceOnUse">
<stop stop-color="white" stop-opacity="0"/>
<stop offset="1" stop-color="white"/>
</linearGradient>
<linearGradient id="paint58_linear_1380_16677" x1="12.4144" y1="32.4473" x2="-7.82937e-07" y2="32.4473" gradientUnits="userSpaceOnUse">
<stop stop-color="white" stop-opacity="0"/>
<stop offset="1" stop-color="white"/>
</linearGradient>
<linearGradient id="paint59_linear_1380_16677" x1="352.255" y1="124.707" x2="378.015" y2="124.707" gradientUnits="userSpaceOnUse">
<stop stop-color="#E3E3E3"/>
<stop offset="0.21988" stop-color="#99C2FF"/>
<stop offset="0.512048" stop-color="#F48DA5"/>
<stop offset="0.75" stop-color="#A699DC"/>
<stop offset="1" stop-color="#E3E3E3"/>
</linearGradient>
<linearGradient id="paint60_linear_1380_16677" x1="352.255" y1="124.707" x2="378.015" y2="124.707" gradientUnits="userSpaceOnUse">
<stop stop-color="#E3E3E3"/>
<stop offset="0.21988" stop-color="#99C2FF"/>
<stop offset="0.512048" stop-color="#F48DA5"/>
<stop offset="0.75" stop-color="#A699DC"/>
<stop offset="1" stop-color="#E3E3E3"/>
</linearGradient>
<radialGradient id="paint61_radial_1380_16677" cx="0" cy="0" r="1" gradientUnits="userSpaceOnUse" gradientTransform="translate(15.5184 298.739) rotate(90.0757) scale(117.526 61.9205)">
<stop stop-opacity="0"/>
<stop offset="0.221563"/>
<stop offset="1" stop-opacity="0"/>
</radialGradient>
<linearGradient id="paint62_linear_1380_16677" x1="14.8978" y1="332.718" x2="2.4834" y2="332.718" gradientUnits="userSpaceOnUse">
<stop stop-color="white" stop-opacity="0"/>
<stop offset="1" stop-color="white"/>
</linearGradient>
<linearGradient id="paint63_linear_1380_16677" x1="12.4144" y1="32.4473" x2="-7.82937e-07" y2="32.4473" gradientUnits="userSpaceOnUse">
<stop stop-color="white" stop-opacity="0"/>
<stop offset="1" stop-color="white"/>
</linearGradient>
<linearGradient id="paint64_linear_1380_16677" x1="2.48303" y1="298.995" x2="28.2429" y2="298.995" gradientUnits="userSpaceOnUse">
<stop stop-color="#E3E3E3"/>
<stop offset="0.21988" stop-color="#99C2FF"/>
<stop offset="0.512048" stop-color="#F48DA5"/>
<stop offset="0.75" stop-color="#A699DC"/>
<stop offset="1" stop-color="#E3E3E3"/>
</linearGradient>
<linearGradient id="paint65_linear_1380_16677" x1="2.48303" y1="298.995" x2="28.2429" y2="298.995" gradientUnits="userSpaceOnUse">
<stop stop-color="#E3E3E3"/>
<stop offset="0.21988" stop-color="#99C2FF"/>
<stop offset="0.512048" stop-color="#F48DA5"/>
<stop offset="0.75" stop-color="#A699DC"/>
<stop offset="1" stop-color="#E3E3E3"/>
</linearGradient>
<radialGradient id="paint66_radial_1380_16677" cx="0" cy="0" r="1" gradientUnits="userSpaceOnUse" gradientTransform="translate(127.795 424.409) rotate(90.0757) scale(330.879 174.329)">
<stop stop-opacity="0"/>
<stop offset="0.221563"/>
<stop offset="1" stop-opacity="0"/>
</radialGradient>
<linearGradient id="paint67_linear_1380_16677" x1="126.047" y1="520.077" x2="91.0961" y2="520.077" gradientUnits="userSpaceOnUse">
<stop stop-color="white" stop-opacity="0"/>
<stop offset="1" stop-color="white"/>
</linearGradient>
<linearGradient id="paint68_linear_1380_16677" x1="34.9512" y1="91.3513" x2="-2.20426e-06" y2="91.3513" gradientUnits="userSpaceOnUse">
<stop stop-color="white" stop-opacity="0"/>
<stop offset="1" stop-color="white"/>
</linearGradient>
<linearGradient id="paint69_linear_1380_16677" x1="91.0963" y1="425.794" x2="163.646" y2="425.794" gradientUnits="userSpaceOnUse">
<stop stop-color="#E3E3E3"/>
<stop offset="0.21988" stop-color="#99C2FF"/>
<stop offset="0.512048" stop-color="#F48DA5"/>
<stop offset="0.75" stop-color="#A699DC"/>
<stop offset="1" stop-color="#E3E3E3"/>
</linearGradient>
<linearGradient id="paint70_linear_1380_16677" x1="91.0963" y1="425.794" x2="163.646" y2="425.794" gradientUnits="userSpaceOnUse">
<stop stop-color="#E3E3E3"/>
<stop offset="0.21988" stop-color="#99C2FF"/>
<stop offset="0.512048" stop-color="#F48DA5"/>
<stop offset="0.75" stop-color="#A699DC"/>
<stop offset="1" stop-color="#E3E3E3"/>
</linearGradient>
</defs>
</svg>
