<svg width="363" height="317" viewBox="0 0 363 317" fill="none" xmlns="http://www.w3.org/2000/svg">
<g opacity="0.2" filter="url(#filter0_f_2452_14441)">
<path d="M220.877 142.749C237.69 140.192 250.422 145.184 254.686 147.315C244.406 152.338 222.476 162.383 216.993 162.383C202.145 162.383 192.093 152.338 192.093 152.338C192.093 152.338 199.86 145.945 220.877 142.749Z" fill="url(#paint0_linear_2452_14441)"/>
<path d="M343.447 183.634C350.332 178.409 359.666 159.675 355.2 147.087C350.735 134.498 341.469 130.906 338.225 130.193L332.308 129.28C324.818 128.138 307.685 126.431 281.579 134.78C255.473 143.129 194.368 175.084 146.653 167.958C98.9384 160.833 98.4636 128.293 113.656 96.9407C128.849 65.5885 115.081 38.5116 98.4636 38.9866C100.743 42.0268 102.262 50.8625 102.737 54.9003C102.024 52.1292 97.8464 42.7394 86.8316 27.3483C75.8169 11.9573 60.086 7.15942 53.5974 6.68439C55.6548 7.39695 60.4816 9.96215 63.3303 14.5225C44.5767 6.20939 14.4285 26.6358 33.6569 35.1864C-2.90077 31.3861 1.3722 53.4752 14.4285 50.3874C27.4848 47.2997 73.5379 53.4752 76.1492 91.0028C78.7604 128.53 60.4816 161.308 91.3419 199.785C116.03 230.568 151.955 238.738 166.831 238.976C164.615 239.451 159.472 240.971 156.623 243.251C171.341 243.488 178.701 258.452 192.232 253.702C192.232 255.982 189.699 257.819 188.433 258.452C196.584 259.56 213.027 259.022 213.596 248.001C221.003 249.521 235.04 248.635 241.133 248.001C240.421 248.951 236.955 253.037 228.789 261.777C249.442 272.703 271.282 258.452 277.928 239.688C300.718 228.525 330.391 201.448 338.462 190.285C357.928 216.649 354.897 247.526 343.447 258.452C331.998 269.378 314.486 263.44 304.516 268.903C293.188 275.109 300.005 286.241 290.747 293.842C281.489 301.442 273.722 287.064 262.736 283.866C249.679 280.066 241.133 292.491 226.482 305.955C216.548 315.085 203.931 309.518 198.404 301.205C201.557 308.093 217.336 322.589 238.997 297.642C266.838 265.577 272.874 308.139 292.172 295.742C303.633 288.379 294.071 276.741 306.415 270.803C318.759 264.865 343.447 275.553 353.655 250.851C363.863 226.15 352.231 200.023 343.447 183.634Z" fill="url(#paint1_linear_2452_14441)"/>
<path d="M290.701 87.0381C306.021 85.2273 314.806 121.447 313.826 134.155L319.812 134.038C319.543 132.959 320.627 127.96 312.314 102.946C304.001 77.9319 281.169 75.7488 275.658 94.7267L275.624 94.8457C271.88 107.741 268.986 117.706 257.61 124.035C244.702 131.217 229.198 107.416 213.932 110.08C204.341 111.754 201.686 121.966 189.547 127.356C182.391 130.534 173.389 126.451 170.271 126.38C197.442 137.069 195.853 119.5 211.963 112.303C228.791 104.785 242.16 137.463 259.645 126.214C282.12 111.754 275.382 88.8489 290.701 87.0381Z" fill="url(#paint2_linear_2452_14441)"/>
<path d="M62.6718 181.352C67.3683 193.196 84.0526 198.906 91.8077 200.28C80.2838 174.23 77.6746 158.113 77.6746 145.744C77.6746 133.375 73.7608 132.063 68.325 124.942C68.7599 128.503 65.7158 133.188 62.6718 145.744C57.4534 142.933 55.714 158.488 60.7149 168.046C60.1931 167.146 57.1635 166.172 55.714 165.797C56.0763 166.047 57.9753 169.508 62.6718 181.352Z" fill="url(#paint3_linear_2452_14441)"/>
</g>
<path d="M90.0377 159.834C93.5715 170.672 106.125 175.897 111.96 177.155C103.289 153.317 101.326 138.569 101.326 127.251C101.326 115.932 98.3814 114.732 94.2913 108.215C94.6185 111.474 92.3281 115.761 90.0377 127.251C86.1112 124.678 84.8024 138.912 88.5652 147.658C88.1726 146.835 85.8931 145.943 84.8024 145.6C85.0751 145.829 86.5039 148.996 90.0377 159.834Z" fill="#003868"/>
<path d="M229.998 124.509C245.373 122.169 257.016 126.737 260.916 128.687C251.515 133.283 231.46 142.475 226.446 142.475C219.876 142.475 214.332 140.323 210.36 138.101C209.728 137.748 209.136 137.392 208.585 137.043C213.494 135.372 207.646 136.433 207.227 136.141C204.941 134.549 203.675 133.283 203.675 133.283C203.675 133.283 207.144 130.427 215.792 127.708C219.519 126.536 224.209 125.39 229.998 124.509Z" fill="#013C70"/>
<path opacity="0.1" d="M342.915 162.34C349.211 157.558 357.747 140.415 353.663 128.896C349.58 117.377 341.106 114.089 338.139 113.437L332.728 112.602C325.879 111.557 310.211 109.994 286.337 117.634C262.463 125.274 206.584 154.515 162.949 147.995C119.314 141.475 118.88 111.698 132.774 83.009C146.668 54.3196 134.076 29.5424 118.88 29.9771C120.964 32.7591 122.354 40.8443 122.788 44.5392C122.137 42.0035 118.316 33.4111 108.243 19.3273C98.17 5.24337 83.7843 0.853023 77.8506 0.418335C79.732 1.07038 84.1462 3.41772 86.7512 7.59072C69.6013 -0.0163187 42.0311 18.6752 59.6152 26.4996C26.1836 23.0221 30.0912 43.2351 42.0311 40.4096C53.9709 37.5842 96.086 43.2351 98.4739 77.5754C100.862 111.916 84.1461 141.909 112.368 177.119C134.945 205.287 167.797 212.763 181.402 212.981C179.375 213.415 174.672 214.806 172.067 216.893C185.526 217.11 192.256 230.803 204.63 226.456C204.63 228.543 202.314 230.223 201.157 230.803C208.61 231.817 223.647 231.325 224.168 221.24C230.941 222.631 243.778 221.819 249.35 221.24C248.957 221.764 247.648 223.333 245.032 226.251C244.467 226.88 246.14 226.324 245.449 227.082C245.027 227.547 242.282 229.284 241.81 229.798C240.703 231.005 238.764 230.425 238.062 233.846C246.693 238.415 255.551 238.172 263.207 234.922C265.269 234.047 265.942 236.2 267.802 234.922C269.65 233.654 272.686 228.958 274.279 227.363C278.152 223.484 281.19 218.741 282.999 213.633C303.839 203.418 330.975 178.64 338.356 168.425C356.157 192.55 353.386 220.805 342.915 230.803C332.445 240.801 316.43 235.367 307.313 240.366C296.954 246.046 303.188 256.232 294.722 263.187C286.255 270.142 279.153 256.985 269.105 254.059C257.165 250.581 249.35 261.951 235.952 274.272C226.867 282.626 215.329 277.532 210.274 269.925C213.158 276.228 227.587 289.493 247.396 266.665C272.857 237.323 278.376 276.27 296.024 264.926C306.506 258.188 297.761 247.538 309.049 242.105C320.338 236.671 342.915 246.452 352.25 223.848C361.585 201.244 350.947 177.336 342.915 162.34Z" fill="url(#paint4_linear_2452_14441)"/>
<path d="M342.082 161.921C348.377 157.14 356.914 139.997 352.83 128.478C349.207 118.26 341.822 113.716 331.895 112.183C325.045 111.139 309.377 109.576 285.504 117.216C261.63 124.856 205.751 154.097 162.116 147.577C118.481 141.056 118.047 111.28 131.941 82.5907C145.834 53.9013 133.243 29.1241 118.047 29.5588C120.131 32.3408 121.52 40.426 121.955 44.1208C121.303 41.5851 117.483 32.9928 107.41 18.9089C97.3368 4.82503 82.9511 0.434688 77.0173 0C78.8988 0.652043 83.3129 2.99938 85.9179 7.17239C68.768 -0.434654 41.1978 18.2569 58.7819 26.0813C25.3504 22.6038 29.2579 42.8168 41.1978 39.9913C53.1376 37.1658 95.2527 42.8168 97.6406 77.1571C100.029 111.497 83.3128 141.491 111.534 176.701C134.111 204.868 166.964 212.345 180.568 212.562C178.542 212.997 173.839 214.388 171.234 216.475C184.693 216.692 191.423 230.385 203.797 226.038C203.797 228.124 201.481 229.805 200.323 230.385C207.777 231.399 222.814 230.906 223.335 220.821C230.108 222.212 242.945 221.401 248.517 220.821C248.124 221.346 246.815 222.914 244.198 225.832C243.634 226.462 245.306 225.906 244.616 226.664C244.194 227.128 241.449 228.866 240.977 229.38C239.87 230.586 237.931 230.007 237.228 233.427C245.86 237.997 254.718 237.754 262.373 234.504C264.436 233.628 265.109 235.781 266.969 234.504C268.817 233.236 271.853 228.54 273.445 226.945C277.319 223.066 280.357 218.323 282.165 213.214C303.006 202.999 330.142 178.222 337.523 168.007C355.324 192.132 352.552 220.387 342.082 230.385C331.611 240.382 315.597 234.949 306.479 239.948C296.12 245.627 302.355 255.814 293.888 262.769C285.422 269.724 278.319 256.567 268.272 253.64C256.332 250.163 248.517 261.532 235.119 273.853C226.034 282.208 214.495 277.114 209.441 269.507C212.324 275.809 226.754 289.075 246.563 266.246C272.024 236.905 277.543 275.852 295.191 264.508C305.672 257.77 296.928 247.12 308.216 241.686C319.505 236.253 342.082 246.033 351.417 223.43C360.751 200.826 350.114 176.918 342.082 161.921Z" fill="url(#paint5_linear_2452_14441)"/>
<path d="M342.082 161.921C348.377 157.14 356.914 139.997 352.83 128.478C349.207 118.26 341.822 113.716 331.895 112.183C325.045 111.139 309.377 109.576 285.504 117.216C261.63 124.856 205.751 154.097 162.116 147.577C118.481 141.056 118.047 111.28 131.941 82.5907C145.834 53.9013 133.243 29.1241 118.047 29.5588C120.131 32.3408 121.52 40.426 121.955 44.1208C121.303 41.5851 117.483 32.9928 107.41 18.9089C97.3368 4.82503 82.9511 0.434688 77.0173 0C78.8988 0.652043 83.3129 2.99938 85.9179 7.17239C68.768 -0.434654 41.1978 18.2569 58.7819 26.0813C25.3504 22.6038 29.2579 42.8168 41.1978 39.9913C53.1376 37.1658 95.2527 42.8168 97.6406 77.1571C100.029 111.497 83.3128 141.491 111.534 176.701C134.111 204.868 166.964 212.345 180.568 212.562C178.542 212.997 173.839 214.388 171.234 216.475C184.693 216.692 191.423 230.385 203.797 226.038C203.797 228.124 201.481 229.805 200.323 230.385C207.777 231.399 222.814 230.906 223.335 220.821C230.108 222.212 242.945 221.401 248.517 220.821C248.124 221.346 246.815 222.914 244.198 225.832C243.634 226.462 245.306 225.906 244.616 226.664C244.194 227.128 241.449 228.866 240.977 229.38C239.87 230.586 237.931 230.007 237.228 233.427C245.86 237.997 254.718 237.754 262.373 234.504C264.436 233.628 265.109 235.781 266.969 234.504C268.817 233.236 271.853 228.54 273.445 226.945C277.319 223.066 280.357 218.323 282.165 213.214C303.006 202.999 330.142 178.222 337.523 168.007C355.324 192.132 352.552 220.387 342.082 230.385C331.611 240.382 315.597 234.949 306.479 239.948C296.12 245.627 302.355 255.814 293.888 262.769C285.422 269.724 278.319 256.567 268.272 253.64C256.332 250.163 248.517 261.532 235.119 273.853C226.034 282.208 214.495 277.114 209.441 269.507C212.324 275.809 226.754 289.075 246.563 266.246C272.024 236.905 277.543 275.852 295.191 264.508C305.672 257.77 296.928 247.12 308.216 241.686C319.505 236.253 342.082 246.033 351.417 223.43C360.751 200.826 350.114 176.918 342.082 161.921Z" fill="url(#paint6_radial_2452_14441)" fill-opacity="0.2"/>
<path fill-rule="evenodd" clip-rule="evenodd" d="M265.444 129.014C237.51 140.22 196.099 156.834 162.116 151.755C132.678 147.666 164.441 177.154 223.335 172.186C279.54 167.444 325.254 149.369 319.614 132.657C315.101 119.287 294.994 119.578 285.504 121.395C280.223 123.085 273.377 125.831 265.444 129.014Z" fill="url(#paint7_linear_2452_14441)"/>
<path d="M259.03 222.695C257.777 225.62 249.838 232.514 241.9 230.842C242.735 230.216 244.866 227.709 246.705 226.873C248.543 226.037 246.635 225.689 245.451 225.62C248.097 225.341 254.518 224.366 259.03 222.695Z" fill="#014581"/>
<path d="M186.544 216.637C181.865 213.963 171.921 215.384 171.294 216.637C179.232 217.264 185.5 222.277 193.229 226.038C200.959 229.798 206.181 220.606 202.212 221.86C198.243 223.113 192.393 219.979 186.544 216.637Z" fill="#014581"/>
<path d="M293.847 73.5301C310.84 72.2828 315.89 105.016 314.994 116.646L320.468 116.538C320.222 115.551 322.467 111.812 314.865 88.9226C307.263 66.033 284.712 63.1996 279.672 80.5658C276.233 92.4187 276.371 101.948 264.003 107.803C251.636 113.658 235.216 91.92 223.642 94.6155C212.068 97.3109 212.443 105.491 201.342 110.424C194.798 113.332 186.566 109.595 183.714 109.531C207.64 118.451 207.109 103.235 221.842 96.6491C234.589 90.9505 248.046 116.809 265.446 109.378C282.847 101.948 276.854 74.7774 293.847 73.5301Z" fill="url(#paint8_linear_2452_14441)"/>
<path d="M334.064 164.341C332.604 165.818 330.47 166.071 329.814 165.422C329.158 164.773 329.809 163.05 331.27 161.573C332.73 160.096 334.446 159.425 335.102 160.074C335.758 160.723 335.525 162.864 334.064 164.341Z" fill="#7BC7F4"/>
<path d="M308.99 120.408C306.924 120.622 305.173 120.05 305.078 119.132C304.984 118.214 306.582 116.879 308.647 116.666C310.713 116.453 312.465 117.442 312.559 118.36C312.654 119.278 311.056 120.195 308.99 120.408Z" fill="#7BC7F4"/>
<defs>
<filter id="filter0_f_2452_14441" x="0.404046" y="2.08843" width="361.827" height="314.196" filterUnits="userSpaceOnUse" color-interpolation-filters="sRGB">
<feFlood flood-opacity="0" result="BackgroundImageFix"/>
<feBlend mode="normal" in="SourceGraphic" in2="BackgroundImageFix" result="shape"/>
<feGaussianBlur stdDeviation="2.29798" result="effect1_foregroundBlur_2452_14441"/>
</filter>
<linearGradient id="paint0_linear_2452_14441" x1="-12.3615" y1="74.4885" x2="377.321" y2="186.942" gradientUnits="userSpaceOnUse">
<stop stop-color="#000C16"/>
<stop offset="1" stop-color="#004A8B"/>
</linearGradient>
<linearGradient id="paint1_linear_2452_14441" x1="-12.3615" y1="74.4885" x2="377.321" y2="186.942" gradientUnits="userSpaceOnUse">
<stop stop-color="#000C16"/>
<stop offset="1" stop-color="#004A8B"/>
</linearGradient>
<linearGradient id="paint2_linear_2452_14441" x1="-12.3615" y1="74.4885" x2="377.321" y2="186.942" gradientUnits="userSpaceOnUse">
<stop stop-color="#000C16"/>
<stop offset="1" stop-color="#004A8B"/>
</linearGradient>
<linearGradient id="paint3_linear_2452_14441" x1="-12.3615" y1="74.4885" x2="377.321" y2="186.942" gradientUnits="userSpaceOnUse">
<stop stop-color="#000C16"/>
<stop offset="1" stop-color="#004A8B"/>
</linearGradient>
<linearGradient id="paint4_linear_2452_14441" x1="50.1214" y1="54.1074" x2="368.705" y2="181.332" gradientUnits="userSpaceOnUse">
<stop stop-color="#004A8B"/>
<stop offset="1" stop-color="#63B5FF"/>
</linearGradient>
<linearGradient id="paint5_linear_2452_14441" x1="82.5043" y1="203.475" x2="358.262" y2="123.882" gradientUnits="userSpaceOnUse">
<stop stop-color="#004A8B"/>
<stop offset="0.859992" stop-color="#004A8B"/>
<stop offset="1" stop-color="#004A8B"/>
</linearGradient>
<radialGradient id="paint6_radial_2452_14441" cx="0" cy="0" r="1" gradientUnits="userSpaceOnUse" gradientTransform="translate(239.393 111.347) rotate(77.5405) scale(112.321 129.78)">
<stop stop-opacity="0"/>
<stop offset="0.915714" stop-opacity="0.4"/>
<stop offset="1"/>
</radialGradient>
<linearGradient id="paint7_linear_2452_14441" x1="49.2881" y1="57.868" x2="367.871" y2="185.092" gradientUnits="userSpaceOnUse">
<stop stop-color="#0A5AA2"/>
<stop offset="0.801513" stop-color="#014683"/>
</linearGradient>
<linearGradient id="paint8_linear_2452_14441" x1="26.5372" y1="107.64" x2="362.257" y2="178.162" gradientUnits="userSpaceOnUse">
<stop stop-color="#004A8B"/>
<stop offset="1" stop-color="#004A8B"/>
</linearGradient>
</defs>
</svg>
