<svg width="24" height="24" viewBox="0 0 24 24" fill="none" xmlns="http://www.w3.org/2000/svg">
<path d="M22.8191 1.18091C22.448 0.80672 22.0064 0.509718 21.5199 0.307035C21.0334 0.104352 20.5116 0 19.9846 0C19.4575 0 18.9357 0.104352 18.4492 0.307035C17.9627 0.509718 17.5212 0.80672 17.15 1.18091L12 6.37088L6.84995 1.18091C6.09819 0.429149 5.07858 0.00681514 4.01543 0.00681514C2.95228 0.00681514 1.93267 0.429149 1.18091 1.18091C0.429149 1.93267 0.00681514 2.95228 0.00681514 4.01543C0.00681514 5.07858 0.429149 6.09819 1.18091 6.84995L6.37088 12L1.18091 17.15C0.80672 17.5212 0.509718 17.9627 0.307035 18.4492C0.104352 18.9357 0 19.4575 0 19.9846C0 20.5116 0.104352 21.0334 0.307035 21.5199C0.509718 22.0064 0.80672 22.448 1.18091 22.8191C1.55205 23.1933 1.9936 23.4903 2.48009 23.693C2.96659 23.8956 3.4884 24 4.01543 24C4.54246 24 5.06428 23.8956 5.55077 23.693C6.03727 23.4903 6.47882 23.1933 6.84995 22.8191L12 17.6291L17.15 22.8191C17.5212 23.1933 17.9627 23.4903 18.4492 23.693C18.9357 23.8956 19.4575 24 19.9846 24C20.5116 24 21.0334 23.8956 21.5199 23.693C22.0064 23.4903 22.448 23.1933 22.8191 22.8191C23.1933 22.448 23.4903 22.0064 23.693 21.5199C23.8956 21.0334 24 20.5116 24 19.9846C24 19.4575 23.8956 18.9357 23.693 18.4492C23.4903 17.9627 23.1933 17.5212 22.8191 17.15L17.6291 12L22.8191 6.84995C23.1933 6.47882 23.4903 6.03727 23.693 5.55077C23.8956 5.06428 24 4.54246 24 4.01543C24 3.4884 23.8956 2.96659 23.693 2.48009C23.4903 1.9936 23.1933 1.55205 22.8191 1.18091V1.18091Z" fill="white"/>
</svg>
