<svg width="20" height="22" viewBox="0 0 20 22" fill="none" xmlns="http://www.w3.org/2000/svg">
<path d="M5.34851 3V15C5.34851 15.5304 5.57755 16.0391 5.98524 16.4142C6.39292 16.7893 6.94587 17 7.52242 17H16.2181C16.7946 17 17.3476 16.7893 17.7553 16.4142C18.163 16.0391 18.392 15.5304 18.392 15V6.242C18.392 5.97556 18.3341 5.71181 18.2217 5.46624C18.1093 5.22068 17.9447 4.99824 17.7376 4.812L14.1344 1.57C13.7283 1.20466 13.1828 1.00007 12.6148 1H7.52242C6.94587 1 6.39292 1.21071 5.98524 1.58579C5.57755 1.96086 5.34851 2.46957 5.34851 3V3Z" stroke="white" stroke-width="2" stroke-linecap="round" stroke-linejoin="round"/>
<path d="M14.0435 17V19C14.0435 19.5304 13.8144 20.0391 13.4068 20.4142C12.9991 20.7893 12.4461 21 11.8696 21H3.17391C2.59736 21 2.04441 20.7893 1.63672 20.4142C1.22904 20.0391 1 19.5304 1 19V8C1 7.46957 1.22904 6.96086 1.63672 6.58579C2.04441 6.21071 2.59736 6 3.17391 6H5.34783" stroke="white" stroke-width="2" stroke-linecap="round" stroke-linejoin="round"/>
</svg>
