<svg width="29" height="29" viewBox="0 0 29 29" fill="none" xmlns="http://www.w3.org/2000/svg">
<path d="M4.83883 15.4632C5.72545 14.9534 7.49869 13.9338 7.89057 15.2992C8.28244 16.6646 4.61228 19.1727 4.83883 15.4632Z" fill="white"/>
<path d="M2.12268 3.90142C0.301274 4.15339 -0.874351 0.0571604 2.3974 0.959648C5.66915 1.86214 4.28782 4.24724 2.12268 3.90142Z" fill="white"/>
<path d="M10.481 10.2304C8.65962 10.4823 6.25367 6.29819 9.3054 6.13413C12.3571 5.97008 14.9831 11.2208 10.481 10.2304Z" fill="white"/>
<path d="M15.4921 16.8933C14.4337 17.1043 10.5982 14.5375 14.8321 13.6937C19.066 12.8499 19.4513 18.9913 15.4921 16.8933Z" fill="white"/>
<path d="M20.4955 11.2325C18.9696 11.3146 14.8868 9.68552 20.5984 7.99195C26.3099 6.29838 21.5266 13.0257 20.4955 11.2325Z" fill="white"/>
<path d="M11.2933 28.0568C8.709 28.3498 5.80907 26.0404 9.6507 23.8314C13.4923 21.6224 12.7715 27.2068 11.2933 28.0568Z" fill="white"/>
<path d="M26.6822 21.9917C24.5648 22.4139 25.0387 17.7669 26.8119 16.7472C28.5852 15.7276 29.6381 20.292 26.6822 21.9917Z" fill="white"/>
</svg>
