<svg width="182" height="27" viewBox="0 0 182 27" fill="none" xmlns="http://www.w3.org/2000/svg">
<path d="M36.2197 5.95829H42.7824C43.5447 5.95829 44.307 6.01298 45.0693 6.12237C45.8482 6.21613 46.5443 6.41927 47.1575 6.7318C47.7706 7.0287 48.2678 7.45062 48.649 7.99754C49.0301 8.54447 49.2207 9.2711 49.2207 10.1774C49.2207 11.115 48.939 11.8963 48.3755 12.5214C47.8286 13.1308 47.0995 13.5684 46.188 13.834V13.8809C46.768 13.959 47.29 14.1153 47.7541 14.3497C48.2347 14.5685 48.6407 14.8575 48.9721 15.217C49.3202 15.5607 49.5853 15.967 49.7676 16.4358C49.9499 16.9046 50.041 17.4047 50.041 17.936C50.041 18.811 49.8422 19.5455 49.4444 20.1393C49.0467 20.7175 48.533 21.1863 47.9032 21.5457C47.2735 21.9051 46.5609 22.1629 45.7654 22.3192C44.9865 22.4754 44.2076 22.5536 43.4287 22.5536H36.2197V5.95829ZM40.0977 12.5917H42.9067C43.205 12.5917 43.495 12.5605 43.7767 12.498C44.075 12.4354 44.3402 12.3339 44.5722 12.1932C44.8042 12.0526 44.9865 11.8651 45.1191 11.6307C45.2682 11.3963 45.3428 11.115 45.3428 10.7869C45.3428 10.4431 45.2599 10.1618 45.0942 9.94303C44.9451 9.70864 44.7462 9.52893 44.4976 9.40392C44.249 9.27891 43.9673 9.19296 43.6524 9.14608C43.3375 9.08358 43.031 9.05232 42.7327 9.05232H40.0977V12.5917ZM40.0977 19.4595H43.5778C43.8761 19.4595 44.1744 19.4283 44.4727 19.3658C44.7876 19.3033 45.0693 19.1939 45.3179 19.0376C45.5665 18.8814 45.7654 18.6782 45.9145 18.4282C46.0803 18.1782 46.1631 17.8735 46.1631 17.514C46.1631 17.1234 46.0554 16.8109 45.84 16.5765C45.6411 16.3264 45.3842 16.1389 45.0693 16.0139C44.7545 15.8889 44.4147 15.8029 44.0502 15.7561C43.6856 15.7092 43.3458 15.6857 43.031 15.6857H40.0977V19.4595Z" fill="white"/>
<path d="M69.6653 16.1545C69.6653 17.139 69.5078 18.0453 69.193 18.8735C68.8781 19.7017 68.4058 20.4206 67.776 21.03C67.1628 21.6394 66.3922 22.116 65.4642 22.4598C64.5361 22.8036 63.4672 22.9755 62.2574 22.9755C61.0311 22.9755 59.9539 22.8036 59.0258 22.4598C58.0978 22.116 57.3189 21.6394 56.6891 21.03C56.076 20.4206 55.6119 19.7017 55.2971 18.8735C54.9822 18.0453 54.8248 17.139 54.8248 16.1545V5.95829H58.7027V16.0139C58.7027 16.5296 58.7855 17.0062 58.9513 17.4437C59.1336 17.8813 59.3821 18.2641 59.697 18.5923C60.0119 18.9048 60.3848 19.1548 60.8156 19.3423C61.2631 19.5142 61.7437 19.6002 62.2574 19.6002C62.7712 19.6002 63.2435 19.5142 63.6744 19.3423C64.1053 19.1548 64.4781 18.9048 64.793 18.5923C65.1079 18.2641 65.3482 17.8813 65.5139 17.4437C65.6962 17.0062 65.7873 16.5296 65.7873 16.0139V5.95829H69.6653V16.1545Z" fill="white"/>
<path d="M75.6863 5.95829H79.5642V22.5536H75.6863V5.95829Z" fill="white"/>
<path d="M85.7266 5.95829H89.6045V19.1783H96.7886V22.5536H85.7266V5.95829Z" fill="white"/>
<path d="M101.415 5.95829H107.232C108.641 5.95829 109.975 6.10674 111.234 6.40364C112.51 6.70055 113.621 7.18497 114.565 7.8569C115.51 8.51321 116.256 9.37267 116.802 10.4353C117.366 11.4979 117.648 12.787 117.648 14.3028C117.648 15.6467 117.374 16.8343 116.827 17.8656C116.297 18.8814 115.576 19.7408 114.665 20.444C113.753 21.1316 112.701 21.655 111.508 22.0145C110.314 22.3739 109.063 22.5536 107.754 22.5536H101.415V5.95829ZM105.293 19.1783H107.306C108.201 19.1783 109.03 19.0923 109.792 18.9204C110.571 18.7485 111.242 18.4673 111.806 18.0766C112.369 17.6703 112.808 17.1468 113.123 16.5061C113.455 15.8498 113.621 15.0529 113.621 14.1153C113.621 13.3027 113.455 12.5995 113.123 12.0057C112.808 11.3963 112.378 10.8962 111.831 10.5056C111.284 10.1149 110.638 9.82583 109.892 9.63832C109.163 9.43517 108.392 9.3336 107.58 9.3336H105.293V19.1783Z" fill="white"/>
<path d="M131.464 10.0134C131.149 9.63832 130.718 9.36485 130.171 9.19296C129.641 9.00545 129.135 8.91169 128.655 8.91169C128.373 8.91169 128.083 8.94294 127.785 9.00545C127.486 9.06795 127.205 9.16952 126.939 9.31016C126.674 9.43517 126.459 9.60706 126.293 9.82583C126.127 10.0446 126.045 10.3103 126.045 10.6228C126.045 11.1228 126.243 11.5057 126.641 11.7713C127.039 12.037 127.536 12.2636 128.133 12.4511C128.746 12.6386 129.4 12.8261 130.096 13.0136C130.792 13.2011 131.439 13.4668 132.035 13.8106C132.649 14.1544 133.154 14.6153 133.552 15.1935C133.95 15.7717 134.148 16.5452 134.148 17.514C134.148 18.436 133.966 19.2408 133.601 19.9283C133.237 20.6159 132.74 21.1863 132.11 21.6394C131.497 22.0926 130.776 22.4286 129.947 22.6473C129.135 22.8661 128.273 22.9755 127.362 22.9755C126.219 22.9755 125.158 22.8114 124.18 22.4832C123.202 22.1551 122.291 21.6238 121.446 20.8894L124.205 18.0297C124.603 18.5298 125.1 18.9204 125.696 19.2017C126.31 19.4673 126.939 19.6002 127.586 19.6002C127.901 19.6002 128.215 19.5689 128.53 19.5064C128.862 19.4283 129.152 19.3189 129.4 19.1783C129.666 19.0376 129.873 18.8579 130.022 18.6391C130.188 18.4204 130.27 18.1625 130.27 17.8656C130.27 17.3656 130.063 16.9749 129.649 16.6937C129.251 16.3968 128.746 16.1467 128.133 15.9436C127.519 15.7404 126.857 15.5373 126.144 15.3342C125.431 15.131 124.768 14.8575 124.155 14.5138C123.542 14.17 123.028 13.7168 122.614 13.1543C122.216 12.5917 122.017 11.8495 122.017 10.9275C122.017 10.0368 122.2 9.25547 122.564 8.58353C122.945 7.91159 123.443 7.34904 124.056 6.89588C124.686 6.44271 125.406 6.10674 126.219 5.88797C127.031 5.65358 127.867 5.53638 128.729 5.53638C129.724 5.53638 130.685 5.6692 131.613 5.93485C132.541 6.2005 133.378 6.64585 134.124 7.27091L131.464 10.0134Z" fill="white"/>
<path d="M152.94 9.19296V5.95829H156.818V9.19296V22.5536H152.94V9.19296Z" fill="white"/>
<path d="M163.008 14.2559C163.008 12.9277 163.24 11.7244 163.704 10.6462C164.185 9.568 164.848 8.65385 165.693 7.90378C166.538 7.13809 167.541 6.55209 168.701 6.14581C169.861 5.73952 171.129 5.53638 172.504 5.53638C173.88 5.53638 175.147 5.73952 176.307 6.14581C177.468 6.55209 178.47 7.13809 179.315 7.90378C180.16 8.65385 180.815 9.568 181.279 10.6462C181.76 11.7244 182 12.9277 182 14.2559C182 15.5842 181.76 16.7874 181.279 17.8656C180.815 18.9439 180.16 19.8658 179.315 20.6315C178.47 21.3816 177.468 21.9598 176.307 22.3661C175.147 22.7723 173.88 22.9755 172.504 22.9755C171.129 22.9755 169.861 22.7723 168.701 22.3661C167.541 21.9598 166.538 21.3816 165.693 20.6315C164.848 19.8658 164.185 18.9439 163.704 17.8656C163.24 16.7874 163.008 15.5842 163.008 14.2559ZM167.035 14.2559C167.035 15.0373 167.16 15.7561 167.408 16.4124C167.673 17.0531 168.046 17.6156 168.527 18.1C169.007 18.5688 169.579 18.936 170.242 19.2017C170.921 19.4673 171.675 19.6002 172.504 19.6002C173.333 19.6002 174.078 19.4673 174.741 19.2017C175.421 18.936 176.001 18.5688 176.481 18.1C176.962 17.6156 177.327 17.0531 177.575 16.4124C177.84 15.7561 177.973 15.0373 177.973 14.2559C177.973 13.4902 177.84 12.7792 177.575 12.1229C177.327 11.4666 176.962 10.9041 176.481 10.4353C176.001 9.95084 175.421 9.57581 174.741 9.31016C174.078 9.04451 173.333 8.91169 172.504 8.91169C171.675 8.91169 170.921 9.04451 170.242 9.31016C169.579 9.57581 169.007 9.95084 168.527 10.4353C168.046 10.9041 167.673 11.4666 167.408 12.1229C167.16 12.7792 167.035 13.4902 167.035 14.2559Z" fill="white"/>
<path opacity="0.45" fill-rule="evenodd" clip-rule="evenodd" d="M0 0.170654H16.2893L20.122 4.00343V11.669L4.79096 27H0V0.170654Z" fill="white"/>
<path opacity="0.8" fill-rule="evenodd" clip-rule="evenodd" d="M4.79096 0.170654L20.122 15.5017V23.1673L16.2893 27H0V0.170654H4.79096Z" fill="url(#paint0_linear_3346_221)"/>
<circle cx="142.5" cy="20.5" r="2.5" fill="white"/>
<defs>
<linearGradient id="paint0_linear_3346_221" x1="10.061" y1="0.170654" x2="10.061" y2="27" gradientUnits="userSpaceOnUse">
<stop stop-color="#FFD50B"/>
<stop offset="1" stop-color="#FFBA08"/>
</linearGradient>
</defs>
</svg>
