<svg width="33" height="32" viewBox="0 0 33 32" fill="none" xmlns="http://www.w3.org/2000/svg">
<path d="M21.4156 11.9629C21.4156 11.0807 20.7005 10.3655 19.8183 10.3655H6.24046C5.35825 10.3655 4.64307 11.0807 4.64307 11.9629V23.1446C4.64307 24.0268 5.35825 24.742 6.24046 24.742H13.5733C13.8704 24.742 14.1615 24.8248 14.4141 24.9812L16.8034 26.8596C17.4221 27.2426 18.2209 26.7976 18.2209 26.07C18.2209 25.5571 18.6366 24.742 19.1495 24.742H19.8183C20.7005 24.742 21.4156 24.0268 21.4156 23.1446V11.9629Z" fill="#DEE7F4"/>
<rect x="6.24042" y="15.1575" width="5.99021" height="1.59739" rx="0.798694" fill="white"/>
<rect x="6.24042" y="19.1509" width="7.58759" height="1.59739" rx="0.798695" fill="white"/>
<rect x="6.24042" y="21.547" width="9.98368" height="1.59739" rx="0.798695" fill="white"/>
<path d="M4.64304 13.2107C6.21449 13.2107 7.48839 11.9368 7.48839 10.3653C7.48839 8.79389 6.21449 7.51998 4.64304 7.51998C3.0716 7.51998 1.79769 8.79389 1.79769 10.3653C1.79769 11.9368 3.0716 13.2107 4.64304 13.2107Z" fill="#440FB7" stroke="white" stroke-width="2.49592"/>
<path d="M13.4287 7.57004C13.4287 6.68783 14.1439 5.97266 15.0261 5.97266H28.6039C29.4861 5.97266 30.2013 6.68783 30.2013 7.57004V15.9563C30.2013 16.8385 29.4861 17.5537 28.6039 17.5537H21.2711C20.974 17.5537 20.6828 17.6366 20.4303 17.7929L18.041 19.6713C17.4223 20.0543 16.6235 19.6094 16.6235 18.8817C16.6235 18.3688 16.2077 17.5537 15.6948 17.5537H15.0261C14.1439 17.5537 13.4287 16.8385 13.4287 15.9563V7.57004Z" fill="white"/>
<path d="M14.2274 6.77122C14.2274 5.889 14.9425 5.17383 15.8247 5.17383H29.4025C30.2848 5.17383 30.9999 5.889 30.9999 6.77122V15.1575C30.9999 16.0397 30.2848 16.7549 29.4025 16.7549H22.0697C21.7726 16.7549 21.4815 16.8377 21.2289 16.9941L18.8396 18.8725C18.2209 19.2555 17.4221 18.8105 17.4221 18.0829C17.4221 17.57 17.0064 16.7549 16.4935 16.7549H15.8247C14.9425 16.7549 14.2274 16.0397 14.2274 15.1575V6.77122Z" fill="url(#paint0_linear_3356_9451)"/>
<rect x="16.2241" y="6.77124" width="8.78564" height="1.59739" rx="0.798694" fill="white"/>
<rect x="16.2241" y="10.7645" width="7.5876" height="1.59739" rx="0.798694" fill="white"/>
<rect x="16.2241" y="13.1609" width="5.19151" height="1.59739" rx="0.798694" fill="white"/>
<defs>
<linearGradient id="paint0_linear_3356_9451" x1="22.6136" y1="5.17383" x2="22.6136" y2="19.013" gradientUnits="userSpaceOnUse">
<stop stop-color="#440FB7"/>
<stop offset="1" stop-color="#7136F1"/>
</linearGradient>
</defs>
</svg>
