<svg width="32" height="32" viewBox="0 0 32 32" fill="none" xmlns="http://www.w3.org/2000/svg">
<rect x="4" y="7" width="12" height="17" rx="2" fill="#DEE7F4"/>
<rect x="15" y="7" width="13" height="17" rx="2" fill="url(#paint0_linear_3356_9435)"/>
<rect width="8" height="1" rx="0.5" transform="matrix(-1 0 0 1 14 13)" fill="white"/>
<rect width="7.2" height="1" rx="0.5" transform="matrix(-1 0 0 1 14 10)" fill="white"/>
<rect width="7.2" height="1" rx="0.5" transform="matrix(-1 0 0 1 14 15)" fill="white"/>
<rect width="8" height="1" rx="0.5" transform="matrix(-1 0 0 1 14 17)" fill="white"/>
<rect width="3.2" height="1" rx="0.5" transform="matrix(-1 0 0 1 14 21)" fill="white"/>
<rect x="16" y="9" width="7.04" height="1.28" rx="0.64" fill="white"/>
<rect x="16" y="13" width="10" height="1" rx="0.5" fill="white"/>
<rect x="16" y="15" width="8" height="1" rx="0.5" fill="white"/>
<rect x="16" y="17" width="8" height="1" rx="0.5" fill="white"/>
<rect x="16" y="19" width="9" height="1" rx="0.5" fill="white"/>
<rect x="16" y="21" width="4" height="1" rx="0.5" fill="white"/>
<defs>
<linearGradient id="paint0_linear_3356_9435" x1="21.5" y1="7" x2="21.5" y2="24" gradientUnits="userSpaceOnUse">
<stop stop-color="#440FB7"/>
<stop offset="1" stop-color="#7136F1"/>
</linearGradient>
</defs>
</svg>
