<svg width="32" height="33" viewBox="0 0 32 33" fill="none" xmlns="http://www.w3.org/2000/svg">
<path d="M2.84492 14.3207C2.84492 15.9204 3.14132 17.4509 3.68221 18.8602C5.87127 21.6975 3.40963 23.5258 5.11468 24.913C7.29511 26.6868 12.4878 26.9936 15.5178 26.9936C22.5168 26.9936 28.1907 21.3197 28.1907 14.3207C28.1907 7.32167 22.5168 1.64783 15.5178 1.64783C8.51876 1.64783 2.84492 7.32167 2.84492 14.3207Z" fill="#F2F7FF"/>
<path d="M30.1743 17.3172C31.2091 16.2929 30.747 14.5324 29.3425 14.1484L19.23 11.3837C17.8255 10.9997 16.532 12.2801 16.9017 13.6884L19.5636 23.8285C19.9333 25.2368 21.6889 25.7168 22.7237 24.6925L30.1743 17.3172Z" fill="#440FB7"/>
<g filter="url(#filter0_b_3356_9444)">
<path d="M2.37218 12.0274C0.606804 13.0466 0.606805 15.5947 2.37218 16.614L20.8141 27.2614C22.5794 28.2807 24.7862 27.0066 24.7862 24.9681L24.7862 3.67327C24.7862 1.63479 22.5794 0.360739 20.8141 1.37998L2.37218 12.0274Z" fill="url(#paint0_linear_3356_9444)" fill-opacity="0.8"/>
<path d="M2.37218 12.0274C0.606804 13.0466 0.606805 15.5947 2.37218 16.614L20.8141 27.2614C22.5794 28.2807 24.7862 27.0066 24.7862 24.9681L24.7862 3.67327C24.7862 1.63479 22.5794 0.360739 20.8141 1.37998L2.37218 12.0274Z" stroke="#DEE7F4" stroke-width="0.378295"/>
</g>
<g filter="url(#filter1_b_3356_9444)">
<path d="M10.5528 22.2968C8.8505 23.2797 8.8505 25.7368 10.5528 26.7196C12.2552 27.7025 14.3831 26.4739 14.3831 24.5082C14.3831 22.5425 12.2552 21.314 10.5528 22.2968Z" fill="url(#paint1_linear_3356_9444)" fill-opacity="0.8"/>
<path d="M10.5528 22.2968C8.8505 23.2797 8.8505 25.7368 10.5528 26.7196C12.2552 27.7025 14.3831 26.4739 14.3831 24.5082C14.3831 22.5425 12.2552 21.314 10.5528 22.2968Z" stroke="#DEE7F4" stroke-width="0.378295"/>
</g>
<circle cx="2.83721" cy="2.83721" r="2.83721" transform="matrix(-1 0 0 1 14.1938 7.67407)" fill="#440FB7"/>
<defs>
<filter id="filter0_b_3356_9444" x="-1.41076" y="-1.43798" width="28.6558" height="31.5173" filterUnits="userSpaceOnUse" color-interpolation-filters="sRGB">
<feFlood flood-opacity="0" result="BackgroundImageFix"/>
<feGaussianBlur in="BackgroundImageFix" stdDeviation="1.13488"/>
<feComposite in2="SourceAlpha" operator="in" result="effect1_backgroundBlur_3356_9444"/>
<feBlend mode="normal" in="SourceGraphic" in2="effect1_backgroundBlur_3356_9444" result="shape"/>
</filter>
<filter id="filter1_b_3356_9444" x="6.81714" y="19.4917" width="10.0248" height="10.0331" filterUnits="userSpaceOnUse" color-interpolation-filters="sRGB">
<feFlood flood-opacity="0" result="BackgroundImageFix"/>
<feGaussianBlur in="BackgroundImageFix" stdDeviation="1.13488"/>
<feComposite in2="SourceAlpha" operator="in" result="effect1_backgroundBlur_3356_9444"/>
<feBlend mode="normal" in="SourceGraphic" in2="effect1_backgroundBlur_3356_9444" result="shape"/>
</filter>
<linearGradient id="paint0_linear_3356_9444" x1="-1.59991" y1="14.3207" x2="27.1505" y2="14.5098" gradientUnits="userSpaceOnUse">
<stop stop-color="white"/>
<stop offset="1" stop-color="white" stop-opacity="0"/>
</linearGradient>
<linearGradient id="paint1_linear_3356_9444" x1="6.7226" y1="24.5082" x2="15.0695" y2="24.5631" gradientUnits="userSpaceOnUse">
<stop stop-color="#FFF1D6"/>
<stop offset="1" stop-color="white" stop-opacity="0"/>
</linearGradient>
</defs>
</svg>
