<svg width="12" height="12" viewBox="0 0 12 12" fill="none" xmlns="http://www.w3.org/2000/svg">
<path d="M1.2696 1.2696C1.70351 0.835686 2.40703 0.835686 2.84095 1.2696L10.6977 9.12634C11.1316 9.56026 11.1316 10.2638 10.6977 10.6977C10.2638 11.1316 9.56025 11.1316 9.12634 10.6977L1.2696 2.84095C0.835682 2.40703 0.835682 1.70352 1.2696 1.2696Z" fill="#9D56A4"/>
<path d="M1.2696 10.6977C0.835682 10.2638 0.835682 9.56026 1.2696 9.12634L9.12634 1.2696C9.56025 0.835686 10.2638 0.835686 10.6977 1.2696C11.1316 1.70352 11.1316 2.40703 10.6977 2.84095L2.84095 10.6977C2.40703 11.1316 1.70351 11.1316 1.2696 10.6977Z" fill="#9D56A4"/>
</svg>
