<svg width="18" height="18" viewBox="0 0 18 18" fill="none" xmlns="http://www.w3.org/2000/svg">
<path fill-rule="evenodd" clip-rule="evenodd" d="M5.01388 0.618254C5.99929 0.210083 7.05545 0 8.12205 0C9.18865 0 10.2448 0.210083 11.2302 0.618254C12.2156 1.02643 13.111 1.62469 13.8652 2.37889C14.6194 3.1331 15.2177 4.02846 15.6258 5.01388C16.034 5.99929 16.2441 7.05545 16.2441 8.12205C16.2441 9.18865 16.034 10.2448 15.6258 11.2302C15.3585 11.8757 15.0095 12.4826 14.5886 13.0364L17.6785 16.1264C18.1072 16.555 18.1072 17.2499 17.6785 17.6785C17.2499 18.1072 16.555 18.1072 16.1264 17.6785L13.0365 14.5886C11.6313 15.6566 9.90695 16.2441 8.12205 16.2441C5.96795 16.2441 3.90207 15.3884 2.37889 13.8652C0.855714 12.342 0 10.2762 0 8.12205C0 5.96795 0.855714 3.90207 2.37889 2.37889C3.1331 1.62469 4.02846 1.02643 5.01388 0.618254ZM8.12205 2.1951C7.34371 2.1951 6.573 2.3484 5.8539 2.64626C5.13481 2.94412 4.48143 3.3807 3.93106 3.93106C2.81954 5.04258 2.1951 6.55013 2.1951 8.12205C2.1951 9.69398 2.81954 11.2015 3.93106 12.313C5.04258 13.4246 6.55013 14.049 8.12205 14.049C9.69398 14.049 11.2015 13.4246 12.313 12.313C12.8634 11.7627 13.3 11.1093 13.5978 10.3902C13.8957 9.6711 14.049 8.90039 14.049 8.12205C14.049 7.34371 13.8957 6.57299 13.5978 5.8539C13.3 5.13481 12.8634 4.48143 12.313 3.93106C11.7627 3.3807 11.1093 2.94412 10.3902 2.64626C9.67111 2.3484 8.90039 2.1951 8.12205 2.1951Z" fill="#252525"/>
</svg>
