<svg width="8" height="15" viewBox="0 0 8 15" fill="none" xmlns="http://www.w3.org/2000/svg">
<path d="M3.5 14.5C3.5 14.7761 3.72386 15 4 15C4.27614 15 4.5 14.7761 4.5 14.5L3.5 14.5ZM4.35356 0.146447C4.1583 -0.0488157 3.84171 -0.0488157 3.64645 0.146446L0.46447 3.32843C0.269208 3.52369 0.269208 3.84027 0.46447 4.03553C0.659732 4.2308 0.976314 4.2308 1.17158 4.03553L4 1.20711L6.82843 4.03553C7.02369 4.2308 7.34028 4.2308 7.53554 4.03553C7.7308 3.84027 7.7308 3.52369 7.53554 3.32843L4.35356 0.146447ZM4.5 14.5L4.5 0.5L3.5 0.5L3.5 14.5L4.5 14.5Z" fill="#505050"/>
</svg>
