<svg width="512" height="1942" viewBox="0 0 512 1942" fill="none" xmlns="http://www.w3.org/2000/svg">
<g opacity="0.4">
<mask id="mask0_1282_23331" style="mask-type:alpha" maskUnits="userSpaceOnUse" x="126" y="117" width="32" height="144">
<rect width="31.4843" height="143.642" transform="matrix(-1 0 0 1 157.519 117.06)" fill="url(#paint0_radial_1282_23331)"/>
</mask>
<g mask="url(#mask0_1282_23331)">
<rect opacity="0.5" width="15.1731" height="141.769" transform="matrix(-1 0 0 1 157.519 118.933)" fill="url(#paint1_linear_1282_23331)"/>
<rect opacity="0.5" x="126.034" y="118.933" width="15.1731" height="141.769" fill="url(#paint2_linear_1282_23331)"/>
</g>
</g>
<path d="M151.171 123.118C155.094 120.741 157.055 119.552 157.428 118.124C157.549 117.663 157.549 117.193 157.428 116.732C157.055 115.304 155.094 114.116 151.171 111.738C147.248 109.36 145.286 108.172 142.931 107.945C142.17 107.872 141.395 107.872 140.634 107.945C138.279 108.172 136.317 109.36 132.394 111.738C128.471 114.116 126.51 115.304 126.137 116.732C126.016 117.193 126.016 117.663 126.137 118.124C126.51 119.552 128.471 120.741 132.394 123.118C136.317 125.496 138.279 126.685 140.634 126.911C141.395 126.984 142.17 126.984 142.931 126.911C145.286 126.685 147.248 125.496 151.171 123.118Z" fill="url(#paint3_linear_1282_23331)"/>
<path d="M151.171 123.118C155.094 120.741 157.055 119.552 157.428 118.124C157.549 117.663 157.549 117.193 157.428 116.732C157.055 115.304 155.094 114.116 151.171 111.738C147.248 109.36 145.286 108.172 142.931 107.945C142.17 107.872 141.395 107.872 140.634 107.945C138.279 108.172 136.317 109.36 132.394 111.738C128.471 114.116 126.51 115.304 126.137 116.732C126.016 117.193 126.016 117.663 126.137 118.124C126.51 119.552 128.471 120.741 132.394 123.118C136.317 125.496 138.279 126.685 140.634 126.911C141.395 126.984 142.17 126.984 142.931 126.911C145.286 126.685 147.248 125.496 151.171 123.118Z" fill="white" fill-opacity="0.6"/>
<path d="M157.519 115.857H126.034V117.374H157.519V115.857Z" fill="url(#paint4_linear_1282_23331)"/>
<path d="M157.519 115.857H126.034V117.374H157.519V115.857Z" fill="white" fill-opacity="0.6"/>
<rect width="21.9561" height="21.9561" rx="6.06926" transform="matrix(-0.855186 -0.518321 -0.855186 0.518321 160.552 115.668)" fill="white"/>
<g opacity="0.4">
<mask id="mask1_1282_23331" style="mask-type:alpha" maskUnits="userSpaceOnUse" x="344" y="431" width="14" height="62">
<rect width="13.265" height="60.5196" transform="matrix(-1 0 0 1 357.543 431.669)" fill="url(#paint5_radial_1282_23331)"/>
</mask>
<g mask="url(#mask1_1282_23331)">
<rect opacity="0.5" width="6.39278" height="59.7302" transform="matrix(-1 0 0 1 357.543 432.457)" fill="url(#paint6_linear_1282_23331)"/>
<rect opacity="0.5" x="344.279" y="432.457" width="6.39278" height="59.7302" fill="url(#paint7_linear_1282_23331)"/>
</g>
</g>
<path d="M354.869 434.221C356.522 433.219 357.348 432.719 357.505 432.117C357.556 431.923 357.556 431.725 357.505 431.531C357.348 430.929 356.522 430.428 354.869 429.426C353.216 428.425 352.39 427.924 351.397 427.828C351.077 427.798 350.75 427.798 350.43 427.828C349.437 427.924 348.611 428.425 346.958 429.426C345.305 430.428 344.479 430.929 344.322 431.531C344.271 431.725 344.271 431.923 344.322 432.117C344.479 432.719 345.305 433.219 346.958 434.221C348.611 435.223 349.437 435.724 350.43 435.819C350.75 435.85 351.077 435.85 351.397 435.819C352.39 435.724 353.216 435.223 354.869 434.221Z" fill="url(#paint8_linear_1282_23331)"/>
<path d="M354.869 434.221C356.522 433.219 357.348 432.719 357.505 432.117C357.556 431.923 357.556 431.725 357.505 431.531C357.348 430.929 356.522 430.428 354.869 429.426C353.216 428.425 352.39 427.924 351.397 427.828C351.077 427.798 350.75 427.798 350.43 427.828C349.437 427.924 348.611 428.425 346.958 429.426C345.305 430.428 344.479 430.929 344.322 431.531C344.271 431.725 344.271 431.923 344.322 432.117C344.479 432.719 345.305 433.219 346.958 434.221C348.611 435.223 349.437 435.724 350.43 435.819C350.75 435.85 351.077 435.85 351.397 435.819C352.39 435.724 353.216 435.223 354.869 434.221Z" fill="white" fill-opacity="0.6"/>
<path d="M357.543 431.162H344.278V431.801H357.543V431.162Z" fill="url(#paint9_linear_1282_23331)"/>
<path d="M357.543 431.162H344.278V431.801H357.543V431.162Z" fill="white" fill-opacity="0.6"/>
<rect width="9.25056" height="9.25056" rx="2.55711" transform="matrix(-0.855186 -0.518321 -0.855186 0.518321 358.821 431.082)" fill="white"/>
<g opacity="0.4">
<mask id="mask2_1282_23331" style="mask-type:alpha" maskUnits="userSpaceOnUse" x="309" y="56" width="14" height="62">
<rect width="13.265" height="60.5196" transform="matrix(-1 0 0 1 322.543 56.6687)" fill="url(#paint10_radial_1282_23331)"/>
</mask>
<g mask="url(#mask2_1282_23331)">
<rect opacity="0.5" width="6.39278" height="59.7302" transform="matrix(-1 0 0 1 322.543 57.4573)" fill="url(#paint11_linear_1282_23331)"/>
<rect opacity="0.5" x="309.279" y="57.4573" width="6.39278" height="59.7302" fill="url(#paint12_linear_1282_23331)"/>
</g>
</g>
<path d="M319.869 59.2212C321.522 58.2194 322.348 57.7185 322.505 57.117C322.556 56.9227 322.556 56.7248 322.505 56.5306C322.348 55.929 321.522 55.4281 319.869 54.4264C318.216 53.4246 317.39 52.9238 316.397 52.8285C316.077 52.7977 315.75 52.7977 315.43 52.8285C314.437 52.9238 313.611 53.4246 311.958 54.4264C310.305 55.4281 309.479 55.929 309.322 56.5306C309.271 56.7248 309.271 56.9227 309.322 57.117C309.479 57.7185 310.305 58.2194 311.958 59.2212C313.611 60.2229 314.437 60.7238 315.43 60.8191C315.75 60.8498 316.077 60.8498 316.397 60.8191C317.39 60.7238 318.216 60.2229 319.869 59.2212Z" fill="url(#paint13_linear_1282_23331)"/>
<path d="M319.869 59.2212C321.522 58.2194 322.348 57.7185 322.505 57.117C322.556 56.9227 322.556 56.7248 322.505 56.5306C322.348 55.929 321.522 55.4281 319.869 54.4264C318.216 53.4246 317.39 52.9238 316.397 52.8285C316.077 52.7977 315.75 52.7977 315.43 52.8285C314.437 52.9238 313.611 53.4246 311.958 54.4264C310.305 55.4281 309.479 55.929 309.322 56.5306C309.271 56.7248 309.271 56.9227 309.322 57.117C309.479 57.7185 310.305 58.2194 311.958 59.2212C313.611 60.2229 314.437 60.7238 315.43 60.8191C315.75 60.8498 316.077 60.8498 316.397 60.8191C317.39 60.7238 318.216 60.2229 319.869 59.2212Z" fill="white" fill-opacity="0.6"/>
<path d="M322.543 56.1616H309.278V56.8009H322.543V56.1616Z" fill="url(#paint14_linear_1282_23331)"/>
<path d="M322.543 56.1616H309.278V56.8009H322.543V56.1616Z" fill="white" fill-opacity="0.6"/>
<rect width="9.25056" height="9.25056" rx="2.55711" transform="matrix(-0.855186 -0.518321 -0.855186 0.518321 323.821 56.0818)" fill="white"/>
<g opacity="0.4">
<mask id="mask3_1282_23331" style="mask-type:alpha" maskUnits="userSpaceOnUse" x="256" y="358" width="190" height="864">
<rect x="256.513" y="358.313" width="189.251" height="863.431" fill="url(#paint15_radial_1282_23331)"/>
</mask>
<g mask="url(#mask3_1282_23331)">
<rect opacity="0.5" x="256.514" y="369.566" width="91.2054" height="852.169" fill="url(#paint16_linear_1282_23331)"/>
<rect opacity="0.5" width="91" height="863" transform="matrix(-1 0 0 1 446 358.288)" fill="url(#paint17_linear_1282_23331)"/>
</g>
</g>
<path d="M294.668 394.727C271.088 380.435 259.298 373.289 257.055 364.707C256.331 361.936 256.331 359.112 257.055 356.34C259.298 347.758 271.088 340.612 294.668 326.321C318.249 312.029 330.039 304.883 344.199 303.523C348.772 303.084 353.43 303.084 358.003 303.523C372.163 304.883 383.953 312.029 407.534 326.321C431.114 340.612 442.904 347.758 445.147 356.34C445.871 359.112 445.871 361.936 445.147 364.707C442.904 373.289 431.114 380.435 407.534 394.727C383.953 409.019 372.163 416.165 358.003 417.524C353.43 417.963 348.772 417.963 344.199 417.524C330.039 416.165 318.249 409.019 294.668 394.727Z" fill="url(#paint18_linear_1282_23331)"/>
<path d="M294.668 394.727C271.088 380.435 259.298 373.289 257.055 364.707C256.331 361.936 256.331 359.112 257.055 356.34C259.298 347.758 271.088 340.612 294.668 326.321C318.249 312.029 330.039 304.883 344.199 303.523C348.772 303.084 353.43 303.084 358.003 303.523C372.163 304.883 383.953 312.029 407.534 326.321C431.114 340.612 442.904 347.758 445.147 356.34C445.871 359.112 445.871 361.936 445.147 364.707C442.904 373.289 431.114 380.435 407.534 394.727C383.953 409.019 372.163 416.165 358.003 417.524C353.43 417.963 348.772 417.963 344.199 417.524C330.039 416.165 318.249 409.019 294.668 394.727Z" fill="white" fill-opacity="0.6"/>
<path d="M256.512 351.077H445.763V360.198H256.512V351.077Z" fill="url(#paint19_linear_1282_23331)"/>
<path d="M256.512 351.077H445.763V360.198H256.512V351.077Z" fill="white" fill-opacity="0.6"/>
<rect width="131.977" height="131.977" rx="36.4822" transform="matrix(0.855186 -0.518321 0.855186 0.518321 238.284 349.943)" fill="white"/>
<mask id="mask4_1282_23331" style="mask-type:alpha" maskUnits="userSpaceOnUse" x="256" y="292" width="190" height="116">
<rect opacity="0.32" width="131.977" height="131.977" rx="36.4822" transform="matrix(0.855186 -0.518321 0.855186 0.518321 238.284 349.943)" fill="white"/>
</mask>
<g mask="url(#mask4_1282_23331)">
<g opacity="0.2" filter="url(#filter0_f_1282_23331)">
<path fill-rule="evenodd" clip-rule="evenodd" d="M407.308 315.574C383.91 301.393 372.211 294.302 358.052 292.943C353.479 292.504 348.82 292.504 344.247 292.943C330.088 294.302 318.297 301.448 294.717 315.74C271.136 330.032 259.346 337.178 257.103 345.76C256.379 348.532 256.379 351.355 257.103 354.127C259.346 362.709 271.045 369.799 294.442 383.98L312 394.622C319.666 390.344 342.2 377.488 371 360.288C399.8 343.088 415.666 328.44 420 323.266L407.308 315.574Z" fill="#1B00B3"/>
</g>
</g>
<g opacity="0.4">
<mask id="mask5_1282_23331" style="mask-type:alpha" maskUnits="userSpaceOnUse" x="17" y="301" width="27" height="119">
<rect x="17.4832" y="301.739" width="25.7599" height="117.526" fill="url(#paint20_radial_1282_23331)"/>
</mask>
<g mask="url(#mask5_1282_23331)">
<rect opacity="0.5" x="17.4832" y="303.271" width="12.4144" height="115.993" fill="url(#paint21_linear_1282_23331)"/>
<rect opacity="0.5" width="12.4144" height="115.993" transform="matrix(-1 0 0 1 43.2437 303.271)" fill="url(#paint22_linear_1282_23331)"/>
</g>
</g>
<path d="M22.6766 306.695C19.4669 304.75 17.8621 303.777 17.5568 302.609C17.4583 302.232 17.4583 301.848 17.5568 301.47C17.8621 300.302 19.4669 299.33 22.6766 297.384C25.8862 295.439 27.4911 294.466 29.4184 294.281C30.0409 294.221 30.6749 294.221 31.2974 294.281C33.2247 294.466 34.8296 295.439 38.0392 297.384C41.2489 299.33 42.8537 300.302 43.159 301.47C43.2575 301.848 43.2575 302.232 43.159 302.609C42.8537 303.777 41.2489 304.75 38.0392 306.695C34.8296 308.641 33.2247 309.613 31.2974 309.798C30.6749 309.858 30.0409 309.858 29.4184 309.798C27.4911 309.613 25.8862 308.641 22.6766 306.695Z" fill="url(#paint23_linear_1282_23331)"/>
<path d="M22.6766 306.695C19.4669 304.75 17.8621 303.777 17.5568 302.609C17.4583 302.232 17.4583 301.848 17.5568 301.47C17.8621 300.302 19.4669 299.33 22.6766 297.384C25.8862 295.439 27.4911 294.466 29.4184 294.281C30.0409 294.221 30.6749 294.221 31.2974 294.281C33.2247 294.466 34.8296 295.439 38.0392 297.384C41.2489 299.33 42.8537 300.302 43.159 301.47C43.2575 301.848 43.2575 302.232 43.159 302.609C42.8537 303.777 41.2489 304.75 38.0392 306.695C34.8296 308.641 33.2247 309.613 31.2974 309.798C30.6749 309.858 30.0409 309.858 29.4184 309.798C27.4911 309.613 25.8862 308.641 22.6766 306.695Z" fill="white" fill-opacity="0.6"/>
<path d="M17.4829 300.754H43.2428V301.995H17.4829V300.754Z" fill="url(#paint24_linear_1282_23331)"/>
<path d="M17.4829 300.754H43.2428V301.995H17.4829V300.754Z" fill="white" fill-opacity="0.6"/>
<rect width="17.9641" height="17.9641" rx="4.96577" transform="matrix(0.855186 -0.518321 0.855186 0.518321 15.0022 300.6)" fill="white"/>
<g filter="url(#filter1_f_1282_23331)">
<ellipse cx="142" cy="115.288" rx="12" ry="6" fill="url(#paint25_radial_1282_23331)"/>
</g>
<circle cx="142" cy="100.288" r="15" fill="url(#paint26_radial_1282_23331)"/>
<g filter="url(#filter2_f_1282_23331)">
<ellipse cx="142" cy="115.288" rx="12" ry="6" fill="url(#paint27_radial_1282_23331)"/>
</g>
<circle cx="142" cy="100.288" r="15" fill="url(#paint28_radial_1282_23331)"/>
<g opacity="0.4">
<mask id="mask6_1282_23331" style="mask-type:alpha" maskUnits="userSpaceOnUse" x="58" y="259" width="369" height="1683">
<rect x="58.0227" y="259.46" width="368.715" height="1682.21" fill="url(#paint29_radial_1282_23331)"/>
</mask>
<g mask="url(#mask6_1282_23331)">
<rect opacity="0.5" x="58.0227" y="281.401" width="177.694" height="1660.26" fill="url(#paint30_linear_1282_23331)"/>
<rect opacity="0.5" width="177.694" height="1660.26" transform="matrix(-1 0 0 1 426.738 281.401)" fill="url(#paint31_linear_1282_23331)"/>
</g>
</g>
<path d="M132.363 343.816C86.4211 315.971 63.4504 302.049 59.081 285.329C57.6699 279.929 57.6699 274.428 59.081 269.028C63.4504 252.308 86.4211 238.385 132.363 210.541C178.304 182.696 201.275 168.774 228.862 166.125C237.771 165.27 246.847 165.27 255.757 166.125C283.344 168.774 306.314 182.696 352.256 210.541C398.197 238.385 421.168 252.308 425.537 269.028C426.948 274.428 426.948 279.929 425.537 285.329C421.168 302.049 398.197 315.971 352.256 343.816C306.314 371.661 283.344 385.583 255.757 388.231C246.847 389.087 237.771 389.087 228.862 388.231C201.275 385.583 178.304 371.661 132.363 343.816Z" fill="url(#paint32_linear_1282_23331)"/>
<path d="M132.363 343.816C86.4211 315.971 63.4504 302.049 59.081 285.329C57.6699 279.929 57.6699 274.428 59.081 269.028C63.4504 252.308 86.4211 238.385 132.363 210.541C178.304 182.696 201.275 168.774 228.862 166.125C237.771 165.27 246.847 165.27 255.757 166.125C283.344 168.774 306.314 182.696 352.256 210.541C398.197 238.385 421.168 252.308 425.537 269.028C426.948 274.428 426.948 279.929 425.537 285.329C421.168 302.049 398.197 315.971 352.256 343.816C306.314 371.661 283.344 385.583 255.757 388.231C246.847 389.087 237.771 389.087 228.862 388.231C201.275 385.583 178.304 371.661 132.363 343.816Z" fill="white" fill-opacity="0.6"/>
<path d="M58.0227 258.773H426.738V276.543H58.0227V258.773Z" fill="url(#paint33_linear_1282_23331)"/>
<path d="M58.0227 258.773H426.738V276.543H58.0227V258.773Z" fill="white" fill-opacity="0.6"/>
<rect width="257.129" height="257.129" rx="71.0776" transform="matrix(0.855186 -0.518321 0.855186 0.518321 22.4841 256.564)" fill="white"/>
<rect opacity="0.1" width="230.145" height="230.145" rx="63.6185" transform="matrix(0.855186 -0.518321 0.855186 0.518321 45.5603 256.564)" fill="#4D24B5"/>
<rect x="1.71037" width="136.937" height="136.937" rx="39" transform="matrix(0.855186 -0.518321 0.855186 0.518321 76.2477 257.45)" stroke="white" stroke-width="2"/>
<rect x="1.71037" width="85.3232" height="85.3232" rx="30" transform="matrix(0.855186 -0.518321 0.855186 0.518321 239.248 257.45)" stroke="white" stroke-width="2"/>
<rect x="1.71037" width="30.9646" height="30.9646" rx="9" transform="matrix(0.855186 -0.518321 0.855186 0.518321 247.734 314.436)" stroke="white" stroke-width="2"/>
<g opacity="0.4" filter="url(#filter3_f_1282_23331)">
<path d="M247.579 259.238C244.338 261.203 242.761 263.919 242.4 266.689C241.434 274.083 236.285 281.315 226.953 286.971C206.134 299.589 172.38 299.589 151.561 286.971C141.424 280.827 136.223 272.825 135.957 264.774C135.793 259.787 135.957 256.022 135.957 251.646C138.498 248.424 147.157 243.946 151.561 241.277L245.801 184.159C266.62 171.54 300.374 171.54 321.193 184.159C326.359 187.29 334.196 189.445 336.798 193.301C337.029 197.677 336.682 202.456 336.798 206.429C337.046 214.889 331.844 223.397 321.193 229.853C311.861 235.509 299.929 238.63 287.729 239.215C283.159 239.435 278.677 240.39 275.435 242.355L247.579 259.238Z" fill="url(#paint34_linear_1282_23331)"/>
</g>
<path d="M247.58 233.816C244.339 235.781 242.762 238.497 242.401 241.267C241.435 248.662 236.286 255.893 226.954 261.549C206.135 274.167 172.381 274.167 151.562 261.549C141.425 255.405 136.224 247.403 135.958 239.352C135.794 234.365 135.958 222.6 135.958 218.224C138.499 215.002 147.158 210.524 151.562 207.855L245.802 150.737C266.621 138.118 300.375 138.118 321.194 150.737C326.36 153.868 334.197 156.023 336.799 159.879C337.03 164.255 336.683 177.034 336.799 181.007C337.047 189.467 331.845 197.975 321.194 204.431C311.862 210.087 299.93 213.208 287.73 213.793C283.16 214.013 278.678 214.968 275.436 216.933L247.58 233.816Z" fill="url(#paint35_linear_1282_23331)"/>
<path d="M258 216.288L263.75 212.788" stroke="#331D60" stroke-width="2" stroke-linecap="round"/>
<path d="M242.62 215.302C243.43 224.16 238.252 233.181 227.088 239.948C206.269 252.566 172.515 252.566 151.696 239.948C130.877 227.33 130.877 206.872 151.696 194.253L245.936 137.135C266.755 124.517 300.509 124.517 321.328 137.135C342.147 149.753 342.147 170.212 321.328 182.83C311.996 188.486 300.065 191.607 287.864 192.192C283.294 192.411 278.812 193.367 275.57 195.331L242.62 215.302Z" fill="url(#paint36_radial_1282_23331)"/>
<path d="M242.62 214.302C243.43 223.16 238.252 232.181 227.088 238.948C206.269 251.566 172.515 251.566 151.696 238.948C130.877 226.33 130.877 205.872 151.696 193.253L245.936 136.135C266.755 123.517 300.509 123.517 321.328 136.135C342.147 148.753 342.147 169.212 321.328 181.83C311.996 187.486 300.065 190.607 287.864 191.192C283.294 191.411 278.812 192.367 275.57 194.331L242.62 214.302Z" fill="url(#paint37_linear_1282_23331)"/>
<path fill-rule="evenodd" clip-rule="evenodd" d="M227.088 238.948C238.252 232.181 243.43 223.16 242.62 214.302C226.975 198.47 205.82 161.308 243.901 137.369L151.696 193.253C130.877 205.872 130.877 226.33 151.696 238.948C172.515 251.566 206.269 251.566 227.088 238.948Z" fill="url(#paint38_linear_1282_23331)"/>
<g filter="url(#filter4_f_1282_23331)">
<path d="M183.633 203.174C181.535 201.903 178.133 201.903 176.035 203.174L171.068 206.185C168.97 207.457 168.97 209.518 171.068 210.79L176.693 214.199L171.068 217.609C168.97 218.88 168.97 220.942 171.068 222.214L176.035 225.224C178.133 226.496 181.535 226.496 183.633 225.224L189.258 221.815L194.883 225.224C196.981 226.496 200.383 226.496 202.481 225.224L207.449 222.214C209.547 220.942 209.547 218.88 207.449 217.609L201.824 214.199L207.449 210.79C209.547 209.518 209.547 207.457 207.449 206.185L202.481 203.174C200.383 201.903 196.981 201.903 194.883 203.174L189.258 206.584L183.633 203.174Z" fill="#563EB5"/>
<path d="M270.933 159.312C273.815 159.312 278.195 160.143 279.818 161.433C279.818 162.288 279.818 163.47 279.818 164.697C279.818 167.671 275.84 170.082 270.933 170.082C266.026 170.082 262.048 167.671 262.048 164.697C262.048 163.659 262.048 162.788 262.048 161.869C263.613 160.334 267.737 159.312 270.933 159.312Z" fill="#563EB5"/>
<path d="M270.933 144.08C273.622 144.08 278.189 145.144 279.818 146.288C279.818 147.288 279.818 148.121 279.818 149.465C279.818 152.439 275.84 154.85 270.933 154.85C266.026 154.85 262.048 152.439 262.048 149.465C262.048 148.121 262.048 147.788 262.048 146.288C263.677 145.144 268.244 144.08 270.933 144.08Z" fill="#563EB5"/>
<path d="M296.063 159.312C299.045 159.312 303.337 160.201 304.948 161.567C304.948 162.788 304.948 163.529 304.948 164.697C304.948 167.671 300.971 170.082 296.063 170.082C291.156 170.082 287.178 167.671 287.178 164.697C287.178 163.659 287.178 162.788 287.178 161.869C288.744 160.334 292.868 159.312 296.063 159.312Z" fill="#563EB5"/>
<path d="M296.063 144.08C299.01 144.08 304.896 145.288 304.948 146.288C305 147.288 304.948 148.277 304.948 149.465C304.948 152.439 300.971 154.85 296.063 154.85C291.156 154.85 287.178 152.439 287.178 149.465C287.178 148.067 287.178 147.788 287.178 146.288C288.803 145.21 293.464 144.08 296.063 144.08Z" fill="#563EB5"/>
<path d="M228.525 193.256C228.525 191.678 230.635 190.4 233.237 190.4C235.839 190.4 237.949 191.678 237.949 193.256V200.871C237.949 202.449 235.839 203.727 233.237 203.727C230.635 203.727 228.525 202.449 228.525 200.871V193.256Z" fill="#563EB5"/>
<path d="M247.373 181.832C247.373 180.255 249.483 178.976 252.085 178.976C254.687 178.976 256.797 180.255 256.797 181.832V189.448C256.797 191.025 254.687 192.303 252.085 192.303C249.483 192.303 247.373 191.025 247.373 189.448V181.832Z" fill="#563EB5"/>
</g>
<path d="M304.948 163.697C304.948 166.671 300.971 169.082 296.063 169.082C291.156 169.082 287.178 166.671 287.178 163.697V160.869C288.744 159.334 292.868 158.312 296.063 158.312C299.045 158.312 303.337 159.201 304.948 160.567V163.697Z" fill="#5797F6"/>
<path d="M304.948 148.465C304.948 151.439 300.971 153.85 296.063 153.85C291.156 153.85 287.178 151.439 287.178 148.465V145.288C288.803 144.21 293.464 143.08 296.063 143.08C299.01 143.08 304.896 144.288 304.948 145.288C305 146.288 304.948 147.277 304.948 148.465Z" fill="url(#paint39_linear_1282_23331)"/>
<path d="M279.818 163.697C279.818 166.671 275.84 169.082 270.933 169.082C266.026 169.082 262.048 166.671 262.048 163.697V160.869C263.613 159.334 267.737 158.312 270.933 158.312C273.815 158.312 278.195 159.143 279.818 160.433V163.697Z" fill="#601982"/>
<path d="M183.633 200.256C181.535 198.984 178.133 198.984 176.035 200.256L171.068 203.266C168.97 204.538 168.97 206.6 171.068 207.871L176.693 211.281L171.068 214.69C168.97 215.961 168.97 218.023 171.068 219.295L176.035 222.306C178.133 223.577 181.535 223.577 183.633 222.306L189.258 218.896L194.883 222.306C196.981 223.577 200.383 223.577 202.481 222.306L207.448 219.295C209.546 218.023 209.547 215.961 207.448 214.69L201.823 211.281L207.448 207.871C209.546 206.6 209.546 204.538 207.448 203.266L202.481 200.256C200.383 198.984 196.981 198.984 194.883 200.256L189.258 203.665L183.633 200.256Z" fill="#D5CAFF"/>
<path d="M183.633 201.256C181.535 199.984 178.133 199.984 176.035 201.256L171.068 204.266C168.97 205.538 168.97 207.6 171.068 208.871L176.693 212.281L171.068 215.69C168.97 216.961 168.97 219.023 171.068 220.295L176.035 223.306C178.133 224.577 181.535 224.577 183.633 223.306L189.258 219.896L194.883 223.306C196.981 224.577 200.383 224.577 202.481 223.306L207.448 220.295C209.546 219.023 209.547 216.961 207.448 215.69L201.823 212.281L207.448 208.871C209.546 207.6 209.546 205.538 207.448 204.266L202.481 201.256C200.383 199.984 196.981 199.984 194.883 201.256L189.258 204.665L183.633 201.256Z" fill="#D5CAFF"/>
<path d="M176.907 210.41L177.12 210.281L176.907 210.151L171.282 206.742C169.301 205.542 169.301 203.596 171.282 202.396L176.249 199.385C178.229 198.185 181.439 198.185 183.419 199.385L189.044 202.794L189.258 202.924L189.472 202.794L195.097 199.385C197.077 198.185 200.287 198.185 202.267 199.385L207.235 202.396C209.215 203.596 209.215 205.542 207.235 206.742L201.61 210.151L201.396 210.281L201.61 210.41L207.235 213.819C209.215 215.019 209.215 216.965 207.235 218.165L202.267 221.176C200.287 222.376 197.077 222.376 195.097 221.176L189.472 217.767L189.258 217.637L189.044 217.767L183.419 221.176C181.439 222.376 178.229 222.376 176.249 221.176L171.282 218.165C169.301 216.965 169.301 215.019 171.282 213.819L176.907 210.41Z" fill="white" stroke="#EBE6FF" stroke-width="0.5"/>
<path d="M270.933 156.393C275.84 156.393 279.818 157.804 279.818 160.778C279.818 163.752 275.84 166.163 270.933 166.163C266.026 166.163 262.048 163.752 262.048 160.778C262.048 157.804 266.026 156.393 270.933 156.393Z" fill="url(#paint40_radial_1282_23331)"/>
<path d="M270.933 143.08C273.622 143.08 278.189 144.144 279.818 145.288C279.818 146.288 279.818 147.121 279.818 148.465C279.818 151.439 275.84 153.85 270.933 153.85C266.026 153.85 262.048 151.439 262.048 148.465C262.048 147.121 262.048 146.788 262.048 145.288C263.677 144.144 268.244 143.08 270.933 143.08Z" fill="#0F4E36"/>
<path d="M270.933 141.161C275.84 141.161 279.818 142.572 279.818 145.547C279.818 148.521 275.84 150.932 270.933 150.932C266.026 150.932 262.048 148.521 262.048 145.547C262.048 142.572 266.026 141.161 270.933 141.161Z" fill="url(#paint41_radial_1282_23331)"/>
<path d="M296.063 156.393C300.97 156.393 304.948 157.804 304.948 160.778C304.948 163.752 300.97 166.163 296.063 166.163C291.156 166.163 287.178 163.752 287.178 160.778C287.178 157.804 291.156 156.393 296.063 156.393Z" fill="url(#paint42_radial_1282_23331)"/>
<path d="M296.063 141.161C300.97 141.161 304.948 142.572 304.948 145.546C304.948 148.52 300.97 150.931 296.063 150.931C291.155 150.931 287.178 148.52 287.178 145.546C287.178 142.572 291.155 141.161 296.063 141.161Z" fill="url(#paint43_radial_1282_23331)"/>
<path d="M228.524 191.337C228.524 189.76 230.634 188.481 233.236 188.481C235.839 188.481 237.948 189.76 237.948 191.337L237.948 198.953C237.948 200.53 235.839 201.809 233.236 201.809C230.634 201.809 228.524 200.53 228.524 198.953L228.524 191.337Z" fill="#D5CAFF"/>
<path d="M228.524 188.568C228.524 186.99 230.634 185.712 233.236 185.712C235.839 185.712 237.948 186.99 237.948 188.568L237.948 196.183C237.948 197.761 235.839 199.039 233.236 199.039C230.634 199.039 228.524 197.761 228.524 196.183L228.524 188.568Z" fill="#EBE5FF"/>
<path d="M228.524 188.337C228.524 186.76 230.634 185.481 233.236 185.481C235.839 185.481 237.948 186.76 237.948 188.337L237.948 195.953C237.948 197.53 235.839 198.809 233.236 198.809C230.634 198.809 228.524 197.53 228.524 195.953L228.524 188.337Z" fill="url(#paint44_linear_1282_23331)"/>
<path d="M247.372 179.913C247.372 178.336 249.482 177.057 252.084 177.057C254.687 177.057 256.796 178.336 256.796 179.913V187.529C256.796 189.106 254.687 190.385 252.084 190.385C249.482 190.385 247.372 189.106 247.372 187.529V179.913Z" fill="#D5CAFF"/>
<path d="M247.372 177.144C247.372 175.566 249.482 174.288 252.084 174.288C254.687 174.288 256.796 175.566 256.796 177.144V184.759C256.796 186.337 254.687 187.615 252.084 187.615C249.482 187.615 247.372 186.337 247.372 184.759V177.144Z" fill="#EBE5FF"/>
<path d="M247.372 176.913C247.372 175.336 249.482 174.057 252.084 174.057C254.687 174.057 256.796 175.336 256.796 176.913V184.529C256.796 186.106 254.687 187.385 252.084 187.385C249.482 187.385 247.372 186.106 247.372 184.529V176.913Z" fill="url(#paint45_linear_1282_23331)"/>
<ellipse cx="269" cy="209.788" rx="1" ry="1.5" fill="#331D60"/>
<g opacity="0.3" filter="url(#filter5_f_1282_23331)">
<ellipse cx="311" cy="334.575" rx="33" ry="19.5" fill="url(#paint46_linear_1282_23331)"/>
</g>
<circle cx="309.425" cy="288.833" r="34.8327" fill="url(#paint47_radial_1282_23331)"/>
<path d="M295.602 274.184C297.312 271.911 302.663 266.205 310.385 261.561M321.186 265.476C323.009 266.803 326.627 272.051 326.519 282.42M317.136 290.858C314.616 290.858 307.307 289.724 298.234 285.187M284.936 275.332C284.351 273.441 283.68 268.797 285.679 265.341M307.618 256.768C303.545 256.228 293.941 256.39 288.109 261.358M328.274 262.978C331.785 264.148 339.561 269.243 342.585 280.259M342.248 282.892C342.788 284.152 341.546 287.442 332.257 290.52M276.093 293.491C276.408 292.388 277.956 289.683 281.628 287.685M289.864 294.638C290.336 299.296 292.145 309.044 295.602 310.772M289.864 313.945C289.099 314.147 286.813 314.174 283.788 312.662M307.618 314.687C310.565 314.102 317.082 310.988 319.566 303.211M331.042 303.211C332.167 304.876 334.201 309.098 333.337 312.662M309.17 320.02C312.388 321.393 320.768 323.193 331.515 315.632" stroke="#3A3A3A" stroke-width="0.13501"/>
<path d="M293.899 309.354L289.038 313.945C289.47 314.917 292.008 317.68 293.223 318.94C295.496 319.953 300.784 322.086 303.754 322.518C305.536 322.68 308.997 321.325 310.505 320.628C310.1 319.57 309.101 316.847 308.345 314.417C301.108 314.795 295.699 311.199 293.899 309.354Z" fill="url(#paint48_radial_1282_23331)"/>
<path d="M319.213 304.561L316.04 291.195C316.04 290.048 323.601 283.567 326.571 281.947C329.379 282.649 333.952 287.055 335.887 289.17C335.954 292.253 335.185 299.431 331.566 303.481C326.652 305.425 321.283 305.011 319.213 304.561Z" fill="url(#paint49_radial_1282_23331)"/>
<path d="M299.907 286.065L289.916 295.516C287.801 293.896 283.111 290.088 281.275 287.82C281.41 283.635 283.03 278.369 284.988 274.657C289.146 272.172 294.551 272.541 296.734 273.036L299.907 286.065Z" fill="url(#paint50_radial_1282_23331)"/>
<path d="M328.731 263.316L322.791 267.299C316.688 263.14 311.022 262.326 308.952 262.438L307.265 256.7C308.682 255.868 312.895 254.554 318.403 255.958C323.911 257.362 327.584 261.448 328.731 263.316Z" fill="url(#paint51_radial_1282_23331)"/>
<path fill-rule="evenodd" clip-rule="evenodd" d="M281.586 267.894L284.988 266.623C285.768 265.233 287.091 263.002 288.396 261.061C285.823 263.013 283.529 265.314 281.586 267.894Z" fill="url(#paint52_radial_1282_23331)"/>
<path fill-rule="evenodd" clip-rule="evenodd" d="M274.624 290.331L276.347 293.018L275.874 298.227C275.167 295.7 274.739 293.056 274.624 290.331Z" fill="url(#paint53_radial_1282_23331)"/>
<path fill-rule="evenodd" clip-rule="evenodd" d="M344.252 288.212C343.399 286.522 342.368 284.54 342.165 284.377C342.327 282.433 342.232 279.742 342.165 278.639L342.649 278.34C343.635 281.463 344.192 284.777 344.252 288.212Z" fill="url(#paint54_radial_1282_23331)"/>
<path fill-rule="evenodd" clip-rule="evenodd" d="M331.138 316.072C332.288 314.183 333.524 311.947 333.524 311.177C335.414 310.529 336.202 310.097 336.359 309.962C336.487 310.115 336.6 310.301 336.686 310.518C335.051 312.57 333.189 314.434 331.138 316.072Z" fill="url(#paint55_radial_1282_23331)"/>
<path fill-rule="evenodd" clip-rule="evenodd" d="M331.138 316.072C333.189 314.434 335.051 312.57 336.686 310.518C336.6 310.301 336.487 310.115 336.359 309.962C336.202 310.097 335.414 310.529 333.524 311.177C333.524 311.947 332.288 314.183 331.138 316.072ZM274.624 290.331C274.739 293.056 275.167 295.7 275.874 298.227L276.347 293.018L274.624 290.331ZM281.586 267.894L284.988 266.623C285.768 265.233 287.091 263.002 288.396 261.061C285.823 263.013 283.529 265.314 281.586 267.894ZM342.649 278.34L342.165 278.639C342.232 279.742 342.327 282.433 342.165 284.377C342.368 284.54 343.399 286.522 344.252 288.212C344.192 284.777 343.635 281.463 342.649 278.34ZM289.038 313.945L293.899 309.354C295.699 311.199 301.108 314.795 308.345 314.417C309.101 316.847 310.1 319.57 310.505 320.628C308.997 321.325 305.536 322.68 303.754 322.518C300.784 322.086 295.496 319.953 293.223 318.94C292.008 317.68 289.47 314.917 289.038 313.945ZM316.04 291.195L319.213 304.561C321.283 305.011 326.652 305.425 331.566 303.481C335.185 299.431 335.954 292.253 335.887 289.17C333.952 287.055 329.379 282.649 326.571 281.947C323.601 283.567 316.04 290.048 316.04 291.195ZM289.916 295.516L299.907 286.065L296.734 273.036C294.551 272.541 289.146 272.172 284.988 274.657C283.03 278.369 281.41 283.635 281.275 287.82C283.111 290.088 287.801 293.896 289.916 295.516ZM322.791 267.299L328.731 263.316C327.584 261.448 323.911 257.362 318.403 255.958C312.895 254.554 308.682 255.868 307.265 256.7L308.952 262.438C311.022 262.326 316.688 263.14 322.791 267.299Z" fill="url(#paint56_radial_1282_23331)"/>
<g opacity="0.4">
<mask id="mask7_1282_23331" style="mask-type:alpha" maskUnits="userSpaceOnUse" x="349" y="122" width="47" height="210">
<rect width="45.7294" height="208.634" transform="matrix(-1 0 0 1 395.137 122.659)" fill="url(#paint57_radial_1282_23331)"/>
</mask>
<g mask="url(#mask7_1282_23331)">
<rect opacity="0.5" width="22.0383" height="205.912" transform="matrix(-1 0 0 1 395.137 125.379)" fill="url(#paint58_linear_1282_23331)"/>
<rect opacity="0.5" x="349.406" y="125.379" width="22.0383" height="205.912" fill="url(#paint59_linear_1282_23331)"/>
</g>
</g>
<path d="M385.917 131.458C391.615 128.004 394.464 126.278 395.005 124.204C395.18 123.534 395.18 122.852 395.005 122.182C394.464 120.109 391.615 118.382 385.917 114.928C380.219 111.475 377.37 109.748 373.949 109.42C372.844 109.314 371.718 109.314 370.613 109.42C367.192 109.748 364.343 111.475 358.645 114.928C352.947 118.382 350.098 120.109 349.556 122.182C349.381 122.852 349.381 123.534 349.556 124.204C350.098 126.278 352.947 128.004 358.645 131.458C364.343 134.911 367.192 136.638 370.613 136.966C371.718 137.072 372.844 137.072 373.949 136.966C377.37 136.638 380.219 134.911 385.917 131.458Z" fill="url(#paint60_linear_1282_23331)"/>
<path d="M385.917 131.458C391.615 128.004 394.464 126.278 395.005 124.204C395.18 123.534 395.18 122.852 395.005 122.182C394.464 120.109 391.615 118.382 385.917 114.928C380.219 111.475 377.37 109.748 373.949 109.42C372.844 109.314 371.718 109.314 370.613 109.42C367.192 109.748 364.343 111.475 358.645 114.928C352.947 118.382 350.098 120.109 349.556 122.182C349.381 122.852 349.381 123.534 349.556 124.204C350.098 126.278 352.947 128.004 358.645 131.458C364.343 134.911 367.192 136.638 370.613 136.966C371.718 137.072 372.844 137.072 373.949 136.966C377.37 136.638 380.219 134.911 385.917 131.458Z" fill="white" fill-opacity="0.6"/>
<path d="M395.137 120.91H349.407V123.114H395.137V120.91Z" fill="url(#paint61_linear_1282_23331)"/>
<path d="M395.137 120.91H349.407V123.114H395.137V120.91Z" fill="white" fill-opacity="0.6"/>
<rect width="31.8901" height="31.8901" rx="8.81531" transform="matrix(-0.855186 -0.518321 -0.855186 0.518321 399.542 120.637)" fill="white"/>
<g opacity="0.21">
<g opacity="0.2" filter="url(#filter6_f_1282_23331)">
<ellipse cx="373.306" cy="119.679" rx="20.101" ry="12.391" fill="#0A0044"/>
</g>
<g opacity="0.45" filter="url(#filter7_f_1282_23331)">
<ellipse cx="373.305" cy="119.679" rx="14.4382" ry="8.90025" fill="#0A0044"/>
</g>
<g opacity="0.4" filter="url(#filter8_f_1282_23331)">
<ellipse cx="373.305" cy="119.679" rx="9.52849" ry="5.87373" fill="#0A0044"/>
</g>
</g>
<circle cx="372.902" cy="99.4467" r="18.7504" transform="rotate(14.8256 372.902 99.4467)" fill="url(#paint62_linear_1282_23331)"/>
<path fill-rule="evenodd" clip-rule="evenodd" d="M371.927 104.29C382.268 107.027 389.342 106.786 392.024 104.059C394.657 94.1122 388.408 83.8295 378.067 81.0922C367.726 78.355 357.208 84.1998 354.575 94.1469C354.93 94.8155 355.652 96.2985 355.652 96.2985C355.652 96.2985 356.106 96.4295 356.265 96.6121C356.826 95.2307 358.795 92.8045 362.186 94.1503C365.578 95.4961 366.105 100.249 365.945 102.457C367.693 103.087 369.675 103.694 371.927 104.29Z" fill="#260900"/>
<path fill-rule="evenodd" clip-rule="evenodd" d="M371.931 104.154C382.272 106.891 389.346 106.65 392.028 103.923C394.661 93.9762 388.412 83.6935 378.071 80.9562C367.73 78.219 357.212 84.0638 354.579 94.0109C355.045 94.887 355.599 95.7055 356.269 96.4761C356.829 95.0947 358.799 92.6686 362.19 94.0143C365.582 95.3601 366.109 100.113 365.949 102.321C367.697 102.951 369.679 103.558 371.931 104.154Z" fill="url(#paint63_radial_1282_23331)"/>
<path fill-rule="evenodd" clip-rule="evenodd" d="M371.931 104.154C382.272 106.891 389.346 106.65 392.028 103.923C394.661 93.9762 388.412 83.6935 378.071 80.9562C367.73 78.219 357.212 84.0638 354.579 94.0109C355.045 94.887 355.599 95.7055 356.269 96.4761C356.829 95.0947 358.799 92.6686 362.19 94.0143C365.582 95.3601 366.109 100.113 365.949 102.321C367.697 102.951 369.679 103.558 371.931 104.154Z" fill="url(#paint64_linear_1282_23331)"/>
<g opacity="0.3">
<path fill-rule="evenodd" clip-rule="evenodd" d="M361.406 84.0284C365.949 102.321 385.005 78.3262 391.209 92.276C388.975 86.9281 384.255 82.5931 378.071 80.9562C372.044 79.361 365.957 80.6806 361.406 84.0284Z" fill="url(#paint65_radial_1282_23331)"/>
<path fill-rule="evenodd" clip-rule="evenodd" d="M361.406 84.0284C365.949 102.321 385.005 78.3262 391.209 92.276C388.975 86.9281 384.255 82.5931 378.071 80.9562C372.044 79.361 365.957 80.6806 361.406 84.0284Z" fill="white" fill-opacity="0.6"/>
</g>
<path fill-rule="evenodd" clip-rule="evenodd" d="M368.171 117.686C381.057 121.097 388.605 111.502 390.768 106.279C389.498 107.521 386.479 110.363 371.181 106.313C368.998 105.735 367.093 105.146 365.434 104.556C364.685 106.422 362.149 109.427 357.991 106.514C356.38 105.385 354.791 100.326 355.79 99.0524C354.027 97.0082 354.521 95.4944 354.821 95.2108C354.498 95.1251 354.145 96.0671 354.009 96.5488C353.36 102.173 355.285 114.275 368.171 117.686Z" fill="url(#paint66_linear_1282_23331)"/>
<path fill-rule="evenodd" clip-rule="evenodd" d="M368.08 118.029C380.966 121.44 388.515 111.845 390.678 106.621C389.407 107.863 386.389 110.705 371.091 106.656C368.907 106.078 367.003 105.489 365.344 104.898C364.595 106.765 362.058 109.77 357.9 106.856C356.29 105.728 354.701 100.668 355.7 99.3952C353.937 97.351 354.43 95.8372 354.731 95.5535C354.407 95.4679 354.055 96.4098 353.919 96.8915C353.27 102.516 355.194 114.618 368.08 118.029Z" fill="url(#paint67_radial_1282_23331)"/>
<ellipse cx="360.449" cy="100.78" rx="2.26429" ry="2.98527" transform="rotate(-2.12353 360.449 100.78)" fill="#551A64"/>
<ellipse cx="360.278" cy="100.735" rx="2.26429" ry="2.98527" transform="rotate(-2.12353 360.278 100.735)" fill="#646464"/>
<ellipse cx="359.967" cy="100.754" rx="2.26429" ry="2.98527" transform="rotate(-2.12353 359.967 100.754)" fill="#E0E0E0"/>
<g opacity="0.4">
<mask id="mask8_1282_23331" style="mask-type:alpha" maskUnits="userSpaceOnUse" x="80" y="400" width="73" height="332">
<rect x="80.0959" y="400.409" width="72.5237" height="330.879" fill="url(#paint68_radial_1282_23331)"/>
</mask>
<g mask="url(#mask8_1282_23331)">
<rect opacity="0.5" x="80.0959" y="404.725" width="34.9512" height="326.563" fill="url(#paint69_linear_1282_23331)"/>
<rect opacity="0.1" width="34.9512" height="326.563" transform="matrix(-1 0 0 1 152.62 404.725)" fill="url(#paint70_linear_1282_23331)"/>
</g>
</g>
<path d="M94.6185 412.501C85.579 406.414 81.0592 403.37 80.1995 399.714C79.9218 398.534 79.9218 397.331 80.1995 396.151C81.0592 392.495 85.579 389.451 94.6185 383.364C103.658 377.276 108.178 374.232 113.606 373.653C115.359 373.466 117.145 373.466 118.898 373.653C124.326 374.232 128.846 377.276 137.885 383.364C146.925 389.451 151.445 392.495 152.304 396.151C152.582 397.331 152.582 398.534 152.304 399.714C151.445 403.37 146.925 406.414 137.885 412.501C128.846 418.589 124.326 421.633 118.898 422.211C117.145 422.398 115.359 422.398 113.606 422.211C108.178 421.633 103.658 418.589 94.6185 412.501Z" fill="url(#paint71_linear_1282_23331)"/>
<path d="M94.6185 412.501C85.579 406.414 81.0592 403.37 80.1995 399.714C79.9218 398.534 79.9218 397.331 80.1995 396.151C81.0592 392.495 85.579 389.451 94.6185 383.364C103.658 377.276 108.178 374.232 113.606 373.653C115.359 373.466 117.145 373.466 118.898 373.653C124.326 374.232 128.846 377.276 137.885 383.364C146.925 389.451 151.445 392.495 152.304 396.151C152.582 397.331 152.582 398.534 152.304 399.714C151.445 403.37 146.925 406.414 137.885 412.501C128.846 418.589 124.326 421.633 118.898 422.211C117.145 422.398 115.359 422.398 113.606 422.211C108.178 421.633 103.658 418.589 94.6185 412.501Z" fill="white" fill-opacity="0.6"/>
<path d="M79.9912 393.909H152.541V397.793H79.9912V393.909Z" fill="url(#paint72_linear_1282_23331)"/>
<path d="M79.9912 393.909H152.541V397.793H79.9912V393.909Z" fill="white" fill-opacity="0.6"/>
<rect width="52.8714" height="52.8714" rx="15.5394" transform="matrix(0.82945 -0.558581 0.82945 0.558581 72.415 393.425)" fill="white"/>
<path d="M358.446 127.347L356 126.429V171.167L358.446 172.085V127.347Z" fill="#C8C8C8"/>
<path d="M358.446 127.347L406.456 99.9174L404.01 99L356 126.43L358.446 127.347Z" fill="url(#paint73_linear_1282_23331)"/>
<path d="M358.446 127.347L406.456 99.9175V144.808L358.446 172.238V127.347Z" fill="#D9D9D9"/>
<path d="M360.587 128.968L404.315 103.893V143.952L360.587 169.027V128.968Z" fill="#7398C2"/>
<path fill-rule="evenodd" clip-rule="evenodd" d="M382.451 116.43L360.587 128.968V169.027L367.773 164.906L382.451 116.43Z" fill="#85B3E7"/>
<path d="M371.596 153.68V134.169L393.307 121.686V141.197L371.596 153.68Z" stroke="#F7FFFF" stroke-width="1.83476"/>
<path d="M383.98 146.551L380.005 143.952L384.439 141.352L388.261 143.952L383.98 146.551Z" fill="#CA4E65"/>
<path d="M383.98 146.551L383.827 151.29L388.261 148.691L388.261 143.951L383.98 146.551Z" fill="#CA4E65"/>
<path d="M383.98 146.551L380.005 143.951V148.233L383.827 150.832L383.98 146.551Z" fill="#A23B4E"/>
<path fill-rule="evenodd" clip-rule="evenodd" d="M395.753 160.464C403.691 160.464 410.125 156.563 410.125 151.749C410.125 146.936 403.691 143.034 395.753 143.034C387.816 143.034 381.381 146.936 381.381 151.749C381.381 156.563 387.816 160.464 395.753 160.464ZM395.753 159.853C403.184 159.853 409.208 156.225 409.208 151.749C409.208 147.274 403.184 143.646 395.753 143.646C388.322 143.646 382.298 147.274 382.298 151.749C382.298 156.225 388.322 159.853 395.753 159.853Z" fill="#EF743D"/>
<path fill-rule="evenodd" clip-rule="evenodd" d="M395.753 161.041C403.691 161.041 410.125 157.139 410.125 152.326C410.125 147.513 403.691 143.611 395.753 143.611C387.816 143.611 381.381 147.513 381.381 152.326C381.381 157.139 387.816 161.041 395.753 161.041ZM395.753 160.429C403.184 160.429 409.208 156.801 409.208 152.326C409.208 147.851 403.184 144.222 395.753 144.222C388.322 144.222 382.298 147.851 382.298 152.326C382.298 156.801 388.322 160.429 395.753 160.429Z" fill="#EF743D"/>
<path fill-rule="evenodd" clip-rule="evenodd" d="M395.753 161.617C403.691 161.617 410.125 157.716 410.125 152.902C410.125 148.089 403.691 144.187 395.753 144.187C387.816 144.187 381.381 148.089 381.381 152.902C381.381 157.716 387.816 161.617 395.753 161.617ZM395.753 161.006C403.184 161.006 409.208 157.378 409.208 152.902C409.208 148.427 403.184 144.799 395.753 144.799C388.322 144.799 382.298 148.427 382.298 152.902C382.298 157.378 388.322 161.006 395.753 161.006Z" fill="#EF743D"/>
<path fill-rule="evenodd" clip-rule="evenodd" d="M395.753 162.194C403.691 162.194 410.125 158.292 410.125 153.479C410.125 148.666 403.691 144.764 395.753 144.764C387.816 144.764 381.381 148.666 381.381 153.479C381.381 158.292 387.816 162.194 395.753 162.194ZM395.753 161.583C403.184 161.583 409.208 157.954 409.208 153.479C409.208 149.004 403.184 145.376 395.753 145.376C388.322 145.376 382.298 149.004 382.298 153.479C382.298 157.954 388.322 161.583 395.753 161.583Z" fill="#EF743D"/>
<path fill-rule="evenodd" clip-rule="evenodd" d="M395.753 162.771C403.691 162.771 410.125 158.869 410.125 154.056C410.125 149.242 403.691 145.341 395.753 145.341C387.816 145.341 381.381 149.242 381.381 154.056C381.381 158.869 387.816 162.771 395.753 162.771ZM395.753 162.159C403.184 162.159 409.208 158.531 409.208 154.056C409.208 149.58 403.184 145.952 395.753 145.952C388.322 145.952 382.298 149.58 382.298 154.056C382.298 158.531 388.322 162.159 395.753 162.159Z" fill="#EF743D"/>
<path fill-rule="evenodd" clip-rule="evenodd" d="M395.753 159.853C403.691 159.853 410.125 155.951 410.125 151.138C410.125 146.324 403.691 142.423 395.753 142.423C387.816 142.423 381.381 146.324 381.381 151.138C381.381 155.951 387.816 159.853 395.753 159.853ZM395.753 159.241C403.184 159.241 409.208 155.613 409.208 151.138C409.208 146.662 403.184 143.034 395.753 143.034C388.322 143.034 382.298 146.662 382.298 151.138C382.298 155.613 388.322 159.241 395.753 159.241Z" fill="#EFA84E"/>
<g opacity="0.2" filter="url(#filter9_f_1282_23331)">
<path d="M109.821 232.487C125.671 222.88 133.596 218.077 135.103 212.308C135.59 210.445 135.59 208.547 135.103 206.684C133.596 200.916 125.671 196.112 109.821 186.506C93.9704 176.899 86.0452 172.096 76.5275 171.182C73.4536 170.887 70.3223 170.887 67.2485 171.182C57.7307 172.096 49.8056 176.899 33.9554 186.506C18.1052 196.112 10.1801 200.916 8.6726 206.684C8.18575 208.547 8.18575 210.445 8.6726 212.308C10.1801 218.077 18.1052 222.88 33.9554 232.487C49.8056 242.094 57.7307 246.897 67.2485 247.811C70.3223 248.106 73.4536 248.106 76.5275 247.811C86.0452 246.897 93.9704 242.094 109.821 232.487Z" fill="#3707AB"/>
<path d="M135.469 203.146H8.25848V209.277H135.469V203.146Z" fill="#3707AB"/>
</g>
<path d="M115.821 207.487C131.671 197.88 139.596 193.077 141.103 187.308C141.59 185.445 141.59 183.547 141.103 181.684C139.596 175.916 131.671 171.112 115.821 161.506C99.9704 151.899 92.0452 147.096 82.5275 146.182C79.4536 145.887 76.3223 145.887 73.2485 146.182C63.7307 147.096 55.8056 151.899 39.9554 161.506C24.1052 171.112 16.1801 175.916 14.6726 181.684C14.1858 183.547 14.1858 185.445 14.6726 187.308C16.1801 193.077 24.1052 197.88 39.9554 207.487C55.8056 217.094 63.7307 221.897 73.2485 222.811C76.3223 223.106 79.4536 223.106 82.5275 222.811C92.0452 221.897 99.9704 217.094 115.821 207.487Z" fill="url(#paint74_linear_1282_23331)"/>
<path d="M115.821 207.487C131.671 197.88 139.596 193.077 141.103 187.308C141.59 185.445 141.59 183.547 141.103 181.684C139.596 175.916 131.671 171.112 115.821 161.506C99.9704 151.899 92.0452 147.096 82.5275 146.182C79.4536 145.887 76.3223 145.887 73.2485 146.182C63.7307 147.096 55.8056 151.899 39.9554 161.506C24.1052 171.112 16.1801 175.916 14.6726 181.684C14.1858 183.547 14.1858 185.445 14.6726 187.308C16.1801 193.077 24.1052 197.88 39.9554 207.487C55.8056 217.094 63.7307 221.897 73.2485 222.811C76.3223 223.106 79.4536 223.106 82.5275 222.811C92.0452 221.897 99.9704 217.094 115.821 207.487Z" fill="white" fill-opacity="0.6"/>
<path d="M141.469 178.146H14.2585V184.277H141.469V178.146Z" fill="url(#paint75_linear_1282_23331)"/>
<path d="M141.469 178.146H14.2585V184.277H141.469V178.146Z" fill="white" fill-opacity="0.6"/>
<rect width="88.7119" height="88.7119" rx="24.5224" transform="matrix(-0.855186 -0.518321 -0.855186 0.518321 153.721 177.384)" fill="white"/>
<g opacity="0.5" filter="url(#filter10_f_1282_23331)">
<ellipse cx="83.1665" cy="183.122" rx="29.2" ry="14.6" fill="url(#paint76_radial_1282_23331)"/>
</g>
<circle cx="85.1665" cy="152.622" r="36.5" fill="url(#paint77_radial_1282_23331)"/>
<g filter="url(#filter11_f_1282_23331)">
<path fill-rule="evenodd" clip-rule="evenodd" d="M48.8848 148.609C59.1505 142.553 65.6888 139.39 73.2257 138.667C76.2995 138.372 79.4309 138.372 82.5047 138.667C92.0225 139.581 99.9476 144.384 115.798 153.991C117.774 155.189 119.627 156.312 121.36 157.371C119.033 175.286 103.715 189.122 85.1666 189.122C65.0082 189.122 48.6666 172.781 48.6666 152.622C48.6666 151.266 48.7406 149.927 48.8848 148.609Z" fill="#ACFFC9"/>
<path fill-rule="evenodd" clip-rule="evenodd" d="M48.8848 148.609C48.7406 149.927 48.6666 151.266 48.6666 152.622C48.6666 172.781 65.0082 189.122 85.1666 189.122C103.715 189.122 119.033 175.286 121.36 157.371C119.627 156.312 117.774 155.189 115.798 153.991C99.9476 144.384 92.0225 139.581 82.5047 138.667C79.4309 138.372 76.2995 138.372 73.2257 138.667C65.6888 139.39 59.1505 142.553 48.8848 148.609Z" fill="#ACFFC9"/>
</g>
<path opacity="0.4" fill-rule="evenodd" clip-rule="evenodd" d="M85.1665 116.122C65.0081 116.122 48.6665 132.464 48.6665 152.622C52.1665 169.122 79.1665 168.622 88.1665 146.622C95.3665 129.022 110.147 130.956 116.638 134.122C110.292 123.35 98.5732 116.122 85.1665 116.122Z" fill="url(#paint78_radial_1282_23331)"/>
<g opacity="0.3" filter="url(#filter12_f_1282_23331)">
<ellipse cx="115.052" cy="393.699" rx="18.118" ry="9.05899" fill="url(#paint79_radial_1282_23331)"/>
</g>
<circle cx="115.647" cy="371.647" r="22.6475" fill="url(#paint80_radial_1282_23331)"/>
<defs>
<filter id="filter0_f_1282_23331" x="251.56" y="287.614" width="173.44" height="112.008" filterUnits="userSpaceOnUse" color-interpolation-filters="sRGB">
<feFlood flood-opacity="0" result="BackgroundImageFix"/>
<feBlend mode="normal" in="SourceGraphic" in2="BackgroundImageFix" result="shape"/>
<feGaussianBlur stdDeviation="2.5" result="effect1_foregroundBlur_1282_23331"/>
</filter>
<filter id="filter1_f_1282_23331" x="126" y="105.288" width="32" height="20" filterUnits="userSpaceOnUse" color-interpolation-filters="sRGB">
<feFlood flood-opacity="0" result="BackgroundImageFix"/>
<feBlend mode="normal" in="SourceGraphic" in2="BackgroundImageFix" result="shape"/>
<feGaussianBlur stdDeviation="2" result="effect1_foregroundBlur_1282_23331"/>
</filter>
<filter id="filter2_f_1282_23331" x="126" y="105.288" width="32" height="20" filterUnits="userSpaceOnUse" color-interpolation-filters="sRGB">
<feFlood flood-opacity="0" result="BackgroundImageFix"/>
<feBlend mode="normal" in="SourceGraphic" in2="BackgroundImageFix" result="shape"/>
<feGaussianBlur stdDeviation="2" result="effect1_foregroundBlur_1282_23331"/>
</filter>
<filter id="filter3_f_1282_23331" x="112.884" y="151.695" width="246.995" height="167.74" filterUnits="userSpaceOnUse" color-interpolation-filters="sRGB">
<feFlood flood-opacity="0" result="BackgroundImageFix"/>
<feBlend mode="normal" in="SourceGraphic" in2="BackgroundImageFix" result="shape"/>
<feGaussianBlur stdDeviation="11.5" result="effect1_foregroundBlur_1282_23331"/>
</filter>
<filter id="filter4_f_1282_23331" x="167.494" y="142.08" width="139.477" height="86.0979" filterUnits="userSpaceOnUse" color-interpolation-filters="sRGB">
<feFlood flood-opacity="0" result="BackgroundImageFix"/>
<feBlend mode="normal" in="SourceGraphic" in2="BackgroundImageFix" result="shape"/>
<feGaussianBlur stdDeviation="1" result="effect1_foregroundBlur_1282_23331"/>
</filter>
<filter id="filter5_f_1282_23331" x="272.142" y="309.217" width="77.7174" height="50.7174" filterUnits="userSpaceOnUse" color-interpolation-filters="sRGB">
<feFlood flood-opacity="0" result="BackgroundImageFix"/>
<feBlend mode="normal" in="SourceGraphic" in2="BackgroundImageFix" result="shape"/>
<feGaussianBlur stdDeviation="2.92935" result="effect1_foregroundBlur_1282_23331"/>
</filter>
<filter id="filter6_f_1282_23331" x="348.248" y="102.331" width="50.115" height="34.6948" filterUnits="userSpaceOnUse" color-interpolation-filters="sRGB">
<feFlood flood-opacity="0" result="BackgroundImageFix"/>
<feBlend mode="normal" in="SourceGraphic" in2="BackgroundImageFix" result="shape"/>
<feGaussianBlur stdDeviation="2.47821" result="effect1_foregroundBlur_1282_23331"/>
</filter>
<filter id="filter7_f_1282_23331" x="355.307" y="107.218" width="35.9967" height="24.9207" filterUnits="userSpaceOnUse" color-interpolation-filters="sRGB">
<feFlood flood-opacity="0" result="BackgroundImageFix"/>
<feBlend mode="normal" in="SourceGraphic" in2="BackgroundImageFix" result="shape"/>
<feGaussianBlur stdDeviation="1.78005" result="effect1_foregroundBlur_1282_23331"/>
</filter>
<filter id="filter8_f_1282_23331" x="361.427" y="111.455" width="23.7561" height="16.4465" filterUnits="userSpaceOnUse" color-interpolation-filters="sRGB">
<feFlood flood-opacity="0" result="BackgroundImageFix"/>
<feBlend mode="normal" in="SourceGraphic" in2="BackgroundImageFix" result="shape"/>
<feGaussianBlur stdDeviation="1.17475" result="effect1_foregroundBlur_1282_23331"/>
</filter>
<filter id="filter9_f_1282_23331" x="0.258545" y="162.961" width="143.21" height="93.0713" filterUnits="userSpaceOnUse" color-interpolation-filters="sRGB">
<feFlood flood-opacity="0" result="BackgroundImageFix"/>
<feBlend mode="normal" in="SourceGraphic" in2="BackgroundImageFix" result="shape"/>
<feGaussianBlur stdDeviation="4" result="effect1_foregroundBlur_1282_23331"/>
</filter>
<filter id="filter10_f_1282_23331" x="45.9666" y="160.522" width="74.3999" height="45.2" filterUnits="userSpaceOnUse" color-interpolation-filters="sRGB">
<feFlood flood-opacity="0" result="BackgroundImageFix"/>
<feBlend mode="normal" in="SourceGraphic" in2="BackgroundImageFix" result="shape"/>
<feGaussianBlur stdDeviation="4" result="effect1_foregroundBlur_1282_23331"/>
</filter>
<filter id="filter11_f_1282_23331" x="46.6665" y="136.446" width="76.6938" height="54.6768" filterUnits="userSpaceOnUse" color-interpolation-filters="sRGB">
<feFlood flood-opacity="0" result="BackgroundImageFix"/>
<feBlend mode="normal" in="SourceGraphic" in2="BackgroundImageFix" result="shape"/>
<feGaussianBlur stdDeviation="1" result="effect1_foregroundBlur_1282_23331"/>
</filter>
<filter id="filter12_f_1282_23331" x="94.5499" y="382.256" width="41.0037" height="22.8858" filterUnits="userSpaceOnUse" color-interpolation-filters="sRGB">
<feFlood flood-opacity="0" result="BackgroundImageFix"/>
<feBlend mode="normal" in="SourceGraphic" in2="BackgroundImageFix" result="shape"/>
<feGaussianBlur stdDeviation="1.19197" result="effect1_foregroundBlur_1282_23331"/>
</filter>
<radialGradient id="paint0_radial_1282_23331" cx="0" cy="0" r="1" gradientUnits="userSpaceOnUse" gradientTransform="translate(15.9318) rotate(90.0757) scale(143.642 75.6806)">
<stop stop-opacity="0"/>
<stop offset="0.221563"/>
<stop offset="1" stop-opacity="0"/>
</radialGradient>
<linearGradient id="paint1_linear_1282_23331" x1="15.1731" y1="39.6578" x2="-9.56921e-07" y2="39.6578" gradientUnits="userSpaceOnUse">
<stop stop-color="white" stop-opacity="0"/>
<stop offset="1" stop-color="white"/>
</linearGradient>
<linearGradient id="paint2_linear_1282_23331" x1="141.207" y1="158.591" x2="126.034" y2="158.591" gradientUnits="userSpaceOnUse">
<stop stop-color="white" stop-opacity="0"/>
<stop offset="1" stop-color="white"/>
</linearGradient>
<linearGradient id="paint3_linear_1282_23331" x1="157.519" y1="117.374" x2="126.034" y2="117.374" gradientUnits="userSpaceOnUse">
<stop stop-color="#E3E3E3"/>
<stop offset="0.21988" stop-color="#99C2FF"/>
<stop offset="0.512048" stop-color="#F48DA5"/>
<stop offset="0.75" stop-color="#A699DC"/>
<stop offset="1" stop-color="#E3E3E3"/>
</linearGradient>
<linearGradient id="paint4_linear_1282_23331" x1="157.519" y1="117.374" x2="126.034" y2="117.374" gradientUnits="userSpaceOnUse">
<stop stop-color="#E3E3E3"/>
<stop offset="0.21988" stop-color="#99C2FF"/>
<stop offset="0.512048" stop-color="#F48DA5"/>
<stop offset="0.75" stop-color="#A699DC"/>
<stop offset="1" stop-color="#E3E3E3"/>
</linearGradient>
<radialGradient id="paint5_radial_1282_23331" cx="0" cy="0" r="1" gradientUnits="userSpaceOnUse" gradientTransform="translate(6.71241) rotate(90.0757) scale(60.5197 31.8858)">
<stop stop-opacity="0"/>
<stop offset="0.221563"/>
<stop offset="1" stop-opacity="0"/>
</radialGradient>
<linearGradient id="paint6_linear_1282_23331" x1="6.39278" y1="16.7087" x2="-4.03171e-07" y2="16.7087" gradientUnits="userSpaceOnUse">
<stop stop-color="white" stop-opacity="0"/>
<stop offset="1" stop-color="white"/>
</linearGradient>
<linearGradient id="paint7_linear_1282_23331" x1="350.671" y1="449.166" x2="344.279" y2="449.166" gradientUnits="userSpaceOnUse">
<stop stop-color="white" stop-opacity="0"/>
<stop offset="1" stop-color="white"/>
</linearGradient>
<linearGradient id="paint8_linear_1282_23331" x1="357.543" y1="431.801" x2="344.278" y2="431.801" gradientUnits="userSpaceOnUse">
<stop stop-color="#E3E3E3"/>
<stop offset="0.21988" stop-color="#99C2FF"/>
<stop offset="0.512048" stop-color="#F48DA5"/>
<stop offset="0.75" stop-color="#A699DC"/>
<stop offset="1" stop-color="#E3E3E3"/>
</linearGradient>
<linearGradient id="paint9_linear_1282_23331" x1="357.543" y1="431.801" x2="344.278" y2="431.801" gradientUnits="userSpaceOnUse">
<stop stop-color="#E3E3E3"/>
<stop offset="0.21988" stop-color="#99C2FF"/>
<stop offset="0.512048" stop-color="#F48DA5"/>
<stop offset="0.75" stop-color="#A699DC"/>
<stop offset="1" stop-color="#E3E3E3"/>
</linearGradient>
<radialGradient id="paint10_radial_1282_23331" cx="0" cy="0" r="1" gradientUnits="userSpaceOnUse" gradientTransform="translate(6.71241) rotate(90.0757) scale(60.5197 31.8858)">
<stop stop-opacity="0"/>
<stop offset="0.221563"/>
<stop offset="1" stop-opacity="0"/>
</radialGradient>
<linearGradient id="paint11_linear_1282_23331" x1="6.39278" y1="16.7087" x2="-4.03171e-07" y2="16.7087" gradientUnits="userSpaceOnUse">
<stop stop-color="white" stop-opacity="0"/>
<stop offset="1" stop-color="white"/>
</linearGradient>
<linearGradient id="paint12_linear_1282_23331" x1="315.671" y1="74.166" x2="309.279" y2="74.166" gradientUnits="userSpaceOnUse">
<stop stop-color="white" stop-opacity="0"/>
<stop offset="1" stop-color="white"/>
</linearGradient>
<linearGradient id="paint13_linear_1282_23331" x1="322.543" y1="56.8009" x2="309.278" y2="56.8009" gradientUnits="userSpaceOnUse">
<stop stop-color="#E3E3E3"/>
<stop offset="0.21988" stop-color="#99C2FF"/>
<stop offset="0.512048" stop-color="#F48DA5"/>
<stop offset="0.75" stop-color="#A699DC"/>
<stop offset="1" stop-color="#E3E3E3"/>
</linearGradient>
<linearGradient id="paint14_linear_1282_23331" x1="322.543" y1="56.8009" x2="309.278" y2="56.8009" gradientUnits="userSpaceOnUse">
<stop stop-color="#E3E3E3"/>
<stop offset="0.21988" stop-color="#99C2FF"/>
<stop offset="0.512048" stop-color="#F48DA5"/>
<stop offset="0.75" stop-color="#A699DC"/>
<stop offset="1" stop-color="#E3E3E3"/>
</linearGradient>
<radialGradient id="paint15_radial_1282_23331" cx="0" cy="0" r="1" gradientUnits="userSpaceOnUse" gradientTransform="translate(352.279 358.313) rotate(90.0757) scale(863.432 454.914)">
<stop stop-opacity="0"/>
<stop offset="0.221563"/>
<stop offset="1" stop-opacity="0"/>
</radialGradient>
<linearGradient id="paint16_linear_1282_23331" x1="347.72" y1="607.948" x2="256.514" y2="607.948" gradientUnits="userSpaceOnUse">
<stop stop-color="white" stop-opacity="0"/>
<stop offset="1" stop-color="white"/>
</linearGradient>
<linearGradient id="paint17_linear_1282_23331" x1="91" y1="241.412" x2="-5.73907e-06" y2="241.412" gradientUnits="userSpaceOnUse">
<stop stop-color="white" stop-opacity="0"/>
<stop offset="1" stop-color="white"/>
</linearGradient>
<linearGradient id="paint18_linear_1282_23331" x1="256.512" y1="360.198" x2="445.763" y2="360.198" gradientUnits="userSpaceOnUse">
<stop stop-color="#E3E3E3"/>
<stop offset="0.21988" stop-color="#99C2FF"/>
<stop offset="0.512048" stop-color="#F48DA5"/>
<stop offset="0.75" stop-color="#A699DC"/>
<stop offset="1" stop-color="#E3E3E3"/>
</linearGradient>
<linearGradient id="paint19_linear_1282_23331" x1="256.512" y1="360.198" x2="445.763" y2="360.198" gradientUnits="userSpaceOnUse">
<stop stop-color="#E3E3E3"/>
<stop offset="0.21988" stop-color="#99C2FF"/>
<stop offset="0.512048" stop-color="#F48DA5"/>
<stop offset="0.75" stop-color="#A699DC"/>
<stop offset="1" stop-color="#E3E3E3"/>
</linearGradient>
<radialGradient id="paint20_radial_1282_23331" cx="0" cy="0" r="1" gradientUnits="userSpaceOnUse" gradientTransform="translate(30.5183 301.739) rotate(90.0757) scale(117.526 61.9205)">
<stop stop-opacity="0"/>
<stop offset="0.221563"/>
<stop offset="1" stop-opacity="0"/>
</radialGradient>
<linearGradient id="paint21_linear_1282_23331" x1="29.8976" y1="335.718" x2="17.4832" y2="335.718" gradientUnits="userSpaceOnUse">
<stop stop-color="white" stop-opacity="0"/>
<stop offset="1" stop-color="white"/>
</linearGradient>
<linearGradient id="paint22_linear_1282_23331" x1="12.4144" y1="32.4473" x2="-7.82937e-07" y2="32.4473" gradientUnits="userSpaceOnUse">
<stop stop-color="white" stop-opacity="0"/>
<stop offset="1" stop-color="white"/>
</linearGradient>
<linearGradient id="paint23_linear_1282_23331" x1="17.4829" y1="301.995" x2="43.2428" y2="301.995" gradientUnits="userSpaceOnUse">
<stop stop-color="#E3E3E3"/>
<stop offset="0.21988" stop-color="#99C2FF"/>
<stop offset="0.512048" stop-color="#F48DA5"/>
<stop offset="0.75" stop-color="#A699DC"/>
<stop offset="1" stop-color="#E3E3E3"/>
</linearGradient>
<linearGradient id="paint24_linear_1282_23331" x1="17.4829" y1="301.995" x2="43.2428" y2="301.995" gradientUnits="userSpaceOnUse">
<stop stop-color="#E3E3E3"/>
<stop offset="0.21988" stop-color="#99C2FF"/>
<stop offset="0.512048" stop-color="#F48DA5"/>
<stop offset="0.75" stop-color="#A699DC"/>
<stop offset="1" stop-color="#E3E3E3"/>
</linearGradient>
<radialGradient id="paint25_radial_1282_23331" cx="0" cy="0" r="1" gradientUnits="userSpaceOnUse" gradientTransform="translate(143.5 113.788) rotate(101.31) scale(7.64853 42.6126)">
<stop stop-color="white"/>
<stop offset="1" stop-color="#FFEA35"/>
</radialGradient>
<radialGradient id="paint26_radial_1282_23331" cx="0" cy="0" r="1" gradientUnits="userSpaceOnUse" gradientTransform="translate(137 93.2878) rotate(65.556) scale(24.1661 17.6404)">
<stop stop-color="#FFF3D5"/>
<stop offset="0.701245" stop-color="#F9E000"/>
<stop offset="0.933192" stop-color="#FFBA07"/>
<stop offset="0.996209" stop-color="#FFCE4F"/>
</radialGradient>
<radialGradient id="paint27_radial_1282_23331" cx="0" cy="0" r="1" gradientUnits="userSpaceOnUse" gradientTransform="translate(143.5 113.788) rotate(101.31) scale(7.64853 42.6126)">
<stop stop-color="white"/>
<stop offset="1" stop-color="#FFEA35"/>
</radialGradient>
<radialGradient id="paint28_radial_1282_23331" cx="0" cy="0" r="1" gradientUnits="userSpaceOnUse" gradientTransform="translate(137 93.2878) rotate(65.556) scale(24.1661 17.6404)">
<stop stop-color="#FFF3D5"/>
<stop offset="0.701245" stop-color="#F9E000"/>
<stop offset="0.933192" stop-color="#FFBA07"/>
<stop offset="0.996209" stop-color="#FFCE4F"/>
</radialGradient>
<radialGradient id="paint29_radial_1282_23331" cx="0" cy="0" r="1" gradientUnits="userSpaceOnUse" gradientTransform="translate(244.601 259.46) rotate(90.0757) scale(1682.21 886.301)">
<stop stop-opacity="0"/>
<stop offset="0.221563"/>
<stop offset="1" stop-opacity="0"/>
</radialGradient>
<linearGradient id="paint30_linear_1282_23331" x1="235.717" y1="745.837" x2="58.0227" y2="745.837" gradientUnits="userSpaceOnUse">
<stop stop-color="white" stop-opacity="0"/>
<stop offset="1" stop-color="white"/>
</linearGradient>
<linearGradient id="paint31_linear_1282_23331" x1="177.694" y1="464.435" x2="-1.12066e-05" y2="464.435" gradientUnits="userSpaceOnUse">
<stop stop-color="white" stop-opacity="0"/>
<stop offset="1" stop-color="white"/>
</linearGradient>
<linearGradient id="paint32_linear_1282_23331" x1="58.0227" y1="276.543" x2="426.738" y2="276.543" gradientUnits="userSpaceOnUse">
<stop stop-color="#E3E3E3"/>
<stop offset="0.21988" stop-color="#99C2FF"/>
<stop offset="0.512048" stop-color="#F48DA5"/>
<stop offset="0.75" stop-color="#A699DC"/>
<stop offset="1" stop-color="#E3E3E3"/>
</linearGradient>
<linearGradient id="paint33_linear_1282_23331" x1="58.0227" y1="276.543" x2="426.738" y2="276.543" gradientUnits="userSpaceOnUse">
<stop stop-color="#E3E3E3"/>
<stop offset="0.21988" stop-color="#99C2FF"/>
<stop offset="0.512048" stop-color="#F48DA5"/>
<stop offset="0.75" stop-color="#A699DC"/>
<stop offset="1" stop-color="#E3E3E3"/>
</linearGradient>
<linearGradient id="paint34_linear_1282_23331" x1="113.865" y1="264.123" x2="314.386" y2="136.876" gradientUnits="userSpaceOnUse">
<stop stop-color="#BAACF4"/>
<stop offset="0.333184" stop-color="#462EA4"/>
</linearGradient>
<linearGradient id="paint35_linear_1282_23331" x1="113.866" y1="230.702" x2="314.387" y2="103.454" gradientUnits="userSpaceOnUse">
<stop stop-color="#BAACF4"/>
<stop offset="0.333184" stop-color="#462EA4"/>
</linearGradient>
<radialGradient id="paint36_radial_1282_23331" cx="0" cy="0" r="1" gradientUnits="userSpaceOnUse" gradientTransform="translate(343.5 163.788) rotate(161.646) scale(223.889 446.532)">
<stop stop-color="#8D74EC"/>
<stop offset="0.492338" stop-color="#6F55D6"/>
<stop offset="1" stop-color="#FAF9FF"/>
</radialGradient>
<linearGradient id="paint37_linear_1282_23331" x1="114" y1="216.101" x2="314.521" y2="88.8533" gradientUnits="userSpaceOnUse">
<stop stop-color="#A699DC"/>
<stop offset="1" stop-color="#644CC1"/>
</linearGradient>
<linearGradient id="paint38_linear_1282_23331" x1="114" y1="216.101" x2="314.521" y2="88.8533" gradientUnits="userSpaceOnUse">
<stop stop-color="#C7BAFF"/>
<stop offset="1" stop-color="#644CC1"/>
</linearGradient>
<linearGradient id="paint39_linear_1282_23331" x1="284" y1="152.288" x2="309" y2="155.788" gradientUnits="userSpaceOnUse">
<stop stop-color="#8D1F1F"/>
<stop offset="0.225064" stop-color="#C33E3E"/>
<stop offset="0.587534" stop-color="#8D1F1F"/>
</linearGradient>
<radialGradient id="paint40_radial_1282_23331" cx="0" cy="0" r="1" gradientUnits="userSpaceOnUse" gradientTransform="translate(278.5 157.519) rotate(154.654) scale(10.5119 11.7812)">
<stop offset="0.265212" stop-color="#EABEFF"/>
<stop offset="0.853788" stop-color="#C659FB"/>
</radialGradient>
<radialGradient id="paint41_radial_1282_23331" cx="0" cy="0" r="1" gradientUnits="userSpaceOnUse" gradientTransform="translate(260.552 145.233) scale(20.611 23.0997)">
<stop offset="0.265212" stop-color="#38B781"/>
<stop offset="0.853788" stop-color="#96FFD9"/>
</radialGradient>
<radialGradient id="paint42_radial_1282_23331" cx="0" cy="0" r="1" gradientUnits="userSpaceOnUse" gradientTransform="translate(303.63 157.519) rotate(154.654) scale(10.5119 11.7812)">
<stop offset="0.265212" stop-color="#A2C7FF"/>
<stop offset="0.853788" stop-color="#70A9FF"/>
</radialGradient>
<radialGradient id="paint43_radial_1282_23331" cx="0" cy="0" r="1" gradientUnits="userSpaceOnUse" gradientTransform="translate(303.629 142.288) rotate(154.654) scale(10.5119 11.7812)">
<stop offset="0.265212" stop-color="#FFA6A6"/>
<stop offset="0.853788" stop-color="#DF5A5A"/>
</radialGradient>
<linearGradient id="paint44_linear_1282_23331" x1="228" y1="192.288" x2="238" y2="192.288" gradientUnits="userSpaceOnUse">
<stop stop-color="#D5CAFF"/>
<stop offset="1" stop-color="white"/>
</linearGradient>
<linearGradient id="paint45_linear_1282_23331" x1="246.848" y1="180.864" x2="256.848" y2="180.864" gradientUnits="userSpaceOnUse">
<stop stop-color="#D5CAFF"/>
<stop offset="1" stop-color="white"/>
</linearGradient>
<linearGradient id="paint46_linear_1282_23331" x1="311" y1="315.075" x2="311" y2="354.075" gradientUnits="userSpaceOnUse">
<stop stop-color="#BBB1DF" stop-opacity="0"/>
<stop offset="1" stop-color="#BBB1DF"/>
</linearGradient>
<radialGradient id="paint47_radial_1282_23331" cx="0" cy="0" r="1" gradientUnits="userSpaceOnUse" gradientTransform="translate(309.373 271.889) rotate(78.052) scale(57.063 63.9077)">
<stop stop-color="white"/>
<stop offset="0.745164" stop-color="#D8D8D8"/>
<stop offset="0.856282" stop-color="#A2A2A2"/>
<stop offset="1" stop-color="#A2A2A2"/>
</radialGradient>
<radialGradient id="paint48_radial_1282_23331" cx="0" cy="0" r="1" gradientUnits="userSpaceOnUse" gradientTransform="translate(307.483 278.032) rotate(87.4687) scale(45.6781 46.5532)">
<stop stop-color="#9B9B9B"/>
<stop offset="0.665293" stop-color="#121212"/>
</radialGradient>
<radialGradient id="paint49_radial_1282_23331" cx="0" cy="0" r="1" gradientUnits="userSpaceOnUse" gradientTransform="translate(307.483 278.032) rotate(87.4687) scale(45.6781 46.5532)">
<stop stop-color="#9B9B9B"/>
<stop offset="0.665293" stop-color="#121212"/>
</radialGradient>
<radialGradient id="paint50_radial_1282_23331" cx="0" cy="0" r="1" gradientUnits="userSpaceOnUse" gradientTransform="translate(307.483 278.032) rotate(87.4687) scale(45.6781 46.5532)">
<stop stop-color="#9B9B9B"/>
<stop offset="0.665293" stop-color="#121212"/>
</radialGradient>
<radialGradient id="paint51_radial_1282_23331" cx="0" cy="0" r="1" gradientUnits="userSpaceOnUse" gradientTransform="translate(307.483 278.032) rotate(87.4687) scale(45.6781 46.5532)">
<stop stop-color="#9B9B9B"/>
<stop offset="0.665293" stop-color="#121212"/>
</radialGradient>
<radialGradient id="paint52_radial_1282_23331" cx="0" cy="0" r="1" gradientUnits="userSpaceOnUse" gradientTransform="translate(307.483 278.032) rotate(87.4687) scale(45.6781 46.5532)">
<stop stop-color="#9B9B9B"/>
<stop offset="0.665293" stop-color="#121212"/>
</radialGradient>
<radialGradient id="paint53_radial_1282_23331" cx="0" cy="0" r="1" gradientUnits="userSpaceOnUse" gradientTransform="translate(307.483 278.032) rotate(87.4687) scale(45.6781 46.5532)">
<stop stop-color="#9B9B9B"/>
<stop offset="0.665293" stop-color="#121212"/>
</radialGradient>
<radialGradient id="paint54_radial_1282_23331" cx="0" cy="0" r="1" gradientUnits="userSpaceOnUse" gradientTransform="translate(307.483 278.032) rotate(87.4687) scale(45.6781 46.5532)">
<stop stop-color="#9B9B9B"/>
<stop offset="0.665293" stop-color="#121212"/>
</radialGradient>
<radialGradient id="paint55_radial_1282_23331" cx="0" cy="0" r="1" gradientUnits="userSpaceOnUse" gradientTransform="translate(307.483 278.032) rotate(87.4687) scale(45.6781 46.5532)">
<stop stop-color="#9B9B9B"/>
<stop offset="0.665293" stop-color="#121212"/>
</radialGradient>
<radialGradient id="paint56_radial_1282_23331" cx="0" cy="0" r="1" gradientUnits="userSpaceOnUse" gradientTransform="translate(307.483 278.032) rotate(87.4687) scale(45.6781 46.5532)">
<stop stop-color="#9B9B9B"/>
<stop offset="0.665293" stop-color="#121212"/>
</radialGradient>
<radialGradient id="paint57_radial_1282_23331" cx="0" cy="0" r="1" gradientUnits="userSpaceOnUse" gradientTransform="translate(23.1402 1.37994e-06) rotate(90.0757) scale(208.634 109.922)">
<stop stop-opacity="0"/>
<stop offset="0.221563"/>
<stop offset="1" stop-opacity="0"/>
</radialGradient>
<linearGradient id="paint58_linear_1282_23331" x1="22.0383" y1="57.6011" x2="-1.38988e-06" y2="57.6011" gradientUnits="userSpaceOnUse">
<stop stop-color="white" stop-opacity="0"/>
<stop offset="1" stop-color="white"/>
</linearGradient>
<linearGradient id="paint59_linear_1282_23331" x1="371.445" y1="182.98" x2="349.406" y2="182.98" gradientUnits="userSpaceOnUse">
<stop stop-color="white" stop-opacity="0"/>
<stop offset="1" stop-color="white"/>
</linearGradient>
<linearGradient id="paint60_linear_1282_23331" x1="395.137" y1="123.114" x2="349.407" y2="123.114" gradientUnits="userSpaceOnUse">
<stop stop-color="#E3E3E3"/>
<stop offset="0.21988" stop-color="#99C2FF"/>
<stop offset="0.512048" stop-color="#F48DA5"/>
<stop offset="0.75" stop-color="#A699DC"/>
<stop offset="1" stop-color="#E3E3E3"/>
</linearGradient>
<linearGradient id="paint61_linear_1282_23331" x1="395.137" y1="123.114" x2="349.407" y2="123.114" gradientUnits="userSpaceOnUse">
<stop stop-color="#E3E3E3"/>
<stop offset="0.21988" stop-color="#99C2FF"/>
<stop offset="0.512048" stop-color="#F48DA5"/>
<stop offset="0.75" stop-color="#A699DC"/>
<stop offset="1" stop-color="#E3E3E3"/>
</linearGradient>
<linearGradient id="paint62_linear_1282_23331" x1="349.626" y1="100.863" x2="394.64" y2="102.311" gradientUnits="userSpaceOnUse">
<stop stop-color="#040404"/>
<stop offset="0.23396" stop-color="#353535"/>
<stop offset="1" stop-color="#1A1A1A"/>
</linearGradient>
<radialGradient id="paint63_radial_1282_23331" cx="0" cy="0" r="1" gradientUnits="userSpaceOnUse" gradientTransform="translate(374.841 86.0755) rotate(97.5946) scale(11.7288 13.5363)">
<stop stop-color="#FF88AC"/>
<stop offset="1" stop-color="#FF3B75"/>
</radialGradient>
<linearGradient id="paint64_linear_1282_23331" x1="353.544" y1="89.5" x2="394.544" y2="102" gradientUnits="userSpaceOnUse">
<stop stop-color="#FF86AA"/>
<stop offset="0.484419" stop-color="#CC2F5E" stop-opacity="0"/>
<stop offset="1" stop-color="#9F0030"/>
</linearGradient>
<radialGradient id="paint65_radial_1282_23331" cx="0" cy="0" r="1" gradientUnits="userSpaceOnUse" gradientTransform="translate(374.841 86.0755) rotate(97.5946) scale(11.7288 13.5363)">
<stop stop-color="#FFA488"/>
<stop offset="1" stop-color="#FF693B"/>
</radialGradient>
<linearGradient id="paint66_linear_1282_23331" x1="353.514" y1="95.9609" x2="372.158" y2="112.973" gradientUnits="userSpaceOnUse">
<stop stop-color="#43115A"/>
<stop offset="1" stop-color="#43115A" stop-opacity="0"/>
</linearGradient>
<radialGradient id="paint67_radial_1282_23331" cx="0" cy="0" r="1" gradientUnits="userSpaceOnUse" gradientTransform="translate(369.835 104.11) rotate(81.6671) scale(14.9343 21.9434)">
<stop offset="0.287815" stop-color="#EDEDED"/>
<stop offset="1" stop-color="#CACACA"/>
</radialGradient>
<radialGradient id="paint68_radial_1282_23331" cx="0" cy="0" r="1" gradientUnits="userSpaceOnUse" gradientTransform="translate(116.795 400.409) rotate(90.0757) scale(330.879 174.329)">
<stop stop-opacity="0"/>
<stop offset="0.221563"/>
<stop offset="1" stop-opacity="0"/>
</radialGradient>
<linearGradient id="paint69_linear_1282_23331" x1="115.047" y1="496.077" x2="80.0959" y2="496.077" gradientUnits="userSpaceOnUse">
<stop stop-color="white" stop-opacity="0"/>
<stop offset="1" stop-color="white"/>
</linearGradient>
<linearGradient id="paint70_linear_1282_23331" x1="34.9512" y1="91.3513" x2="-2.20426e-06" y2="91.3513" gradientUnits="userSpaceOnUse">
<stop stop-color="white" stop-opacity="0"/>
<stop offset="1" stop-color="white"/>
</linearGradient>
<linearGradient id="paint71_linear_1282_23331" x1="79.9912" y1="397.793" x2="152.541" y2="397.793" gradientUnits="userSpaceOnUse">
<stop stop-color="#E3E3E3"/>
<stop offset="0.21988" stop-color="#99C2FF"/>
<stop offset="0.512048" stop-color="#F48DA5"/>
<stop offset="0.75" stop-color="#A699DC"/>
<stop offset="1" stop-color="#E3E3E3"/>
</linearGradient>
<linearGradient id="paint72_linear_1282_23331" x1="79.9912" y1="397.793" x2="152.541" y2="397.793" gradientUnits="userSpaceOnUse">
<stop stop-color="#E3E3E3"/>
<stop offset="0.21988" stop-color="#99C2FF"/>
<stop offset="0.512048" stop-color="#F48DA5"/>
<stop offset="0.75" stop-color="#A699DC"/>
<stop offset="1" stop-color="#E3E3E3"/>
</linearGradient>
<linearGradient id="paint73_linear_1282_23331" x1="393.765" y1="94.566" x2="356" y2="134.472" gradientUnits="userSpaceOnUse">
<stop stop-color="#E0E0E0"/>
<stop offset="0.614635" stop-color="white"/>
<stop offset="1" stop-color="#E0E0E0"/>
</linearGradient>
<linearGradient id="paint74_linear_1282_23331" x1="141.469" y1="184.277" x2="14.2585" y2="184.277" gradientUnits="userSpaceOnUse">
<stop stop-color="#E3E3E3"/>
<stop offset="0.21988" stop-color="#99C2FF"/>
<stop offset="0.512048" stop-color="#F48DA5"/>
<stop offset="0.75" stop-color="#A699DC"/>
<stop offset="1" stop-color="#E3E3E3"/>
</linearGradient>
<linearGradient id="paint75_linear_1282_23331" x1="141.469" y1="184.277" x2="14.2585" y2="184.277" gradientUnits="userSpaceOnUse">
<stop stop-color="#E3E3E3"/>
<stop offset="0.21988" stop-color="#99C2FF"/>
<stop offset="0.512048" stop-color="#F48DA5"/>
<stop offset="0.75" stop-color="#A699DC"/>
<stop offset="1" stop-color="#E3E3E3"/>
</linearGradient>
<radialGradient id="paint76_radial_1282_23331" cx="0" cy="0" r="1" gradientUnits="userSpaceOnUse" gradientTransform="translate(73.4332 176.309) rotate(47.7263) scale(28.9393 27.9114)">
<stop stop-color="#D5FFE6"/>
<stop offset="0.701245" stop-color="#16E05A"/>
<stop offset="0.933192" stop-color="#1BE12F"/>
<stop offset="0.996209" stop-color="#1AEA6D"/>
</radialGradient>
<radialGradient id="paint77_radial_1282_23331" cx="0" cy="0" r="1" gradientUnits="userSpaceOnUse" gradientTransform="translate(72.9998 135.589) rotate(74.4855) scale(52.9632 46.4577)">
<stop stop-color="#D5FFE6"/>
<stop offset="0.701245" stop-color="#16E05A"/>
<stop offset="0.933192" stop-color="#1BE12F"/>
<stop offset="0.996209" stop-color="#1AEA6D"/>
</radialGradient>
<radialGradient id="paint78_radial_1282_23331" cx="0" cy="0" r="1" gradientUnits="userSpaceOnUse" gradientTransform="translate(88.6665 119.122) rotate(91.273) scale(67.5167 59.2236)">
<stop stop-color="#D5FFE6"/>
<stop offset="0.701245" stop-color="#16E05A"/>
<stop offset="0.933192" stop-color="#1BE12F"/>
<stop offset="0.996209" stop-color="#1AEA6D"/>
</radialGradient>
<radialGradient id="paint79_radial_1282_23331" cx="0" cy="0" r="1" gradientUnits="userSpaceOnUse" gradientTransform="translate(117.317 391.434) rotate(101.31) scale(11.548 64.3378)">
<stop stop-color="white"/>
<stop offset="1" stop-color="#08DDFA"/>
</radialGradient>
<radialGradient id="paint80_radial_1282_23331" cx="0" cy="0" r="1" gradientUnits="userSpaceOnUse" gradientTransform="translate(108.098 361.079) rotate(65.556) scale(36.4867 26.6341)">
<stop stop-color="#D5F5FF"/>
<stop offset="0.701245" stop-color="#00BDF9"/>
<stop offset="0.933192" stop-color="#0788FF"/>
<stop offset="0.996209" stop-color="#4F60FF"/>
</radialGradient>
</defs>
</svg>
