<svg width="570" height="550" viewBox="0 0 570 550" fill="none" xmlns="http://www.w3.org/2000/svg">
<g opacity="0.4">
<mask id="mask0_1282_23331" style="mask-type:alpha" maskUnits="userSpaceOnUse" x="184" y="117" width="32" height="144">
<rect width="31.4843" height="143.642" transform="matrix(-1 0 0 1 215.519 117.061)" fill="url(#paint0_radial_1282_23331)"/>
</mask>
<g mask="url(#mask0_1282_23331)">
<rect opacity="0.5" width="15.1731" height="141.769" transform="matrix(-1 0 0 1 215.519 118.934)" fill="url(#paint1_linear_1282_23331)"/>
<rect opacity="0.5" x="184.034" y="118.934" width="15.1731" height="141.769" fill="url(#paint2_linear_1282_23331)"/>
</g>
</g>
<path d="M209.171 123.119C213.094 120.741 215.055 119.552 215.428 118.125C215.549 117.663 215.549 117.194 215.428 116.733C215.055 115.305 213.094 114.116 209.171 111.738C205.248 109.361 203.286 108.172 200.931 107.946C200.17 107.873 199.395 107.873 198.634 107.946C196.279 108.172 194.317 109.361 190.394 111.738C186.471 114.116 184.51 115.305 184.137 116.733C184.016 117.194 184.016 117.663 184.137 118.125C184.51 119.552 186.471 120.741 190.394 123.119C194.317 125.496 196.279 126.685 198.634 126.911C199.395 126.984 200.17 126.984 200.931 126.911C203.286 126.685 205.248 125.496 209.171 123.119Z" fill="url(#paint3_linear_1282_23331)"/>
<path d="M209.171 123.119C213.094 120.741 215.055 119.552 215.428 118.125C215.549 117.663 215.549 117.194 215.428 116.733C215.055 115.305 213.094 114.116 209.171 111.738C205.248 109.361 203.286 108.172 200.931 107.946C200.17 107.873 199.395 107.873 198.634 107.946C196.279 108.172 194.317 109.361 190.394 111.738C186.471 114.116 184.51 115.305 184.137 116.733C184.016 117.194 184.016 117.663 184.137 118.125C184.51 119.552 186.471 120.741 190.394 123.119C194.317 125.496 196.279 126.685 198.634 126.911C199.395 126.984 200.17 126.984 200.931 126.911C203.286 126.685 205.248 125.496 209.171 123.119Z" fill="white" fill-opacity="0.6"/>
<path d="M215.519 115.857H184.034V117.374H215.519V115.857Z" fill="url(#paint4_linear_1282_23331)"/>
<path d="M215.519 115.857H184.034V117.374H215.519V115.857Z" fill="white" fill-opacity="0.6"/>
<rect width="21.9561" height="21.9561" rx="6.06926" transform="matrix(-0.855186 -0.518321 -0.855186 0.518321 218.552 115.668)" fill="white"/>
<g opacity="0.4">
<mask id="mask1_1282_23331" style="mask-type:alpha" maskUnits="userSpaceOnUse" x="402" y="431" width="14" height="62">
<rect width="13.265" height="60.5196" transform="matrix(-1 0 0 1 415.544 431.669)" fill="url(#paint5_radial_1282_23331)"/>
</mask>
<g mask="url(#mask1_1282_23331)">
<rect opacity="0.5" width="6.39278" height="59.7302" transform="matrix(-1 0 0 1 415.544 432.458)" fill="url(#paint6_linear_1282_23331)"/>
<rect opacity="0.5" x="402.279" y="432.458" width="6.39278" height="59.7302" fill="url(#paint7_linear_1282_23331)"/>
</g>
</g>
<path d="M412.869 434.221C414.522 433.22 415.348 432.719 415.506 432.117C415.556 431.923 415.556 431.725 415.506 431.531C415.348 430.929 414.522 430.428 412.869 429.427C411.216 428.425 410.39 427.924 409.397 427.829C409.077 427.798 408.75 427.798 408.43 427.829C407.437 427.924 406.611 428.425 404.958 429.427C403.305 430.428 402.479 430.929 402.322 431.531C402.271 431.725 402.271 431.923 402.322 432.117C402.479 432.719 403.305 433.22 404.958 434.221C406.611 435.223 407.437 435.724 408.43 435.819C408.75 435.85 409.077 435.85 409.397 435.819C410.39 435.724 411.216 435.223 412.869 434.221Z" fill="url(#paint8_linear_1282_23331)"/>
<path d="M412.869 434.221C414.522 433.22 415.348 432.719 415.506 432.117C415.556 431.923 415.556 431.725 415.506 431.531C415.348 430.929 414.522 430.428 412.869 429.427C411.216 428.425 410.39 427.924 409.397 427.829C409.077 427.798 408.75 427.798 408.43 427.829C407.437 427.924 406.611 428.425 404.958 429.427C403.305 430.428 402.479 430.929 402.322 431.531C402.271 431.725 402.271 431.923 402.322 432.117C402.479 432.719 403.305 433.22 404.958 434.221C406.611 435.223 407.437 435.724 408.43 435.819C408.75 435.85 409.077 435.85 409.397 435.819C410.39 435.724 411.216 435.223 412.869 434.221Z" fill="white" fill-opacity="0.6"/>
<path d="M415.544 431.162H402.279V431.801H415.544V431.162Z" fill="url(#paint9_linear_1282_23331)"/>
<path d="M415.544 431.162H402.279V431.801H415.544V431.162Z" fill="white" fill-opacity="0.6"/>
<rect width="9.25056" height="9.25056" rx="2.55711" transform="matrix(-0.855186 -0.518321 -0.855186 0.518321 416.821 431.082)" fill="white"/>
<g opacity="0.4">
<mask id="mask2_1282_23331" style="mask-type:alpha" maskUnits="userSpaceOnUse" x="367" y="56" width="14" height="62">
<rect width="13.265" height="60.5196" transform="matrix(-1 0 0 1 380.544 56.6689)" fill="url(#paint10_radial_1282_23331)"/>
</mask>
<g mask="url(#mask2_1282_23331)">
<rect opacity="0.5" width="6.39278" height="59.7302" transform="matrix(-1 0 0 1 380.544 57.4575)" fill="url(#paint11_linear_1282_23331)"/>
<rect opacity="0.5" x="367.279" y="57.4575" width="6.39278" height="59.7302" fill="url(#paint12_linear_1282_23331)"/>
</g>
</g>
<path d="M377.869 59.2214C379.522 58.2197 380.348 57.7188 380.506 57.1172C380.556 56.923 380.556 56.7251 380.506 56.5308C380.348 55.9293 379.522 55.4284 377.869 54.4266C376.216 53.4249 375.39 52.924 374.397 52.8287C374.077 52.798 373.75 52.798 373.43 52.8287C372.437 52.924 371.611 53.4249 369.958 54.4266C368.305 55.4284 367.479 55.9293 367.322 56.5308C367.271 56.7251 367.271 56.923 367.322 57.1172C367.479 57.7188 368.305 58.2197 369.958 59.2214C371.611 60.2232 372.437 60.724 373.43 60.8193C373.75 60.8501 374.077 60.8501 374.397 60.8193C375.39 60.724 376.216 60.2232 377.869 59.2214Z" fill="url(#paint13_linear_1282_23331)"/>
<path d="M377.869 59.2214C379.522 58.2197 380.348 57.7188 380.506 57.1172C380.556 56.923 380.556 56.7251 380.506 56.5308C380.348 55.9293 379.522 55.4284 377.869 54.4266C376.216 53.4249 375.39 52.924 374.397 52.8287C374.077 52.798 373.75 52.798 373.43 52.8287C372.437 52.924 371.611 53.4249 369.958 54.4266C368.305 55.4284 367.479 55.9293 367.322 56.5308C367.271 56.7251 367.271 56.923 367.322 57.1172C367.479 57.7188 368.305 58.2197 369.958 59.2214C371.611 60.2232 372.437 60.724 373.43 60.8193C373.75 60.8501 374.077 60.8501 374.397 60.8193C375.39 60.724 376.216 60.2232 377.869 59.2214Z" fill="white" fill-opacity="0.6"/>
<path d="M380.544 56.1619H367.279V56.8011H380.544V56.1619Z" fill="url(#paint14_linear_1282_23331)"/>
<path d="M380.544 56.1619H367.279V56.8011H380.544V56.1619Z" fill="white" fill-opacity="0.6"/>
<rect width="9.25056" height="9.25056" rx="2.55711" transform="matrix(-0.855186 -0.518321 -0.855186 0.518321 381.821 56.082)" fill="white"/>
<g opacity="0.4">
<mask id="mask3_1282_23331" style="mask-type:alpha" maskUnits="userSpaceOnUse" x="314" y="358" width="190" height="134">
<rect x="314.514" y="358.312" width="189.251" height="133.687" fill="url(#paint15_radial_1282_23331)"/>
</mask>
<g mask="url(#mask3_1282_23331)">
<rect opacity="0.5" x="314.515" y="360.055" width="91.2054" height="131.944" fill="url(#paint16_linear_1282_23331)"/>
<rect opacity="0.5" width="91" height="133.621" transform="matrix(-1 0 0 1 504 358.309)" fill="url(#paint17_linear_1282_23331)"/>
</g>
</g>
<path d="M352.668 394.727C329.088 380.435 317.298 373.289 315.055 364.707C314.331 361.936 314.331 359.112 315.055 356.341C317.298 347.759 329.088 340.613 352.668 326.321C376.249 312.029 388.039 304.883 402.199 303.524C406.772 303.085 411.43 303.085 416.003 303.524C430.163 304.883 441.953 312.029 465.534 326.321C489.114 340.613 500.904 347.759 503.147 356.341C503.871 359.112 503.871 361.936 503.147 364.707C500.904 373.289 489.114 380.435 465.534 394.727C441.953 409.019 430.163 416.165 416.003 417.525C411.43 417.964 406.772 417.964 402.199 417.525C388.039 416.165 376.249 409.019 352.668 394.727Z" fill="url(#paint18_linear_1282_23331)"/>
<path d="M352.668 394.727C329.088 380.435 317.298 373.289 315.055 364.707C314.331 361.936 314.331 359.112 315.055 356.341C317.298 347.759 329.088 340.613 352.668 326.321C376.249 312.029 388.039 304.883 402.199 303.524C406.772 303.085 411.43 303.085 416.003 303.524C430.163 304.883 441.953 312.029 465.534 326.321C489.114 340.613 500.904 347.759 503.147 356.341C503.871 359.112 503.871 361.936 503.147 364.707C500.904 373.289 489.114 380.435 465.534 394.727C441.953 409.019 430.163 416.165 416.003 417.525C411.43 417.964 406.772 417.964 402.199 417.525C388.039 416.165 376.249 409.019 352.668 394.727Z" fill="white" fill-opacity="0.6"/>
<path d="M314.512 351.077H503.763V360.198H314.512V351.077Z" fill="url(#paint19_linear_1282_23331)"/>
<path d="M314.512 351.077H503.763V360.198H314.512V351.077Z" fill="white" fill-opacity="0.6"/>
<rect width="131.977" height="131.977" rx="36.4822" transform="matrix(0.855186 -0.518321 0.855186 0.518321 296.284 349.943)" fill="white"/>
<mask id="mask4_1282_23331" style="mask-type:alpha" maskUnits="userSpaceOnUse" x="314" y="292" width="190" height="116">
<rect opacity="0.32" width="131.977" height="131.977" rx="36.4822" transform="matrix(0.855186 -0.518321 0.855186 0.518321 296.284 349.943)" fill="white"/>
</mask>
<g mask="url(#mask4_1282_23331)">
<g opacity="0.2" filter="url(#filter0_f_1282_23331)">
<path fill-rule="evenodd" clip-rule="evenodd" d="M465.308 315.574C441.91 301.393 430.211 294.302 416.052 292.943C411.479 292.504 406.82 292.504 402.247 292.943C388.088 294.302 376.297 301.448 352.717 315.74V315.74C329.136 330.032 317.346 337.178 315.104 345.76C314.379 348.532 314.379 351.355 315.104 354.127C317.346 362.709 329.045 369.799 352.443 383.98L370 394.622C377.667 390.344 400.2 377.488 429 360.288C457.8 343.088 473.667 328.44 478 323.266L465.308 315.574Z" fill="#1B00B3"/>
</g>
</g>
<g opacity="0.4">
<mask id="mask5_1282_23331" style="mask-type:alpha" maskUnits="userSpaceOnUse" x="75" y="301" width="27" height="119">
<rect x="75.4833" y="301.739" width="25.7599" height="117.526" fill="url(#paint20_radial_1282_23331)"/>
</mask>
<g mask="url(#mask5_1282_23331)">
<rect opacity="0.5" x="75.4834" y="303.271" width="12.4144" height="115.993" fill="url(#paint21_linear_1282_23331)"/>
<rect opacity="0.5" width="12.4144" height="115.993" transform="matrix(-1 0 0 1 101.244 303.271)" fill="url(#paint22_linear_1282_23331)"/>
</g>
</g>
<path d="M80.6767 306.695C77.4671 304.75 75.8622 303.777 75.557 302.609C75.4584 302.232 75.4584 301.848 75.557 301.47C75.8622 300.302 77.4671 299.33 80.6767 297.384C83.8864 295.439 85.4912 294.466 87.4185 294.281C88.041 294.221 88.6751 294.221 89.2975 294.281C91.2249 294.466 92.8297 295.439 96.0393 297.384C99.249 299.33 100.854 300.302 101.159 301.47C101.258 301.848 101.258 302.232 101.159 302.609C100.854 303.777 99.249 304.75 96.0393 306.695C92.8297 308.641 91.2249 309.613 89.2975 309.798C88.6751 309.858 88.041 309.858 87.4185 309.798C85.4912 309.613 83.8864 308.641 80.6767 306.695Z" fill="url(#paint23_linear_1282_23331)"/>
<path d="M80.6767 306.695C77.4671 304.75 75.8622 303.777 75.557 302.609C75.4584 302.232 75.4584 301.848 75.557 301.47C75.8622 300.302 77.4671 299.33 80.6767 297.384C83.8864 295.439 85.4912 294.466 87.4185 294.281C88.041 294.221 88.6751 294.221 89.2975 294.281C91.2249 294.466 92.8297 295.439 96.0393 297.384C99.249 299.33 100.854 300.302 101.159 301.47C101.258 301.848 101.258 302.232 101.159 302.609C100.854 303.777 99.249 304.75 96.0393 306.695C92.8297 308.641 91.2249 309.613 89.2975 309.798C88.6751 309.858 88.041 309.858 87.4185 309.798C85.4912 309.613 83.8864 308.641 80.6767 306.695Z" fill="white" fill-opacity="0.6"/>
<path d="M75.483 300.754H101.243V301.995H75.483V300.754Z" fill="url(#paint24_linear_1282_23331)"/>
<path d="M75.483 300.754H101.243V301.995H75.483V300.754Z" fill="white" fill-opacity="0.6"/>
<rect width="17.9641" height="17.9641" rx="4.96577" transform="matrix(0.855186 -0.518321 0.855186 0.518321 73.002 300.6)" fill="white"/>
<g filter="url(#filter1_f_1282_23331)">
<ellipse cx="200" cy="115.288" rx="12" ry="6" fill="url(#paint25_radial_1282_23331)"/>
</g>
<circle cx="200" cy="100.288" r="15" fill="url(#paint26_radial_1282_23331)"/>
<g filter="url(#filter2_f_1282_23331)">
<ellipse cx="200" cy="115.288" rx="12" ry="6" fill="url(#paint27_radial_1282_23331)"/>
</g>
<circle cx="200" cy="100.288" r="15" fill="url(#paint28_radial_1282_23331)"/>
<g opacity="0.4">
<mask id="mask6_1282_23331" style="mask-type:alpha" maskUnits="userSpaceOnUse" x="116" y="259" width="369" height="291">
<rect x="116.023" y="259.46" width="368.715" height="290.54" fill="url(#paint29_radial_1282_23331)"/>
</mask>
<g mask="url(#mask6_1282_23331)">
<rect opacity="0.5" x="116.023" y="263.25" width="177.694" height="286.75" fill="url(#paint30_linear_1282_23331)"/>
<rect opacity="0.5" width="177.694" height="1660.26" transform="matrix(-1 0 0 1 484.19 270.362)" fill="url(#paint31_linear_1282_23331)"/>
</g>
</g>
<path d="M190.363 343.816C144.421 315.971 121.451 302.049 117.081 285.329C115.67 279.929 115.67 274.428 117.081 269.028C121.451 252.308 144.421 238.385 190.363 210.541C236.304 182.696 259.275 168.774 286.862 166.125C295.771 165.27 304.847 165.27 313.757 166.125C341.344 168.774 364.314 182.696 410.256 210.541C456.197 238.385 479.168 252.308 483.537 269.028C484.949 274.428 484.949 279.929 483.537 285.329C479.168 302.049 456.197 315.971 410.256 343.816C364.314 371.661 341.344 385.583 313.757 388.231C304.847 389.087 295.771 389.087 286.862 388.231C259.275 385.583 236.304 371.661 190.363 343.816Z" fill="url(#paint32_linear_1282_23331)"/>
<path d="M190.363 343.816C144.421 315.971 121.451 302.049 117.081 285.329C115.67 279.929 115.67 274.428 117.081 269.028C121.451 252.308 144.421 238.385 190.363 210.541C236.304 182.696 259.275 168.774 286.862 166.125C295.771 165.27 304.847 165.27 313.757 166.125C341.344 168.774 364.314 182.696 410.256 210.541C456.197 238.385 479.168 252.308 483.537 269.028C484.949 274.428 484.949 279.929 483.537 285.329C479.168 302.049 456.197 315.971 410.256 343.816C364.314 371.661 341.344 385.583 313.757 388.231C304.847 389.087 295.771 389.087 286.862 388.231C259.275 385.583 236.304 371.661 190.363 343.816Z" fill="white" fill-opacity="0.6"/>
<path d="M116.023 258.773H484.738V276.543H116.023V258.773Z" fill="url(#paint33_linear_1282_23331)"/>
<path d="M116.023 258.773H484.738V276.543H116.023V258.773Z" fill="white" fill-opacity="0.6"/>
<rect width="257.129" height="257.129" rx="71.0776" transform="matrix(0.855186 -0.518321 0.855186 0.518321 80.484 256.564)" fill="white"/>
<rect opacity="0.1" width="230.145" height="230.145" rx="63.6185" transform="matrix(0.855186 -0.518321 0.855186 0.518321 103.56 256.564)" fill="#4D24B5"/>
<rect x="1.71037" width="136.937" height="136.937" rx="39" transform="matrix(0.855186 -0.518321 0.855186 0.518321 134.248 257.451)" stroke="white" stroke-width="2"/>
<rect x="1.71037" width="85.3232" height="85.3232" rx="30" transform="matrix(0.855186 -0.518321 0.855186 0.518321 297.248 257.451)" stroke="white" stroke-width="2"/>
<rect x="1.71037" width="30.9646" height="30.9646" rx="9" transform="matrix(0.855186 -0.518321 0.855186 0.518321 305.734 314.436)" stroke="white" stroke-width="2"/>
<g opacity="0.4" filter="url(#filter3_f_1282_23331)">
<path d="M305.579 259.238C302.337 261.203 300.761 263.919 300.399 266.689C299.434 274.084 294.285 281.315 284.952 286.971C264.134 299.589 230.379 299.589 209.56 286.971C199.424 280.828 194.223 272.825 193.957 264.774C193.792 259.788 193.957 256.022 193.957 251.646C196.498 248.424 205.157 243.946 209.56 241.277L303.8 184.159C324.619 171.541 358.373 171.541 379.192 184.159C384.358 187.29 392.196 189.445 394.798 193.302C395.029 197.678 394.682 202.457 394.798 206.429C395.046 214.889 389.844 223.397 379.192 229.853C369.86 235.509 357.929 238.63 345.729 239.215C341.158 239.435 336.677 240.39 333.435 242.355L305.579 259.238Z" fill="url(#paint34_linear_1282_23331)"/>
</g>
<path d="M305.58 233.816C302.339 235.781 300.762 238.497 300.401 241.267C299.435 248.662 294.286 255.893 284.954 261.549C264.135 274.168 230.381 274.168 209.562 261.549C199.425 255.406 194.224 247.403 193.958 239.352C193.794 234.366 193.958 222.6 193.958 218.225C196.499 215.002 205.158 210.524 209.562 207.855L303.802 150.737C324.621 138.119 358.375 138.119 379.194 150.737C384.36 153.868 392.197 156.023 394.799 159.88C395.03 164.256 394.683 177.035 394.799 181.007C395.047 189.468 389.845 197.976 379.194 204.431C369.862 210.087 357.93 213.208 345.73 213.794C341.16 214.013 336.678 214.968 333.436 216.933L305.58 233.816Z" fill="url(#paint35_linear_1282_23331)"/>
<path d="M316 216.288L321.75 212.788" stroke="#331D60" stroke-width="2" stroke-linecap="round"/>
<path d="M300.62 215.303C301.43 224.16 296.252 233.181 285.088 239.948C264.269 252.566 230.515 252.566 209.696 239.948C188.877 227.33 188.877 206.872 209.696 194.254L303.936 137.136C324.755 124.517 358.509 124.517 379.328 137.136C400.147 149.754 400.147 170.212 379.328 182.83C369.996 188.486 358.065 191.607 345.864 192.192C341.294 192.412 336.812 193.367 333.57 195.332L300.62 215.303Z" fill="url(#paint36_radial_1282_23331)"/>
<path d="M300.62 214.303C301.43 223.16 296.252 232.181 285.088 238.948C264.269 251.566 230.515 251.566 209.696 238.948C188.877 226.33 188.877 205.872 209.696 193.254L303.936 136.136C324.755 123.517 358.509 123.517 379.328 136.136C400.147 148.754 400.147 169.212 379.328 181.83C369.996 187.486 358.065 190.607 345.864 191.192C341.294 191.412 336.812 192.367 333.57 194.332L300.62 214.303Z" fill="url(#paint37_linear_1282_23331)"/>
<path fill-rule="evenodd" clip-rule="evenodd" d="M285.088 238.948C296.252 232.181 301.43 223.16 300.62 214.303C284.975 198.471 263.82 161.309 301.901 137.369L209.696 193.254C188.877 205.872 188.877 226.33 209.696 238.948C230.515 251.566 264.269 251.566 285.088 238.948Z" fill="url(#paint38_linear_1282_23331)"/>
<g filter="url(#filter4_f_1282_23331)">
<path d="M241.633 203.174C239.535 201.903 236.133 201.903 234.035 203.174L229.068 206.185C226.97 207.457 226.97 209.518 229.068 210.79L234.693 214.199L229.068 217.609C226.97 218.88 226.97 220.942 229.068 222.214L234.035 225.224C236.133 226.496 239.535 226.496 241.633 225.224L247.258 221.815L252.883 225.224C254.981 226.496 258.383 226.496 260.481 225.224L265.448 222.214C267.547 220.942 267.547 218.88 265.448 217.609L259.824 214.199L265.448 210.79C267.547 209.518 267.547 207.457 265.448 206.185L260.481 203.174C258.383 201.903 254.981 201.903 252.883 203.174L247.258 206.584L241.633 203.174Z" fill="#563EB5"/>
<path d="M328.933 159.312C331.815 159.312 336.195 160.143 337.818 161.433C337.818 162.288 337.818 163.47 337.818 164.697C337.818 167.671 333.84 170.082 328.933 170.082C324.026 170.082 320.048 167.671 320.048 164.697C320.048 163.659 320.048 162.788 320.048 161.869C321.613 160.334 325.737 159.312 328.933 159.312Z" fill="#563EB5"/>
<path d="M328.933 144.08C331.622 144.08 336.189 145.144 337.818 146.288C337.818 147.288 337.818 148.121 337.818 149.465C337.818 152.439 333.84 154.85 328.933 154.85C324.026 154.85 320.048 152.439 320.048 149.465C320.048 148.121 320.048 147.788 320.048 146.288C321.677 145.144 326.244 144.08 328.933 144.08Z" fill="#563EB5"/>
<path d="M354.063 159.312C357.045 159.312 361.337 160.201 362.948 161.567C362.948 162.788 362.948 163.529 362.948 164.697C362.948 167.671 358.97 170.082 354.063 170.082C349.156 170.082 345.178 167.671 345.178 164.697C345.178 163.659 345.178 162.788 345.178 161.869C346.744 160.334 350.868 159.312 354.063 159.312Z" fill="#563EB5"/>
<path d="M354.063 144.08C357.01 144.08 362.896 145.288 362.948 146.288C363 147.288 362.948 148.277 362.948 149.465C362.948 152.439 358.97 154.85 354.063 154.85C349.156 154.85 345.178 152.439 345.178 149.465C345.178 148.067 345.178 147.788 345.178 146.288C346.803 145.21 351.464 144.08 354.063 144.08Z" fill="#563EB5"/>
<path d="M286.525 193.256C286.525 191.678 288.634 190.4 291.237 190.4C293.839 190.4 295.949 191.678 295.949 193.256V200.871C295.949 202.449 293.839 203.727 291.237 203.727C288.634 203.727 286.525 202.449 286.525 200.871V193.256Z" fill="#563EB5"/>
<path d="M305.373 181.832C305.373 180.255 307.482 178.976 310.085 178.976C312.687 178.976 314.797 180.255 314.797 181.832V189.448C314.797 191.025 312.687 192.303 310.085 192.303C307.482 192.303 305.373 191.025 305.373 189.448V181.832Z" fill="#563EB5"/>
</g>
<path d="M362.948 163.697C362.948 166.671 358.97 169.082 354.063 169.082C349.156 169.082 345.178 166.671 345.178 163.697V160.869C346.744 159.334 350.868 158.312 354.063 158.312C357.045 158.312 361.337 159.201 362.948 160.567V163.697Z" fill="#5797F6"/>
<path d="M362.948 148.465C362.948 151.439 358.97 153.85 354.063 153.85C349.156 153.85 345.178 151.439 345.178 148.465V145.288C346.803 144.21 351.464 143.08 354.063 143.08C357.01 143.08 362.896 144.288 362.948 145.288C363 146.288 362.948 147.277 362.948 148.465Z" fill="url(#paint39_linear_1282_23331)"/>
<path d="M337.818 163.697C337.818 166.671 333.84 169.082 328.933 169.082C324.026 169.082 320.048 166.671 320.048 163.697V160.869C321.613 159.334 325.737 158.312 328.933 158.312C331.815 158.312 336.195 159.143 337.818 160.433V163.697Z" fill="#601982"/>
<path d="M241.633 200.256C239.535 198.984 236.133 198.984 234.035 200.256L229.068 203.266C226.969 204.538 226.969 206.6 229.068 207.872L234.693 211.281L229.068 214.69C226.969 215.962 226.969 218.023 229.068 219.295L234.035 222.306C236.133 223.577 239.535 223.577 241.633 222.306L247.258 218.897L252.883 222.306C254.981 223.577 258.383 223.577 260.481 222.306L265.448 219.295C267.546 218.023 267.546 215.962 265.448 214.69L259.823 211.281L265.448 207.872C267.546 206.6 267.546 204.538 265.448 203.266L260.481 200.256C258.383 198.984 254.981 198.984 252.883 200.256L247.258 203.665L241.633 200.256Z" fill="#D5CAFF"/>
<path d="M241.633 201.256C239.535 199.984 236.133 199.984 234.035 201.256L229.068 204.266C226.969 205.538 226.969 207.6 229.068 208.872L234.693 212.281L229.068 215.69C226.969 216.962 226.969 219.023 229.068 220.295L234.035 223.306C236.133 224.577 239.535 224.577 241.633 223.306L247.258 219.897L252.883 223.306C254.981 224.577 258.383 224.577 260.481 223.306L265.448 220.295C267.546 219.023 267.546 216.962 265.448 215.69L259.823 212.281L265.448 208.872C267.546 207.6 267.546 205.538 265.448 204.266L260.481 201.256C258.383 199.984 254.981 199.984 252.883 201.256L247.258 204.665L241.633 201.256Z" fill="#D5CAFF"/>
<path d="M234.906 210.41L235.12 210.281L234.906 210.151L229.281 206.742C227.301 205.542 227.301 203.596 229.281 202.396L234.249 199.385C236.229 198.185 239.439 198.185 241.419 199.385L247.044 202.795L247.258 202.924L247.472 202.795L253.097 199.385C255.077 198.185 258.287 198.185 260.267 199.385L265.234 202.396C267.214 203.596 267.214 205.542 265.234 206.742L259.609 210.151L259.396 210.281L259.609 210.41L265.234 213.82C267.215 215.02 267.215 216.965 265.234 218.166L260.267 221.176C258.287 222.376 255.077 222.376 253.097 221.176L247.472 217.767L247.258 217.637L247.044 217.767L241.419 221.176C239.439 222.376 236.229 222.376 234.249 221.176L229.281 218.166C227.301 216.965 227.301 215.02 229.281 213.82L234.906 210.41Z" fill="white" stroke="#EBE6FF" stroke-width="0.5"/>
<path d="M328.933 156.393C333.84 156.393 337.818 157.804 337.818 160.779C337.818 163.753 333.84 166.164 328.933 166.164C324.026 166.164 320.048 163.753 320.048 160.779C320.048 157.804 324.026 156.393 328.933 156.393Z" fill="url(#paint40_radial_1282_23331)"/>
<path d="M328.933 143.081C331.622 143.081 336.189 144.145 337.818 145.289C337.818 146.289 337.818 147.122 337.818 148.466C337.818 151.44 333.84 153.851 328.933 153.851C324.026 153.851 320.048 151.44 320.048 148.466C320.048 147.122 320.048 146.789 320.048 145.289C321.677 144.145 326.244 143.081 328.933 143.081Z" fill="#0F4E36"/>
<path d="M328.933 141.162C333.84 141.162 337.818 142.573 337.818 145.547C337.818 148.521 333.84 150.932 328.933 150.932C324.026 150.932 320.048 148.521 320.048 145.547C320.048 142.573 324.026 141.162 328.933 141.162Z" fill="url(#paint41_radial_1282_23331)"/>
<path d="M354.063 156.393C358.97 156.393 362.948 157.804 362.948 160.779C362.948 163.753 358.97 166.164 354.063 166.164C349.156 166.164 345.178 163.753 345.178 160.779C345.178 157.804 349.156 156.393 354.063 156.393Z" fill="url(#paint42_radial_1282_23331)"/>
<path d="M354.062 141.162C358.97 141.162 362.947 142.573 362.947 145.547C362.947 148.521 358.97 150.932 354.062 150.932C349.155 150.932 345.177 148.521 345.177 145.547C345.177 142.573 349.155 141.162 354.062 141.162Z" fill="url(#paint43_radial_1282_23331)"/>
<path d="M286.524 191.337C286.524 189.76 288.634 188.481 291.236 188.481V188.481C293.838 188.481 295.948 189.76 295.948 191.337L295.948 198.953C295.948 200.53 293.838 201.809 291.236 201.809V201.809C288.634 201.809 286.524 200.53 286.524 198.953L286.524 191.337Z" fill="#D5CAFF"/>
<path d="M286.524 188.568C286.524 186.991 288.634 185.712 291.236 185.712V185.712C293.838 185.712 295.948 186.991 295.948 188.568L295.948 196.184C295.948 197.761 293.838 199.04 291.236 199.04V199.04C288.634 199.04 286.524 197.761 286.524 196.184L286.524 188.568Z" fill="#EBE5FF"/>
<path d="M286.524 188.337C286.524 186.76 288.634 185.481 291.236 185.481V185.481C293.838 185.481 295.948 186.76 295.948 188.337L295.948 195.953C295.948 197.53 293.838 198.809 291.236 198.809V198.809C288.634 198.809 286.524 197.53 286.524 195.953L286.524 188.337Z" fill="url(#paint44_linear_1282_23331)"/>
<path d="M305.372 179.914C305.372 178.336 307.482 177.058 310.084 177.058V177.058C312.687 177.058 314.796 178.336 314.796 179.914V187.529C314.796 189.107 312.687 190.385 310.084 190.385V190.385C307.482 190.385 305.372 189.107 305.372 187.529V179.914Z" fill="#D5CAFF"/>
<path d="M305.372 177.144C305.372 175.567 307.482 174.288 310.084 174.288V174.288C312.687 174.288 314.796 175.567 314.796 177.144V184.76C314.796 186.337 312.687 187.616 310.084 187.616V187.616C307.482 187.616 305.372 186.337 305.372 184.76V177.144Z" fill="#EBE5FF"/>
<path d="M305.372 176.914C305.372 175.336 307.482 174.058 310.084 174.058V174.058C312.687 174.058 314.796 175.336 314.796 176.914V184.529C314.796 186.107 312.687 187.385 310.084 187.385V187.385C307.482 187.385 305.372 186.107 305.372 184.529V176.914Z" fill="url(#paint45_linear_1282_23331)"/>
<ellipse cx="327" cy="209.789" rx="1" ry="1.5" fill="#331D60"/>
<g opacity="0.3" filter="url(#filter5_f_1282_23331)">
<ellipse cx="369" cy="334.576" rx="33" ry="19.5" fill="url(#paint46_linear_1282_23331)"/>
</g>
<circle cx="367.425" cy="288.833" r="34.8327" fill="url(#paint47_radial_1282_23331)"/>
<path d="M353.602 274.185C355.312 271.912 360.663 266.206 368.385 261.561M379.186 265.477C381.009 266.804 384.627 272.052 384.519 282.42M375.136 290.859C372.616 290.859 365.307 289.724 356.234 285.188M342.936 275.332C342.351 273.442 341.68 268.798 343.678 265.342M365.618 256.768C361.545 256.228 351.941 256.39 346.109 261.359M386.274 262.979C389.784 264.149 397.561 269.243 400.585 280.26M400.248 282.893C400.788 284.153 399.546 287.443 390.257 290.521M334.093 293.491C334.408 292.389 335.956 289.684 339.628 287.686M347.864 294.639C348.336 299.297 350.145 309.044 353.602 310.773M347.864 313.945C347.099 314.148 344.812 314.175 341.788 312.663M365.618 314.688C368.565 314.103 375.082 310.989 377.566 303.212M389.042 303.212C390.167 304.877 392.201 309.098 391.337 312.663M367.17 320.021C370.388 321.393 378.768 323.194 389.514 315.633" stroke="#3A3A3A" stroke-width="0.13501"/>
<path d="M351.899 309.355L347.038 313.945C347.47 314.917 350.008 317.68 351.223 318.941C353.496 319.953 358.784 322.086 361.754 322.518C363.536 322.68 366.997 321.326 368.505 320.628C368.1 319.571 367.101 316.848 366.345 314.418C359.108 314.796 353.699 311.2 351.899 309.355Z" fill="url(#paint48_radial_1282_23331)"/>
<path d="M377.213 304.562L374.04 291.196C374.04 290.048 381.601 283.568 384.571 281.948C387.379 282.65 391.952 287.056 393.887 289.171C393.954 292.253 393.185 299.432 389.566 303.482C384.652 305.426 379.283 305.012 377.213 304.562Z" fill="url(#paint49_radial_1282_23331)"/>
<path d="M357.907 286.065L347.916 295.516C345.801 293.896 341.111 290.089 339.275 287.821C339.41 283.635 341.03 278.37 342.988 274.657C347.146 272.173 352.551 272.542 354.734 273.037L357.907 286.065Z" fill="url(#paint50_radial_1282_23331)"/>
<path d="M386.731 263.316L380.791 267.299C374.688 263.141 369.022 262.326 366.952 262.439L365.265 256.701C366.682 255.868 370.895 254.554 376.403 255.958C381.911 257.362 385.584 261.449 386.731 263.316Z" fill="url(#paint51_radial_1282_23331)"/>
<path fill-rule="evenodd" clip-rule="evenodd" d="M339.586 267.894L342.988 266.624C343.768 265.234 345.091 263.003 346.396 261.062C343.823 263.013 341.529 265.314 339.586 267.894Z" fill="url(#paint52_radial_1282_23331)"/>
<path fill-rule="evenodd" clip-rule="evenodd" d="M332.624 290.332L334.347 293.019L333.874 298.228C333.167 295.7 332.739 293.057 332.624 290.332Z" fill="url(#paint53_radial_1282_23331)"/>
<path fill-rule="evenodd" clip-rule="evenodd" d="M402.252 288.212C401.399 286.522 400.368 284.54 400.165 284.378C400.327 282.434 400.232 279.742 400.165 278.64L400.649 278.34C401.635 281.464 402.192 284.777 402.252 288.212Z" fill="url(#paint54_radial_1282_23331)"/>
<path fill-rule="evenodd" clip-rule="evenodd" d="M389.138 316.072C390.288 314.184 391.524 311.948 391.524 311.177C393.414 310.529 394.202 310.097 394.359 309.962C394.487 310.115 394.6 310.302 394.686 310.518C393.051 312.571 391.189 314.435 389.138 316.072Z" fill="url(#paint55_radial_1282_23331)"/>
<path fill-rule="evenodd" clip-rule="evenodd" d="M389.138 316.072C391.189 314.435 393.051 312.571 394.686 310.518C394.6 310.302 394.487 310.115 394.359 309.962C394.202 310.097 393.414 310.529 391.524 311.177C391.524 311.948 390.288 314.184 389.138 316.072ZM332.624 290.332C332.739 293.057 333.167 295.7 333.874 298.228L334.347 293.019L332.624 290.332ZM339.586 267.894L342.988 266.624C343.768 265.234 345.091 263.003 346.396 261.062C343.823 263.013 341.529 265.314 339.586 267.894ZM400.649 278.34L400.165 278.64C400.232 279.742 400.327 282.434 400.165 284.378C400.368 284.54 401.399 286.522 402.252 288.212C402.192 284.777 401.635 281.464 400.649 278.34ZM347.038 313.945L351.899 309.355C353.699 311.2 359.108 314.796 366.345 314.418C367.101 316.848 368.1 319.571 368.505 320.628C366.997 321.326 363.536 322.68 361.754 322.518C358.784 322.086 353.496 319.953 351.223 318.941C350.008 317.68 347.47 314.917 347.038 313.945ZM374.04 291.196L377.213 304.562C379.283 305.012 384.652 305.426 389.566 303.482C393.185 299.432 393.954 292.253 393.887 289.171C391.952 287.056 387.379 282.65 384.571 281.948C381.601 283.568 374.04 290.048 374.04 291.196ZM347.916 295.516L357.907 286.065L354.734 273.037C352.551 272.542 347.146 272.173 342.988 274.657C341.03 278.37 339.41 283.635 339.275 287.821C341.111 290.089 345.801 293.896 347.916 295.516ZM380.791 267.299L386.731 263.316C385.584 261.449 381.911 257.362 376.403 255.958C370.895 254.554 366.682 255.868 365.265 256.701L366.952 262.439C369.022 262.326 374.688 263.141 380.791 267.299Z" fill="url(#paint56_radial_1282_23331)"/>
<g opacity="0.4">
<mask id="mask7_1282_23331" style="mask-type:alpha" maskUnits="userSpaceOnUse" x="407" y="122" width="47" height="210">
<rect width="45.7294" height="208.634" transform="matrix(-1 0 0 1 453.137 122.659)" fill="url(#paint57_radial_1282_23331)"/>
</mask>
<g mask="url(#mask7_1282_23331)">
<rect opacity="0.5" width="22.0383" height="205.912" transform="matrix(-1 0 0 1 453.137 125.38)" fill="url(#paint58_linear_1282_23331)"/>
<rect opacity="0.5" x="407.406" y="125.38" width="22.0383" height="205.912" fill="url(#paint59_linear_1282_23331)"/>
</g>
</g>
<path d="M443.917 131.458C449.615 128.005 452.464 126.278 453.005 124.204C453.18 123.535 453.18 122.852 453.005 122.183C452.464 120.109 449.615 118.382 443.917 114.929C438.219 111.476 435.37 109.749 431.949 109.42C430.844 109.314 429.718 109.314 428.613 109.42C425.192 109.749 422.343 111.476 416.645 114.929C410.947 118.382 408.098 120.109 407.556 122.183C407.381 122.852 407.381 123.535 407.556 124.204C408.098 126.278 410.947 128.005 416.645 131.458C422.343 134.912 425.192 136.638 428.613 136.967C429.718 137.073 430.844 137.073 431.949 136.967C435.37 136.638 438.219 134.912 443.917 131.458Z" fill="url(#paint60_linear_1282_23331)"/>
<path d="M443.917 131.458C449.615 128.005 452.464 126.278 453.005 124.204C453.18 123.535 453.18 122.852 453.005 122.183C452.464 120.109 449.615 118.382 443.917 114.929C438.219 111.476 435.37 109.749 431.949 109.42C430.844 109.314 429.718 109.314 428.613 109.42C425.192 109.749 422.343 111.476 416.645 114.929C410.947 118.382 408.098 120.109 407.556 122.183C407.381 122.852 407.381 123.535 407.556 124.204C408.098 126.278 410.947 128.005 416.645 131.458C422.343 134.912 425.192 136.638 428.613 136.967C429.718 137.073 430.844 137.073 431.949 136.967C435.37 136.638 438.219 134.912 443.917 131.458Z" fill="white" fill-opacity="0.6"/>
<path d="M453.137 120.911H407.407V123.115H453.137V120.911Z" fill="url(#paint61_linear_1282_23331)"/>
<path d="M453.137 120.911H407.407V123.115H453.137V120.911Z" fill="white" fill-opacity="0.6"/>
<rect width="31.8901" height="31.8901" rx="8.81531" transform="matrix(-0.855186 -0.518321 -0.855186 0.518321 457.543 120.637)" fill="white"/>
<g opacity="0.21">
<g opacity="0.2" filter="url(#filter6_f_1282_23331)">
<ellipse cx="431.306" cy="119.679" rx="20.101" ry="12.391" fill="#0A0044"/>
</g>
<g opacity="0.45" filter="url(#filter7_f_1282_23331)">
<ellipse cx="431.306" cy="119.679" rx="14.4382" ry="8.90025" fill="#0A0044"/>
</g>
<g opacity="0.4" filter="url(#filter8_f_1282_23331)">
<ellipse cx="431.305" cy="119.679" rx="9.52849" ry="5.87373" fill="#0A0044"/>
</g>
</g>
<circle cx="430.902" cy="99.4465" r="18.7504" transform="rotate(14.8256 430.902 99.4465)" fill="url(#paint62_linear_1282_23331)"/>
<path fill-rule="evenodd" clip-rule="evenodd" d="M429.927 104.29C440.268 107.027 447.342 106.787 450.024 104.06C452.657 94.1124 446.408 83.8297 436.067 81.0925C425.726 78.3552 415.208 84.2 412.575 94.1472C412.93 94.8157 413.652 96.2988 413.652 96.2988C413.652 96.2988 414.106 96.4298 414.265 96.6123C414.826 95.231 416.795 92.8048 420.186 94.1505C423.578 95.4963 424.105 100.249 423.945 102.457C425.693 103.087 427.675 103.694 429.927 104.29Z" fill="#260900"/>
<path fill-rule="evenodd" clip-rule="evenodd" d="M429.931 104.154C440.272 106.891 447.346 106.65 450.028 103.923C452.661 93.9762 446.412 83.6935 436.071 80.9562C425.73 78.219 415.212 84.0638 412.579 94.0109C413.045 94.8871 413.599 95.7055 414.269 96.4761C414.829 95.0947 416.799 92.6686 420.19 94.0143C423.582 95.3601 424.109 100.113 423.949 102.321C425.697 102.951 427.679 103.558 429.931 104.154Z" fill="url(#paint63_radial_1282_23331)"/>
<path fill-rule="evenodd" clip-rule="evenodd" d="M429.931 104.154C440.272 106.891 447.346 106.65 450.028 103.923C452.661 93.9762 446.412 83.6935 436.071 80.9562C425.73 78.219 415.212 84.0638 412.579 94.0109C413.045 94.8871 413.599 95.7055 414.269 96.4761C414.829 95.0947 416.799 92.6686 420.19 94.0143C423.582 95.3601 424.109 100.113 423.949 102.321C425.697 102.951 427.679 103.558 429.931 104.154Z" fill="url(#paint64_linear_1282_23331)"/>
<g opacity="0.3">
<path fill-rule="evenodd" clip-rule="evenodd" d="M419.406 84.0284C423.949 102.321 443.005 78.3262 449.209 92.276C446.975 86.9281 442.255 82.5931 436.071 80.9562C430.044 79.361 423.957 80.6806 419.406 84.0284Z" fill="url(#paint65_radial_1282_23331)"/>
<path fill-rule="evenodd" clip-rule="evenodd" d="M419.406 84.0284C423.949 102.321 443.005 78.3262 449.209 92.276C446.975 86.9281 442.255 82.5931 436.071 80.9562C430.044 79.361 423.957 80.6806 419.406 84.0284Z" fill="white" fill-opacity="0.6"/>
</g>
<path fill-rule="evenodd" clip-rule="evenodd" d="M426.171 117.686C439.057 121.097 446.605 111.502 448.768 106.279C447.498 107.521 444.479 110.363 429.181 106.313C426.998 105.735 425.093 105.146 423.434 104.556C422.685 106.422 420.149 109.427 415.991 106.514C414.38 105.385 412.791 100.326 413.79 99.0527C412.027 97.0085 412.521 95.4947 412.821 95.211C412.498 95.1254 412.145 96.0673 412.009 96.549C411.36 102.174 413.285 114.275 426.171 117.686Z" fill="url(#paint66_linear_1282_23331)"/>
<path fill-rule="evenodd" clip-rule="evenodd" d="M426.08 118.029C438.966 121.439 446.514 111.845 448.678 106.621C447.407 107.863 444.389 110.705 429.09 106.656C426.907 106.078 425.003 105.489 423.343 104.898C422.595 106.765 420.058 109.769 415.9 106.856C414.289 105.727 412.701 100.668 413.7 99.3949C411.936 97.3508 412.43 95.8369 412.731 95.5533C412.407 95.4677 412.054 96.4096 411.918 96.8913C411.27 102.516 413.194 114.618 426.08 118.029Z" fill="url(#paint67_radial_1282_23331)"/>
<ellipse cx="418.449" cy="100.78" rx="2.26429" ry="2.98527" transform="rotate(-2.12353 418.449 100.78)" fill="#551A64"/>
<ellipse cx="418.278" cy="100.735" rx="2.26429" ry="2.98527" transform="rotate(-2.12353 418.278 100.735)" fill="#646464"/>
<ellipse cx="417.967" cy="100.754" rx="2.26429" ry="2.98527" transform="rotate(-2.12353 417.967 100.754)" fill="#E0E0E0"/>
<g opacity="0.4">
<mask id="mask8_1282_23331" style="mask-type:alpha" maskUnits="userSpaceOnUse" x="138" y="400" width="73" height="150">
<rect x="138.096" y="400.409" width="72.5237" height="149.591" fill="url(#paint68_radial_1282_23331)"/>
</mask>
<g mask="url(#mask8_1282_23331)">
<rect opacity="0.5" x="138.096" y="402.36" width="34.9512" height="147.64" fill="url(#paint69_linear_1282_23331)"/>
<rect opacity="0.1" width="34.9512" height="147.64" transform="matrix(-1 0 0 1 210.62 402.36)" fill="url(#paint70_linear_1282_23331)"/>
</g>
</g>
<path d="M152.619 412.501C143.579 406.414 139.059 403.37 138.199 399.714C137.922 398.534 137.922 397.331 138.199 396.151C139.059 392.495 143.579 389.451 152.619 383.364C161.658 377.276 166.178 374.232 171.606 373.653C173.359 373.466 175.145 373.466 176.898 373.653C182.326 374.232 186.846 377.276 195.885 383.364C204.925 389.451 209.445 392.495 210.304 396.151C210.582 397.331 210.582 398.534 210.304 399.714C209.445 403.37 204.925 406.414 195.885 412.501C186.846 418.589 182.326 421.633 176.898 422.211C175.145 422.398 173.359 422.398 171.606 422.211C166.178 421.633 161.658 418.589 152.619 412.501Z" fill="url(#paint71_linear_1282_23331)"/>
<path d="M152.619 412.501C143.579 406.414 139.059 403.37 138.199 399.714C137.922 398.534 137.922 397.331 138.199 396.151C139.059 392.495 143.579 389.451 152.619 383.364C161.658 377.276 166.178 374.232 171.606 373.653C173.359 373.466 175.145 373.466 176.898 373.653C182.326 374.232 186.846 377.276 195.885 383.364C204.925 389.451 209.445 392.495 210.304 396.151C210.582 397.331 210.582 398.534 210.304 399.714C209.445 403.37 204.925 406.414 195.885 412.501C186.846 418.589 182.326 421.633 176.898 422.211C175.145 422.398 173.359 422.398 171.606 422.211C166.178 421.633 161.658 418.589 152.619 412.501Z" fill="white" fill-opacity="0.6"/>
<path d="M137.991 393.909H210.541V397.793H137.991V393.909Z" fill="url(#paint72_linear_1282_23331)"/>
<path d="M137.991 393.909H210.541V397.793H137.991V393.909Z" fill="white" fill-opacity="0.6"/>
<rect width="52.8714" height="52.8714" rx="15.5394" transform="matrix(0.82945 -0.558581 0.82945 0.558581 130.415 393.425)" fill="white"/>
<path d="M416.446 127.347L414 126.43V171.167L416.446 172.085V127.347Z" fill="#C8C8C8"/>
<path d="M416.446 127.347L464.456 99.9174L462.01 99L414 126.43L416.446 127.347Z" fill="url(#paint73_linear_1282_23331)"/>
<path d="M416.446 127.347L464.456 99.9175V144.808L416.446 172.238V127.347Z" fill="#D9D9D9"/>
<path d="M418.587 128.968L462.315 103.893V143.952L418.587 169.027V128.968Z" fill="#7398C2"/>
<path fill-rule="evenodd" clip-rule="evenodd" d="M440.451 116.43L418.587 128.968V169.027L425.773 164.906L440.451 116.43Z" fill="#85B3E7"/>
<path d="M429.596 153.68V134.169L451.307 121.685V141.197L429.596 153.68Z" stroke="#F7FFFF" stroke-width="1.83476"/>
<path d="M441.98 146.551L438.005 143.952L442.439 141.353L446.261 143.952L441.98 146.551Z" fill="#CA4E65"/>
<path d="M441.98 146.551L441.827 151.291L446.261 148.691L446.261 143.952L441.98 146.551Z" fill="#CA4E65"/>
<path d="M441.98 146.551L438.005 143.952V148.233L441.827 150.832L441.98 146.551Z" fill="#A23B4E"/>
<path fill-rule="evenodd" clip-rule="evenodd" d="M453.753 160.464C461.691 160.464 468.125 156.563 468.125 151.749C468.125 146.936 461.691 143.034 453.753 143.034C445.816 143.034 439.381 146.936 439.381 151.749C439.381 156.563 445.816 160.464 453.753 160.464ZM453.753 159.853C461.184 159.853 467.208 156.225 467.208 151.749C467.208 147.274 461.184 143.646 453.753 143.646C446.322 143.646 440.298 147.274 440.298 151.749C440.298 156.225 446.322 159.853 453.753 159.853Z" fill="#EF743D"/>
<path fill-rule="evenodd" clip-rule="evenodd" d="M453.753 161.041C461.691 161.041 468.125 157.139 468.125 152.326C468.125 147.513 461.691 143.611 453.753 143.611C445.816 143.611 439.381 147.513 439.381 152.326C439.381 157.139 445.816 161.041 453.753 161.041ZM453.753 160.429C461.184 160.429 467.208 156.801 467.208 152.326C467.208 147.851 461.184 144.222 453.753 144.222C446.322 144.222 440.298 147.851 440.298 152.326C440.298 156.801 446.322 160.429 453.753 160.429Z" fill="#EF743D"/>
<path fill-rule="evenodd" clip-rule="evenodd" d="M453.753 161.618C461.691 161.618 468.125 157.716 468.125 152.903C468.125 148.089 461.691 144.188 453.753 144.188C445.816 144.188 439.381 148.089 439.381 152.903C439.381 157.716 445.816 161.618 453.753 161.618ZM453.753 161.006C461.184 161.006 467.208 157.378 467.208 152.903C467.208 148.427 461.184 144.799 453.753 144.799C446.322 144.799 440.298 148.427 440.298 152.903C440.298 157.378 446.322 161.006 453.753 161.006Z" fill="#EF743D"/>
<path fill-rule="evenodd" clip-rule="evenodd" d="M453.753 162.194C461.691 162.194 468.125 158.293 468.125 153.479C468.125 148.666 461.691 144.764 453.753 144.764C445.816 144.764 439.381 148.666 439.381 153.479C439.381 158.293 445.816 162.194 453.753 162.194ZM453.753 161.583C461.184 161.583 467.208 157.955 467.208 153.479C467.208 149.004 461.184 145.376 453.753 145.376C446.322 145.376 440.298 149.004 440.298 153.479C440.298 157.955 446.322 161.583 453.753 161.583Z" fill="#EF743D"/>
<path fill-rule="evenodd" clip-rule="evenodd" d="M453.753 162.771C461.691 162.771 468.125 158.869 468.125 154.056C468.125 149.243 461.691 145.341 453.753 145.341C445.816 145.341 439.381 149.243 439.381 154.056C439.381 158.869 445.816 162.771 453.753 162.771ZM453.753 162.159C461.184 162.159 467.208 158.531 467.208 154.056C467.208 149.58 461.184 145.952 453.753 145.952C446.322 145.952 440.298 149.58 440.298 154.056C440.298 158.531 446.322 162.159 453.753 162.159Z" fill="#EF743D"/>
<path fill-rule="evenodd" clip-rule="evenodd" d="M453.753 159.853C461.691 159.853 468.125 155.951 468.125 151.138C468.125 146.325 461.691 142.423 453.753 142.423C445.816 142.423 439.381 146.325 439.381 151.138C439.381 155.951 445.816 159.853 453.753 159.853ZM453.753 159.241C461.184 159.241 467.208 155.613 467.208 151.138C467.208 146.663 461.184 143.034 453.753 143.034C446.322 143.034 440.298 146.663 440.298 151.138C440.298 155.613 446.322 159.241 453.753 159.241Z" fill="#EFA84E"/>
<g opacity="0.2" filter="url(#filter9_f_1282_23331)">
<path d="M167.821 232.487C183.671 222.881 191.596 218.077 193.103 212.309C193.59 210.446 193.59 208.548 193.103 206.685C191.596 200.916 183.671 196.113 167.821 186.506C151.97 176.899 144.045 172.096 134.527 171.182C131.454 170.887 128.322 170.887 125.248 171.182C115.731 172.096 107.806 176.899 91.9554 186.506C76.1052 196.113 68.1801 200.916 66.6726 206.685C66.1858 208.548 66.1858 210.446 66.6726 212.309C68.1801 218.077 76.1052 222.881 91.9554 232.487C107.806 242.094 115.731 246.897 125.248 247.811C128.322 248.106 131.454 248.106 134.527 247.811C144.045 246.897 151.97 242.094 167.821 232.487Z" fill="#3707AB"/>
<path d="M193.469 203.147H66.2585V209.277H193.469V203.147Z" fill="#3707AB"/>
</g>
<path d="M173.821 207.487C189.671 197.881 197.596 193.077 199.103 187.309C199.59 185.446 199.59 183.548 199.103 181.685C197.596 175.916 189.671 171.113 173.821 161.506C157.97 151.899 150.045 147.096 140.527 146.182C137.454 145.887 134.322 145.887 131.248 146.182C121.731 147.096 113.806 151.899 97.9554 161.506C82.1052 171.113 74.1801 175.916 72.6726 181.685C72.1858 183.548 72.1858 185.446 72.6726 187.309C74.1801 193.077 82.1052 197.881 97.9554 207.487C113.806 217.094 121.731 221.897 131.248 222.811C134.322 223.106 137.454 223.106 140.527 222.811C150.045 221.897 157.97 217.094 173.821 207.487Z" fill="url(#paint74_linear_1282_23331)"/>
<path d="M173.821 207.487C189.671 197.881 197.596 193.077 199.103 187.309C199.59 185.446 199.59 183.548 199.103 181.685C197.596 175.916 189.671 171.113 173.821 161.506C157.97 151.899 150.045 147.096 140.527 146.182C137.454 145.887 134.322 145.887 131.248 146.182C121.731 147.096 113.806 151.899 97.9554 161.506C82.1052 171.113 74.1801 175.916 72.6726 181.685C72.1858 183.548 72.1858 185.446 72.6726 187.309C74.1801 193.077 82.1052 197.881 97.9554 207.487C113.806 217.094 121.731 221.897 131.248 222.811C134.322 223.106 137.454 223.106 140.527 222.811C150.045 221.897 157.97 217.094 173.821 207.487Z" fill="white" fill-opacity="0.6"/>
<path d="M199.469 178.147H72.2585V184.277H199.469V178.147Z" fill="url(#paint75_linear_1282_23331)"/>
<path d="M199.469 178.147H72.2585V184.277H199.469V178.147Z" fill="white" fill-opacity="0.6"/>
<rect width="88.7119" height="88.7119" rx="24.5224" transform="matrix(-0.855186 -0.518321 -0.855186 0.518321 211.721 177.385)" fill="white"/>
<g opacity="0.5" filter="url(#filter10_f_1282_23331)">
<ellipse cx="141.167" cy="183.122" rx="29.2" ry="14.6" fill="url(#paint76_radial_1282_23331)"/>
</g>
<circle cx="143.167" cy="152.622" r="36.5" fill="url(#paint77_radial_1282_23331)"/>
<g filter="url(#filter11_f_1282_23331)">
<path fill-rule="evenodd" clip-rule="evenodd" d="M106.885 148.608C117.151 142.553 123.689 139.39 131.226 138.667C134.3 138.372 137.431 138.372 140.505 138.667C150.022 139.58 157.948 144.384 173.798 153.99C175.774 155.188 177.627 156.311 179.36 157.371C177.033 175.286 161.715 189.122 143.167 189.122C123.008 189.122 106.667 172.78 106.667 152.622C106.667 151.266 106.741 149.926 106.885 148.608Z" fill="#ACFFC9"/>
<path fill-rule="evenodd" clip-rule="evenodd" d="M106.885 148.608C106.741 149.926 106.667 151.266 106.667 152.622C106.667 172.78 123.008 189.122 143.167 189.122C161.715 189.122 177.033 175.286 179.36 157.371C177.627 156.311 175.774 155.188 173.798 153.99C157.948 144.384 150.022 139.58 140.505 138.667C137.431 138.372 134.3 138.372 131.226 138.667C123.689 139.39 117.151 142.553 106.885 148.608Z" fill="#ACFFC9"/>
</g>
<path opacity="0.4" fill-rule="evenodd" clip-rule="evenodd" d="M143.167 116.122C123.008 116.122 106.667 132.464 106.667 152.622C110.167 169.122 137.167 168.622 146.167 146.622C153.367 129.022 168.147 130.955 174.638 134.122C168.292 123.35 156.573 116.122 143.167 116.122Z" fill="url(#paint78_radial_1282_23331)"/>
<g opacity="0.3" filter="url(#filter12_f_1282_23331)">
<ellipse cx="173.052" cy="393.699" rx="18.118" ry="9.05899" fill="url(#paint79_radial_1282_23331)"/>
</g>
<circle cx="173.647" cy="371.647" r="22.6475" fill="url(#paint80_radial_1282_23331)"/>
<defs>
<filter id="filter0_f_1282_23331" x="309.56" y="287.614" width="173.44" height="112.008" filterUnits="userSpaceOnUse" color-interpolation-filters="sRGB">
<feFlood flood-opacity="0" result="BackgroundImageFix"/>
<feBlend mode="normal" in="SourceGraphic" in2="BackgroundImageFix" result="shape"/>
<feGaussianBlur stdDeviation="2.5" result="effect1_foregroundBlur_1282_23331"/>
</filter>
<filter id="filter1_f_1282_23331" x="184" y="105.288" width="32" height="20" filterUnits="userSpaceOnUse" color-interpolation-filters="sRGB">
<feFlood flood-opacity="0" result="BackgroundImageFix"/>
<feBlend mode="normal" in="SourceGraphic" in2="BackgroundImageFix" result="shape"/>
<feGaussianBlur stdDeviation="2" result="effect1_foregroundBlur_1282_23331"/>
</filter>
<filter id="filter2_f_1282_23331" x="184" y="105.288" width="32" height="20" filterUnits="userSpaceOnUse" color-interpolation-filters="sRGB">
<feFlood flood-opacity="0" result="BackgroundImageFix"/>
<feBlend mode="normal" in="SourceGraphic" in2="BackgroundImageFix" result="shape"/>
<feGaussianBlur stdDeviation="2" result="effect1_foregroundBlur_1282_23331"/>
</filter>
<filter id="filter3_f_1282_23331" x="170.884" y="151.695" width="246.995" height="167.74" filterUnits="userSpaceOnUse" color-interpolation-filters="sRGB">
<feFlood flood-opacity="0" result="BackgroundImageFix"/>
<feBlend mode="normal" in="SourceGraphic" in2="BackgroundImageFix" result="shape"/>
<feGaussianBlur stdDeviation="11.5" result="effect1_foregroundBlur_1282_23331"/>
</filter>
<filter id="filter4_f_1282_23331" x="225.494" y="142.08" width="139.477" height="86.0981" filterUnits="userSpaceOnUse" color-interpolation-filters="sRGB">
<feFlood flood-opacity="0" result="BackgroundImageFix"/>
<feBlend mode="normal" in="SourceGraphic" in2="BackgroundImageFix" result="shape"/>
<feGaussianBlur stdDeviation="1" result="effect1_foregroundBlur_1282_23331"/>
</filter>
<filter id="filter5_f_1282_23331" x="330.141" y="309.217" width="77.7174" height="50.7174" filterUnits="userSpaceOnUse" color-interpolation-filters="sRGB">
<feFlood flood-opacity="0" result="BackgroundImageFix"/>
<feBlend mode="normal" in="SourceGraphic" in2="BackgroundImageFix" result="shape"/>
<feGaussianBlur stdDeviation="2.92935" result="effect1_foregroundBlur_1282_23331"/>
</filter>
<filter id="filter6_f_1282_23331" x="406.248" y="102.331" width="50.1149" height="34.6951" filterUnits="userSpaceOnUse" color-interpolation-filters="sRGB">
<feFlood flood-opacity="0" result="BackgroundImageFix"/>
<feBlend mode="normal" in="SourceGraphic" in2="BackgroundImageFix" result="shape"/>
<feGaussianBlur stdDeviation="2.47821" result="effect1_foregroundBlur_1282_23331"/>
</filter>
<filter id="filter7_f_1282_23331" x="413.307" y="107.218" width="35.9965" height="24.9205" filterUnits="userSpaceOnUse" color-interpolation-filters="sRGB">
<feFlood flood-opacity="0" result="BackgroundImageFix"/>
<feBlend mode="normal" in="SourceGraphic" in2="BackgroundImageFix" result="shape"/>
<feGaussianBlur stdDeviation="1.78005" result="effect1_foregroundBlur_1282_23331"/>
</filter>
<filter id="filter8_f_1282_23331" x="419.427" y="111.456" width="23.756" height="16.4465" filterUnits="userSpaceOnUse" color-interpolation-filters="sRGB">
<feFlood flood-opacity="0" result="BackgroundImageFix"/>
<feBlend mode="normal" in="SourceGraphic" in2="BackgroundImageFix" result="shape"/>
<feGaussianBlur stdDeviation="1.17475" result="effect1_foregroundBlur_1282_23331"/>
</filter>
<filter id="filter9_f_1282_23331" x="58.2584" y="162.961" width="143.21" height="93.0713" filterUnits="userSpaceOnUse" color-interpolation-filters="sRGB">
<feFlood flood-opacity="0" result="BackgroundImageFix"/>
<feBlend mode="normal" in="SourceGraphic" in2="BackgroundImageFix" result="shape"/>
<feGaussianBlur stdDeviation="4" result="effect1_foregroundBlur_1282_23331"/>
</filter>
<filter id="filter10_f_1282_23331" x="103.967" y="160.522" width="74.4" height="45.2002" filterUnits="userSpaceOnUse" color-interpolation-filters="sRGB">
<feFlood flood-opacity="0" result="BackgroundImageFix"/>
<feBlend mode="normal" in="SourceGraphic" in2="BackgroundImageFix" result="shape"/>
<feGaussianBlur stdDeviation="4" result="effect1_foregroundBlur_1282_23331"/>
</filter>
<filter id="filter11_f_1282_23331" x="104.667" y="136.445" width="76.6938" height="54.6768" filterUnits="userSpaceOnUse" color-interpolation-filters="sRGB">
<feFlood flood-opacity="0" result="BackgroundImageFix"/>
<feBlend mode="normal" in="SourceGraphic" in2="BackgroundImageFix" result="shape"/>
<feGaussianBlur stdDeviation="1" result="effect1_foregroundBlur_1282_23331"/>
</filter>
<filter id="filter12_f_1282_23331" x="152.55" y="382.256" width="41.0038" height="22.8861" filterUnits="userSpaceOnUse" color-interpolation-filters="sRGB">
<feFlood flood-opacity="0" result="BackgroundImageFix"/>
<feBlend mode="normal" in="SourceGraphic" in2="BackgroundImageFix" result="shape"/>
<feGaussianBlur stdDeviation="1.19197" result="effect1_foregroundBlur_1282_23331"/>
</filter>
<radialGradient id="paint0_radial_1282_23331" cx="0" cy="0" r="1" gradientUnits="userSpaceOnUse" gradientTransform="translate(15.9318) rotate(90.0757) scale(143.642 75.6806)">
<stop stop-opacity="0"/>
<stop offset="0.221563"/>
<stop offset="1" stop-opacity="0"/>
</radialGradient>
<linearGradient id="paint1_linear_1282_23331" x1="15.1731" y1="39.6578" x2="-9.56921e-07" y2="39.6578" gradientUnits="userSpaceOnUse">
<stop stop-color="white" stop-opacity="0"/>
<stop offset="1" stop-color="white"/>
</linearGradient>
<linearGradient id="paint2_linear_1282_23331" x1="199.207" y1="158.591" x2="184.034" y2="158.591" gradientUnits="userSpaceOnUse">
<stop stop-color="white" stop-opacity="0"/>
<stop offset="1" stop-color="white"/>
</linearGradient>
<linearGradient id="paint3_linear_1282_23331" x1="215.519" y1="117.374" x2="184.034" y2="117.374" gradientUnits="userSpaceOnUse">
<stop stop-color="#E3E3E3"/>
<stop offset="0.21988" stop-color="#99C2FF"/>
<stop offset="0.512048" stop-color="#F48DA5"/>
<stop offset="0.75" stop-color="#A699DC"/>
<stop offset="1" stop-color="#E3E3E3"/>
</linearGradient>
<linearGradient id="paint4_linear_1282_23331" x1="215.519" y1="117.374" x2="184.034" y2="117.374" gradientUnits="userSpaceOnUse">
<stop stop-color="#E3E3E3"/>
<stop offset="0.21988" stop-color="#99C2FF"/>
<stop offset="0.512048" stop-color="#F48DA5"/>
<stop offset="0.75" stop-color="#A699DC"/>
<stop offset="1" stop-color="#E3E3E3"/>
</linearGradient>
<radialGradient id="paint5_radial_1282_23331" cx="0" cy="0" r="1" gradientUnits="userSpaceOnUse" gradientTransform="translate(6.71241) rotate(90.0757) scale(60.5197 31.8858)">
<stop stop-opacity="0"/>
<stop offset="0.221563"/>
<stop offset="1" stop-opacity="0"/>
</radialGradient>
<linearGradient id="paint6_linear_1282_23331" x1="6.39278" y1="16.7087" x2="-4.03171e-07" y2="16.7087" gradientUnits="userSpaceOnUse">
<stop stop-color="white" stop-opacity="0"/>
<stop offset="1" stop-color="white"/>
</linearGradient>
<linearGradient id="paint7_linear_1282_23331" x1="408.671" y1="449.166" x2="402.279" y2="449.166" gradientUnits="userSpaceOnUse">
<stop stop-color="white" stop-opacity="0"/>
<stop offset="1" stop-color="white"/>
</linearGradient>
<linearGradient id="paint8_linear_1282_23331" x1="415.544" y1="431.801" x2="402.279" y2="431.801" gradientUnits="userSpaceOnUse">
<stop stop-color="#E3E3E3"/>
<stop offset="0.21988" stop-color="#99C2FF"/>
<stop offset="0.512048" stop-color="#F48DA5"/>
<stop offset="0.75" stop-color="#A699DC"/>
<stop offset="1" stop-color="#E3E3E3"/>
</linearGradient>
<linearGradient id="paint9_linear_1282_23331" x1="415.544" y1="431.801" x2="402.279" y2="431.801" gradientUnits="userSpaceOnUse">
<stop stop-color="#E3E3E3"/>
<stop offset="0.21988" stop-color="#99C2FF"/>
<stop offset="0.512048" stop-color="#F48DA5"/>
<stop offset="0.75" stop-color="#A699DC"/>
<stop offset="1" stop-color="#E3E3E3"/>
</linearGradient>
<radialGradient id="paint10_radial_1282_23331" cx="0" cy="0" r="1" gradientUnits="userSpaceOnUse" gradientTransform="translate(6.71241) rotate(90.0757) scale(60.5197 31.8858)">
<stop stop-opacity="0"/>
<stop offset="0.221563"/>
<stop offset="1" stop-opacity="0"/>
</radialGradient>
<linearGradient id="paint11_linear_1282_23331" x1="6.39278" y1="16.7087" x2="-4.03171e-07" y2="16.7087" gradientUnits="userSpaceOnUse">
<stop stop-color="white" stop-opacity="0"/>
<stop offset="1" stop-color="white"/>
</linearGradient>
<linearGradient id="paint12_linear_1282_23331" x1="373.671" y1="74.1662" x2="367.279" y2="74.1662" gradientUnits="userSpaceOnUse">
<stop stop-color="white" stop-opacity="0"/>
<stop offset="1" stop-color="white"/>
</linearGradient>
<linearGradient id="paint13_linear_1282_23331" x1="380.544" y1="56.8012" x2="367.279" y2="56.8012" gradientUnits="userSpaceOnUse">
<stop stop-color="#E3E3E3"/>
<stop offset="0.21988" stop-color="#99C2FF"/>
<stop offset="0.512048" stop-color="#F48DA5"/>
<stop offset="0.75" stop-color="#A699DC"/>
<stop offset="1" stop-color="#E3E3E3"/>
</linearGradient>
<linearGradient id="paint14_linear_1282_23331" x1="380.544" y1="56.8012" x2="367.279" y2="56.8012" gradientUnits="userSpaceOnUse">
<stop stop-color="#E3E3E3"/>
<stop offset="0.21988" stop-color="#99C2FF"/>
<stop offset="0.512048" stop-color="#F48DA5"/>
<stop offset="0.75" stop-color="#A699DC"/>
<stop offset="1" stop-color="#E3E3E3"/>
</linearGradient>
<radialGradient id="paint15_radial_1282_23331" cx="0" cy="0" r="1" gradientUnits="userSpaceOnUse" gradientTransform="translate(410.279 358.313) rotate(90.4886) scale(133.692 454.898)">
<stop stop-opacity="0"/>
<stop offset="0.221563"/>
<stop offset="1" stop-opacity="0"/>
</radialGradient>
<linearGradient id="paint16_linear_1282_23331" x1="405.72" y1="396.964" x2="314.515" y2="396.964" gradientUnits="userSpaceOnUse">
<stop stop-color="white" stop-opacity="0"/>
<stop offset="1" stop-color="white"/>
</linearGradient>
<linearGradient id="paint17_linear_1282_23331" x1="91" y1="37.3784" x2="-5.73907e-06" y2="37.3784" gradientUnits="userSpaceOnUse">
<stop stop-color="white" stop-opacity="0"/>
<stop offset="1" stop-color="white"/>
</linearGradient>
<linearGradient id="paint18_linear_1282_23331" x1="314.512" y1="360.198" x2="503.763" y2="360.198" gradientUnits="userSpaceOnUse">
<stop stop-color="#E3E3E3"/>
<stop offset="0.21988" stop-color="#99C2FF"/>
<stop offset="0.512048" stop-color="#F48DA5"/>
<stop offset="0.75" stop-color="#A699DC"/>
<stop offset="1" stop-color="#E3E3E3"/>
</linearGradient>
<linearGradient id="paint19_linear_1282_23331" x1="314.512" y1="360.198" x2="503.763" y2="360.198" gradientUnits="userSpaceOnUse">
<stop stop-color="#E3E3E3"/>
<stop offset="0.21988" stop-color="#99C2FF"/>
<stop offset="0.512048" stop-color="#F48DA5"/>
<stop offset="0.75" stop-color="#A699DC"/>
<stop offset="1" stop-color="#E3E3E3"/>
</linearGradient>
<radialGradient id="paint20_radial_1282_23331" cx="0" cy="0" r="1" gradientUnits="userSpaceOnUse" gradientTransform="translate(88.5184 301.739) rotate(90.0757) scale(117.526 61.9205)">
<stop stop-opacity="0"/>
<stop offset="0.221563"/>
<stop offset="1" stop-opacity="0"/>
</radialGradient>
<linearGradient id="paint21_linear_1282_23331" x1="87.8978" y1="335.718" x2="75.4834" y2="335.718" gradientUnits="userSpaceOnUse">
<stop stop-color="white" stop-opacity="0"/>
<stop offset="1" stop-color="white"/>
</linearGradient>
<linearGradient id="paint22_linear_1282_23331" x1="12.4144" y1="32.4473" x2="-7.82937e-07" y2="32.4473" gradientUnits="userSpaceOnUse">
<stop stop-color="white" stop-opacity="0"/>
<stop offset="1" stop-color="white"/>
</linearGradient>
<linearGradient id="paint23_linear_1282_23331" x1="75.483" y1="301.995" x2="101.243" y2="301.995" gradientUnits="userSpaceOnUse">
<stop stop-color="#E3E3E3"/>
<stop offset="0.21988" stop-color="#99C2FF"/>
<stop offset="0.512048" stop-color="#F48DA5"/>
<stop offset="0.75" stop-color="#A699DC"/>
<stop offset="1" stop-color="#E3E3E3"/>
</linearGradient>
<linearGradient id="paint24_linear_1282_23331" x1="75.483" y1="301.995" x2="101.243" y2="301.995" gradientUnits="userSpaceOnUse">
<stop stop-color="#E3E3E3"/>
<stop offset="0.21988" stop-color="#99C2FF"/>
<stop offset="0.512048" stop-color="#F48DA5"/>
<stop offset="0.75" stop-color="#A699DC"/>
<stop offset="1" stop-color="#E3E3E3"/>
</linearGradient>
<radialGradient id="paint25_radial_1282_23331" cx="0" cy="0" r="1" gradientUnits="userSpaceOnUse" gradientTransform="translate(201.5 113.788) rotate(101.31) scale(7.64853 42.6126)">
<stop stop-color="white"/>
<stop offset="1" stop-color="#FFEA35"/>
</radialGradient>
<radialGradient id="paint26_radial_1282_23331" cx="0" cy="0" r="1" gradientUnits="userSpaceOnUse" gradientTransform="translate(195 93.2881) rotate(65.556) scale(24.1661 17.6404)">
<stop stop-color="#FFF3D5"/>
<stop offset="0.701245" stop-color="#F9E000"/>
<stop offset="0.933192" stop-color="#FFBA07"/>
<stop offset="0.996209" stop-color="#FFCE4F"/>
</radialGradient>
<radialGradient id="paint27_radial_1282_23331" cx="0" cy="0" r="1" gradientUnits="userSpaceOnUse" gradientTransform="translate(201.5 113.788) rotate(101.31) scale(7.64853 42.6126)">
<stop stop-color="white"/>
<stop offset="1" stop-color="#FFEA35"/>
</radialGradient>
<radialGradient id="paint28_radial_1282_23331" cx="0" cy="0" r="1" gradientUnits="userSpaceOnUse" gradientTransform="translate(195 93.2881) rotate(65.556) scale(24.1661 17.6404)">
<stop stop-color="#FFF3D5"/>
<stop offset="0.701245" stop-color="#F9E000"/>
<stop offset="0.933192" stop-color="#FFBA07"/>
<stop offset="0.996209" stop-color="#FFCE4F"/>
</radialGradient>
<radialGradient id="paint29_radial_1282_23331" cx="0" cy="0" r="1" gradientUnits="userSpaceOnUse" gradientTransform="translate(302.601 259.46) rotate(90.438) scale(290.549 886.276)">
<stop stop-opacity="0"/>
<stop offset="0.221563"/>
<stop offset="1" stop-opacity="0"/>
</radialGradient>
<linearGradient id="paint30_linear_1282_23331" x1="293.717" y1="343.464" x2="116.023" y2="343.464" gradientUnits="userSpaceOnUse">
<stop stop-color="white" stop-opacity="0"/>
<stop offset="1" stop-color="white"/>
</linearGradient>
<linearGradient id="paint31_linear_1282_23331" x1="177.694" y1="464.435" x2="-1.12066e-05" y2="464.435" gradientUnits="userSpaceOnUse">
<stop stop-color="white" stop-opacity="0"/>
<stop offset="1" stop-color="white"/>
</linearGradient>
<linearGradient id="paint32_linear_1282_23331" x1="116.023" y1="276.543" x2="484.738" y2="276.543" gradientUnits="userSpaceOnUse">
<stop stop-color="#E3E3E3"/>
<stop offset="0.21988" stop-color="#99C2FF"/>
<stop offset="0.512048" stop-color="#F48DA5"/>
<stop offset="0.75" stop-color="#A699DC"/>
<stop offset="1" stop-color="#E3E3E3"/>
</linearGradient>
<linearGradient id="paint33_linear_1282_23331" x1="116.023" y1="276.543" x2="484.738" y2="276.543" gradientUnits="userSpaceOnUse">
<stop stop-color="#E3E3E3"/>
<stop offset="0.21988" stop-color="#99C2FF"/>
<stop offset="0.512048" stop-color="#F48DA5"/>
<stop offset="0.75" stop-color="#A699DC"/>
<stop offset="1" stop-color="#E3E3E3"/>
</linearGradient>
<linearGradient id="paint34_linear_1282_23331" x1="171.865" y1="264.124" x2="372.386" y2="136.876" gradientUnits="userSpaceOnUse">
<stop stop-color="#BAACF4"/>
<stop offset="0.333184" stop-color="#462EA4"/>
</linearGradient>
<linearGradient id="paint35_linear_1282_23331" x1="171.866" y1="230.702" x2="372.387" y2="103.455" gradientUnits="userSpaceOnUse">
<stop stop-color="#BAACF4"/>
<stop offset="0.333184" stop-color="#462EA4"/>
</linearGradient>
<radialGradient id="paint36_radial_1282_23331" cx="0" cy="0" r="1" gradientUnits="userSpaceOnUse" gradientTransform="translate(401.5 163.788) rotate(161.646) scale(223.889 446.532)">
<stop stop-color="#8D74EC"/>
<stop offset="0.492338" stop-color="#6F55D6"/>
<stop offset="1" stop-color="#FAF9FF"/>
</radialGradient>
<linearGradient id="paint37_linear_1282_23331" x1="172" y1="216.101" x2="372.521" y2="88.8536" gradientUnits="userSpaceOnUse">
<stop stop-color="#A699DC"/>
<stop offset="1" stop-color="#644CC1"/>
</linearGradient>
<linearGradient id="paint38_linear_1282_23331" x1="172" y1="216.101" x2="372.521" y2="88.8536" gradientUnits="userSpaceOnUse">
<stop stop-color="#C7BAFF"/>
<stop offset="1" stop-color="#644CC1"/>
</linearGradient>
<linearGradient id="paint39_linear_1282_23331" x1="342" y1="152.288" x2="367" y2="155.788" gradientUnits="userSpaceOnUse">
<stop stop-color="#8D1F1F"/>
<stop offset="0.225064" stop-color="#C33E3E"/>
<stop offset="0.587534" stop-color="#8D1F1F"/>
</linearGradient>
<radialGradient id="paint40_radial_1282_23331" cx="0" cy="0" r="1" gradientUnits="userSpaceOnUse" gradientTransform="translate(336.5 157.52) rotate(154.654) scale(10.5119 11.7812)">
<stop offset="0.265212" stop-color="#EABEFF"/>
<stop offset="0.853788" stop-color="#C659FB"/>
</radialGradient>
<radialGradient id="paint41_radial_1282_23331" cx="0" cy="0" r="1" gradientUnits="userSpaceOnUse" gradientTransform="translate(318.552 145.233) scale(20.611 23.0997)">
<stop offset="0.265212" stop-color="#38B781"/>
<stop offset="0.853788" stop-color="#96FFD9"/>
</radialGradient>
<radialGradient id="paint42_radial_1282_23331" cx="0" cy="0" r="1" gradientUnits="userSpaceOnUse" gradientTransform="translate(361.63 157.52) rotate(154.654) scale(10.5119 11.7812)">
<stop offset="0.265212" stop-color="#A2C7FF"/>
<stop offset="0.853788" stop-color="#70A9FF"/>
</radialGradient>
<radialGradient id="paint43_radial_1282_23331" cx="0" cy="0" r="1" gradientUnits="userSpaceOnUse" gradientTransform="translate(361.629 142.289) rotate(154.654) scale(10.5119 11.7812)">
<stop offset="0.265212" stop-color="#FFA6A6"/>
<stop offset="0.853788" stop-color="#DF5A5A"/>
</radialGradient>
<linearGradient id="paint44_linear_1282_23331" x1="286" y1="192.288" x2="296" y2="192.288" gradientUnits="userSpaceOnUse">
<stop stop-color="#D5CAFF"/>
<stop offset="1" stop-color="white"/>
</linearGradient>
<linearGradient id="paint45_linear_1282_23331" x1="304.848" y1="180.865" x2="314.848" y2="180.865" gradientUnits="userSpaceOnUse">
<stop stop-color="#D5CAFF"/>
<stop offset="1" stop-color="white"/>
</linearGradient>
<linearGradient id="paint46_linear_1282_23331" x1="369" y1="315.076" x2="369" y2="354.076" gradientUnits="userSpaceOnUse">
<stop stop-color="#BBB1DF" stop-opacity="0"/>
<stop offset="1" stop-color="#BBB1DF"/>
</linearGradient>
<radialGradient id="paint47_radial_1282_23331" cx="0" cy="0" r="1" gradientUnits="userSpaceOnUse" gradientTransform="translate(367.373 271.889) rotate(78.052) scale(57.063 63.9077)">
<stop stop-color="white"/>
<stop offset="0.745164" stop-color="#D8D8D8"/>
<stop offset="0.856282" stop-color="#A2A2A2"/>
<stop offset="1" stop-color="#A2A2A2"/>
</radialGradient>
<radialGradient id="paint48_radial_1282_23331" cx="0" cy="0" r="1" gradientUnits="userSpaceOnUse" gradientTransform="translate(365.483 278.032) rotate(87.4687) scale(45.6781 46.5532)">
<stop stop-color="#9B9B9B"/>
<stop offset="0.665293" stop-color="#121212"/>
</radialGradient>
<radialGradient id="paint49_radial_1282_23331" cx="0" cy="0" r="1" gradientUnits="userSpaceOnUse" gradientTransform="translate(365.483 278.032) rotate(87.4687) scale(45.6781 46.5532)">
<stop stop-color="#9B9B9B"/>
<stop offset="0.665293" stop-color="#121212"/>
</radialGradient>
<radialGradient id="paint50_radial_1282_23331" cx="0" cy="0" r="1" gradientUnits="userSpaceOnUse" gradientTransform="translate(365.483 278.032) rotate(87.4687) scale(45.6781 46.5532)">
<stop stop-color="#9B9B9B"/>
<stop offset="0.665293" stop-color="#121212"/>
</radialGradient>
<radialGradient id="paint51_radial_1282_23331" cx="0" cy="0" r="1" gradientUnits="userSpaceOnUse" gradientTransform="translate(365.483 278.032) rotate(87.4687) scale(45.6781 46.5532)">
<stop stop-color="#9B9B9B"/>
<stop offset="0.665293" stop-color="#121212"/>
</radialGradient>
<radialGradient id="paint52_radial_1282_23331" cx="0" cy="0" r="1" gradientUnits="userSpaceOnUse" gradientTransform="translate(365.483 278.032) rotate(87.4687) scale(45.6781 46.5532)">
<stop stop-color="#9B9B9B"/>
<stop offset="0.665293" stop-color="#121212"/>
</radialGradient>
<radialGradient id="paint53_radial_1282_23331" cx="0" cy="0" r="1" gradientUnits="userSpaceOnUse" gradientTransform="translate(365.483 278.032) rotate(87.4687) scale(45.6781 46.5532)">
<stop stop-color="#9B9B9B"/>
<stop offset="0.665293" stop-color="#121212"/>
</radialGradient>
<radialGradient id="paint54_radial_1282_23331" cx="0" cy="0" r="1" gradientUnits="userSpaceOnUse" gradientTransform="translate(365.483 278.032) rotate(87.4687) scale(45.6781 46.5532)">
<stop stop-color="#9B9B9B"/>
<stop offset="0.665293" stop-color="#121212"/>
</radialGradient>
<radialGradient id="paint55_radial_1282_23331" cx="0" cy="0" r="1" gradientUnits="userSpaceOnUse" gradientTransform="translate(365.483 278.032) rotate(87.4687) scale(45.6781 46.5532)">
<stop stop-color="#9B9B9B"/>
<stop offset="0.665293" stop-color="#121212"/>
</radialGradient>
<radialGradient id="paint56_radial_1282_23331" cx="0" cy="0" r="1" gradientUnits="userSpaceOnUse" gradientTransform="translate(365.483 278.032) rotate(87.4687) scale(45.6781 46.5532)">
<stop stop-color="#9B9B9B"/>
<stop offset="0.665293" stop-color="#121212"/>
</radialGradient>
<radialGradient id="paint57_radial_1282_23331" cx="0" cy="0" r="1" gradientUnits="userSpaceOnUse" gradientTransform="translate(23.1402 1.37994e-06) rotate(90.0757) scale(208.634 109.922)">
<stop stop-opacity="0"/>
<stop offset="0.221563"/>
<stop offset="1" stop-opacity="0"/>
</radialGradient>
<linearGradient id="paint58_linear_1282_23331" x1="22.0383" y1="57.6011" x2="-1.38988e-06" y2="57.6011" gradientUnits="userSpaceOnUse">
<stop stop-color="white" stop-opacity="0"/>
<stop offset="1" stop-color="white"/>
</linearGradient>
<linearGradient id="paint59_linear_1282_23331" x1="429.445" y1="182.981" x2="407.406" y2="182.981" gradientUnits="userSpaceOnUse">
<stop stop-color="white" stop-opacity="0"/>
<stop offset="1" stop-color="white"/>
</linearGradient>
<linearGradient id="paint60_linear_1282_23331" x1="453.137" y1="123.115" x2="407.407" y2="123.115" gradientUnits="userSpaceOnUse">
<stop stop-color="#E3E3E3"/>
<stop offset="0.21988" stop-color="#99C2FF"/>
<stop offset="0.512048" stop-color="#F48DA5"/>
<stop offset="0.75" stop-color="#A699DC"/>
<stop offset="1" stop-color="#E3E3E3"/>
</linearGradient>
<linearGradient id="paint61_linear_1282_23331" x1="453.137" y1="123.115" x2="407.407" y2="123.115" gradientUnits="userSpaceOnUse">
<stop stop-color="#E3E3E3"/>
<stop offset="0.21988" stop-color="#99C2FF"/>
<stop offset="0.512048" stop-color="#F48DA5"/>
<stop offset="0.75" stop-color="#A699DC"/>
<stop offset="1" stop-color="#E3E3E3"/>
</linearGradient>
<linearGradient id="paint62_linear_1282_23331" x1="407.626" y1="100.862" x2="452.64" y2="102.31" gradientUnits="userSpaceOnUse">
<stop stop-color="#040404"/>
<stop offset="0.23396" stop-color="#353535"/>
<stop offset="1" stop-color="#1A1A1A"/>
</linearGradient>
<radialGradient id="paint63_radial_1282_23331" cx="0" cy="0" r="1" gradientUnits="userSpaceOnUse" gradientTransform="translate(432.841 86.0755) rotate(97.5946) scale(11.7288 13.5363)">
<stop stop-color="#FF88AC"/>
<stop offset="1" stop-color="#FF3B75"/>
</radialGradient>
<linearGradient id="paint64_linear_1282_23331" x1="411.544" y1="89.5" x2="452.544" y2="102" gradientUnits="userSpaceOnUse">
<stop stop-color="#FF86AA"/>
<stop offset="0.484419" stop-color="#CC2F5E" stop-opacity="0"/>
<stop offset="1" stop-color="#9F0030"/>
</linearGradient>
<radialGradient id="paint65_radial_1282_23331" cx="0" cy="0" r="1" gradientUnits="userSpaceOnUse" gradientTransform="translate(432.841 86.0755) rotate(97.5946) scale(11.7288 13.5363)">
<stop stop-color="#FFA488"/>
<stop offset="1" stop-color="#FF693B"/>
</radialGradient>
<linearGradient id="paint66_linear_1282_23331" x1="411.514" y1="95.9612" x2="430.158" y2="112.973" gradientUnits="userSpaceOnUse">
<stop stop-color="#43115A"/>
<stop offset="1" stop-color="#43115A" stop-opacity="0"/>
</linearGradient>
<radialGradient id="paint67_radial_1282_23331" cx="0" cy="0" r="1" gradientUnits="userSpaceOnUse" gradientTransform="translate(427.834 104.11) rotate(81.6671) scale(14.9343 21.9434)">
<stop offset="0.287815" stop-color="#EDEDED"/>
<stop offset="1" stop-color="#CACACA"/>
</radialGradient>
<radialGradient id="paint68_radial_1282_23331" cx="0" cy="0" r="1" gradientUnits="userSpaceOnUse" gradientTransform="translate(174.795 400.409) rotate(90.1673) scale(149.591 174.329)">
<stop stop-opacity="0"/>
<stop offset="0.221563"/>
<stop offset="1" stop-opacity="0"/>
</radialGradient>
<linearGradient id="paint69_linear_1282_23331" x1="173.047" y1="443.66" x2="138.096" y2="443.66" gradientUnits="userSpaceOnUse">
<stop stop-color="white" stop-opacity="0"/>
<stop offset="1" stop-color="white"/>
</linearGradient>
<linearGradient id="paint70_linear_1282_23331" x1="34.9512" y1="41.3001" x2="-2.20426e-06" y2="41.3001" gradientUnits="userSpaceOnUse">
<stop stop-color="white" stop-opacity="0"/>
<stop offset="1" stop-color="white"/>
</linearGradient>
<linearGradient id="paint71_linear_1282_23331" x1="137.991" y1="397.793" x2="210.541" y2="397.793" gradientUnits="userSpaceOnUse">
<stop stop-color="#E3E3E3"/>
<stop offset="0.21988" stop-color="#99C2FF"/>
<stop offset="0.512048" stop-color="#F48DA5"/>
<stop offset="0.75" stop-color="#A699DC"/>
<stop offset="1" stop-color="#E3E3E3"/>
</linearGradient>
<linearGradient id="paint72_linear_1282_23331" x1="137.991" y1="397.793" x2="210.541" y2="397.793" gradientUnits="userSpaceOnUse">
<stop stop-color="#E3E3E3"/>
<stop offset="0.21988" stop-color="#99C2FF"/>
<stop offset="0.512048" stop-color="#F48DA5"/>
<stop offset="0.75" stop-color="#A699DC"/>
<stop offset="1" stop-color="#E3E3E3"/>
</linearGradient>
<linearGradient id="paint73_linear_1282_23331" x1="451.765" y1="94.566" x2="414" y2="134.472" gradientUnits="userSpaceOnUse">
<stop stop-color="#E0E0E0"/>
<stop offset="0.614635" stop-color="white"/>
<stop offset="1" stop-color="#E0E0E0"/>
</linearGradient>
<linearGradient id="paint74_linear_1282_23331" x1="199.469" y1="184.277" x2="72.2585" y2="184.277" gradientUnits="userSpaceOnUse">
<stop stop-color="#E3E3E3"/>
<stop offset="0.21988" stop-color="#99C2FF"/>
<stop offset="0.512048" stop-color="#F48DA5"/>
<stop offset="0.75" stop-color="#A699DC"/>
<stop offset="1" stop-color="#E3E3E3"/>
</linearGradient>
<linearGradient id="paint75_linear_1282_23331" x1="199.469" y1="184.277" x2="72.2585" y2="184.277" gradientUnits="userSpaceOnUse">
<stop stop-color="#E3E3E3"/>
<stop offset="0.21988" stop-color="#99C2FF"/>
<stop offset="0.512048" stop-color="#F48DA5"/>
<stop offset="0.75" stop-color="#A699DC"/>
<stop offset="1" stop-color="#E3E3E3"/>
</linearGradient>
<radialGradient id="paint76_radial_1282_23331" cx="0" cy="0" r="1" gradientUnits="userSpaceOnUse" gradientTransform="translate(131.433 176.309) rotate(47.7263) scale(28.9393 27.9114)">
<stop stop-color="#D5FFE6"/>
<stop offset="0.701245" stop-color="#16E05A"/>
<stop offset="0.933192" stop-color="#1BE12F"/>
<stop offset="0.996209" stop-color="#1AEA6D"/>
</radialGradient>
<radialGradient id="paint77_radial_1282_23331" cx="0" cy="0" r="1" gradientUnits="userSpaceOnUse" gradientTransform="translate(131 135.589) rotate(74.4855) scale(52.9632 46.4577)">
<stop stop-color="#D5FFE6"/>
<stop offset="0.701245" stop-color="#16E05A"/>
<stop offset="0.933192" stop-color="#1BE12F"/>
<stop offset="0.996209" stop-color="#1AEA6D"/>
</radialGradient>
<radialGradient id="paint78_radial_1282_23331" cx="0" cy="0" r="1" gradientUnits="userSpaceOnUse" gradientTransform="translate(146.667 119.122) rotate(91.273) scale(67.5167 59.2236)">
<stop stop-color="#D5FFE6"/>
<stop offset="0.701245" stop-color="#16E05A"/>
<stop offset="0.933192" stop-color="#1BE12F"/>
<stop offset="0.996209" stop-color="#1AEA6D"/>
</radialGradient>
<radialGradient id="paint79_radial_1282_23331" cx="0" cy="0" r="1" gradientUnits="userSpaceOnUse" gradientTransform="translate(175.317 391.434) rotate(101.31) scale(11.548 64.3378)">
<stop stop-color="white"/>
<stop offset="1" stop-color="#08DDFA"/>
</radialGradient>
<radialGradient id="paint80_radial_1282_23331" cx="0" cy="0" r="1" gradientUnits="userSpaceOnUse" gradientTransform="translate(166.098 361.079) rotate(65.556) scale(36.4867 26.6341)">
<stop stop-color="#D5F5FF"/>
<stop offset="0.701245" stop-color="#00BDF9"/>
<stop offset="0.933192" stop-color="#0788FF"/>
<stop offset="0.996209" stop-color="#4F60FF"/>
</radialGradient>
</defs>
</svg>
