<svg width="513" height="198" viewBox="0 0 513 198" fill="none" xmlns="http://www.w3.org/2000/svg">
<g filter="url(#filter0_d_1370_11039)">
<path d="M47.6087 137.755L9.86307 139.925L8.97802 124.534L41.1899 68.7562L61.2232 67.6042L64.3138 121.352L75.4298 120.713L76.3149 136.104L65.1989 136.743L66.1963 154.089L48.6061 155.101L47.6087 137.755ZM45.0097 92.5579L44.7654 92.572L27.3011 123.48L46.7236 122.364L45.0097 92.5579Z" fill="url(#paint0_linear_1370_11039)"/>
<path d="M81.7637 109.809C81.4687 104.678 81.6169 99.4405 82.2083 94.0956C82.8812 88.7461 84.2743 83.8454 86.3878 79.3934C88.5827 74.9368 91.6795 71.2454 95.6782 68.3192C99.6722 65.3116 104.886 63.6228 111.319 63.2529C117.753 62.8829 123.126 63.9629 127.438 66.4929C131.746 68.9415 135.205 72.2559 137.815 76.4363C140.506 80.6119 142.452 85.3206 143.652 90.5624C144.933 95.7996 145.722 100.983 146.017 106.114C146.312 111.244 146.123 116.484 145.45 121.834C144.859 127.179 143.465 132.079 141.271 136.536C139.157 140.988 136.103 144.718 132.109 147.725C128.111 150.652 122.895 152.3 116.461 152.67C110.028 153.04 104.657 152 100.349 149.552C96.0368 147.022 92.535 143.669 89.8437 139.493C87.2339 135.313 85.2881 130.604 84.0065 125.367C82.8063 120.125 82.0587 114.939 81.7637 109.809ZM100.087 108.755C100.218 111.035 100.456 113.759 100.802 116.925C101.229 120.087 101.974 123.108 103.039 125.988C104.103 128.869 105.59 131.275 107.498 133.208C109.488 135.136 112.153 136.004 115.492 135.812C118.749 135.625 121.256 134.46 123.012 132.316C124.768 130.172 126.009 127.609 126.737 124.626C127.464 121.643 127.818 118.558 127.798 115.373C127.86 112.183 127.825 109.448 127.694 107.168C127.563 104.887 127.284 102.166 126.857 99.0043C126.511 95.8376 125.806 92.8142 124.742 89.934C123.677 87.0538 122.15 84.6496 120.16 82.7214C118.17 80.7932 115.546 79.9228 112.289 80.1101C108.95 80.3021 106.402 81.4699 104.646 83.6135C102.972 85.7524 101.771 88.3135 101.044 91.2967C100.317 94.2799 99.9222 97.3666 99.8605 100.557C99.8803 103.742 99.9557 106.475 100.087 108.755Z" fill="url(#paint1_linear_1370_11039)"/>
<path d="M213.25 122.715C213.058 119.376 213.489 116.206 214.542 113.204C215.676 110.197 217.239 107.534 219.23 105.213C221.302 102.888 223.769 101.03 226.63 99.64C229.487 98.1684 232.585 97.3367 235.924 97.1447C239.263 96.9527 242.436 97.4239 245.442 98.5583C248.444 99.6112 251.067 101.176 253.311 103.253C255.636 105.326 257.494 107.792 258.884 110.654C260.355 113.511 261.187 116.609 261.379 119.947C261.571 123.286 261.102 126.5 259.972 129.588C258.92 132.59 257.357 135.253 255.285 137.579C253.294 139.899 250.87 141.795 248.013 143.267C245.152 144.657 242.051 145.448 238.713 145.64C235.374 145.832 232.203 145.401 229.201 144.348C226.195 143.214 223.529 141.611 221.204 139.538C218.96 137.461 217.102 134.994 215.631 132.138C214.236 129.195 213.442 126.054 213.25 122.715ZM248.919 120.664C248.732 117.406 247.433 114.703 245.021 112.554C242.692 110.4 239.898 109.417 236.64 109.604C233.383 109.792 230.68 111.091 228.531 113.502C226.463 115.909 225.523 118.741 225.71 121.998C225.902 125.337 227.163 128.084 229.493 130.237C231.904 132.387 234.739 133.367 237.996 133.18C241.254 132.993 243.916 131.696 245.984 129.289C248.133 126.878 249.111 124.003 248.919 120.664ZM149.454 85.3265C149.262 81.9876 149.692 78.8172 150.745 75.8153C151.88 72.8086 153.442 70.1451 155.433 67.8245C157.505 65.4993 159.972 63.6417 162.834 62.2515C165.691 60.78 168.788 59.9482 172.127 59.7562C175.466 59.5642 178.639 60.0354 181.646 61.1698C184.648 62.2228 187.27 63.7878 189.514 65.8648C191.839 67.9371 193.697 70.404 195.087 73.2655C196.559 76.1223 197.39 79.2201 197.582 82.559C197.774 85.8978 197.303 89.0706 196.169 92.0772C195.116 95.0792 193.553 97.7427 191.481 100.068C189.49 102.388 187.066 104.285 184.209 105.756C181.348 107.146 178.248 107.937 174.909 108.129C171.57 108.321 168.4 107.891 165.398 106.838C162.391 105.703 159.725 104.1 157.4 102.028C155.156 99.9507 153.298 97.4838 151.827 94.627C150.437 91.7655 149.646 88.6654 149.454 85.3265ZM185.123 83.2754C184.935 80.018 183.636 77.3147 181.225 75.1656C178.895 73.0119 176.101 72.0286 172.844 72.2159C169.586 72.4033 166.883 73.7026 164.734 76.1139C162.666 78.5205 161.726 81.3526 161.913 84.61C162.101 87.8675 163.359 90.5731 165.689 92.7269C168.101 94.8759 170.935 95.8568 174.192 95.6695C177.45 95.4822 180.112 94.1852 182.18 91.7786C184.329 89.3673 185.31 86.5329 185.123 83.2754ZM222.436 54.4121L232.774 55.1487L233.028 59.5634L187.67 151.026L178.085 146.307L177.831 141.89L222.436 54.4121Z" fill="url(#paint2_linear_1370_11039)"/>
<path d="M264.998 99.2721C264.6 92.3501 265.379 86.0139 267.336 80.2637C269.375 74.5088 272.358 69.5575 276.287 65.4098C280.211 61.1806 284.962 57.8434 290.541 55.3983C296.119 52.9531 302.288 51.5362 309.048 51.1476C315.807 50.7589 322.098 51.4593 327.92 53.2489C333.742 55.0384 338.845 57.809 343.227 61.5605C347.605 65.2306 351.096 69.8096 353.699 75.2976C356.384 80.7809 357.925 86.9836 358.323 93.9057C358.722 100.828 357.901 107.166 355.863 112.921C353.906 118.671 350.965 123.661 347.041 127.89C343.113 132.038 338.359 135.334 332.781 137.78C327.202 140.225 321.033 141.642 314.274 142.03C307.514 142.419 301.224 141.718 295.401 139.929C289.579 138.139 284.479 135.41 280.101 131.739C275.718 127.988 272.185 123.37 269.5 117.887C266.896 112.399 265.396 106.194 264.998 99.2721ZM284.787 98.1342C285.021 102.206 285.847 105.917 287.265 109.267C288.76 112.531 290.761 115.357 293.268 117.746C295.77 120.053 298.69 121.806 302.027 123.003C305.445 124.195 309.19 124.674 313.262 124.44C317.334 124.206 320.959 123.303 324.137 121.731C327.396 120.155 330.136 118.077 332.357 115.498C334.574 112.838 336.197 109.803 337.226 106.394C338.333 102.899 338.769 99.1154 338.535 95.0436C338.305 91.0532 337.44 87.3853 335.941 84.0399C334.523 80.6899 332.562 77.8612 330.06 75.5539C327.553 73.1652 324.591 71.3746 321.172 70.1822C317.835 68.9851 314.131 68.5036 310.059 68.7378C305.987 68.9719 302.322 69.8772 299.062 71.4536C295.885 73.0253 293.187 75.1413 290.971 77.8017C288.75 80.3805 287.086 83.4176 285.98 86.9128C284.955 90.4034 284.557 94.1439 284.787 98.1342Z" fill="url(#paint3_linear_1370_11039)"/>
<path d="M369.522 49.8762L427.545 46.5397L428.557 64.1299L389.589 66.3706L390.601 83.9608L426.636 81.8886L427.648 99.4788L391.612 101.551L393.551 135.265L374.495 136.361L369.522 49.8762Z" fill="url(#paint4_linear_1370_11039)"/>
<path d="M441.932 45.7124L499.955 42.3759L500.966 59.9661L461.999 62.2068L463.011 79.797L499.046 77.7249L500.058 95.3151L464.022 97.3872L465.961 131.102L446.905 132.198L441.932 45.7124Z" fill="url(#paint5_linear_1370_11039)"/>
</g>
<path opacity="0.5" d="M46.84 131.978L9.09443 134.149L8.20938 118.757L40.4213 62.9797L60.4545 61.8277L63.5452 115.575L74.6612 114.936L75.5463 130.328L64.4302 130.967L65.4277 148.313L47.8375 149.324L46.84 131.978ZM44.2411 86.7814L43.9968 86.7954L26.5325 117.704L45.955 116.587L44.2411 86.7814ZM80.9951 104.032C80.7001 98.9016 80.8483 93.664 81.4397 88.3191C82.1125 82.9696 83.5057 78.0688 85.6191 73.6169C87.814 69.1603 90.9108 65.4689 94.9095 62.5427C98.9036 59.5351 104.117 57.8463 110.551 57.4763C116.984 57.1064 122.357 58.1864 126.67 60.7164C130.977 63.165 134.436 66.4794 137.046 70.6597C139.737 74.8354 141.683 79.5441 142.883 84.7859C144.165 90.0231 144.953 95.2069 145.248 100.337C145.543 105.468 145.354 110.708 144.681 116.057C144.09 121.402 142.697 126.303 140.502 130.76C138.388 135.211 135.335 138.941 131.341 141.949C127.342 144.875 122.126 146.523 115.692 146.893C109.259 147.263 103.888 146.224 99.5806 143.775C95.2682 141.245 91.7663 137.892 89.0751 133.717C86.4652 129.536 84.5195 124.828 83.2379 119.591C82.0377 114.349 81.2901 109.163 80.9951 104.032ZM99.3182 102.978C99.4493 105.259 99.6876 107.982 100.033 111.149C100.46 114.311 101.206 117.332 102.27 120.212C103.334 123.092 104.821 125.499 106.73 127.432C108.72 129.36 111.384 130.228 114.723 130.036C117.981 129.849 120.487 128.683 122.243 126.539C123.999 124.396 125.241 121.832 125.968 118.849C126.695 115.866 127.049 112.782 127.029 109.596C127.091 106.406 127.056 103.671 126.925 101.391C126.794 99.1108 126.515 96.3897 126.088 93.2277C125.742 90.0611 125.038 87.0377 123.973 84.1575C122.909 81.2773 121.382 78.8731 119.391 76.9449C117.401 75.0167 114.778 74.1463 111.52 74.3336C108.181 74.5256 105.634 75.6934 103.878 77.837C102.203 79.9759 101.002 82.537 100.275 85.5202C99.548 88.5034 99.1536 91.59 99.0919 94.7801C99.1116 97.9655 99.1871 100.698 99.3182 102.978ZM212.482 116.938C212.29 113.6 212.72 110.429 213.773 107.427C214.908 104.421 216.47 101.757 218.461 99.4365C220.533 97.1113 223 95.2536 225.862 93.8635C228.719 92.3919 231.816 91.5601 235.155 91.3681C238.494 91.1761 241.667 91.6473 244.674 92.7817C247.675 93.8347 250.298 95.3997 252.542 97.4767C254.867 99.5491 256.725 102.016 258.115 104.877C259.587 107.734 260.418 110.832 260.61 114.171C260.802 117.51 260.334 120.723 259.204 123.811C258.151 126.813 256.588 129.477 254.516 131.802C252.525 134.123 250.101 136.019 247.244 137.49C244.383 138.88 241.283 139.671 237.944 139.863C234.605 140.055 231.435 139.625 228.433 138.572C225.426 137.437 222.76 135.834 220.435 133.762C218.191 131.685 216.333 129.218 214.862 126.361C213.467 123.418 212.674 120.277 212.482 116.938ZM248.151 114.887C247.963 111.63 246.664 108.927 244.253 106.778C241.923 104.624 239.129 103.641 235.872 103.828C232.614 104.015 229.911 105.314 227.762 107.726C225.694 110.132 224.754 112.965 224.941 116.222C225.133 119.561 226.394 122.307 228.724 124.461C231.136 126.61 233.97 127.591 237.227 127.404C240.485 127.216 243.147 125.919 245.215 123.513C247.364 121.101 248.343 118.226 248.151 114.887ZM148.685 79.55C148.493 76.2111 148.924 73.0407 149.977 70.0387C151.111 67.0321 152.674 64.3685 154.665 62.048C156.737 59.7228 159.204 57.8651 162.065 56.475C164.922 55.0035 168.02 54.1717 171.359 53.9797C174.698 53.7877 177.87 54.2589 180.877 55.3933C183.879 56.4463 186.502 58.0112 188.746 60.0883C191.071 62.1606 192.928 64.6275 194.319 67.489C195.79 70.3457 196.622 73.4436 196.814 76.7824C197.006 80.1213 196.535 83.2941 195.4 86.3007C194.347 89.3026 192.785 91.9662 190.712 94.2914C188.721 96.6119 186.298 98.508 183.441 99.9795C180.579 101.37 177.479 102.161 174.14 102.353C170.801 102.545 167.631 102.114 164.629 101.061C161.622 99.9269 158.957 98.3235 156.631 96.2512C154.388 94.1741 152.53 91.7073 151.058 88.8505C149.668 85.989 148.877 82.8889 148.685 79.55ZM184.354 77.4989C184.167 74.2415 182.867 71.5382 180.456 69.3891C178.126 67.2353 175.333 66.2521 172.075 66.4394C168.818 66.6267 166.114 67.926 163.965 70.3374C161.898 72.744 160.958 75.5761 161.145 78.8335C161.332 82.0909 162.591 84.7966 164.921 86.9503C167.332 89.0994 170.166 90.0803 173.424 89.893C176.681 89.7057 179.344 88.4087 181.411 86.0021C183.561 83.5907 184.541 80.7563 184.354 77.4989ZM221.668 48.6356L232.259 53.7868L186.902 145.25L177.316 140.531L221.668 48.6356ZM264.229 93.4956C263.831 86.5735 264.611 80.2374 266.568 74.4872C268.606 68.7323 271.59 63.781 275.518 59.6332C279.442 55.4041 284.193 52.0669 289.772 49.6218C295.351 47.1766 301.52 45.7597 308.279 45.371C315.038 44.9824 321.329 45.6828 327.151 47.4723C332.973 49.2619 338.076 52.0324 342.459 55.784C346.837 59.4541 350.327 64.0331 352.931 69.5211C355.615 75.0044 357.157 81.2071 357.555 88.1291C357.953 95.0512 357.133 101.39 355.094 107.145C353.137 112.895 350.197 117.884 346.273 122.114C342.344 126.261 337.591 129.558 332.012 132.003C326.433 134.448 320.264 135.865 313.505 136.254C306.746 136.642 300.455 135.942 294.633 134.152C288.81 132.363 283.71 129.633 279.332 125.963C274.95 122.211 271.416 117.594 268.731 112.111C266.128 106.623 264.627 100.418 264.229 93.4956ZM284.018 92.3577C284.252 96.4295 285.078 100.14 286.497 103.491C287.992 106.754 289.992 109.581 292.499 111.97C295.001 114.277 297.921 116.029 301.258 117.226C304.677 118.419 308.422 118.898 312.493 118.664C316.565 118.429 320.19 117.526 323.368 115.955C326.627 114.378 329.367 112.301 331.589 109.722C333.805 107.061 335.428 104.027 336.458 100.618C337.564 97.1224 338 93.3388 337.766 89.267C337.536 85.2767 336.672 81.6088 335.172 78.2634C333.754 74.9133 331.794 72.0847 329.292 69.7774C326.785 67.3887 323.822 65.5981 320.404 64.4057C317.067 63.2086 313.362 62.7271 309.29 62.9612C305.219 63.1954 301.553 64.1006 298.294 65.6771C295.116 67.2488 292.419 69.3648 290.202 72.0251C287.981 74.604 286.317 77.6411 285.211 81.1363C284.186 84.6269 283.789 88.3673 284.018 92.3577ZM368.753 44.0996L426.777 40.7631L427.788 58.3533L388.821 60.5941L389.832 78.1842L425.868 76.1121L426.879 93.7023L390.844 95.7744L392.783 129.489L373.726 130.585L368.753 44.0996ZM441.163 39.9359L499.186 36.5994L500.198 54.1896L461.231 56.4303L462.242 74.0205L498.278 71.9483L499.289 89.5385L463.254 91.6107L465.192 125.325L446.136 126.421L441.163 39.9359Z" fill="#52FF78"/>
<path opacity="0.5" d="M47.8498 132.413L10.1042 134.583L9.21914 119.192L41.431 63.4141L61.4643 62.2621L64.5549 116.01L75.671 115.371L76.556 130.762L65.44 131.401L66.4374 148.747L48.8472 149.759L47.8498 132.413ZM45.2508 87.2158L45.0065 87.2298L27.5423 118.138L46.9648 117.021L45.2508 87.2158ZM82.0049 104.466C81.7098 99.336 81.858 94.0983 82.4495 88.7535C83.1223 83.4039 84.5155 78.5032 86.6289 74.0513C88.8238 69.5947 91.9206 65.9033 95.9193 62.9771C99.9133 59.9694 105.127 58.2807 111.561 57.9107C117.994 57.5408 123.367 58.6208 127.679 61.1508C131.987 63.5994 135.446 66.9138 138.056 71.0941C140.747 75.2697 142.693 79.9785 143.893 85.2203C145.175 90.4575 145.963 95.6413 146.258 100.772C146.553 105.902 146.364 111.142 145.691 116.492C145.1 121.837 143.707 126.737 141.512 131.194C139.398 135.646 136.345 139.376 132.35 142.383C128.352 145.309 123.136 146.958 116.702 147.328C110.269 147.697 104.898 146.658 100.59 144.21C96.278 141.68 92.7761 138.327 90.0848 134.151C87.475 129.971 85.5293 125.262 84.2476 120.025C83.0475 114.783 82.2999 109.597 82.0049 104.466ZM100.328 103.413C100.459 105.693 100.697 108.416 101.043 111.583C101.47 114.745 102.215 117.766 103.28 120.646C104.344 123.527 105.831 125.933 107.739 127.866C109.73 129.794 112.394 130.662 115.733 130.47C118.99 130.283 121.497 129.117 123.253 126.974C125.009 124.83 126.251 122.267 126.978 119.284C127.705 116.3 128.059 113.216 128.039 110.031C128.101 106.841 128.066 104.106 127.935 101.825C127.804 99.5452 127.525 96.8241 127.098 93.6621C126.752 90.4955 126.047 87.4721 124.983 84.5919C123.919 81.7117 122.391 79.3075 120.401 77.3793C118.411 75.4511 115.787 74.5807 112.53 74.768C109.191 74.96 106.644 76.1278 104.888 78.2714C103.213 80.4103 102.012 82.9714 101.285 85.9546C100.558 88.9378 100.163 92.0244 100.102 95.2145C100.121 98.3998 100.197 101.133 100.328 103.413ZM213.492 117.373C213.3 114.034 213.73 110.864 214.783 107.862C215.917 104.855 217.48 102.191 219.471 99.8709C221.543 97.5456 224.01 95.688 226.872 94.2979C229.728 92.8263 232.826 91.9945 236.165 91.8025C239.504 91.6105 242.677 92.0817 245.683 93.2161C248.685 94.2691 251.308 95.8341 253.552 97.9111C255.877 99.9834 257.735 102.45 259.125 105.312C260.596 108.169 261.428 111.266 261.62 114.605C261.812 117.944 261.343 121.158 260.214 124.246C259.161 127.248 257.598 129.911 255.526 132.236C253.535 134.557 251.111 136.453 248.254 137.925C245.393 139.315 242.293 140.106 238.954 140.298C235.615 140.49 232.444 140.059 229.442 139.006C226.436 137.872 223.77 136.268 221.445 134.196C219.201 132.119 217.343 129.652 215.872 126.795C214.477 123.853 213.683 120.712 213.492 117.373ZM249.16 115.322C248.973 112.064 247.674 109.361 245.263 107.212C242.933 105.058 240.139 104.075 236.882 104.262C233.624 104.45 230.921 105.749 228.772 108.16C226.704 110.567 225.764 113.399 225.951 116.656C226.143 119.995 227.404 122.742 229.734 124.895C232.145 127.044 234.98 128.025 238.237 127.838C241.495 127.651 244.157 126.354 246.225 123.947C248.374 121.536 249.352 118.661 249.16 115.322ZM149.695 79.9844C149.503 76.6455 149.933 73.4751 150.986 70.4731C152.121 67.4665 153.683 64.8029 155.674 62.4824C157.747 60.1572 160.214 58.2995 163.075 56.9094C165.932 55.4379 169.03 54.6061 172.368 54.4141C175.707 54.2221 178.88 54.6933 181.887 55.8277C184.889 56.8806 187.511 58.4456 189.755 60.5227C192.08 62.595 193.938 65.0619 195.328 67.9233C196.8 70.7801 197.632 73.8779 197.824 77.2168C198.016 80.5557 197.544 83.7285 196.41 86.7351C195.357 89.737 193.794 92.4006 191.722 94.7258C189.731 97.0463 187.307 98.9424 184.451 100.414C181.589 101.804 178.489 102.595 175.15 102.787C171.811 102.979 168.641 102.549 165.639 101.496C162.632 100.361 159.966 98.7579 157.641 96.6856C155.397 94.6085 153.54 92.1416 152.068 89.2849C150.678 86.4234 149.887 83.3232 149.695 79.9844ZM185.364 77.9333C185.177 74.6758 183.877 71.9726 181.466 69.8235C179.136 67.6697 176.342 66.6865 173.085 66.8738C169.827 67.0611 167.124 68.3604 164.975 70.7718C162.907 73.1784 161.967 76.0104 162.155 79.2679C162.342 82.5253 163.601 85.2309 165.93 87.3847C168.342 89.5338 171.176 90.5147 174.434 90.3274C177.691 90.1401 180.354 88.8431 182.421 86.4364C184.57 84.0251 185.551 81.1907 185.364 77.9333ZM222.678 49.07L233.269 54.2212L187.912 145.684L178.326 140.965L222.678 49.07ZM265.239 93.93C264.841 87.0079 265.62 80.6718 267.577 74.9216C269.616 69.1667 272.599 64.2154 276.528 60.0676C280.452 55.8384 285.203 52.5013 290.782 50.0561C296.361 47.611 302.53 46.1941 309.289 45.8054C316.048 45.4168 322.339 46.1172 328.161 47.9067C333.983 49.6963 339.086 52.4668 343.468 56.2184C347.846 59.8885 351.337 64.4675 353.94 69.9555C356.625 75.4388 358.167 81.6414 358.565 88.5635C358.963 95.4856 358.142 101.824 356.104 107.579C354.147 113.329 351.206 118.319 347.283 122.548C343.354 126.696 338.6 129.992 333.022 132.437C327.443 134.883 321.274 136.299 314.515 136.688C307.756 137.077 301.465 136.376 295.643 134.587C289.82 132.797 284.72 130.067 280.342 126.397C275.959 122.646 272.426 118.028 269.741 112.545C267.138 107.057 265.637 100.852 265.239 93.93ZM285.028 92.7921C285.262 96.8639 286.088 100.575 287.506 103.925C289.001 107.189 291.002 110.015 293.509 112.404C296.011 114.711 298.931 116.463 302.268 117.66C305.686 118.853 309.431 119.332 313.503 119.098C317.575 118.864 321.2 117.961 324.378 116.389C327.637 114.813 330.377 112.735 332.598 110.156C334.815 107.496 336.438 104.461 337.467 101.052C338.574 97.5568 339.01 93.7732 338.776 89.7014C338.546 85.7111 337.682 82.0432 336.182 78.6978C334.764 75.3477 332.804 72.519 330.301 70.2118C327.795 67.823 324.832 66.0325 321.413 64.8401C318.076 63.643 314.372 63.1615 310.3 63.3956C306.228 63.6298 302.563 64.535 299.304 66.1114C296.126 67.6832 293.429 69.7992 291.212 72.4595C288.991 75.0384 287.327 78.0755 286.221 81.5707C285.196 85.0612 284.798 88.8017 285.028 92.7921ZM369.763 44.534L427.786 41.1975L428.798 58.7877L389.831 61.0284L390.842 78.6186L426.878 76.5465L427.889 94.1367L391.854 96.2088L393.792 129.923L374.736 131.019L369.763 44.534ZM442.173 40.3703L500.196 37.0338L501.207 54.624L462.24 56.8647L463.252 74.4549L499.287 72.3827L500.299 89.9729L464.263 92.0451L466.202 125.76L447.146 126.855L442.173 40.3703Z" fill="#FF00D6"/>
<path d="M47.3873 132.932L9.64167 135.102L8.75662 119.711L40.9685 63.933L61.0018 62.7811L64.0924 116.529L75.2084 115.89L76.0935 131.281L64.9775 131.92L65.9749 149.266L48.3847 150.278L47.3873 132.932ZM44.7883 87.7348L44.544 87.7488L27.0797 118.657L46.5022 117.54L44.7883 87.7348ZM81.5423 104.985C81.2473 99.855 81.3955 94.6173 81.9869 89.2725C82.6598 83.9229 84.0529 79.0222 86.1664 74.5703C88.3613 70.1137 91.4581 66.4223 95.4568 63.4961C99.4508 60.4884 104.665 58.7996 111.098 58.4297C117.531 58.0597 122.904 59.1398 127.217 61.6698C131.525 64.1183 134.983 67.4328 137.593 71.6131C140.285 75.7887 142.23 80.4975 143.43 85.7393C144.712 90.9764 145.5 96.1603 145.795 101.291C146.09 106.421 145.901 111.661 145.229 117.011C144.637 122.356 143.244 127.256 141.049 131.713C138.936 136.165 135.882 139.895 131.888 142.902C127.889 145.828 122.673 147.477 116.24 147.846C109.806 148.216 104.436 147.177 100.128 144.729C95.8154 142.199 92.3136 138.846 89.6223 134.67C87.0125 130.49 85.0667 125.781 83.7851 120.544C82.5849 115.302 81.8373 110.116 81.5423 104.985ZM99.8654 103.932C99.9966 106.212 100.235 108.935 100.58 112.102C101.007 115.264 101.753 118.285 102.817 121.165C103.882 124.046 105.368 126.452 107.277 128.385C109.267 130.313 111.931 131.181 115.27 130.989C118.528 130.802 121.035 129.636 122.79 127.493C124.546 125.349 125.788 122.786 126.515 119.803C127.242 116.819 127.596 113.735 127.576 110.55C127.638 107.36 127.603 104.625 127.472 102.344C127.341 100.064 127.062 97.3431 126.635 94.1811C126.29 91.0145 125.585 87.991 124.52 85.1109C123.456 82.2307 121.929 79.8265 119.939 77.8983C117.949 75.9701 115.325 75.0996 112.067 75.287C108.728 75.479 106.181 76.6468 104.425 78.7904C102.751 80.9293 101.55 83.4903 100.822 86.4736C100.095 89.4568 99.7008 92.5434 99.6391 95.7335C99.6589 98.9188 99.7343 101.652 99.8654 103.932ZM213.029 117.892C212.837 114.553 213.267 111.383 214.32 108.381C215.455 105.374 217.017 102.71 219.008 100.39C221.081 98.0646 223.548 96.207 226.409 94.8168C229.266 93.3453 232.364 92.5135 235.703 92.3215C239.041 92.1295 242.214 92.6007 245.221 93.7351C248.223 94.7881 250.846 96.3531 253.089 98.4301C255.415 100.502 257.272 102.969 258.662 105.831C260.134 108.688 260.966 111.785 261.158 115.124C261.35 118.463 260.881 121.677 259.751 124.765C258.698 127.767 257.136 130.43 255.063 132.755C253.072 135.076 250.648 136.972 247.792 138.444C244.93 139.834 241.83 140.625 238.491 140.817C235.152 141.009 231.982 140.578 228.98 139.525C225.973 138.391 223.307 136.787 220.982 134.715C218.738 132.638 216.881 130.171 215.409 127.314C214.014 124.372 213.221 121.231 213.029 117.892ZM248.698 115.841C248.511 112.583 247.211 109.88 244.8 107.731C242.47 105.577 239.676 104.594 236.419 104.781C233.162 104.969 230.458 106.268 228.309 108.679C226.242 111.086 225.301 113.918 225.489 117.175C225.681 120.514 226.942 123.261 229.272 125.414C231.683 127.563 234.517 128.544 237.775 128.357C241.032 128.17 243.695 126.873 245.762 124.466C247.911 122.055 248.89 119.18 248.698 115.841ZM149.232 80.5033C149.04 77.1645 149.471 73.9941 150.524 70.9921C151.658 67.9855 153.221 65.3219 155.212 63.0014C157.284 60.6762 159.751 58.8185 162.612 57.4284C165.469 55.9568 168.567 55.1251 171.906 54.9331C175.245 54.7411 178.418 55.2123 181.424 56.3467C184.426 57.3996 187.049 58.9646 189.293 61.0416C191.618 63.114 193.476 65.5809 194.866 68.4423C196.337 71.2991 197.169 74.3969 197.361 77.7358C197.553 81.0747 197.082 84.2474 195.947 87.2541C194.895 90.256 193.332 92.9196 191.26 95.2448C189.269 97.5653 186.845 99.4614 183.988 100.933C181.127 102.323 178.026 103.114 174.688 103.306C171.349 103.498 168.178 103.068 165.176 102.015C162.17 100.88 159.504 99.2769 157.179 97.2045C154.935 95.1275 153.077 92.6606 151.606 89.8038C150.215 86.9424 149.424 83.8422 149.232 80.5033ZM184.901 78.4523C184.714 75.1948 183.415 72.4916 181.003 70.3425C178.674 68.1887 175.88 67.2055 172.622 67.3928C169.365 67.5801 166.662 68.8794 164.513 71.2907C162.445 73.6974 161.505 76.5294 161.692 79.7869C161.879 83.0443 163.138 85.7499 165.468 87.9037C167.879 90.0528 170.714 91.0337 173.971 90.8464C177.228 90.6591 179.891 89.3621 181.959 86.9554C184.108 84.5441 185.089 81.7097 184.901 78.4523ZM222.215 49.589L232.806 54.7402L187.449 146.203L177.863 141.484L222.215 49.589ZM264.776 94.449C264.378 87.5269 265.158 81.1908 267.115 75.4406C269.153 69.6857 272.137 64.7344 276.065 60.5866C279.989 56.3574 284.74 53.0203 290.319 50.5751C295.898 48.13 302.067 46.7131 308.826 46.3244C315.585 45.9357 321.876 46.6362 327.698 48.4257C333.521 50.2153 338.623 52.9858 343.006 56.7373C347.384 60.4075 350.875 64.9865 353.478 70.4745C356.163 75.9577 357.704 82.1604 358.102 89.0825C358.5 96.0046 357.68 102.343 355.641 108.098C353.684 113.848 350.744 118.838 346.82 123.067C342.892 127.215 338.138 130.511 332.559 132.956C326.98 135.401 320.811 136.818 314.052 137.207C307.293 137.596 301.002 136.895 295.18 135.106C289.358 133.316 284.258 130.586 279.88 126.916C275.497 123.165 271.963 118.547 269.278 113.064C266.675 107.576 265.174 101.371 264.776 94.449ZM284.565 93.3111C284.799 97.3829 285.626 101.094 287.044 104.444C288.539 107.708 290.54 110.534 293.047 112.923C295.549 115.23 298.468 116.982 301.805 118.179C305.224 119.372 308.969 119.851 313.041 119.617C317.113 119.383 320.737 118.48 323.915 116.908C327.174 115.332 329.915 113.254 332.136 110.675C334.352 108.015 335.975 104.98 337.005 101.571C338.111 98.0757 338.547 94.2922 338.313 90.2204C338.084 86.23 337.219 82.5622 335.719 79.2168C334.301 75.8667 332.341 73.038 329.839 70.7307C327.332 68.342 324.369 66.5515 320.951 65.359C317.614 64.1619 313.909 63.6805 309.838 63.9146C305.766 64.1487 302.1 65.054 298.841 66.6304C295.663 68.2021 292.966 70.3182 290.75 72.9785C288.528 75.5574 286.865 78.5944 285.758 82.0897C284.734 85.5802 284.336 89.3207 284.565 93.3111ZM369.301 45.053L427.324 41.7165L428.335 59.3067L389.368 61.5474L390.38 79.1376L426.415 77.0655L427.427 94.6557L391.391 96.7278L393.33 130.442L374.274 131.538L369.301 45.053ZM441.71 40.8892L499.733 37.5528L500.745 55.1429L461.778 57.3837L462.789 74.9738L498.825 72.9017L499.836 90.4919L463.801 92.564L465.739 126.279L446.683 127.374L441.71 40.8892Z" fill="white"/>
<path d="M47.3591 132.441L9.61347 134.611L8.72842 119.22L40.9403 63.4423L60.9736 62.2903L64.0642 116.038L75.1802 115.399L76.0653 130.79L64.9493 131.429L65.9467 148.775L48.3565 149.787L47.3591 132.441ZM44.7601 87.244L44.5158 87.258L27.0515 118.166L46.474 117.05L44.7601 87.244ZM81.5141 104.495C81.2191 99.3642 81.3673 94.1265 81.9587 88.7817C82.6316 83.4321 84.0247 78.5314 86.1382 74.0795C88.3331 69.6229 91.4299 65.9315 95.4286 63.0053C99.4226 59.9976 104.636 58.3088 111.07 57.9389C117.503 57.569 122.876 58.649 127.189 61.179C131.496 63.6276 134.955 66.942 137.565 71.1223C140.256 75.2979 142.202 80.0067 143.402 85.2485C144.684 90.4857 145.472 95.6695 145.767 100.8C146.062 105.93 145.873 111.17 145.2 116.52C144.609 121.865 143.216 126.766 141.021 131.222C138.908 135.674 135.854 139.404 131.86 142.411C127.861 145.338 122.645 146.986 116.212 147.356C109.778 147.726 104.407 146.686 100.1 144.238C95.7872 141.708 92.2854 138.355 89.5941 134.179C86.9843 129.999 85.0385 125.29 83.7569 120.053C82.5567 114.811 81.8091 109.625 81.5141 104.495ZM99.8372 103.441C99.9684 105.721 100.207 108.445 100.552 111.611C100.979 114.773 101.725 117.794 102.789 120.675C103.854 123.555 105.34 125.961 107.249 127.894C109.239 129.822 111.903 130.69 115.242 130.498C118.5 130.311 121.006 129.146 122.762 127.002C124.518 124.858 125.76 122.295 126.487 119.312C127.214 116.329 127.568 113.244 127.548 110.059C127.61 106.869 127.575 104.134 127.444 101.854C127.313 99.5734 127.034 96.8523 126.607 93.6903C126.261 90.5237 125.557 87.5003 124.492 84.6201C123.428 81.7399 121.901 79.3357 119.91 77.4075C117.92 75.4793 115.297 74.6089 112.039 74.7962C108.7 74.9882 106.153 76.156 104.397 78.2996C102.722 80.4385 101.521 82.9996 100.794 85.9828C100.067 88.966 99.6726 92.0526 99.6109 95.2427C99.6307 98.428 99.7061 101.161 99.8372 103.441ZM213.001 117.401C212.809 114.062 213.239 110.892 214.292 107.89C215.427 104.883 216.989 102.22 218.98 99.8991C221.053 97.5738 223.519 95.7162 226.381 94.3261C229.238 92.8545 232.335 92.0227 235.674 91.8307C239.013 91.6387 242.186 92.1099 245.193 93.2443C248.195 94.2973 250.817 95.8623 253.061 97.9393C255.386 100.012 257.244 102.479 258.634 105.34C260.106 108.197 260.938 111.295 261.129 114.633C261.321 117.972 260.853 121.186 259.723 124.274C258.67 127.276 257.107 129.939 255.035 132.265C253.044 134.585 250.62 136.481 247.763 137.953C244.902 139.343 241.802 140.134 238.463 140.326C235.124 140.518 231.954 140.087 228.952 139.034C225.945 137.9 223.279 136.297 220.954 134.224C218.71 132.147 216.853 129.68 215.381 126.824C213.986 123.881 213.193 120.74 213.001 117.401ZM248.67 115.35C248.482 112.092 247.183 109.389 244.772 107.24C242.442 105.086 239.648 104.103 236.391 104.29C233.133 104.478 230.43 105.777 228.281 108.188C226.213 110.595 225.273 113.427 225.46 116.685C225.652 120.023 226.913 122.77 229.243 124.924C231.655 127.073 234.489 128.053 237.746 127.866C241.004 127.679 243.666 126.382 245.734 123.975C247.883 121.564 248.862 118.689 248.67 115.35ZM149.204 80.0126C149.012 76.6737 149.443 73.5033 150.496 70.5013C151.63 67.4947 153.193 64.8311 155.184 62.5106C157.256 60.1854 159.723 58.3277 162.584 56.9376C165.441 55.4661 168.539 54.6343 171.878 54.4423C175.217 54.2503 178.389 54.7215 181.396 55.8559C184.398 56.9088 187.021 58.4738 189.265 60.5508C191.59 62.6232 193.447 65.0901 194.838 67.9515C196.309 70.8083 197.141 73.9061 197.333 77.245C197.525 80.5839 197.054 83.7567 195.919 86.7633C194.866 89.7652 193.304 92.4288 191.231 94.754C189.24 97.0745 186.817 98.9706 183.96 100.442C181.098 101.832 177.998 102.623 174.659 102.815C171.32 103.007 168.15 102.577 165.148 101.524C162.141 100.389 159.476 98.7861 157.15 96.7138C154.907 94.6367 153.049 92.1698 151.577 89.3131C150.187 86.4516 149.396 83.3514 149.204 80.0126ZM184.873 77.9615C184.686 74.704 183.387 72.0008 180.975 69.8517C178.645 67.6979 175.852 66.7147 172.594 66.902C169.337 67.0893 166.633 68.3886 164.484 70.8C162.417 73.2066 161.477 76.0386 161.664 79.2961C161.851 82.5535 163.11 85.2591 165.44 87.4129C167.851 89.562 170.685 90.5429 173.943 90.3556C177.2 90.1683 179.863 88.8713 181.93 86.4646C184.08 84.0533 185.06 81.2189 184.873 77.9615ZM222.187 49.0982L232.778 54.2494L187.421 145.712L177.835 140.993L222.187 49.0982ZM264.748 93.9582C264.35 87.0361 265.13 80.7 267.087 74.9498C269.125 69.1949 272.109 64.2436 276.037 60.0958C279.961 55.8666 284.712 52.5295 290.291 50.0843C295.87 47.6392 302.039 46.2223 308.798 45.8336C315.557 45.445 321.848 46.1454 327.67 47.9349C333.492 49.7245 338.595 52.495 342.978 56.2466C347.356 59.9167 350.846 64.4957 353.45 69.9837C356.134 75.467 357.676 81.6696 358.074 88.5917C358.472 95.5138 357.652 101.852 355.613 107.607C353.656 113.357 350.716 118.347 346.792 122.576C342.863 126.724 338.11 130.02 332.531 132.466C326.952 134.911 320.783 136.328 314.024 136.716C307.265 137.105 300.974 136.405 295.152 134.615C289.33 132.825 284.229 130.096 279.851 126.425C275.469 122.674 271.935 118.057 269.25 112.573C266.647 107.085 265.146 100.88 264.748 93.9582ZM284.537 92.8203C284.771 96.8921 285.597 100.603 287.016 103.953C288.511 107.217 290.511 110.043 293.018 112.432C295.52 114.739 298.44 116.492 301.777 117.689C305.196 118.881 308.941 119.36 313.013 119.126C317.084 118.892 320.709 117.989 323.887 116.417C327.146 114.841 329.886 112.763 332.108 110.184C334.324 107.524 335.947 104.489 336.977 101.08C338.083 97.585 338.519 93.8014 338.285 89.7296C338.055 85.7393 337.191 82.0714 335.691 78.726C334.273 75.3759 332.313 72.5472 329.811 70.24C327.304 67.8512 324.341 66.0607 320.923 64.8683C317.586 63.6712 313.881 63.1897 309.809 63.4238C305.738 63.658 302.072 64.5632 298.813 66.1396C295.635 67.7114 292.938 69.8274 290.721 72.4877C288.5 75.0666 286.837 78.1037 285.73 81.5989C284.705 85.0894 284.308 88.8299 284.537 92.8203ZM369.272 44.5622L427.296 41.2257L428.307 58.8159L389.34 61.0566L390.351 78.6468L426.387 76.5747L427.398 94.1649L391.363 96.237L393.302 129.952L374.246 131.047L369.272 44.5622ZM441.682 40.3985L499.705 37.062L500.717 54.6522L461.75 56.8929L462.761 74.4831L498.797 72.4109L499.808 90.0011L463.773 92.0733L465.711 125.788L446.655 126.884L441.682 40.3985Z" fill="#FAF3FF"/>
<defs>
<filter id="filter0_d_1370_11039" x="2.09588" y="42.3759" width="505.753" height="126.981" filterUnits="userSpaceOnUse" color-interpolation-filters="sRGB">
<feFlood flood-opacity="0" result="BackgroundImageFix"/>
<feColorMatrix in="SourceAlpha" type="matrix" values="0 0 0 0 0 0 0 0 0 0 0 0 0 0 0 0 0 0 127 0" result="hardAlpha"/>
<feOffset dy="7.37373"/>
<feGaussianBlur stdDeviation="3.44107"/>
<feComposite in2="hardAlpha" operator="out"/>
<feColorMatrix type="matrix" values="0 0 0 0 0 0 0 0 0 0 0 0 0 0 0 0 0 0 0.25 0"/>
<feBlend mode="normal" in2="BackgroundImageFix" result="effect1_dropShadow_1370_11039"/>
<feBlend mode="normal" in="SourceGraphic" in2="effect1_dropShadow_1370_11039" result="shape"/>
</filter>
<linearGradient id="paint0_linear_1370_11039" x1="52.6822" y1="85.4637" x2="505.206" y2="132.809" gradientUnits="userSpaceOnUse">
<stop stop-color="#EFDDFF"/>
<stop offset="1" stop-color="#BA85E9"/>
</linearGradient>
<linearGradient id="paint1_linear_1370_11039" x1="52.6822" y1="85.4637" x2="505.206" y2="132.809" gradientUnits="userSpaceOnUse">
<stop stop-color="#EFDDFF"/>
<stop offset="1" stop-color="#BA85E9"/>
</linearGradient>
<linearGradient id="paint2_linear_1370_11039" x1="52.6822" y1="85.4637" x2="505.206" y2="132.809" gradientUnits="userSpaceOnUse">
<stop stop-color="#EFDDFF"/>
<stop offset="1" stop-color="#BA85E9"/>
</linearGradient>
<linearGradient id="paint3_linear_1370_11039" x1="52.6822" y1="85.4637" x2="505.206" y2="132.809" gradientUnits="userSpaceOnUse">
<stop stop-color="#EFDDFF"/>
<stop offset="1" stop-color="#BA85E9"/>
</linearGradient>
<linearGradient id="paint4_linear_1370_11039" x1="52.6822" y1="85.4637" x2="505.206" y2="132.809" gradientUnits="userSpaceOnUse">
<stop stop-color="#EFDDFF"/>
<stop offset="1" stop-color="#BA85E9"/>
</linearGradient>
<linearGradient id="paint5_linear_1370_11039" x1="52.6822" y1="85.4637" x2="505.206" y2="132.809" gradientUnits="userSpaceOnUse">
<stop stop-color="#EFDDFF"/>
<stop offset="1" stop-color="#BA85E9"/>
</linearGradient>
</defs>
</svg>
