<svg width="17" height="17" viewBox="0 0 17 17" fill="none" xmlns="http://www.w3.org/2000/svg">
<path d="M4.25 12.75H12.75V11.05H4.25V12.75ZM8.5 10.2L11.9 6.8L10.71 5.61L9.35 6.9275V3.4H7.65V6.9275L6.29 5.61L5.1 6.8L8.5 10.2ZM8.5 17C7.32417 17 6.21917 16.7767 5.185 16.3302C4.15083 15.8837 3.25125 15.2782 2.48625 14.5137C1.72125 13.7487 1.11577 12.8492 0.6698 11.815C0.223833 10.7808 0.000566667 9.67583 0 8.5C0 7.32417 0.223267 6.21917 0.6698 5.185C1.11633 4.15083 1.72182 3.25125 2.48625 2.48625C3.25125 1.72125 4.15083 1.11577 5.185 0.6698C6.21917 0.223833 7.32417 0.000566667 8.5 0C9.67583 0 10.7808 0.223267 11.815 0.6698C12.8492 1.11633 13.7487 1.72182 14.5137 2.48625C15.2787 3.25125 15.8845 4.15083 16.331 5.185C16.7776 6.21917 17.0006 7.32417 17 8.5C17 9.67583 16.7767 10.7808 16.3302 11.815C15.8837 12.8492 15.2782 13.7487 14.5137 14.5137C13.7487 15.2787 12.8492 15.8845 11.815 16.331C10.7808 16.7776 9.67583 17.0006 8.5 17Z" fill="#AAC0E3"/>
</svg>
