<svg width="286" height="298" viewBox="0 0 286 298" fill="none" xmlns="http://www.w3.org/2000/svg">
<g opacity="0.4">
<mask id="mask0_2131_10519" style="mask-type:alpha" maskUnits="userSpaceOnUse" x="3" y="153" width="240" height="141">
<rect x="3.06152" y="153.493" width="239.246" height="139.67" fill="url(#paint0_radial_2131_10519)"/>
</mask>
<g mask="url(#mask0_2131_10519)">
<rect opacity="0.5" x="3.06226" y="155.313" width="115.299" height="137.848" fill="url(#paint1_linear_2131_10519)"/>
<rect opacity="0.5" width="118.877" height="127.912" transform="matrix(-0.969906 2.55421e-08 -6.25782e-08 1.07767 242.31 155.313)" fill="url(#paint2_linear_2131_10519)"/>
</g>
</g>
<path d="M71.3036 264.642C41.4939 244.567 26.589 234.53 23.7539 222.475C22.8382 218.582 22.8382 214.616 23.7539 210.723C26.589 198.668 41.4939 188.631 71.3036 168.556C101.113 148.481 116.018 138.443 133.918 136.534C139.7 135.917 145.589 135.917 151.37 136.534C169.27 138.443 184.175 148.481 213.985 168.556C243.794 188.631 258.699 198.668 261.534 210.723C262.45 214.616 262.45 218.582 261.534 222.475C258.699 234.53 243.794 244.567 213.985 264.642C184.175 284.717 169.27 294.755 151.37 296.664C145.589 297.28 139.7 297.28 133.918 296.664C116.018 294.755 101.113 284.717 71.3036 264.642Z" fill="url(#paint3_linear_2131_10519)"/>
<path d="M71.3036 264.642C41.4939 244.567 26.589 234.53 23.7539 222.475C22.8382 218.582 22.8382 214.616 23.7539 210.723C26.589 198.668 41.4939 188.631 71.3036 168.556C101.113 148.481 116.018 138.443 133.918 136.534C139.7 135.917 145.589 135.917 151.37 136.534C169.27 138.443 184.175 148.481 213.985 168.556C243.794 188.631 258.699 198.668 261.534 210.723C262.45 214.616 262.45 218.582 261.534 222.475C258.699 234.53 243.794 244.567 213.985 264.642C184.175 284.717 169.27 294.755 151.37 296.664C145.589 297.28 139.7 297.28 133.918 296.664C116.018 294.755 101.113 284.717 71.3036 264.642Z" fill="white" fill-opacity="0.6"/>
<path d="M23.0671 203.33H262.313V216.141H23.0671V203.33Z" fill="url(#paint4_linear_2131_10519)"/>
<path d="M23.0671 203.33H262.313V216.141H23.0671V203.33Z" fill="white" fill-opacity="0.6"/>
<rect width="174.354" height="174.354" rx="51.2441" transform="matrix(0.82945 -0.558581 0.82945 0.558581 -1.9165 201.734)" fill="white"/>
<circle cx="96" cy="124.645" r="12" fill="url(#paint5_radial_2131_10519)"/>
<circle cx="116.647" cy="37.2924" r="22.6475" fill="url(#paint6_radial_2131_10519)"/>
<circle cx="213.5" cy="102.145" r="17.5" fill="url(#paint7_radial_2131_10519)"/>
<path d="M120.911 126.699C126.141 115.773 127.151 103.299 126.697 96.3044C131.286 91.9058 142.851 79.6161 148.083 91.5166C144.901 115.145 150.568 120.79 159.937 131.121C164.601 129.118 180.882 125.103 188.349 138.648C217.323 129.497 226.392 154.724 225.831 163.436C225.37 170.612 219.73 179.385 205.322 174.084C202.669 185.321 187.445 184.768 174.808 177.134C172.191 191.15 146.102 191.961 135.877 183.072C126.549 187.078 114.154 183.664 110.098 173.374C86.2672 184.122 68.161 169.151 73.7919 162.407C67.3508 146.345 82.2861 138.82 90.3765 139.887C97.3659 122.627 113.645 123.903 120.911 126.699Z" fill="url(#paint8_linear_2131_10519)"/>
<path d="M106.898 142.847C113.371 138.922 117.859 133.074 120.911 126.699M120.911 126.699C126.141 115.773 127.151 103.299 126.697 96.3044C131.286 91.9058 142.851 79.6161 148.083 91.5166C144.901 115.145 150.568 120.79 159.937 131.121M120.911 126.699C113.645 123.903 97.3659 122.627 90.3765 139.887M90.3765 139.887C82.2861 138.82 67.3508 146.345 73.7919 162.407M90.3765 139.887C91.0641 139.895 92.7925 140.287 94.2055 141.797M73.7919 162.407C68.161 169.151 86.2672 184.122 110.098 173.374C114.154 183.664 126.549 187.078 135.877 183.072C146.102 191.961 172.191 191.15 174.808 177.134C187.445 184.768 202.669 185.321 205.322 174.084C219.73 179.385 225.37 170.612 225.831 163.436C226.392 154.724 217.323 129.497 188.349 138.648M73.7919 162.407C74.2977 161.961 75.462 161.082 76.073 161.132M188.349 138.648C180.882 125.103 164.601 129.118 159.937 131.121M188.349 138.648L185.663 139.68M159.937 131.121C160.626 131.7 162.381 132.962 163.884 133.386" stroke="url(#paint9_linear_2131_10519)" stroke-width="1.07796"/>
<path d="M175.133 126.701C171.386 111.386 171.405 94.4534 172.3 85.0727C168.641 78.6299 159.977 69.61 154.595 85.0727C155.657 117.287 150.346 124.266 141.493 137.152C137.598 133.93 123.788 126.701 116.352 144.131C91.9185 128.561 81.7884 152.724 81.6495 164.534C81.535 174.261 85.7903 186.719 98.6464 181.177C100.138 196.626 113.361 197.578 124.85 188.694C126.112 207.885 148.645 211.889 158.136 201.043C165.926 207.485 176.903 204.264 181.153 190.842C201.018 207.992 217.769 189.825 213.376 180.104C220.104 159.165 207.71 147.353 200.628 147.89C195.812 123.837 181.625 123.742 175.133 126.701Z" fill="url(#paint10_linear_2131_10519)"/>
<path d="M186.11 150.037C180.786 144.023 177.319 135.637 175.133 126.701M175.133 126.701C171.386 111.386 171.405 94.4534 172.3 85.0727C168.641 78.6299 159.977 69.61 154.595 85.0727C155.657 117.287 150.346 124.266 141.493 137.152M175.133 126.701C181.625 123.742 195.812 123.837 200.628 147.89M200.628 147.89C207.71 147.353 220.104 159.165 213.376 180.104M200.628 147.89C200.032 147.823 198.508 148.159 197.176 150.037M213.376 180.104C217.769 189.825 201.018 207.992 181.153 190.842C176.903 204.264 165.926 207.485 158.136 201.043C148.645 211.889 126.112 207.885 124.85 188.694C113.361 197.578 100.138 196.626 98.6464 181.177C85.7903 186.719 81.535 174.261 81.6495 164.534C81.7884 152.724 91.9185 128.561 116.352 144.131M213.376 180.104C212.97 179.446 212.025 178.131 211.492 178.131M116.352 144.131C123.788 126.701 137.598 133.93 141.493 137.152M116.352 144.131L118.603 145.823M141.493 137.152C140.855 137.855 139.245 139.362 137.913 139.766" stroke="url(#paint11_linear_2131_10519)" stroke-width="1.07796"/>
<path d="M171.244 162.688C167.135 152.183 167.156 140.568 168.137 134.133C164.124 129.714 154.622 123.527 148.719 134.133C149.884 156.23 144.058 161.018 134.349 169.857C130.077 167.647 114.93 162.688 106.775 174.645C79.9769 163.964 68.8666 180.539 68.7141 188.64C68.5886 195.312 73.2557 203.858 87.356 200.056C88.9923 210.653 103.494 211.306 116.095 205.212C117.48 218.376 142.193 221.123 152.602 213.683C161.147 218.102 173.186 215.893 177.847 206.686C199.634 218.45 218.006 205.988 213.188 199.32C220.567 184.957 206.974 176.854 199.207 177.223C193.925 160.723 178.364 160.658 171.244 162.688Z" fill="url(#paint12_linear_2131_10519)"/>
<path d="M183.284 178.696C177.445 174.57 173.642 168.818 171.244 162.688M171.244 162.688C167.135 152.183 167.156 140.568 168.137 134.133C164.124 129.714 154.622 123.527 148.719 134.133C149.884 156.23 144.058 161.018 134.349 169.857M171.244 162.688C178.364 160.658 193.925 160.723 199.207 177.223M199.207 177.223C206.974 176.854 220.567 184.957 213.188 199.32M199.207 177.223C198.553 177.177 196.881 177.407 195.42 178.696M213.188 199.32C218.006 205.988 199.634 218.45 177.847 206.686C173.186 215.893 161.147 218.102 152.602 213.683C142.193 221.123 117.48 218.376 116.095 205.212C103.494 211.306 88.9923 210.653 87.356 200.056C73.2557 203.858 68.5886 195.312 68.7141 188.64C68.8666 180.539 79.9769 163.964 106.775 174.645M213.188 199.32C212.743 198.869 211.706 197.966 211.122 197.966M106.775 174.645C114.93 162.688 130.077 167.647 134.349 169.857M106.775 174.645L109.244 175.805M134.349 169.857C133.649 170.339 131.884 171.373 130.423 171.65" stroke="url(#paint13_linear_2131_10519)" stroke-width="1.07796"/>
<path d="M168.624 175.073C163.389 160.959 163.416 145.355 164.666 136.71C159.553 130.773 147.448 122.461 139.927 136.71C141.411 166.397 133.99 172.829 121.62 184.704C116.178 181.735 96.8815 175.073 86.4912 191.136C52.3516 176.787 38.1973 199.054 38.0031 209.937C37.8432 218.901 43.789 230.382 61.7524 225.275C63.837 239.512 82.3119 240.389 98.3658 232.202C100.129 249.887 131.613 253.577 144.875 243.582C155.76 249.519 171.098 246.55 177.035 234.181C204.792 249.986 228.198 233.244 222.06 224.286C231.46 204.989 214.143 194.104 204.248 194.599C197.519 172.433 177.695 172.346 168.624 175.073Z" fill="url(#paint14_linear_2131_10519)"/>
<path d="M183.962 196.578C176.523 191.036 171.678 183.308 168.624 175.073M168.624 175.073C163.389 160.959 163.416 145.355 164.666 136.71C159.553 130.773 147.448 122.461 139.927 136.71C141.411 166.397 133.99 172.829 121.62 184.704M168.624 175.073C177.695 172.346 197.519 172.433 204.248 194.599M204.248 194.599C214.143 194.104 231.46 204.989 222.06 224.286M204.248 194.599C203.415 194.537 201.285 194.847 199.424 196.578M222.06 224.286C228.198 233.244 204.792 249.986 177.035 234.181C171.098 246.55 155.76 249.519 144.875 243.582C131.613 253.577 100.129 249.887 98.3658 232.202C82.3119 240.389 63.837 239.512 61.7524 225.275C43.789 230.382 37.8432 218.901 38.0031 209.937C38.1973 199.054 52.3516 176.787 86.4912 191.136M222.06 224.286C221.492 223.68 220.172 222.467 219.427 222.467M86.4912 191.136C96.8815 175.073 116.178 181.735 121.62 184.704M86.4912 191.136L89.637 192.695M121.62 184.704C120.728 185.351 118.479 186.74 116.619 187.112" stroke="url(#paint15_linear_2131_10519)" stroke-width="1.07796"/>
<path d="M163.811 190.865C159.914 178.487 158.067 144.914 158.997 137.333C155.191 132.126 150.844 124.836 145.245 137.333C156.565 161.154 138.024 188.897 128.815 199.311C124.763 196.707 110.396 190.865 102.66 204.951C77.2413 192.368 66.7028 211.895 66.5582 221.44C66.4392 229.301 70.866 255.281 84.2406 250.802C85.7927 263.287 99.5481 264.056 111.501 256.877C112.814 272.386 136.255 275.622 146.129 266.857C154.233 272.063 165.653 269.46 170.074 258.612C190.74 272.473 208.166 241.88 203.596 234.023C210.596 217.101 197.702 207.555 190.335 207.989C185.325 188.55 170.565 188.473 163.811 190.865Z" fill="url(#paint16_linear_2131_10519)"/>
<path d="M175.231 209.724C169.693 204.864 166.085 198.087 163.811 190.865M163.811 190.865C159.914 178.487 158.067 144.914 158.997 137.333C155.191 132.126 150.844 124.836 145.245 137.333C156.565 161.154 138.024 188.897 128.815 199.311M163.811 190.865C170.565 188.473 185.325 188.55 190.335 207.989M190.335 207.989C197.702 207.555 210.596 217.101 203.596 234.023M190.335 207.989C189.715 207.935 188.128 208.206 186.743 209.724M203.596 234.023C208.166 241.88 190.74 272.473 170.074 258.612C165.653 269.46 154.233 272.063 146.129 266.857C136.255 275.622 112.814 272.386 111.501 256.877C99.5481 264.056 85.7927 263.287 84.2406 250.802C70.866 255.281 66.4392 229.301 66.5582 221.44C66.7028 211.895 77.2413 192.368 102.66 204.951M203.596 234.023C203.174 233.492 202.191 232.429 201.636 232.429M102.66 204.951C110.396 190.865 124.763 196.707 128.815 199.311M102.66 204.951L105.002 206.319M128.815 199.311C128.151 199.879 126.476 201.097 125.091 201.423" stroke="url(#paint17_linear_2131_10519)" stroke-width="1.07796"/>
<path d="M101.097 110.028C101.067 109.78 101.128 109.531 101.273 109.328C103.481 106.266 121.979 81.9247 152.253 81.9247C182.528 81.9247 201.026 106.266 203.233 109.328C203.379 109.531 203.44 109.78 203.409 110.028L197.576 157.772C197.48 158.558 196.571 158.945 195.938 158.471L152.871 126.183C152.505 125.909 152.002 125.909 151.636 126.183L108.569 158.471C107.936 158.945 107.026 158.558 106.93 157.772L101.097 110.028Z" fill="url(#paint18_linear_2131_10519)"/>
<path d="M98.9481 107.478C98.9136 107.225 98.9707 106.974 99.1201 106.766C101.458 103.52 121.808 76.5349 152.253 76.5349C182.699 76.5349 203.048 103.52 205.387 106.766C205.536 106.974 205.593 107.225 205.559 107.478L199.743 150.207C199.636 150.996 198.711 151.37 198.086 150.876L152.891 115.224C152.517 114.929 151.99 114.929 151.616 115.224L106.421 150.876C105.795 151.37 104.871 150.996 104.764 150.207L98.9481 107.478Z" fill="white"/>
<path d="M98.9481 108.556C98.9136 108.303 98.9707 108.052 99.1201 107.844C101.458 104.597 121.808 77.6128 152.253 77.6128C182.699 77.6128 203.048 104.597 205.387 107.844C205.536 108.052 205.593 108.303 205.559 108.556L199.743 151.285C199.636 152.074 198.711 152.447 198.086 151.954L152.891 116.302C152.517 116.007 151.99 116.007 151.616 116.302L106.421 151.954C105.795 152.447 104.871 152.074 104.764 151.285L98.9481 108.556Z" fill="url(#paint19_linear_2131_10519)"/>
<path d="M98.9481 108.556C98.9136 108.303 98.9707 108.052 99.1201 107.844C101.458 104.597 121.808 77.6128 152.253 77.6128C182.699 77.6128 203.048 104.597 205.387 107.844C205.536 108.052 205.593 108.303 205.559 108.556L199.743 151.285C199.636 152.074 198.711 152.447 198.086 151.954L152.891 116.302C152.517 116.007 151.99 116.007 151.616 116.302L106.421 151.954C105.795 152.447 104.871 152.074 104.764 151.285L98.9481 108.556Z" fill="url(#paint20_radial_2131_10519)" fill-opacity="0.2"/>
<path d="M98.9481 108.556C98.9136 108.303 98.9707 108.052 99.1201 107.844C101.458 104.597 121.808 77.6128 152.253 77.6128C182.699 77.6128 203.048 104.597 205.387 107.844C205.536 108.052 205.593 108.303 205.559 108.556L199.743 151.285C199.636 152.074 198.711 152.447 198.086 151.954L152.891 116.302C152.517 116.007 151.99 116.007 151.616 116.302L106.421 151.954C105.795 152.447 104.871 152.074 104.764 151.285L98.9481 108.556Z" fill="url(#paint21_radial_2131_10519)" fill-opacity="0.2"/>
<path d="M119.376 84.5879C119.376 63.7995 125.673 44.7626 132.662 30.0348C139.929 14.7235 147.944 4.06954 150.411 0.946865C150.808 0.445111 151.543 0.445108 151.94 0.946863C154.407 4.06954 162.422 14.7235 169.689 30.0348C176.678 44.7626 182.975 63.7995 182.975 84.5879C182.975 104.946 178.721 123.625 173.815 138.221C172.356 142.563 170.839 146.543 169.359 150.099C169.338 150.149 169.314 150.197 169.283 150.241C168.82 150.909 164.658 156.304 151.175 156.304C137.693 156.304 133.531 150.909 133.068 150.241C133.037 150.197 133.013 150.149 132.992 150.099C131.512 146.543 129.995 142.563 128.536 138.221C123.63 123.625 119.376 104.946 119.376 84.5879Z" fill="white"/>
<path d="M120.454 85.6659C120.454 64.8775 126.75 45.8406 133.74 31.1128C141.007 15.8015 149.022 5.14754 151.489 2.02487C151.886 1.52311 152.621 1.52311 153.017 2.02487C155.485 5.14754 163.5 15.8015 170.767 31.1128C177.756 45.8406 184.053 64.8775 184.053 85.6659C184.053 106.024 179.799 124.703 174.893 139.299C173.433 143.641 171.917 147.621 170.437 151.177C170.416 151.227 170.392 151.275 170.361 151.319C169.898 151.987 165.736 157.382 152.253 157.382C138.771 157.382 134.609 151.987 134.146 151.319C134.115 151.275 134.09 151.227 134.07 151.177C132.59 147.621 131.073 143.641 129.614 139.299C124.708 124.703 120.454 106.024 120.454 85.6659Z" fill="url(#paint22_linear_2131_10519)"/>
<path d="M120.454 85.6659C120.454 64.8775 126.75 45.8406 133.74 31.1128C141.007 15.8015 149.022 5.14754 151.489 2.02487C151.886 1.52311 152.621 1.52311 153.017 2.02487C155.485 5.14754 163.5 15.8015 170.767 31.1128C177.756 45.8406 184.053 64.8775 184.053 85.6659C184.053 106.024 179.799 124.703 174.893 139.299C173.433 143.641 171.917 147.621 170.437 151.177C170.416 151.227 170.392 151.275 170.361 151.319C169.898 151.987 165.736 157.382 152.253 157.382C138.771 157.382 134.609 151.987 134.146 151.319C134.115 151.275 134.09 151.227 134.07 151.177C132.59 147.621 131.073 143.641 129.614 139.299C124.708 124.703 120.454 106.024 120.454 85.6659Z" fill="url(#paint23_radial_2131_10519)"/>
<path fill-rule="evenodd" clip-rule="evenodd" d="M153.017 2.02487C152.621 1.52311 151.886 1.52311 151.489 2.02487C149.022 5.14754 141.007 15.8015 133.74 31.1128C133.74 31.1128 139.411 34.7906 152.253 34.7906C165.096 34.7906 170.767 31.1128 170.767 31.1128C163.5 15.8015 155.485 5.14754 153.017 2.02487ZM174.351 39.2492C185.67 79.7688 177.046 123.965 159.666 121.27C147.877 119.442 146.741 128.484 145.848 135.592C145.424 138.964 145.055 141.9 143.63 143.036C134.764 141.877 129.614 139.299 129.614 139.299C131.073 143.641 132.59 147.621 134.07 151.177C134.09 151.227 134.115 151.275 134.146 151.319C134.609 151.987 138.771 157.382 152.253 157.382C165.736 157.382 169.898 151.987 170.361 151.319C170.392 151.275 170.416 151.227 170.437 151.177C171.917 147.621 173.433 143.641 174.893 139.299C179.799 124.703 184.053 106.024 184.053 85.6659C184.053 68.5249 179.772 52.5748 174.351 39.2492Z" fill="url(#paint24_linear_2131_10519)"/>
<path fill-rule="evenodd" clip-rule="evenodd" d="M153.017 2.02487C152.621 1.52311 151.886 1.52311 151.489 2.02487C149.022 5.14754 141.007 15.8015 133.74 31.1128C133.74 31.1128 139.411 34.7906 152.253 34.7906C165.096 34.7906 170.767 31.1128 170.767 31.1128C163.5 15.8015 155.485 5.14754 153.017 2.02487ZM174.351 39.2492C185.67 79.7688 177.046 123.965 159.666 121.27C147.877 119.442 146.741 128.484 145.848 135.592C145.424 138.964 145.055 141.9 143.63 143.036C134.764 141.877 129.614 139.299 129.614 139.299C131.073 143.641 132.59 147.621 134.07 151.177C134.09 151.227 134.115 151.275 134.146 151.319C134.609 151.987 138.771 157.382 152.253 157.382C165.736 157.382 169.898 151.987 170.361 151.319C170.392 151.275 170.416 151.227 170.437 151.177C171.917 147.621 173.433 143.641 174.893 139.299C179.799 124.703 184.053 106.024 184.053 85.6659C184.053 68.5249 179.772 52.5748 174.351 39.2492Z" fill="#6A47AC"/>
<path fill-rule="evenodd" clip-rule="evenodd" d="M152.74 1.67595C152.486 1.35905 152.02 1.35905 151.767 1.67595C149.687 4.27334 141.308 15.1676 133.74 31.1128C133.74 31.1128 139.411 34.7906 152.253 34.7906C165.096 34.7906 170.767 31.1128 170.767 31.1128C163.199 15.1676 154.82 4.27334 152.74 1.67595ZM174.893 139.299C174.893 139.299 166.319 143.59 152.253 143.59C138.188 143.59 129.614 139.299 129.614 139.299C131.083 143.671 132.611 147.677 134.101 151.252C134.101 151.252 137.882 157.382 152.253 157.382C166.624 157.382 170.406 151.252 170.406 151.252C171.895 147.677 173.423 143.671 174.893 139.299Z" fill="url(#paint25_linear_2131_10519)"/>
<ellipse cx="139.318" cy="63.055" rx="8.08467" ry="10.2406" transform="rotate(1.28841 139.318 63.055)" fill="#603AA9"/>
<ellipse cx="140.396" cy="63.0793" rx="7.48581" ry="9.48202" transform="rotate(1.28841 140.396 63.0793)" fill="url(#paint26_radial_2131_10519)"/>
<ellipse cx="140.396" cy="63.0793" rx="7.48581" ry="9.48202" transform="rotate(1.28841 140.396 63.0793)" fill="url(#paint27_radial_2131_10519)" fill-opacity="0.8"/>
<ellipse cx="140.396" cy="63.0793" rx="7.48581" ry="9.48202" transform="rotate(1.28841 140.396 63.0793)" fill="url(#paint28_radial_2131_10519)" fill-opacity="0.2"/>
<path opacity="0.34" fill-rule="evenodd" clip-rule="evenodd" d="M145.829 69.5278C147.054 67.877 147.825 65.6772 147.88 63.2477C147.997 58.0122 144.742 53.6927 140.609 53.5997C138.778 53.5585 137.082 54.3538 135.75 55.7077C134.581 67.714 141.983 69.9237 145.829 69.5278Z" fill="white"/>
<ellipse cx="136.084" cy="90.0093" rx="5.53162" ry="7.00671" fill="#603AA9"/>
<ellipse cx="137.162" cy="90.0093" rx="5.12187" ry="6.4877" fill="url(#paint29_radial_2131_10519)"/>
<ellipse cx="137.162" cy="90.0093" rx="5.12187" ry="6.4877" fill="url(#paint30_radial_2131_10519)" fill-opacity="0.8"/>
<ellipse cx="137.162" cy="90.0093" rx="5.12187" ry="6.4877" fill="url(#paint31_radial_2131_10519)" fill-opacity="0.2"/>
<path opacity="0.34" fill-rule="evenodd" clip-rule="evenodd" d="M140.978 94.3367C141.79 93.1887 142.284 91.672 142.284 90.0093C142.284 86.4262 139.991 83.5216 137.162 83.5216C135.909 83.5216 134.761 84.0917 133.871 85.0383C133.256 93.269 138.353 94.6667 140.978 94.3367Z" fill="white"/>
<ellipse cx="137.163" cy="113.749" rx="5.53162" ry="7.00671" transform="rotate(-4.26686 137.163 113.749)" fill="#603AA9"/>
<ellipse cx="138.238" cy="113.669" rx="5.12187" ry="6.4877" transform="rotate(-4.26686 138.238 113.669)" fill="url(#paint32_radial_2131_10519)"/>
<ellipse cx="138.238" cy="113.669" rx="5.12187" ry="6.4877" transform="rotate(-4.26686 138.238 113.669)" fill="url(#paint33_radial_2131_10519)" fill-opacity="0.8"/>
<ellipse cx="138.238" cy="113.669" rx="5.12187" ry="6.4877" transform="rotate(-4.26686 138.238 113.669)" fill="url(#paint34_radial_2131_10519)" fill-opacity="0.2"/>
<path opacity="0.34" fill-rule="evenodd" clip-rule="evenodd" d="M142.365 117.7C143.09 116.495 143.469 114.946 143.346 113.288C143.079 109.715 140.576 106.989 137.755 107.199C136.505 107.292 135.403 107.946 134.586 108.957C134.585 117.21 139.772 118.225 142.365 117.7Z" fill="white"/>
<defs>
<radialGradient id="paint0_radial_2131_10519" cx="0" cy="0" r="1" gradientUnits="userSpaceOnUse" gradientTransform="translate(124.126 153.493) rotate(90.5912) scale(139.677 575.059)">
<stop stop-opacity="0"/>
<stop offset="0.221563"/>
<stop offset="1" stop-opacity="0"/>
</radialGradient>
<linearGradient id="paint1_linear_2131_10519" x1="118.362" y1="193.874" x2="3.06225" y2="193.874" gradientUnits="userSpaceOnUse">
<stop stop-color="white" stop-opacity="0"/>
<stop offset="1" stop-color="white"/>
</linearGradient>
<linearGradient id="paint2_linear_2131_10519" x1="118.877" y1="35.7817" x2="-7.49717e-06" y2="35.7817" gradientUnits="userSpaceOnUse">
<stop stop-color="white" stop-opacity="0"/>
<stop offset="1" stop-color="white"/>
</linearGradient>
<linearGradient id="paint3_linear_2131_10519" x1="23.0671" y1="216.141" x2="262.313" y2="216.141" gradientUnits="userSpaceOnUse">
<stop stop-color="#E3E3E3"/>
<stop offset="0.21988" stop-color="#99C2FF"/>
<stop offset="0.512048" stop-color="#F48DA5"/>
<stop offset="0.75" stop-color="#A699DC"/>
<stop offset="1" stop-color="#E3E3E3"/>
</linearGradient>
<linearGradient id="paint4_linear_2131_10519" x1="23.0671" y1="216.141" x2="262.313" y2="216.141" gradientUnits="userSpaceOnUse">
<stop stop-color="#E3E3E3"/>
<stop offset="0.21988" stop-color="#99C2FF"/>
<stop offset="0.512048" stop-color="#F48DA5"/>
<stop offset="0.75" stop-color="#A699DC"/>
<stop offset="1" stop-color="#E3E3E3"/>
</linearGradient>
<radialGradient id="paint5_radial_2131_10519" cx="0" cy="0" r="1" gradientUnits="userSpaceOnUse" gradientTransform="translate(92 119.045) rotate(65.556) scale(19.3329 14.1124)">
<stop stop-color="#FFF3D5"/>
<stop offset="0.701245" stop-color="#C7F900"/>
<stop offset="0.933192" stop-color="#82CD21"/>
<stop offset="0.996209" stop-color="#88AC20"/>
</radialGradient>
<radialGradient id="paint6_radial_2131_10519" cx="0" cy="0" r="1" gradientUnits="userSpaceOnUse" gradientTransform="translate(109.098 26.7235) rotate(65.556) scale(36.4867 26.6341)">
<stop stop-color="#D5F5FF"/>
<stop offset="0.701245" stop-color="#00BDF9"/>
<stop offset="0.933192" stop-color="#0788FF"/>
<stop offset="0.996209" stop-color="#4F60FF"/>
</radialGradient>
<radialGradient id="paint7_radial_2131_10519" cx="0" cy="0" r="1" gradientUnits="userSpaceOnUse" gradientTransform="translate(207.667 93.9782) rotate(65.556) scale(28.1938 20.5805)">
<stop stop-color="#FFDFD5"/>
<stop offset="0.701245" stop-color="#F92D00"/>
<stop offset="0.933192" stop-color="#CD4021"/>
<stop offset="0.996209" stop-color="#AC2020"/>
</radialGradient>
<linearGradient id="paint8_linear_2131_10519" x1="153.419" y1="105.807" x2="147.486" y2="177.526" gradientUnits="userSpaceOnUse">
<stop stop-color="#FF7008"/>
<stop offset="0.288221" stop-color="#FFEDDD"/>
<stop offset="0.587082" stop-color="white"/>
<stop offset="1" stop-color="#F9FCFF"/>
</linearGradient>
<linearGradient id="paint9_linear_2131_10519" x1="153.419" y1="105.807" x2="147.486" y2="177.526" gradientUnits="userSpaceOnUse">
<stop stop-color="#FF2608"/>
<stop offset="0.435212" stop-color="#FFF0DA"/>
<stop offset="0.786028" stop-color="#FFEECE" stop-opacity="0"/>
<stop offset="1" stop-color="#FFF0DA"/>
</linearGradient>
<linearGradient id="paint10_linear_2131_10519" x1="148.48" y1="94.9057" x2="148.48" y2="192.271" gradientUnits="userSpaceOnUse">
<stop stop-color="#FF7008"/>
<stop offset="0.288221" stop-color="#FFEDDD"/>
<stop offset="0.587082" stop-color="white"/>
<stop offset="1" stop-color="#F9FCFF"/>
</linearGradient>
<linearGradient id="paint11_linear_2131_10519" x1="148.48" y1="94.9057" x2="148.48" y2="192.271" gradientUnits="userSpaceOnUse">
<stop stop-color="#FF2608"/>
<stop offset="0.435212" stop-color="#FFF0DA"/>
<stop offset="0.786028" stop-color="#FFEECE" stop-opacity="0"/>
<stop offset="1" stop-color="#FFF0DA"/>
</linearGradient>
<linearGradient id="paint12_linear_2131_10519" x1="142.013" y1="140.878" x2="142.013" y2="207.666" gradientUnits="userSpaceOnUse">
<stop stop-color="#FF7008"/>
<stop offset="0.288221" stop-color="#FFEDDD"/>
<stop offset="0.587082" stop-color="white"/>
<stop offset="1" stop-color="#F9FCFF"/>
</linearGradient>
<linearGradient id="paint13_linear_2131_10519" x1="142.013" y1="140.878" x2="142.013" y2="207.666" gradientUnits="userSpaceOnUse">
<stop stop-color="#FF2608"/>
<stop offset="0.435212" stop-color="#FFF0DA"/>
<stop offset="0.786028" stop-color="#FFEECE" stop-opacity="0"/>
<stop offset="1" stop-color="#FFF0DA"/>
</linearGradient>
<linearGradient id="paint14_linear_2131_10519" x1="131.384" y1="145.772" x2="131.384" y2="235.498" gradientUnits="userSpaceOnUse">
<stop stop-color="#FF7008"/>
<stop offset="0.288221" stop-color="#FFEDDD"/>
<stop offset="0.587082" stop-color="white"/>
<stop offset="1" stop-color="#F9FCFF"/>
</linearGradient>
<linearGradient id="paint15_linear_2131_10519" x1="131.384" y1="145.772" x2="131.384" y2="235.498" gradientUnits="userSpaceOnUse">
<stop stop-color="#FF2608"/>
<stop offset="0.435212" stop-color="#FFF0DA"/>
<stop offset="0.786028" stop-color="#FFEECE" stop-opacity="0"/>
<stop offset="1" stop-color="#FFF0DA"/>
</linearGradient>
<linearGradient id="paint16_linear_2131_10519" x1="136.084" y1="150.322" x2="136.084" y2="255.734" gradientUnits="userSpaceOnUse">
<stop stop-color="#FFE2C7"/>
<stop offset="0.288221" stop-color="white"/>
<stop offset="0.587082" stop-color="white"/>
<stop offset="1" stop-color="#F9FCFF"/>
</linearGradient>
<linearGradient id="paint17_linear_2131_10519" x1="136.084" y1="150.322" x2="136.084" y2="255.734" gradientUnits="userSpaceOnUse">
<stop stop-color="#FF8159"/>
<stop offset="0.435212" stop-color="#FFF0DA"/>
<stop offset="0.786028" stop-color="#FFEECE" stop-opacity="0"/>
<stop offset="1" stop-color="#FFF0DA"/>
</linearGradient>
<linearGradient id="paint18_linear_2131_10519" x1="100.96" y1="122.608" x2="203.329" y2="122.608" gradientUnits="userSpaceOnUse">
<stop stop-color="#FF7E07"/>
<stop offset="0.207425" stop-color="#FFBA07"/>
<stop offset="0.428943" stop-color="#FFBA07"/>
<stop offset="0.690738" stop-color="#FF7E07"/>
</linearGradient>
<linearGradient id="paint19_linear_2131_10519" x1="207.007" y1="141.704" x2="161.752" y2="175.382" gradientUnits="userSpaceOnUse">
<stop stop-color="#472976"/>
<stop offset="1" stop-color="#8151CB"/>
</linearGradient>
<radialGradient id="paint20_radial_2131_10519" cx="0" cy="0" r="1" gradientUnits="userSpaceOnUse" gradientTransform="translate(129.661 149.889) rotate(-74.6627) scale(17.1954 27.0315)">
<stop stop-color="white"/>
<stop offset="1" stop-color="white" stop-opacity="0"/>
</radialGradient>
<radialGradient id="paint21_radial_2131_10519" cx="0" cy="0" r="1" gradientUnits="userSpaceOnUse" gradientTransform="translate(168.595 77.0689) rotate(148.857) scale(51.4624 17.6107)">
<stop stop-color="#B78AFF"/>
<stop offset="1" stop-color="#8233FF" stop-opacity="0"/>
</radialGradient>
<linearGradient id="paint22_linear_2131_10519" x1="187.287" y1="88.3924" x2="116.681" y2="88.3924" gradientUnits="userSpaceOnUse">
<stop stop-color="#4D2C7E"/>
<stop offset="0.255548" stop-color="#845CC0"/>
<stop offset="0.846661" stop-color="#E4D2FF"/>
<stop offset="1" stop-color="#D2B5FF"/>
</linearGradient>
<radialGradient id="paint23_radial_2131_10519" cx="0" cy="0" r="1" gradientUnits="userSpaceOnUse" gradientTransform="translate(162.961 152.457) rotate(-94.3449) scale(97.7655 34.6186)">
<stop stop-color="#644CC1"/>
<stop offset="1" stop-color="#644CC1" stop-opacity="0"/>
</radialGradient>
<linearGradient id="paint24_linear_2131_10519" x1="187.287" y1="88.3924" x2="116.681" y2="88.3924" gradientUnits="userSpaceOnUse">
<stop stop-color="#4D2C7E"/>
<stop offset="0.255548" stop-color="#845CC0"/>
<stop offset="0.846661" stop-color="#E4D2FF"/>
<stop offset="1" stop-color="#D2B5FF"/>
</linearGradient>
<linearGradient id="paint25_linear_2131_10519" x1="120.397" y1="83.0095" x2="183.974" y2="83.0095" gradientUnits="userSpaceOnUse">
<stop stop-color="#FF7E07"/>
<stop offset="0.207425" stop-color="#FFBA07"/>
<stop offset="0.428943" stop-color="#FFBA07"/>
<stop offset="0.690738" stop-color="#FF7E07"/>
</linearGradient>
<radialGradient id="paint26_radial_2131_10519" cx="0" cy="0" r="1" gradientUnits="userSpaceOnUse" gradientTransform="translate(142.604 72.7829) rotate(-106.632) scale(13.7324 5.83122)">
<stop stop-color="#FFAD07"/>
<stop offset="1" stop-color="#FFD889"/>
</radialGradient>
<radialGradient id="paint27_radial_2131_10519" cx="0" cy="0" r="1" gradientUnits="userSpaceOnUse" gradientTransform="translate(140.549 60.8839) rotate(45.8538) scale(6.17497 4.98106)">
<stop stop-color="white"/>
<stop offset="1" stop-color="white" stop-opacity="0"/>
</radialGradient>
<radialGradient id="paint28_radial_2131_10519" cx="0" cy="0" r="1" gradientUnits="userSpaceOnUse" gradientTransform="translate(141.481 60.3362) rotate(51.7098) scale(12.2333 10.8261)">
<stop stop-color="white"/>
<stop offset="1" stop-color="white" stop-opacity="0"/>
</radialGradient>
<radialGradient id="paint29_radial_2131_10519" cx="0" cy="0" r="1" gradientUnits="userSpaceOnUse" gradientTransform="translate(138.673 96.6486) rotate(-106.632) scale(9.39588 3.98979)">
<stop stop-color="#FFAD07"/>
<stop offset="1" stop-color="#FFD889"/>
</radialGradient>
<radialGradient id="paint30_radial_2131_10519" cx="0" cy="0" r="1" gradientUnits="userSpaceOnUse" gradientTransform="translate(137.267 88.5072) rotate(45.8538) scale(4.22498 3.40809)">
<stop stop-color="white"/>
<stop offset="1" stop-color="white" stop-opacity="0"/>
</radialGradient>
<radialGradient id="paint31_radial_2131_10519" cx="0" cy="0" r="1" gradientUnits="userSpaceOnUse" gradientTransform="translate(137.905 88.1324) rotate(51.7098) scale(8.37017 7.40734)">
<stop stop-color="white"/>
<stop offset="1" stop-color="white" stop-opacity="0"/>
</radialGradient>
<radialGradient id="paint32_radial_2131_10519" cx="0" cy="0" r="1" gradientUnits="userSpaceOnUse" gradientTransform="translate(139.749 120.308) rotate(-106.632) scale(9.39588 3.98979)">
<stop stop-color="#FFAD07"/>
<stop offset="1" stop-color="#FFD889"/>
</radialGradient>
<radialGradient id="paint33_radial_2131_10519" cx="0" cy="0" r="1" gradientUnits="userSpaceOnUse" gradientTransform="translate(138.343 112.167) rotate(45.8538) scale(4.22498 3.40809)">
<stop stop-color="white"/>
<stop offset="1" stop-color="white" stop-opacity="0"/>
</radialGradient>
<radialGradient id="paint34_radial_2131_10519" cx="0" cy="0" r="1" gradientUnits="userSpaceOnUse" gradientTransform="translate(138.98 111.792) rotate(51.7098) scale(8.37017 7.40734)">
<stop stop-color="white"/>
<stop offset="1" stop-color="white" stop-opacity="0"/>
</radialGradient>
</defs>
</svg>
