<svg width="353" height="245" viewBox="0 0 353 245" fill="none" xmlns="http://www.w3.org/2000/svg">
<g opacity="0.7">
<path d="M14.2985 98.511C-37.2635 67.2596 -63.0445 51.634 -67.9484 32.8681C-69.5322 26.8075 -69.5322 20.6336 -67.9484 14.5731C-63.0445 -4.19279 -37.2635 -19.8185 14.2985 -51.0698C65.8606 -82.3211 91.6416 -97.9468 122.604 -100.919C132.603 -101.879 142.79 -101.879 152.789 -100.919C183.751 -97.9468 209.532 -82.3211 261.094 -51.0698C312.656 -19.8185 338.437 -4.19279 343.341 14.5731C344.925 20.6336 344.925 26.8075 343.341 32.8681C338.437 51.634 312.656 67.2596 261.094 98.511C209.532 129.762 183.751 145.388 152.789 148.36C142.79 149.32 132.603 149.32 122.604 148.36C91.6416 145.388 65.8606 129.762 14.2985 98.511Z" fill="url(#paint0_linear_1370_11392)"/>
<path d="M-69.1362 3.0637H344.688V23.0071H-69.1362V3.0637Z" fill="url(#paint1_linear_1370_11392)"/>
</g>
<rect opacity="0.7" width="288.587" height="288.587" rx="79.7734" transform="matrix(0.855186 -0.518321 0.855186 0.518321 -109 0.580688)" fill="url(#paint2_linear_1370_11392)"/>
<defs>
<linearGradient id="paint0_linear_1370_11392" x1="-69.1362" y1="23.0071" x2="344.688" y2="23.0071" gradientUnits="userSpaceOnUse">
<stop stop-color="white"/>
<stop offset="0.21988" stop-color="#E7E1FF"/>
<stop offset="0.512048" stop-color="white"/>
<stop offset="0.75" stop-color="#DDDAFF"/>
<stop offset="0.96317" stop-color="#D7DBFF"/>
<stop offset="1" stop-color="#E4CEFF"/>
</linearGradient>
<linearGradient id="paint1_linear_1370_11392" x1="-69.1362" y1="23.0071" x2="344.688" y2="23.0071" gradientUnits="userSpaceOnUse">
<stop stop-color="white"/>
<stop offset="0.21988" stop-color="#E7E1FF"/>
<stop offset="0.512048" stop-color="white"/>
<stop offset="0.75" stop-color="#DDDAFF"/>
<stop offset="0.96317" stop-color="#D7DBFF"/>
<stop offset="1" stop-color="#E4CEFF"/>
</linearGradient>
<linearGradient id="paint2_linear_1370_11392" x1="144.293" y1="0" x2="144.293" y2="288.587" gradientUnits="userSpaceOnUse">
<stop stop-color="#F6F3FF"/>
<stop offset="1" stop-color="#F4F2FF"/>
</linearGradient>
</defs>
</svg>
