<svg width="306" height="249" viewBox="0 0 306 249" fill="none" xmlns="http://www.w3.org/2000/svg">
<g opacity="0.4">
<mask id="mask0_1370_11398" style="mask-type:alpha" maskUnits="userSpaceOnUse" x="23" y="108" width="240" height="141">
<rect x="23.5521" y="108.83" width="239.246" height="139.67" fill="url(#paint0_radial_1370_11398)"/>
</mask>
<g mask="url(#mask0_1370_11398)">
<rect opacity="0.5" x="23.5529" y="110.651" width="115.299" height="137.848" fill="url(#paint1_linear_1370_11398)"/>
<rect opacity="0.5" width="118.877" height="127.912" transform="matrix(-0.969906 2.55421e-08 -6.25782e-08 1.07767 262.8 110.651)" fill="url(#paint2_linear_1370_11398)"/>
</g>
</g>
<path d="M71.7943 159.98C41.9846 139.905 27.0797 129.867 24.2446 117.813C23.329 113.919 23.329 109.953 24.2446 106.06C27.0797 94.0056 41.9846 83.9682 71.7943 63.8932C101.604 43.8183 116.509 33.7808 134.409 31.8715C140.19 31.2549 146.079 31.2549 151.86 31.8715C169.761 33.7808 184.665 43.8183 214.475 63.8932C244.285 83.9682 259.19 94.0056 262.025 106.06C262.941 109.953 262.941 113.919 262.025 117.813C259.19 129.867 244.285 139.905 214.475 159.98C184.665 180.055 169.761 190.092 151.86 192.001C146.079 192.618 140.19 192.618 134.409 192.001C116.509 190.092 101.604 180.055 71.7943 159.98Z" fill="url(#paint3_linear_1370_11398)"/>
<path d="M71.7943 159.98C41.9846 139.905 27.0797 129.867 24.2446 117.813C23.329 113.919 23.329 109.953 24.2446 106.06C27.0797 94.0056 41.9846 83.9682 71.7943 63.8932C101.604 43.8183 116.509 33.7808 134.409 31.8715C140.19 31.2549 146.079 31.2549 151.86 31.8715C169.761 33.7808 184.665 43.8183 214.475 63.8932C244.285 83.9682 259.19 94.0056 262.025 106.06C262.941 109.953 262.941 113.919 262.025 117.813C259.19 129.867 244.285 139.905 214.475 159.98C184.665 180.055 169.761 190.092 151.86 192.001C146.079 192.618 140.19 192.618 134.409 192.001C116.509 190.092 101.604 180.055 71.7943 159.98Z" fill="white" fill-opacity="0.6"/>
<path d="M23.5579 98.667H262.804V111.478H23.5579V98.667Z" fill="url(#paint4_linear_1370_11398)"/>
<path d="M23.5579 98.667H262.804V111.478H23.5579V98.667Z" fill="white" fill-opacity="0.6"/>
<rect width="174.354" height="174.354" rx="51.2441" transform="matrix(0.82945 -0.558581 0.82945 0.558581 -1.42578 97.0719)" fill="white"/>
<g opacity="0.6" filter="url(#filter0_f_1370_11398)">
<path d="M227.382 158.479L106.929 143.067L132.905 126.405L81.8569 93.6601L126.334 65.1303L177.382 97.8752L203.357 81.213L227.382 158.479Z" fill="url(#paint5_radial_1370_11398)"/>
<path d="M227.382 158.479L106.929 143.067L132.905 126.405L81.8569 93.6601L126.334 65.1303L177.382 97.8752L203.357 81.213L227.382 158.479Z" fill="url(#paint6_radial_1370_11398)"/>
</g>
<path d="M232.611 152.514C232.569 152.953 231.935 153.267 231.263 153.183L105.306 137.44C104.795 137.376 104.417 137.097 104.39 136.763L102.458 112.8C102.441 112.596 102.56 112.397 102.784 112.251L110.594 107.186C111.029 106.904 111.032 106.451 110.6 106.167L80.0182 86.0263L79.0961 85.4191C78.9156 85.3003 78.804 85.1454 78.7795 84.9803L74.944 59.0585C74.8641 58.519 75.699 58.115 76.4858 58.3124L179.874 84.2478C180.062 84.2949 180.227 84.3734 180.352 84.4751L234.633 128.681C234.805 128.821 234.891 128.997 234.874 129.176L232.611 152.514Z" fill="url(#paint7_linear_1370_11398)"/>
<path d="M232.611 152.514C232.569 152.953 231.935 153.267 231.263 153.183L105.306 137.44C104.795 137.376 104.417 137.097 104.39 136.763L102.458 112.8C102.441 112.596 102.56 112.397 102.784 112.251L110.594 107.186C111.029 106.904 111.032 106.451 110.6 106.167L80.0182 86.0263L79.0961 85.4191C78.9156 85.3003 78.804 85.1454 78.7795 84.9803L74.944 59.0585C74.8641 58.519 75.699 58.115 76.4858 58.3124L179.874 84.2478C180.062 84.2949 180.227 84.3734 180.352 84.4751L234.633 128.681C234.805 128.821 234.891 128.997 234.874 129.176L232.611 152.514Z" fill="url(#paint8_radial_1370_11398)" fill-opacity="0.2"/>
<path d="M232.611 152.514C232.569 152.953 231.935 153.267 231.263 153.183L105.306 137.44C104.795 137.376 104.417 137.097 104.39 136.763L102.458 112.8C102.441 112.596 102.56 112.397 102.784 112.251L110.594 107.186C111.029 106.904 111.032 106.451 110.6 106.167L80.0182 86.0263L79.0961 85.4191C78.9156 85.3003 78.804 85.1454 78.7795 84.9803L74.944 59.0585C74.8641 58.519 75.699 58.115 76.4858 58.3124L179.874 84.2478C180.062 84.2949 180.227 84.3734 180.352 84.4751L234.633 128.681C234.805 128.821 234.891 128.997 234.874 129.176L232.611 152.514Z" fill="url(#paint9_radial_1370_11398)" fill-opacity="0.2"/>
<path d="M234.9 129.442C234.9 129.902 234.245 130.246 233.543 130.155L103.177 113.313C102.743 113.257 102.431 113.013 102.432 112.729C102.432 112.57 102.531 112.417 102.709 112.305L130.039 95.0508C130.489 94.767 130.491 94.3025 130.044 94.017L74.9707 58.8353C74.8419 58.753 74.7695 58.6412 74.7694 58.5246C74.7694 58.2157 75.2538 58.0036 75.7022 58.1161L179.874 84.248C180.062 84.2951 180.227 84.3736 180.352 84.4753L234.657 128.701C234.815 128.829 234.9 128.988 234.9 129.151L234.9 129.442Z" fill="url(#paint10_linear_1370_11398)"/>
<path d="M234.994 128.359C235.152 128.868 234.453 129.316 233.66 129.215L104.511 112.691C103.623 112.577 103.291 111.874 103.931 111.463L130.289 94.5557C130.732 94.2717 130.732 93.8111 130.289 93.5271L75.5717 58.4286C75.1289 58.1445 75.1289 57.684 75.5717 57.4L123.039 26.9519C123.482 26.6679 124.2 26.6679 124.643 26.9519L179.36 62.0504C179.803 62.3345 180.521 62.3345 180.963 62.0504L207.321 45.1431C207.962 44.7322 209.058 44.9453 209.235 45.5152L234.994 128.359Z" fill="url(#paint11_linear_1370_11398)"/>
<path d="M234.994 128.359C235.152 128.868 234.453 129.316 233.66 129.215L104.511 112.691C103.623 112.577 103.291 111.874 103.931 111.463L130.289 94.5557C130.732 94.2717 130.732 93.8111 130.289 93.5271L75.5717 58.4286C75.1289 58.1445 75.1289 57.684 75.5717 57.4L123.039 26.9519C123.482 26.6679 124.2 26.6679 124.643 26.9519L179.36 62.0504C179.803 62.3345 180.521 62.3345 180.963 62.0504L207.321 45.1431C207.962 44.7322 209.058 44.9453 209.235 45.5152L234.994 128.359Z" fill="url(#paint12_radial_1370_11398)"/>
<path d="M111.427 53.0846C107.84 55.1551 107.84 58.5121 111.427 60.5826L158.63 87.8331C162.216 89.9036 168.031 89.9036 171.618 87.8331C175.204 85.7626 175.204 82.4056 171.618 80.3351L124.415 53.0846C120.828 51.0141 115.013 51.0141 111.427 53.0846Z" fill="url(#paint13_linear_1370_11398)"/>
<rect width="102.334" height="15.7438" rx="7.87188" transform="matrix(0.866041 0.499972 0.866041 -0.499972 104.287 56.219)" fill="#603AA9"/>
<rect width="54.6934" height="12.9273" rx="6.46367" transform="matrix(0.866041 0.499972 0.866041 -0.499972 146.018 79.6984)" fill="#5C28AC"/>
<path d="M198.982 96.2839L162.811 75.402C159.72 73.6172 154.707 73.6172 151.616 75.402C151.305 75.5812 150.935 75.7058 150.577 75.826C150.039 76.0068 149.53 76.1781 149.298 76.5103L149.298 76.5171C149.298 76.554 149.298 76.5913 149.297 76.629C149.321 77.7808 150.093 78.9285 151.616 79.8073L187.787 100.689C190.878 102.474 195.891 102.474 198.982 100.689C200.414 99.8629 201.182 98.6838 201.288 97.4785C201.061 97.0692 200.607 96.9175 200.075 96.7394C199.731 96.6242 199.353 96.4979 198.982 96.2839Z" fill="url(#paint14_linear_1370_11398)"/>
<path d="M198.982 96.2839L162.811 75.402C159.72 73.6172 154.707 73.6172 151.616 75.402C151.305 75.5812 150.935 75.7058 150.577 75.826C150.039 76.0068 149.53 76.1781 149.298 76.5103L149.298 76.5171C149.298 76.554 149.298 76.5913 149.297 76.629C149.321 77.7808 150.093 78.9285 151.616 79.8073L187.787 100.689C190.878 102.474 195.891 102.474 198.982 100.689C200.414 99.8629 201.182 98.6838 201.288 97.4785C201.061 97.0692 200.607 96.9175 200.075 96.7394C199.731 96.6242 199.353 96.4979 198.982 96.2839Z" fill="url(#paint15_radial_1370_11398)" fill-opacity="0.8"/>
<path d="M198.982 96.2839L162.811 75.402C159.72 73.6172 154.707 73.6172 151.616 75.402C151.305 75.5812 150.935 75.7058 150.577 75.826C150.039 76.0068 149.53 76.1781 149.298 76.5103L149.298 76.5171C149.298 76.554 149.298 76.5913 149.297 76.629C149.321 77.7808 150.093 78.9285 151.616 79.8073L187.787 100.689C190.878 102.474 195.891 102.474 198.982 100.689C200.414 99.8629 201.182 98.6838 201.288 97.4785C201.061 97.0692 200.607 96.9175 200.075 96.7394C199.731 96.6242 199.353 96.4979 198.982 96.2839Z" fill="url(#paint16_radial_1370_11398)"/>
<path fill-rule="evenodd" clip-rule="evenodd" d="M151.616 73.344C150.099 74.2197 149.326 75.3626 149.298 76.5103L149.298 76.5171C149.297 76.5544 149.297 76.5917 149.297 76.629C149.298 76.5913 149.298 76.554 149.298 76.5171L149.298 76.5103C149.53 76.1781 150.039 76.0068 150.577 75.826C150.935 75.7058 151.305 75.5812 151.616 75.402C154.707 73.6172 159.72 73.6172 162.811 75.402L198.982 96.2839C199.353 96.4979 199.731 96.6242 200.075 96.7394C200.607 96.9175 201.061 97.0692 201.288 97.4785C201.411 96.0804 200.643 94.6472 198.982 93.6887L162.811 72.8068C159.72 71.022 154.707 71.5592 151.616 73.344Z" fill="url(#paint17_linear_1370_11398)"/>
<path fill-rule="evenodd" clip-rule="evenodd" d="M151.616 73.344C150.099 74.2197 149.326 75.3626 149.298 76.5103L149.298 76.5171C149.297 76.5544 149.297 76.5917 149.297 76.629C149.298 76.5913 149.298 76.554 149.298 76.5171L149.298 76.5103C149.53 76.1781 150.039 76.0068 150.577 75.826C150.935 75.7058 151.305 75.5812 151.616 75.402C154.707 73.6172 159.72 73.6172 162.811 75.402L198.982 96.2839C199.353 96.4979 199.731 96.6242 200.075 96.7394C200.607 96.9175 201.061 97.0692 201.288 97.4785C201.411 96.0804 200.643 94.6472 198.982 93.6887L162.811 72.8068C159.72 71.022 154.707 71.5592 151.616 73.344Z" fill="url(#paint18_radial_1370_11398)" fill-opacity="0.8"/>
<path fill-rule="evenodd" clip-rule="evenodd" d="M151.616 73.344C150.099 74.2197 149.326 75.3626 149.298 76.5103L149.298 76.5171C149.297 76.5544 149.297 76.5917 149.297 76.629C149.298 76.5913 149.298 76.554 149.298 76.5171L149.298 76.5103C149.53 76.1781 150.039 76.0068 150.577 75.826C150.935 75.7058 151.305 75.5812 151.616 75.402C154.707 73.6172 159.72 73.6172 162.811 75.402L198.982 96.2839C199.353 96.4979 199.731 96.6242 200.075 96.7394C200.607 96.9175 201.061 97.0692 201.288 97.4785C201.411 96.0804 200.643 94.6472 198.982 93.6887L162.811 72.8068C159.72 71.022 154.707 71.5592 151.616 73.344Z" fill="url(#paint19_radial_1370_11398)"/>
<path d="M151.616 81.8653L187.787 102.747C190.878 104.532 195.891 104.532 198.982 102.747C200.509 101.866 201.282 100.714 201.301 99.5594C201.306 99.2377 201.304 98.6141 201.302 98.0919L201.302 98.088C201.301 97.8627 201.301 97.6564 201.301 97.5015C201.299 97.4976 201.297 97.4938 201.295 97.4899C201.293 97.4861 201.29 97.4823 201.288 97.4785C201.182 98.6838 200.414 99.8629 198.982 100.689C195.891 102.474 190.878 102.474 187.787 100.689L151.616 79.8073C150.093 78.9285 149.321 77.7808 149.297 76.629C149.297 76.8283 149.296 77.0379 149.295 77.2489C149.292 77.7633 149.289 78.2859 149.298 78.6877C149.321 79.8393 150.094 80.9867 151.616 81.8653Z" fill="url(#paint20_linear_1370_11398)"/>
<path d="M151.616 81.8653L187.787 102.747C190.878 104.532 195.891 104.532 198.982 102.747C200.509 101.866 201.282 100.714 201.301 99.5594C201.306 99.2377 201.304 98.6141 201.302 98.0919L201.302 98.088C201.301 97.8627 201.301 97.6564 201.301 97.5015C201.299 97.4976 201.297 97.4938 201.295 97.4899C201.293 97.4861 201.29 97.4823 201.288 97.4785C201.182 98.6838 200.414 99.8629 198.982 100.689C195.891 102.474 190.878 102.474 187.787 100.689L151.616 79.8073C150.093 78.9285 149.321 77.7808 149.297 76.629C149.297 76.8283 149.296 77.0379 149.295 77.2489C149.292 77.7633 149.289 78.2859 149.298 78.6877C149.321 79.8393 150.094 80.9867 151.616 81.8653Z" fill="url(#paint21_radial_1370_11398)" fill-opacity="0.8"/>
<path d="M151.616 81.8653L187.787 102.747C190.878 104.532 195.891 104.532 198.982 102.747C200.509 101.866 201.282 100.714 201.301 99.5594C201.306 99.2377 201.304 98.6141 201.302 98.0919L201.302 98.088C201.301 97.8627 201.301 97.6564 201.301 97.5015C201.299 97.4976 201.297 97.4938 201.295 97.4899C201.293 97.4861 201.29 97.4823 201.288 97.4785C201.182 98.6838 200.414 99.8629 198.982 100.689C195.891 102.474 190.878 102.474 187.787 100.689L151.616 79.8073C150.093 78.9285 149.321 77.7808 149.297 76.629C149.297 76.8283 149.296 77.0379 149.295 77.2489C149.292 77.7633 149.289 78.2859 149.298 78.6877C149.321 79.8393 150.094 80.9867 151.616 81.8653Z" fill="url(#paint22_radial_1370_11398)"/>
<path d="M111.492 56.0684C111.492 56.7317 110.237 57.2693 108.69 57.2693C107.142 57.2693 105.888 56.7317 105.888 56.0684C105.888 55.4052 106.288 53.2664 108.69 53.2664C111.092 53.2664 111.492 55.4052 111.492 56.0684Z" fill="#5C28AC"/>
<path d="M111.491 55.2677C111.491 55.9309 110.236 56.4685 108.689 56.4685C107.141 56.4685 105.886 55.9309 105.886 55.2677C105.886 54.3436 105.862 53.5945 106.687 53.2372C107.11 52.7959 107.745 52.4656 108.689 52.4656C111.09 52.4656 111.491 54.6044 111.491 55.2677Z" fill="url(#paint23_linear_1370_11398)"/>
<path d="M111.491 55.2677C111.491 55.9309 110.236 56.4685 108.689 56.4685C107.141 56.4685 105.886 55.9309 105.886 55.2677C105.886 54.3436 105.862 53.5945 106.687 53.2372C107.11 52.7959 107.745 52.4656 108.689 52.4656C111.09 52.4656 111.491 54.6044 111.491 55.2677Z" fill="url(#paint24_radial_1370_11398)" fill-opacity="0.2"/>
<path d="M111.491 55.2677C111.491 55.9309 110.236 56.4685 108.689 56.4685C107.141 56.4685 105.886 55.9309 105.886 55.2677C105.886 54.3436 105.862 53.5945 106.687 53.2372C107.11 52.7959 107.745 52.4656 108.689 52.4656C111.09 52.4656 111.491 54.6044 111.491 55.2677Z" fill="url(#paint25_radial_1370_11398)"/>
<path d="M119.497 58.4699C119.497 58.9121 118.78 59.2705 117.896 59.2705C117.012 59.2705 116.295 58.9121 116.295 58.4699C116.295 58.0278 117.012 57.269 117.896 57.269C118.78 57.269 119.497 58.0278 119.497 58.4699Z" fill="#5C28AC"/>
<path d="M105.087 50.6643C105.087 50.8854 104.728 51.0646 104.286 51.0646C103.844 51.0646 103.485 50.8854 103.485 50.6643C103.485 50.4432 103.844 50.0638 104.286 50.0638C104.728 50.0638 105.087 50.4432 105.087 50.6643Z" fill="#5C28AC"/>
<path d="M119.497 58.0697C119.497 58.5118 118.78 58.8703 117.896 58.8703C117.012 58.8703 116.295 58.5118 116.295 58.0697C116.295 57.6275 117.012 56.8688 117.896 56.8688C118.78 56.8688 119.497 57.6275 119.497 58.0697Z" fill="url(#paint26_linear_1370_11398)"/>
<path d="M119.497 58.0697C119.497 58.5118 118.78 58.8703 117.896 58.8703C117.012 58.8703 116.295 58.5118 116.295 58.0697C116.295 57.6275 117.012 56.8688 117.896 56.8688C118.78 56.8688 119.497 57.6275 119.497 58.0697Z" fill="url(#paint27_radial_1370_11398)" fill-opacity="0.2"/>
<path d="M119.497 58.0697C119.497 58.5118 118.78 58.8703 117.896 58.8703C117.012 58.8703 116.295 58.5118 116.295 58.0697C116.295 57.6275 117.012 56.8688 117.896 56.8688C118.78 56.8688 119.497 57.6275 119.497 58.0697Z" fill="url(#paint28_radial_1370_11398)"/>
<path d="M105.087 50.4642C105.087 50.6853 104.728 50.8645 104.286 50.8645C103.844 50.8645 103.485 50.6853 103.485 50.4642C103.485 50.2431 103.844 49.8638 104.286 49.8638C104.728 49.8638 105.087 50.2431 105.087 50.4642Z" fill="url(#paint29_linear_1370_11398)"/>
<path d="M105.087 50.4642C105.087 50.6853 104.728 50.8645 104.286 50.8645C103.844 50.8645 103.485 50.6853 103.485 50.4642C103.485 50.2431 103.844 49.8638 104.286 49.8638C104.728 49.8638 105.087 50.2431 105.087 50.4642Z" fill="url(#paint30_radial_1370_11398)" fill-opacity="0.2"/>
<path d="M105.087 50.4642C105.087 50.6853 104.728 50.8645 104.286 50.8645C103.844 50.8645 103.485 50.6853 103.485 50.4642C103.485 50.2431 103.844 49.8638 104.286 49.8638C104.728 49.8638 105.087 50.2431 105.087 50.4642Z" fill="url(#paint31_radial_1370_11398)"/>
<defs>
<filter id="filter0_f_1370_11398" x="73.9695" y="57.2428" width="161.3" height="109.123" filterUnits="userSpaceOnUse" color-interpolation-filters="sRGB">
<feFlood flood-opacity="0" result="BackgroundImageFix"/>
<feBlend mode="normal" in="SourceGraphic" in2="BackgroundImageFix" result="shape"/>
<feGaussianBlur stdDeviation="3.94371" result="effect1_foregroundBlur_1370_11398"/>
</filter>
<radialGradient id="paint0_radial_1370_11398" cx="0" cy="0" r="1" gradientUnits="userSpaceOnUse" gradientTransform="translate(143.908 117.283) rotate(90.5912) scale(139.677 575.059)">
<stop stop-opacity="0"/>
<stop offset="0.221563"/>
<stop offset="1" stop-opacity="0"/>
</radialGradient>
<linearGradient id="paint1_linear_1370_11398" x1="138.143" y1="157.806" x2="22.844" y2="157.806" gradientUnits="userSpaceOnUse">
<stop stop-color="white" stop-opacity="0"/>
<stop offset="1" stop-color="white"/>
</linearGradient>
<linearGradient id="paint2_linear_1370_11398" x1="118.877" y1="35.7817" x2="-7.49717e-06" y2="35.7817" gradientUnits="userSpaceOnUse">
<stop stop-color="white" stop-opacity="0"/>
<stop offset="1" stop-color="white"/>
</linearGradient>
<linearGradient id="paint3_linear_1370_11398" x1="23.5579" y1="111.478" x2="262.804" y2="111.478" gradientUnits="userSpaceOnUse">
<stop stop-color="#E3E3E3"/>
<stop offset="0.21988" stop-color="#99C2FF"/>
<stop offset="0.512048" stop-color="#F48DA5"/>
<stop offset="0.75" stop-color="#A699DC"/>
<stop offset="1" stop-color="#E3E3E3"/>
</linearGradient>
<linearGradient id="paint4_linear_1370_11398" x1="23.5579" y1="111.478" x2="262.804" y2="111.478" gradientUnits="userSpaceOnUse">
<stop stop-color="#E3E3E3"/>
<stop offset="0.21988" stop-color="#99C2FF"/>
<stop offset="0.512048" stop-color="#F48DA5"/>
<stop offset="0.75" stop-color="#A699DC"/>
<stop offset="1" stop-color="#E3E3E3"/>
</linearGradient>
<radialGradient id="paint5_radial_1370_11398" cx="0" cy="0" r="1" gradientUnits="userSpaceOnUse" gradientTransform="translate(138.107 109.924) rotate(106.546) scale(35.3124 21.9359)">
<stop stop-color="#845CC0"/>
<stop offset="1" stop-color="#9F79DA"/>
</radialGradient>
<radialGradient id="paint6_radial_1370_11398" cx="0" cy="0" r="1" gradientUnits="userSpaceOnUse" gradientTransform="translate(124.215 71.4731) rotate(40.7239) scale(86.642 59.9325)">
<stop stop-color="#644CC1"/>
<stop offset="1" stop-color="#644CC1" stop-opacity="0"/>
</radialGradient>
<linearGradient id="paint7_linear_1370_11398" x1="147.926" y1="60.2668" x2="97.9681" y2="100.366" gradientUnits="userSpaceOnUse">
<stop stop-color="#472976"/>
<stop offset="1" stop-color="#8151CB"/>
</linearGradient>
<radialGradient id="paint8_radial_1370_11398" cx="0" cy="0" r="1" gradientUnits="userSpaceOnUse" gradientTransform="translate(73.6134 89.1172) rotate(26.8405) scale(37.2362 22.1307)">
<stop stop-color="white"/>
<stop offset="1" stop-color="white" stop-opacity="0"/>
</radialGradient>
<radialGradient id="paint9_radial_1370_11398" cx="0" cy="0" r="1" gradientUnits="userSpaceOnUse" gradientTransform="translate(234.132 153.565) rotate(-173.845) scale(82.134 19.5623)">
<stop stop-color="#B78AFF"/>
<stop offset="1" stop-color="#8233FF" stop-opacity="0"/>
</radialGradient>
<linearGradient id="paint10_linear_1370_11398" x1="239.673" y1="132.717" x2="168.771" y2="3.77457" gradientUnits="userSpaceOnUse">
<stop stop-color="#9D6EE7"/>
<stop offset="0.354167" stop-color="#B98BFF"/>
<stop offset="0.510417" stop-color="#E5D3FF"/>
<stop offset="0.635417" stop-color="#B98BFF"/>
<stop offset="1" stop-color="#C097FF"/>
</linearGradient>
<linearGradient id="paint11_linear_1370_11398" x1="147.926" y1="38.5118" x2="97.9683" y2="78.6114" gradientUnits="userSpaceOnUse">
<stop stop-color="#845CC0"/>
<stop offset="1" stop-color="#9F79DA"/>
</linearGradient>
<radialGradient id="paint12_radial_1370_11398" cx="0" cy="0" r="1" gradientUnits="userSpaceOnUse" gradientTransform="translate(121.503 33.4356) rotate(40.7239) scale(95.5912 66.1229)">
<stop stop-color="#644CC1"/>
<stop offset="1" stop-color="#644CC1" stop-opacity="0"/>
</radialGradient>
<linearGradient id="paint13_linear_1370_11398" x1="142.464" y1="73.1055" x2="194.825" y2="86.6296" gradientUnits="userSpaceOnUse">
<stop stop-color="#679AFF" stop-opacity="0"/>
<stop offset="1" stop-color="#7548C9"/>
</linearGradient>
<linearGradient id="paint14_linear_1370_11398" x1="180.623" y1="84.1479" x2="172.637" y2="100.119" gradientUnits="userSpaceOnUse">
<stop stop-color="#FFAD07"/>
<stop offset="1" stop-color="#FFD889"/>
</linearGradient>
<radialGradient id="paint15_radial_1370_11398" cx="0" cy="0" r="1" gradientUnits="userSpaceOnUse" gradientTransform="translate(175.831 84.1479) rotate(28.4429) scale(29.0626 4.06188)">
<stop stop-color="white"/>
<stop offset="1" stop-color="white" stop-opacity="0"/>
</radialGradient>
<radialGradient id="paint16_radial_1370_11398" cx="0" cy="0" r="1" gradientUnits="userSpaceOnUse" gradientTransform="translate(194.789 96.9871) rotate(23.1986) scale(3.91811 2.76335)">
<stop stop-color="#DCFFFD"/>
<stop offset="1" stop-color="white" stop-opacity="0"/>
</radialGradient>
<linearGradient id="paint17_linear_1370_11398" x1="180.623" y1="84.1479" x2="172.637" y2="100.119" gradientUnits="userSpaceOnUse">
<stop stop-color="#FFAD07"/>
<stop offset="1" stop-color="#FFD889"/>
</linearGradient>
<radialGradient id="paint18_radial_1370_11398" cx="0" cy="0" r="1" gradientUnits="userSpaceOnUse" gradientTransform="translate(175.831 84.1479) rotate(28.4429) scale(29.0626 4.06188)">
<stop stop-color="white"/>
<stop offset="1" stop-color="white" stop-opacity="0"/>
</radialGradient>
<radialGradient id="paint19_radial_1370_11398" cx="0" cy="0" r="1" gradientUnits="userSpaceOnUse" gradientTransform="translate(194.789 96.9871) rotate(23.1986) scale(3.91811 2.76335)">
<stop stop-color="#DCFFFD"/>
<stop offset="1" stop-color="white" stop-opacity="0"/>
</radialGradient>
<linearGradient id="paint20_linear_1370_11398" x1="180.623" y1="84.1479" x2="172.637" y2="100.119" gradientUnits="userSpaceOnUse">
<stop stop-color="#FFAD07"/>
<stop offset="1" stop-color="#FFD889"/>
</linearGradient>
<radialGradient id="paint21_radial_1370_11398" cx="0" cy="0" r="1" gradientUnits="userSpaceOnUse" gradientTransform="translate(175.831 84.1479) rotate(28.4429) scale(29.0626 4.06188)">
<stop stop-color="white"/>
<stop offset="1" stop-color="white" stop-opacity="0"/>
</radialGradient>
<radialGradient id="paint22_radial_1370_11398" cx="0" cy="0" r="1" gradientUnits="userSpaceOnUse" gradientTransform="translate(194.789 96.9871) rotate(23.1986) scale(3.91811 2.76335)">
<stop stop-color="#DCFFFD"/>
<stop offset="1" stop-color="white" stop-opacity="0"/>
</radialGradient>
<linearGradient id="paint23_linear_1370_11398" x1="109.262" y1="54.4966" x2="108.514" y2="56.1276" gradientUnits="userSpaceOnUse">
<stop stop-color="#FFBC32"/>
<stop offset="1" stop-color="#FFC040"/>
</linearGradient>
<radialGradient id="paint24_radial_1370_11398" cx="0" cy="0" r="1" gradientUnits="userSpaceOnUse" gradientTransform="translate(108.746 54.4966) rotate(26.4368) scale(3.07499 0.409103)">
<stop stop-color="white"/>
<stop offset="1" stop-color="white" stop-opacity="0"/>
</radialGradient>
<radialGradient id="paint25_radial_1370_11398" cx="0" cy="0" r="1" gradientUnits="userSpaceOnUse" gradientTransform="translate(108.688 54.4671) scale(1.20089 0.796905)">
<stop stop-color="#DCFFFD"/>
<stop offset="1" stop-color="white" stop-opacity="0"/>
</radialGradient>
<linearGradient id="paint26_linear_1370_11398" x1="118.224" y1="57.8843" x2="117.882" y2="58.7345" gradientUnits="userSpaceOnUse">
<stop stop-color="#FFBC32"/>
<stop offset="1" stop-color="#FFC040"/>
</linearGradient>
<radialGradient id="paint27_radial_1370_11398" cx="0" cy="0" r="1" gradientUnits="userSpaceOnUse" gradientTransform="translate(117.929 57.8843) rotate(23.5117) scale(1.71584 0.209475)">
<stop stop-color="white"/>
<stop offset="1" stop-color="white" stop-opacity="0"/>
</radialGradient>
<radialGradient id="paint28_radial_1370_11398" cx="0" cy="0" r="1" gradientUnits="userSpaceOnUse" gradientTransform="translate(117.896 57.8695) scale(0.686222 0.398453)">
<stop stop-color="#DCFFFD"/>
<stop offset="1" stop-color="white" stop-opacity="0"/>
</radialGradient>
<linearGradient id="paint29_linear_1370_11398" x1="104.45" y1="50.3715" x2="104.279" y2="50.7966" gradientUnits="userSpaceOnUse">
<stop stop-color="#FFBC32"/>
<stop offset="1" stop-color="#FFC040"/>
</linearGradient>
<radialGradient id="paint30_radial_1370_11398" cx="0" cy="0" r="1" gradientUnits="userSpaceOnUse" gradientTransform="translate(104.302 50.3715) rotate(23.5117) scale(0.857918 0.104738)">
<stop stop-color="white"/>
<stop offset="1" stop-color="white" stop-opacity="0"/>
</radialGradient>
<radialGradient id="paint31_radial_1370_11398" cx="0" cy="0" r="1" gradientUnits="userSpaceOnUse" gradientTransform="translate(104.286 50.3641) scale(0.343111 0.199226)">
<stop stop-color="#DCFFFD"/>
<stop offset="1" stop-color="white" stop-opacity="0"/>
</radialGradient>
</defs>
</svg>
