<svg width="1440" height="425" viewBox="0 0 1440 425" fill="none" xmlns="http://www.w3.org/2000/svg">
<g opacity="0.4">
<mask id="mask0_1380_12638" style="mask-type:alpha" maskUnits="userSpaceOnUse" x="1040" y="298" width="110" height="282">
<rect width="109.273" height="281.197" transform="matrix(-1 0 0 1 1149.8 298.55)" fill="url(#paint0_radial_1380_12638)"/>
</mask>
<g mask="url(#mask0_1380_12638)">
<rect opacity="0.5" width="52.6617" height="277.529" transform="matrix(-1 0 0 1 1149.8 302.218)" fill="url(#paint1_linear_1380_12638)"/>
<rect opacity="0.5" x="1040.53" y="302.218" width="52.6617" height="277.529" fill="url(#paint2_linear_1380_12638)"/>
</g>
</g>
<path d="M1127.78 332.356C1141.39 324.104 1148.2 319.978 1149.49 315.023C1149.91 313.422 1149.91 311.792 1149.49 310.192C1148.2 305.236 1141.39 301.11 1127.78 292.858C1114.16 284.606 1107.35 280.48 1099.18 279.695C1096.54 279.442 1093.85 279.442 1091.21 279.695C1083.03 280.48 1076.22 284.606 1062.61 292.858C1048.99 301.11 1042.19 305.236 1040.89 310.192C1040.47 311.792 1040.47 313.422 1040.89 315.023C1042.19 319.978 1048.99 324.104 1062.61 332.356C1076.22 340.608 1083.03 344.734 1091.21 345.519C1093.85 345.772 1096.54 345.772 1099.18 345.519C1107.35 344.734 1114.16 340.608 1127.78 332.356Z" fill="url(#paint3_linear_1380_12638)"/>
<path d="M1127.78 332.356C1141.39 324.104 1148.2 319.978 1149.49 315.023C1149.91 313.422 1149.91 311.792 1149.49 310.192C1148.2 305.236 1141.39 301.11 1127.78 292.858C1114.16 284.606 1107.35 280.48 1099.18 279.695C1096.54 279.442 1093.85 279.442 1091.21 279.695C1083.03 280.48 1076.22 284.606 1062.61 292.858C1048.99 301.11 1042.19 305.236 1040.89 310.192C1040.47 311.792 1040.47 313.422 1040.89 315.023C1042.19 319.978 1048.99 324.104 1062.61 332.356C1076.22 340.608 1083.03 344.734 1091.21 345.519C1093.85 345.772 1096.54 345.772 1099.18 345.519C1107.35 344.734 1114.16 340.608 1127.78 332.356Z" fill="white" fill-opacity="0.6"/>
<path d="M1149.81 307.153H1040.54V312.419H1149.81V307.153Z" fill="url(#paint4_linear_1380_12638)"/>
<path d="M1149.81 307.153H1040.54V312.419H1149.81V307.153Z" fill="white" fill-opacity="0.6"/>
<rect width="76.2033" height="76.2033" rx="21.0647" transform="matrix(-0.855186 -0.518321 -0.855186 0.518321 1160.34 306.5)" fill="white"/>
<ellipse opacity="0.34" rx="15.9915" ry="15.9915" transform="matrix(1 8.74228e-08 8.74228e-08 -1 369.055 237.655)" fill="white"/>
<ellipse opacity="0.7" rx="8.40791" ry="8.40791" transform="matrix(1 8.74228e-08 8.74228e-08 -1 20.4592 26.9946)" fill="white"/>
<ellipse opacity="0.7" rx="8.40791" ry="8.40791" transform="matrix(1 8.74228e-08 8.74228e-08 -1 562.457 405.896)" fill="white"/>
<ellipse opacity="0.7" rx="12.4378" ry="12.4378" transform="matrix(1 8.74228e-08 8.74228e-08 -1 237.569 96.8435)" fill="white"/>
<circle opacity="0.1" r="161.691" transform="matrix(-1 0 0 1 51.0021 370.476)" fill="white"/>
<ellipse opacity="0.1" rx="52.4165" ry="53.3049" transform="matrix(-1 0 0 1 279.324 134.157)" fill="white"/>
<ellipse opacity="0.1" rx="52.4165" ry="53.3049" transform="matrix(-1 0 0 1 541.034 258.125)" fill="white"/>
<ellipse opacity="0.9" rx="6.2189" ry="6.2189" transform="matrix(1 8.74228e-08 8.74228e-08 -1 298.87 149.261)" fill="white"/>
<ellipse opacity="0.9" rx="2.66524" ry="2.66525" transform="matrix(1 8.74228e-08 8.74228e-08 -1 69.6576 145.707)" fill="white"/>
<ellipse opacity="0.9" rx="2.66524" ry="2.66525" transform="matrix(1 8.74228e-08 8.74228e-08 -1 503.759 68.1477)" fill="white"/>
<ellipse opacity="0.9" rx="2.66524" ry="2.66525" transform="matrix(1 8.74228e-08 8.74228e-08 -1 485.5 409.115)" fill="white"/>
<ellipse opacity="0.9" rx="2.66524" ry="2.66525" transform="matrix(1 8.74228e-08 8.74228e-08 -1 609.468 367.792)" fill="white"/>
<ellipse opacity="0.9" rx="2.66524" ry="2.66525" transform="matrix(1 8.74228e-08 8.74228e-08 -1 595.693 152.309)" fill="white"/>
<ellipse opacity="0.9" rx="2.66524" ry="2.66525" transform="matrix(1 8.74228e-08 8.74228e-08 -1 445.496 229.643)" fill="white"/>
<ellipse opacity="0.9" rx="2.66524" ry="2.66525" transform="matrix(1 8.74228e-08 8.74228e-08 -1 345.85 50.8253)" fill="white"/>
<ellipse opacity="0.9" rx="2.66524" ry="2.66525" transform="matrix(1 8.74228e-08 8.74228e-08 -1 476.265 170.757)" fill="white"/>
<ellipse opacity="0.34" cx="1130.78" cy="183.832" rx="11.6957" ry="11.6957" transform="rotate(180 1130.78 183.832)" fill="white"/>
<ellipse opacity="0.7" cx="1385.73" cy="29.7612" rx="6.14929" ry="6.14929" transform="rotate(180 1385.73 29.7612)" fill="white"/>
<ellipse opacity="0.7" cx="989.334" cy="306.878" rx="6.14929" ry="6.14929" transform="rotate(180 989.334 306.878)" fill="white"/>
<ellipse opacity="0.7" cx="1226.95" cy="80.8466" rx="9.09663" ry="9.09663" transform="rotate(180 1226.95 80.8466)" fill="white"/>
<circle opacity="0.1" cx="1363.4" cy="280.973" r="118.256" fill="white"/>
<g filter="url(#filter0_f_1380_12638)">
<circle cx="1446.8" cy="402.062" r="6.43498" fill="white"/>
</g>
<ellipse opacity="0.1" cx="1196.41" cy="108.137" rx="38.3358" ry="38.9856" fill="white"/>
<ellipse opacity="0.1" cx="1005" cy="198.803" rx="38.3358" ry="38.9856" fill="white"/>
<ellipse opacity="0.9" cx="1182.11" cy="119.183" rx="4.54831" ry="4.54832" transform="rotate(180 1182.11 119.183)" fill="white"/>
<ellipse opacity="0.9" cx="1349.75" cy="116.584" rx="1.94928" ry="1.94928" transform="rotate(180 1349.75 116.584)" fill="white"/>
<ellipse opacity="0.9" cx="1032.26" cy="59.8595" rx="1.94928" ry="1.94928" transform="rotate(180 1032.26 59.8595)" fill="white"/>
<ellipse opacity="0.9" cx="1045.62" cy="309.232" rx="1.94928" ry="1.94928" transform="rotate(180 1045.62 309.232)" fill="white"/>
<ellipse opacity="0.9" cx="954.951" cy="279.01" rx="1.94928" ry="1.94928" transform="rotate(180 954.951 279.01)" fill="white"/>
<ellipse opacity="0.9" cx="965.025" cy="77.5303" rx="1.94928" ry="1.94928" transform="rotate(180 965.025 77.5303)" fill="white"/>
<ellipse opacity="0.9" cx="1427.72" cy="241.337" rx="1.94928" ry="1.94928" transform="rotate(180 1427.72 241.337)" fill="white"/>
<ellipse opacity="0.9" cx="1074.87" cy="177.972" rx="1.94928" ry="1.94928" transform="rotate(180 1074.87 177.972)" fill="white"/>
<ellipse opacity="0.9" cx="1147.75" cy="47.1903" rx="1.94928" ry="1.94928" transform="rotate(180 1147.75 47.1903)" fill="white"/>
<ellipse opacity="0.9" cx="1052.37" cy="134.905" rx="1.94928" ry="1.94928" transform="rotate(180 1052.37 134.905)" fill="white"/>
<defs>
<filter id="filter0_f_1380_12638" x="1431.17" y="386.434" width="31.2555" height="31.2556" filterUnits="userSpaceOnUse" color-interpolation-filters="sRGB">
<feFlood flood-opacity="0" result="BackgroundImageFix"/>
<feBlend mode="normal" in="SourceGraphic" in2="BackgroundImageFix" result="shape"/>
<feGaussianBlur stdDeviation="4.59642" result="effect1_foregroundBlur_1380_12638"/>
</filter>
<radialGradient id="paint0_radial_1380_12638" cx="0" cy="0" r="1" gradientUnits="userSpaceOnUse" gradientTransform="translate(55.2948 1.85989e-06) rotate(90.1341) scale(281.197 262.665)">
<stop stop-opacity="0"/>
<stop offset="0.221563"/>
<stop offset="1" stop-opacity="0"/>
</radialGradient>
<linearGradient id="paint1_linear_1380_12638" x1="52.6617" y1="77.6347" x2="-3.3212e-06" y2="77.6347" gradientUnits="userSpaceOnUse">
<stop stop-color="white" stop-opacity="0"/>
<stop offset="1" stop-color="white"/>
</linearGradient>
<linearGradient id="paint2_linear_1380_12638" x1="1093.19" y1="379.852" x2="1040.53" y2="379.852" gradientUnits="userSpaceOnUse">
<stop stop-color="white" stop-opacity="0"/>
<stop offset="1" stop-color="white"/>
</linearGradient>
<linearGradient id="paint3_linear_1380_12638" x1="1149.81" y1="312.419" x2="1040.54" y2="312.419" gradientUnits="userSpaceOnUse">
<stop stop-color="#E3E3E3"/>
<stop offset="0.21988" stop-color="#99C2FF"/>
<stop offset="0.512048" stop-color="#F48DA5"/>
<stop offset="0.75" stop-color="#A699DC"/>
<stop offset="1" stop-color="#E3E3E3"/>
</linearGradient>
<linearGradient id="paint4_linear_1380_12638" x1="1149.81" y1="312.419" x2="1040.54" y2="312.419" gradientUnits="userSpaceOnUse">
<stop stop-color="#E3E3E3"/>
<stop offset="0.21988" stop-color="#99C2FF"/>
<stop offset="0.512048" stop-color="#F48DA5"/>
<stop offset="0.75" stop-color="#A699DC"/>
<stop offset="1" stop-color="#E3E3E3"/>
</linearGradient>
</defs>
</svg>
