<svg width="70" height="70" viewBox="0 0 70 70" fill="none" xmlns="http://www.w3.org/2000/svg">
<path d="M24.4415 18.4627C27.1234 8.71334 37.0082 1.28693 45.9152 0.546094C48.086 1.11266 48.5504 1.23388 50.7392 1.80515C61.929 4.72563 68.2974 16.9185 64.9633 29.0387C61.6293 41.1589 49.8554 48.6167 38.6656 45.6962C36.742 45.1942 36.0124 45.0038 33.8416 44.4372C26.0676 39.6075 21.6806 28.4994 24.4415 18.4627Z" fill="url(#paint0_linear_1380_12721)"/>
<ellipse rx="20.4393" ry="22.759" transform="matrix(-0.967605 -0.252542 0.265233 -0.964205 40.8296 22.7311)" fill="white"/>
<path d="M47.1084 0.849833C36.0532 -2.03552 24.3864 5.45117 21.0527 17.5699C17.7191 29.6885 23.98 41.8543 35.0352 44.7397C46.0903 47.625 57.7572 40.1383 61.0908 28.0196C64.4245 15.901 58.1636 3.73519 47.1084 0.849833ZM52.1788 19.9028C52.1289 20.1365 52.0629 20.3765 51.9982 20.6116C50.0201 27.8025 42.7457 34.7819 33.6165 32.3992C30.8013 31.6644 28.4383 30.0869 26.6642 27.9701C27.0529 28.124 27.4318 28.2439 27.8429 28.3512C30.1666 28.9577 32.5397 28.6531 34.6437 27.6377C32.4766 27.0196 31.0756 24.9739 31.0429 22.6553C31.7734 22.9772 32.4615 23.1568 33.3086 23.1416C32.2546 22.5985 31.4292 21.6666 30.9728 20.5043C30.5164 19.342 30.457 18.0209 30.8048 16.7655L30.8237 16.697C31.3687 17.275 32.073 17.7266 32.8724 17.9719C32.3291 17.2978 31.9567 16.4793 31.788 15.589C31.6193 14.6988 31.6597 13.7643 31.9055 12.8685C32.1845 11.8545 32.6804 10.9917 33.3349 10.3015C34.1185 12.3086 35.2953 14.09 36.7888 15.5299C38.2823 16.9698 40.059 18.0361 42.0034 18.6593C42.3192 14.7779 45.6628 12.4428 48.6924 13.2335C50.1224 13.6067 51.2287 14.599 51.8448 15.8938C53.0297 15.9563 54.2288 15.7757 55.3549 15.4081C54.6377 16.5702 53.5678 17.4302 52.3509 17.8319C53.3842 17.9756 54.433 17.9238 55.4439 17.7309C54.47 18.6422 53.36 19.3868 52.1788 19.9028Z" fill="url(#paint1_linear_1380_12721)"/>
<path d="M46.6849 41.0666C49.4316 51.0518 44.5683 62.5695 37.0574 67.6694C34.8341 68.2497 34.3585 68.3738 32.1167 68.9589C20.6562 71.9501 8.59753 64.3118 5.18284 51.8984C1.76815 39.485 8.29055 26.9972 19.751 24.0061C21.7211 23.4919 22.4684 23.2968 24.6917 22.7166C34.1262 23.1227 43.8572 30.7871 46.6849 41.0666Z" fill="url(#paint2_linear_1380_12721)"/>
<ellipse rx="20.9338" ry="23.3095" transform="matrix(0.967605 -0.252542 0.265233 0.964205 29.9001 45.4382)" fill="white"/>
<path d="M50.6669 40.0785C47.2454 27.6404 35.1721 19.9721 23.7176 22.9616C12.263 25.9512 5.74341 38.4722 9.16489 50.9103C12.1649 61.8162 21.8012 69.0338 31.8401 68.6597L27.6252 53.3374L23.475 54.4206L21.6155 47.6608L25.7657 46.5776L24.2161 40.9444C23.0198 36.5956 25.3046 32.2076 29.3096 31.1624L34.4973 29.8084L36.3568 36.5682L32.2066 37.6514C31.0653 37.9493 30.4104 39.207 30.7513 40.4463L31.991 44.9528L38.2163 43.328L40.0758 50.0879L33.8505 51.7126L38.1584 67.3729C48.3277 63.5112 53.8839 51.773 50.6669 40.0785Z" fill="url(#paint3_linear_1380_12721)"/>
<defs>
<linearGradient id="paint0_linear_1380_12721" x1="38.6656" y1="45.6963" x2="50.1604" y2="1.65407" gradientUnits="userSpaceOnUse">
<stop stop-color="#0081B3"/>
<stop offset="0.405845" stop-color="#00518B"/>
<stop offset="0.635025" stop-color="#138BB9"/>
<stop offset="1" stop-color="#55D0FF"/>
</linearGradient>
<linearGradient id="paint1_linear_1380_12721" x1="47.1084" y1="0.849833" x2="35.6139" y2="44.8907" gradientUnits="userSpaceOnUse">
<stop stop-color="#76D9FF"/>
<stop offset="1" stop-color="#00ACEE"/>
</linearGradient>
<linearGradient id="paint2_linear_1380_12721" x1="19.751" y1="24.0061" x2="31.5239" y2="69.1137" gradientUnits="userSpaceOnUse">
<stop stop-color="#437AEE"/>
<stop offset="0.405845" stop-color="#2F56A9"/>
<stop offset="0.635025" stop-color="#3F6BC9"/>
<stop offset="1" stop-color="#0C2F79"/>
</linearGradient>
<linearGradient id="paint3_linear_1380_12721" x1="23.7176" y1="22.9616" x2="35.4904" y2="68.0692" gradientUnits="userSpaceOnUse">
<stop stop-color="#93B6FF"/>
<stop offset="1" stop-color="#3B5998"/>
</linearGradient>
</defs>
</svg>
