<svg width="70" height="70" viewBox="0 0 70 70" fill="none" xmlns="http://www.w3.org/2000/svg">
<path d="M70 35C70 46.6393 64.3185 56.9517 55.5775 63.315C49.8019 67.5195 42.6906 70 35 70C27.3083 70 20.196 67.5188 14.42 63.3132C5.68043 56.9497 0 46.6382 0 35C0 31.2257 0.597434 27.5909 1.70289 24.185C6.25895 10.1481 19.4444 0 35 0C50.5556 0 63.741 10.1481 68.2971 24.185C69.4026 27.5909 70 31.2257 70 35Z" fill="url(#paint0_linear_1380_12722)"/>
<path fill-rule="evenodd" clip-rule="evenodd" d="M35.0003 1.34619V35L2.98383 24.601C7.36466 11.1039 20.043 1.34619 35.0003 1.34619Z" fill="url(#paint1_radial_1380_12722)"/>
<path d="M2.98383 24.601C1.92089 27.8759 1.34644 31.3709 1.34644 35C1.34644 46.1906 6.80839 56.1055 15.2118 62.2243L35.0003 35L2.98383 24.601Z" fill="url(#paint2_radial_1380_12722)"/>
<path d="M15.2118 62.2243C20.7657 66.2681 27.6044 68.6539 35.0003 68.6539C42.3951 68.6539 49.2329 66.2688 54.7863 62.226L35.0003 35L15.2118 62.2243Z" fill="url(#paint3_radial_1380_12722)"/>
<path d="M68.6541 35C68.6541 31.3709 68.0797 27.8759 67.0167 24.601L35.0003 35L54.7863 62.226C63.1911 56.1074 68.6541 46.1917 68.6541 35Z" fill="url(#paint4_radial_1380_12722)"/>
<path d="M67.0167 24.601C62.6359 11.1039 49.9576 1.34619 35.0003 1.34619V35L67.0167 24.601Z" fill="url(#paint5_radial_1380_12722)"/>
<path d="M65.5244 35.0003C65.5244 45.1512 60.5695 54.1448 52.9462 59.6945C47.9092 63.3614 41.7073 65.5246 35.0001 65.5246C28.2919 65.5246 22.0892 63.3607 17.0518 59.6929C9.4297 54.1431 4.47572 45.1502 4.47572 35.0003C4.47572 31.7085 4.99676 28.5385 5.96085 25.5682C9.93431 13.3262 21.4337 4.4759 35.0001 4.4759C48.5665 4.4759 60.0658 13.3262 64.0393 25.5682C65.0034 28.5385 65.5244 31.7085 65.5244 35.0003Z" stroke="#FFBA07" stroke-width="0.0666706"/>
<path opacity="0.3" d="M68.2814 35.0003C68.2814 46.0677 62.8796 55.8734 54.5671 61.9247C49.0753 65.9227 42.3139 68.2812 35.0006 68.2812C27.6862 68.2812 20.9239 65.922 15.4317 61.923C7.12059 55.8715 1.71977 46.0667 1.71977 35.0003C1.71977 31.4108 2.28792 27.9546 3.33895 24.7165C7.67133 11.3687 20.2096 1.71952 35.0006 1.71952C49.7916 1.71952 62.3298 11.3687 66.6622 24.7165C67.7133 27.9546 68.2814 31.4108 68.2814 35.0003Z" stroke="#3E1F80" stroke-width="0.682455"/>
<path opacity="0.1" d="M58.1875 35.0002C58.1875 42.7113 54.4235 49.5433 48.6325 53.7592C44.8061 56.5447 40.0949 58.188 34.9997 58.188C29.9038 58.188 25.192 56.5442 21.3653 53.758C15.5752 49.542 11.8119 42.7106 11.8119 35.0002C11.8119 32.4996 12.2077 30.0915 12.9401 27.8352C15.9585 18.5355 24.694 11.8124 34.9997 11.8124C45.3054 11.8124 54.0409 18.5355 57.0594 27.8352C57.7917 30.0915 58.1875 32.4996 58.1875 35.0002Z" stroke="white" stroke-width="0.0666706"/>
<path opacity="0.2" d="M49.1684 35.0003C49.1684 39.712 46.8685 43.8866 43.3299 46.4627C40.9918 48.1647 38.1131 49.1689 34.9998 49.1689C31.886 49.1689 29.0069 48.1644 26.6687 46.4619C23.1307 43.8858 20.8312 39.7116 20.8312 35.0003C20.8312 33.4723 21.073 32.0009 21.5205 30.6222C23.3649 24.9397 28.7026 20.8317 34.9998 20.8317C41.2969 20.8317 46.6346 24.9397 48.479 30.6222C48.9265 32.0009 49.1684 33.4723 49.1684 35.0003Z" stroke="white" stroke-width="0.0666706"/>
<g filter="url(#filter0_d_1380_12722)">
<path d="M61.3895 34.9995C61.3895 36.3975 41.3705 46.5338 35.0003 46.5338C32.4654 46.5338 30.1216 45.7161 28.2181 44.3301C25.3379 42.233 23.4659 38.8349 23.4659 34.9995C23.4659 28.6292 28.63 23.4651 35.0003 23.4651C41.3705 23.4651 61.3895 33.6014 61.3895 34.9995Z" fill="url(#paint6_radial_1380_12722)"/>
<path d="M60.7887 34.9995C60.6688 35.1209 60.4775 35.2811 60.2095 35.4778C59.6716 35.8727 58.8831 36.3726 57.9013 36.9423C55.9414 38.0797 53.2542 39.4708 50.364 40.8204C47.4738 42.1699 44.3908 43.4733 41.6392 44.4381C38.8671 45.41 36.4958 46.0145 35.0003 46.0145C32.5789 46.0145 30.3414 45.2338 28.5238 43.9103C25.7721 41.9067 23.9853 38.6618 23.9853 34.9995C23.9853 28.9161 28.9169 23.9845 35.0003 23.9845C36.4958 23.9845 38.8671 24.5889 41.6392 25.5609C44.3908 26.5256 47.4738 27.829 50.364 29.1786C53.2542 30.5282 55.9414 31.9192 57.9013 33.0566C58.8831 33.6263 59.6716 34.1262 60.2095 34.5211C60.4775 34.7178 60.6688 34.878 60.7887 34.9995ZM60.8944 35.1233C60.8965 35.1268 60.8973 35.1285 60.8972 35.1284C60.8971 35.1284 60.896 35.1266 60.8944 35.1233Z" stroke="white" stroke-width="1.03865"/>
</g>
<g filter="url(#filter1_d_1380_12722)">
<path d="M46.9506 34.9999C46.9506 38.9742 45.0106 42.4955 42.0259 44.6683C40.0538 46.104 37.6256 46.9509 34.9996 46.9509C32.3731 46.9509 29.9446 46.1037 27.9723 44.6677C24.9881 42.4948 23.0485 38.9738 23.0485 34.9999C23.0485 33.7111 23.2525 32.4699 23.6299 31.307C25.1856 26.5139 29.6879 23.0488 34.9996 23.0488C40.3112 23.0488 44.8135 26.5139 46.3692 31.307C46.7466 32.4699 46.9506 33.7111 46.9506 34.9999Z" fill="url(#paint7_linear_1380_12722)"/>
</g>
<g filter="url(#filter2_d_1380_12722)">
<path d="M45.245 35C45.245 38.4066 43.5822 41.4248 41.0239 43.2872C39.3335 44.5178 37.2521 45.2437 35.0012 45.2437C32.75 45.2437 30.6684 44.5176 28.9779 43.2866C26.42 41.4242 24.7574 38.4062 24.7574 35C24.7574 33.8953 24.9323 32.8314 25.2558 31.8346C26.5893 27.7263 30.4484 24.7562 35.0012 24.7562C39.5541 24.7562 43.4132 27.7263 44.7466 31.8346C45.0702 32.8314 45.245 33.8953 45.245 35Z" fill="url(#paint8_linear_1380_12722)"/>
<path d="M45.245 35C45.245 38.4066 43.5822 41.4248 41.0239 43.2872C39.3335 44.5178 37.2521 45.2437 35.0012 45.2437C32.75 45.2437 30.6684 44.5176 28.9779 43.2866C26.42 41.4242 24.7574 38.4062 24.7574 35C24.7574 33.8953 24.9323 32.8314 25.2558 31.8346C26.5893 27.7263 30.4484 24.7562 35.0012 24.7562C39.5541 24.7562 43.4132 27.7263 44.7466 31.8346C45.0702 32.8314 45.245 33.8953 45.245 35Z" fill="url(#paint9_linear_1380_12722)"/>
</g>
<defs>
<filter id="filter0_d_1380_12722" x="22.0811" y="23.4651" width="40.6933" height="25.8384" filterUnits="userSpaceOnUse" color-interpolation-filters="sRGB">
<feFlood flood-opacity="0" result="BackgroundImageFix"/>
<feColorMatrix in="SourceAlpha" type="matrix" values="0 0 0 0 0 0 0 0 0 0 0 0 0 0 0 0 0 0 127 0" result="hardAlpha"/>
<feOffset dy="1.38487"/>
<feGaussianBlur stdDeviation="0.692434"/>
<feComposite in2="hardAlpha" operator="out"/>
<feColorMatrix type="matrix" values="0 0 0 0 0 0 0 0 0 0 0 0 0 0 0 0 0 0 0.25 0"/>
<feBlend mode="normal" in2="BackgroundImageFix" result="effect1_dropShadow_1380_12722"/>
<feBlend mode="normal" in="SourceGraphic" in2="effect1_dropShadow_1380_12722" result="shape"/>
</filter>
<filter id="filter1_d_1380_12722" x="21.8714" y="23.0488" width="26.2563" height="26.3403" filterUnits="userSpaceOnUse" color-interpolation-filters="sRGB">
<feFlood flood-opacity="0" result="BackgroundImageFix"/>
<feColorMatrix in="SourceAlpha" type="matrix" values="0 0 0 0 0 0 0 0 0 0 0 0 0 0 0 0 0 0 127 0" result="hardAlpha"/>
<feOffset dy="1.26109"/>
<feGaussianBlur stdDeviation="0.588509"/>
<feComposite in2="hardAlpha" operator="out"/>
<feColorMatrix type="matrix" values="0 0 0 0 0 0 0 0 0 0 0 0 0 0 0 0 0 0 0.25 0"/>
<feBlend mode="normal" in2="BackgroundImageFix" result="effect1_dropShadow_1380_12722"/>
<feBlend mode="normal" in="SourceGraphic" in2="effect1_dropShadow_1380_12722" result="shape"/>
</filter>
<filter id="filter2_d_1380_12722" x="23.5804" y="24.7562" width="22.8416" height="22.9257" filterUnits="userSpaceOnUse" color-interpolation-filters="sRGB">
<feFlood flood-opacity="0" result="BackgroundImageFix"/>
<feColorMatrix in="SourceAlpha" type="matrix" values="0 0 0 0 0 0 0 0 0 0 0 0 0 0 0 0 0 0 127 0" result="hardAlpha"/>
<feOffset dy="1.26109"/>
<feGaussianBlur stdDeviation="0.588509"/>
<feComposite in2="hardAlpha" operator="out"/>
<feColorMatrix type="matrix" values="0 0 0 0 0 0 0 0 0 0 0 0 0 0 0 0 0 0 0.25 0"/>
<feBlend mode="normal" in2="BackgroundImageFix" result="effect1_dropShadow_1380_12722"/>
<feBlend mode="normal" in="SourceGraphic" in2="effect1_dropShadow_1380_12722" result="shape"/>
</filter>
<linearGradient id="paint0_linear_1380_12722" x1="35" y1="0" x2="35" y2="70" gradientUnits="userSpaceOnUse">
<stop stop-color="#3E1F80"/>
<stop offset="0.0933267" stop-color="#653DB9"/>
<stop offset="0.369385" stop-color="#3E1F80"/>
<stop offset="0.494392" stop-color="#653DB9"/>
<stop offset="0.624608" stop-color="#3E1F80"/>
<stop offset="1" stop-color="#3E1F80"/>
</linearGradient>
<radialGradient id="paint1_radial_1380_12722" cx="0" cy="0" r="1" gradientUnits="userSpaceOnUse" gradientTransform="translate(35.0003 35) rotate(90) scale(33.6538)">
<stop stop-color="#8951FF"/>
<stop offset="1" stop-color="#4E1ABC"/>
</radialGradient>
<radialGradient id="paint2_radial_1380_12722" cx="0" cy="0" r="1" gradientUnits="userSpaceOnUse" gradientTransform="translate(35.0003 35) rotate(90) scale(33.6538)">
<stop stop-color="#FFCC48"/>
<stop offset="1" stop-color="#F73333"/>
</radialGradient>
<radialGradient id="paint3_radial_1380_12722" cx="0" cy="0" r="1" gradientUnits="userSpaceOnUse" gradientTransform="translate(35.0003 35) rotate(90) scale(33.6538)">
<stop stop-color="#622ECF"/>
<stop offset="1" stop-color="#4E1ABC"/>
</radialGradient>
<radialGradient id="paint4_radial_1380_12722" cx="0" cy="0" r="1" gradientUnits="userSpaceOnUse" gradientTransform="translate(35.0003 35) rotate(90) scale(33.6538)">
<stop stop-color="#8951FF"/>
<stop offset="1" stop-color="#4E1ABC"/>
</radialGradient>
<radialGradient id="paint5_radial_1380_12722" cx="0" cy="0" r="1" gradientUnits="userSpaceOnUse" gradientTransform="translate(35.0003 35) rotate(90) scale(33.6538)">
<stop stop-color="#FFF5DC"/>
<stop offset="1" stop-color="#FFB800"/>
</radialGradient>
<radialGradient id="paint6_radial_1380_12722" cx="0" cy="0" r="1" gradientUnits="userSpaceOnUse" gradientTransform="translate(42.4277 34.9995) rotate(90) scale(11.5343 18.9618)">
<stop stop-color="#FFB800"/>
<stop offset="1" stop-color="#FFF5DC"/>
</radialGradient>
<linearGradient id="paint7_linear_1380_12722" x1="25.2642" y1="28.4272" x2="47.5086" y2="29.1198" gradientUnits="userSpaceOnUse">
<stop stop-color="#FFBF18"/>
<stop offset="1" stop-color="#FFEBB8"/>
</linearGradient>
<linearGradient id="paint8_linear_1380_12722" x1="26.6566" y1="29.3663" x2="45.7233" y2="29.9599" gradientUnits="userSpaceOnUse">
<stop stop-color="#EFDDFF"/>
<stop offset="1" stop-color="#BA85E9"/>
</linearGradient>
<linearGradient id="paint9_linear_1380_12722" x1="26.6566" y1="29.3663" x2="45.7233" y2="29.9599" gradientUnits="userSpaceOnUse">
<stop stop-color="#FFFCDE"/>
<stop offset="1" stop-color="#FFBA07"/>
</linearGradient>
</defs>
</svg>
