<svg width="20" height="23" viewBox="0 0 20 23" fill="none" xmlns="http://www.w3.org/2000/svg">
<path d="M5.34863 3.14622V15.1462C5.34863 15.6767 5.57767 16.1854 5.98536 16.5604C6.39305 16.9355 6.94599 17.1462 7.52255 17.1462H16.2182C16.7948 17.1462 17.3477 16.9355 17.7554 16.5604C18.1631 16.1854 18.3921 15.6767 18.3921 15.1462V6.38823C18.3921 6.12178 18.3342 5.85804 18.2218 5.61247C18.1094 5.3669 17.9449 5.14447 17.7378 4.95822L14.1345 1.71622C13.7284 1.35088 13.1829 1.14629 12.6149 1.14622H7.52255C6.94599 1.14622 6.39305 1.35694 5.98536 1.73201C5.57767 2.10708 5.34863 2.61579 5.34863 3.14622V3.14622Z" stroke="#FAF9FF" stroke-width="2" stroke-linecap="round" stroke-linejoin="round"/>
<path d="M14.0436 17.1462V19.1462C14.0436 19.6767 13.8146 20.1854 13.4069 20.5605C12.9992 20.9355 12.4462 21.1462 11.8697 21.1462H3.17404C2.59748 21.1462 2.04453 20.9355 1.63685 20.5605C1.22916 20.1854 1.00012 19.6767 1.00012 19.1462V8.14624C1.00012 7.61581 1.22916 7.1071 1.63685 6.73203C2.04453 6.35695 2.59748 6.14624 3.17404 6.14624H5.34795" stroke="#FAF9FF" stroke-width="2" stroke-linecap="round" stroke-linejoin="round"/>
</svg>
