<svg width="727" height="602" viewBox="0 0 727 602" fill="none" xmlns="http://www.w3.org/2000/svg">
<path d="M473.315 276.883L439.558 370.857L508.38 427.029L543.803 328.418L473.315 276.883Z" fill="#A13EC3"/>
<path d="M543.804 328.415L632.355 335.329L599.016 428.135L508.381 427.026L543.804 328.415Z" fill="#932FB6"/>
<path d="M470.355 275.064L543.806 328.417L554.687 298.127L480.661 246.375L470.355 275.064Z" fill="#BB51DF"/>
<path d="M469.306 275.354L542.757 328.706L553.638 298.416L479.612 246.665L469.306 275.354Z" fill="#A13EC4"/>
<path d="M554.686 298.125C555.682 298.181 645.783 307.384 645.783 307.384L635.358 336.407L543.805 328.415L554.686 298.125Z" fill="#932FB6"/>
<path d="M480.66 246.374L568.767 258.928L645.784 307.385L554.686 298.125L480.66 246.374Z" fill="#AA53C9"/>
<path d="M632.081 336.097L543.818 328.383L541.421 335.054C541.421 335.054 595.932 339.533 610.135 343.505C624.327 347.511 626.88 350.575 626.88 350.575L632.081 336.097Z" fill="#661881"/>
<path d="M473.315 276.883L543.803 328.418L541.406 335.09L472.62 278.818L473.315 276.883Z" fill="#8F2BB1"/>
<path d="M517.654 272.245L612.76 286.598L597.089 276.75L505.307 263.629L517.654 272.245Z" fill="#CF2ED2"/>
<path d="M595.134 302.223L526.411 252.904L541.465 255.034L611.195 303.435L595.134 302.223Z" fill="#CF2ED2"/>
<path d="M488.827 321.247C491.167 322.087 494.625 318.422 496.551 313.061C498.477 307.7 498.141 302.672 495.802 301.832C493.462 300.991 490.004 304.656 488.078 310.017C486.152 315.379 486.487 320.406 488.827 321.247Z" fill="#FFB39F"/>
<path d="M475.414 363.207C477.754 364.048 481.212 360.383 483.138 355.022C485.064 349.66 484.729 344.633 482.389 343.792C480.049 342.952 476.591 346.616 474.665 351.978C472.739 357.339 473.075 362.367 475.414 363.207Z" fill="#FFB39F"/>
<path d="M484.43 390.739C482.501 396.109 479.041 399.763 476.706 398.924C474.371 398.085 474.027 393.066 475.957 387.695C477.886 382.324 481.345 378.67 483.681 379.509C486.016 380.348 486.347 385.401 484.43 390.739Z" fill="#FFB39F"/>
<path d="M499.879 379.604C503.14 380.775 507.345 377.379 509.271 372.017C511.197 366.656 510.114 361.36 506.853 360.189C503.592 359.017 499.387 362.414 497.462 367.775C495.536 373.137 496.618 378.433 499.879 379.604Z" fill="#FFB39F"/>
<path d="M506.795 406.908C504.866 412.279 500.673 415.669 497.404 414.495C494.134 413.32 493.057 408.037 494.986 402.666C496.916 397.295 501.109 393.905 504.378 395.08C507.614 396.242 508.713 401.571 506.795 406.908Z" fill="#FFB39F"/>
<path d="M532.972 394.845C535.939 395.911 539.905 392.428 541.83 387.067C543.756 381.706 542.913 376.496 539.947 375.43C536.981 374.365 533.015 377.847 531.089 383.208C529.163 388.57 530.006 393.78 532.972 394.845Z" fill="#DD998C"/>
<path d="M539.466 423.428C542.856 424.646 547.385 420.675 549.582 414.558C551.78 408.441 550.813 402.495 547.423 401.278C544.033 400.06 539.503 404.031 537.306 410.148C535.109 416.265 536.076 422.21 539.466 423.428Z" fill="#DD998C"/>
<path d="M586.225 357.326C589.191 358.392 593.157 354.91 595.083 349.548C597.009 344.187 596.165 338.977 593.199 337.911C590.233 336.846 586.267 340.328 584.341 345.69C582.415 351.051 583.259 356.261 586.225 357.326Z" fill="#DD998C"/>
<path d="M566.562 425.479C569.529 426.544 573.495 423.062 575.421 417.701C577.346 412.339 576.503 407.129 573.537 406.064C570.571 404.998 566.605 408.481 564.679 413.842C562.753 419.203 563.596 424.413 566.562 425.479Z" fill="#DD998C"/>
<path d="M594.046 389.024C592.116 394.394 588.157 397.868 585.188 396.802C582.219 395.735 581.375 390.536 583.304 385.165C585.233 379.794 589.193 376.32 592.162 377.387C595.131 378.453 595.975 383.653 594.046 389.024Z" fill="#DD998C"/>
<path d="M596.025 415.911C594.096 421.282 590.503 424.888 588.001 423.989C585.499 423.09 585.022 418.023 586.952 412.652C588.881 407.281 592.474 403.675 594.976 404.574C597.478 405.473 597.943 410.574 596.025 415.911Z" fill="#DD998C"/>
<path d="M460.691 347.786C458.761 353.157 455.302 356.81 452.967 355.972C450.632 355.133 450.288 350.113 452.217 344.742C454.147 339.371 457.606 335.718 459.941 336.556C462.276 337.395 462.62 342.415 460.691 347.786Z" fill="#FFB39F"/>
<path d="M455.706 381.363C458.046 382.203 461.504 378.538 463.43 373.177C465.355 367.816 465.02 362.788 462.68 361.948C460.34 361.107 456.882 364.772 454.956 370.133C453.03 375.495 453.366 380.522 455.706 381.363Z" fill="#FFB39F"/>
<path d="M505.307 263.626L459.101 386.8L476.048 400.646L517.654 272.242L505.307 263.626Z" fill="#E438E8"/>
<path d="M595.135 302.22L550.943 427.548L571.792 427.806L611.196 303.433L595.135 302.22Z" fill="#B51AB8"/>
<path d="M536.657 282.572C538.998 281.718 541.339 280.864 543.833 280.63C542.93 282.829 542.249 285.146 541.779 287.501C545.98 283.774 551.922 282.858 557.045 280.442C557.771 280.1 558.566 279.67 558.875 278.915C559.172 278.193 558.956 277.325 558.466 276.697C557.976 276.069 557.257 275.66 556.559 275.296C553.731 273.941 550.198 273.501 547.14 274.36C546.045 274.683 545.188 275.392 544.199 275.941C542.791 276.715 541.483 277.526 540.236 278.585C538.842 279.741 537.645 281.081 536.657 282.572Z" fill="#FA32FE"/>
<path d="M561.77 287.414C560.104 289.641 557.867 291.36 555.632 292.968C556.953 293.066 558.267 292.973 559.548 292.868C561.749 292.717 563.95 292.566 566.151 292.415C565.661 294.198 564.893 295.918 563.826 297.418C567.954 295.888 571.745 293.408 574.801 290.249C575.329 289.724 575.835 289.152 576.099 288.418C576.338 287.751 576.366 287.045 576.281 286.337C576.049 284.257 574.961 282.36 573.435 280.945C571.909 279.531 569.979 278.612 567.949 278.184C567.079 277.984 566.094 277.894 565.245 278.267C564.078 278.789 564.172 279.576 564.158 280.664C564.201 283.165 563.205 285.519 561.77 287.414Z" fill="#FA32FE"/>
<path d="M529.333 272.973C530.395 273.581 533.419 274.704 534.627 274.8C542.213 275.491 547.342 276.731 555.354 277.914C556.605 278.1 557.785 278.486 559.027 278.593C559.542 278.627 560.205 278.564 560.418 278.076C560.535 277.854 560.498 277.539 560.391 277.313C560.097 276.454 559.292 275.863 558.53 275.363C554.134 272.504 549.012 270.928 544.114 268.942C541.514 267.895 538.93 266.703 536.15 266.157C533.538 265.67 530.564 265.77 528.244 267.196C526.141 268.437 527.506 271.978 529.333 272.973Z" fill="#B51AB8"/>
<path d="M564.048 272.487C563.343 269.522 561.462 267.001 559.508 264.68C556.301 260.816 552.865 257.171 549.187 253.778C547.069 251.812 544.726 249.84 541.94 249.103C539.979 248.587 537.596 248.823 536.337 250.443C534.905 252.226 535.473 254.84 536.389 256.902C539.255 263.393 545.064 268.191 551.379 271.477C554.116 272.874 556.971 274.05 559.888 274.947C560.734 275.214 562.308 275.968 563.224 275.619C564.346 275.118 564.261 273.468 564.048 272.487Z" fill="#B51AB8"/>
<path d="M552.429 266.769C544.847 261.56 533.912 252.472 537.933 249.246C532.534 250.96 527.755 255.458 526.283 260.918C525.693 263.191 525.6 265.757 526.888 267.726C527.473 268.614 528.275 269.317 529.126 269.886C532.071 271.961 535.613 273.007 539.114 273.85C546.774 275.698 554.595 276.888 562.394 278.033C562.839 277.213 565.18 274.89 564.18 274.531C562.879 274.063 561.731 273.274 560.881 272.705C558.273 271.053 555.035 268.534 552.429 266.769Z" fill="#FA32FE"/>
<path d="M563.336 279.389C563.641 279.8 573.219 286.48 573.219 286.48C573.219 286.48 577.205 289.117 583.123 290.678C589.04 292.239 596.861 293.428 596.861 293.428C596.861 293.428 592.216 289.688 592.055 289.404C591.905 289.087 564.524 276.502 564.524 276.502L563.336 279.389Z" fill="#B51AB8"/>
<path d="M563.322 273.245C565.589 271.234 568.583 270.238 571.539 269.455C576.379 268.143 581.29 267.157 586.272 266.499C589.163 266.106 592.163 265.828 594.887 266.844C596.776 267.56 598.59 269.116 598.689 271.147C598.816 273.415 596.879 275.243 594.957 276.398C588.863 280.047 581.337 280.658 574.307 279.677C571.256 279.259 568.267 278.562 565.329 277.619C564.483 277.353 562.774 277.078 562.244 276.247C561.561 275.211 562.589 273.923 563.322 273.245Z" fill="#B51AB8"/>
<path d="M576.371 275.293C585.563 275.394 599.397 273.998 597.964 269.077C601.391 273.585 603.065 280.25 601.126 285.542C600.302 287.732 598.884 289.896 596.689 290.765C595.715 291.169 594.659 291.279 593.605 291.277C589.995 291.261 586.502 290.081 583.168 288.771C575.801 285.898 568.752 282.349 561.703 278.8C561.815 277.861 561.239 274.641 562.264 274.934C563.6 275.301 564.991 275.311 565.999 275.334C569.125 275.44 573.243 275.3 576.371 275.293Z" fill="#FA32FE"/>
<path d="M564.65 270.596C564.031 270.223 563.271 270.138 562.532 270.099C561.568 270.054 560.512 270.164 559.791 270.809C559.196 271.311 558.887 272.066 558.59 272.788C558.362 273.422 558.123 274.089 557.928 274.735C557.782 275.247 557.624 275.793 557.701 276.311C557.875 277.503 559.023 278.292 560.122 278.8C561.596 279.518 563.164 280.081 564.78 280.511C565.471 280.684 566.208 280.835 566.864 280.581C567.656 280.263 568.101 279.444 568.422 278.655C569.124 276.911 569.471 275.002 569.357 273.115C569.353 272.813 569.327 272.464 569.211 272.159C568.945 271.536 568.371 271.142 567.762 270.847C566.32 270.141 564.645 269.878 563.058 270.1L564.65 270.596Z" fill="#FA32FE"/>
<path d="M569.534 273.253C569.529 272.951 569.504 272.602 569.387 272.297C569.219 271.822 568.812 271.488 568.381 271.22C568.387 272.879 568.058 274.531 567.428 276.075C567.107 276.864 566.662 277.683 565.87 278.001C565.213 278.255 564.477 278.104 563.786 277.931C562.203 277.513 560.635 276.95 559.127 276.22C558.706 276.03 558.308 275.774 557.944 275.531C557.869 275.843 557.84 276.134 557.878 276.448C558.052 277.641 559.2 278.43 560.298 278.937C561.772 279.656 563.34 280.219 564.956 280.649C565.647 280.821 566.384 280.973 567.04 280.719C567.832 280.401 568.277 279.582 568.598 278.793C569.312 277.016 569.614 275.128 569.534 273.253Z" fill="#B51AB8"/>
<path opacity="0.36" d="M560.32 272.051C559.89 272.725 559.733 273.686 560.235 274.28C560.421 274.498 560.697 274.672 560.991 274.589C561.475 274.5 561.612 273.909 561.846 273.466C562.138 272.968 562.74 272.657 563.333 272.681C563.769 272.725 564.158 272.902 564.582 272.979C565.264 273.074 565.846 272.605 565.559 271.937C565.391 271.462 564.314 271 563.847 270.832C562.5 270.386 561.088 270.858 560.32 272.051Z" fill="white"/>
<path opacity="0.36" d="M530.991 255.565C529.124 257.72 527.153 260.062 526.773 262.901C526.708 263.292 526.919 263.858 527.292 263.765C527.382 263.723 527.473 263.68 527.542 263.592C527.979 263.109 528.162 262.496 528.444 261.92C528.727 261.343 529.221 260.805 529.872 260.775C530.635 260.748 531.192 261.4 531.751 261.94C532.289 262.435 532.93 262.853 533.585 263.126C534.207 263.387 535.08 263.475 535.474 262.901C535.742 262.47 535.576 261.883 535.284 261.439C534.991 260.995 534.596 260.627 534.428 260.152C534.259 259.677 534.399 258.974 534.895 258.851C535.279 258.725 535.643 258.969 535.986 259.168C538.039 260.583 539.779 262.451 541.961 263.611C542.282 263.765 542.637 263.93 542.973 263.937C543.343 263.957 543.718 263.753 543.816 263.374C543.903 263.028 543.732 262.666 543.525 262.403C542.806 261.467 541.859 260.75 540.923 259.999C539.24 258.604 537.774 257.023 536.525 255.256C536.026 254.549 535.541 253.697 535.762 252.873C535.908 252.36 536.504 251.331 535.601 251.12C535.11 251.019 534.703 251.626 534.45 251.912C533.234 253.094 532.085 254.301 530.991 255.565Z" fill="white"/>
<path opacity="0.36" d="M595.605 274.068C596.104 273.832 596.636 273.609 597.187 273.544C597.737 273.478 598.35 273.66 598.664 274.15C598.978 274.639 598.874 275.242 598.973 275.805C599.058 276.513 599.436 277.139 599.701 277.761C600.362 279.279 600.568 281.011 600.317 282.653C600.267 282.898 600.204 283.177 599.965 283.318C599.636 283.501 599.241 283.133 599.103 282.782C598.84 282.047 598.999 280.974 598.277 280.677C597.789 280.464 597.288 280.811 596.779 280.968C596.293 281.17 595.566 281.097 595.488 280.579C595.469 280.422 595.529 280.255 595.622 280.1C595.89 279.669 596.334 279.377 596.669 278.97C596.97 278.55 597.031 277.857 596.554 277.61C596.366 277.505 596.13 277.533 595.927 277.573C595.004 277.731 594.079 278.001 593.165 278.238C588.609 279.389 583.745 279.299 579.245 277.984C578.8 277.861 578.214 277.5 578.37 277.066C578.501 276.699 579.04 276.667 579.431 276.732C581.917 277.361 584.944 276.904 587.419 276.513C590.255 276.063 592.999 275.241 595.605 274.068Z" fill="white"/>
<g filter="url(#filter0_f_1386_10822)">
<ellipse cx="363.5" cy="301" rx="263.5" ry="201" fill="#BBB0FF"/>
</g>
<path d="M200.539 290.955L249.76 365.844C256.999 376.858 241.397 399.884 214.91 417.293C188.423 434.702 161.096 439.891 153.857 428.877L104.636 353.988L200.539 290.955Z" fill="#75D665"/>
<path d="M207.112 300.956C207.112 300.956 200.916 331.572 161.435 352.716C121.939 373.837 110.491 362.946 110.491 362.946L117.508 373.621C117.508 373.621 136.439 379.95 163.047 363.364C205.539 336.888 208.096 302.503 208.096 302.503L207.089 300.971L207.112 300.956Z" fill="#5EA550"/>
<path d="M229.04 334.471C228.33 334.325 227.621 334.178 226.934 334.016C212.519 330.977 198.605 325.705 185.787 318.423C182.846 316.744 179.55 314.233 179.879 310.856C179.742 312.366 195.085 317.602 196.807 318.211C204.437 320.937 214.146 324.521 222.866 325.079L229.04 334.471Z" fill="#F2D927"/>
<path d="M171.906 339.063C170.878 338.383 169.829 337.621 169.403 336.482C168.977 335.343 169.578 333.755 170.79 333.636C171.343 333.594 171.88 333.822 172.372 334.08C192.187 343.568 214.124 348.631 236.115 348.819C236.855 348.817 237.618 348.799 238.358 348.699L246.989 361.83C246.757 361.821 246.54 361.835 246.331 361.811C220.026 361.684 193.773 353.685 171.906 339.063Z" fill="#F2D927"/>
<path d="M130.355 393.27C144.599 404.195 159.423 414.384 175.519 422.286C181.047 425.006 186.922 427.466 192.915 428.978C184.842 432.252 177.302 434.176 170.923 434.628C170.804 434.545 170.699 434.484 170.58 434.401C161.151 427.956 152.182 420.885 143.567 413.421L130.333 393.285L130.355 393.27Z" fill="#F2D927"/>
<path d="M240.584 394.582C235.954 392.787 230.956 392.299 226.049 391.654C203.673 388.622 181.871 381.213 162.254 370.014C157.242 367.148 152.247 363.916 148.786 359.288C147.259 357.26 146.385 353.771 148.65 352.604C150.105 351.874 151.819 352.715 153.227 353.531C170.087 363.285 188.567 370.007 207.456 374.75C219.203 377.705 231.411 379.937 243.339 377.967C246.078 377.522 248.901 376.763 251.214 375.275C250.212 380.965 246.557 387.721 240.823 394.651C240.726 394.65 240.637 394.612 240.584 394.582Z" fill="#F2D927"/>
<path d="M212.572 418.798C210.682 417.59 208.52 416.656 206.44 415.798C182.889 406.023 160.544 393.617 138.546 380.758C131.151 376.426 123.475 371.764 119.128 364.364C118.152 362.684 117.691 359.922 119.534 359.291C120.538 358.954 121.604 359.544 122.489 360.155C127.483 363.582 131.677 368.05 136.376 371.863C142.02 376.475 148.365 380.142 154.786 383.63C166.511 389.986 178.576 395.731 190.892 400.828C198.563 404.01 206.408 406.917 214.608 408.204C218.566 408.828 222.631 409.026 226.618 408.664C223.002 411.653 219.051 414.572 214.817 417.355C214.096 417.829 213.353 418.318 212.572 418.798Z" fill="#F2D927"/>
<path d="M202.753 320.334C201.979 322.004 201.13 323.755 200.132 325.572C198.7 324.965 197.262 324.298 195.839 323.653C196.985 322.061 198.042 320.528 198.993 319.031C200.209 319.458 201.462 319.892 202.753 320.334Z" fill="#D1B824"/>
<path d="M128.775 365.152C131.31 367.388 133.784 369.73 136.401 371.847C137.137 372.428 137.889 373.031 138.647 373.596C135.107 374.343 131.92 374.696 129.19 374.813C125.671 372.255 122.461 369.334 120.048 365.76C122.416 365.88 125.31 365.72 128.775 365.152Z" fill="#D1B824"/>
<path d="M167.085 360.775C165.771 361.671 164.405 362.537 163.016 363.417C160.982 364.69 158.979 365.813 157.036 366.832C153.91 364.726 151.04 362.322 148.78 359.325C148.706 359.212 148.632 359.099 148.558 358.987C151.032 357.942 153.619 356.725 156.393 355.353C159.887 357.282 163.463 359.092 167.085 360.775Z" fill="#D1B824"/>
<path d="M182.339 338.396C184.695 339.331 187.104 340.199 189.506 341.007C187.962 342.829 186.26 344.656 184.439 346.498C182.033 345.242 179.657 343.933 177.341 342.52C179.084 341.148 180.753 339.761 182.339 338.396Z" fill="#D1B824"/>
<path d="M106.339 359.772C113.815 371.146 142.002 365.843 169.299 347.902C196.597 329.96 213.391 307.569 205.916 296.195C198.44 284.821 169.484 288.758 142.209 306.685C114.934 324.612 98.8484 348.375 106.339 359.772Z" fill="#75D665"/>
<path d="M205.916 296.194L195.362 279.94L96.5542 344.883L106.339 359.771L205.916 296.194Z" fill="#75D665"/>
<path d="M156.577 328.592C129.286 346.529 102.31 353.689 96.3255 344.583C90.3409 335.478 107.613 313.555 134.905 295.618C162.196 277.68 189.172 270.521 195.156 279.626C201.141 288.731 183.868 310.654 156.577 328.592Z" fill="#8DF777"/>
<path d="M155.134 329.538L214.841 417.338L210.066 420.476L151.711 331.691L155.134 329.538Z" fill="#FF3A1A"/>
<path d="M155.135 329.537L133.891 296.282L132.486 297.237L151.712 331.69L155.135 329.537Z" fill="#FF7A64"/>
<path d="M195.154 279.625L95.5931 343.03L95.2648 341.794L194.264 278.468L195.154 279.625Z" fill="#FF7A64"/>
<path d="M126.481 303.216C121.229 301.605 115.528 301.126 110.234 302.542C107.081 303.389 103.983 305.005 102.194 307.73C100.404 310.454 100.266 314.415 102.523 316.77C103.325 317.597 104.353 318.179 105.404 318.65C111.412 321.216 118.284 319.795 124.633 318.267C130.024 316.949 135.453 315.542 140.521 313.243C140.949 313.059 141.406 312.823 141.611 312.398C141.815 311.973 141.595 311.344 141.132 311.326C140.975 311.332 140.825 311.399 140.683 311.428C132.377 314.887 123.354 316.076 114.407 317.086C112.634 317.284 110.824 317.474 109.077 317.171C107.329 316.868 105.601 316.005 104.646 314.503C102.974 311.861 104.352 308.118 106.913 306.273C109.466 304.466 112.765 304.136 115.904 304.201C120.807 304.301 125.698 305.215 130.344 306.837C132.612 307.637 134.84 308.623 136.956 309.781C138.267 310.5 140.422 312.502 141.879 312.512C141.398 310.7 138.665 309.045 137.161 308.13C133.833 306.06 130.234 304.362 126.481 303.216Z" fill="#FF3A1A"/>
<path d="M141.1 324.184C139.778 327.375 137.905 330.412 135.252 332.608C132.613 334.826 129.091 336.141 125.655 335.722C125.2 335.667 124.752 335.574 124.432 335.236C123.794 334.559 124.22 333.44 124.867 332.757C126.878 330.565 130.319 330.109 133.07 331.203C135.822 332.298 137.884 334.748 139.1 337.432C141.001 341.601 141.02 346.781 138.46 350.592C137.245 352.423 135.486 353.869 133.617 355.001C131.704 356.162 129.515 357.052 127.28 357.038C126.42 357.054 125.376 356.741 125.194 355.925C125.1 355.536 125.237 355.155 125.388 354.797C126.283 352.822 128.347 351.595 130.452 351.018C133.507 350.171 136.772 350.476 139.786 351.431C145.022 353.117 149.572 356.996 151.714 362.071C153.856 367.146 153.42 373.303 150.251 377.805C147.911 381.116 144.376 383.343 140.916 385.488C140.508 385.015 140.212 384.467 140.007 383.86C142.627 382.106 145.063 380.021 147.134 377.627C148.43 376.163 149.599 374.556 150.366 372.73C152.249 368.234 151.208 362.823 148.213 358.954C145.233 355.107 140.539 352.774 135.707 352.144C133.317 351.844 130.662 351.976 128.828 353.504C128.542 353.757 128.241 354.084 128.313 354.488C128.443 355.176 129.431 355.108 130.068 354.851C133.995 353.269 137.782 350.296 138.415 346.107C138.884 342.992 137.499 339.904 136.029 337.128C135.092 335.358 133.99 333.534 132.255 332.513C130.519 331.493 127.947 331.603 126.808 333.255C126.581 333.598 126.443 334.075 126.718 334.346C126.956 334.609 127.36 334.537 127.689 334.45C131.455 333.555 134.857 331.222 137.083 328.082C139.294 324.92 140.329 320.95 139.92 317.09C139.822 316.155 139.169 313.1 140.183 312.434C141.106 311.827 141.632 313.707 141.897 314.404C143.094 317.649 142.391 321.142 141.1 324.184Z" fill="#FF3A1A"/>
<path d="M150.933 310.239C154.315 310.919 157.656 312.174 160.34 314.344C163.024 316.515 165.015 319.69 165.254 323.145C165.281 323.579 165.277 324.065 165.028 324.422C164.5 325.188 163.298 324.979 162.524 324.488C159.977 322.969 158.855 319.642 159.397 316.738C159.94 313.833 161.937 311.327 164.318 309.601C168.043 306.927 173.103 305.891 177.353 307.646C179.396 308.496 181.143 309.928 182.62 311.537C184.127 313.192 185.415 315.151 185.871 317.367C186.03 318.198 185.963 319.274 185.168 319.635C184.824 319.797 184.405 319.749 184.017 319.65C181.905 319.135 180.287 317.36 179.305 315.425C177.904 312.605 177.529 309.336 177.908 306.184C178.549 300.731 181.462 295.495 186.012 292.408C190.562 289.32 196.697 288.545 201.706 290.768C205.462 292.46 208.335 295.506 211.089 298.47C210.698 298.953 210.239 299.384 209.691 299.679C207.448 297.444 204.934 295.484 202.209 293.889C200.503 292.914 198.715 292.057 196.789 291.678C192.026 290.713 186.906 292.787 183.698 296.444C180.504 300.124 179.148 305.175 179.468 310.029C179.631 312.437 180.287 315.006 182.154 316.52C182.451 316.776 182.839 316.973 183.198 316.834C183.835 316.576 183.588 315.61 183.218 315.047C180.893 311.511 177.221 308.377 173.019 308.559C169.856 308.703 167.114 310.666 164.679 312.653C163.131 313.929 161.552 315.354 160.889 317.241C160.226 319.128 160.816 321.643 162.679 322.418C163.037 322.57 163.553 322.618 163.757 322.291C163.953 322 163.836 321.626 163.688 321.303C162.059 317.794 159.133 314.912 155.607 313.327C152.059 311.756 147.979 311.535 144.279 312.677C143.365 312.955 140.524 314.177 139.67 313.32C138.883 312.515 140.638 311.651 141.283 311.259C144.142 309.574 147.7 309.59 150.933 310.239Z" fill="#FF3A1A"/>
<path opacity="0.27" d="M212.424 322.782C214.289 324.588 215.635 326.832 216.943 329.069C221.505 336.746 226.314 344.357 232.522 350.759C235.039 353.362 237.774 355.757 239.946 358.62C242.132 361.505 243.724 365.006 243.506 368.6C243.303 372.217 240.925 375.812 237.421 376.664C233.962 377.486 230.364 375.496 228.155 372.723C225.945 369.951 224.809 366.504 223.507 363.199C220.64 355.892 216.88 348.945 212.302 342.569C210.628 340.218 208.804 337.934 207.46 335.398C205.585 331.857 205.264 328.327 205.708 324.39C206.13 320.469 209.861 320.306 212.424 322.782Z" fill="white"/>
<path opacity="0.27" d="M185.5 282.552C184.684 282.733 183.848 282.638 183.048 282.551C174.509 281.777 166.071 284.936 158.591 289.111C156.52 290.279 154.494 291.514 152.239 292.254C151.819 292.401 151.333 292.495 150.953 292.261C150.544 291.981 150.503 291.331 150.768 290.899C151.032 290.467 151.46 290.186 151.903 289.927C157.494 286.607 163.351 283.693 169.37 281.22C172.113 280.094 174.938 279.044 177.879 278.562C180.296 278.167 182.793 278.138 185.182 278.73C186.219 278.983 187.204 279.206 187.301 280.433C187.369 281.517 186.481 282.326 185.5 282.552Z" fill="white"/>
<path d="M138.14 294.554C137.573 288.637 138.348 282.259 142.123 277.648C143.479 275.983 145.245 274.597 147.312 274.012C148.698 273.617 150.155 273.627 151.605 273.771C155.586 274.186 159.634 275.976 161.757 279.354C163.954 282.845 163.708 287.425 162.106 291.22C160.503 295.014 157.68 298.128 154.812 301.077C151.222 304.791 147.454 308.332 143.537 311.745C142.898 312.294 142.191 312.888 141.368 313.01C141.064 311.468 142.493 310.206 143.703 309.25C148.933 305.038 152.954 299.525 156.884 294.071C158.136 292.345 159.396 290.582 160.194 288.606C160.992 286.63 161.306 284.36 160.609 282.367C160.183 281.131 159.398 280.034 158.499 279.109C156.354 276.874 153.18 275.284 150.184 276.027C148.889 276.362 147.733 277.057 146.719 277.918C142.803 281.136 140.602 286.131 139.986 291.18C139.37 296.229 140.167 301.318 141.345 306.252C141.833 308.318 142.557 310.745 141.87 312.841C140.66 312.766 140.086 305.66 139.818 304.32C139.121 301.102 138.447 297.868 138.14 294.554Z" fill="#FF3A1A"/>
<path d="M182 196.146C182 174.055 199.909 156.146 222 156.146H517C539.091 156.146 557 174.055 557 196.146V394.146C557 416.238 539.092 434.146 517 434.146H222C199.909 434.146 182 416.238 182 394.146V196.146Z" fill="url(#paint0_linear_1386_10822)"/>
<path d="M152 406.146C159.6 390.146 175.167 383.48 182 382.146L181.926 393.164C181.781 414.72 198.745 432.514 220.284 433.398L238.5 434.146C267 434.146 338.1 435.046 390.5 410.646C456 380.146 481 393.146 531 410.646C581 428.146 599 382.646 602.5 418.646C606 454.646 526.5 528.646 438 482.646C349.5 436.646 341 455.646 248 454.646C155 453.646 142.5 426.146 152 406.146Z" fill="white"/>
<path d="M360.5 458.646C323.5 451.146 279 461.646 306.5 461.146C334 460.646 358.5 474.646 374 474.646C389.5 474.646 397.5 466.146 360.5 458.646Z" fill="white"/>
<path d="M453.268 167.049C457.646 164.458 467.406 156.47 471.738 152.8C477.211 146.323 489.388 132.722 494.314 130.131C499.239 127.541 553.375 125.166 579.827 124.302C582.791 128.62 582.7 140.365 558.619 152.8C582.563 178.707 589.404 198.137 579.827 190.365C570.249 182.593 541.517 181.946 525.783 186.479C510.048 191.013 486.789 198.785 471.738 198.137C456.688 197.49 447.795 170.287 453.268 167.049Z" fill="url(#paint1_linear_1386_10822)"/>
<path d="M285.731 167.049C281.353 164.458 271.593 156.47 267.26 152.8C261.787 146.323 249.61 132.722 244.685 130.131C239.759 127.541 185.624 125.166 159.172 124.302C156.208 128.62 156.299 140.365 180.379 152.8C156.436 178.707 149.595 198.137 159.172 190.365C168.75 182.593 197.482 181.946 213.216 186.479C228.95 191.013 252.21 198.785 267.26 198.137C282.31 197.49 291.204 170.287 285.731 167.049Z" fill="url(#paint2_linear_1386_10822)"/>
<path d="M445.5 172.146C469.5 143.646 526.5 178.646 521 183.146C485.5 196.146 470.5 172.146 445.5 172.146Z" fill="#340242"/>
<path d="M294 172.246C271.604 143.67 217.278 178.763 222.41 183.275C255.538 196.31 270.67 172.246 294 172.246Z" fill="#340242"/>
<path d="M380.752 161.8C291.545 161.8 237.775 175.185 222.041 181.878C229.566 158.562 217.252 139.131 210.411 133.302C203.57 127.473 204.254 117.11 205.622 117.11C206.991 117.11 274.032 93.1462 376.648 93.1462C458.74 93.1462 515.292 109.122 533.307 117.11C536.271 119.053 539.19 126.178 527.15 139.131C515.11 152.085 518.485 173.026 521.677 181.878C511.872 175.185 469.959 161.8 380.752 161.8Z" fill="#340242"/>
<path d="M455 169.146C479 140.646 526.5 175.646 521 180.146C485.5 193.146 480 169.146 455 169.146Z" fill="#400245"/>
<path d="M284 169.246C261.604 140.67 217.278 175.763 222.41 180.275C255.538 193.31 260.67 169.246 284 169.246Z" fill="#400245"/>
<path d="M380.752 158.8C291.545 158.8 237.775 172.185 222.041 178.878C229.566 155.562 217.252 136.131 210.411 130.302C203.57 124.473 204.254 114.11 205.622 114.11C206.991 114.11 274.032 90.1462 376.648 90.1462C458.74 90.1462 515.292 106.122 533.307 114.11C536.271 116.053 539.19 123.178 527.15 136.131C515.11 149.085 518.485 170.026 521.677 178.878C511.872 172.185 469.959 158.8 380.752 158.8Z" fill="url(#paint3_linear_1386_10822)"/>
<g filter="url(#filter1_d_1386_10822)">
<path d="M310.495 118.378C310.004 117.781 309.396 117.322 308.671 117.002C307.967 116.682 307.145 116.522 306.207 116.522C305.268 116.522 304.393 116.704 303.583 117.066C302.793 117.429 302.1 117.941 301.503 118.602C300.927 119.242 300.468 120.01 300.127 120.906C299.807 121.802 299.647 122.773 299.647 123.818C299.647 124.885 299.807 125.866 300.127 126.762C300.468 127.637 300.927 128.405 301.503 129.066C302.079 129.706 302.751 130.208 303.519 130.57C304.308 130.933 305.151 131.114 306.047 131.114C307.071 131.114 307.977 130.901 308.767 130.474C309.556 130.048 310.207 129.45 310.719 128.682L314.879 131.786C313.919 133.13 312.703 134.122 311.231 134.762C309.759 135.402 308.244 135.722 306.687 135.722C304.916 135.722 303.284 135.445 301.791 134.89C300.297 134.336 299.007 133.546 297.919 132.522C296.831 131.477 295.977 130.218 295.359 128.746C294.761 127.274 294.463 125.632 294.463 123.818C294.463 122.005 294.761 120.362 295.359 118.89C295.977 117.418 296.831 116.17 297.919 115.146C299.007 114.101 300.297 113.301 301.791 112.746C303.284 112.192 304.916 111.914 306.687 111.914C307.327 111.914 307.988 111.978 308.671 112.106C309.375 112.213 310.057 112.394 310.719 112.65C311.401 112.906 312.052 113.248 312.671 113.674C313.289 114.101 313.844 114.624 314.335 115.242L310.495 118.378ZM316.401 127.37C316.401 126.133 316.625 125.013 317.073 124.01C317.521 123.008 318.129 122.154 318.897 121.45C319.686 120.725 320.604 120.17 321.649 119.786C322.716 119.402 323.846 119.21 325.041 119.21C326.236 119.21 327.356 119.402 328.401 119.786C329.468 120.17 330.385 120.725 331.153 121.45C331.942 122.154 332.561 123.008 333.009 124.01C333.457 125.013 333.681 126.133 333.681 127.37C333.681 128.608 333.457 129.728 333.009 130.73C332.561 131.733 331.942 132.597 331.153 133.322C330.385 134.026 329.468 134.57 328.401 134.954C327.356 135.338 326.236 135.53 325.041 135.53C323.846 135.53 322.716 135.338 321.649 134.954C320.604 134.57 319.686 134.026 318.897 133.322C318.129 132.597 317.521 131.733 317.073 130.73C316.625 129.728 316.401 128.608 316.401 127.37ZM321.201 127.37C321.201 128.544 321.532 129.493 322.193 130.218C322.876 130.944 323.825 131.306 325.041 131.306C326.257 131.306 327.196 130.944 327.857 130.218C328.54 129.493 328.881 128.544 328.881 127.37C328.881 126.197 328.54 125.248 327.857 124.522C327.196 123.797 326.257 123.434 325.041 123.434C323.825 123.434 322.876 123.797 322.193 124.522C321.532 125.248 321.201 126.197 321.201 127.37ZM336.508 119.594H341.116V121.706H341.18C341.33 121.408 341.543 121.109 341.82 120.81C342.098 120.512 342.428 120.245 342.812 120.01C343.196 119.776 343.634 119.584 344.124 119.434C344.615 119.285 345.148 119.21 345.724 119.21C346.94 119.21 347.922 119.402 348.668 119.786C349.415 120.149 349.991 120.661 350.396 121.322C350.823 121.984 351.111 122.762 351.26 123.658C351.41 124.554 351.484 125.525 351.484 126.57V135.146H346.684V127.53C346.684 127.082 346.663 126.624 346.62 126.154C346.599 125.664 346.503 125.216 346.332 124.81C346.183 124.405 345.938 124.074 345.596 123.818C345.276 123.562 344.807 123.434 344.188 123.434C343.57 123.434 343.068 123.552 342.684 123.786C342.3 124 342.002 124.298 341.788 124.682C341.596 125.045 341.468 125.461 341.404 125.93C341.34 126.4 341.308 126.89 341.308 127.402V135.146H336.508V119.594ZM371.203 133.834C371.203 136.778 370.457 139.008 368.963 140.522C367.491 142.058 365.241 142.826 362.211 142.826C360.825 142.826 359.459 142.666 358.115 142.346C356.771 142.048 355.534 141.45 354.403 140.554L357.059 136.586C357.806 137.205 358.585 137.696 359.395 138.058C360.227 138.421 361.134 138.602 362.115 138.602C363.587 138.602 364.665 138.24 365.347 137.514C366.051 136.81 366.403 135.904 366.403 134.794V133.29H366.339C365.785 134.037 365.091 134.57 364.259 134.89C363.449 135.189 362.681 135.338 361.955 135.338C360.803 135.338 359.758 135.146 358.819 134.762C357.881 134.357 357.07 133.802 356.387 133.098C355.726 132.373 355.214 131.52 354.851 130.538C354.489 129.557 354.307 128.48 354.307 127.306C354.307 126.282 354.467 125.28 354.787 124.298C355.129 123.317 355.598 122.453 356.195 121.706C356.814 120.96 357.561 120.362 358.435 119.914C359.31 119.445 360.302 119.21 361.411 119.21C362.094 119.21 362.713 119.285 363.267 119.434C363.843 119.584 364.355 119.776 364.803 120.01C365.251 120.245 365.635 120.512 365.955 120.81C366.275 121.088 366.531 121.365 366.723 121.642H366.787V119.594H371.203V133.834ZM359.107 127.274C359.107 127.786 359.203 128.277 359.395 128.746C359.587 129.194 359.854 129.6 360.195 129.962C360.558 130.304 360.963 130.581 361.411 130.794C361.881 131.008 362.393 131.114 362.947 131.114C363.481 131.114 363.982 131.008 364.451 130.794C364.921 130.581 365.326 130.304 365.667 129.962C366.03 129.6 366.307 129.194 366.499 128.746C366.691 128.277 366.787 127.786 366.787 127.274C366.787 126.762 366.691 126.282 366.499 125.834C366.307 125.365 366.03 124.96 365.667 124.618C365.326 124.256 364.921 123.968 364.451 123.754C363.982 123.541 363.481 123.434 362.947 123.434C362.393 123.434 361.881 123.541 361.411 123.754C360.963 123.968 360.558 124.256 360.195 124.618C359.854 124.96 359.587 125.365 359.395 125.834C359.203 126.282 359.107 126.762 359.107 127.274ZM375.04 119.594H379.84V122.09H379.904C380.416 121.13 381.024 120.416 381.728 119.946C382.432 119.456 383.317 119.21 384.384 119.21C384.661 119.21 384.938 119.221 385.216 119.242C385.493 119.264 385.749 119.306 385.984 119.37V123.754C385.642 123.648 385.301 123.573 384.96 123.53C384.64 123.466 384.298 123.434 383.936 123.434C383.018 123.434 382.293 123.562 381.76 123.818C381.226 124.074 380.81 124.437 380.512 124.906C380.234 125.354 380.053 125.898 379.968 126.538C379.882 127.178 379.84 127.882 379.84 128.65V135.146H375.04V119.594ZM397.831 133.194H397.767C397.233 134.026 396.519 134.624 395.623 134.986C394.748 135.349 393.82 135.53 392.839 135.53C392.113 135.53 391.409 135.424 390.727 135.21C390.065 135.018 389.479 134.72 388.967 134.314C388.455 133.909 388.049 133.408 387.751 132.81C387.452 132.213 387.303 131.52 387.303 130.73C387.303 129.834 387.463 129.077 387.783 128.458C388.124 127.84 388.572 127.328 389.127 126.922C389.703 126.517 390.353 126.208 391.079 125.994C391.804 125.76 392.551 125.589 393.319 125.482C394.108 125.376 394.887 125.312 395.655 125.29C396.444 125.269 397.169 125.258 397.831 125.258C397.831 124.405 397.521 123.733 396.903 123.242C396.305 122.73 395.591 122.474 394.759 122.474C393.969 122.474 393.244 122.645 392.583 122.986C391.943 123.306 391.367 123.754 390.855 124.33L388.295 121.706C389.191 120.874 390.236 120.256 391.431 119.85C392.625 119.424 393.863 119.21 395.143 119.21C396.551 119.21 397.703 119.392 398.599 119.754C399.516 120.096 400.241 120.608 400.775 121.29C401.329 121.973 401.713 122.816 401.927 123.818C402.14 124.8 402.247 125.941 402.247 127.242V135.146H397.831V133.194ZM396.647 128.33C396.284 128.33 395.825 128.352 395.271 128.394C394.737 128.416 394.215 128.501 393.703 128.65C393.212 128.8 392.785 129.024 392.423 129.322C392.081 129.621 391.911 130.037 391.911 130.57C391.911 131.146 392.156 131.573 392.647 131.85C393.137 132.128 393.649 132.266 394.183 132.266C394.652 132.266 395.1 132.202 395.527 132.074C395.975 131.946 396.369 131.765 396.711 131.53C397.052 131.296 397.319 130.997 397.511 130.634C397.724 130.272 397.831 129.845 397.831 129.354V128.33H396.647ZM415.85 123.434H411.626V128.618C411.626 129.045 411.648 129.44 411.69 129.802C411.733 130.144 411.829 130.442 411.978 130.698C412.128 130.954 412.352 131.157 412.65 131.306C412.97 131.434 413.386 131.498 413.898 131.498C414.154 131.498 414.485 131.477 414.89 131.434C415.317 131.37 415.637 131.242 415.85 131.05V135.05C415.317 135.242 414.762 135.37 414.186 135.434C413.61 135.498 413.045 135.53 412.49 135.53C411.68 135.53 410.933 135.445 410.25 135.274C409.568 135.104 408.97 134.837 408.458 134.474C407.946 134.09 407.541 133.6 407.242 133.002C406.965 132.405 406.826 131.68 406.826 130.826V123.434H403.754V119.594H406.826V114.986H411.626V119.594H415.85V123.434ZM427.09 124.17C426.386 123.296 425.458 122.858 424.306 122.858C423.9 122.858 423.506 122.954 423.122 123.146C422.738 123.338 422.546 123.669 422.546 124.138C422.546 124.522 422.738 124.81 423.122 125.002C423.527 125.173 424.028 125.333 424.626 125.482C425.244 125.61 425.895 125.76 426.578 125.93C427.282 126.08 427.932 126.325 428.53 126.666C429.148 127.008 429.65 127.477 430.034 128.074C430.439 128.65 430.642 129.429 430.642 130.41C430.642 131.413 430.418 132.245 429.97 132.906C429.543 133.546 428.988 134.069 428.306 134.474C427.623 134.858 426.855 135.125 426.002 135.274C425.148 135.445 424.306 135.53 423.474 135.53C422.386 135.53 421.287 135.381 420.178 135.082C419.068 134.762 418.13 134.208 417.362 133.418L420.274 130.186C420.722 130.741 421.212 131.168 421.746 131.466C422.3 131.744 422.94 131.882 423.666 131.882C424.22 131.882 424.722 131.808 425.17 131.658C425.618 131.488 425.842 131.189 425.842 130.762C425.842 130.357 425.639 130.058 425.234 129.866C424.85 129.653 424.348 129.482 423.73 129.354C423.132 129.205 422.482 129.056 421.778 128.906C421.095 128.736 420.444 128.49 419.826 128.17C419.228 127.85 418.727 127.402 418.322 126.826C417.938 126.229 417.746 125.44 417.746 124.458C417.746 123.541 417.927 122.752 418.29 122.09C418.674 121.429 419.164 120.885 419.762 120.458C420.38 120.032 421.084 119.722 421.874 119.53C422.663 119.317 423.463 119.21 424.274 119.21C425.298 119.21 426.332 119.36 427.378 119.658C428.423 119.957 429.308 120.49 430.034 121.258L427.09 124.17ZM440.91 127.658H436.11V112.49H440.91V127.658ZM435.566 132.394C435.566 131.989 435.641 131.605 435.79 131.242C435.939 130.88 436.142 130.57 436.398 130.314C436.675 130.037 436.995 129.824 437.358 129.674C437.721 129.525 438.105 129.45 438.51 129.45C438.915 129.45 439.299 129.525 439.662 129.674C440.025 129.824 440.334 130.037 440.59 130.314C440.867 130.57 441.081 130.88 441.23 131.242C441.379 131.605 441.454 131.989 441.454 132.394C441.454 132.8 441.379 133.184 441.23 133.546C441.081 133.909 440.867 134.229 440.59 134.506C440.334 134.762 440.025 134.965 439.662 135.114C439.299 135.264 438.915 135.338 438.51 135.338C438.105 135.338 437.721 135.264 437.358 135.114C436.995 134.965 436.675 134.762 436.398 134.506C436.142 134.229 435.939 133.909 435.79 133.546C435.641 133.184 435.566 132.8 435.566 132.394Z" fill="url(#paint4_linear_1386_10822)"/>
<path d="M310.495 118.378C310.004 117.781 309.396 117.322 308.671 117.002C307.967 116.682 307.145 116.522 306.207 116.522C305.268 116.522 304.393 116.704 303.583 117.066C302.793 117.429 302.1 117.941 301.503 118.602C300.927 119.242 300.468 120.01 300.127 120.906C299.807 121.802 299.647 122.773 299.647 123.818C299.647 124.885 299.807 125.866 300.127 126.762C300.468 127.637 300.927 128.405 301.503 129.066C302.079 129.706 302.751 130.208 303.519 130.57C304.308 130.933 305.151 131.114 306.047 131.114C307.071 131.114 307.977 130.901 308.767 130.474C309.556 130.048 310.207 129.45 310.719 128.682L314.879 131.786C313.919 133.13 312.703 134.122 311.231 134.762C309.759 135.402 308.244 135.722 306.687 135.722C304.916 135.722 303.284 135.445 301.791 134.89C300.297 134.336 299.007 133.546 297.919 132.522C296.831 131.477 295.977 130.218 295.359 128.746C294.761 127.274 294.463 125.632 294.463 123.818C294.463 122.005 294.761 120.362 295.359 118.89C295.977 117.418 296.831 116.17 297.919 115.146C299.007 114.101 300.297 113.301 301.791 112.746C303.284 112.192 304.916 111.914 306.687 111.914C307.327 111.914 307.988 111.978 308.671 112.106C309.375 112.213 310.057 112.394 310.719 112.65C311.401 112.906 312.052 113.248 312.671 113.674C313.289 114.101 313.844 114.624 314.335 115.242L310.495 118.378ZM316.401 127.37C316.401 126.133 316.625 125.013 317.073 124.01C317.521 123.008 318.129 122.154 318.897 121.45C319.686 120.725 320.604 120.17 321.649 119.786C322.716 119.402 323.846 119.21 325.041 119.21C326.236 119.21 327.356 119.402 328.401 119.786C329.468 120.17 330.385 120.725 331.153 121.45C331.942 122.154 332.561 123.008 333.009 124.01C333.457 125.013 333.681 126.133 333.681 127.37C333.681 128.608 333.457 129.728 333.009 130.73C332.561 131.733 331.942 132.597 331.153 133.322C330.385 134.026 329.468 134.57 328.401 134.954C327.356 135.338 326.236 135.53 325.041 135.53C323.846 135.53 322.716 135.338 321.649 134.954C320.604 134.57 319.686 134.026 318.897 133.322C318.129 132.597 317.521 131.733 317.073 130.73C316.625 129.728 316.401 128.608 316.401 127.37ZM321.201 127.37C321.201 128.544 321.532 129.493 322.193 130.218C322.876 130.944 323.825 131.306 325.041 131.306C326.257 131.306 327.196 130.944 327.857 130.218C328.54 129.493 328.881 128.544 328.881 127.37C328.881 126.197 328.54 125.248 327.857 124.522C327.196 123.797 326.257 123.434 325.041 123.434C323.825 123.434 322.876 123.797 322.193 124.522C321.532 125.248 321.201 126.197 321.201 127.37ZM336.508 119.594H341.116V121.706H341.18C341.33 121.408 341.543 121.109 341.82 120.81C342.098 120.512 342.428 120.245 342.812 120.01C343.196 119.776 343.634 119.584 344.124 119.434C344.615 119.285 345.148 119.21 345.724 119.21C346.94 119.21 347.922 119.402 348.668 119.786C349.415 120.149 349.991 120.661 350.396 121.322C350.823 121.984 351.111 122.762 351.26 123.658C351.41 124.554 351.484 125.525 351.484 126.57V135.146H346.684V127.53C346.684 127.082 346.663 126.624 346.62 126.154C346.599 125.664 346.503 125.216 346.332 124.81C346.183 124.405 345.938 124.074 345.596 123.818C345.276 123.562 344.807 123.434 344.188 123.434C343.57 123.434 343.068 123.552 342.684 123.786C342.3 124 342.002 124.298 341.788 124.682C341.596 125.045 341.468 125.461 341.404 125.93C341.34 126.4 341.308 126.89 341.308 127.402V135.146H336.508V119.594ZM371.203 133.834C371.203 136.778 370.457 139.008 368.963 140.522C367.491 142.058 365.241 142.826 362.211 142.826C360.825 142.826 359.459 142.666 358.115 142.346C356.771 142.048 355.534 141.45 354.403 140.554L357.059 136.586C357.806 137.205 358.585 137.696 359.395 138.058C360.227 138.421 361.134 138.602 362.115 138.602C363.587 138.602 364.665 138.24 365.347 137.514C366.051 136.81 366.403 135.904 366.403 134.794V133.29H366.339C365.785 134.037 365.091 134.57 364.259 134.89C363.449 135.189 362.681 135.338 361.955 135.338C360.803 135.338 359.758 135.146 358.819 134.762C357.881 134.357 357.07 133.802 356.387 133.098C355.726 132.373 355.214 131.52 354.851 130.538C354.489 129.557 354.307 128.48 354.307 127.306C354.307 126.282 354.467 125.28 354.787 124.298C355.129 123.317 355.598 122.453 356.195 121.706C356.814 120.96 357.561 120.362 358.435 119.914C359.31 119.445 360.302 119.21 361.411 119.21C362.094 119.21 362.713 119.285 363.267 119.434C363.843 119.584 364.355 119.776 364.803 120.01C365.251 120.245 365.635 120.512 365.955 120.81C366.275 121.088 366.531 121.365 366.723 121.642H366.787V119.594H371.203V133.834ZM359.107 127.274C359.107 127.786 359.203 128.277 359.395 128.746C359.587 129.194 359.854 129.6 360.195 129.962C360.558 130.304 360.963 130.581 361.411 130.794C361.881 131.008 362.393 131.114 362.947 131.114C363.481 131.114 363.982 131.008 364.451 130.794C364.921 130.581 365.326 130.304 365.667 129.962C366.03 129.6 366.307 129.194 366.499 128.746C366.691 128.277 366.787 127.786 366.787 127.274C366.787 126.762 366.691 126.282 366.499 125.834C366.307 125.365 366.03 124.96 365.667 124.618C365.326 124.256 364.921 123.968 364.451 123.754C363.982 123.541 363.481 123.434 362.947 123.434C362.393 123.434 361.881 123.541 361.411 123.754C360.963 123.968 360.558 124.256 360.195 124.618C359.854 124.96 359.587 125.365 359.395 125.834C359.203 126.282 359.107 126.762 359.107 127.274ZM375.04 119.594H379.84V122.09H379.904C380.416 121.13 381.024 120.416 381.728 119.946C382.432 119.456 383.317 119.21 384.384 119.21C384.661 119.21 384.938 119.221 385.216 119.242C385.493 119.264 385.749 119.306 385.984 119.37V123.754C385.642 123.648 385.301 123.573 384.96 123.53C384.64 123.466 384.298 123.434 383.936 123.434C383.018 123.434 382.293 123.562 381.76 123.818C381.226 124.074 380.81 124.437 380.512 124.906C380.234 125.354 380.053 125.898 379.968 126.538C379.882 127.178 379.84 127.882 379.84 128.65V135.146H375.04V119.594ZM397.831 133.194H397.767C397.233 134.026 396.519 134.624 395.623 134.986C394.748 135.349 393.82 135.53 392.839 135.53C392.113 135.53 391.409 135.424 390.727 135.21C390.065 135.018 389.479 134.72 388.967 134.314C388.455 133.909 388.049 133.408 387.751 132.81C387.452 132.213 387.303 131.52 387.303 130.73C387.303 129.834 387.463 129.077 387.783 128.458C388.124 127.84 388.572 127.328 389.127 126.922C389.703 126.517 390.353 126.208 391.079 125.994C391.804 125.76 392.551 125.589 393.319 125.482C394.108 125.376 394.887 125.312 395.655 125.29C396.444 125.269 397.169 125.258 397.831 125.258C397.831 124.405 397.521 123.733 396.903 123.242C396.305 122.73 395.591 122.474 394.759 122.474C393.969 122.474 393.244 122.645 392.583 122.986C391.943 123.306 391.367 123.754 390.855 124.33L388.295 121.706C389.191 120.874 390.236 120.256 391.431 119.85C392.625 119.424 393.863 119.21 395.143 119.21C396.551 119.21 397.703 119.392 398.599 119.754C399.516 120.096 400.241 120.608 400.775 121.29C401.329 121.973 401.713 122.816 401.927 123.818C402.14 124.8 402.247 125.941 402.247 127.242V135.146H397.831V133.194ZM396.647 128.33C396.284 128.33 395.825 128.352 395.271 128.394C394.737 128.416 394.215 128.501 393.703 128.65C393.212 128.8 392.785 129.024 392.423 129.322C392.081 129.621 391.911 130.037 391.911 130.57C391.911 131.146 392.156 131.573 392.647 131.85C393.137 132.128 393.649 132.266 394.183 132.266C394.652 132.266 395.1 132.202 395.527 132.074C395.975 131.946 396.369 131.765 396.711 131.53C397.052 131.296 397.319 130.997 397.511 130.634C397.724 130.272 397.831 129.845 397.831 129.354V128.33H396.647ZM415.85 123.434H411.626V128.618C411.626 129.045 411.648 129.44 411.69 129.802C411.733 130.144 411.829 130.442 411.978 130.698C412.128 130.954 412.352 131.157 412.65 131.306C412.97 131.434 413.386 131.498 413.898 131.498C414.154 131.498 414.485 131.477 414.89 131.434C415.317 131.37 415.637 131.242 415.85 131.05V135.05C415.317 135.242 414.762 135.37 414.186 135.434C413.61 135.498 413.045 135.53 412.49 135.53C411.68 135.53 410.933 135.445 410.25 135.274C409.568 135.104 408.97 134.837 408.458 134.474C407.946 134.09 407.541 133.6 407.242 133.002C406.965 132.405 406.826 131.68 406.826 130.826V123.434H403.754V119.594H406.826V114.986H411.626V119.594H415.85V123.434ZM427.09 124.17C426.386 123.296 425.458 122.858 424.306 122.858C423.9 122.858 423.506 122.954 423.122 123.146C422.738 123.338 422.546 123.669 422.546 124.138C422.546 124.522 422.738 124.81 423.122 125.002C423.527 125.173 424.028 125.333 424.626 125.482C425.244 125.61 425.895 125.76 426.578 125.93C427.282 126.08 427.932 126.325 428.53 126.666C429.148 127.008 429.65 127.477 430.034 128.074C430.439 128.65 430.642 129.429 430.642 130.41C430.642 131.413 430.418 132.245 429.97 132.906C429.543 133.546 428.988 134.069 428.306 134.474C427.623 134.858 426.855 135.125 426.002 135.274C425.148 135.445 424.306 135.53 423.474 135.53C422.386 135.53 421.287 135.381 420.178 135.082C419.068 134.762 418.13 134.208 417.362 133.418L420.274 130.186C420.722 130.741 421.212 131.168 421.746 131.466C422.3 131.744 422.94 131.882 423.666 131.882C424.22 131.882 424.722 131.808 425.17 131.658C425.618 131.488 425.842 131.189 425.842 130.762C425.842 130.357 425.639 130.058 425.234 129.866C424.85 129.653 424.348 129.482 423.73 129.354C423.132 129.205 422.482 129.056 421.778 128.906C421.095 128.736 420.444 128.49 419.826 128.17C419.228 127.85 418.727 127.402 418.322 126.826C417.938 126.229 417.746 125.44 417.746 124.458C417.746 123.541 417.927 122.752 418.29 122.09C418.674 121.429 419.164 120.885 419.762 120.458C420.38 120.032 421.084 119.722 421.874 119.53C422.663 119.317 423.463 119.21 424.274 119.21C425.298 119.21 426.332 119.36 427.378 119.658C428.423 119.957 429.308 120.49 430.034 121.258L427.09 124.17ZM440.91 127.658H436.11V112.49H440.91V127.658ZM435.566 132.394C435.566 131.989 435.641 131.605 435.79 131.242C435.939 130.88 436.142 130.57 436.398 130.314C436.675 130.037 436.995 129.824 437.358 129.674C437.721 129.525 438.105 129.45 438.51 129.45C438.915 129.45 439.299 129.525 439.662 129.674C440.025 129.824 440.334 130.037 440.59 130.314C440.867 130.57 441.081 130.88 441.23 131.242C441.379 131.605 441.454 131.989 441.454 132.394C441.454 132.8 441.379 133.184 441.23 133.546C441.081 133.909 440.867 134.229 440.59 134.506C440.334 134.762 440.025 134.965 439.662 135.114C439.299 135.264 438.915 135.338 438.51 135.338C438.105 135.338 437.721 135.264 437.358 135.114C436.995 134.965 436.675 134.762 436.398 134.506C436.142 134.229 435.939 133.909 435.79 133.546C435.641 133.184 435.566 132.8 435.566 132.394Z" fill="url(#paint5_linear_1386_10822)"/>
</g>
<path d="M545.314 341.739L537.635 351.345L544.446 353.404L547.062 351.16C549.069 349.437 550.935 347.236 552.562 344.671L562.118 352.799L550.096 363.471C549.101 361.215 547.763 359.391 546.152 358.094L544.051 356.406L537.257 354.351L542.612 365.519C543.456 366.196 544.189 367.091 544.789 368.174L532.387 379.228L539.321 381.324L538.569 381.589C538.741 384.465 546.184 380.783 545.757 383.763L551.128 383.279L551.711 379.207C552.157 376.088 552.21 373.033 551.868 370.202L560.961 359.286L558.497 378.083C556.391 378.832 557.222 380.389 555.241 382.205L547.706 389.15C550.138 390.72 551.658 391.083 554.527 391.212L557.11 388.843C558.148 387.892 550.992 395.271 552.094 394.75C554.564 396.314 556.027 396.935 558.999 396.838L564.39 396.202L565.729 385.987C566.727 386.261 563.121 386.423 563.939 387.155C566.482 389.154 567.918 389.684 570.5 389.33L574.196 382.036L572.163 380.211C570.603 378.812 568.789 377.956 566.817 377.687L569.281 358.89L575.092 365.596C573.982 368.6 569.625 375.238 569.253 378.351L576.113 380.342L581.523 379.555L581.866 373.48C582.06 371.849 581.387 375.003 581.891 373.397C584.348 375.033 585.795 375.722 588.817 375.491L592.435 368.132L586.678 363.235C587.585 361.975 588.579 360.877 589.63 359.976L592.246 357.734L590.572 350.924C587.325 348.89 585.923 348.529 583.984 348.932C581.978 350.654 582.089 355.453 580.462 358.017L577.678 355.593L572.9 351.529L584.922 340.857C585.917 343.113 582.528 344.562 584.139 345.858C586.45 347.838 587.974 348.191 590.965 347.922L594.505 340.498L592.405 338.809C591.561 338.132 590.827 337.237 590.228 336.154L597.472 329.709L595.7 322.985L588.752 320.884C588.66 319.349 588.438 326.264 588.673 324.628L589.256 320.557L582.445 318.497L580.243 325.779C579.797 328.901 582.805 331.293 583.15 334.126L571.127 344.803L573.592 326.005C575.697 325.256 577.796 323.939 579.777 322.123L582.36 319.753L580.491 313.116C578.081 311.495 576.622 310.944 573.687 311.058C572.649 312.009 575.782 317.184 574.68 317.705L576.019 307.491C573.46 306.113 571.938 305.632 569.039 305.38L567.185 317.704C566.187 317.431 567.368 317.556 566.551 316.824L564.517 314.998C562.145 313.58 560.702 313.069 557.809 312.969L562.855 324.117C564.415 325.516 563.89 326.02 565.862 326.288L563.398 345.086L556.18 337.305C557.29 334.301 558.051 331.159 558.422 328.046L558.905 323.986C556.432 322.359 554.938 321.912 552.088 321.925L549.915 328.278C549.719 329.912 548.906 329.925 548.4 331.533L546.202 328.827L539.415 326.775L548.335 341.084C547.43 342.346 546.363 340.836 545.314 341.739Z" fill="url(#paint6_linear_1386_10822)"/>
<path d="M545.314 341.739L537.635 351.345L544.446 353.404L547.062 351.16C549.069 349.437 550.935 347.236 552.562 344.671L562.118 352.799L550.096 363.471C549.101 361.215 547.763 359.391 546.152 358.094L544.051 356.406L537.257 354.351L542.612 365.519C543.456 366.196 544.189 367.091 544.789 368.174L532.387 379.228L539.321 381.324L538.569 381.589C538.741 384.465 546.184 380.783 545.757 383.763L551.128 383.279L551.711 379.207C552.157 376.088 552.21 373.033 551.868 370.202L560.961 359.286L558.497 378.083C556.391 378.832 557.222 380.389 555.241 382.205L547.706 389.15C550.138 390.72 551.658 391.083 554.527 391.212L557.11 388.843C558.148 387.892 550.992 395.271 552.094 394.75C554.564 396.314 556.027 396.935 558.999 396.838L564.39 396.202L565.729 385.987C566.727 386.261 563.121 386.423 563.939 387.155C566.482 389.154 567.918 389.684 570.5 389.33L574.196 382.036L572.163 380.211C570.603 378.812 568.789 377.956 566.817 377.687L569.281 358.89L575.092 365.596C573.982 368.6 569.625 375.238 569.253 378.351L576.113 380.342L581.523 379.555L581.866 373.48C582.06 371.849 581.387 375.003 581.891 373.397C584.348 375.033 585.795 375.722 588.817 375.491L592.435 368.132L586.678 363.235C587.585 361.975 588.579 360.877 589.63 359.976L592.246 357.734L590.572 350.924C587.325 348.89 585.923 348.529 583.984 348.932C581.978 350.654 582.089 355.453 580.462 358.017L577.678 355.593L572.9 351.529L584.922 340.857C585.917 343.113 582.528 344.562 584.139 345.858C586.45 347.838 587.974 348.191 590.965 347.922L594.505 340.498L592.405 338.809C591.561 338.132 590.827 337.237 590.228 336.154L597.472 329.709L595.7 322.985L588.752 320.884C588.66 319.349 588.438 326.264 588.673 324.628L589.256 320.557L582.445 318.497L580.243 325.779C579.797 328.901 582.805 331.293 583.15 334.126L571.127 344.803L573.592 326.005C575.697 325.256 577.796 323.939 579.777 322.123L582.36 319.753L580.491 313.116C578.081 311.495 576.622 310.944 573.687 311.058C572.649 312.009 575.782 317.184 574.68 317.705L576.019 307.491C573.46 306.113 571.938 305.632 569.039 305.38L567.185 317.704C566.187 317.431 567.368 317.556 566.551 316.824L564.517 314.998C562.145 313.58 560.702 313.069 557.809 312.969L562.855 324.117C564.415 325.516 563.89 326.02 565.862 326.288L563.398 345.086L556.18 337.305C557.29 334.301 558.051 331.159 558.422 328.046L558.905 323.986C556.432 322.359 554.938 321.912 552.088 321.925L549.915 328.278C549.719 329.912 548.906 329.925 548.4 331.533L546.202 328.827L539.415 326.775L548.335 341.084C547.43 342.346 546.363 340.836 545.314 341.739Z" fill="white" fill-opacity="0.6"/>
<path d="M538.584 342.292L535.968 344.537L537.642 351.347L540.258 349.102C542.264 347.38 544.13 345.178 545.758 342.613L555.314 350.742L543.292 361.413C542.297 359.157 540.958 357.333 539.348 356.037L537.247 354.348L533.707 361.773L535.808 363.461C536.651 364.139 537.385 365.033 537.984 366.116L530.743 372.552L532.516 379.267L539.751 372.85C539.843 374.385 539.77 375.998 539.536 377.633L538.953 381.705L544.324 381.222L544.907 377.15C545.353 374.031 545.406 370.975 545.063 368.144L557.086 357.467L554.622 376.265C552.517 377.014 550.418 378.331 548.437 380.147L545.853 382.517L547.723 389.155L550.306 386.785C551.344 385.834 552.432 385.086 553.534 384.565L552.195 394.78L557.586 394.145L558.925 383.93C559.923 384.203 560.845 384.714 561.663 385.447L563.696 387.272L567.392 379.979L565.358 378.153C563.799 376.754 561.985 375.898 560.013 375.63L562.477 356.832L572.034 364.966C570.924 367.97 570.163 371.111 569.791 374.224L569.308 378.284L574.719 377.498L575.202 373.438C575.396 371.806 575.751 370.161 576.254 368.555L582.013 373.434L585.631 366.075L579.874 361.178C580.78 359.917 581.775 358.819 582.826 357.918L585.442 355.676L583.767 348.866L581.151 351.11C579.145 352.833 577.279 355.035 575.652 357.599L566.095 349.471L578.117 338.8C579.113 341.055 580.451 342.88 582.061 344.176L584.161 345.864L587.701 338.44L585.6 336.751C584.757 336.074 584.023 335.179 583.424 334.097L590.668 327.651L588.895 320.927L581.654 327.354C581.562 325.819 581.634 324.207 581.868 322.571L582.452 318.499L577.081 318.983L576.498 323.054C576.052 326.177 576.001 329.235 576.346 332.068L564.323 342.745L566.787 323.948C568.893 323.199 570.992 321.881 572.973 320.065L575.556 317.696L573.687 311.058L571.104 313.428C570.065 314.378 568.978 315.127 567.875 315.648L569.214 305.433L563.824 306.068L562.485 316.283C561.487 316.009 560.564 315.498 559.746 314.766L557.713 312.94L554.018 320.234L556.051 322.06C557.611 323.458 559.425 324.315 561.397 324.583L558.933 343.381L549.376 335.247C550.486 332.243 551.247 329.101 551.618 325.988L552.101 321.928L546.69 322.715L546.208 326.775C546.012 328.409 545.655 330.057 545.149 331.665L539.398 326.77L535.781 334.12L541.531 339.026C540.626 340.288 539.633 341.389 538.584 342.292Z" fill="white"/>
<path d="M174.318 183.82L192.75 187.861L186.616 196.894L181.329 196.743C177.273 196.626 172.921 195.802 168.505 194.314L164.956 213.235L189.597 214.354C188.606 210.703 188.441 207.235 189.11 204.134L189.984 200.092L196.104 191.081L200.5 209.57C200.148 211.192 200.137 212.968 200.468 214.838L225.931 216.046L219.686 225.241L220.839 224.831C223.41 228.427 210.978 231.222 214.365 234.364L207.492 238.973L202.865 234.68C199.322 231.391 196.308 227.799 193.984 224.091L172.599 219.853L193.688 239.892C196.922 238.752 197.434 241.41 201.55 241.663L217.242 242.67C215.857 246.891 214.395 248.791 211.099 251.716L205.73 251.384C203.574 251.252 219.233 253.142 217.415 253.585C215.98 257.836 214.835 259.988 211.196 262.742L204.154 267.19L192.695 256.301C191.768 257.59 196.225 254.302 195.957 255.965C194.855 260.804 193.654 262.823 190.232 264.894L178.782 259.764L179.444 255.623C179.954 252.449 181.29 249.677 183.383 247.453L162.295 227.414L161.84 241.023C166.065 243.534 177.67 247.242 181.118 250.596L174.86 259.594L167.648 263.88L161.374 256.965C159.567 255.207 163.415 258.319 161.264 256.89C159.913 261.214 158.853 263.433 155.026 266.076L143.606 260.793L145.743 249.394C143.445 248.767 141.198 248.417 139.076 248.358L133.791 248.209L129.212 238.471C131.122 232.911 132.443 231.127 135.145 229.735C139.201 229.852 143.701 235.682 148.118 237.17L149.098 231.59L150.872 222.13L126.231 221.011C127.222 224.662 132.662 223.118 131.993 226.219C131.149 230.811 129.671 232.704 125.845 235.272L114.455 229.836L115.33 225.794C115.682 224.171 115.692 222.396 115.362 220.526L100.5 219.834L96.1212 210.104L102.379 200.89C101.006 198.97 107.947 207.003 106.088 205.279L101.461 200.986L107.595 191.953L117.252 198.511C120.798 201.804 119.521 207.561 121.844 211.273L146.491 212.398L125.403 192.359C122.169 193.499 118.394 193.955 114.278 193.702L108.909 193.37L104.729 183.649C106.039 179.39 107.247 177.323 110.856 174.627C113.013 174.758 114.274 183.954 116.091 183.512L104.631 172.623C106.352 168.51 107.704 166.466 110.917 163.367L125.028 176.274C125.955 174.984 124.666 176.274 124.934 174.611L125.596 170.471C127.056 166.489 128.284 164.487 131.638 161.574L136.384 179.741C135.874 182.915 136.986 183.01 134.894 185.234L155.982 205.272L157.077 189.023C152.853 186.512 148.912 183.5 145.463 180.147L140.967 175.771C142.346 171.443 143.696 169.468 147.107 166.73L155.833 172.209C157.644 173.969 158.627 173.199 160.783 174.628L160.791 169.279L166.904 160.278L170.082 185.955C172.38 186.587 172.195 183.756 174.318 183.82Z" fill="url(#paint7_linear_1386_10822)"/>
<path d="M182.88 177.982L188.167 178.132L192.745 187.87L187.458 187.72C183.403 187.603 179.051 186.778 174.634 185.291L171.086 204.212L195.727 205.33C194.736 201.679 194.57 198.212 195.239 195.111L196.114 191.069L207.505 196.505L206.63 200.547C206.278 202.169 206.267 203.944 206.597 205.815L221.448 206.498L225.816 216.218L210.993 215.55C212.366 217.47 214.009 219.323 215.867 221.048L220.494 225.341L213.622 229.95L208.995 225.657C205.452 222.368 202.438 218.775 200.113 215.068L175.466 213.944L196.555 233.982C199.789 232.842 203.564 232.387 207.68 232.64L213.049 232.972L217.229 242.692L211.86 242.361C209.704 242.229 207.684 242.387 205.867 242.83L217.326 253.719L210.284 258.166L198.824 247.277C197.898 248.567 197.291 250.068 197.023 251.73L196.361 255.871L184.912 250.741L185.574 246.6C186.084 243.426 187.42 240.654 189.513 238.429L168.424 218.391L164.88 237.319C169.105 239.829 173.045 242.841 176.494 246.195L180.99 250.571L173.778 254.856L169.282 250.481C167.476 248.723 165.464 247.103 163.313 245.674L161.156 257.052L149.735 251.77L151.873 240.371C149.575 239.744 147.328 239.394 145.206 239.334L139.921 239.186L135.342 229.448L140.629 229.598C144.685 229.716 149.036 230.54 153.453 232.027L157.002 213.106L132.361 211.988C133.352 215.639 133.517 219.106 132.848 222.207L131.975 226.248L120.584 220.812L121.459 216.77C121.811 215.148 121.822 213.373 121.492 211.503L106.63 210.81L102.251 201.08L117.092 201.753C115.719 199.833 114.077 197.98 112.218 196.255L107.591 191.962L114.463 187.354L119.09 191.647C122.636 194.94 125.651 198.538 127.974 202.25L152.621 203.375L131.532 183.336C128.299 184.476 124.524 184.931 120.407 184.678L115.039 184.347L110.859 174.626L116.228 174.958C118.384 175.089 120.403 174.931 122.221 174.488L110.761 163.599L117.803 159.152L129.263 170.041C130.189 168.751 130.796 167.251 131.064 165.588L131.726 161.448L143.175 166.578L142.513 170.718C142.004 173.892 140.667 176.665 138.575 178.889L159.663 198.927L163.207 179.999C158.983 177.489 155.042 174.477 151.593 171.123L147.097 166.747L154.309 162.462L158.805 166.838C160.616 168.597 162.633 170.219 164.789 171.648L166.921 160.256L178.331 165.529L176.212 176.932C178.509 177.564 180.756 177.917 182.88 177.982Z" fill="url(#paint8_linear_1386_10822)"/>
<path d="M182.88 177.982L188.167 178.132L192.745 187.87L187.458 187.72C183.403 187.603 179.051 186.778 174.634 185.291L171.086 204.212L195.727 205.33C194.736 201.679 194.57 198.212 195.239 195.111L196.114 191.069L207.505 196.505L206.63 200.547C206.278 202.169 206.267 203.944 206.597 205.815L221.448 206.498L225.816 216.218L210.993 215.55C212.366 217.47 214.009 219.323 215.867 221.048L220.494 225.341L213.622 229.95L208.995 225.657C205.452 222.368 202.438 218.775 200.113 215.068L175.466 213.944L196.555 233.982C199.789 232.842 203.564 232.387 207.68 232.64L213.049 232.972L217.229 242.692L211.86 242.361C209.704 242.229 207.684 242.387 205.867 242.83L217.326 253.719L210.284 258.166L198.824 247.277C197.898 248.567 197.291 250.068 197.023 251.73L196.361 255.871L184.912 250.741L185.574 246.6C186.084 243.426 187.42 240.654 189.513 238.429L168.424 218.391L164.88 237.319C169.105 239.829 173.045 242.841 176.494 246.195L180.99 250.571L173.778 254.856L169.282 250.481C167.476 248.723 165.464 247.103 163.313 245.674L161.156 257.052L149.735 251.77L151.873 240.371C149.575 239.744 147.328 239.394 145.206 239.334L139.921 239.186L135.342 229.448L140.629 229.598C144.685 229.716 149.036 230.54 153.453 232.027L157.002 213.106L132.361 211.988C133.352 215.639 133.517 219.106 132.848 222.207L131.975 226.248L120.584 220.812L121.459 216.77C121.811 215.148 121.822 213.373 121.492 211.503L106.63 210.81L102.251 201.08L117.092 201.753C115.719 199.833 114.077 197.98 112.218 196.255L107.591 191.962L114.463 187.354L119.09 191.647C122.636 194.94 125.651 198.538 127.974 202.25L152.621 203.375L131.532 183.336C128.299 184.476 124.524 184.931 120.407 184.678L115.039 184.347L110.859 174.626L116.228 174.958C118.384 175.089 120.403 174.931 122.221 174.488L110.761 163.599L117.803 159.152L129.263 170.041C130.189 168.751 130.796 167.251 131.064 165.588L131.726 161.448L143.175 166.578L142.513 170.718C142.004 173.892 140.667 176.665 138.575 178.889L159.663 198.927L163.207 179.999C158.983 177.489 155.042 174.477 151.593 171.123L147.097 166.747L154.309 162.462L158.805 166.838C160.616 168.597 162.633 170.219 164.789 171.648L166.921 160.256L178.331 165.529L176.212 176.932C178.509 177.564 180.756 177.917 182.88 177.982Z" fill="white" fill-opacity="0.8"/>
<path opacity="0.4" d="M213.908 119.646C202.708 121.646 203.241 116.813 204.908 114.146C231.408 111.146 213.908 107.146 253.908 98.6462C293.908 90.1462 289.408 102.146 279.908 102.146C270.408 102.146 270.408 119.646 256.908 114.146C243.408 108.646 227.908 117.146 213.908 119.646Z" fill="#400245"/>
<path d="M213.908 116.646C202.708 118.646 203.241 113.813 204.908 111.146C231.408 108.146 209.5 98.1461 249.5 89.6461C289.5 81.1461 289.408 99.1462 279.908 99.1462C270.408 99.1462 270.408 116.646 256.908 111.146C243.408 105.646 227.908 114.146 213.908 116.646Z" fill="white"/>
<path opacity="0.6" d="M400.5 88.6462C385 85.6462 379.5 90.6462 372.5 91.6462C359.5 97.6462 389.5 91.6462 403.5 98.1462C417.5 104.646 418 107.646 421.5 101.646C425 95.6462 456.5 100.646 464 101.646C471.5 102.646 466.5 97.1462 456.5 95.1462C446.5 93.1462 448.5 83.6462 433.5 79.6462C418.5 75.6462 416 91.6462 400.5 88.6462Z" fill="#620F52"/>
<path d="M491.5 101.646C491.5 105.646 478 103.146 474 101.646C473.167 101.146 469.8 99.9463 463 99.1463C454.5 98.1463 472.5 82.6463 474 89.1463C475.5 95.6463 491.5 97.6463 491.5 101.646Z" fill="#9A2550"/>
<path d="M491.5 99.6462C491.5 103.646 478 101.146 474 99.6462C473.167 99.1462 469.8 97.9462 463 97.1462C454.5 96.1462 472.5 80.6462 474 87.1462C475.5 93.6462 491.5 95.6462 491.5 99.6462Z" fill="white"/>
<path d="M400.5 86.6462C385 83.6462 379.5 88.6462 372.5 89.6462C359.5 95.6462 389.5 89.6462 403.5 96.1462C417.5 102.646 418 105.646 421.5 99.6462C425 93.6462 456.5 98.6462 464 99.6462C471.5 100.646 466.5 95.1462 456.5 93.1462C446.5 91.1462 448.5 81.6462 433.5 77.6462C418.5 73.6462 416 89.6462 400.5 86.6462Z" fill="white"/>
<defs>
<filter id="filter0_f_1386_10822" x="0" y="0" width="727" height="602" filterUnits="userSpaceOnUse" color-interpolation-filters="sRGB">
<feFlood flood-opacity="0" result="BackgroundImageFix"/>
<feBlend mode="normal" in="SourceGraphic" in2="BackgroundImageFix" result="shape"/>
<feGaussianBlur stdDeviation="50" result="effect1_foregroundBlur_1386_10822"/>
</filter>
<filter id="filter1_d_1386_10822" x="291.179" y="111.914" width="153.558" height="37.7135" filterUnits="userSpaceOnUse" color-interpolation-filters="sRGB">
<feFlood flood-opacity="0" result="BackgroundImageFix"/>
<feColorMatrix in="SourceAlpha" type="matrix" values="0 0 0 0 0 0 0 0 0 0 0 0 0 0 0 0 0 0 127 0" result="hardAlpha"/>
<feOffset dy="3.51803"/>
<feGaussianBlur stdDeviation="1.64175"/>
<feComposite in2="hardAlpha" operator="out"/>
<feColorMatrix type="matrix" values="0 0 0 0 0 0 0 0 0 0 0 0 0 0 0 0 0 0 0.25 0"/>
<feBlend mode="normal" in2="BackgroundImageFix" result="effect1_dropShadow_1386_10822"/>
<feBlend mode="normal" in="SourceGraphic" in2="effect1_dropShadow_1386_10822" result="shape"/>
</filter>
<linearGradient id="paint0_linear_1386_10822" x1="182" y1="124.091" x2="592.791" y2="212.701" gradientUnits="userSpaceOnUse">
<stop stop-color="#410060"/>
<stop offset="0.707946" stop-color="#400141"/>
<stop offset="1" stop-color="#0C0344"/>
</linearGradient>
<linearGradient id="paint1_linear_1386_10822" x1="451.642" y1="124.302" x2="593.609" y2="161.544" gradientUnits="userSpaceOnUse">
<stop stop-color="#410060"/>
<stop offset="0.707946" stop-color="#581A47"/>
<stop offset="1" stop-color="#0C0344"/>
</linearGradient>
<linearGradient id="paint2_linear_1386_10822" x1="287.357" y1="124.302" x2="145.389" y2="161.544" gradientUnits="userSpaceOnUse">
<stop stop-color="#410060"/>
<stop offset="0.707946" stop-color="#851B59"/>
<stop offset="1" stop-color="#0C0344"/>
</linearGradient>
<linearGradient id="paint3_linear_1386_10822" x1="204.73" y1="90.1462" x2="497.099" y2="249.922" gradientUnits="userSpaceOnUse">
<stop stop-color="#410060"/>
<stop offset="0.707946" stop-color="#FF4C4C"/>
<stop offset="1" stop-color="#0C0344"/>
</linearGradient>
<linearGradient id="paint4_linear_1386_10822" x1="307.183" y1="113.047" x2="448.058" y2="128.298" gradientUnits="userSpaceOnUse">
<stop stop-color="#EFDDFF"/>
<stop offset="1" stop-color="#BA85E9"/>
</linearGradient>
<linearGradient id="paint5_linear_1386_10822" x1="307.183" y1="113.047" x2="448.058" y2="128.298" gradientUnits="userSpaceOnUse">
<stop stop-color="#FFFCDE"/>
<stop offset="1" stop-color="#FFBA07"/>
</linearGradient>
<linearGradient id="paint6_linear_1386_10822" x1="597.884" y1="320.504" x2="535.156" y2="339.791" gradientUnits="userSpaceOnUse">
<stop stop-color="#E3E3E3"/>
<stop offset="0.21988" stop-color="#99C2FF"/>
<stop offset="0.512048" stop-color="#F48DA5"/>
<stop offset="0.75" stop-color="#A699DC"/>
<stop offset="1" stop-color="#E3E3E3"/>
</linearGradient>
<linearGradient id="paint7_linear_1386_10822" x1="29.5948" y1="234.544" x2="241.251" y2="159.467" gradientUnits="userSpaceOnUse">
<stop stop-color="#E3E3E3"/>
<stop offset="0.21988" stop-color="#99C2FF"/>
<stop offset="0.512048" stop-color="#F48DA5"/>
<stop offset="0.75" stop-color="#A699DC"/>
<stop offset="1" stop-color="#E3E3E3"/>
</linearGradient>
<linearGradient id="paint8_linear_1386_10822" x1="99.8243" y1="202.807" x2="185.581" y2="166.338" gradientUnits="userSpaceOnUse">
<stop stop-color="#E3E3E3"/>
<stop offset="0.21988" stop-color="#99C2FF"/>
<stop offset="0.512048" stop-color="#F48DA5"/>
<stop offset="0.75" stop-color="#A699DC"/>
<stop offset="1" stop-color="#E3E3E3"/>
</linearGradient>
</defs>
</svg>
