<svg width="221" height="200" viewBox="0 0 221 200" fill="none" xmlns="http://www.w3.org/2000/svg">
<path opacity="0.2" d="M100.247 1.06902C144.384 1.06902 181.796 29.8625 194.723 69.6907C197.86 79.3541 199.555 89.6673 199.555 100.377C199.555 133.402 183.435 162.662 158.633 180.717C142.245 192.647 122.069 199.685 100.247 199.685C78.4224 199.685 58.2428 192.645 41.8541 180.712C17.0562 162.656 0.939133 133.399 0.939133 100.377C0.939133 89.6673 2.63432 79.3541 5.77083 69.6907C18.6981 29.8625 56.1104 1.06902 100.247 1.06902Z" stroke="white" stroke-width="0.471772"/>
<g filter="url(#filter0_f_1424_11999)">
<path d="M198.279 104.24C198.279 108.103 117.85 132.249 100.247 132.249C93.2426 132.249 86.7659 129.99 81.506 126.16C73.5475 120.365 68.3746 110.975 68.3746 100.377C68.3746 82.7743 82.6444 68.5045 100.247 68.5045C117.85 68.5045 198.279 100.377 198.279 104.24Z" fill="url(#paint0_radial_1424_11999)"/>
<path d="M80.6533 127.331C86.1526 131.335 92.926 133.698 100.247 133.698C104.84 133.698 113.328 132.146 123.318 129.827C133.367 127.496 145.098 124.349 156.27 121.084C167.441 117.819 178.075 114.43 185.927 111.61C189.847 110.202 193.104 108.925 195.395 107.868C196.534 107.344 197.483 106.851 198.166 106.403C198.503 106.182 198.832 105.936 199.093 105.664C199.302 105.446 199.728 104.95 199.728 104.24C199.728 103.556 199.327 103.059 199.135 102.841C198.889 102.561 198.574 102.293 198.241 102.044C197.569 101.539 196.629 100.961 195.492 100.329C193.207 99.0589 189.954 97.4778 186.033 95.7064C178.183 92.1593 167.55 87.8015 156.377 83.5688C145.204 79.336 133.468 75.2196 123.412 72.159C118.385 70.6289 113.763 69.3581 109.833 68.4686C105.929 67.585 102.616 67.0558 100.247 67.0558C81.8443 67.0558 66.9259 81.9741 66.9259 100.377C66.9259 111.458 72.3363 121.275 80.6533 127.331Z" stroke="white" stroke-width="2.89749"/>
</g>
<path d="M80.6533 127.331C86.1526 131.335 92.926 133.698 100.247 133.698C104.84 133.698 113.328 132.146 123.318 129.827C133.367 127.496 145.098 124.349 156.27 121.084C167.441 117.819 178.075 114.43 185.927 111.61C189.847 110.202 193.104 108.925 195.395 107.868C196.534 107.344 197.483 106.851 198.166 106.403C198.503 106.182 198.832 105.936 199.093 105.664C199.302 105.446 199.728 104.95 199.728 104.24C199.728 103.556 199.327 103.059 199.135 102.841C198.889 102.561 198.574 102.293 198.241 102.044C197.569 101.539 196.629 100.961 195.492 100.329C193.207 99.0589 189.954 97.4778 186.033 95.7064C178.183 92.1593 167.55 87.8015 156.377 83.5688C145.204 79.336 133.468 75.2196 123.412 72.159C118.385 70.6289 113.763 69.3581 109.833 68.4686C105.929 67.585 102.616 67.0558 100.247 67.0558C81.8443 67.0558 66.9259 81.9741 66.9259 100.377C66.9259 111.458 72.3363 121.275 80.6533 127.331Z" fill="url(#paint1_radial_1424_11999)" stroke="white" stroke-width="2.89749"/>
<path opacity="0.2" fill-rule="evenodd" clip-rule="evenodd" d="M173.167 114.395C187.597 109.75 198.279 105.648 198.279 104.24C198.279 102.591 183.616 95.8346 165.441 88.6337C168.821 92.7178 175.099 103.588 173.167 114.395Z" fill="white"/>
<g filter="url(#filter1_d_1424_11999)">
<path d="M156.265 100.377C156.265 119.006 147.172 135.511 133.182 145.696C123.938 152.425 112.556 156.395 100.247 156.395C87.9361 156.395 76.5528 152.424 67.3082 145.693C53.3203 135.508 44.2286 119.004 44.2286 100.377C44.2286 94.3362 45.1848 88.5186 46.9542 83.0674C54.2462 60.601 75.3498 44.3588 100.247 44.3588C125.144 44.3588 146.248 60.601 153.54 83.0674C155.309 88.5186 156.265 94.3362 156.265 100.377Z" fill="url(#paint2_linear_1424_11999)"/>
</g>
<path d="M146.386 85.3911C140.073 65.9409 121.803 51.8784 100.247 51.8784C78.6914 51.8784 60.4213 65.9409 54.1083 85.3911C52.5763 90.1111 51.7485 95.1478 51.7485 100.377C51.7485 116.504 59.6206 130.793 71.7297 139.61C79.7334 145.437 89.5895 148.876 100.247 148.876C110.903 148.876 120.758 145.438 128.761 139.612C140.872 130.795 148.746 116.506 148.746 100.377C148.746 95.1478 147.918 90.1111 146.386 85.3911Z" fill="url(#paint3_linear_1424_11999)" stroke="url(#paint4_linear_1424_11999)" stroke-width="0.965832"/>
<path d="M81.0785 99.0844C80.788 98.7174 80.3904 98.4498 79.8858 98.2816C79.3965 98.0981 78.9301 98.0063 78.4867 98.0063C78.2267 98.0063 77.9591 98.0369 77.6839 98.0981C77.4086 98.1593 77.1487 98.2587 76.904 98.3963C76.6594 98.5186 76.4606 98.6868 76.3077 98.9009C76.1548 99.115 76.0783 99.3749 76.0783 99.6807C76.0783 100.17 76.2618 100.545 76.6288 100.805C76.9958 101.065 77.4545 101.286 78.005 101.47C78.5708 101.653 79.1748 101.837 79.817 102.02C80.4592 102.204 81.0556 102.464 81.606 102.8C82.1718 103.137 82.6382 103.588 83.0052 104.153C83.3722 104.719 83.5557 105.476 83.5557 106.424C83.5557 107.326 83.3875 108.114 83.0511 108.787C82.7147 109.459 82.2559 110.017 81.6749 110.461C81.1091 110.904 80.4439 111.233 79.6794 111.447C78.9301 111.661 78.135 111.768 77.294 111.768C76.2389 111.768 75.2602 111.608 74.3581 111.287C73.4559 110.966 72.6149 110.446 71.835 109.727L74.381 106.929C74.748 107.418 75.2067 107.8 75.7572 108.076C76.323 108.335 76.904 108.465 77.5004 108.465C77.7909 108.465 78.0815 108.435 78.372 108.374C78.6778 108.297 78.9454 108.19 79.1748 108.053C79.4194 107.915 79.6106 107.739 79.7482 107.525C79.9011 107.311 79.9775 107.059 79.9775 106.768C79.9775 106.279 79.7864 105.897 79.4041 105.621C79.0371 105.331 78.5708 105.086 78.005 104.887C77.4392 104.689 76.8276 104.49 76.1701 104.291C75.5125 104.092 74.9009 103.825 74.3351 103.488C73.7694 103.152 73.2953 102.708 72.9131 102.158C72.5461 101.607 72.3626 100.881 72.3626 99.9789C72.3626 99.1073 72.5308 98.3428 72.8672 97.6852C73.2189 97.0277 73.6776 96.4772 74.2434 96.0338C74.8244 95.5904 75.4896 95.2616 76.2389 95.0475C76.9881 94.8182 77.7603 94.7035 78.5555 94.7035C79.4729 94.7035 80.3598 94.8334 81.2161 95.0934C82.0724 95.3533 82.8446 95.7891 83.5327 96.4008L81.0785 99.0844ZM87.3682 95.1163H93.4005C94.2415 95.1163 95.0366 95.1928 95.7859 95.3457C96.5352 95.4986 97.185 95.7662 97.7355 96.1485C98.3013 96.5155 98.7447 97.0201 99.0658 97.6623C99.4022 98.2892 99.5704 99.0844 99.5704 100.048C99.5704 100.996 99.4175 101.791 99.1117 102.433C98.8059 103.075 98.3854 103.588 97.8502 103.97C97.315 104.352 96.6804 104.627 95.9465 104.796C95.2125 104.949 94.4173 105.025 93.561 105.025H90.9463V111.355H87.3682V95.1163ZM90.9463 101.997H93.3317C93.6528 101.997 93.9586 101.967 94.2491 101.906C94.555 101.844 94.8226 101.745 95.0519 101.607C95.2966 101.454 95.4877 101.256 95.6253 101.011C95.7783 100.751 95.8547 100.43 95.8547 100.048C95.8547 99.6348 95.7553 99.3061 95.5565 99.0614C95.373 98.8015 95.1284 98.6027 94.8226 98.4651C94.532 98.3275 94.2033 98.2434 93.8363 98.2128C93.4693 98.1669 93.1176 98.144 92.7812 98.144H90.9463V101.997ZM102.917 95.1163H106.495V111.355H102.917V95.1163ZM110.896 95.1163H115.759L122.663 106.401H122.708V95.1163H126.287V111.355H121.608L114.52 99.7954H114.474V111.355H110.896V95.1163Z" fill="#FFE49E"/>
<path d="M81.0785 97.4459C80.788 97.079 80.3904 96.8114 79.8858 96.6432C79.3965 96.4597 78.9301 96.3679 78.4867 96.3679C78.2267 96.3679 77.9591 96.3985 77.6839 96.4597C77.4086 96.5208 77.1487 96.6202 76.904 96.7578C76.6594 96.8802 76.4606 97.0484 76.3077 97.2624C76.1548 97.4765 76.0783 97.7365 76.0783 98.0423C76.0783 98.5316 76.2618 98.9062 76.6288 99.1662C76.9958 99.4261 77.4545 99.6479 78.005 99.8314C78.5708 100.015 79.1748 100.198 79.817 100.382C80.4592 100.565 81.0556 100.825 81.606 101.162C82.1718 101.498 82.6382 101.949 83.0052 102.515C83.3722 103.081 83.5557 103.838 83.5557 104.786C83.5557 105.688 83.3875 106.475 83.0511 107.148C82.7147 107.821 82.2559 108.379 81.6749 108.823C81.1091 109.266 80.4439 109.595 79.6794 109.809C78.9301 110.023 78.135 110.13 77.294 110.13C76.2389 110.13 75.2602 109.969 74.3581 109.648C73.4559 109.327 72.6149 108.807 71.835 108.089L74.381 105.29C74.748 105.78 75.2067 106.162 75.7572 106.437C76.323 106.697 76.904 106.827 77.5004 106.827C77.7909 106.827 78.0815 106.796 78.372 106.735C78.6778 106.659 78.9454 106.552 79.1748 106.414C79.4194 106.277 79.6106 106.101 79.7482 105.887C79.9011 105.673 79.9775 105.42 79.9775 105.13C79.9775 104.64 79.7864 104.258 79.4041 103.983C79.0371 103.692 78.5708 103.448 78.005 103.249C77.4392 103.05 76.8276 102.851 76.1701 102.653C75.5125 102.454 74.9009 102.186 74.3351 101.85C73.7694 101.513 73.2953 101.07 72.9131 100.519C72.5461 99.969 72.3626 99.2426 72.3626 98.3405C72.3626 97.4689 72.5308 96.7043 72.8672 96.0468C73.2189 95.3893 73.6776 94.8388 74.2434 94.3954C74.8244 93.9519 75.4896 93.6232 76.2389 93.4091C76.9881 93.1797 77.7603 93.065 78.5555 93.065C79.4729 93.065 80.3598 93.195 81.2161 93.455C82.0724 93.7149 82.8446 94.1507 83.5327 94.7624L81.0785 97.4459ZM87.3682 93.4779H93.4005C94.2415 93.4779 95.0366 93.5544 95.7859 93.7073C96.5352 93.8602 97.185 94.1278 97.7355 94.5101C98.3013 94.877 98.7447 95.3816 99.0658 96.0239C99.4022 96.6508 99.5704 97.4459 99.5704 98.4093C99.5704 99.3573 99.4175 100.152 99.1117 100.795C98.8059 101.437 98.3854 101.949 97.8502 102.331C97.315 102.714 96.6804 102.989 95.9465 103.157C95.2125 103.31 94.4173 103.387 93.561 103.387H90.9463V109.717H87.3682V93.4779ZM90.9463 100.359H93.3317C93.6528 100.359 93.9586 100.328 94.2491 100.267C94.555 100.206 94.8226 100.107 95.0519 99.969C95.2966 99.8161 95.4877 99.6173 95.6253 99.3726C95.7783 99.1127 95.8547 98.7916 95.8547 98.4093C95.8547 97.9964 95.7553 97.6677 95.5565 97.423C95.373 97.1631 95.1284 96.9643 94.8226 96.8267C94.532 96.689 94.2033 96.6049 93.8363 96.5744C93.4693 96.5285 93.1176 96.5055 92.7812 96.5055H90.9463V100.359ZM102.917 93.4779H106.495V109.717H102.917V93.4779ZM110.896 93.4779H115.759L122.663 104.763H122.708V93.4779H126.287V109.717H121.608L114.52 98.157H114.474V109.717H110.896V93.4779Z" fill="#7F07C9"/>
<defs>
<filter id="filter0_f_1424_11999" x="46.1605" y="46.2904" width="174.333" height="108.173" filterUnits="userSpaceOnUse" color-interpolation-filters="sRGB">
<feFlood flood-opacity="0" result="BackgroundImageFix"/>
<feBlend mode="normal" in="SourceGraphic" in2="BackgroundImageFix" result="shape"/>
<feGaussianBlur stdDeviation="9.65832" result="effect1_foregroundBlur_1424_11999"/>
</filter>
<filter id="filter1_d_1424_11999" x="40.7248" y="44.3588" width="119.044" height="119.295" filterUnits="userSpaceOnUse" color-interpolation-filters="sRGB">
<feFlood flood-opacity="0" result="BackgroundImageFix"/>
<feColorMatrix in="SourceAlpha" type="matrix" values="0 0 0 0 0 0 0 0 0 0 0 0 0 0 0 0 0 0 127 0" result="hardAlpha"/>
<feOffset dy="3.75412"/>
<feGaussianBlur stdDeviation="1.75192"/>
<feComposite in2="hardAlpha" operator="out"/>
<feColorMatrix type="matrix" values="0 0 0 0 0 0 0 0 0 0 0 0 0 0 0 0 0 0 0.25 0"/>
<feBlend mode="normal" in2="BackgroundImageFix" result="effect1_dropShadow_1424_11999"/>
<feBlend mode="normal" in="SourceGraphic" in2="effect1_dropShadow_1424_11999" result="shape"/>
</filter>
<radialGradient id="paint0_radial_1424_11999" cx="0" cy="0" r="1" gradientUnits="userSpaceOnUse" gradientTransform="translate(133.327 100.377) rotate(90) scale(31.8724 64.9522)">
<stop stop-color="#5398FF"/>
<stop offset="1" stop-color="#27FDF0"/>
</radialGradient>
<radialGradient id="paint1_radial_1424_11999" cx="0" cy="0" r="1" gradientUnits="userSpaceOnUse" gradientTransform="translate(133.327 100.377) rotate(90) scale(31.8724 64.9522)">
<stop stop-color="#7F07C9"/>
<stop offset="1" stop-color="#27FDF0"/>
</radialGradient>
<linearGradient id="paint2_linear_1424_11999" x1="54.6143" y1="69.5693" x2="158.88" y2="72.8154" gradientUnits="userSpaceOnUse">
<stop stop-color="#FFBF18"/>
<stop offset="0.291255" stop-color="#FFBF18"/>
<stop offset="0.358967" stop-color="#FFEBB8"/>
<stop offset="0.739198" stop-color="#FFBF18"/>
<stop offset="1" stop-color="#FFEBB8"/>
</linearGradient>
<linearGradient id="paint3_linear_1424_11999" x1="100.247" y1="52.3613" x2="100.247" y2="148.393" gradientUnits="userSpaceOnUse">
<stop stop-color="#FBA600"/>
<stop offset="1" stop-color="#FFDB7F"/>
</linearGradient>
<linearGradient id="paint4_linear_1424_11999" x1="100.247" y1="52.3613" x2="100.247" y2="148.393" gradientUnits="userSpaceOnUse">
<stop stop-color="#FFE9AC"/>
<stop offset="1" stop-color="white" stop-opacity="0"/>
</linearGradient>
</defs>
</svg>
