<svg width="130" height="235" viewBox="0 0 130 235" fill="none" xmlns="http://www.w3.org/2000/svg">
<g opacity="0.4">
<mask id="mask0_1427_11485" style="mask-type:alpha" maskUnits="userSpaceOnUse" x="10" y="56" width="110" height="251">
<rect x="10.6741" y="56.8998" width="108.738" height="249.328" fill="url(#paint0_radial_1427_11485)"/>
</mask>
<g mask="url(#mask0_1427_11485)">
<rect opacity="0.5" x="10.6741" y="60.1517" width="52.404" height="246.076" fill="url(#paint1_linear_1427_11485)"/>
<rect opacity="0.5" width="52.404" height="246.076" transform="matrix(-1 0 0 1 119.412 60.1517)" fill="url(#paint2_linear_1427_11485)"/>
</g>
</g>
<path d="M32.5973 82.4838C19.0486 74.2721 12.2743 70.1662 10.9857 65.2352C10.5695 63.6427 10.5695 62.0204 10.9857 60.4279C12.2743 55.497 19.0486 51.3911 32.5973 43.1794C46.1459 34.9676 52.9203 30.8618 61.056 30.0808C63.6835 29.8285 66.3601 29.8285 68.9876 30.0808C77.1233 30.8618 83.8977 34.9676 97.4463 43.1794C110.995 51.3911 117.769 55.497 119.058 60.4279C119.474 62.0204 119.474 63.6427 119.058 65.2352C117.769 70.1662 110.995 74.2721 97.4463 82.4838C83.8977 90.6955 77.1233 94.8014 68.9876 95.5824C66.3601 95.8346 63.6835 95.8346 61.056 95.5824C52.9203 94.8014 46.1459 90.6955 32.5973 82.4838Z" fill="url(#paint3_linear_1427_11485)"/>
<path d="M32.5973 82.4838C19.0486 74.2721 12.2743 70.1662 10.9857 65.2352C10.5695 63.6427 10.5695 62.0204 10.9857 60.4279C12.2743 55.497 19.0486 51.3911 32.5973 43.1794C46.1459 34.9676 52.9203 30.8618 61.056 30.0808C63.6835 29.8285 66.3601 29.8285 68.9876 30.0808C77.1233 30.8618 83.8977 34.9676 97.4463 43.1794C110.995 51.3911 117.769 55.497 119.058 60.4279C119.474 62.0204 119.474 63.6427 119.058 65.2352C117.769 70.1662 110.995 74.2721 97.4463 82.4838C83.8977 90.6955 77.1233 94.8014 68.9876 95.5824C66.3601 95.8346 63.6835 95.8346 61.056 95.5824C52.9203 94.8014 46.1459 90.6955 32.5973 82.4838Z" fill="white" fill-opacity="0.6"/>
<path d="M10.6736 57.4037H119.412V62.6441H10.6736V57.4037Z" fill="url(#paint4_linear_1427_11485)"/>
<path d="M10.6736 57.4037H119.412V62.6441H10.6736V57.4037Z" fill="white" fill-opacity="0.6"/>
<rect width="75.8303" height="75.8303" rx="20.9616" transform="matrix(0.855186 -0.518321 0.855186 0.518321 0.192017 56.752)" fill="white"/>
<g opacity="0.45" filter="url(#filter0_f_1427_11485)">
<ellipse cx="64.2867" cy="54.8717" rx="22.7987" ry="14.1954" fill="#554A86"/>
</g>
<g opacity="0.2" filter="url(#filter1_f_1427_11485)">
<ellipse cx="64.2866" cy="58.3129" rx="31.4019" ry="19.3574" fill="#554A86"/>
</g>
<circle cx="65.4217" cy="31.1618" r="29.5436" transform="rotate(14.8256 65.4217 31.1618)" fill="url(#paint5_linear_1427_11485)"/>
<path fill-rule="evenodd" clip-rule="evenodd" d="M63.885 38.7927C80.1792 43.1055 91.3252 42.7262 95.5513 38.4294C99.6998 22.7564 89.8538 6.55464 73.5596 2.24177C57.2655 -2.07111 40.6935 7.1381 36.545 22.8111C37.105 23.8645 38.2425 26.2012 38.2425 26.2012C38.2425 26.2012 38.9576 26.4076 39.2075 26.6952C40.0911 24.5188 43.1943 20.696 48.5379 22.8164C53.8815 24.9368 54.7128 32.4251 54.4605 35.9042C57.2135 36.8974 60.3366 37.8534 63.885 38.7927Z" fill="#260900"/>
<path fill-rule="evenodd" clip-rule="evenodd" d="M63.8908 38.5787C80.1849 42.8915 91.3309 42.5123 95.557 38.2154C99.7055 22.5424 89.8595 6.34065 73.5654 2.02778C57.2713 -2.2851 40.6993 6.92411 36.5508 22.5971C37.2846 23.9775 38.1584 25.2672 39.2132 26.4812C40.0969 24.3048 43.2 20.482 48.5436 22.6024C53.8872 24.7228 54.7185 32.2111 54.4662 35.6902C57.2193 36.6834 60.3423 37.6394 63.8908 38.5787Z" fill="url(#paint6_radial_1427_11485)"/>
<g opacity="0.3">
<path fill-rule="evenodd" clip-rule="evenodd" d="M47.308 6.86838C68.8012 33.5969 87.5684 26.6687 94.2654 19.8635C90.7469 11.4372 83.309 4.60682 73.5654 2.02778C64.0692 -0.485744 54.4787 1.59351 47.308 6.86838Z" fill="url(#paint7_radial_1427_11485)"/>
<path fill-rule="evenodd" clip-rule="evenodd" d="M47.308 6.86838C68.8012 33.5969 87.5684 26.6687 94.2654 19.8635C90.7469 11.4372 83.309 4.60682 73.5654 2.02778C64.0692 -0.485744 54.4787 1.59351 47.308 6.86838Z" fill="white" fill-opacity="0.6"/>
</g>
<path fill-rule="evenodd" clip-rule="evenodd" d="M57.966 59.901C78.2695 65.2751 90.1628 50.1576 93.5715 41.9271C91.5692 43.8843 86.8138 48.3619 62.709 41.9816C59.2688 41.0711 56.2686 40.1428 53.6541 39.2124C52.4745 42.1533 48.4776 46.8875 41.9264 42.2973C39.3885 40.5191 36.8853 32.5475 38.4593 30.5414C35.6807 27.3205 36.459 24.9353 36.9325 24.4884C36.4226 24.3535 35.8667 25.8376 35.6524 26.5966C34.6304 35.4588 37.6624 54.5268 57.966 59.901Z" fill="url(#paint8_linear_1427_11485)"/>
<path fill-rule="evenodd" clip-rule="evenodd" d="M57.8236 60.4398C78.1272 65.8139 90.0205 50.6964 93.4292 42.4659C91.4269 44.4231 86.6715 48.9007 62.5667 42.5205C59.1265 41.6099 56.1263 40.6816 53.5117 39.7512C52.3322 42.6921 48.3352 47.4263 41.784 42.8361C39.2461 41.0579 36.743 33.0863 38.3169 31.0802C35.5384 27.8594 36.3167 25.4742 36.7901 25.0272C36.2803 24.8923 35.7243 26.3765 35.5101 27.1354C34.4881 35.9976 37.5201 55.0656 57.8236 60.4398Z" fill="url(#paint9_radial_1427_11485)"/>
<ellipse cx="45.7998" cy="33.2626" rx="3.56767" ry="4.70366" transform="rotate(-2.12353 45.7998 33.2626)" fill="#551A64"/>
<ellipse cx="45.53" cy="33.1913" rx="3.56767" ry="4.70366" transform="rotate(-2.12353 45.53 33.1913)" fill="#646464"/>
<ellipse cx="45.0401" cy="33.2223" rx="3.56767" ry="4.70366" transform="rotate(-2.12353 45.0401 33.2223)" fill="#E0E0E0"/>
<defs>
<filter id="filter0_f_1427_11485" x="33.7451" y="32.9333" width="61.0832" height="43.8766" filterUnits="userSpaceOnUse" color-interpolation-filters="sRGB">
<feFlood flood-opacity="0" result="BackgroundImageFix"/>
<feBlend mode="normal" in="SourceGraphic" in2="BackgroundImageFix" result="shape"/>
<feGaussianBlur stdDeviation="3.87147" result="effect1_foregroundBlur_1427_11485"/>
</filter>
<filter id="filter1_f_1427_11485" x="25.1417" y="31.2126" width="78.2897" height="54.2006" filterUnits="userSpaceOnUse" color-interpolation-filters="sRGB">
<feFlood flood-opacity="0" result="BackgroundImageFix"/>
<feBlend mode="normal" in="SourceGraphic" in2="BackgroundImageFix" result="shape"/>
<feGaussianBlur stdDeviation="3.87147" result="effect1_foregroundBlur_1427_11485"/>
</filter>
<radialGradient id="paint0_radial_1427_11485" cx="0" cy="0" r="1" gradientUnits="userSpaceOnUse" gradientTransform="translate(65.6983 56.8998) rotate(90.1505) scale(249.329 261.38)">
<stop stop-opacity="0"/>
<stop offset="0.221563"/>
<stop offset="1" stop-opacity="0"/>
</radialGradient>
<linearGradient id="paint1_linear_1427_11485" x1="63.0781" y1="128.988" x2="10.6741" y2="128.988" gradientUnits="userSpaceOnUse">
<stop stop-color="white" stop-opacity="0"/>
<stop offset="1" stop-color="white"/>
</linearGradient>
<linearGradient id="paint2_linear_1427_11485" x1="52.404" y1="68.8361" x2="-3.30495e-06" y2="68.8361" gradientUnits="userSpaceOnUse">
<stop stop-color="white" stop-opacity="0"/>
<stop offset="1" stop-color="white"/>
</linearGradient>
<linearGradient id="paint3_linear_1427_11485" x1="10.6736" y1="62.6441" x2="119.412" y2="62.6441" gradientUnits="userSpaceOnUse">
<stop stop-color="#E3E3E3"/>
<stop offset="0.21988" stop-color="#99C2FF"/>
<stop offset="0.512048" stop-color="#F48DA5"/>
<stop offset="0.75" stop-color="#A699DC"/>
<stop offset="1" stop-color="#E3E3E3"/>
</linearGradient>
<linearGradient id="paint4_linear_1427_11485" x1="10.6736" y1="62.6441" x2="119.412" y2="62.6441" gradientUnits="userSpaceOnUse">
<stop stop-color="#E3E3E3"/>
<stop offset="0.21988" stop-color="#99C2FF"/>
<stop offset="0.512048" stop-color="#F48DA5"/>
<stop offset="0.75" stop-color="#A699DC"/>
<stop offset="1" stop-color="#E3E3E3"/>
</linearGradient>
<linearGradient id="paint5_linear_1427_11485" x1="28.7471" y1="33.3929" x2="99.6724" y2="35.6741" gradientUnits="userSpaceOnUse">
<stop stop-color="#040404"/>
<stop offset="0.23396" stop-color="#353535"/>
<stop offset="1" stop-color="#1A1A1A"/>
</linearGradient>
<radialGradient id="paint6_radial_1427_11485" cx="0" cy="0" r="1" gradientUnits="userSpaceOnUse" gradientTransform="translate(68.4756 10.0939) rotate(97.5946) scale(18.4802 21.3281)">
<stop stop-color="#FF88AC"/>
<stop offset="1" stop-color="#FF3B75"/>
</radialGradient>
<radialGradient id="paint7_radial_1427_11485" cx="0" cy="0" r="1" gradientUnits="userSpaceOnUse" gradientTransform="translate(68.4756 10.0939) rotate(97.5946) scale(18.4802 21.3281)">
<stop stop-color="#FFA488"/>
<stop offset="1" stop-color="#FF693B"/>
</radialGradient>
<linearGradient id="paint8_linear_1427_11485" x1="34.8721" y1="25.6704" x2="64.2488" y2="52.4746" gradientUnits="userSpaceOnUse">
<stop stop-color="#43115A"/>
<stop offset="1" stop-color="#43115A" stop-opacity="0"/>
</linearGradient>
<radialGradient id="paint9_radial_1427_11485" cx="0" cy="0" r="1" gradientUnits="userSpaceOnUse" gradientTransform="translate(60.5876 38.5093) rotate(81.6671) scale(23.5308 34.5746)">
<stop offset="0.287815" stop-color="#EDEDED"/>
<stop offset="1" stop-color="#CACACA"/>
</radialGradient>
</defs>
</svg>
