<svg width="210" height="192" viewBox="0 0 210 192" fill="none" xmlns="http://www.w3.org/2000/svg">
<path d="M118.772 67.2057L137.203 71.247L131.069 80.2793L125.782 80.1287C121.726 80.0115 117.375 79.1874 112.958 77.7L109.41 96.6208L134.051 97.7393C133.06 94.0885 132.894 90.6207 133.563 87.5197L134.438 83.4778L140.558 74.4668L144.954 92.9558C144.602 94.5781 144.591 96.3534 144.921 98.2236L170.384 99.4316L164.14 108.627L165.292 108.217C167.863 111.812 155.432 114.608 158.818 117.75L151.946 122.359L147.319 118.066C143.775 114.777 140.762 111.184 138.437 107.477L117.053 103.239L138.141 123.277C141.375 122.138 141.888 124.796 146.004 125.049L161.696 126.055C160.311 130.277 158.848 132.177 155.553 135.101L150.184 134.77C148.028 134.638 163.686 136.528 161.869 136.971C160.433 141.221 159.289 143.374 155.65 146.128L148.608 150.575L137.148 139.686C136.222 140.976 140.679 137.688 140.411 139.35C139.308 144.19 138.107 146.208 134.685 148.28L123.236 143.149L123.898 139.009C124.408 135.835 125.744 133.062 127.837 130.838L106.748 110.8L106.294 124.409C110.518 126.919 122.123 130.628 125.572 133.982L119.314 142.98L112.102 147.265L105.827 140.35C104.021 138.593 107.869 141.705 105.718 140.276C104.367 144.6 103.307 146.819 99.48 149.461L88.0593 144.179L90.197 132.78C87.8989 132.152 85.652 131.803 83.5298 131.743L78.2448 131.595L73.666 121.857C75.5753 116.297 76.8969 114.513 79.5991 113.12C83.6549 113.238 88.1552 119.068 92.5718 120.555L93.5512 114.976L95.3255 105.515L70.6848 104.397C71.6757 108.048 77.1158 106.503 76.4468 109.604C75.6023 114.197 74.1248 116.09 70.2989 118.657L58.9084 113.221L59.7832 109.179C60.1353 107.557 60.1462 105.782 59.8156 103.912L44.9535 103.219L40.575 93.4894L46.8323 84.2754C45.4594 82.3553 52.4005 90.389 50.5418 88.6643L45.9147 84.3715L52.049 75.3387L61.7055 81.8966C65.2518 85.1902 63.9746 90.947 66.2979 94.6591L90.9449 95.7835L69.8565 75.7451C66.6225 76.8848 62.8476 77.3403 58.7314 77.0875L53.3628 76.7556L49.1829 67.0347C50.4925 62.7759 51.7005 60.7088 55.3102 58.0122C57.4664 58.1439 58.7274 67.3401 60.5448 66.8972L49.0852 56.0082C50.8061 51.8956 52.1574 49.852 55.3712 46.7522L69.4821 59.6593C70.4083 58.3695 69.1201 59.6595 69.388 57.9969L70.05 53.8566C71.5095 49.8751 72.7381 47.8725 76.092 44.9597L80.8373 63.127C80.3277 66.3012 81.4401 66.3954 79.3475 68.6196L100.436 88.6579L101.531 72.4085C97.3067 69.8977 93.3659 66.8859 89.9171 63.5322L85.4212 59.1565C86.8001 54.8289 88.1497 52.8536 91.5608 50.116L100.287 55.5944C102.098 57.3543 103.08 56.5848 105.237 58.0138L105.245 52.665L111.358 43.6641L114.536 69.3411C116.833 69.9726 116.648 67.1412 118.772 67.2057Z" fill="url(#paint0_linear_1427_11482)"/>
<path d="M127.333 61.3675L132.62 61.518L137.199 71.2559L131.912 71.1054C127.856 70.9882 123.505 70.1641 119.088 68.6767L115.54 87.5975L140.18 88.716C139.189 85.0652 139.024 81.5974 139.693 78.4964L140.568 74.4545L151.958 79.8906L151.084 83.9325C150.731 85.5548 150.721 87.3301 151.051 89.2003L165.901 89.8837L170.269 99.6037L155.446 98.936C156.819 100.856 158.462 102.709 160.321 104.434L164.948 108.726L158.076 113.335L153.449 109.042C149.905 105.754 146.892 102.161 144.567 98.4537L119.92 97.3293L141.009 117.368C144.243 116.228 148.018 115.773 152.134 116.025L157.502 116.357L161.682 126.078L156.314 125.746C154.157 125.615 152.138 125.773 150.32 126.216L161.78 137.105L154.738 141.552L143.278 130.663C142.352 131.953 141.745 133.453 141.477 135.116L140.815 139.256L129.366 134.126L130.028 129.986C130.537 126.812 131.874 124.039 133.967 121.815L112.878 101.777L109.334 120.704C113.558 123.215 117.499 126.227 120.948 129.581L125.444 133.956L118.232 138.242L113.736 133.866C111.93 132.109 109.918 130.489 107.767 129.06L105.61 140.438L94.1891 135.155L96.3268 123.757C94.0286 123.129 91.7818 122.78 89.6596 122.72L84.3746 122.571L79.7958 112.834L85.0828 112.984C89.1386 113.101 93.4901 113.925 97.9067 115.413L101.455 96.492L76.8146 95.3735C77.8055 99.0244 77.9709 102.492 77.3019 105.593L76.4286 109.634L65.0382 104.198L65.913 100.156C66.265 98.5337 66.2759 96.7584 65.9454 94.8882L51.0833 94.196L46.7047 84.4661L61.5461 85.1386C60.1731 83.2185 58.5303 81.3657 56.6716 79.641L52.0445 75.3482L58.9166 70.7393L63.5437 75.0322C67.0899 78.3257 70.1044 81.9237 72.4277 85.6358L97.0747 86.7602L75.9862 66.7218C72.7522 67.8615 68.9773 68.317 64.8611 68.0642L59.4925 67.7323L55.3126 58.0114L60.6812 58.3433C62.8374 58.4749 64.8571 58.3168 66.6746 57.8739L55.215 46.9849L62.2571 42.5376L73.7168 53.4266C74.6429 52.1368 75.2498 50.6362 75.5177 48.9736L76.1798 44.8333L87.6291 49.9633L86.9671 54.1037C86.4574 57.2778 85.1209 60.0503 83.0284 62.2745L104.117 82.3129L107.661 63.3852C103.436 60.8744 99.4957 57.8626 96.0468 54.5089L91.551 50.1331L98.7632 45.8474L103.259 50.2232C105.07 51.9831 107.087 53.6043 109.243 55.0333L111.375 43.6417L122.785 48.9145L120.666 60.3178C122.963 60.9493 125.21 61.303 127.333 61.3675V61.3675Z" fill="url(#paint1_linear_1427_11482)"/>
<path d="M127.333 61.3675L132.62 61.518L137.199 71.2559L131.912 71.1054C127.856 70.9882 123.505 70.1641 119.088 68.6767L115.54 87.5975L140.18 88.716C139.189 85.0652 139.024 81.5974 139.693 78.4964L140.568 74.4545L151.958 79.8906L151.084 83.9325C150.731 85.5548 150.721 87.3301 151.051 89.2003L165.901 89.8837L170.269 99.6037L155.446 98.936C156.819 100.856 158.462 102.709 160.321 104.434L164.948 108.726L158.076 113.335L153.449 109.042C149.905 105.754 146.892 102.161 144.567 98.4537L119.92 97.3293L141.009 117.368C144.243 116.228 148.018 115.773 152.134 116.025L157.502 116.357L161.682 126.078L156.314 125.746C154.157 125.615 152.138 125.773 150.32 126.216L161.78 137.105L154.738 141.552L143.278 130.663C142.352 131.953 141.745 133.453 141.477 135.116L140.815 139.256L129.366 134.126L130.028 129.986C130.537 126.812 131.874 124.039 133.967 121.815L112.878 101.777L109.334 120.704C113.558 123.215 117.499 126.227 120.948 129.581L125.444 133.956L118.232 138.242L113.736 133.866C111.93 132.109 109.918 130.489 107.767 129.06L105.61 140.438L94.1891 135.155L96.3268 123.757C94.0286 123.129 91.7818 122.78 89.6596 122.72L84.3746 122.571L79.7958 112.834L85.0828 112.984C89.1386 113.101 93.4901 113.925 97.9067 115.413L101.455 96.492L76.8146 95.3735C77.8055 99.0244 77.9709 102.492 77.3019 105.593L76.4286 109.634L65.0382 104.198L65.913 100.156C66.265 98.5337 66.2759 96.7584 65.9454 94.8882L51.0833 94.196L46.7047 84.4661L61.5461 85.1386C60.1731 83.2185 58.5303 81.3657 56.6716 79.641L52.0445 75.3482L58.9166 70.7393L63.5437 75.0322C67.0899 78.3257 70.1044 81.9237 72.4277 85.6358L97.0747 86.7602L75.9862 66.7218C72.7522 67.8615 68.9773 68.317 64.8611 68.0642L59.4925 67.7323L55.3126 58.0114L60.6812 58.3433C62.8374 58.4749 64.8571 58.3168 66.6746 57.8739L55.215 46.9849L62.2571 42.5376L73.7168 53.4266C74.6429 52.1368 75.2498 50.6362 75.5177 48.9736L76.1798 44.8333L87.6291 49.9633L86.9671 54.1037C86.4574 57.2778 85.1209 60.0503 83.0284 62.2745L104.117 82.3129L107.661 63.3852C103.436 60.8744 99.4957 57.8626 96.0468 54.5089L91.551 50.1331L98.7632 45.8474L103.259 50.2232C105.07 51.9831 107.087 53.6043 109.243 55.0333L111.375 43.6417L122.785 48.9145L120.666 60.3178C122.963 60.9493 125.21 61.303 127.333 61.3675V61.3675Z" fill="white" fill-opacity="0.8"/>
<defs>
<linearGradient id="paint0_linear_1427_11482" x1="-25.9515" y1="117.93" x2="185.705" y2="42.8523" gradientUnits="userSpaceOnUse">
<stop stop-color="#E3E3E3"/>
<stop offset="0.21988" stop-color="#99C2FF"/>
<stop offset="0.512048" stop-color="#F48DA5"/>
<stop offset="0.75" stop-color="#A699DC"/>
<stop offset="1" stop-color="#E3E3E3"/>
</linearGradient>
<linearGradient id="paint1_linear_1427_11482" x1="44.2781" y1="86.1924" x2="130.035" y2="49.7237" gradientUnits="userSpaceOnUse">
<stop stop-color="#E3E3E3"/>
<stop offset="0.21988" stop-color="#99C2FF"/>
<stop offset="0.512048" stop-color="#F48DA5"/>
<stop offset="0.75" stop-color="#A699DC"/>
<stop offset="1" stop-color="#E3E3E3"/>
</linearGradient>
</defs>
</svg>
