<svg width="244" height="358" viewBox="0 0 244 358" fill="none" xmlns="http://www.w3.org/2000/svg">
<path d="M144.852 289.361L109.633 295.041L109.633 331.396L144.852 325.716L144.852 289.361Z" fill="#180F52"/>
<path d="M82.3658 289.361L109.632 295.042L109.632 331.396L82.3658 325.716L82.3658 289.361Z" fill="#0A0144"/>
<path d="M163.037 329.229L127.818 334.91L108.566 331.329L144.79 325.84L163.037 329.229Z" fill="#211481"/>
<path d="M163.037 329.23L127.648 334.91L127.648 351.296L163.037 345.615L163.037 329.23Z" fill="#180F52"/>
<path d="M81.7448 325.855L127.73 334.892L127.73 351.278L81.7448 342.24L81.7448 325.855Z" fill="#0A0144"/>
<path d="M103.953 296.177L68.7344 301.857L68.7344 338.212L103.953 332.532L103.953 296.177Z" fill="#180F52"/>
<path d="M122.729 335.858L87.5105 341.538L68.7354 338.212L103.954 332.531L122.729 335.858Z" fill="#211481"/>
<path d="M122.729 335.858L87.3403 341.539L87.3403 357.924L122.729 352.244L122.729 335.858Z" fill="#180F52"/>
<path d="M41.4374 332.484L87.4229 341.521L87.4229 357.907L41.4374 348.87L41.4374 332.484Z" fill="#2D2D2D"/>
<path d="M41.47 296.177L68.7362 301.857L68.7362 338.212L41.47 332.532L41.47 296.177Z" fill="#2D2D2D"/>
<path d="M144.852 261.716L109.633 267.396L109.633 303.751L144.852 298.071L144.852 261.716Z" fill="#E9E9E9"/>
<path d="M82.3658 261.715L109.632 267.396L109.632 303.751L82.3658 298.07L82.3658 261.715Z" fill="#D9D9D9"/>
<path d="M103.954 268.532L68.7354 274.213L68.7354 310.568L103.954 304.887L103.954 268.532Z" fill="#E9E9E9"/>
<path d="M41.469 268.533L68.7352 274.213L68.7352 310.568L41.469 304.888L41.469 268.533Z" fill="#D9D9D9"/>
<g opacity="0.32" filter="url(#filter0_f_1427_11371)">
<path d="M48.2013 253.58L48.2013 280.059L86.7438 289.768L173.833 275.646L173.833 235.338C176.873 236.711 187.837 238.633 207.373 235.338C195.605 239.457 198.253 259.17 211.198 260.052C224.144 260.935 232.971 242.988 219.142 235.338C234.206 220.745 225.419 211.408 219.142 208.564C224.34 204.641 235.324 186.674 237.678 146.19C240.032 105.705 221.006 85.7769 211.198 80.8733C212.375 91.0729 214.67 118.651 214.435 147.367C214.199 176.082 207.864 192.284 204.726 196.795C204.137 196.795 203.313 199.149 204.726 208.564C191.78 208.564 186.484 204.739 182.953 196.795C179.423 188.851 180.6 170.61 182.953 162.372C190.25 162.136 188.347 156.978 186.484 154.428L173.833 154.428L173.833 144.424C173.833 145.013 174.833 146.425 178.834 147.367C187.072 140.07 183.444 133.931 180.6 131.773C183.444 128.537 187.426 121.064 180.6 117.062C190.721 118.71 197.959 102.253 200.312 93.8189C197.566 92.642 189.779 86.5812 180.6 71.7525C169.125 53.2168 171.479 3.78805 120.285 6.43602C69.0908 9.08399 59.97 27.0313 55.2625 40.5654C50.555 54.0994 45.5533 74.4005 19.3678 87.9346C18.6617 98.5264 31.6269 110.393 38.1978 115.003C36.1383 117.258 33.2549 123.77 38.1978 131.773C35.1379 143.542 39.4728 146.288 42.0227 146.19L49.6723 146.19L49.6723 156.487L32.0192 156.487C30.8423 158.841 30.4304 163.725 38.1978 164.431C34.4318 225.864 43.2976 249.461 48.2013 253.58Z" fill="#90254E"/>
</g>
<path d="M29.8502 253.58L29.8502 280.059L68.3928 289.768L155.482 275.646L155.482 235.338C158.522 236.711 169.486 238.633 189.022 235.338C177.254 239.457 179.902 259.17 192.847 260.052C205.793 260.935 214.619 242.988 200.791 235.338C215.855 220.745 207.068 211.408 200.791 208.564C205.989 204.641 216.973 186.674 219.327 146.19C221.681 105.705 202.655 85.7769 192.847 80.8733C194.024 91.0729 196.319 118.651 196.084 147.367C195.848 176.082 189.513 192.284 186.375 196.795C185.786 196.795 184.962 199.149 186.375 208.564C173.429 208.564 168.133 204.739 164.602 196.795C161.072 188.851 162.249 170.61 164.602 162.372C171.899 162.136 169.996 156.978 168.133 154.428L155.482 154.428L155.482 144.424C155.482 145.013 156.482 146.425 160.483 147.367C168.721 140.07 165.093 133.931 162.249 131.773C165.093 128.537 169.074 121.064 162.249 117.062C172.37 118.71 179.607 102.253 181.961 93.8189C179.215 92.642 171.428 86.5812 162.249 71.7525C150.774 53.2168 153.128 3.78805 101.934 6.43602C50.7397 9.08399 41.6189 27.0313 36.9114 40.5654C32.2039 54.0994 27.2022 74.4005 1.01673 87.9346C0.310616 98.5264 13.2759 110.393 19.8467 115.003C17.7872 117.258 14.9039 123.77 19.8467 131.773C16.7869 143.542 21.1217 146.288 23.6716 146.19L31.3213 146.19L31.3213 156.487L13.6681 156.487C12.4913 158.841 12.0794 163.725 19.8467 164.431C16.0807 225.864 24.9465 249.461 29.8502 253.58Z" fill="url(#paint0_linear_1427_11371)"/>
<path fill-rule="evenodd" clip-rule="evenodd" d="M101.934 6.43602C93.7621 8.69168 76.0067 17.9694 70.3577 37.0347C63.2965 60.8664 52.7046 80.8733 31.3213 85.875C31.3213 93.2305 44.4665 109.118 56.5295 115.003C49.2599 116.765 52.7628 125.709 55.8949 130.788C56.1517 131.044 56.369 131.406 56.5295 131.773C56.3221 131.465 56.1093 131.136 55.8949 130.788C55.0531 129.949 53.7867 130.254 52.7046 135.304C50.9393 143.542 56.5295 150.603 66.2387 144.424C62.4727 166.314 66.1056 250.441 68.3928 289.768L29.8502 280.059L29.8502 253.58C24.9465 249.461 16.0807 225.864 19.8467 164.431C12.0794 163.725 12.4913 158.841 13.6681 156.488L31.3213 156.488L31.3213 146.19L23.6716 146.19C21.1217 146.288 16.7869 143.542 19.8467 131.773C14.9039 123.77 17.7872 117.258 19.8467 115.003C13.2758 110.393 0.310602 98.5264 1.01673 87.9346C25.162 75.455 31.2959 57.2218 35.7958 43.8456C36.1761 42.7154 36.5446 41.6199 36.9114 40.5654C41.6189 27.0313 50.7397 9.08399 101.934 6.43602ZM152.739 200.62C151.797 190.264 154.175 165.51 155.482 154.428L168.133 154.428C169.996 156.978 171.899 162.136 164.602 162.372C162.249 170.61 161.072 188.852 164.602 196.795C168.133 204.739 173.429 208.564 186.375 208.564C184.962 199.149 185.786 196.795 186.375 196.795C189.513 192.284 195.848 176.082 196.084 147.367C196.319 118.651 194.024 91.0729 192.847 80.8733C202.655 85.7769 221.681 105.705 219.327 146.19C216.973 186.674 205.989 204.641 200.791 208.564C203.894 209.97 207.609 212.962 208.755 217.391L181.961 214.154C172.613 213.958 153.68 210.977 152.739 200.62Z" fill="url(#paint1_linear_1427_11371)"/>
<path d="M169.67 154.23L152.839 154.23L152.839 175.453C154.302 175.575 158.474 175.745 163.45 175.453C163.45 173.257 164.548 166.671 165.645 163.378C172.671 162.792 171.256 157.035 169.67 154.23Z" fill="#FFDA55"/>
<path fill-rule="evenodd" clip-rule="evenodd" d="M152.839 175.453L152.839 163.378L165.645 163.378C164.548 166.671 163.45 173.257 163.45 175.453C158.474 175.745 154.302 175.575 152.839 175.453Z" fill="#FACF36"/>
<path fill-rule="evenodd" clip-rule="evenodd" d="M101.934 6.43602C93.7622 8.69168 76.0068 17.9694 70.3578 37.0347C63.2965 60.8664 52.7046 80.8733 31.3213 85.875C31.3213 93.2305 44.4665 109.118 56.5295 115.003C49.2599 116.765 52.7628 125.709 55.8949 130.788C56.1517 131.044 56.369 131.406 56.5295 131.773C56.3221 131.465 56.1093 131.135 55.8949 130.788C55.0531 129.949 53.7867 130.254 52.7046 135.304C50.9393 143.542 56.5295 150.603 66.2387 144.424C62.4727 166.314 66.1056 250.441 68.3928 289.768L29.8502 280.059L29.8502 253.58C24.9465 249.461 16.0807 225.864 19.8467 164.431C12.0794 163.725 12.4913 158.841 13.6681 156.487L31.3213 156.487L31.3213 146.19L23.6716 146.19C21.1217 146.288 16.7869 143.542 19.8467 131.773C14.9039 123.77 17.7872 117.258 19.8467 115.003C13.2759 110.393 0.310614 98.5264 1.01674 87.9346C25.162 75.455 31.2959 57.2218 35.7958 43.8456C36.1761 42.7154 36.5446 41.6199 36.9114 40.5654C41.6189 27.0313 50.7397 9.08399 101.934 6.43602ZM189.022 235.338L186.375 208.564C184.962 199.149 185.786 196.795 186.375 196.795C189.513 192.284 195.848 176.082 196.084 147.367C196.319 118.651 194.024 91.0729 192.847 80.8733C202.655 85.7769 221.681 105.705 219.327 146.19C216.973 186.674 205.989 204.641 200.791 208.564C207.068 211.408 215.855 220.745 200.791 235.338C214.619 242.988 205.793 260.935 192.847 260.052C179.902 259.17 177.254 239.457 189.022 235.338Z" fill="#FFC062"/>
<path fill-rule="evenodd" clip-rule="evenodd" d="M101.934 6.43602C93.7622 8.69168 76.0068 17.9694 70.3578 37.0347C63.2965 60.8664 52.7046 80.8733 31.3213 85.875C31.3213 93.2305 44.4665 109.118 56.5295 115.003C49.2599 116.765 52.7628 125.709 55.8949 130.788C56.1517 131.044 56.369 131.406 56.5295 131.773C56.3221 131.465 56.1093 131.135 55.8949 130.788C55.0531 129.949 53.7867 130.254 52.7046 135.304C50.9393 143.542 56.5295 150.603 66.2387 144.424C62.4727 166.314 66.1056 250.441 68.3928 289.768L29.8502 280.059L29.8502 253.58C24.9465 249.461 16.0807 225.864 19.8467 164.431C12.0794 163.725 12.4913 158.841 13.6681 156.487L31.3213 156.487L31.3213 146.19L23.6716 146.19C21.1217 146.288 16.7869 143.542 19.8467 131.773C14.9039 123.77 17.7872 117.258 19.8467 115.003C13.2759 110.393 0.310614 98.5264 1.01674 87.9346C25.162 75.455 31.2959 57.2218 35.7958 43.8456C36.1761 42.7154 36.5446 41.6199 36.9114 40.5654C41.6189 27.0313 50.7397 9.08399 101.934 6.43602ZM186.375 213.86L186.375 208.564C184.962 199.149 185.786 196.795 186.375 196.795C189.513 192.284 195.848 176.082 196.084 147.367C196.319 118.651 194.024 91.0729 192.847 80.8733C202.655 85.7769 221.681 105.705 219.327 146.19C216.973 186.674 205.989 204.641 200.791 208.564C207.068 211.408 215.855 220.745 200.791 235.338C214.619 242.988 205.793 260.935 192.847 260.052C179.902 259.17 177.254 239.457 189.022 235.338C191.376 235.338 198.637 232.102 198.637 224.452C198.637 216.802 189.611 213.566 186.375 213.86Z" fill="url(#paint2_linear_1427_11371)"/>
<path fill-rule="evenodd" clip-rule="evenodd" d="M70.3582 37.0347C76.0072 17.9694 93.7626 8.69168 101.934 6.43602C50.7402 9.08399 41.6194 27.0313 36.9119 40.5654C36.5453 41.6193 36.1769 42.7143 35.7969 43.844L35.7963 43.8456C31.2964 57.2218 25.1625 75.455 1.01719 87.9346C0.311066 98.5264 13.2763 110.393 19.8472 115.003C17.7877 117.258 14.9043 123.77 19.8472 131.773C16.7873 143.542 21.1221 146.288 23.672 146.19L31.3217 146.19L31.3217 156.487L13.6686 156.488C12.4917 158.841 12.0798 163.725 19.8472 164.431C16.0812 225.864 24.947 249.461 29.8506 253.58L29.8506 280.059L68.3933 289.768C66.1061 250.441 62.4732 166.314 66.2392 144.424C56.53 150.603 50.9398 143.542 52.7051 135.304C53.7872 130.254 55.0536 129.949 55.8954 130.788C52.7633 125.709 49.2604 116.765 56.53 115.003C44.467 109.118 31.3217 93.2305 31.3217 85.875C52.7051 80.8733 63.297 60.8664 70.3582 37.0347ZM56.53 131.773C56.3226 131.465 56.1098 131.135 55.8954 130.788C56.1522 131.044 56.3695 131.406 56.53 131.773ZM192.848 260.052C209.556 255.586 199.292 243.735 198.638 236.925C198.419 234.65 201.291 236.619 200.792 235.047C201.425 233.991 197.678 236.395 198.213 235.338C207.954 225.582 207.368 216.573 199.31 209.482C198.87 208.399 201.224 209.01 200.792 208.274C201.291 207.083 197.377 209.74 197.847 208.564C234.176 149.361 209.865 94.9583 192.848 80.8733C202.655 85.7769 221.996 111.053 221.265 147.367C220.533 183.68 205.989 204.351 200.792 208.274C207.068 211.118 215.856 220.454 200.792 235.047C214.62 242.697 205.793 260.935 192.848 260.052Z" fill="url(#paint3_linear_1427_11371)"/>
<path d="M193.455 253.025C192.4 249.056 195.664 246.522 198.944 249C202.223 251.477 197.48 258.398 191.522 258.398C192.557 258.027 194.51 256.994 193.455 253.025Z" fill="#E39116"/>
<path d="M204.432 220.46C205.31 225.729 201.139 231.925 198.944 234.364C210.653 225.948 205.164 213.508 202.237 210.946C199.895 208.897 199.066 209.361 198.944 209.848C200.407 211.19 203.554 215.191 204.432 220.46Z" fill="#FECF8B"/>
<path fill-rule="evenodd" clip-rule="evenodd" d="M29.8502 280.059L29.8502 253.58C24.9465 249.461 16.0807 225.864 19.8467 164.431C12.0794 163.725 12.4913 158.841 13.6681 156.487L31.3213 156.487L31.3213 146.19L23.6716 146.19C21.1217 146.288 16.7869 143.542 19.8467 131.773C14.9039 123.77 17.7872 117.258 19.8467 115.003C13.2759 110.393 0.310614 98.5264 1.01674 87.9346C25.162 75.455 31.2959 57.2218 35.7958 43.8456C36.1761 42.7154 36.5446 41.6199 36.9114 40.5654C41.6189 27.0313 50.7397 9.08399 101.934 6.43602C140.287 4.45221 148.586 31.6974 155.161 53.2837C157.362 60.5107 159.371 67.1034 162.249 71.7525C171.428 86.5812 179.215 92.642 181.961 93.8189C179.607 102.253 172.37 118.71 162.249 117.062C169.074 121.064 165.093 128.537 162.249 131.773C165.093 133.931 168.721 140.07 160.483 147.367C156.482 146.425 155.482 145.013 155.482 144.424L66.2387 144.424C62.4727 166.314 66.1056 250.441 68.3928 289.768L29.8502 280.059Z" fill="url(#paint4_linear_1427_11371)"/>
<path fill-rule="evenodd" clip-rule="evenodd" d="M101.934 6.43602C93.7621 8.69168 76.0067 17.9694 70.3577 37.0347C63.2965 60.8664 52.7046 80.8733 31.3213 85.875C31.3213 93.2305 44.4665 109.118 56.5295 115.003C49.2599 116.765 53.1032 125.223 56.2353 130.302C56.9176 131.408 57.0551 131.119 56.2353 130.302C55.3935 129.463 51.1101 131.597 50.6451 135.01C50.0204 139.594 56.5295 132.642 65.0225 143.253C61.2565 165.143 66.1056 250.441 68.3928 289.768L29.8502 280.059L29.8502 253.58C24.9465 249.461 16.0808 225.864 19.8467 164.431C12.0794 163.725 12.4913 158.841 13.6681 156.488L31.3213 156.487L31.3213 146.19L23.6716 146.19C21.1217 146.288 16.7869 143.542 19.8467 131.773C14.9039 123.77 17.7872 117.258 19.8467 115.003C13.2759 110.393 0.310618 98.5264 1.01674 87.9346C25.162 75.455 31.2959 57.2218 35.7958 43.8456C36.1761 42.7154 36.5446 41.6199 36.9114 40.5654C41.6189 27.0313 50.7397 9.08399 101.934 6.43602Z" fill="url(#paint5_linear_1427_11371)"/>
<path d="M30.6395 240.34L44.4812 244.954L49.2957 246.559L65.9458 249.167L65.9458 262.701L49.2957 260.093L44.4812 258.488L30.6395 253.874L30.6395 240.34Z" fill="#EB9D29"/>
<path fill-rule="evenodd" clip-rule="evenodd" d="M19.8467 131.773C14.9039 123.77 17.7872 117.258 19.8467 115.003L56.5295 115.003C49.2599 116.765 53.1032 125.223 56.2353 130.302C55.3935 129.463 55.0584 131.773 53.8815 135.01C51.8712 140.538 52.3003 145.948 58.0006 146.607L31.3213 146.19L23.6716 146.19C21.1217 146.288 16.7869 143.542 19.8467 131.773Z" fill="url(#paint6_linear_1427_11371)"/>
<path fill-rule="evenodd" clip-rule="evenodd" d="M70.3578 37.0347C76.0068 17.9694 93.7622 8.69168 101.934 6.43602C50.7397 9.08399 41.6189 27.0313 36.9114 40.5654C36.5448 41.6193 36.1764 42.7143 35.7964 43.844L35.7958 43.8456C31.2959 57.2218 25.162 75.455 1.01674 87.9346C7.6829 87.9346 23.9973 86.5615 31.3213 85.875C52.7046 80.8733 63.2965 60.8664 70.3578 37.0347Z" fill="url(#paint7_linear_1427_11371)"/>
<path fill-rule="evenodd" clip-rule="evenodd" d="M31.3213 156.487L58.589 156.487C58.7017 164.726 56.0861 168.158 54.1757 168.845C56.0391 189.93 58.0594 235.632 53.5873 249.755C58.2948 257.699 50.6451 271.233 42.1128 268.291C35.2869 265.937 31.0936 257.503 29.8502 253.58C24.9465 249.461 16.0807 225.864 19.8467 164.431C12.0794 163.725 12.4913 158.841 13.6681 156.487L31.3213 156.487Z" fill="#4E1F97"/>
<path fill-rule="evenodd" clip-rule="evenodd" d="M58.589 156.487L40.0532 156.487C37.9937 202.974 42.1128 228.571 46.8203 249.755C50.5863 266.702 45.2511 269.173 42.1128 268.291C50.6451 271.233 58.2948 257.699 53.5873 249.755C58.0594 235.632 56.0391 189.93 54.1757 168.845C56.0861 168.158 58.7017 164.726 58.589 156.487Z" fill="#6F44C5"/>
<path d="M131.563 98.9001C138.605 102.346 146.396 102.769 151.103 99.5349C147.452 85.6202 138.956 78.902 129.806 76.1313C120.573 73.3358 110.647 74.5542 104.326 76.5453C96.2423 79.6815 85.252 84.6085 78.491 89.2084C76.8017 90.3577 75.389 91.4783 74.3547 92.5368C73.3123 93.6034 72.6935 94.5676 72.5216 95.4004C72.4373 95.8083 72.4608 96.1818 72.5913 96.5283C72.7225 96.8767 72.9714 97.2225 73.3757 97.5581C74.1944 98.2376 75.6123 98.8433 77.797 99.3094C88.753 101.647 96.734 100.177 102.769 96.4909C108.816 92.7977 112.966 86.8458 116.187 80.1109L116.756 78.9199L116.948 80.2261C118.218 88.8873 124.432 95.4109 131.563 98.9001Z" fill="white" stroke="#2E0F66" stroke-width="0.804791"/>
<path opacity="0.3" d="M58.8018 115.81C50.3278 112.31 55.6306 108.004 56.9722 104.833L73.438 80.6833L127.958 75.1947C148.815 88.3673 163.085 99.7104 163.085 117.274C145.521 117.274 146.554 91.4682 123.201 87.2697C81.8538 79.8361 75.6334 122.762 58.8018 115.81Z" fill="#280169"/>
<path fill-rule="evenodd" clip-rule="evenodd" d="M154.429 53.2837C147.854 31.6974 139.555 4.45221 101.202 6.43602C93.0302 8.69168 75.2748 17.9694 69.6258 37.0347C62.5646 60.8664 51.9727 80.8733 30.5893 85.875C30.5893 93.2305 43.7346 109.118 55.7975 115.003C63.1126 120.249 70.1083 111.035 77.4896 101.313C90.4399 84.2553 128.764 71.7525 141.415 93.8189C149.089 107.204 157.17 115.297 161.517 117.062C171.638 118.71 178.876 102.253 181.229 93.8189C178.483 92.642 170.696 86.5812 161.517 71.7525C158.639 67.1034 156.63 60.5107 154.429 53.2837ZM55.1629 130.788C55.4198 131.044 55.6371 131.406 55.7975 131.773C55.5901 131.465 55.3774 131.135 55.1629 130.788Z" fill="url(#paint8_radial_1427_11371)"/>
<path fill-rule="evenodd" clip-rule="evenodd" d="M155.161 53.2837C148.586 31.6974 140.287 4.45221 101.934 6.43602C93.7621 8.69168 76.0067 17.9694 70.3577 37.0347C63.2965 60.8664 52.7046 80.8733 31.3213 85.875C31.3213 93.2305 44.4665 109.118 56.5295 115.003C63.8445 120.249 70.8403 111.035 78.2216 101.313C91.1719 84.2553 129.496 71.7525 142.147 93.8189C149.821 107.204 157.902 115.297 162.249 117.062C172.37 118.71 179.607 102.253 181.961 93.8189C179.215 92.642 171.428 86.5812 162.249 71.7525C159.371 67.1034 157.362 60.5107 155.161 53.2837ZM55.8949 130.788C56.1517 131.044 56.369 131.406 56.5295 131.773C56.3221 131.465 56.1093 131.135 55.8949 130.788Z" fill="url(#paint9_radial_1427_11371)"/>
<path fill-rule="evenodd" clip-rule="evenodd" d="M101.934 6.43602C140.287 4.45221 148.586 31.6974 155.161 53.2837C157.362 60.5107 159.371 67.1034 162.249 71.7525C171.428 86.5812 179.215 92.642 181.961 93.8189C181.368 95.9462 180.463 98.5838 179.28 101.313C171.824 95.6229 155.371 78.0517 149.208 53.2837C141.506 22.3238 126.259 9.96661 109.489 12.6146C92.7184 15.2625 78.5959 25.6942 74.4768 53.2837C71.1816 75.3554 47.3165 91.1654 35.7958 96.3115C33.0363 92.3018 31.3213 88.5318 31.3213 85.875C52.7046 80.8733 63.2965 60.8664 70.3577 37.0347C76.0067 17.9694 93.7621 8.69168 101.934 6.43602ZM55.8949 130.788C56.1517 131.044 56.369 131.406 56.5295 131.773C56.3221 131.465 56.1093 131.135 55.8949 130.788Z" fill="#46149C"/>
<ellipse rx="9.12078" ry="14.4167" transform="matrix(-1 8.74228e-08 8.74228e-08 1 134.496 124.248)" fill="white"/>
<ellipse rx="6.17859" ry="9.12078" transform="matrix(-1 8.74228e-08 8.74228e-08 1 132.886 124.249)" fill="#5398FF"/>
<ellipse rx="3.2364" ry="5.00172" transform="matrix(-1 8.74228e-08 8.74228e-08 1 132.669 123.072)" fill="#0F2542"/>
<path fill-rule="evenodd" clip-rule="evenodd" d="M134.496 109.832C138.49 109.832 141.885 113.89 143.119 119.541C139.427 121.781 131.441 120.671 125.872 119.541C127.107 113.89 130.501 109.832 134.496 109.832Z" fill="#FFB358"/>
<ellipse rx="9.70921" ry="15.3468" transform="matrix(-1 8.74228e-08 8.74228e-08 1 89.7799 123.907)" fill="white"/>
<ellipse rx="6.57721" ry="9.70921" transform="matrix(-1 8.74228e-08 8.74228e-08 1 88.1696 123.908)" fill="#5398FF"/>
<ellipse rx="3.4452" ry="5.32441" transform="matrix(-1 8.74228e-08 8.74228e-08 1 87.9911 122.654)" fill="#0F2542"/>
<path fill-rule="evenodd" clip-rule="evenodd" d="M89.7799 108.56C94.032 108.56 97.6457 112.881 98.9597 118.896C95.0293 121.28 86.528 120.099 80.6001 118.896C81.9142 112.881 85.5278 108.56 89.7799 108.56Z" fill="#FFB358"/>
<path d="M98.6053 106.332C93.6242 103.733 81.8491 100.441 75.3621 112.805C78.01 104.861 86.8366 98.388 98.6053 106.332Z" fill="#260161"/>
<path d="M146.473 113.785C143.611 109.333 135.514 101.328 124.426 109.451C130.306 103.574 140.555 101.671 146.473 113.785Z" fill="#260161"/>
<path d="M121.26 132.362L114.199 121.476L119.495 132.362L103.019 141.777L123.32 140.894L121.26 132.362Z" fill="#E79D46"/>
<path d="M186.68 213.997L185.832 208.364L180.242 208.364L179.298 214.077L182.535 236.299L188.29 235.324L186.68 213.997Z" fill="#3E1A7C"/>
<path d="M187.487 213.997L186.639 208.364L181.049 208.364L180.105 214.077L183.341 236.299L189.096 235.324L187.487 213.997Z" fill="url(#paint10_linear_1427_11371)"/>
<path d="M155.39 143.836L64.6602 142.887C60.1207 194.419 64.475 228.097 67.7133 289.769L155.39 276.823L155.39 143.836Z" fill="url(#paint11_linear_1427_11371)"/>
<path d="M132.879 280.648L105.811 284.472L101.986 283.295L118.168 259.17L132.879 280.648Z" fill="#DDCCFF"/>
<path d="M117.142 250.05L141.562 279.177L132.147 280.648L117.142 262.113L105.079 284.179L93.0162 285.944L117.142 250.05Z" fill="#5398FF"/>
<rect width="52.3114" height="48.2875" transform="matrix(-1 8.74228e-08 8.74228e-08 1 139.199 160.076)" fill="#2F1067"/>
<path d="M139.199 160.076L124.712 160.076L124.712 208.364L139.199 208.364L139.199 160.076Z" fill="url(#paint12_linear_1427_11371)"/>
<path d="M137.806 153.199L128.515 153.199C127.505 153.199 126.686 154.018 126.686 155.028L126.686 168.343C126.686 169.353 127.505 170.173 128.515 170.173L137.806 170.173C138.816 170.173 139.635 169.353 139.635 168.343L139.635 155.028C139.635 154.018 138.816 153.199 137.806 153.199Z" fill="white" stroke="#32116B" stroke-width="0.731811"/>
<path d="M124.93 153.199L114.835 153.199C113.824 153.199 113.005 154.018 113.005 155.029L113.005 168.343C113.005 169.354 113.824 170.173 114.835 170.173L124.93 170.173C125.941 170.173 126.76 169.354 126.76 168.343L126.76 155.029C126.76 154.018 125.941 153.199 124.93 153.199Z" fill="white" stroke="#32116B" stroke-width="0.731811"/>
<path d="M111.248 153.199L101.153 153.199C100.142 153.199 99.3234 154.018 99.3234 155.029L99.3234 168.343C99.3234 169.354 100.142 170.173 101.153 170.173L111.248 170.173C112.259 170.173 113.078 169.354 113.078 168.343L113.078 155.029C113.078 154.018 112.259 153.199 111.248 153.199Z" fill="white" stroke="#32116B" stroke-width="0.731811"/>
<path d="M97.5681 153.199L88.2775 153.199C87.2671 153.199 86.448 154.018 86.448 155.028L86.448 168.343C86.448 169.353 87.2671 170.173 88.2775 170.173L97.5681 170.173C98.5785 170.173 99.3976 169.353 99.3976 168.343L99.3976 155.028C99.3976 154.018 98.5785 153.199 97.5681 153.199Z" fill="white" stroke="#32116B" stroke-width="0.731811"/>
<path d="M138.039 195.853L128.307 195.853C127.297 195.853 126.478 196.672 126.478 197.682L126.478 212.028C126.478 213.069 127.344 213.899 128.383 213.856L138.115 213.451C139.095 213.41 139.868 212.604 139.868 211.623L139.868 197.682C139.868 196.672 139.049 195.853 138.039 195.853Z" fill="white" stroke="#32116B" stroke-width="0.731811"/>
<path d="M124.649 195.852L114.918 195.852C113.907 195.852 113.088 196.671 113.088 197.682L113.088 212.616C113.088 213.656 113.954 214.487 114.994 214.444L124.725 214.039C125.705 213.998 126.479 213.191 126.479 212.211L126.479 197.682C126.479 196.671 125.66 195.852 124.649 195.852Z" fill="white" stroke="#32116B" stroke-width="0.731811"/>
<path d="M111.257 195.853L101.525 195.853C100.515 195.853 99.6956 196.672 99.6956 197.682L99.6956 212.71C99.6956 213.72 100.515 214.539 101.525 214.539L111.257 214.539C112.267 214.539 113.086 213.72 113.086 212.71L113.086 197.682C113.086 196.672 112.267 195.853 111.257 195.853Z" fill="white" stroke="#32116B" stroke-width="0.731811"/>
<path d="M97.8652 195.852L88.1336 195.852C87.1232 195.852 86.3041 196.671 86.3041 197.682L86.3041 213.204C86.3041 214.245 87.1704 215.076 88.2098 215.032L97.9414 214.627C98.9213 214.586 99.6948 213.78 99.6948 212.799L99.6948 197.682C99.6948 196.671 98.8757 195.852 97.8652 195.852Z" fill="white" stroke="#32116B" stroke-width="0.731811"/>
<g filter="url(#filter1_d_1427_11371)">
<ellipse rx="4.84509" ry="7.02539" transform="matrix(-1 8.74228e-08 8.74228e-08 1 147.305 163.077)" fill="url(#paint13_radial_1427_11371)"/>
</g>
<path d="M154.889 143.98L61.533 142.773" stroke="#2E0F66" stroke-width="0.804791"/>
<g filter="url(#filter2_d_1427_11371)">
<ellipse rx="5.88437" ry="8.53234" transform="matrix(-1 8.74228e-08 8.74228e-08 1 78.3007 162.06)" fill="url(#paint14_radial_1427_11371)"/>
</g>
<g filter="url(#filter3_d_1427_11371)">
<ellipse rx="4.84509" ry="7.02539" transform="matrix(-1 8.74228e-08 8.74228e-08 1 147.305 192.131)" fill="url(#paint15_radial_1427_11371)"/>
</g>
<g filter="url(#filter4_d_1427_11371)">
<ellipse rx="5.88437" ry="8.53234" transform="matrix(-1 8.74228e-08 8.74228e-08 1 78.3007 191.206)" fill="url(#paint16_radial_1427_11371)"/>
</g>
<g filter="url(#filter5_d_1427_11371)">
<ellipse rx="4.84509" ry="7.02539" transform="matrix(-1 8.74228e-08 8.74228e-08 1 147.305 224.405)" fill="url(#paint17_radial_1427_11371)"/>
</g>
<g filter="url(#filter6_d_1427_11371)">
<ellipse rx="5.88437" ry="8.53234" transform="matrix(-1 8.74228e-08 8.74228e-08 1 78.3007 221.804)" fill="url(#paint18_radial_1427_11371)"/>
</g>
<path d="M51.572 122.796C51.572 127.172 54.47 130.551 57.8561 130.551C61.2423 130.551 64.1403 127.172 64.1403 122.796C64.1403 118.42 61.2423 115.041 57.8561 115.041C54.47 115.041 51.572 118.42 51.572 122.796Z" fill="white" stroke="#A9A9A9" stroke-width="0.965832"/>
<path d="M50.9854 137.951C50.9854 142.327 53.8834 145.706 57.2695 145.706C60.6556 145.706 63.5536 142.327 63.5536 137.951C63.5536 133.575 60.6556 130.196 57.2695 130.196C53.8834 130.196 50.9854 133.575 50.9854 137.951Z" fill="white" stroke="#A9A9A9" stroke-width="0.965832"/>
<path d="M152.783 139.128C152.783 143.505 155.681 146.883 159.068 146.883C162.454 146.883 165.352 143.505 165.352 139.128C165.352 134.752 162.454 131.373 159.068 131.373C155.681 131.373 152.783 134.752 152.783 139.128Z" fill="white" stroke="#A9A9A9" stroke-width="0.965832"/>
<path d="M156.12 239.882L123.748 245.96L111.979 247.564L64.7686 252.239L64.7686 262.114L111.979 257.439L123.748 255.835L156.12 249.757L156.12 239.882Z" fill="url(#paint19_linear_1427_11371)"/>
<path d="M156.12 239.882L123.748 245.96L111.979 247.564L64.7686 252.239L64.7686 262.114L111.979 257.439L123.748 255.835L156.12 249.757L156.12 239.882Z" fill="#2F1067"/>
<path d="M156.12 237.468L123.748 243.545L111.979 245.15L64.7686 249.825L64.7686 259.7L111.979 255.025L123.748 253.42L156.12 247.343L156.12 237.468Z" fill="url(#paint20_linear_1427_11371)"/>
<path d="M156.12 237.468L123.748 243.545L111.979 245.15L64.7686 249.825L64.7686 259.7L111.979 255.025L123.748 253.42L156.12 247.343L156.12 237.468Z" fill="#FFA3A3" fill-opacity="0.7"/>
<path d="M156.12 238.273L123.748 244.35L111.979 245.955L64.7686 250.63L64.7686 260.505L111.979 255.83L123.748 254.225L156.12 248.148L156.12 238.273Z" fill="url(#paint21_linear_1427_11371)"/>
<path d="M13.2792 156.486L40.3473 156.486L40.3473 183.554L18.8693 183.554C18.8693 180.122 19.0459 171.609 19.752 165.019C11.7492 163.842 12.1023 158.84 13.2792 156.486Z" fill="#1D107F"/>
<path d="M39.4643 183.554L55.3521 182.378C55.3521 180.318 54.7764 175.086 54.7764 169.231C60.6309 165.938 59.3731 160.311 58.8828 156.486L39.4643 156.486C38.5228 164.254 39.0721 177.768 39.4643 183.554Z" fill="#612EB0"/>
<path fill-rule="evenodd" clip-rule="evenodd" d="M38.9488 169.231L54.7764 169.231C54.7764 172.906 55.0033 176.336 55.1722 178.89C55.2723 180.404 55.3521 181.611 55.3521 182.378L39.4643 183.554C39.2485 180.371 38.9852 174.849 38.9488 169.231Z" fill="#4E1F97"/>
<ellipse rx="1.76531" ry="6.76703" transform="matrix(-1 8.74228e-08 8.74228e-08 1 34.1688 174.14)" fill="#2A016C"/>
<ellipse rx="1.76531" ry="6.76703" transform="matrix(-1 8.74228e-08 8.74228e-08 1 28.8718 174.14)" fill="#2A016C"/>
<ellipse rx="1.76531" ry="6.76703" transform="matrix(-1 8.74228e-08 8.74228e-08 1 23.5758 174.14)" fill="#2A016C"/>
<path d="M53.5879 261.229C55.9417 256.051 54.5687 251.03 53.5879 249.166C48.1743 245.636 38.3867 248.284 34.1696 250.049C36.033 256.227 40.5247 268.585 43.5846 268.585C47.4094 268.585 50.6458 267.702 53.5879 261.229Z" fill="#FFDBA9"/>
<path d="M44.4659 268.584C50.5857 267.172 48.585 254.854 46.8197 248.872C42.7987 248.872 33.6388 249.519 29.1667 252.108C28.8725 256.816 36.8163 270.35 44.4659 268.584Z" fill="#E6B26A"/>
<path d="M54.1757 250.049L55.941 242.105L46.2318 240.928C41.4263 241.32 30.344 242.988 24.4597 246.518C25.1658 250.049 27.8922 252.893 29.1672 253.874C31.9132 252.991 39.1706 250.99 46.2318 250.049C48.821 249.107 52.6066 249.656 54.1757 250.049Z" fill="#1D107F"/>
<path d="M217.937 136.923C220.953 167.975 206.125 197.746 198.711 208.75C233.093 146.645 210.272 98.4704 194.187 82.1462C200.847 87.4667 214.921 105.871 217.937 136.923Z" fill="url(#paint22_linear_1427_11371)"/>
<circle r="1.22979" transform="matrix(-1 8.74228e-08 8.74228e-08 1 79.374 157.537)" fill="#FFFCF2"/>
<circle r="1.22979" transform="matrix(-1 8.74228e-08 8.74228e-08 1 79.374 188.752)" fill="#FFFCF2"/>
<circle r="1.01259" transform="matrix(-1 8.74228e-08 8.74228e-08 1 148.777 159.456)" fill="#FFFCF2"/>
<circle r="1.01259" transform="matrix(-1 8.74228e-08 8.74228e-08 1 148.777 189.937)" fill="#FFFCF2"/>
<circle r="1.01259" transform="matrix(-1 8.74228e-08 8.74228e-08 1 148.777 222.287)" fill="#FFFCF2"/>
<path d="M153.66 123.829C153.66 128.205 156.558 131.584 159.944 131.584C163.33 131.584 166.228 128.205 166.228 123.829C166.228 119.452 163.33 116.073 159.944 116.073C156.558 116.073 153.66 119.452 153.66 123.829Z" fill="white" stroke="#A9A9A9" stroke-width="0.965832"/>
<path d="M157.384 123.86C157.384 125.922 158.704 127.401 160.121 127.401C161.537 127.401 162.857 125.922 162.857 123.86C162.857 121.798 161.537 120.319 160.121 120.319C158.704 120.319 157.384 121.798 157.384 123.86Z" fill="white" stroke="#A9A9A9" stroke-width="0.965832"/>
<path d="M156.579 140.761C156.579 142.822 157.899 144.302 159.315 144.302C160.731 144.302 162.052 142.822 162.052 140.761C162.052 138.699 160.731 137.22 159.315 137.22C157.899 137.22 156.579 138.699 156.579 140.761Z" fill="white" stroke="#A9A9A9" stroke-width="0.965832"/>
<path d="M56.7852 123.86C56.7852 125.922 58.1052 127.401 59.5214 127.401C60.9376 127.401 62.2577 125.922 62.2577 123.86C62.2577 121.798 60.9376 120.319 59.5214 120.319C58.1052 120.319 56.7852 121.798 56.7852 123.86Z" fill="white" stroke="#A9A9A9" stroke-width="0.965832"/>
<path d="M53.5661 137.542C53.5661 139.604 54.8861 141.083 56.3023 141.083C57.7185 141.083 59.0386 139.604 59.0386 137.542C59.0386 135.48 57.7185 134.001 56.3023 134.001C54.8861 134.001 53.5661 135.48 53.5661 137.542Z" fill="white" stroke="#A9A9A9" stroke-width="0.965832"/>
<circle cx="160.121" cy="123.86" r="0.482916" fill="white" stroke="#A9A9A9" stroke-width="0.643751"/>
<circle cx="159.316" cy="140.761" r="0.482916" fill="white" stroke="#A9A9A9" stroke-width="0.643751"/>
<circle cx="59.5207" cy="123.86" r="0.482916" fill="white" stroke="#A9A9A9" stroke-width="0.643751"/>
<circle cx="56.3016" cy="137.541" r="0.482916" fill="white" stroke="#A9A9A9" stroke-width="0.643751"/>
<defs>
<filter id="filter0_f_1427_11371" x="13.5451" y="0.538629" width="230.128" height="295.025" filterUnits="userSpaceOnUse" color-interpolation-filters="sRGB">
<feFlood flood-opacity="0" result="BackgroundImageFix"/>
<feBlend mode="normal" in="SourceGraphic" in2="BackgroundImageFix" result="shape"/>
<feGaussianBlur stdDeviation="2.89749" result="effect1_foregroundBlur_1427_11371"/>
</filter>
<filter id="filter1_d_1427_11371" x="141.491" y="154.113" width="13.5663" height="17.9269" filterUnits="userSpaceOnUse" color-interpolation-filters="sRGB">
<feFlood flood-opacity="0" result="BackgroundImageFix"/>
<feColorMatrix in="SourceAlpha" type="matrix" values="0 0 0 0 0 0 0 0 0 0 0 0 0 0 0 0 0 0 127 0" result="hardAlpha"/>
<feOffset dx="0.969019"/>
<feGaussianBlur stdDeviation="0.969019"/>
<feComposite in2="hardAlpha" operator="out"/>
<feColorMatrix type="matrix" values="0 0 0 0 0 0 0 0 0 0 0 0 0 0 0 0 0 0 0.25 0"/>
<feBlend mode="normal" in2="BackgroundImageFix" result="effect1_dropShadow_1427_11371"/>
<feBlend mode="normal" in="SourceGraphic" in2="effect1_dropShadow_1427_11371" result="shape"/>
</filter>
<filter id="filter2_d_1427_11371" x="71.2394" y="151.174" width="16.4763" height="21.7722" filterUnits="userSpaceOnUse" color-interpolation-filters="sRGB">
<feFlood flood-opacity="0" result="BackgroundImageFix"/>
<feColorMatrix in="SourceAlpha" type="matrix" values="0 0 0 0 0 0 0 0 0 0 0 0 0 0 0 0 0 0 127 0" result="hardAlpha"/>
<feOffset dx="1.17687"/>
<feGaussianBlur stdDeviation="1.17687"/>
<feComposite in2="hardAlpha" operator="out"/>
<feColorMatrix type="matrix" values="0 0 0 0 0 0 0 0 0 0 0 0 0 0 0 0 0 0 0.25 0"/>
<feBlend mode="normal" in2="BackgroundImageFix" result="effect1_dropShadow_1427_11371"/>
<feBlend mode="normal" in="SourceGraphic" in2="effect1_dropShadow_1427_11371" result="shape"/>
</filter>
<filter id="filter3_d_1427_11371" x="141.491" y="183.168" width="13.5663" height="17.9269" filterUnits="userSpaceOnUse" color-interpolation-filters="sRGB">
<feFlood flood-opacity="0" result="BackgroundImageFix"/>
<feColorMatrix in="SourceAlpha" type="matrix" values="0 0 0 0 0 0 0 0 0 0 0 0 0 0 0 0 0 0 127 0" result="hardAlpha"/>
<feOffset dx="0.969019"/>
<feGaussianBlur stdDeviation="0.969019"/>
<feComposite in2="hardAlpha" operator="out"/>
<feColorMatrix type="matrix" values="0 0 0 0 0 0 0 0 0 0 0 0 0 0 0 0 0 0 0.25 0"/>
<feBlend mode="normal" in2="BackgroundImageFix" result="effect1_dropShadow_1427_11371"/>
<feBlend mode="normal" in="SourceGraphic" in2="effect1_dropShadow_1427_11371" result="shape"/>
</filter>
<filter id="filter4_d_1427_11371" x="71.2394" y="180.32" width="16.4763" height="21.7722" filterUnits="userSpaceOnUse" color-interpolation-filters="sRGB">
<feFlood flood-opacity="0" result="BackgroundImageFix"/>
<feColorMatrix in="SourceAlpha" type="matrix" values="0 0 0 0 0 0 0 0 0 0 0 0 0 0 0 0 0 0 127 0" result="hardAlpha"/>
<feOffset dx="1.17687"/>
<feGaussianBlur stdDeviation="1.17687"/>
<feComposite in2="hardAlpha" operator="out"/>
<feColorMatrix type="matrix" values="0 0 0 0 0 0 0 0 0 0 0 0 0 0 0 0 0 0 0.25 0"/>
<feBlend mode="normal" in2="BackgroundImageFix" result="effect1_dropShadow_1427_11371"/>
<feBlend mode="normal" in="SourceGraphic" in2="effect1_dropShadow_1427_11371" result="shape"/>
</filter>
<filter id="filter5_d_1427_11371" x="141.491" y="215.441" width="13.5663" height="17.9269" filterUnits="userSpaceOnUse" color-interpolation-filters="sRGB">
<feFlood flood-opacity="0" result="BackgroundImageFix"/>
<feColorMatrix in="SourceAlpha" type="matrix" values="0 0 0 0 0 0 0 0 0 0 0 0 0 0 0 0 0 0 127 0" result="hardAlpha"/>
<feOffset dx="0.969019"/>
<feGaussianBlur stdDeviation="0.969019"/>
<feComposite in2="hardAlpha" operator="out"/>
<feColorMatrix type="matrix" values="0 0 0 0 0 0 0 0 0 0 0 0 0 0 0 0 0 0 0.25 0"/>
<feBlend mode="normal" in2="BackgroundImageFix" result="effect1_dropShadow_1427_11371"/>
<feBlend mode="normal" in="SourceGraphic" in2="effect1_dropShadow_1427_11371" result="shape"/>
</filter>
<filter id="filter6_d_1427_11371" x="71.2394" y="210.917" width="16.4763" height="21.7722" filterUnits="userSpaceOnUse" color-interpolation-filters="sRGB">
<feFlood flood-opacity="0" result="BackgroundImageFix"/>
<feColorMatrix in="SourceAlpha" type="matrix" values="0 0 0 0 0 0 0 0 0 0 0 0 0 0 0 0 0 0 127 0" result="hardAlpha"/>
<feOffset dx="1.17687"/>
<feGaussianBlur stdDeviation="1.17687"/>
<feComposite in2="hardAlpha" operator="out"/>
<feColorMatrix type="matrix" values="0 0 0 0 0 0 0 0 0 0 0 0 0 0 0 0 0 0 0.25 0"/>
<feBlend mode="normal" in2="BackgroundImageFix" result="effect1_dropShadow_1427_11371"/>
<feBlend mode="normal" in="SourceGraphic" in2="effect1_dropShadow_1427_11371" result="shape"/>
</filter>
<linearGradient id="paint0_linear_1427_11371" x1="188.699" y1="222.289" x2="150.278" y2="222.654" gradientUnits="userSpaceOnUse">
<stop stop-color="#6A3DC4"/>
<stop offset="1" stop-color="#33126C"/>
</linearGradient>
<linearGradient id="paint1_linear_1427_11371" x1="110.258" y1="6.33363" x2="110.258" y2="289.768" gradientUnits="userSpaceOnUse">
<stop offset="0.514754" stop-color="#7C58C6"/>
<stop offset="0.857089" stop-color="#5C29C3"/>
</linearGradient>
<linearGradient id="paint2_linear_1427_11371" x1="181.278" y1="265.937" x2="219.527" y2="82.6386" gradientUnits="userSpaceOnUse">
<stop stop-color="#D74D00"/>
<stop offset="0.498854" stop-color="#FFA319"/>
<stop offset="0.648723" stop-color="#FFA319"/>
<stop offset="1" stop-color="#FFC46C"/>
</linearGradient>
<linearGradient id="paint3_linear_1427_11371" x1="181.279" y1="265.937" x2="211.289" y2="90.2882" gradientUnits="userSpaceOnUse">
<stop stop-color="#DE8500"/>
<stop offset="1" stop-color="#FFD79B"/>
</linearGradient>
<linearGradient id="paint4_linear_1427_11371" x1="154.084" y1="93.2782" x2="55.095" y2="166.514" gradientUnits="userSpaceOnUse">
<stop stop-color="#FFD4A2"/>
<stop offset="1" stop-color="#FFB661"/>
</linearGradient>
<linearGradient id="paint5_linear_1427_11371" x1="110.258" y1="6.33363" x2="110.258" y2="289.768" gradientUnits="userSpaceOnUse">
<stop stop-color="#9E1E1B"/>
<stop offset="0.268939" stop-color="#210059"/>
<stop offset="0.401026" stop-color="#350089"/>
<stop offset="0.493935" stop-color="#2E0177"/>
<stop offset="0.915941" stop-color="#1B0046"/>
</linearGradient>
<linearGradient id="paint6_linear_1427_11371" x1="110.258" y1="106.78" x2="110.258" y2="154.106" gradientUnits="userSpaceOnUse">
<stop stop-color="#E5E5E5"/>
<stop offset="0.150623" stop-color="#E5E5E5"/>
<stop offset="0.343053" stop-color="white"/>
<stop offset="0.467202" stop-color="#E5E5E5"/>
<stop offset="0.659633" stop-color="white"/>
<stop offset="0.858271" stop-color="#E5E5E5"/>
<stop offset="1" stop-color="#E5E5E5"/>
</linearGradient>
<linearGradient id="paint7_linear_1427_11371" x1="110.258" y1="6.33363" x2="110.258" y2="289.768" gradientUnits="userSpaceOnUse">
<stop stop-color="#7045BC"/>
<stop offset="0.148185" stop-color="#46149C"/>
<stop offset="0.244377" stop-color="#2D0572"/>
<stop offset="0.395331" stop-color="#6A3CB7"/>
<stop offset="0.449582" stop-color="#4B1F91"/>
<stop offset="1" stop-color="#AC5300" stop-opacity="0"/>
</linearGradient>
<radialGradient id="paint8_radial_1427_11371" cx="0" cy="0" r="1" gradientUnits="userSpaceOnUse" gradientTransform="translate(170.037 64.2174) rotate(162.243) scale(127.174 98.055)">
<stop stop-color="#4B3282"/>
<stop offset="1" stop-color="#5F2CAE"/>
</radialGradient>
<radialGradient id="paint9_radial_1427_11371" cx="0" cy="0" r="1" gradientUnits="userSpaceOnUse" gradientTransform="translate(170.769 64.2174) rotate(162.243) scale(127.174 98.055)">
<stop stop-color="#8362CC"/>
<stop offset="1" stop-color="#5F2CAE"/>
</radialGradient>
<linearGradient id="paint10_linear_1427_11371" x1="185.401" y1="207.388" x2="185.401" y2="237.104" gradientUnits="userSpaceOnUse">
<stop stop-color="#4B67C9"/>
<stop offset="0.209594" stop-color="#3650AB"/>
<stop offset="0.278498" stop-color="#001252"/>
<stop offset="1" stop-color="#001252"/>
</linearGradient>
<linearGradient id="paint11_linear_1427_11371" x1="109.047" y1="142.887" x2="109.047" y2="289.769" gradientUnits="userSpaceOnUse">
<stop stop-color="#7045BC"/>
<stop offset="1" stop-color="#3D1B7A"/>
</linearGradient>
<linearGradient id="paint12_linear_1427_11371" x1="121.236" y1="177.087" x2="142.386" y2="177.087" gradientUnits="userSpaceOnUse">
<stop stop-color="#3A1186"/>
<stop offset="1" stop-color="#5123A5"/>
</linearGradient>
<radialGradient id="paint13_radial_1427_11371" cx="0" cy="0" r="1" gradientUnits="userSpaceOnUse" gradientTransform="translate(1.69578 7.02539) rotate(-1.73571) scale(7.99807 10.5325)">
<stop offset="0.0383861" stop-color="#FFEEB3"/>
<stop offset="0.714191" stop-color="#FFD439"/>
<stop offset="1" stop-color="#A68100"/>
</radialGradient>
<radialGradient id="paint14_radial_1427_11371" cx="0" cy="0" r="1" gradientUnits="userSpaceOnUse" gradientTransform="translate(2.05953 8.53234) rotate(-1.73571) scale(9.71367 12.7917)">
<stop offset="0.0383861" stop-color="#FFEEB3"/>
<stop offset="0.714191" stop-color="#FFD439"/>
<stop offset="1" stop-color="#A68100"/>
</radialGradient>
<radialGradient id="paint15_radial_1427_11371" cx="0" cy="0" r="1" gradientUnits="userSpaceOnUse" gradientTransform="translate(1.69578 7.02539) rotate(-1.73571) scale(7.99807 10.5325)">
<stop offset="0.0383861" stop-color="#FFEEB3"/>
<stop offset="0.714191" stop-color="#FFD439"/>
<stop offset="1" stop-color="#A68100"/>
</radialGradient>
<radialGradient id="paint16_radial_1427_11371" cx="0" cy="0" r="1" gradientUnits="userSpaceOnUse" gradientTransform="translate(2.05953 8.53234) rotate(-1.73571) scale(9.71367 12.7917)">
<stop offset="0.0383861" stop-color="#FFEEB3"/>
<stop offset="0.714191" stop-color="#FFD439"/>
<stop offset="1" stop-color="#A68100"/>
</radialGradient>
<radialGradient id="paint17_radial_1427_11371" cx="0" cy="0" r="1" gradientUnits="userSpaceOnUse" gradientTransform="translate(1.69578 7.02539) rotate(-1.73571) scale(7.99807 10.5325)">
<stop offset="0.0383861" stop-color="#FFEEB3"/>
<stop offset="0.714191" stop-color="#FFD439"/>
<stop offset="1" stop-color="#A68100"/>
</radialGradient>
<radialGradient id="paint18_radial_1427_11371" cx="0" cy="0" r="1" gradientUnits="userSpaceOnUse" gradientTransform="translate(2.05953 8.53234) rotate(-1.73571) scale(9.71367 12.7917)">
<stop offset="0.0383861" stop-color="#FFEEB3"/>
<stop offset="0.714191" stop-color="#FFD439"/>
<stop offset="1" stop-color="#A68100"/>
</radialGradient>
<linearGradient id="paint19_linear_1427_11371" x1="155.402" y1="239.632" x2="64.6578" y2="251.341" gradientUnits="userSpaceOnUse">
<stop stop-color="#EB3529"/>
<stop offset="0.333495" stop-color="#FF9D9D"/>
<stop offset="0.50333" stop-color="#EB2929"/>
<stop offset="1" stop-color="#EB3529"/>
</linearGradient>
<linearGradient id="paint20_linear_1427_11371" x1="155.402" y1="237.217" x2="64.6578" y2="248.926" gradientUnits="userSpaceOnUse">
<stop stop-color="#EB3529"/>
<stop offset="0.333495" stop-color="#FF9D9D"/>
<stop offset="0.50333" stop-color="#EB2929"/>
<stop offset="1" stop-color="#EB3529"/>
</linearGradient>
<linearGradient id="paint21_linear_1427_11371" x1="155.402" y1="238.022" x2="64.6578" y2="249.731" gradientUnits="userSpaceOnUse">
<stop stop-color="#EB3529"/>
<stop offset="0.333495" stop-color="#FF9D9D"/>
<stop offset="0.50333" stop-color="#EB2929"/>
<stop offset="1" stop-color="#EB3529"/>
</linearGradient>
<linearGradient id="paint22_linear_1427_11371" x1="206.271" y1="82.1462" x2="206.271" y2="208.75" gradientUnits="userSpaceOnUse">
<stop stop-color="#FFE1B4"/>
<stop offset="1" stop-color="#FFE1B4" stop-opacity="0.59"/>
</linearGradient>
</defs>
</svg>
