<svg width="509" height="509" viewBox="0 0 509 509" fill="none" xmlns="http://www.w3.org/2000/svg">
<path d="M498.235 254.004C498.235 335.224 458.59 407.184 397.595 451.587C357.293 480.927 307.67 498.235 254.005 498.235C200.332 498.235 150.702 480.922 110.397 451.574C49.4121 407.17 9.77393 335.216 9.77393 254.004C9.77393 227.667 13.9428 202.303 21.6568 178.537C53.449 80.587 145.457 9.77368 254.005 9.77368C362.552 9.77368 454.56 80.587 486.353 178.537C494.067 202.303 498.235 227.667 498.235 254.004Z" fill="#5B31B3"/>
<path fill-rule="evenodd" clip-rule="evenodd" d="M254.005 9.77368V254.004L21.6568 178.537C53.449 80.587 145.457 9.77368 254.005 9.77368Z" fill="#7946E6"/>
<path d="M21.6568 178.537C13.9428 202.303 9.77393 227.667 9.77393 254.004C9.77393 335.216 49.4121 407.17 110.397 451.574L254.005 254.004L21.6568 178.537Z" fill="#7233F7"/>
<path d="M110.397 451.574C150.702 480.922 200.332 498.235 254.005 498.235C307.67 498.235 357.293 480.927 397.595 451.587L254.005 254.004L110.397 451.574Z" fill="#5523BE"/>
<path d="M498.235 254.004C498.235 227.667 494.067 202.303 486.353 178.537L254.005 254.004L397.595 451.587C458.59 407.184 498.235 335.224 498.235 254.004Z" fill="#6E3FD1"/>
<path d="M486.353 178.537C454.56 80.587 362.552 9.77368 254.005 9.77368V254.004L486.353 178.537Z" fill="#B8241B"/>
<path d="M508.001 254.004C508.001 338.472 466.77 413.31 403.335 459.49C361.421 490.003 309.814 508.004 254.001 508.004C198.181 508.004 146.567 489.998 104.649 459.477C41.2252 413.296 0.00146484 338.464 0.00146484 254.004C0.00146484 226.613 4.33713 200.235 12.3596 175.518C45.4236 73.6498 141.112 0.00390625 254.001 0.00390625C366.891 0.00390625 462.579 73.6498 495.643 175.518C503.666 200.235 508.001 226.613 508.001 254.004Z" fill="url(#paint0_linear_1371_17787)"/>
<path fill-rule="evenodd" clip-rule="evenodd" d="M254.002 9.77295V254.004L21.6538 178.536C53.4461 80.5863 145.454 9.77295 254.002 9.77295Z" fill="url(#paint1_radial_1371_17787)"/>
<path opacity="0.3" d="M212.302 164.055C209.657 165.859 206.963 167.058 204.222 167.651C201.459 168.213 198.789 168.21 196.213 167.641C193.606 167.094 191.155 166.007 188.86 164.38C186.565 162.754 184.537 160.649 182.775 158.066C181.014 155.483 179.795 152.826 179.118 150.096C178.442 147.365 178.325 144.687 178.767 142.06C179.178 139.454 180.161 136.983 181.714 134.647C183.246 132.28 185.334 130.195 187.979 128.391C190.625 126.587 193.329 125.404 196.092 124.842C198.833 124.249 201.508 124.226 204.115 124.773C206.691 125.341 209.127 126.439 211.422 128.065C213.716 129.692 215.745 131.797 217.506 134.38C219.268 136.963 220.487 139.62 221.163 142.35C221.84 145.08 221.972 147.748 221.561 150.354C221.119 152.981 220.131 155.478 218.599 157.845C217.046 160.181 214.947 162.251 212.302 164.055ZM207.145 156.493C208.701 155.432 209.973 154.222 210.962 152.864C211.898 151.496 212.541 150.031 212.89 148.471C213.208 146.932 213.207 145.359 212.888 143.754C212.546 142.117 211.845 140.52 210.784 138.964C209.723 137.408 208.503 136.188 207.125 135.304C205.726 134.389 204.252 133.799 202.703 133.533C201.123 133.288 199.535 133.368 197.941 133.771C196.294 134.164 194.693 134.892 193.137 135.953C191.612 136.993 190.366 138.208 189.398 139.597C188.409 140.955 187.756 142.404 187.438 143.943C187.089 145.504 187.085 147.102 187.426 148.739C187.746 150.345 188.436 151.925 189.497 153.481C190.558 155.037 191.789 156.273 193.188 157.188C194.566 158.072 196.045 158.637 197.625 158.881C199.174 159.147 200.772 159.083 202.419 158.69C204.044 158.265 205.62 157.533 207.145 156.493ZM167.888 134.431L152.766 112.257L159.488 107.673L169.643 122.564L176.366 117.98L166.974 104.209L173.696 99.6242L183.088 113.395L195.972 104.609L200.938 111.891L167.888 134.431ZM149.016 106.759L133.894 84.5853L140.616 80.001L150.772 94.8924L157.494 90.3081L148.103 76.537L154.825 71.9527L164.216 85.7237L177.1 76.9371L182.067 84.2194L149.016 106.759Z" fill="#65C9EB"/>
<path d="M21.6538 178.536C13.9399 202.303 9.771 227.666 9.771 254.004C9.771 335.215 49.4092 407.169 110.394 451.574L254.002 254.004L21.6538 178.536Z" fill="url(#paint2_radial_1371_17787)"/>
<path d="M188.065 260.087C189.007 264.393 189.151 268.449 188.497 272.255C187.792 276.072 186.414 279.478 184.362 282.475C182.321 285.522 179.672 288.092 176.414 290.185C173.156 292.278 169.425 293.784 165.22 294.703C161.015 295.623 156.996 295.812 153.162 295.27C149.327 294.729 145.847 293.499 142.721 291.582C139.605 289.715 136.956 287.189 134.773 284.004C132.54 280.83 130.952 277.09 130.01 272.784C129.069 268.478 128.95 264.417 129.655 260.6C130.309 256.794 131.656 253.368 133.697 250.32C135.749 247.324 138.404 244.779 141.662 242.686C144.92 240.594 148.651 239.088 152.856 238.168C157.06 237.249 161.08 237.06 164.914 237.601C168.748 238.143 172.223 239.347 175.338 241.213C178.465 243.131 181.145 245.676 183.378 248.851C185.561 252.036 187.124 255.781 188.065 260.087ZM175.755 262.78C175.201 260.247 174.312 257.999 173.086 256.038C171.822 254.138 170.283 252.564 168.47 251.315C166.669 250.116 164.661 249.308 162.446 248.89C160.181 248.483 157.782 248.556 155.249 249.11C152.716 249.664 150.53 250.593 148.692 251.898C146.804 253.213 145.291 254.792 144.154 256.633C143.029 258.524 142.313 260.592 142.007 262.835C141.662 265.14 141.766 267.559 142.32 270.092C142.863 272.574 143.773 274.79 145.049 276.741C146.274 278.702 147.787 280.282 149.589 281.481C151.401 282.73 153.44 283.558 155.705 283.965C157.92 284.383 160.294 284.315 162.827 283.761C165.36 283.207 167.571 282.272 169.459 280.957C171.297 279.653 172.779 278.054 173.905 276.163C175.041 274.322 175.782 272.249 176.128 269.944C176.422 267.65 176.298 265.262 175.755 262.78ZM127.38 301.545L91.2859 309.439L88.8929 298.497L113.133 293.196L110.74 282.253L88.3235 287.156L85.9305 276.214L108.347 271.311L103.76 250.338L115.614 247.746L127.38 301.545ZM82.3366 311.396L46.2422 319.29L43.8492 308.348L68.0894 303.047L65.6963 292.104L43.2798 297.007L40.8868 286.064L63.3033 281.162L58.7166 260.189L70.5707 257.597L82.3366 311.396Z" fill="#FD9E42"/>
<path d="M110.394 451.574C150.699 480.921 200.329 498.234 254.002 498.234C307.667 498.234 357.29 480.926 397.592 451.586L254.002 254.004L110.394 451.574Z" fill="url(#paint3_radial_1371_17787)"/>
<path d="M253.919 326.444C258.516 326.444 262.68 327.201 266.412 328.716C270.143 330.284 273.307 332.447 275.903 335.205C278.553 337.963 280.581 341.235 281.987 345.021C283.393 348.806 284.096 352.943 284.096 357.432C284.096 361.92 283.393 366.058 281.987 369.843C280.581 373.629 278.553 376.901 275.903 379.659C273.307 382.417 270.143 384.553 266.412 386.067C262.68 387.635 258.516 388.42 253.919 388.42C249.323 388.42 245.159 387.635 241.427 386.067C237.696 384.553 234.505 382.417 231.855 379.659C229.259 376.901 227.258 373.629 225.852 369.843C224.446 366.058 223.743 361.92 223.743 357.432C223.743 352.943 224.446 348.806 225.852 345.021C227.258 341.235 229.259 337.963 231.855 335.205C234.505 332.447 237.696 330.284 241.427 328.716C245.159 327.201 249.323 326.444 253.919 326.444ZM253.919 339.586C251.215 339.586 248.728 339.991 246.456 340.802C244.239 341.668 242.292 342.884 240.616 344.453C238.993 346.021 237.723 347.887 236.803 350.05C235.884 352.267 235.424 354.728 235.424 357.432C235.424 360.136 235.884 362.569 236.803 364.733C237.723 366.95 238.993 368.843 240.616 370.411C242.292 371.979 244.239 373.169 246.456 373.98C248.728 374.846 251.215 375.278 253.919 375.278C256.569 375.278 259.03 374.846 261.301 373.98C263.573 373.169 265.519 371.979 267.142 370.411C268.818 368.843 270.116 366.95 271.036 364.733C271.955 362.569 272.415 360.136 272.415 357.432C272.415 354.728 271.955 352.267 271.036 350.05C270.116 347.887 268.818 346.021 267.142 344.453C265.519 342.884 263.573 341.668 261.301 340.802C259.03 339.991 256.569 339.586 253.919 339.586ZM282.636 397.507L282.636 436.039L270.954 436.039L270.954 410.162L259.273 410.162L259.273 434.092L247.592 434.092L247.592 410.162L225.203 410.162L225.203 397.507L282.636 397.507ZM282.636 445.593L282.636 484.125L270.954 484.125L270.954 458.248L259.273 458.248L259.273 482.178L247.592 482.178L247.592 458.248L225.203 458.248L225.203 445.593L282.636 445.593Z" fill="#682EDE"/>
<path d="M498.233 254.004C498.233 227.666 494.064 202.303 486.35 178.536L254.002 254.004L397.592 451.586C458.587 407.183 498.233 335.223 498.233 254.004Z" fill="url(#paint4_radial_1371_17787)"/>
<path d="M304.872 306.577C303.751 302.462 303.412 298.551 303.857 294.841C304.351 291.119 305.515 287.76 307.35 284.763C309.173 281.719 311.606 279.106 314.651 276.924C317.697 274.742 321.228 273.103 325.245 272.008C329.263 270.913 333.137 270.533 336.868 270.868C340.6 271.203 344.023 272.22 347.138 273.919C350.24 275.569 352.923 277.88 355.189 280.85C357.503 283.808 359.221 287.343 360.342 291.458C361.463 295.572 361.777 299.49 361.284 303.213C360.839 306.922 359.705 310.299 357.883 313.343C356.048 316.339 353.608 318.929 350.563 321.111C347.517 323.292 343.986 324.931 339.969 326.026C335.951 327.121 332.077 327.501 328.346 327.166C324.614 326.831 321.198 325.838 318.096 324.188C314.981 322.489 312.266 320.161 309.952 317.204C307.687 314.233 305.993 310.691 304.872 306.577ZM316.634 303.371C317.294 305.791 318.263 307.918 319.544 309.753C320.859 311.527 322.423 312.973 324.236 314.091C326.035 315.16 328.015 315.842 330.175 316.137C332.384 316.419 334.699 316.231 337.119 315.571C339.539 314.911 341.605 313.906 343.317 312.556C345.077 311.192 346.461 309.593 347.469 307.758C348.464 305.875 349.054 303.842 349.239 301.66C349.459 299.416 349.24 297.084 348.58 294.663C347.934 292.292 346.946 290.195 345.617 288.373C344.337 286.538 342.798 285.086 340.998 284.016C339.185 282.898 337.175 282.198 334.966 281.916C332.805 281.621 330.515 281.804 328.095 282.463C325.675 283.123 323.585 284.135 321.824 285.498C320.113 286.849 318.759 288.466 317.765 290.349C316.757 292.183 316.143 294.223 315.922 296.467C315.75 298.698 315.987 300.999 316.634 303.371ZM361.471 263.538L395.958 254.139L398.807 264.594L375.647 270.906L378.496 281.362L399.915 275.524L402.764 285.979L381.346 291.817L386.808 311.855L375.481 314.943L361.471 263.538ZM404.509 251.808L438.996 242.408L441.846 252.863L418.685 259.176L421.534 269.631L442.953 263.793L445.802 274.248L424.384 280.086L429.846 300.125L418.519 303.212L404.509 251.808Z" fill="#4F25C7"/>
<path d="M254.811 254.267L486.028 179.167C493.628 202.746 497.733 227.895 497.733 254.004C497.733 334.877 458.344 406.551 397.702 450.887L254.811 254.267Z" stroke="black"/>
<path d="M486.35 178.536C454.557 80.5863 362.549 9.77295 254.002 9.77295V254.004L486.35 178.536Z" fill="url(#paint5_radial_1371_17787)"/>
<path opacity="0.1" d="M422.276 254.004C422.276 309.964 394.961 359.544 352.935 390.139C325.167 410.353 290.977 422.279 254.001 422.279C217.02 422.279 182.826 410.35 155.056 390.13C113.036 359.535 85.7262 309.959 85.7262 254.004C85.7262 235.857 88.5986 218.382 93.9134 202.007C115.818 134.519 179.212 85.7291 254.001 85.7291C328.79 85.7291 392.184 134.519 414.089 202.007C419.404 218.382 422.276 235.857 422.276 254.004Z" fill="white" stroke="white" stroke-width="0.488462"/>
<path opacity="0.3" d="M271.303 161.944C270.152 157.649 269.817 153.569 270.298 149.704C270.829 145.825 272.058 142.328 273.985 139.213C275.898 136.047 278.447 133.333 281.632 131.072C284.816 128.81 288.506 127.118 292.699 125.994C296.893 124.871 300.934 124.492 304.822 124.858C308.711 125.224 312.275 126.299 315.515 128.085C318.742 129.819 321.53 132.24 323.878 135.347C326.278 138.441 328.053 142.135 329.203 146.429C330.354 150.724 330.664 154.811 330.133 158.689C329.652 162.555 328.455 166.07 326.542 169.236C324.615 172.352 322.059 175.04 318.874 177.302C315.69 179.563 312.001 181.255 307.807 182.379C303.614 183.503 299.573 183.881 295.684 183.515C291.795 183.149 288.238 182.099 285.011 180.364C281.771 178.579 278.952 176.14 276.552 173.046C274.203 169.939 272.454 166.238 271.303 161.944ZM283.58 158.654C284.257 161.18 285.259 163.403 286.585 165.322C287.949 167.177 289.573 168.691 291.458 169.865C293.329 170.988 295.39 171.708 297.641 172.025C299.943 172.329 302.357 172.143 304.883 171.466C307.409 170.789 309.568 169.75 311.359 168.35C313.2 166.936 314.65 165.275 315.709 163.366C316.755 161.408 317.379 159.291 317.582 157.016C317.821 154.678 317.603 152.245 316.926 149.719C316.263 147.243 315.242 145.053 313.866 143.148C312.539 141.229 310.94 139.708 309.069 138.584C307.184 137.411 305.091 136.672 302.789 136.368C300.538 136.051 298.149 136.231 295.623 136.907C293.097 137.584 290.913 138.63 289.072 140.044C287.281 141.444 285.863 143.124 284.817 145.083C283.758 146.991 283.109 149.114 282.869 151.453C282.68 153.778 282.917 156.178 283.58 158.654ZM330.505 117.326L366.503 107.681L369.427 118.594L345.252 125.072L348.176 135.985L370.533 129.994L373.457 140.907L351.1 146.898L356.705 167.815L344.882 170.983L330.505 117.326ZM375.429 105.289L411.427 95.6433L414.351 106.556L390.176 113.034L393.1 123.947L415.457 117.957L418.381 128.87L396.024 134.861L401.629 155.777L389.806 158.945L375.429 105.289Z" fill="url(#paint6_linear_1371_17787)"/>
<path d="M497.744 254.004C497.744 335.06 458.178 406.876 397.305 451.192C357.083 480.472 307.56 497.746 254.002 497.746C200.435 497.746 150.906 480.467 110.682 451.179C49.8175 406.862 10.2595 335.053 10.2595 254.004C10.2595 227.718 14.4201 202.405 22.1184 178.687C53.8473 80.9325 145.672 10.2614 254.002 10.2614C362.331 10.2614 454.156 80.9325 485.885 178.687C493.583 202.405 497.744 227.718 497.744 254.004Z" stroke="#431C94" stroke-width="0.976923"/>
<path opacity="0.3" d="M495.501 254.004C495.501 334.313 456.303 405.468 395.985 449.379C356.134 478.39 307.07 495.504 254.001 495.504C200.925 495.504 151.855 478.385 112.001 449.366C51.6921 405.454 12.5015 334.306 12.5015 254.004C12.5015 227.957 16.6242 202.877 24.251 179.38C55.6886 82.5222 146.671 12.5039 254.001 12.5039C361.331 12.5039 452.314 82.5222 483.752 179.38C491.379 202.877 495.501 227.957 495.501 254.004Z" stroke="#3E1F80" stroke-width="5"/>
<g filter="url(#filter0_d_1371_17787)">
<circle cx="254" cy="10" r="8" fill="url(#paint7_linear_1371_17787)"/>
</g>
<g filter="url(#filter1_d_1371_17787)">
<circle cx="398" cy="451" r="8" fill="url(#paint8_linear_1371_17787)"/>
</g>
<g filter="url(#filter2_d_1371_17787)">
<circle cx="486" cy="177" r="8" fill="url(#paint9_linear_1371_17787)"/>
</g>
<g filter="url(#filter3_d_1371_17787)">
<circle cx="23" cy="179" r="8" fill="url(#paint10_linear_1371_17787)"/>
</g>
<g filter="url(#filter4_d_1371_17787)">
<circle cx="111" cy="449" r="8" fill="url(#paint11_linear_1371_17787)"/>
</g>
<g filter="url(#filter5_d_1371_17787)">
<path d="M171.967 152.047L178.223 153.69L177.065 157.972L167.124 155.14L164.452 151.169L184.538 137.656L187.286 141.741L171.967 152.047ZM170.815 138.943C169.624 139.744 168.343 140.455 166.974 141.074C165.592 141.674 164.215 142.037 162.844 142.163C161.46 142.27 160.131 142.051 158.858 141.506C157.566 140.974 156.418 139.961 155.413 138.467C154.407 136.973 153.902 135.527 153.896 134.13C153.871 132.745 154.175 131.442 154.809 130.219C155.43 128.977 156.285 127.839 157.374 126.804C158.451 125.75 159.585 124.822 160.776 124.02C161.968 123.219 163.255 122.518 164.637 121.918C166.006 121.299 167.383 120.936 168.767 120.829C170.138 120.703 171.47 120.906 172.762 121.438C174.035 121.982 175.174 123.002 176.179 124.496C177.184 125.99 177.699 127.429 177.724 128.814C177.73 130.211 177.423 131.53 176.802 132.772C176.169 133.995 175.313 135.134 174.237 136.188C173.147 137.223 172.007 138.141 170.815 138.943ZM167.953 134.687C168.482 134.331 169.103 133.886 169.815 133.352C170.515 132.799 171.135 132.189 171.676 131.523C172.217 130.857 172.584 130.157 172.776 129.423C172.957 128.669 172.786 127.905 172.264 127.13C171.755 126.373 171.118 125.937 170.352 125.82C169.587 125.703 168.794 125.769 167.973 126.019C167.152 126.269 166.36 126.624 165.597 127.082C164.821 127.521 164.169 127.919 163.639 128.276C163.11 128.632 162.495 129.086 161.796 129.639C161.083 130.174 160.457 130.774 159.916 131.44C159.375 132.106 159.015 132.815 158.834 133.569C158.654 134.322 158.819 135.076 159.328 135.833C159.849 136.608 160.493 137.055 161.258 137.171C162.011 137.269 162.798 137.193 163.619 136.943C164.44 136.693 165.238 136.349 166.014 135.909C166.777 135.451 167.423 135.043 167.953 134.687ZM155.192 105.491C154.417 106.012 153.593 106.36 152.722 106.535C151.837 106.69 150.974 106.694 150.133 106.545C149.279 106.378 148.481 106.05 147.739 105.56C146.978 105.083 146.337 104.456 145.815 103.681C145.294 102.905 144.955 102.075 144.8 101.191C144.625 100.319 144.628 99.4656 144.808 98.6303C144.975 97.7761 145.303 96.9782 145.793 96.2364C146.271 95.4757 146.897 94.8345 147.673 94.3129C148.448 93.7912 149.287 93.4462 150.191 93.2781C151.062 93.1037 151.925 93.1001 152.78 93.2672C153.621 93.4154 154.422 93.7281 155.183 94.2054C155.925 94.6954 156.556 95.3282 157.078 96.1036C157.6 96.879 157.948 97.7026 158.122 98.5744C158.278 99.4588 158.272 100.328 158.105 101.182C157.925 102.018 157.596 102.816 157.119 103.576C156.61 104.331 155.968 104.969 155.192 105.491ZM149.619 97.2066C148.863 97.7155 148.398 98.4129 148.225 99.2988C148.039 100.166 148.2 100.977 148.709 101.734C149.218 102.49 149.915 102.955 150.801 103.129C151.674 103.283 152.489 103.106 153.246 102.597C154.021 102.075 154.502 101.381 154.688 100.514C154.861 99.6281 154.693 98.8069 154.184 98.0504C153.675 97.2938 152.984 96.8384 152.111 96.684C151.225 96.5107 150.395 96.6849 149.619 97.2066ZM155.289 126.154C154.513 126.676 153.69 127.024 152.818 127.198C151.934 127.354 151.071 127.357 150.229 127.209C149.375 127.042 148.577 126.714 147.835 126.224C147.074 125.746 146.433 125.12 145.912 124.344C145.39 123.569 145.051 122.739 144.896 121.855C144.722 120.983 144.724 120.129 144.904 119.294C145.071 118.44 145.4 117.642 145.89 116.9C146.367 116.139 146.993 115.498 147.769 114.977C148.544 114.455 149.374 114.116 150.259 113.961C151.13 113.787 151.993 113.783 152.848 113.95C153.689 114.098 154.49 114.411 155.251 114.888C155.993 115.378 156.624 116.011 157.146 116.786C157.668 117.562 158.016 118.385 158.19 119.257C158.346 120.142 158.34 121.011 158.173 121.865C157.993 122.7 157.664 123.498 157.187 124.259C156.697 125.001 156.064 125.633 155.289 126.154ZM149.716 117.87C148.959 118.379 148.494 119.077 148.321 119.963C148.135 120.829 148.296 121.641 148.805 122.398C149.314 123.154 150.012 123.619 150.898 123.792C151.771 123.947 152.585 123.77 153.342 123.261C154.099 122.752 154.57 122.064 154.756 121.197C154.929 120.311 154.761 119.49 154.252 118.733C153.743 117.977 153.052 117.521 152.179 117.367C151.293 117.194 150.472 117.361 149.716 117.87ZM137.462 113.009L137.192 109.729L165.642 107.609L165.873 110.586L137.462 113.009Z" fill="url(#paint12_linear_1371_17787)"/>
<path d="M171.967 152.047L178.223 153.69L177.065 157.972L167.124 155.14L164.452 151.169L184.538 137.656L187.286 141.741L171.967 152.047ZM170.815 138.943C169.624 139.744 168.343 140.455 166.974 141.074C165.592 141.674 164.215 142.037 162.844 142.163C161.46 142.27 160.131 142.051 158.858 141.506C157.566 140.974 156.418 139.961 155.413 138.467C154.407 136.973 153.902 135.527 153.896 134.13C153.871 132.745 154.175 131.442 154.809 130.219C155.43 128.977 156.285 127.839 157.374 126.804C158.451 125.75 159.585 124.822 160.776 124.02C161.968 123.219 163.255 122.518 164.637 121.918C166.006 121.299 167.383 120.936 168.767 120.829C170.138 120.703 171.47 120.906 172.762 121.438C174.035 121.982 175.174 123.002 176.179 124.496C177.184 125.99 177.699 127.429 177.724 128.814C177.73 130.211 177.423 131.53 176.802 132.772C176.169 133.995 175.313 135.134 174.237 136.188C173.147 137.223 172.007 138.141 170.815 138.943ZM167.953 134.687C168.482 134.331 169.103 133.886 169.815 133.352C170.515 132.799 171.135 132.189 171.676 131.523C172.217 130.857 172.584 130.157 172.776 129.423C172.957 128.669 172.786 127.905 172.264 127.13C171.755 126.373 171.118 125.937 170.352 125.82C169.587 125.703 168.794 125.769 167.973 126.019C167.152 126.269 166.36 126.624 165.597 127.082C164.821 127.521 164.169 127.919 163.639 128.276C163.11 128.632 162.495 129.086 161.796 129.639C161.083 130.174 160.457 130.774 159.916 131.44C159.375 132.106 159.015 132.815 158.834 133.569C158.654 134.322 158.819 135.076 159.328 135.833C159.849 136.608 160.493 137.055 161.258 137.171C162.011 137.269 162.798 137.193 163.619 136.943C164.44 136.693 165.238 136.349 166.014 135.909C166.777 135.451 167.423 135.043 167.953 134.687ZM155.192 105.491C154.417 106.012 153.593 106.36 152.722 106.535C151.837 106.69 150.974 106.694 150.133 106.545C149.279 106.378 148.481 106.05 147.739 105.56C146.978 105.083 146.337 104.456 145.815 103.681C145.294 102.905 144.955 102.075 144.8 101.191C144.625 100.319 144.628 99.4656 144.808 98.6303C144.975 97.7761 145.303 96.9782 145.793 96.2364C146.271 95.4757 146.897 94.8345 147.673 94.3129C148.448 93.7912 149.287 93.4462 150.191 93.2781C151.062 93.1037 151.925 93.1001 152.78 93.2672C153.621 93.4154 154.422 93.7281 155.183 94.2054C155.925 94.6954 156.556 95.3282 157.078 96.1036C157.6 96.879 157.948 97.7026 158.122 98.5744C158.278 99.4588 158.272 100.328 158.105 101.182C157.925 102.018 157.596 102.816 157.119 103.576C156.61 104.331 155.968 104.969 155.192 105.491ZM149.619 97.2066C148.863 97.7155 148.398 98.4129 148.225 99.2988C148.039 100.166 148.2 100.977 148.709 101.734C149.218 102.49 149.915 102.955 150.801 103.129C151.674 103.283 152.489 103.106 153.246 102.597C154.021 102.075 154.502 101.381 154.688 100.514C154.861 99.6281 154.693 98.8069 154.184 98.0504C153.675 97.2938 152.984 96.8384 152.111 96.684C151.225 96.5107 150.395 96.6849 149.619 97.2066ZM155.289 126.154C154.513 126.676 153.69 127.024 152.818 127.198C151.934 127.354 151.071 127.357 150.229 127.209C149.375 127.042 148.577 126.714 147.835 126.224C147.074 125.746 146.433 125.12 145.912 124.344C145.39 123.569 145.051 122.739 144.896 121.855C144.722 120.983 144.724 120.129 144.904 119.294C145.071 118.44 145.4 117.642 145.89 116.9C146.367 116.139 146.993 115.498 147.769 114.977C148.544 114.455 149.374 114.116 150.259 113.961C151.13 113.787 151.993 113.783 152.848 113.95C153.689 114.098 154.49 114.411 155.251 114.888C155.993 115.378 156.624 116.011 157.146 116.786C157.668 117.562 158.016 118.385 158.19 119.257C158.346 120.142 158.34 121.011 158.173 121.865C157.993 122.7 157.664 123.498 157.187 124.259C156.697 125.001 156.064 125.633 155.289 126.154ZM149.716 117.87C148.959 118.379 148.494 119.077 148.321 119.963C148.135 120.829 148.296 121.641 148.805 122.398C149.314 123.154 150.012 123.619 150.898 123.792C151.771 123.947 152.585 123.77 153.342 123.261C154.099 122.752 154.57 122.064 154.756 121.197C154.929 120.311 154.761 119.49 154.252 118.733C153.743 117.977 153.052 117.521 152.179 117.367C151.293 117.194 150.472 117.361 149.716 117.87ZM137.462 113.009L137.192 109.729L165.642 107.609L165.873 110.586L137.462 113.009Z" fill="url(#paint13_linear_1371_17787)"/>
</g>
<g filter="url(#filter6_d_1371_17787)">
<path d="M323.553 172.388L312.909 185.13L307.714 180.79L299.524 153.717L305.173 146.954L323.317 162.11L326.452 158.357L331.648 162.697L328.513 166.45L334.369 171.341L329.409 177.279L323.553 172.388ZM308.295 159.643L308.227 159.726L312.88 174.605L318.357 168.048L308.295 159.643ZM324.862 153.053C323.13 151.606 321.497 149.985 319.963 148.19C318.451 146.368 317.3 144.449 316.509 142.435C315.741 140.393 315.489 138.292 315.753 136.132C315.989 133.949 317.015 131.772 318.829 129.6C320.643 127.429 322.603 126.032 324.709 125.411C326.787 124.766 328.888 124.654 331.011 125.074C333.157 125.466 335.249 126.258 337.289 127.448C339.351 128.611 341.249 129.915 342.981 131.362C344.713 132.809 346.334 134.444 347.846 136.266C349.38 138.061 350.531 139.98 351.299 142.021C352.09 144.036 352.368 146.134 352.131 148.317C351.867 150.477 350.828 152.643 349.014 154.815C347.2 156.987 345.254 158.395 343.175 159.039C341.069 159.66 338.944 159.775 336.798 159.382C334.675 158.962 332.582 158.171 330.519 157.008C328.48 155.818 326.594 154.5 324.862 153.053ZM330.029 146.867C330.799 147.51 331.743 148.252 332.861 149.093C334.002 149.906 335.193 150.575 336.436 151.099C337.678 151.623 338.895 151.87 340.088 151.839C341.303 151.781 342.382 151.188 343.323 150.061C344.242 148.962 344.622 147.808 344.463 146.602C344.303 145.396 343.855 144.228 343.118 143.099C342.381 141.97 341.5 140.93 340.473 139.979C339.47 139.001 338.583 138.191 337.814 137.548C337.044 136.905 336.089 136.177 334.948 135.364C333.829 134.523 332.649 133.841 331.407 133.316C330.165 132.792 328.936 132.559 327.72 132.617C326.505 132.675 325.438 133.254 324.519 134.354C323.578 135.481 323.187 136.648 323.346 137.854C323.528 139.033 323.987 140.187 324.724 141.316C325.462 142.445 326.332 143.499 327.335 144.477C328.361 145.428 329.259 146.224 330.029 146.867ZM368.495 114.814C367.368 113.872 366.482 112.782 365.837 111.543C365.215 110.276 364.831 108.976 364.686 107.641C364.563 106.279 364.709 104.93 365.124 103.596C365.511 102.239 366.175 100.997 367.116 99.87C368.058 98.7428 369.162 97.8681 370.428 97.2458C371.667 96.6006 372.957 96.2306 374.296 96.1359C375.658 96.0136 377.007 96.1597 378.341 96.574C379.698 96.9609 380.94 97.625 382.067 98.5666C383.194 99.5081 384.083 100.624 384.732 101.913C385.378 103.152 385.761 104.453 385.884 105.815C386.029 107.15 385.908 108.496 385.521 109.853C385.107 111.187 384.429 112.418 383.487 113.545C382.546 114.672 381.456 115.558 380.216 116.203C378.95 116.826 377.635 117.198 376.273 117.32C374.934 117.415 373.586 117.269 372.229 116.882C370.867 116.445 369.623 115.755 368.495 114.814ZM378.554 102.773C377.454 101.854 376.198 101.458 374.785 101.585C373.395 101.684 372.241 102.284 371.322 103.383C370.404 104.483 370.008 105.739 370.135 107.152C370.285 108.537 370.909 109.689 372.009 110.608C373.136 111.549 374.394 111.97 375.784 111.871C377.197 111.744 378.363 111.131 379.281 110.031C380.2 108.932 380.584 107.689 380.434 106.304C380.308 104.891 379.681 103.714 378.554 102.773ZM337.355 124.017C336.228 123.075 335.341 121.985 334.696 120.746C334.074 119.479 333.69 118.179 333.545 116.844C333.423 115.481 333.569 114.133 333.983 112.799C334.37 111.442 335.034 110.2 335.976 109.073C336.917 107.946 338.021 107.071 339.288 106.449C340.527 105.803 341.816 105.433 343.155 105.339C344.518 105.216 345.866 105.362 347.2 105.777C348.557 106.164 349.799 106.828 350.926 107.769C352.054 108.711 352.928 109.815 353.551 111.081C354.196 112.321 354.579 113.621 354.702 114.984C354.847 116.318 354.726 117.664 354.339 119.021C353.925 120.356 353.247 121.586 352.305 122.713C351.364 123.84 350.274 124.727 349.035 125.372C347.768 125.994 346.454 126.366 345.091 126.489C343.752 126.583 342.404 126.437 341.047 126.05C339.713 125.636 338.482 124.958 337.355 124.017ZM347.413 111.976C346.313 111.057 345.057 110.661 343.644 110.788C342.255 110.887 341.1 111.487 340.182 112.586C339.263 113.686 338.867 114.942 338.994 116.355C339.144 117.74 339.769 118.892 340.868 119.811C341.968 120.729 343.213 121.139 344.602 121.039C346.015 120.913 347.181 120.299 348.099 119.2C349.018 118.1 349.402 116.858 349.253 115.472C349.126 114.06 348.513 112.894 347.413 111.976ZM349.377 91.353L354.209 89.5081L369.879 131.512L365.488 133.165L349.377 91.353Z" fill="url(#paint14_linear_1371_17787)"/>
</g>
<g filter="url(#filter7_d_1371_17787)">
<path d="M366.695 295.508L379.868 289.582C380.54 289.277 381.231 288.91 381.942 288.481C382.654 288.052 383.136 287.44 383.39 286.646C383.675 285.752 383.574 284.955 383.088 284.252C382.609 283.525 381.935 283.023 381.067 282.745C380.024 282.413 379.102 282.474 378.301 282.929C377.524 283.392 376.948 284.083 376.572 285.002L371.119 282.81C371.629 281.468 372.291 280.381 373.104 279.547C373.926 278.688 374.853 278.054 375.886 277.645C376.919 277.237 378.032 277.045 379.227 277.072C380.455 277.081 381.714 277.291 383.005 277.703C384.196 278.084 385.257 278.614 386.189 279.294C387.128 279.95 387.875 280.735 388.431 281.651C388.994 282.542 389.328 283.551 389.433 284.679C389.563 285.814 389.417 287.039 388.997 288.354C388.728 289.198 388.395 289.94 388 290.579C387.612 291.194 387.166 291.735 386.661 292.203C386.189 292.654 385.667 293.047 385.094 293.384C384.522 293.721 383.916 294.034 383.277 294.322L373.075 298.653L384.763 302.385L383.194 307.299L364.805 301.427L366.695 295.508ZM390.447 295.093C390.946 293.53 391.59 291.985 392.378 290.459C393.191 288.941 394.167 287.64 395.307 286.554C396.471 285.477 397.817 284.73 399.344 284.316C400.879 283.876 402.627 283.969 404.588 284.595C406.548 285.221 408.027 286.158 409.023 287.406C410.027 288.629 410.679 290.013 410.979 291.558C411.303 293.111 411.344 294.738 411.102 296.438C410.885 298.147 410.527 299.782 410.027 301.346C409.528 302.909 408.872 304.45 408.059 305.968C407.271 307.494 406.295 308.796 405.13 309.873C403.991 310.959 402.653 311.721 401.118 312.161C399.591 312.576 397.847 312.47 395.887 311.844C393.926 311.218 392.444 310.293 391.44 309.07C390.443 307.822 389.783 306.422 389.459 304.869C389.159 303.324 389.118 301.697 389.335 299.989C389.577 298.289 389.948 296.657 390.447 295.093ZM396.031 296.876C395.809 297.571 395.568 298.411 395.309 299.394C395.074 300.386 394.951 301.372 394.938 302.353C394.926 303.333 395.094 304.221 395.442 305.016C395.814 305.818 396.51 306.382 397.527 306.707C398.52 307.024 399.401 306.963 400.169 306.525C400.938 306.087 401.602 305.465 402.16 304.659C402.718 303.852 403.177 302.973 403.536 302.021C403.919 301.077 404.222 300.258 404.444 299.563C404.666 298.868 404.894 298.025 405.128 297.033C405.388 296.049 405.524 295.067 405.536 294.087C405.548 293.106 405.368 292.214 404.995 291.412C404.623 290.609 403.94 290.049 402.947 289.732C401.93 289.407 401.037 289.464 400.268 289.902C399.524 290.348 398.873 290.974 398.314 291.781C397.756 292.587 397.285 293.462 396.902 294.406C396.543 295.358 396.253 296.182 396.031 296.876ZM428.174 313.991C428.499 312.973 428.99 312.077 429.647 311.303C430.33 310.536 431.1 309.921 431.96 309.457C432.844 309.001 433.792 308.729 434.804 308.642C435.824 308.53 436.843 308.637 437.861 308.962C438.878 309.287 439.77 309.79 440.537 310.473C441.311 311.13 441.914 311.897 442.345 312.773C442.801 313.657 443.073 314.605 443.16 315.618C443.272 316.638 443.165 317.657 442.84 318.674C442.515 319.692 442.008 320.596 441.318 321.387C440.66 322.162 439.889 322.777 439.005 323.233C438.146 323.697 437.206 323.985 436.186 324.097C435.174 324.184 434.159 324.065 433.142 323.74C432.124 323.415 431.228 322.924 430.453 322.267C429.687 321.584 429.076 320.801 428.619 319.917C428.188 319.041 427.917 318.093 427.805 317.073C427.726 316.035 427.849 315.008 428.174 313.991ZM439.043 317.462C439.36 316.469 439.282 315.514 438.809 314.597C438.361 313.689 437.641 313.076 436.648 312.759C435.655 312.442 434.701 312.52 433.784 312.993C432.892 313.474 432.288 314.21 431.971 315.203C431.646 316.221 431.707 317.184 432.155 318.093C432.628 319.009 433.361 319.626 434.354 319.943C435.347 320.26 436.289 320.178 437.181 319.697C438.098 319.224 438.718 318.479 439.043 317.462ZM413.431 295.541C413.756 294.524 414.247 293.628 414.905 292.853C415.587 292.087 416.358 291.471 417.217 291.007C418.101 290.551 419.049 290.28 420.062 290.193C421.082 290.081 422.101 290.187 423.118 290.512C424.136 290.837 425.028 291.341 425.794 292.023C426.569 292.681 427.172 293.448 427.603 294.324C428.059 295.208 428.331 296.156 428.418 297.168C428.53 298.188 428.423 299.207 428.098 300.225C427.773 301.242 427.27 302.134 426.587 302.901C425.93 303.675 425.159 304.291 424.275 304.747C423.416 305.211 422.476 305.499 421.456 305.61C420.444 305.697 419.429 305.578 418.411 305.254C417.394 304.929 416.498 304.437 415.723 303.78C414.957 303.098 414.345 302.314 413.889 301.43C413.458 300.554 413.186 299.606 413.074 298.586C412.988 297.574 413.106 296.559 413.431 295.541ZM424.301 299.012C424.618 298.02 424.54 297.065 424.067 296.148C423.619 295.239 422.899 294.626 421.906 294.309C420.913 293.992 419.958 294.07 419.042 294.543C418.15 295.024 417.545 295.761 417.228 296.754C416.911 297.746 416.977 298.697 417.425 299.606C417.898 300.523 418.631 301.14 419.624 301.457C420.616 301.774 421.559 301.692 422.451 301.211C423.367 300.738 423.984 300.005 424.301 299.012ZM438.73 294.677L441.298 297.425L417.306 319.504L414.988 317L438.73 294.677Z" fill="url(#paint15_linear_1371_17787)"/>
<path d="M366.695 295.508L379.868 289.582C380.54 289.277 381.231 288.91 381.942 288.481C382.654 288.052 383.136 287.44 383.39 286.646C383.675 285.752 383.574 284.955 383.088 284.252C382.609 283.525 381.935 283.023 381.067 282.745C380.024 282.413 379.102 282.474 378.301 282.929C377.524 283.392 376.948 284.083 376.572 285.002L371.119 282.81C371.629 281.468 372.291 280.381 373.104 279.547C373.926 278.688 374.853 278.054 375.886 277.645C376.919 277.237 378.032 277.045 379.227 277.072C380.455 277.081 381.714 277.291 383.005 277.703C384.196 278.084 385.257 278.614 386.189 279.294C387.128 279.95 387.875 280.735 388.431 281.651C388.994 282.542 389.328 283.551 389.433 284.679C389.563 285.814 389.417 287.039 388.997 288.354C388.728 289.198 388.395 289.94 388 290.579C387.612 291.194 387.166 291.735 386.661 292.203C386.189 292.654 385.667 293.047 385.094 293.384C384.522 293.721 383.916 294.034 383.277 294.322L373.075 298.653L384.763 302.385L383.194 307.299L364.805 301.427L366.695 295.508ZM390.447 295.093C390.946 293.53 391.59 291.985 392.378 290.459C393.191 288.941 394.167 287.64 395.307 286.554C396.471 285.477 397.817 284.73 399.344 284.316C400.879 283.876 402.627 283.969 404.588 284.595C406.548 285.221 408.027 286.158 409.023 287.406C410.027 288.629 410.679 290.013 410.979 291.558C411.303 293.111 411.344 294.738 411.102 296.438C410.885 298.147 410.527 299.782 410.027 301.346C409.528 302.909 408.872 304.45 408.059 305.968C407.271 307.494 406.295 308.796 405.13 309.873C403.991 310.959 402.653 311.721 401.118 312.161C399.591 312.576 397.847 312.47 395.887 311.844C393.926 311.218 392.444 310.293 391.44 309.07C390.443 307.822 389.783 306.422 389.459 304.869C389.159 303.324 389.118 301.697 389.335 299.989C389.577 298.289 389.948 296.657 390.447 295.093ZM396.031 296.876C395.809 297.571 395.568 298.411 395.309 299.394C395.074 300.386 394.951 301.372 394.938 302.353C394.926 303.333 395.094 304.221 395.442 305.016C395.814 305.818 396.51 306.382 397.527 306.707C398.52 307.024 399.401 306.963 400.169 306.525C400.938 306.087 401.602 305.465 402.16 304.659C402.718 303.852 403.177 302.973 403.536 302.021C403.919 301.077 404.222 300.258 404.444 299.563C404.666 298.868 404.894 298.025 405.128 297.033C405.388 296.049 405.524 295.067 405.536 294.087C405.548 293.106 405.368 292.214 404.995 291.412C404.623 290.609 403.94 290.049 402.947 289.732C401.93 289.407 401.037 289.464 400.268 289.902C399.524 290.348 398.873 290.974 398.314 291.781C397.756 292.587 397.285 293.462 396.902 294.406C396.543 295.358 396.253 296.182 396.031 296.876ZM428.174 313.991C428.499 312.973 428.99 312.077 429.647 311.303C430.33 310.536 431.1 309.921 431.96 309.457C432.844 309.001 433.792 308.729 434.804 308.642C435.824 308.53 436.843 308.637 437.861 308.962C438.878 309.287 439.77 309.79 440.537 310.473C441.311 311.13 441.914 311.897 442.345 312.773C442.801 313.657 443.073 314.605 443.16 315.618C443.272 316.638 443.165 317.657 442.84 318.674C442.515 319.692 442.008 320.596 441.318 321.387C440.66 322.162 439.889 322.777 439.005 323.233C438.146 323.697 437.206 323.985 436.186 324.097C435.174 324.184 434.159 324.065 433.142 323.74C432.124 323.415 431.228 322.924 430.453 322.267C429.687 321.584 429.076 320.801 428.619 319.917C428.188 319.041 427.917 318.093 427.805 317.073C427.726 316.035 427.849 315.008 428.174 313.991ZM439.043 317.462C439.36 316.469 439.282 315.514 438.809 314.597C438.361 313.689 437.641 313.076 436.648 312.759C435.655 312.442 434.701 312.52 433.784 312.993C432.892 313.474 432.288 314.21 431.971 315.203C431.646 316.221 431.707 317.184 432.155 318.093C432.628 319.009 433.361 319.626 434.354 319.943C435.347 320.26 436.289 320.178 437.181 319.697C438.098 319.224 438.718 318.479 439.043 317.462ZM413.431 295.541C413.756 294.524 414.247 293.628 414.905 292.853C415.587 292.087 416.358 291.471 417.217 291.007C418.101 290.551 419.049 290.28 420.062 290.193C421.082 290.081 422.101 290.187 423.118 290.512C424.136 290.837 425.028 291.341 425.794 292.023C426.569 292.681 427.172 293.448 427.603 294.324C428.059 295.208 428.331 296.156 428.418 297.168C428.53 298.188 428.423 299.207 428.098 300.225C427.773 301.242 427.27 302.134 426.587 302.901C425.93 303.675 425.159 304.291 424.275 304.747C423.416 305.211 422.476 305.499 421.456 305.61C420.444 305.697 419.429 305.578 418.411 305.254C417.394 304.929 416.498 304.437 415.723 303.78C414.957 303.098 414.345 302.314 413.889 301.43C413.458 300.554 413.186 299.606 413.074 298.586C412.988 297.574 413.106 296.559 413.431 295.541ZM424.301 299.012C424.618 298.02 424.54 297.065 424.067 296.148C423.619 295.239 422.899 294.626 421.906 294.309C420.913 293.992 419.958 294.07 419.042 294.543C418.15 295.024 417.545 295.761 417.228 296.754C416.911 297.746 416.977 298.697 417.425 299.606C417.898 300.523 418.631 301.14 419.624 301.457C420.616 301.774 421.559 301.692 422.451 301.211C423.367 300.738 423.984 300.005 424.301 299.012ZM438.73 294.677L441.298 297.425L417.306 319.504L414.988 317L438.73 294.677Z" fill="url(#paint16_linear_1371_17787)"/>
</g>
<g filter="url(#filter8_d_1371_17787)">
<path d="M263.249 365.717C263.328 366.116 263.391 366.514 263.438 366.911C263.485 367.308 263.498 367.72 263.477 368.147C263.398 369.789 263.03 371.269 262.374 372.587C261.718 373.905 260.858 375.016 259.794 375.919C258.73 376.822 257.479 377.503 256.042 377.96C254.637 378.419 253.147 378.61 251.57 378.534C249.764 378.447 248.139 378.023 246.694 377.262C245.281 376.536 244.077 375.556 243.083 374.323C242.088 373.123 241.333 371.704 240.82 370.066C240.337 368.463 240.14 366.758 240.227 364.952C240.316 363.113 240.677 361.419 241.311 359.869C241.979 358.321 242.866 356.982 243.974 355.85C245.08 354.751 246.373 353.892 247.851 353.272C249.361 352.686 251.018 352.437 252.825 352.524C254.073 352.585 255.2 352.754 256.207 353.033C257.247 353.314 258.218 353.657 259.12 354.062C260.021 354.501 260.87 354.986 261.667 355.518C262.495 356.085 263.339 356.669 264.199 357.27L275.752 365.48L275.317 374.495L263.249 365.717ZM252.222 371.159C253.799 371.236 255.121 370.773 256.19 369.771C257.29 368.803 257.88 367.482 257.961 365.807C258.042 364.133 257.582 362.744 256.582 361.643C255.613 360.575 254.34 360.004 252.764 359.928C251.188 359.852 249.849 360.297 248.749 361.265C247.681 362.267 247.106 363.605 247.025 365.28C246.944 366.955 247.388 368.326 248.357 369.393C249.358 370.495 250.646 371.083 252.222 371.159ZM257.471 382.117C259.54 382.217 261.633 382.499 263.75 382.963C265.866 383.46 267.771 384.227 269.465 385.263C271.159 386.332 272.507 387.731 273.51 389.458C274.545 391.187 275.001 393.348 274.876 395.943C274.75 398.537 274.089 400.645 272.892 402.266C271.727 403.888 270.252 405.134 268.465 406.002C266.677 406.904 264.707 407.484 262.555 407.742C260.401 408.033 258.29 408.129 256.221 408.029C254.152 407.929 252.06 407.631 249.944 407.134C247.827 406.669 245.922 405.903 244.229 404.833C242.534 403.797 241.169 402.415 240.133 400.686C239.13 398.959 238.691 396.798 238.816 394.203C238.941 391.609 239.586 389.5 240.751 387.878C241.948 386.257 243.441 384.996 245.229 384.094C247.015 383.226 248.985 382.646 251.139 382.355C253.291 382.097 255.402 382.017 257.471 382.117ZM257.114 389.506C256.195 389.462 255.093 389.442 253.809 389.446C252.523 389.483 251.281 389.653 250.081 389.957C248.881 390.261 247.854 390.755 246.998 391.438C246.14 392.154 245.679 393.185 245.614 394.531C245.551 395.845 245.911 396.899 246.696 397.694C247.481 398.489 248.455 399.096 249.62 399.514C250.785 399.932 252.006 400.205 253.284 400.333C254.56 400.493 255.658 400.595 256.577 400.64C257.497 400.684 258.599 400.688 259.885 400.651C261.169 400.647 262.411 400.493 263.61 400.189C264.81 399.885 265.839 399.375 266.696 398.659C267.554 397.943 268.014 396.928 268.077 395.615C268.142 394.268 267.783 393.198 266.998 392.403C266.212 391.64 265.236 391.05 264.071 390.632C262.907 390.214 261.686 389.924 260.41 389.764C259.132 389.637 258.034 389.551 257.114 389.506ZM246.709 434.273C248.056 434.337 249.308 434.645 250.467 435.194C251.624 435.777 252.625 436.516 253.471 437.413C254.314 438.343 254.954 439.41 255.39 440.616C255.858 441.824 256.06 443.101 255.995 444.448C255.93 445.794 255.606 447.046 255.024 448.203C254.474 449.361 253.736 450.346 252.808 451.157C251.878 452.001 250.81 452.641 249.604 453.076C248.397 453.545 247.12 453.747 245.773 453.682C244.427 453.617 243.159 453.292 241.969 452.708C240.81 452.158 239.809 451.419 238.965 450.489C238.12 449.593 237.463 448.541 236.994 447.333C236.559 446.127 236.373 444.851 236.438 443.504C236.503 442.158 236.81 440.905 237.36 439.747C237.943 438.59 238.699 437.589 239.628 436.745C240.556 435.934 241.624 435.295 242.831 434.826C244.07 434.392 245.363 434.208 246.709 434.273ZM246.016 448.657C247.329 448.72 248.468 448.314 249.432 447.439C250.394 446.597 250.907 445.519 250.97 444.205C251.034 442.892 250.628 441.753 249.753 440.789C248.876 439.858 247.781 439.361 246.467 439.297C245.121 439.232 243.966 439.621 243.004 440.463C242.04 441.339 241.526 442.433 241.463 443.747C241.4 445.06 241.806 446.183 242.683 447.114C243.558 448.078 244.669 448.592 246.016 448.657ZM264.407 410.29C265.754 410.355 267.006 410.662 268.165 411.212C269.322 411.794 270.323 412.534 271.168 413.43C272.012 414.36 272.652 415.428 273.088 416.634C273.556 417.841 273.758 419.118 273.693 420.465C273.628 421.811 273.304 423.063 272.722 424.22C272.172 425.379 271.433 426.363 270.505 427.174C269.576 428.018 268.508 428.658 267.302 429.094C266.094 429.562 264.817 429.764 263.471 429.699C262.124 429.634 260.873 429.31 259.716 428.728C258.557 428.178 257.556 427.439 256.712 426.509C255.867 425.613 255.21 424.56 254.741 423.353C254.306 422.147 254.12 420.87 254.185 419.524C254.25 418.178 254.557 416.925 255.107 415.767C255.69 414.61 256.446 413.609 257.375 412.765C258.303 411.954 259.371 411.314 260.578 410.846C261.784 410.41 263.061 410.225 264.407 410.29ZM263.713 424.674C265.027 424.738 266.166 424.332 267.13 423.457C268.092 422.614 268.605 421.536 268.668 420.223C268.731 418.909 268.326 417.77 267.45 416.806C266.574 415.875 265.478 415.378 264.165 415.315C262.851 415.251 261.713 415.641 260.751 416.483C259.787 417.358 259.273 418.453 259.21 419.766C259.147 421.08 259.553 422.202 260.43 423.133C261.305 424.097 262.4 424.611 263.713 424.674ZM273.697 440.857L271.182 444.884L236.449 422.816L238.747 419.174L273.697 440.857Z" fill="url(#paint17_linear_1371_17787)"/>
<path d="M263.249 365.717C263.328 366.116 263.391 366.514 263.438 366.911C263.485 367.308 263.498 367.72 263.477 368.147C263.398 369.789 263.03 371.269 262.374 372.587C261.718 373.905 260.858 375.016 259.794 375.919C258.73 376.822 257.479 377.503 256.042 377.96C254.637 378.419 253.147 378.61 251.57 378.534C249.764 378.447 248.139 378.023 246.694 377.262C245.281 376.536 244.077 375.556 243.083 374.323C242.088 373.123 241.333 371.704 240.82 370.066C240.337 368.463 240.14 366.758 240.227 364.952C240.316 363.113 240.677 361.419 241.311 359.869C241.979 358.321 242.866 356.982 243.974 355.85C245.08 354.751 246.373 353.892 247.851 353.272C249.361 352.686 251.018 352.437 252.825 352.524C254.073 352.585 255.2 352.754 256.207 353.033C257.247 353.314 258.218 353.657 259.12 354.062C260.021 354.501 260.87 354.986 261.667 355.518C262.495 356.085 263.339 356.669 264.199 357.27L275.752 365.48L275.317 374.495L263.249 365.717ZM252.222 371.159C253.799 371.236 255.121 370.773 256.19 369.771C257.29 368.803 257.88 367.482 257.961 365.807C258.042 364.133 257.582 362.744 256.582 361.643C255.613 360.575 254.34 360.004 252.764 359.928C251.188 359.852 249.849 360.297 248.749 361.265C247.681 362.267 247.106 363.605 247.025 365.28C246.944 366.955 247.388 368.326 248.357 369.393C249.358 370.495 250.646 371.083 252.222 371.159ZM257.471 382.117C259.54 382.217 261.633 382.499 263.75 382.963C265.866 383.46 267.771 384.227 269.465 385.263C271.159 386.332 272.507 387.731 273.51 389.458C274.545 391.187 275.001 393.348 274.876 395.943C274.75 398.537 274.089 400.645 272.892 402.266C271.727 403.888 270.252 405.134 268.465 406.002C266.677 406.904 264.707 407.484 262.555 407.742C260.401 408.033 258.29 408.129 256.221 408.029C254.152 407.929 252.06 407.631 249.944 407.134C247.827 406.669 245.922 405.903 244.229 404.833C242.534 403.797 241.169 402.415 240.133 400.686C239.13 398.959 238.691 396.798 238.816 394.203C238.941 391.609 239.586 389.5 240.751 387.878C241.948 386.257 243.441 384.996 245.229 384.094C247.015 383.226 248.985 382.646 251.139 382.355C253.291 382.097 255.402 382.017 257.471 382.117ZM257.114 389.506C256.195 389.462 255.093 389.442 253.809 389.446C252.523 389.483 251.281 389.653 250.081 389.957C248.881 390.261 247.854 390.755 246.998 391.438C246.14 392.154 245.679 393.185 245.614 394.531C245.551 395.845 245.911 396.899 246.696 397.694C247.481 398.489 248.455 399.096 249.62 399.514C250.785 399.932 252.006 400.205 253.284 400.333C254.56 400.493 255.658 400.595 256.577 400.64C257.497 400.684 258.599 400.688 259.885 400.651C261.169 400.647 262.411 400.493 263.61 400.189C264.81 399.885 265.839 399.375 266.696 398.659C267.554 397.943 268.014 396.928 268.077 395.615C268.142 394.268 267.783 393.198 266.998 392.403C266.212 391.64 265.236 391.05 264.071 390.632C262.907 390.214 261.686 389.924 260.41 389.764C259.132 389.637 258.034 389.551 257.114 389.506ZM246.709 434.273C248.056 434.337 249.308 434.645 250.467 435.194C251.624 435.777 252.625 436.516 253.471 437.413C254.314 438.343 254.954 439.41 255.39 440.616C255.858 441.824 256.06 443.101 255.995 444.448C255.93 445.794 255.606 447.046 255.024 448.203C254.474 449.361 253.736 450.346 252.808 451.157C251.878 452.001 250.81 452.641 249.604 453.076C248.397 453.545 247.12 453.747 245.773 453.682C244.427 453.617 243.159 453.292 241.969 452.708C240.81 452.158 239.809 451.419 238.965 450.489C238.12 449.593 237.463 448.541 236.994 447.333C236.559 446.127 236.373 444.851 236.438 443.504C236.503 442.158 236.81 440.905 237.36 439.747C237.943 438.59 238.699 437.589 239.628 436.745C240.556 435.934 241.624 435.295 242.831 434.826C244.07 434.392 245.363 434.208 246.709 434.273ZM246.016 448.657C247.329 448.72 248.468 448.314 249.432 447.439C250.394 446.597 250.907 445.519 250.97 444.205C251.034 442.892 250.628 441.753 249.753 440.789C248.876 439.858 247.781 439.361 246.467 439.297C245.121 439.232 243.966 439.621 243.004 440.463C242.04 441.339 241.526 442.433 241.463 443.747C241.4 445.06 241.806 446.183 242.683 447.114C243.558 448.078 244.669 448.592 246.016 448.657ZM264.407 410.29C265.754 410.355 267.006 410.662 268.165 411.212C269.322 411.794 270.323 412.534 271.168 413.43C272.012 414.36 272.652 415.428 273.088 416.634C273.556 417.841 273.758 419.118 273.693 420.465C273.628 421.811 273.304 423.063 272.722 424.22C272.172 425.379 271.433 426.363 270.505 427.174C269.576 428.018 268.508 428.658 267.302 429.094C266.094 429.562 264.817 429.764 263.471 429.699C262.124 429.634 260.873 429.31 259.716 428.728C258.557 428.178 257.556 427.439 256.712 426.509C255.867 425.613 255.21 424.56 254.741 423.353C254.306 422.147 254.12 420.87 254.185 419.524C254.25 418.178 254.557 416.925 255.107 415.767C255.69 414.61 256.446 413.609 257.375 412.765C258.303 411.954 259.371 411.314 260.578 410.846C261.784 410.41 263.061 410.225 264.407 410.29ZM263.713 424.674C265.027 424.738 266.166 424.332 267.13 423.457C268.092 422.614 268.605 421.536 268.668 420.223C268.731 418.909 268.326 417.77 267.45 416.806C266.574 415.875 265.478 415.378 264.165 415.315C262.851 415.251 261.713 415.641 260.751 416.483C259.787 417.358 259.273 418.453 259.21 419.766C259.147 421.08 259.553 422.202 260.43 423.133C261.305 424.097 262.4 424.611 263.713 424.674ZM273.697 440.857L271.182 444.884L236.449 422.816L238.747 419.174L273.697 440.857Z" fill="url(#paint18_linear_1371_17787)"/>
</g>
<g filter="url(#filter9_d_1371_17787)">
<path d="M171.395 295.585C172.156 297.166 172.525 298.678 172.503 300.12C172.464 301.609 172.115 302.989 171.454 304.261C170.777 305.58 169.838 306.768 168.636 307.822C167.434 308.877 166.042 309.785 164.461 310.546C162.879 311.307 161.301 311.827 159.726 312.107C158.152 312.388 156.654 312.373 155.233 312.062C153.827 311.784 152.531 311.196 151.343 310.296C150.171 309.429 149.204 308.205 148.444 306.623C147.543 304.751 147.291 302.904 147.688 301.084C148.052 299.279 149.022 297.66 150.598 296.226L150.551 296.129C148.221 296.574 146.158 296.334 144.362 295.409C142.582 294.517 141.179 293.005 140.154 290.875C139.362 289.228 139.003 287.613 139.075 286.028C139.115 284.458 139.498 282.982 140.225 281.6C140.934 280.265 141.914 279.038 143.165 277.92C144.416 276.802 145.832 275.862 147.414 275.101C148.996 274.341 150.614 273.821 152.268 273.542C153.923 273.263 155.509 273.255 157.027 273.519C158.528 273.83 159.921 274.452 161.204 275.385C162.455 276.334 163.476 277.631 164.268 279.277C165.293 281.408 165.598 283.447 165.184 285.396C164.785 287.376 163.684 289.138 161.882 290.68L161.929 290.777C164.033 290.441 165.919 290.686 167.589 291.513C169.226 292.355 170.495 293.712 171.395 295.585ZM163.643 298.061C163.131 296.996 162.309 296.278 161.177 295.908C160.045 295.538 158.85 295.656 157.591 296.262C156.332 296.867 155.493 297.727 155.076 298.842C154.658 299.958 154.705 301.048 155.218 302.113C155.715 303.146 156.529 303.847 157.661 304.217C158.793 304.587 159.988 304.469 161.247 303.864C162.506 303.258 163.344 302.398 163.762 301.283C164.18 300.168 164.14 299.094 163.643 298.061ZM157.494 283.788C156.92 282.593 155.995 281.786 154.72 281.366C153.444 280.946 152.08 281.085 150.628 281.783C149.175 282.482 148.215 283.461 147.747 284.719C147.279 285.978 147.332 287.204 147.907 288.399C148.496 289.625 149.429 290.449 150.704 290.869C151.98 291.289 153.344 291.15 154.796 290.451C156.249 289.752 157.209 288.774 157.677 287.515C158.145 286.257 158.084 285.014 157.494 283.788ZM140.016 300.481C140.994 302.514 141.81 304.666 142.465 306.935C143.086 309.219 143.341 311.442 143.227 313.603C143.082 315.78 142.442 317.797 141.308 319.654C140.189 321.543 138.355 323.101 135.805 324.328C133.255 325.554 130.892 326.015 128.718 325.709C126.559 325.435 124.601 324.668 122.842 323.408C121.05 322.162 119.473 320.576 118.108 318.649C116.712 316.737 115.525 314.764 114.546 312.73C113.568 310.696 112.768 308.537 112.147 306.253C111.493 303.984 111.238 301.761 111.384 299.584C111.497 297.423 112.113 295.398 113.232 293.508C114.366 291.651 116.208 290.109 118.758 288.883C121.308 287.656 123.663 287.18 125.821 287.453C127.996 287.759 129.978 288.535 131.77 289.78C133.529 291.04 135.106 292.627 136.503 294.539C137.867 296.466 139.038 298.447 140.016 300.481ZM132.753 303.974C132.318 303.07 131.766 302.004 131.096 300.776C130.394 299.564 129.585 298.462 128.671 297.471C127.757 296.479 126.751 295.751 125.653 295.285C124.522 294.835 123.295 294.929 121.972 295.565C120.681 296.186 119.858 297.079 119.503 298.243C119.149 299.407 119.074 300.655 119.278 301.988C119.481 303.321 119.854 304.633 120.395 305.923C120.903 307.228 121.375 308.333 121.81 309.237C122.244 310.141 122.813 311.199 123.515 312.411C124.185 313.639 124.977 314.749 125.891 315.74C126.805 316.731 127.828 317.452 128.958 317.902C130.089 318.352 131.3 318.267 132.591 317.645C133.915 317.009 134.753 316.109 135.108 314.945C135.43 313.796 135.489 312.555 135.285 311.222C135.081 309.889 134.725 308.57 134.217 307.265C133.676 305.975 133.188 304.878 132.753 303.974ZM84.471 317.238C85.1076 318.561 85.4632 319.92 85.5379 321.315C85.5803 322.726 85.3914 324.069 84.9713 325.344C84.5189 326.635 83.828 327.802 82.8988 328.845C81.9851 329.92 80.8664 330.776 79.5429 331.413C78.2194 332.049 76.8524 332.389 75.4418 332.431C74.0468 332.506 72.7201 332.309 71.4616 331.841C70.1708 331.389 69.0039 330.698 67.9607 329.769C66.8853 328.855 66.0294 327.736 65.3928 326.413C64.7563 325.089 64.4091 323.706 64.3511 322.263C64.2764 320.868 64.4653 319.526 64.9177 318.235C65.3378 316.96 66.0048 315.784 66.9185 314.709C67.8477 313.666 68.9741 312.826 70.2976 312.189C71.6212 311.553 72.9804 311.197 74.3754 311.122C75.786 311.08 77.1366 311.285 78.4274 311.737C79.6859 312.205 80.8528 312.896 81.9282 313.81C82.9869 314.772 83.8345 315.914 84.471 317.238ZM70.3319 324.038C70.9529 325.329 71.9327 326.209 73.2712 326.678C74.5775 327.163 75.8763 327.095 77.1676 326.474C78.4588 325.853 79.339 324.873 79.8082 323.534C80.2451 322.211 80.153 320.904 79.532 319.613C78.8955 318.289 77.9241 317.385 76.6178 316.901C75.2792 316.431 73.9643 316.507 72.673 317.128C71.3818 317.749 70.5177 318.721 70.0808 320.044C69.6116 321.383 69.6953 322.714 70.3319 324.038ZM116.629 321.745C117.265 323.069 117.621 324.428 117.695 325.823C117.738 327.233 117.549 328.576 117.129 329.852C116.676 331.142 115.986 332.309 115.056 333.352C114.143 334.428 113.024 335.284 111.701 335.92C110.377 336.557 109.01 336.896 107.599 336.939C106.204 337.013 104.878 336.817 103.619 336.349C102.328 335.896 101.161 335.206 100.118 334.276C99.0429 333.363 98.187 332.244 97.5504 330.92C96.9139 329.597 96.5744 328.23 96.532 326.819C96.4573 325.424 96.6462 324.082 97.0986 322.791C97.5187 321.515 98.1857 320.34 99.0994 319.265C100.029 318.222 101.155 317.382 102.479 316.745C103.802 316.109 105.161 315.753 106.556 315.678C107.967 315.636 109.318 315.841 110.608 316.293C111.867 316.761 113.034 317.452 114.109 318.366C115.152 319.295 115.992 320.422 116.629 321.745ZM102.489 328.545C103.11 329.836 104.09 330.717 105.429 331.186C106.735 331.67 108.034 331.602 109.325 330.981C110.616 330.36 111.497 329.38 111.966 328.042C112.403 326.719 112.311 325.412 111.69 324.12C111.069 322.829 110.105 321.941 108.799 321.457C107.46 320.987 106.145 321.063 104.854 321.684C103.563 322.305 102.699 323.277 102.262 324.6C101.793 325.939 101.868 327.254 102.489 328.545ZM92.1681 346.507L87.0061 346.187L90.1206 301.463L94.8021 301.776L92.1681 346.507Z" fill="url(#paint19_linear_1371_17787)"/>
</g>
<defs>
<filter id="filter0_d_1371_17787" x="240.627" y="1.02308" width="26.7462" height="26.7462" filterUnits="userSpaceOnUse" color-interpolation-filters="sRGB">
<feFlood flood-opacity="0" result="BackgroundImageFix"/>
<feColorMatrix in="SourceAlpha" type="matrix" values="0 0 0 0 0 0 0 0 0 0 0 0 0 0 0 0 0 0 127 0" result="hardAlpha"/>
<feOffset dy="4.39615"/>
<feGaussianBlur stdDeviation="2.68654"/>
<feComposite in2="hardAlpha" operator="out"/>
<feColorMatrix type="matrix" values="0 0 0 0 0.304451 0 0 0 0 0 0 0 0 0 0 0 0 0 0.6 0"/>
<feBlend mode="normal" in2="BackgroundImageFix" result="effect1_dropShadow_1371_17787"/>
<feBlend mode="normal" in="SourceGraphic" in2="effect1_dropShadow_1371_17787" result="shape"/>
</filter>
<filter id="filter1_d_1371_17787" x="384.627" y="442.023" width="26.7462" height="26.7462" filterUnits="userSpaceOnUse" color-interpolation-filters="sRGB">
<feFlood flood-opacity="0" result="BackgroundImageFix"/>
<feColorMatrix in="SourceAlpha" type="matrix" values="0 0 0 0 0 0 0 0 0 0 0 0 0 0 0 0 0 0 127 0" result="hardAlpha"/>
<feOffset dy="4.39615"/>
<feGaussianBlur stdDeviation="2.68654"/>
<feComposite in2="hardAlpha" operator="out"/>
<feColorMatrix type="matrix" values="0 0 0 0 0.304451 0 0 0 0 0 0 0 0 0 0 0 0 0 0.6 0"/>
<feBlend mode="normal" in2="BackgroundImageFix" result="effect1_dropShadow_1371_17787"/>
<feBlend mode="normal" in="SourceGraphic" in2="effect1_dropShadow_1371_17787" result="shape"/>
</filter>
<filter id="filter2_d_1371_17787" x="472.627" y="168.023" width="26.7462" height="26.7462" filterUnits="userSpaceOnUse" color-interpolation-filters="sRGB">
<feFlood flood-opacity="0" result="BackgroundImageFix"/>
<feColorMatrix in="SourceAlpha" type="matrix" values="0 0 0 0 0 0 0 0 0 0 0 0 0 0 0 0 0 0 127 0" result="hardAlpha"/>
<feOffset dy="4.39615"/>
<feGaussianBlur stdDeviation="2.68654"/>
<feComposite in2="hardAlpha" operator="out"/>
<feColorMatrix type="matrix" values="0 0 0 0 0.304451 0 0 0 0 0 0 0 0 0 0 0 0 0 0.6 0"/>
<feBlend mode="normal" in2="BackgroundImageFix" result="effect1_dropShadow_1371_17787"/>
<feBlend mode="normal" in="SourceGraphic" in2="effect1_dropShadow_1371_17787" result="shape"/>
</filter>
<filter id="filter3_d_1371_17787" x="9.62692" y="170.023" width="26.7462" height="26.7462" filterUnits="userSpaceOnUse" color-interpolation-filters="sRGB">
<feFlood flood-opacity="0" result="BackgroundImageFix"/>
<feColorMatrix in="SourceAlpha" type="matrix" values="0 0 0 0 0 0 0 0 0 0 0 0 0 0 0 0 0 0 127 0" result="hardAlpha"/>
<feOffset dy="4.39615"/>
<feGaussianBlur stdDeviation="2.68654"/>
<feComposite in2="hardAlpha" operator="out"/>
<feColorMatrix type="matrix" values="0 0 0 0 0.304451 0 0 0 0 0 0 0 0 0 0 0 0 0 0.6 0"/>
<feBlend mode="normal" in2="BackgroundImageFix" result="effect1_dropShadow_1371_17787"/>
<feBlend mode="normal" in="SourceGraphic" in2="effect1_dropShadow_1371_17787" result="shape"/>
</filter>
<filter id="filter4_d_1371_17787" x="97.6269" y="440.023" width="26.7462" height="26.7462" filterUnits="userSpaceOnUse" color-interpolation-filters="sRGB">
<feFlood flood-opacity="0" result="BackgroundImageFix"/>
<feColorMatrix in="SourceAlpha" type="matrix" values="0 0 0 0 0 0 0 0 0 0 0 0 0 0 0 0 0 0 127 0" result="hardAlpha"/>
<feOffset dy="4.39615"/>
<feGaussianBlur stdDeviation="2.68654"/>
<feComposite in2="hardAlpha" operator="out"/>
<feColorMatrix type="matrix" values="0 0 0 0 0.304451 0 0 0 0 0 0 0 0 0 0 0 0 0 0.6 0"/>
<feBlend mode="normal" in2="BackgroundImageFix" result="effect1_dropShadow_1371_17787"/>
<feBlend mode="normal" in="SourceGraphic" in2="effect1_dropShadow_1371_17787" result="shape"/>
</filter>
<filter id="filter5_d_1371_17787" x="128.584" y="90.1331" width="67.3423" height="79.2136" filterUnits="userSpaceOnUse" color-interpolation-filters="sRGB">
<feFlood flood-opacity="0" result="BackgroundImageFix"/>
<feColorMatrix in="SourceAlpha" type="matrix" values="0 0 0 0 0 0 0 0 0 0 0 0 0 0 0 0 0 0 127 0" result="hardAlpha"/>
<feOffset dy="3.64248"/>
<feGaussianBlur stdDeviation="1.69983"/>
<feComposite in2="hardAlpha" operator="out"/>
<feColorMatrix type="matrix" values="0 0 0 0 0 0 0 0 0 0 0 0 0 0 0 0 0 0 0.25 0"/>
<feBlend mode="normal" in2="BackgroundImageFix" result="effect1_dropShadow_1371_17787"/>
<feBlend mode="normal" in="SourceGraphic" in2="effect1_dropShadow_1371_17787" result="shape"/>
</filter>
<filter id="filter6_d_1371_17787" x="282.876" y="78.5411" width="113.595" height="122.352" filterUnits="userSpaceOnUse" color-interpolation-filters="sRGB">
<feFlood flood-opacity="0" result="BackgroundImageFix"/>
<feColorMatrix in="SourceAlpha" type="matrix" values="0 0 0 0 0 0 0 0 0 0 0 0 0 0 0 0 0 0 127 0" result="hardAlpha"/>
<feOffset dy="4.39615"/>
<feGaussianBlur stdDeviation="2.68654"/>
<feComposite in2="hardAlpha" operator="out"/>
<feColorMatrix type="matrix" values="0 0 0 0 0.304451 0 0 0 0 0 0 0 0 0 0 0 0 0 0.6 0"/>
<feBlend mode="normal" in2="BackgroundImageFix" result="effect1_dropShadow_1371_17787"/>
<feBlend mode="normal" in="SourceGraphic" in2="effect1_dropShadow_1371_17787" result="shape"/>
</filter>
<filter id="filter7_d_1371_17787" x="361.025" y="273.88" width="91.7881" height="59.9882" filterUnits="userSpaceOnUse" color-interpolation-filters="sRGB">
<feFlood flood-opacity="0" result="BackgroundImageFix"/>
<feColorMatrix in="SourceAlpha" type="matrix" values="0 0 0 0 0 0 0 0 0 0 0 0 0 0 0 0 0 0 127 0" result="hardAlpha"/>
<feOffset dy="3.64248"/>
<feGaussianBlur stdDeviation="1.69983"/>
<feComposite in2="hardAlpha" operator="out"/>
<feColorMatrix type="matrix" values="0 0 0 0 0 0 0 0 0 0 0 0 0 0 0 0 0 0 0.25 0"/>
<feBlend mode="normal" in2="BackgroundImageFix" result="effect1_dropShadow_1371_17787"/>
<feBlend mode="normal" in="SourceGraphic" in2="effect1_dropShadow_1371_17787" result="shape"/>
</filter>
<filter id="filter8_d_1371_17787" x="230.081" y="351.899" width="52.7213" height="113.254" filterUnits="userSpaceOnUse" color-interpolation-filters="sRGB">
<feFlood flood-opacity="0" result="BackgroundImageFix"/>
<feColorMatrix in="SourceAlpha" type="matrix" values="0 0 0 0 0 0 0 0 0 0 0 0 0 0 0 0 0 0 127 0" result="hardAlpha"/>
<feOffset dy="5.2539"/>
<feGaussianBlur stdDeviation="2.45182"/>
<feComposite in2="hardAlpha" operator="out"/>
<feColorMatrix type="matrix" values="0 0 0 0 0 0 0 0 0 0 0 0 0 0 0 0 0 0 0.25 0"/>
<feBlend mode="normal" in2="BackgroundImageFix" result="effect1_dropShadow_1371_17787"/>
<feBlend mode="normal" in="SourceGraphic" in2="effect1_dropShadow_1371_17787" result="shape"/>
</filter>
<filter id="filter9_d_1371_17787" x="56.8933" y="268.334" width="123.49" height="91.8982" filterUnits="userSpaceOnUse" color-interpolation-filters="sRGB">
<feFlood flood-opacity="0" result="BackgroundImageFix"/>
<feColorMatrix in="SourceAlpha" type="matrix" values="0 0 0 0 0 0 0 0 0 0 0 0 0 0 0 0 0 0 127 0" result="hardAlpha"/>
<feOffset dy="3.64248"/>
<feGaussianBlur stdDeviation="1.69983"/>
<feComposite in2="hardAlpha" operator="out"/>
<feColorMatrix type="matrix" values="0 0 0 0 0 0 0 0 0 0 0 0 0 0 0 0 0 0 0.25 0"/>
<feBlend mode="normal" in2="BackgroundImageFix" result="effect1_dropShadow_1371_17787"/>
<feBlend mode="normal" in="SourceGraphic" in2="effect1_dropShadow_1371_17787" result="shape"/>
</filter>
<linearGradient id="paint0_linear_1371_17787" x1="254.001" y1="0.00390625" x2="254.001" y2="508.004" gradientUnits="userSpaceOnUse">
<stop stop-color="#3E1F80"/>
<stop offset="0.0933267" stop-color="#653DB9"/>
<stop offset="0.369385" stop-color="#3E1F80"/>
<stop offset="0.494392" stop-color="#653DB9"/>
<stop offset="0.624608" stop-color="#3E1F80"/>
<stop offset="1" stop-color="#3E1F80"/>
</linearGradient>
<radialGradient id="paint1_radial_1371_17787" cx="0" cy="0" r="1" gradientUnits="userSpaceOnUse" gradientTransform="translate(254.002 254.004) rotate(90) scale(244.231)">
<stop stop-color="#8951FF"/>
<stop offset="1" stop-color="#4E1ABC"/>
</radialGradient>
<radialGradient id="paint2_radial_1371_17787" cx="0" cy="0" r="1" gradientUnits="userSpaceOnUse" gradientTransform="translate(254.002 254.004) rotate(90) scale(244.231)">
<stop stop-color="#FFCC48"/>
<stop offset="1" stop-color="#F73333"/>
</radialGradient>
<radialGradient id="paint3_radial_1371_17787" cx="0" cy="0" r="1" gradientUnits="userSpaceOnUse" gradientTransform="translate(254.002 254.004) rotate(90) scale(244.231)">
<stop stop-color="#622ECF"/>
<stop offset="1" stop-color="#4E1ABC"/>
</radialGradient>
<radialGradient id="paint4_radial_1371_17787" cx="0" cy="0" r="1" gradientUnits="userSpaceOnUse" gradientTransform="translate(254.002 254.004) rotate(90) scale(244.231)">
<stop stop-color="#5162FF"/>
<stop offset="1" stop-color="#4E1ABC"/>
</radialGradient>
<radialGradient id="paint5_radial_1371_17787" cx="0" cy="0" r="1" gradientUnits="userSpaceOnUse" gradientTransform="translate(254.002 254.004) rotate(90) scale(244.231)">
<stop stop-color="#FFF5DC"/>
<stop offset="1" stop-color="#FFB800"/>
</radialGradient>
<linearGradient id="paint6_linear_1371_17787" x1="275.856" y1="133.653" x2="420.389" y2="102.004" gradientUnits="userSpaceOnUse">
<stop stop-color="white"/>
<stop offset="1" stop-color="white"/>
</linearGradient>
<linearGradient id="paint7_linear_1371_17787" x1="247.483" y1="5.60033" x2="262.373" y2="6.0639" gradientUnits="userSpaceOnUse">
<stop stop-color="white"/>
<stop offset="1" stop-color="white"/>
</linearGradient>
<linearGradient id="paint8_linear_1371_17787" x1="391.483" y1="446.6" x2="406.373" y2="447.064" gradientUnits="userSpaceOnUse">
<stop stop-color="white"/>
<stop offset="1" stop-color="white"/>
</linearGradient>
<linearGradient id="paint9_linear_1371_17787" x1="479.483" y1="172.6" x2="494.373" y2="173.064" gradientUnits="userSpaceOnUse">
<stop stop-color="white"/>
<stop offset="1" stop-color="white"/>
</linearGradient>
<linearGradient id="paint10_linear_1371_17787" x1="16.4832" y1="174.6" x2="31.3735" y2="175.064" gradientUnits="userSpaceOnUse">
<stop stop-color="white"/>
<stop offset="1" stop-color="white"/>
</linearGradient>
<linearGradient id="paint11_linear_1371_17787" x1="104.483" y1="444.6" x2="119.373" y2="445.064" gradientUnits="userSpaceOnUse">
<stop stop-color="white"/>
<stop offset="1" stop-color="white"/>
</linearGradient>
<linearGradient id="paint12_linear_1371_17787" x1="169.765" y1="157.661" x2="135.059" y2="100.356" gradientUnits="userSpaceOnUse">
<stop stop-color="#EFDDFF"/>
<stop offset="1" stop-color="#BA85E9"/>
</linearGradient>
<linearGradient id="paint13_linear_1371_17787" x1="169.765" y1="157.661" x2="135.059" y2="100.356" gradientUnits="userSpaceOnUse">
<stop stop-color="#FFFCDE"/>
<stop offset="1" stop-color="#FFBA07"/>
</linearGradient>
<linearGradient id="paint14_linear_1371_17787" x1="295.606" y1="159.137" x2="366.817" y2="81.7811" gradientUnits="userSpaceOnUse">
<stop stop-color="white"/>
<stop offset="1" stop-color="white"/>
</linearGradient>
<linearGradient id="paint15_linear_1371_17787" x1="378.316" y1="277.32" x2="449.798" y2="303.999" gradientUnits="userSpaceOnUse">
<stop stop-color="#EFDDFF"/>
<stop offset="1" stop-color="#BA85E9"/>
</linearGradient>
<linearGradient id="paint16_linear_1371_17787" x1="378.316" y1="277.32" x2="449.798" y2="303.999" gradientUnits="userSpaceOnUse">
<stop stop-color="#FFFCDE"/>
<stop offset="1" stop-color="#FFBA07"/>
</linearGradient>
<linearGradient id="paint17_linear_1371_17787" x1="274.958" y1="361.32" x2="265.636" y2="457.638" gradientUnits="userSpaceOnUse">
<stop stop-color="#EFDDFF"/>
<stop offset="1" stop-color="#BA85E9"/>
</linearGradient>
<linearGradient id="paint18_linear_1371_17787" x1="274.958" y1="361.32" x2="265.636" y2="457.638" gradientUnits="userSpaceOnUse">
<stop stop-color="#FFFCDE"/>
<stop offset="1" stop-color="#FFBA07"/>
</linearGradient>
<linearGradient id="paint19_linear_1371_17787" x1="169.168" y1="307.047" x2="72.3304" y2="348.004" gradientUnits="userSpaceOnUse">
<stop stop-color="#FFFCDE"/>
<stop offset="1" stop-color="#FFBA07"/>
</linearGradient>
</defs>
</svg>
