<svg width="1440" height="652" viewBox="0 0 1440 652" fill="none" xmlns="http://www.w3.org/2000/svg">
<g filter="">
<g clip-path="url(#clip0_1380_12626)">
<rect width="1440" height="644" fill="none"/>
<ellipse opacity="0.01" cx="489.151" cy="324.65" rx="22.1144" ry="22.1144" transform="rotate(180 489.151 324.65)" fill="white"/>
<ellipse opacity="0.5" cx="1137.33" cy="645.585" rx="17.2001" ry="17.2001" transform="rotate(180 1137.33 645.585)" fill="white"/>
<ellipse opacity="0.7" cx="941.219" cy="13.3303" rx="11.6272" ry="11.6272" transform="rotate(180 941.219 13.3303)" fill="white"/>
<ellipse opacity="0.7" cx="191.698" cy="537.309" rx="11.6272" ry="11.6272" transform="rotate(180 191.698 537.309)" fill="white"/>
<ellipse opacity="0.02" cx="663.237" cy="81.5246" rx="72.4862" ry="73.7148" fill="white"/>
<ellipse opacity="0.1" cx="663.2" cy="79.2" rx="17.2001" ry="17.2001" transform="rotate(180 663.2 79.2)" fill="white"/>
<ellipse opacity="0.9" cx="1136.12" cy="96.41" rx="8.60006" ry="8.60006" transform="rotate(180 1136.12 96.41)" fill="white"/>
<circle opacity="0.1" cx="1048.98" cy="488.328" r="223.601" fill="white"/>
<ellipse opacity="0.02" cx="251.322" cy="432.958" rx="72.4862" ry="73.7148" fill="white"/>
<ellipse opacity="0.9" cx="873.183" cy="177.496" rx="3.68574" ry="3.68574" transform="rotate(180 873.183 177.496)" fill="white"/>
<ellipse opacity="0.9" cx="1047.64" cy="17.782" rx="3.68574" ry="3.68574" transform="rotate(180 1047.64 17.782)" fill="white"/>
<ellipse opacity="0.9" cx="588.685" cy="337.686" rx="3.68574" ry="3.68574" transform="rotate(180 588.685 337.686)" fill="white"/>
<ellipse opacity="0.9" cx="272.869" cy="70.2408" rx="3.68574" ry="3.68574" transform="rotate(180 272.869 70.2408)" fill="white"/>
<ellipse opacity="0.9" cx="298.119" cy="541.761" rx="3.68574" ry="3.68574" transform="rotate(180 298.119 541.761)" fill="white"/>
<ellipse opacity="0.9" cx="126.685" cy="484.616" rx="3.68574" ry="3.68574" transform="rotate(180 126.685 484.616)" fill="white"/>
<ellipse opacity="0.9" cx="56.6843" cy="394.686" rx="3.68574" ry="3.68574" transform="rotate(180 56.6843 394.686)" fill="white"/>
<ellipse opacity="0.9" cx="158.685" cy="329.686" rx="3.68574" ry="3.68574" transform="rotate(180 158.685 329.686)" fill="white"/>
<ellipse opacity="0.9" cx="1307.68" cy="177.686" rx="3.68574" ry="3.68574" transform="rotate(180 1307.68 177.686)" fill="white"/>
<ellipse opacity="0.9" cx="145.734" cy="103.653" rx="3.68574" ry="3.68574" transform="rotate(180 145.734 103.653)" fill="white"/>
<ellipse opacity="0.9" cx="504.686" cy="451.686" rx="3.68574" ry="3.68574" transform="rotate(180 504.686 451.686)" fill="white"/>
<ellipse opacity="0.9" cx="1020.61" cy="413.383" rx="3.68574" ry="3.68574" transform="rotate(180 1020.61 413.383)" fill="white"/>
<ellipse opacity="0.9" cx="1133.64" cy="595.214" rx="3.68574" ry="3.68574" transform="rotate(180 1133.64 595.214)" fill="white"/>
<ellipse opacity="0.9" cx="343.44" cy="493.571" rx="3.68574" ry="3.68574" transform="rotate(180 343.44 493.571)" fill="white"/>
<ellipse opacity="0.9" cx="491.241" cy="46.2855" rx="3.68574" ry="3.68574" transform="rotate(180 491.241 46.2855)" fill="white"/>
<ellipse opacity="0.34" cx="729.15" cy="-20.3498" rx="22.1144" ry="22.1144" transform="rotate(180 729.15 -20.3498)" fill="white"/>
<ellipse opacity="0.03" cx="1407.32" cy="320.585" rx="17.2001" ry="17.2001" transform="rotate(180 1407.32 320.585)" fill="white"/>
<g filter="url(#filter1_f_1380_12626)">
<circle cx="1326.69" cy="392.286" r="12.1674" fill="white"/>
</g>
<circle cx="1326.69" cy="392.286" r="12.1674" fill="white"/>
<ellipse opacity="0.01" cx="491.321" cy="-32.0418" rx="72.4862" ry="73.7148" fill="white"/>
<ellipse opacity="0.9" cx="698.435" cy="486.443" rx="8.60006" ry="8.60006" transform="rotate(180 698.435 486.443)" fill="white"/>
<ellipse opacity="0.9" cx="1398.72" cy="471.701" rx="8.60006" ry="8.60006" transform="rotate(180 1398.72 471.701)" fill="white"/>
<ellipse opacity="0.9" cx="568.118" cy="146.761" rx="3.68574" ry="3.68574" transform="rotate(180 568.118 146.761)" fill="white"/>
<ellipse opacity="0.9" cx="310.685" cy="143.686" rx="3.68574" ry="3.68574" transform="rotate(180 310.685 143.686)" fill="white"/>
<ellipse opacity="0.9" cx="784.684" cy="32.6858" rx="3.68574" ry="3.68574" transform="rotate(180 784.684 32.6858)" fill="white"/>
<ellipse opacity="0.9" cx="1250.69" cy="111.686" rx="3.68574" ry="3.68574" transform="rotate(180 1250.69 111.686)" fill="white"/>
<ellipse opacity="0.9" cx="1290.61" cy="88.3829" rx="3.68574" ry="3.68574" transform="rotate(180 1290.61 88.3829)" fill="white"/>
<ellipse opacity="0.9" cx="1403.64" cy="270.214" rx="3.68574" ry="3.68574" transform="rotate(180 1403.64 270.214)" fill="white"/>
<ellipse opacity="0.9" cx="1371.7" cy="528.215" rx="3.68574" ry="3.68574" transform="rotate(180 1371.7 528.215)" fill="white"/>
<ellipse opacity="0.05" cx="137.328" cy="73.585" rx="17.2001" ry="17.2001" transform="rotate(180 137.328 73.585)" fill="white"/>
<circle opacity="0.1" cx="-101.018" cy="-83.6725" r="223.601" fill="white"/>
<g filter="url(#filter2_f_1380_12626)">
<circle cx="56.6889" cy="145.286" r="12.1674" fill="white"/>
</g>
<circle cx="56.6889" cy="145.286" r="12.1674" fill="white"/>
<ellipse opacity="0.9" cx="128.727" cy="224.701" rx="8.60006" ry="8.60006" transform="rotate(180 128.727 224.701)" fill="white"/>
<ellipse opacity="0.9" cx="133.641" cy="23.2137" rx="3.68574" ry="3.68574" transform="rotate(180 133.641 23.2137)" fill="white"/>
<ellipse opacity="0.9" cx="101.698" cy="281.215" rx="3.68574" ry="3.68574" transform="rotate(180 101.698 281.215)" fill="white"/>
</g>
<rect x="0.5" y="0.5" width="1439" height="643" stroke="black"/>
</g>
<defs>
<filter id="filter0_d_1380_12626" x="-4" y="0" width="1448" height="652" filterUnits="userSpaceOnUse" color-interpolation-filters="sRGB">
<feFlood flood-opacity="0" result="BackgroundImageFix"/>
<feColorMatrix in="SourceAlpha" type="matrix" values="0 0 0 0 0 0 0 0 0 0 0 0 0 0 0 0 0 0 127 0" result="hardAlpha"/>
<feOffset dy="4"/>
<feGaussianBlur stdDeviation="2"/>
<feComposite in2="hardAlpha" operator="out"/>
<feColorMatrix type="matrix" values="0 0 0 0 0 0 0 0 0 0 0 0 0 0 0 0 0 0 0.25 0"/>
<feBlend mode="normal" in2="BackgroundImageFix" result="effect1_dropShadow_1380_12626"/>
<feBlend mode="normal" in="SourceGraphic" in2="effect1_dropShadow_1380_12626" result="shape"/>
</filter>
<filter id="filter1_f_1380_12626" x="1297.14" y="362.736" width="59.0988" height="59.0989" filterUnits="userSpaceOnUse" color-interpolation-filters="sRGB">
<feFlood flood-opacity="0" result="BackgroundImageFix"/>
<feBlend mode="normal" in="SourceGraphic" in2="BackgroundImageFix" result="shape"/>
<feGaussianBlur stdDeviation="8.69101" result="effect1_foregroundBlur_1380_12626"/>
</filter>
<filter id="filter2_f_1380_12626" x="27.1395" y="115.736" width="59.0989" height="59.0989" filterUnits="userSpaceOnUse" color-interpolation-filters="sRGB">
<feFlood flood-opacity="0" result="BackgroundImageFix"/>
<feBlend mode="normal" in="SourceGraphic" in2="BackgroundImageFix" result="shape"/>
<feGaussianBlur stdDeviation="8.69101" result="effect1_foregroundBlur_1380_12626"/>
</filter>
<clipPath id="clip0_1380_12626">
<rect width="1440" height="644" fill="white"/>
</clipPath>
</defs>
</svg>
