<svg width="150" height="19" viewBox="0 0 150 19" fill="none" xmlns="http://www.w3.org/2000/svg">
<path opacity="0.7" fill-rule="evenodd" clip-rule="evenodd" d="M0 0H10.8327L13.4171 2.58435V7.75307L3.23044 18.0905H0V0Z" fill="white"/>
<g filter="url(#filter0_b_1380_12628)">
<path fill-rule="evenodd" clip-rule="evenodd" d="M3.23044 0L13.5678 10.3374V15.5061L10.9835 18.0905H0V0H3.23044Z" fill="url(#paint0_linear_1380_12628)" fill-opacity="0.8"/>
</g>
<path d="M22.6129 2.58778H27.4152C27.9731 2.58778 28.5309 2.6301 29.0888 2.71473C29.6587 2.78727 30.1681 2.94444 30.6168 3.18624C31.0655 3.41595 31.4293 3.74238 31.7082 4.16553C31.9871 4.58868 32.1266 5.15087 32.1266 5.85209C32.1266 6.57749 31.9204 7.18199 31.5081 7.66559C31.1079 8.1371 30.5743 8.47562 29.9073 8.68115V8.71742C30.3318 8.77787 30.7138 8.89877 31.0533 9.08012C31.405 9.24939 31.7021 9.47305 31.9447 9.75112C32.1993 10.0171 32.3934 10.3314 32.5268 10.6941C32.6602 11.0568 32.7269 11.4437 32.7269 11.8548C32.7269 12.5318 32.5813 13.1001 32.2903 13.5595C31.9992 14.0068 31.6233 14.3695 31.1625 14.6476C30.7016 14.9256 30.1802 15.1251 29.5981 15.246C29.0281 15.3669 28.4581 15.4274 27.8882 15.4274H22.6129V2.58778ZM25.4506 7.72H27.5062C27.7245 7.72 27.9367 7.69582 28.1428 7.64746C28.3611 7.5991 28.5552 7.52051 28.7249 7.4117C28.8947 7.30289 29.0281 7.15781 29.1251 6.97646C29.2343 6.79511 29.2888 6.57749 29.2888 6.3236C29.2888 6.05762 29.2282 5.84 29.1069 5.67074C28.9978 5.48939 28.8523 5.35035 28.6704 5.25363C28.4885 5.15691 28.2823 5.09042 28.0519 5.05415C27.8215 5.00579 27.5971 4.98161 27.3788 4.98161H25.4506V7.72ZM25.4506 13.0336H27.9973C28.2156 13.0336 28.4339 13.0094 28.6522 12.961C28.8826 12.9127 29.0888 12.828 29.2707 12.7071C29.4526 12.5862 29.5981 12.4291 29.7072 12.2356C29.8285 12.0422 29.8891 11.8064 29.8891 11.5284C29.8891 11.2261 29.8103 10.9843 29.6527 10.803C29.5071 10.6095 29.3192 10.4644 29.0888 10.3677C28.8583 10.271 28.6097 10.2045 28.3429 10.1682C28.0761 10.132 27.8275 10.1138 27.5971 10.1138H25.4506V13.0336Z" fill="white"/>
<path d="M47.0872 10.4765C47.0872 11.2382 46.972 11.9394 46.7415 12.5802C46.5111 13.221 46.1655 13.7771 45.7047 14.2486C45.256 14.7201 44.6921 15.0889 44.013 15.3548C43.3338 15.6208 42.5517 15.7538 41.6664 15.7538C40.769 15.7538 39.9807 15.6208 39.3016 15.3548C38.6225 15.0889 38.0525 14.7201 37.5917 14.2486C37.143 13.7771 36.8034 13.221 36.573 12.5802C36.3426 11.9394 36.2274 11.2382 36.2274 10.4765V2.58778H39.0651V10.3677C39.0651 10.7667 39.1258 11.1354 39.247 11.4739C39.3804 11.8125 39.5623 12.1087 39.7928 12.3626C40.0232 12.6044 40.296 12.7978 40.6113 12.9429C40.9388 13.0759 41.2904 13.1424 41.6664 13.1424C42.0423 13.1424 42.3879 13.0759 42.7032 12.9429C43.0185 12.7978 43.2914 12.6044 43.5218 12.3626C43.7522 12.1087 43.9281 11.8125 44.0493 11.4739C44.1827 11.1354 44.2494 10.7667 44.2494 10.3677V2.58778H47.0872V10.4765Z" fill="white"/>
<path d="M51.4931 2.58778H54.3308V15.4274H51.4931V2.58778Z" fill="white"/>
<path d="M58.8402 2.58778H61.678V12.8159H66.935V15.4274H58.8402V2.58778Z" fill="white"/>
<path d="M70.3205 2.58778H74.5771C75.6079 2.58778 76.5841 2.70264 77.5057 2.93235C78.4395 3.16206 79.252 3.53685 79.9433 4.05672C80.6345 4.5645 81.1802 5.22945 81.5804 6.05157C81.9927 6.8737 82.1989 7.87112 82.1989 9.04385C82.1989 10.0836 81.9988 11.0024 81.5986 11.8004C81.2106 12.5862 80.683 13.2512 80.016 13.7952C79.3491 14.3272 78.579 14.7322 77.7058 15.0103C76.8327 15.2884 75.9171 15.4274 74.9591 15.4274H70.3205V2.58778ZM73.1582 12.8159H74.6316C75.2865 12.8159 75.8928 12.7494 76.4507 12.6165C77.0207 12.4835 77.5118 12.2658 77.9241 11.9636C78.3364 11.6493 78.6578 11.2442 78.8882 10.7485C79.1308 10.2408 79.252 9.62418 79.252 8.89877C79.252 8.27009 79.1308 7.72604 78.8882 7.26662C78.6578 6.79511 78.3425 6.40823 77.9423 6.10598C77.5421 5.80373 77.0692 5.58006 76.5234 5.43498C75.9899 5.27781 75.426 5.19923 74.8317 5.19923H73.1582V12.8159Z" fill="white"/>
<path d="M92.0829 5.72514C91.8525 5.43498 91.5372 5.22341 91.137 5.09042C90.7489 4.94534 90.379 4.8728 90.0273 4.8728C89.8212 4.8728 89.609 4.89698 89.3907 4.94534C89.1724 4.9937 88.9662 5.07228 88.7722 5.18109C88.5782 5.27781 88.4205 5.4108 88.2992 5.58006C88.178 5.74932 88.1173 5.95485 88.1173 6.19665C88.1173 6.58354 88.2629 6.87974 88.5539 7.08527C88.845 7.2908 89.2088 7.46611 89.6453 7.61119C90.094 7.75627 90.5731 7.90135 91.0824 8.04643C91.5917 8.19151 92.0647 8.39704 92.5013 8.66302C92.95 8.929 93.3198 9.28566 93.6109 9.73299C93.9019 10.1803 94.0475 10.7788 94.0475 11.5284C94.0475 12.2417 93.9141 12.8643 93.6473 13.3963C93.3805 13.9282 93.0167 14.3695 92.5558 14.7201C92.1071 15.0707 91.5796 15.3307 90.9733 15.4999C90.379 15.6692 89.7484 15.7538 89.0814 15.7538C88.2447 15.7538 87.4685 15.6269 86.753 15.373C86.0375 15.1191 85.3706 14.708 84.7521 14.1398L86.7712 11.9273C87.0623 12.3142 87.4261 12.6165 87.8627 12.8341C88.3114 13.0396 88.7722 13.1424 89.2452 13.1424C89.4756 13.1424 89.706 13.1182 89.9364 13.0698C90.1789 13.0094 90.3912 12.9248 90.5731 12.8159C90.7671 12.7071 90.9187 12.5681 91.0278 12.3988C91.1491 12.2296 91.2097 12.0301 91.2097 11.8004C91.2097 11.4135 91.0581 11.1112 90.755 10.8936C90.4639 10.6639 90.094 10.4705 89.6453 10.3133C89.1966 10.1561 88.7116 9.99897 88.1901 9.8418C87.6686 9.68463 87.1836 9.47305 86.7349 9.20707C86.2862 8.94109 85.9102 8.59048 85.607 8.15524C85.316 7.72 85.1705 7.14572 85.1705 6.43241C85.1705 5.74328 85.3039 5.13878 85.5707 4.61891C85.8496 4.09904 86.2134 3.66379 86.6621 3.31318C87.1229 2.96257 87.6505 2.70264 88.2447 2.53338C88.8389 2.35203 89.4513 2.26135 90.0819 2.26135C90.8095 2.26135 91.5129 2.36412 92.192 2.56965C92.8711 2.77518 93.4836 3.11974 94.0293 3.60335L92.0829 5.72514Z" fill="white"/>
<path d="M100.473 5.09042H96.7982V2.58778H106.985V5.09042H103.31V15.4274H100.473V5.09042Z" fill="white"/>
<path d="M109.554 9.00758C109.554 7.97993 109.724 7.049 110.063 6.21479C110.415 5.38058 110.9 4.67331 111.518 4.09299C112.137 3.50058 112.87 3.0472 113.719 2.73286C114.568 2.41852 115.496 2.26135 116.503 2.26135C117.509 2.26135 118.437 2.41852 119.286 2.73286C120.135 3.0472 120.868 3.50058 121.487 4.09299C122.105 4.67331 122.584 5.38058 122.924 6.21479C123.275 7.049 123.451 7.97993 123.451 9.00758C123.451 10.0352 123.275 10.9662 122.924 11.8004C122.584 12.6346 122.105 13.3479 121.487 13.9403C120.868 14.5206 120.135 14.968 119.286 15.2823C118.437 15.5966 117.509 15.7538 116.503 15.7538C115.496 15.7538 114.568 15.5966 113.719 15.2823C112.87 14.968 112.137 14.5206 111.518 13.9403C110.9 13.3479 110.415 12.6346 110.063 11.8004C109.724 10.9662 109.554 10.0352 109.554 9.00758ZM112.501 9.00758C112.501 9.61209 112.592 10.1682 112.773 10.676C112.968 11.1717 113.24 11.6069 113.592 11.9817C113.944 12.3444 114.362 12.6285 114.847 12.8341C115.344 13.0396 115.896 13.1424 116.503 13.1424C117.109 13.1424 117.655 13.0396 118.14 12.8341C118.637 12.6285 119.061 12.3444 119.413 11.9817C119.765 11.6069 120.032 11.1717 120.213 10.676C120.407 10.1682 120.504 9.61209 120.504 9.00758C120.504 8.41517 120.407 7.86508 120.213 7.3573C120.032 6.84952 119.765 6.41428 119.413 6.05157C119.061 5.67678 118.637 5.38662 118.14 5.18109C117.655 4.97556 117.109 4.8728 116.503 4.8728C115.896 4.8728 115.344 4.97556 114.847 5.18109C114.362 5.38662 113.944 5.67678 113.592 6.05157C113.24 6.41428 112.968 6.84952 112.773 7.3573C112.592 7.86508 112.501 8.41517 112.501 9.00758Z" fill="white"/>
<path d="M127.199 2.58778H132.183C132.838 2.58778 133.457 2.65428 134.039 2.78727C134.633 2.90817 135.148 3.11974 135.585 3.42199C136.034 3.71215 136.385 4.11113 136.64 4.61891C136.907 5.1146 137.04 5.73723 137.04 6.48682C137.04 7.39357 136.804 8.16733 136.331 8.8081C135.858 9.43678 135.167 9.83575 134.257 10.005L137.531 15.4274H134.13L131.438 10.2952H130.037V15.4274H127.199V2.58778ZM130.037 7.90135H131.71C131.965 7.90135 132.232 7.8953 132.511 7.88321C132.802 7.85903 133.063 7.80463 133.293 7.72C133.523 7.62328 133.711 7.4782 133.857 7.28476C134.015 7.09132 134.093 6.81929 134.093 6.46868C134.093 6.14225 134.027 5.88231 133.893 5.68887C133.76 5.49543 133.59 5.35035 133.384 5.25363C133.178 5.14482 132.941 5.07228 132.675 5.03601C132.408 4.99974 132.147 4.98161 131.892 4.98161H130.037V7.90135Z" fill="white"/>
<path d="M140.923 2.58778H149.672V5.19923H143.761V7.59305H149.345V10.2045H143.761V12.8159H150V15.4274H140.923V2.58778Z" fill="white"/>
<defs>
<filter id="filter0_b_1380_12628" x="-1.50754" y="-1.50754" width="16.5829" height="21.1055" filterUnits="userSpaceOnUse" color-interpolation-filters="sRGB">
<feFlood flood-opacity="0" result="BackgroundImageFix"/>
<feGaussianBlur in="BackgroundImageFix" stdDeviation="0.753769"/>
<feComposite in2="SourceAlpha" operator="in" result="effect1_backgroundBlur_1380_12628"/>
<feBlend mode="normal" in="SourceGraphic" in2="effect1_backgroundBlur_1380_12628" result="shape"/>
</filter>
<linearGradient id="paint0_linear_1380_12628" x1="6.78392" y1="0" x2="6.78392" y2="18.0905" gradientUnits="userSpaceOnUse">
<stop stop-color="#F9B400"/>
<stop offset="1" stop-color="#FFCF52"/>
</linearGradient>
</defs>
</svg>
