<svg width="483" height="837" viewBox="0 0 483 837" fill="none" xmlns="http://www.w3.org/2000/svg">
<g filter="url(#filter0_f_1371_17677)">
<circle cx="198.431" cy="295.976" r="6.83219" fill="white"/>
</g>
<circle cx="198.431" cy="295.976" r="6.83219" fill="white"/>
<g filter="url(#filter1_f_1371_17677)">
<circle cx="378.018" cy="510.702" r="6.83219" fill="white"/>
</g>
<circle cx="378.018" cy="510.702" r="6.83219" fill="white"/>
<g filter="url(#filter2_f_1371_17677)">
<circle cx="182.813" cy="350.633" r="6.83219" fill="white"/>
</g>
<circle cx="182.813" cy="350.633" r="6.83219" fill="white"/>
<g filter="url(#filter3_f_1371_17677)">
<circle cx="285.296" cy="266.695" r="6.83219" fill="white"/>
</g>
<circle cx="285.296" cy="266.695" r="6.83219" fill="white"/>
<g filter="url(#filter4_f_1371_17677)">
<circle cx="316.53" cy="327.209" r="6.83219" fill="white"/>
</g>
<circle cx="316.53" cy="327.209" r="6.83219" fill="white"/>
<path d="M482.453 780.215C479.853 787.821 476.841 793.909 473.378 797.804C447.37 827.057 369.345 763.065 369.345 763.065C369.345 763.065 380.611 756.374 403.142 762.188C377.107 751.876 339.231 662.506 339.231 662.506C339.231 662.506 339.231 662.506 361.132 655.193C326.911 631.425 289.952 492.471 289.952 492.471C289.952 492.471 298.165 492.471 333.755 492.471C306.597 483.402 272.691 360.94 272.171 359.02C272.691 359.294 284.532 365.803 287.215 342.547C264.3 309.673 240.54 187.396 240.54 187.396C240.54 187.396 240.761 163.11 251.734 175.656C254.951 178.014 256.648 183.737 258.893 188.472C261.261 192.751 264.191 196.024 268.119 197.376C269.009 218.567 273.95 232.024 287.365 247.382C286.051 254.402 286.845 261.899 288.31 268.353C289.569 273.033 290.993 277.476 291.636 279.414C291.65 279.451 291.663 279.469 291.663 279.506C298.891 299.124 299.671 301.5 290.828 278.884C293.84 286.801 296.208 293.017 297.892 297.259C299.657 301.683 300.684 303.932 301.081 302.927C301.04 303.42 300.958 303.694 300.835 303.786C301.902 305.23 302.929 305.852 304.024 305.267C304.065 305.998 304.12 306.693 304.161 307.333C304.517 307.077 304.873 306.675 305.242 306.144C305.229 306.949 305.215 307.699 305.188 308.393C305.831 308.284 306.515 307.973 307.241 307.424C307.09 317.462 307.912 322.636 313.524 314.866C311.471 326.567 314.195 325.342 320.081 317.078C316.713 331.266 316.056 337.354 325.323 327.097C318.698 340.755 322.011 338.086 330.347 328.706C322.859 340.243 320.395 345.088 331.415 335.818C322.517 348.946 327.103 347.959 338.587 342.656C329.498 353.407 326.651 359.203 340.559 355.821C329.005 367.357 334.207 369.716 347.102 370.356C346.718 370.648 346.349 370.923 345.993 371.197C346.458 371.106 346.951 370.996 347.444 370.886C346.472 371.343 345.569 371.8 344.734 372.221C343.351 373.336 342.188 374.378 341.298 375.219C343.118 375.183 345.404 374.982 348.046 374.726C343.433 376.938 340.312 378.821 340.025 377.669C339.984 377.87 339.943 378.053 339.929 378.236C341.12 378.657 343.118 378.638 346.075 378.145C343.967 379.479 342.365 380.558 341.257 381.198C341.243 381.491 341.229 381.765 341.216 382.039C341.394 382.094 341.585 382.13 341.791 382.149C342.981 382.258 344.72 381.783 347.129 380.668C345.719 382.039 344.556 383.191 343.597 384.05C344.775 383.849 346.212 383.319 347.909 382.386C347.198 383.502 346.54 384.526 345.952 385.44C346.061 385.421 346.157 385.385 346.267 385.33C347.006 384.818 347.841 384.251 348.785 383.63C348.32 384.032 347.868 384.416 347.458 384.8C348.334 384.361 349.278 383.794 350.305 383.081C348.772 384.324 347.403 385.458 346.253 386.427C347.526 385.623 349.059 384.617 350.811 383.41C347.731 386.226 345.404 388.091 343.844 388.694C343.556 389.133 343.283 389.499 343.064 389.809V390.084C343.064 390.084 343.064 390.084 343.077 390.102C344.378 389.279 346.582 387.743 349.785 385.421C348.717 386.848 347.772 388.182 346.965 389.389C348.252 388.548 349.757 387.195 351.496 385.312C350.414 386.555 349.429 387.689 348.553 388.731C349.593 388.018 350.757 387.177 352.016 386.226C351.701 386.592 351.386 386.957 351.085 387.305C351.017 387.433 350.948 387.561 350.88 387.67C350.962 387.579 351.058 387.469 351.14 387.378C350.77 388.018 350.414 388.639 350.072 389.243C350.852 388.53 351.674 387.689 352.563 386.738C349.237 391.199 347.239 394.746 346.404 397.141C346.445 397.105 346.499 397.068 346.554 397.031C347.882 395.093 350.318 392.223 353.918 388.456C352.194 390.65 350.715 392.662 349.497 394.453C350.88 393.119 352.481 391.437 354.261 389.371C351.222 394.051 348.854 396.958 347.102 398.183C346.705 398.86 346.362 399.463 346.075 400.03C346.075 400.048 346.089 400.048 346.089 400.048C347.115 399.811 349.1 398.64 351.947 396.465C352.755 395.441 353.631 394.252 354.589 392.954C353.713 394.197 352.892 395.331 352.125 396.337C353.138 395.569 354.261 394.691 355.479 393.667C355.862 392.936 356.259 392.186 356.67 391.4C356.424 392.04 356.191 392.662 355.985 393.247C356.478 392.826 356.998 392.387 357.532 391.93C356.916 392.643 356.314 393.302 355.739 393.923C355.205 395.368 354.767 396.666 354.398 397.836C355.534 396.684 356.779 395.349 358.121 393.85C356.314 396.739 354.767 399.171 353.453 401.2C351.537 409.409 355.78 406.923 365.17 396.538C354.712 414.328 352.769 419.045 365.17 399.993C351.331 427.748 351.838 431.715 372.891 411.201C354.685 437.95 357.039 440.217 381.802 427.144C363.884 443.453 368.374 444.44 387.743 439.522C365.923 452.778 362.652 458.866 388.071 466.582C364.335 471.061 369.291 477.149 387.729 489.6C372.549 486.053 370.865 488.869 383.061 501.503C371.508 496.786 373.863 501.923 381.432 510.407C377.107 510.754 377.997 514.466 380.515 515.654C380.488 522.547 382.089 526.917 382.979 519.128C384.115 527.355 385.101 532.585 386.114 533.755C387.127 534.925 388.167 532.036 389.44 524.083C388.947 540.849 389.892 545.803 395.504 530.5C391.781 548.985 392.739 547.211 397.516 529.367C394.669 551.051 395.682 557.706 408.316 542.64C399.309 567.085 401.91 569.791 419.842 557.139C404.826 576.611 405.127 580.706 425.865 574.124C417.57 581.273 414.367 585.753 416.092 587.947C417.009 591.731 422.826 593.249 432.573 594.456C426.44 595.443 422.881 596.229 422.21 596.284C421.704 598.149 425.646 598.716 433.134 599.301C422.799 601.714 427.179 604.036 437.35 607.126C429.424 610.179 427.302 614.001 435.324 618.882C425.701 622.722 426.207 627.64 436.433 623.508C433.079 628.902 430.971 632.558 430.163 632.595C430.259 638.829 432.887 635.794 437.665 625.3C432.422 642.797 431.833 649.525 440.635 637.678C441.607 635.319 442.77 632.503 444.085 629.267C443.441 631.48 442.866 633.491 442.387 635.264C442.866 634.569 443.386 633.82 443.92 633.034C443.195 634.478 442.524 635.813 441.922 637.001C439.499 646.216 440.019 647.477 446.124 635.008C438.418 658.265 439.225 660.605 452.01 640.767C440.649 662.817 444.632 658.009 456.089 638.811C448.629 654.498 446.425 660.806 458.019 647.039C444.098 670.313 443.989 673.513 462.81 655.888C445.96 676.786 448.068 676.877 467.464 661.647C455.008 674.025 459.854 671.081 472.064 661.995C459.046 676.987 454.543 684.666 473.884 682.326C451.244 696.276 452.435 700.225 476.814 702.821C460.826 706.003 468.026 707.813 482.18 709.714C466.479 716.973 461.592 723.664 473.145 738.182C467.273 738.017 465.521 739.809 466.205 742.844C466.876 745.861 469.983 750.121 473.83 754.893C465.836 755.277 468.587 762.809 472.94 767.27C472.365 773.103 473.378 775.864 475.5 773.706C473.378 775.864 475.472 777.034 480.222 777.911C480.797 778.679 481.55 779.447 482.453 780.215Z" fill="#0A0144"/>
<path d="M21.2794 810.789C24.1228 818.236 27.3276 824.143 30.9127 827.833C57.837 855.554 133.713 787.15 133.713 787.15C133.713 787.15 122.244 781.115 99.9242 788.219C125.599 776.421 389.647 740.359 389.647 740.359C389.647 740.359 378.935 704.682 380.511 691.504C413.929 665.795 362.605 646.942 362.605 646.942C362.605 646.942 366 524.65 330.448 526.699C357.284 516.078 370.279 544.298 345.795 480.037C345.795 452.359 318.53 401.083 315.1 378.009C336.929 343.857 238.488 245.274 246.309 187.157C244.314 182.644 243.384 178.032 244.987 177.171C242.382 172.455 241.03 169.606 241.368 169.056C239.55 168.74 239.809 172.109 241.814 179.037C235.8 178.195 233.557 185.075 232.246 193.694C229.109 196.235 227.598 202.048 225.508 206.907C223.28 211.316 220.46 214.754 216.579 216.331C216.374 237.547 211.872 251.271 198.967 267.382C200.506 274.319 199.955 281.852 198.7 288.382C197.593 293.129 196.315 297.649 195.734 299.621C195.722 299.659 195.709 299.678 195.71 299.714C189.123 319.724 188.421 322.143 196.524 299.045C193.771 307.126 191.606 313.471 190.061 317.804C188.44 322.325 187.487 324.63 187.058 323.648C187.115 324.139 187.206 324.408 187.332 324.493C186.312 325.997 185.307 326.677 184.194 326.155C184.176 326.888 184.144 327.585 184.124 328.227C183.76 327.991 183.391 327.61 183.005 327.102C183.045 327.905 183.083 328.653 183.132 329.345C182.486 329.272 181.792 329.001 181.05 328.495C181.524 338.512 180.871 343.727 175.014 336.289C177.443 347.858 174.682 346.791 168.535 338.876C172.357 352.853 173.21 358.896 163.622 349.185C170.68 362.444 167.285 359.969 158.655 351.081C166.507 362.172 169.125 366.87 157.818 358.246C167.13 370.845 162.517 370.123 150.874 365.488C160.3 375.702 163.331 381.327 149.329 378.749C161.242 389.607 156.122 392.262 143.262 393.643C143.655 393.914 144.033 394.166 144.397 394.42C143.929 394.355 143.433 394.274 142.938 394.193C143.923 394.593 144.84 394.998 145.688 395.37C147.105 396.404 148.301 397.378 149.217 398.167C147.397 398.235 145.107 398.166 142.46 398.062C147.139 400.006 150.318 401.707 150.568 400.54C150.615 400.739 150.662 400.919 150.682 401.101C149.506 401.59 147.509 401.686 144.539 401.364C146.688 402.575 148.323 403.56 149.451 404.136C149.474 404.427 149.496 404.7 149.519 404.973C149.343 405.038 149.153 405.086 148.948 405.116C147.762 405.294 146.01 404.919 143.568 403.944C145.02 405.233 146.22 406.316 147.205 407.119C146.022 406.986 144.569 406.539 142.844 405.706C143.591 406.779 144.28 407.763 144.898 408.643C144.788 408.631 144.691 408.6 144.579 408.551C143.825 408.082 142.972 407.564 142.009 406.998C142.487 407.373 142.95 407.73 143.373 408.09C142.484 407.702 141.522 407.191 140.473 406.537C142.045 407.691 143.449 408.744 144.629 409.646C143.331 408.916 141.767 408 139.978 406.895C143.145 409.53 145.53 411.259 147.108 411.772C147.41 412.193 147.695 412.543 147.924 412.841L147.933 413.115C147.933 413.115 147.933 413.115 147.92 413.134C146.594 412.387 144.343 410.98 141.068 408.845C142.181 410.208 143.167 411.486 144.013 412.645C142.701 411.879 141.153 410.615 139.356 408.834C140.476 410.013 141.497 411.089 142.406 412.079C141.343 411.427 140.154 410.654 138.865 409.777C139.192 410.124 139.518 410.471 139.83 410.801C139.903 410.924 139.975 411.048 140.047 411.154C139.962 411.067 139.863 410.963 139.778 410.877C140.168 411.495 140.543 412.095 140.904 412.678C140.102 412.011 139.254 411.218 138.335 410.32C141.802 414.584 143.913 418.011 144.824 420.356C144.782 420.321 144.726 420.288 144.67 420.255C143.281 418.395 140.755 415.669 137.037 412.114C138.83 414.206 140.372 416.13 141.647 417.849C140.223 416.596 138.569 415.008 136.724 413.047C139.911 417.547 142.37 420.314 144.16 421.437C144.579 422.089 144.94 422.672 145.245 423.222C145.246 423.24 145.232 423.241 145.232 423.241C144.199 423.063 142.179 422.008 139.264 419.999C138.424 419.023 137.511 417.886 136.512 416.645C137.427 417.836 138.284 418.921 139.082 419.881C138.046 419.173 136.896 418.361 135.646 417.408C135.24 416.7 134.819 415.974 134.383 415.212C134.65 415.837 134.903 416.445 135.127 417.017C134.621 416.626 134.087 416.217 133.539 415.792C134.177 416.468 134.8 417.091 135.394 417.679C135.974 419.091 136.454 420.362 136.861 421.51C135.689 420.424 134.401 419.163 133.013 417.743C134.911 420.524 136.535 422.864 137.913 424.815C140.092 432.904 135.773 430.665 126.058 420.833C137.078 437.999 139.172 442.598 126.169 424.284C140.889 451.208 140.511 455.2 118.819 435.923C137.868 461.591 135.589 463.99 110.431 452.359C128.857 467.617 124.403 468.861 104.896 465.064C127.12 477.047 130.585 482.94 105.441 492.109C129.296 495.217 124.543 501.583 106.526 515.079C121.576 510.663 123.348 513.378 111.573 526.699C122.961 521.322 120.775 526.589 113.487 535.498C117.819 535.596 117.05 539.354 114.573 540.686C114.822 547.569 113.363 552.025 112.223 544.298C111.354 552.58 110.538 557.86 109.564 559.087C108.59 560.314 107.457 557.488 105.929 549.618C106.962 566.335 106.179 571.338 100.079 556.377C104.394 574.624 103.38 572.908 98.032 555.36C101.576 576.854 100.779 583.559 87.6716 569.239C97.4578 593.136 94.947 595.988 76.626 584.384C92.2545 602.967 92.0858 607.075 71.1576 601.695C79.6746 608.357 83.0188 612.647 81.3667 614.937C80.5726 618.77 74.8102 620.621 65.1134 622.387C71.2711 623.02 74.8517 623.6 75.5235 623.617C76.0896 625.45 72.1698 626.243 64.7091 627.258C75.1107 629.074 70.81 631.645 60.75 635.317C68.7657 637.91 71.0084 641.604 63.153 646.942C72.8897 650.223 72.5424 655.164 62.1947 651.626C65.7189 656.82 67.9426 660.35 68.7505 660.341C68.856 666.573 66.1327 663.693 61.0219 653.486C66.8236 670.66 67.6286 677.346 58.454 666.02C57.4071 663.72 56.154 660.975 54.7369 657.818C55.451 659.991 56.0902 661.966 56.626 663.71C56.125 663.044 55.5812 662.325 55.0225 661.571C55.7939 662.971 56.5069 664.266 57.1469 665.418C59.8645 674.482 59.3856 675.772 52.8847 663.67C61.3334 686.454 60.6022 688.838 47.1907 669.76C59.2515 691.129 55.1173 686.556 43.0529 668.041C51.0113 683.28 53.4162 689.453 41.3903 676.37C56.0476 698.815 56.2602 702.004 36.89 685.484C54.3967 705.386 52.294 705.599 32.4267 691.504C45.2693 703.15 40.3338 700.488 27.8436 692.116C41.3311 706.34 46.0775 713.751 26.6809 712.527C49.7475 725.157 48.6853 729.169 24.4159 733.166C40.4896 735.423 33.3555 737.645 19.2781 740.359C35.1962 746.705 40.2938 753.107 29.2214 768.271C35.0822 767.769 36.8903 769.458 36.3045 772.528C35.7318 775.58 32.7653 780.014 29.0769 785.001C37.0748 784.924 34.5695 792.606 30.3652 797.312C31.1276 803.105 30.2048 805.92 28.0157 803.888C30.2048 805.92 28.1504 807.21 23.4339 808.359C22.8844 809.159 22.1571 809.97 21.2794 810.789Z" fill="url(#paint0_linear_1371_17677)"/>
<ellipse opacity="0.1" cx="330.224" cy="342.617" rx="19.3162" ry="20.0061" fill="white"/>
<ellipse opacity="0.1" cx="323.326" cy="327.439" rx="34.4933" ry="35.1832" fill="white"/>
<path fill-rule="evenodd" clip-rule="evenodd" d="M316.921 529.472C321.586 519.405 323.918 514.371 323.932 508.536C323.936 506.615 323.761 504.673 323.411 502.784C322.348 497.047 319.149 492.514 312.751 483.449L297.504 461.848C291.105 452.783 294.063 448.119 290.633 447.492C289.76 446.079 282.224 447.518 281.151 447.924C277.889 449.158 275.557 454.192 270.892 464.26C266.228 474.327 263.896 479.361 263.882 485.196C263.877 487.117 264.053 489.059 264.403 490.948C265.465 496.685 268.665 501.218 275.063 510.283L290.31 531.884C296.708 540.949 299.908 545.482 303.338 546.109C304.467 546.316 310.776 546.335 312.175 545.308C315.436 544.075 312.257 539.54 316.921 529.472ZM297.865 498.578C298.563 501.292 298.912 502.649 298.546 503.439C298.181 504.229 297.349 503.913 295.686 503.281L290.724 501.396C289.125 500.788 288.325 500.485 288.083 499.494C287.84 498.504 288.315 497.48 289.264 495.431L292.141 489.22C293.09 487.172 293.565 486.148 294.169 486.357C294.773 486.567 295.109 487.872 295.781 490.482L297.865 498.578Z" fill="url(#paint1_linear_1371_17677)"/>
<path d="M295.781 490.482C295.109 487.872 294.773 486.567 294.169 486.357C293.565 486.148 293.09 487.172 292.141 489.22L289.264 495.431C288.315 497.48 287.84 498.504 288.083 499.494C288.325 500.485 289.125 500.788 290.724 501.396L295.686 503.281C297.349 503.913 298.181 504.229 298.546 503.439C298.912 502.649 298.563 501.292 297.865 498.578L295.781 490.482Z" fill="url(#paint2_linear_1371_17677)"/>
<path fill-rule="evenodd" clip-rule="evenodd" d="M320.285 522.214C321.784 518.978 322.534 517.36 322.981 515.767C324.735 509.514 324.025 501.678 321.175 495.842C320.449 494.356 319.421 492.899 317.364 489.985L305.481 473.15C303.425 470.236 302.397 468.78 301.415 467.846C297.558 464.181 293.028 464.591 289.894 468.89C289.095 469.985 288.346 471.603 286.846 474.839C285.347 478.075 284.598 479.693 284.151 481.285C282.396 487.539 283.106 495.374 285.956 501.21C286.682 502.697 287.711 504.154 289.767 507.067L301.65 523.902C303.706 526.816 304.735 528.273 305.717 529.206C309.573 532.872 314.103 532.461 317.238 528.162C318.036 527.067 318.786 525.45 320.285 522.214ZM305.895 497.898C306.641 500.686 307.013 502.079 306.641 502.883C306.269 503.687 305.412 503.338 303.698 502.641L302.26 502.057C300.688 501.417 299.902 501.098 299.666 500.114C299.43 499.13 299.897 498.121 300.831 496.105L301.644 494.351C302.578 492.335 303.045 491.326 303.645 491.526C304.244 491.726 304.586 493.004 305.27 495.56L305.895 497.898Z" fill="white"/>
<path d="M305.27 495.56C304.586 493.004 304.244 491.726 303.645 491.526C303.045 491.326 302.578 492.335 301.644 494.351L300.831 496.105C299.897 498.121 299.43 499.13 299.666 500.114C299.902 501.098 300.688 501.417 302.26 502.057L303.698 502.641C305.412 503.338 306.269 503.687 306.641 502.883C307.013 502.079 306.641 500.686 305.895 497.898L305.27 495.56Z" fill="white"/>
<path fill-rule="evenodd" clip-rule="evenodd" d="M321.358 529.071C326.023 519.003 328.355 513.969 328.369 508.134C328.373 506.213 328.197 504.271 327.847 502.383C326.785 496.645 323.586 492.113 317.187 483.047L301.94 461.446C295.542 452.381 292.343 447.848 288.913 447.221C287.784 447.014 286.661 447.116 285.587 447.522C282.326 448.756 279.994 453.79 275.329 463.858C270.664 473.926 268.332 478.96 268.318 484.795C268.314 486.715 268.49 488.657 268.84 490.546C269.902 496.283 273.101 500.816 279.5 509.881L294.746 531.482C301.145 540.548 304.344 545.08 307.774 545.708C308.903 545.914 310.026 545.812 311.1 545.406C314.361 544.172 316.693 539.139 321.358 529.071ZM302.301 498.176C303 500.891 303.349 502.248 302.983 503.037C302.617 503.827 301.785 503.511 300.122 502.879L295.161 500.994C293.562 500.387 292.762 500.083 292.519 499.092C292.277 498.102 292.751 497.078 293.7 495.03L296.578 488.819C297.527 486.77 298.001 485.746 298.606 485.956C299.21 486.165 299.546 487.47 300.218 490.081L302.301 498.176Z" fill="url(#paint3_linear_1371_17677)"/>
<path fill-rule="evenodd" clip-rule="evenodd" d="M322.838 528.936C327.503 518.869 329.835 513.835 329.849 508C329.854 506.079 329.678 504.137 329.328 502.248C328.265 496.511 325.066 491.978 318.668 482.913L303.421 461.312C297.022 452.247 293.823 447.714 290.393 447.087C289.264 446.88 288.141 446.982 287.068 447.388C283.806 448.622 281.474 453.656 276.809 463.724C272.145 473.791 269.813 478.825 269.799 484.66C269.794 486.581 269.97 488.523 270.32 490.412C271.383 496.149 274.582 500.682 280.98 509.747L296.227 531.348C302.625 540.413 305.825 544.946 309.255 545.573C310.384 545.78 311.507 545.678 312.58 545.272C315.842 544.038 318.174 539.004 322.838 528.936ZM303.782 498.042C304.48 500.756 304.829 502.113 304.463 502.903C304.098 503.693 303.266 503.377 301.603 502.745L296.642 500.86C295.042 500.252 294.242 499.949 294 498.958C293.757 497.968 294.232 496.944 295.181 494.895L298.058 488.684C299.007 486.636 299.482 485.612 300.086 485.822C300.691 486.031 301.026 487.336 301.698 489.946L303.782 498.042Z" fill="url(#paint4_linear_1371_17677)"/>
<path fill-rule="evenodd" clip-rule="evenodd" d="M311.044 472.113L318.668 482.913C325.066 491.978 328.265 496.511 329.328 502.248C329.678 504.137 329.854 506.079 329.849 508C329.835 513.835 327.503 518.869 322.838 528.936C318.174 539.004 315.842 544.038 312.58 545.272C311.507 545.678 310.384 545.78 309.255 545.573C305.825 544.946 302.625 540.413 296.227 531.348L275.564 502.073C274.255 500.218 273.6 499.291 273.102 498.399C269.613 492.15 268.791 483.077 271.1 476.302C271.429 475.336 271.906 474.306 272.861 472.246C288.958 461.388 305.024 467.633 311.044 472.113ZM295.181 494.895C294.232 496.944 293.757 497.968 294 498.958C294.242 499.949 295.042 500.252 296.641 500.86L301.603 502.745C303.266 503.377 304.098 503.693 304.463 502.903C304.829 502.113 304.48 500.756 303.782 498.042L301.698 489.946C301.026 487.336 300.691 486.031 300.086 485.822C299.482 485.612 299.007 486.636 298.058 488.684L295.181 494.895Z" fill="url(#paint5_linear_1371_17677)"/>
<path fill-rule="evenodd" clip-rule="evenodd" d="M208.311 303.568L210.976 300.37L241.37 306.195L242.442 309.313L255.497 343.868L257.912 345.88C257.347 348.195 254.651 351.766 250.845 352.234C246.68 352.746 241.508 350.128 239.291 346.388C237.075 342.647 240.137 338.569 242.217 336.892C244.284 336.638 247.201 338.951 249.28 339.993L241.845 318.367L216.528 316.166L226.114 342.941L228.399 344.471C228.534 345.947 225.515 349.729 221.7 350.198C217.535 350.71 212.363 348.093 210.146 344.352C207.288 339.528 211.262 336.036 213.375 334.679C214.071 334.232 212.641 336.779 213.673 336.652C215.74 336.398 218.056 336.915 220.135 337.958L208.311 303.568Z" fill="url(#paint6_linear_1371_17677)"/>
<path fill-rule="evenodd" clip-rule="evenodd" d="M210.995 300.348L244.053 302.974L245.126 306.093L245.126 306.093L257.565 342.273L257.543 342.27C258.981 345.625 257.335 348.545 253.528 349.013C249.364 349.525 244.192 346.908 241.975 343.167C239.759 339.427 241.338 335.979 245.502 335.467C247.569 335.213 249.885 335.73 251.964 336.773L244.529 315.147L219.099 313.127L228.42 340.238L228.388 340.212C229.843 343.576 228.198 346.509 224.383 346.978C220.219 347.49 215.047 344.873 212.83 341.132C210.614 337.392 212.193 333.944 216.357 333.432C218.424 333.178 220.74 333.695 222.819 334.738L210.995 300.348L210.995 300.348L210.995 300.348Z" fill="url(#paint7_linear_1371_17677)"/>
<path d="M269.194 214.046C274.4 215.836 278.076 225.27 251.138 248.695C217.465 277.976 179.4 276.024 199.409 301.401M287.739 273.096C297.011 278.464 302.087 293.299 248.21 309.697C180.864 330.193 176.96 341.418 180.376 355.57M317.996 335.561C341.095 332.145 360.063 336.342 251.138 380.459C114.982 435.604 122.79 437.068 137.431 449.269M346.301 396.563C379.811 397.051 413.451 412.375 279.931 469.765C113.03 541.503 66.1809 536.623 116.446 580.056M382.901 516.126C426.172 520.03 468.304 542.479 317.996 601.041C130.111 674.243 -43.6222 627.393 54.9565 697.667" stroke="url(#paint8_linear_1371_17677)" stroke-width="3.90411"/>
<g filter="url(#filter5_f_1371_17677)">
<path d="M268.19 213.904C273.396 215.693 277.072 225.128 250.134 248.553C216.461 277.834 178.396 275.882 198.404 301.258M286.735 272.954C296.007 278.322 302.383 299.75 248.507 316.148C181.161 336.644 175.956 341.276 179.372 355.428M320.193 334.028C343.293 330.612 363.64 341.018 254.715 385.134C118.56 440.28 121.786 436.926 136.427 449.126M345.296 396.421C378.806 396.909 412.381 415.357 278.861 472.747C111.96 544.485 65.1766 536.481 115.442 579.914M381.897 515.984C425.168 519.888 470.561 550.089 320.252 608.651C132.367 681.853 -44.6265 627.251 53.9522 697.525" stroke="url(#paint9_linear_1371_17677)" stroke-width="1.95205"/>
</g>
<g filter="url(#filter6_f_1371_17677)">
<path d="M269.194 208.133C274.4 209.923 278.076 219.358 251.138 242.782C217.465 272.063 179.4 270.111 199.408 295.488M287.739 267.183C297.011 272.551 302.086 287.387 248.21 303.784C180.864 324.28 176.96 335.505 180.376 349.657M317.996 329.649C341.095 326.233 360.062 330.429 251.138 374.546C114.982 429.691 122.79 431.155 137.431 443.356M346.3 390.65C379.811 391.138 413.451 406.462 279.931 463.852C113.03 535.59 66.1809 530.71 116.446 574.143M376.069 510.214C419.34 514.118 468.304 536.566 317.996 595.128C130.111 668.33 -43.6222 621.481 54.9565 691.754" stroke="white" stroke-width="3.90411"/>
</g>
<path d="M269.194 208.133C274.4 209.923 278.076 219.358 251.138 242.782C217.465 272.063 179.4 270.111 199.409 295.488M287.739 267.183C297.011 272.551 302.087 287.387 248.21 303.784C180.864 324.28 176.96 335.505 180.376 349.657M317.996 329.649C341.095 326.233 360.063 330.429 251.138 374.546C114.982 429.691 122.79 431.155 137.431 443.356M346.301 390.65C379.811 391.138 413.451 406.462 279.931 463.852C113.03 535.59 66.1809 530.71 116.446 574.143M382.901 510.214C426.172 514.118 468.304 536.566 317.996 595.128C130.111 668.33 -43.6222 621.481 54.9565 691.754" stroke="url(#paint10_linear_1371_17677)" stroke-width="0.976026"/>
<path d="M269.194 211.033C274.4 212.823 278.076 222.258 251.138 245.682C217.465 274.963 179.4 273.011 199.409 298.388M287.739 270.083C297.011 275.451 302.087 290.287 248.21 306.684C180.864 327.181 176.96 338.405 180.376 352.557M317.996 332.549C341.095 329.133 360.063 333.33 251.138 377.446C114.982 432.591 122.79 434.056 137.431 446.256M346.301 393.55C379.811 394.038 413.451 409.362 279.931 466.752C113.03 538.49 66.1809 533.61 116.446 577.043M382.901 513.114C426.172 517.018 468.304 539.466 317.996 598.028C130.111 671.23 -43.6222 624.381 54.9565 694.655" stroke="url(#paint11_linear_1371_17677)" stroke-width="2.00888"/>
<path opacity="0.1" d="M269.194 206.181C274.4 207.971 278.076 217.405 251.138 240.83C217.465 270.111 179.4 268.159 199.409 293.536M287.739 265.231C297.011 270.599 302.087 285.435 248.21 301.832C180.864 322.328 176.96 333.553 180.376 347.705M317.996 327.696C341.095 324.28 360.063 328.477 251.138 372.594C114.982 427.739 122.79 429.203 137.431 441.404M346.301 388.698C379.811 389.186 413.451 404.51 279.931 461.9C113.03 533.638 66.1809 528.758 116.446 572.191M382.901 508.261C426.172 512.165 468.304 534.614 317.996 593.176C130.111 666.378 -43.6222 619.528 54.9565 689.802" stroke="url(#paint12_linear_1371_17677)" stroke-width="0.976026"/>
<g filter="url(#filter7_f_1371_17677)">
<circle cx="271.633" cy="468.732" r="6.83219" fill="white"/>
</g>
<circle cx="271.633" cy="468.732" r="6.83219" fill="white"/>
<g filter="url(#filter8_f_1371_17677)">
<circle cx="172.076" cy="507.773" r="6.83219" fill="white"/>
</g>
<circle cx="172.076" cy="507.773" r="6.83219" fill="white"/>
<g filter="url(#filter9_f_1371_17677)">
<circle cx="373.139" cy="572.191" r="6.83219" fill="white"/>
</g>
<circle cx="373.139" cy="572.191" r="6.83219" fill="white"/>
<g filter="url(#filter10_f_1371_17677)">
<circle cx="297.987" cy="609.28" r="6.83219" fill="white"/>
</g>
<circle cx="297.987" cy="609.28" r="6.83219" fill="white"/>
<g filter="url(#filter11_f_1371_17677)">
<circle cx="195.502" cy="624.897" r="10.7363" fill="white"/>
</g>
<circle cx="195.502" cy="624.897" r="10.7363" fill="white"/>
<g filter="url(#filter12_f_1371_17677)">
<circle cx="317.308" cy="450.003" r="6.83219" fill="white"/>
</g>
<circle cx="317.308" cy="450.003" r="6.83219" fill="white"/>
<g filter="url(#filter13_f_1371_17677)">
<circle cx="320.293" cy="335.85" r="6.83219" fill="white"/>
</g>
<circle cx="320.293" cy="335.85" r="6.83219" fill="white"/>
<g filter="url(#filter14_f_1371_17677)">
<circle cx="230.638" cy="383.818" r="6.83219" fill="white"/>
</g>
<circle cx="230.638" cy="383.818" r="6.83219" fill="white"/>
<g filter="url(#filter15_f_1371_17677)">
<circle cx="195.503" cy="327.208" r="6.83219" fill="white"/>
</g>
<circle cx="195.503" cy="327.208" r="6.83219" fill="white"/>
<g filter="url(#filter16_f_1371_17677)">
<circle cx="259.92" cy="296.952" r="6.83219" fill="white"/>
</g>
<circle cx="259.92" cy="296.952" r="6.83219" fill="white"/>
<g filter="url(#filter17_f_1371_17677)">
<circle cx="224.784" cy="259.863" r="6.83219" fill="white"/>
</g>
<circle cx="224.784" cy="259.863" r="6.83219" fill="white"/>
<g filter="url(#filter18_f_1371_17677)">
<circle cx="270.661" cy="211.061" r="6.83219" fill="white"/>
</g>
<circle cx="270.661" cy="211.061" r="6.83219" fill="white"/>
<g filter="url(#filter19_f_1371_17677)">
<circle cx="147.677" cy="419.93" r="6.83219" fill="white"/>
</g>
<circle cx="147.677" cy="419.93" r="6.83219" fill="white"/>
<ellipse opacity="0.1" cx="272.275" cy="204.644" rx="13.7973" ry="14.4872" fill="white"/>
<ellipse opacity="0.1" cx="196.388" cy="299.845" rx="13.7973" ry="14.4872" fill="white"/>
<ellipse opacity="0.1" cx="263.306" cy="301.164" rx="18.6264" ry="19.3162" fill="white"/>
<ellipse opacity="0.1" cx="193.629" cy="330.199" rx="22.0757" ry="22.7656" fill="white"/>
<ellipse opacity="0.1" cx="149.617" cy="420.572" rx="30.3541" ry="31.7338" fill="white"/>
<ellipse opacity="0.1" cx="229.503" cy="382.629" rx="19.3162" ry="20.0061" fill="white"/>
<ellipse opacity="0.1" cx="272.274" cy="465.413" rx="34.4933" ry="35.1832" fill="white"/>
<ellipse opacity="0.1" cx="314.715" cy="449.881" rx="16.5568" ry="17.2466" fill="white"/>
<ellipse opacity="0.1" cx="166.036" cy="504.045" rx="16.5568" ry="17.2466" fill="white"/>
<ellipse opacity="0.1" cx="171.554" cy="509.564" rx="16.5568" ry="17.2466" fill="white"/>
<ellipse opacity="0.1" cx="114.986" cy="579.93" rx="16.5568" ry="17.2466" fill="white"/>
<ellipse opacity="0.1" cx="197.769" cy="614.424" rx="16.5568" ry="17.2466" fill="white"/>
<ellipse opacity="0.1" cx="182.592" cy="619.943" rx="16.5568" ry="17.2466" fill="white"/>
<ellipse opacity="0.1" cx="207.427" cy="625.462" rx="16.5568" ry="17.2466" fill="white"/>
<ellipse opacity="0.1" cx="299.87" cy="614.424" rx="16.5568" ry="17.2466" fill="white"/>
<ellipse opacity="0.1" cx="294.351" cy="607.525" rx="19.3162" ry="20.0061" fill="white"/>
<ellipse opacity="0.1" cx="313.667" cy="603.386" rx="23.4554" ry="24.1453" fill="white"/>
<ellipse opacity="0.1" cx="379.894" cy="577.171" rx="23.4554" ry="24.1453" fill="white"/>
<ellipse opacity="0.9" cx="198.459" cy="451.615" rx="4.82906" ry="4.82906" transform="rotate(180 198.459 451.615)" fill="white"/>
<ellipse opacity="0.9" cx="223.294" cy="564.754" rx="4.82906" ry="4.82906" transform="rotate(180 223.294 564.754)" fill="white"/>
<circle opacity="0.9" cx="173.622" cy="450.236" r="2.0696" transform="rotate(180 173.622 450.236)" fill="white"/>
<circle opacity="0.9" cx="253.647" cy="343.996" r="2.0696" transform="rotate(180 253.647 343.996)" fill="white"/>
<circle opacity="0.9" cx="304.699" cy="428.16" r="2.0696" transform="rotate(180 304.699 428.16)" fill="white"/>
<circle opacity="0.9" cx="325.394" cy="488.868" r="2.0696" transform="rotate(180 325.394 488.868)" fill="white"/>
<circle opacity="0.9" cx="151.547" cy="573.032" r="2.0696" transform="rotate(180 151.547 573.032)" fill="white"/>
<circle opacity="0.9" cx="122.574" cy="608.905" r="2.0696" transform="rotate(180 122.574 608.905)" fill="white"/>
<g filter="url(#filter20_f_1371_17677)">
<path d="M251.979 37.8839L260.29 145.594L366.034 123.487L266.164 164.675L319.865 258.412L249.831 176.158L177.277 256.198L233.864 164.173L135.321 119.904L240.327 145.284L251.979 37.8839Z" fill="#FFE091"/>
</g>
<g filter="url(#filter21_f_1371_17677)">
<path d="M248.65 112.444C249.491 110.695 251.996 110.734 252.781 112.509L262.362 134.159C262.683 134.882 263.356 135.387 264.14 135.493L287.605 138.645C289.528 138.904 290.265 141.298 288.82 142.594L271.19 158.396C270.601 158.924 270.329 159.721 270.471 160.499L274.724 183.789C275.072 185.699 273.023 187.14 271.344 186.165L250.867 174.282C250.183 173.885 249.341 173.872 248.645 174.247L227.809 185.489C226.1 186.411 224.097 184.907 224.505 183.009L229.479 159.862C229.645 159.089 229.397 158.284 228.825 157.738L211.694 141.396C210.29 140.056 211.101 137.685 213.032 137.487L236.583 135.065C237.37 134.984 238.059 134.5 238.401 133.787L248.65 112.444Z" fill="#FFBA07"/>
</g>
<path d="M248.65 112.444C249.491 110.695 251.996 110.734 252.781 112.509L262.362 134.159C262.683 134.882 263.356 135.387 264.14 135.493L287.605 138.645C289.528 138.904 290.265 141.298 288.82 142.594L271.19 158.396C270.601 158.924 270.329 159.721 270.471 160.499L274.724 183.789C275.072 185.699 273.023 187.14 271.344 186.165L250.867 174.282C250.183 173.885 249.341 173.872 248.645 174.247L227.809 185.489C226.1 186.411 224.097 184.907 224.505 183.009L229.479 159.862C229.645 159.089 229.397 158.284 228.825 157.738L211.694 141.396C210.29 140.056 211.101 137.685 213.032 137.487L236.583 135.065C237.37 134.984 238.059 134.5 238.401 133.787L248.65 112.444Z" fill="#FFD569"/>
<path d="M243.483 111.334C244.296 109.571 246.801 109.571 247.614 111.334L257.53 132.833C257.862 133.551 258.543 134.046 259.328 134.139L282.839 136.927C284.767 137.155 285.541 139.538 284.116 140.856L266.734 156.93C266.153 157.467 265.893 158.268 266.047 159.044L270.661 182.265C271.039 184.169 269.013 185.642 267.319 184.694L246.66 173.13C245.969 172.743 245.128 172.743 244.437 173.13L223.778 184.694C222.084 185.642 220.057 184.169 220.436 182.265L225.05 159.044C225.204 158.268 224.944 157.467 224.363 156.93L206.981 140.856C205.556 139.538 206.33 137.155 208.258 136.927L231.768 134.139C232.554 134.046 233.235 133.551 233.566 132.833L243.483 111.334Z" fill="url(#paint13_linear_1371_17677)"/>
<path d="M243.483 111.334C244.296 109.571 246.801 109.571 247.614 111.334L257.53 132.833C257.862 133.551 258.543 134.046 259.328 134.139L282.839 136.927C284.767 137.155 285.541 139.538 284.116 140.856L266.734 156.93C266.153 157.467 265.893 158.268 266.047 159.044L270.661 182.265C271.039 184.169 269.013 185.642 267.319 184.694L246.66 173.13C245.969 172.743 245.128 172.743 244.437 173.13L223.778 184.694C222.084 185.642 220.057 184.169 220.436 182.265L225.05 159.044C225.204 158.268 224.944 157.467 224.363 156.93L206.981 140.856C205.556 139.538 206.33 137.155 208.258 136.927L231.768 134.139C232.554 134.046 233.235 133.551 233.566 132.833L243.483 111.334Z" fill="url(#paint14_linear_1371_17677)"/>
<path d="M243.483 111.334C244.296 109.571 246.801 109.571 247.614 111.334L257.53 132.833C257.862 133.551 258.543 134.046 259.328 134.139L282.839 136.927C284.767 137.155 285.541 139.538 284.116 140.856L266.734 156.93C266.153 157.467 265.893 158.268 266.047 159.044L270.661 182.265C271.039 184.169 269.013 185.642 267.319 184.694L246.66 173.13C245.969 172.743 245.128 172.743 244.437 173.13L223.778 184.694C222.084 185.642 220.057 184.169 220.436 182.265L225.05 159.044C225.204 158.268 224.944 157.467 224.363 156.93L206.981 140.856C205.556 139.538 206.33 137.155 208.258 136.927L231.768 134.139C232.554 134.046 233.235 133.551 233.566 132.833L243.483 111.334Z" fill="url(#paint15_linear_1371_17677)"/>
<mask id="mask0_1371_17677" style="mask-type:alpha" maskUnits="userSpaceOnUse" x="206" y="111" width="79" height="76">
<path d="M243.483 112.471C244.296 110.708 246.801 110.708 247.614 112.471L257.53 133.97C257.862 134.688 258.543 135.183 259.328 135.276L282.839 138.063C284.767 138.292 285.541 140.675 284.116 141.993L266.734 158.067C266.153 158.604 265.893 159.405 266.047 160.181L270.661 183.402C271.039 185.306 269.013 186.779 267.319 185.83L246.66 174.266C245.969 173.88 245.128 173.88 244.437 174.266L223.778 185.83C222.084 186.779 220.057 185.306 220.436 183.402L225.05 160.181C225.204 159.405 224.944 158.604 224.363 158.067L206.981 141.993C205.556 140.675 206.33 138.292 208.258 138.063L231.768 135.276C232.554 135.183 233.235 134.688 233.566 133.97L243.483 112.471Z" fill="#A5D9FF"/>
</mask>
<g mask="url(#mask0_1371_17677)">
<g opacity="0.3" filter="url(#filter22_f_1371_17677)">
<path d="M251.444 112.471C252.257 110.708 254.762 110.708 255.575 112.471L265.491 133.97C265.823 134.688 266.504 135.183 267.289 135.276L290.8 138.063C292.728 138.292 293.502 140.675 292.077 141.993L274.695 158.067C274.114 158.604 273.854 159.405 274.008 160.181L278.622 183.402C279 185.306 276.974 186.779 275.28 185.83L254.62 174.266C253.93 173.88 253.089 173.88 252.398 174.266L231.739 185.83C230.045 186.779 228.018 185.306 228.397 183.402L233.011 160.181C233.165 159.405 232.905 158.604 232.324 158.067L214.942 141.993C213.517 140.675 214.291 138.292 216.219 138.063L239.729 135.276C240.515 135.183 241.196 134.688 241.527 133.97L251.444 112.471Z" fill="#FFBA07"/>
</g>
</g>
<defs>
<filter id="filter0_f_1371_17677" x="181.839" y="279.383" width="33.1851" height="33.1849" filterUnits="userSpaceOnUse" color-interpolation-filters="sRGB">
<feFlood flood-opacity="0" result="BackgroundImageFix"/>
<feBlend mode="normal" in="SourceGraphic" in2="BackgroundImageFix" result="shape"/>
<feGaussianBlur stdDeviation="4.88013" result="effect1_foregroundBlur_1371_17677"/>
</filter>
<filter id="filter1_f_1371_17677" x="361.426" y="494.109" width="33.1851" height="33.1849" filterUnits="userSpaceOnUse" color-interpolation-filters="sRGB">
<feFlood flood-opacity="0" result="BackgroundImageFix"/>
<feBlend mode="normal" in="SourceGraphic" in2="BackgroundImageFix" result="shape"/>
<feGaussianBlur stdDeviation="4.88013" result="effect1_foregroundBlur_1371_17677"/>
</filter>
<filter id="filter2_f_1371_17677" x="166.221" y="334.041" width="33.1851" height="33.1849" filterUnits="userSpaceOnUse" color-interpolation-filters="sRGB">
<feFlood flood-opacity="0" result="BackgroundImageFix"/>
<feBlend mode="normal" in="SourceGraphic" in2="BackgroundImageFix" result="shape"/>
<feGaussianBlur stdDeviation="4.88013" result="effect1_foregroundBlur_1371_17677"/>
</filter>
<filter id="filter3_f_1371_17677" x="268.703" y="250.103" width="33.1851" height="33.1849" filterUnits="userSpaceOnUse" color-interpolation-filters="sRGB">
<feFlood flood-opacity="0" result="BackgroundImageFix"/>
<feBlend mode="normal" in="SourceGraphic" in2="BackgroundImageFix" result="shape"/>
<feGaussianBlur stdDeviation="4.88013" result="effect1_foregroundBlur_1371_17677"/>
</filter>
<filter id="filter4_f_1371_17677" x="299.937" y="310.616" width="33.1851" height="33.1849" filterUnits="userSpaceOnUse" color-interpolation-filters="sRGB">
<feFlood flood-opacity="0" result="BackgroundImageFix"/>
<feBlend mode="normal" in="SourceGraphic" in2="BackgroundImageFix" result="shape"/>
<feGaussianBlur stdDeviation="4.88013" result="effect1_foregroundBlur_1371_17677"/>
</filter>
<filter id="filter5_f_1371_17677" x="7.7009" y="195.906" width="434.148" height="519.49" filterUnits="userSpaceOnUse" color-interpolation-filters="sRGB">
<feFlood flood-opacity="0" result="BackgroundImageFix"/>
<feBlend mode="normal" in="SourceGraphic" in2="BackgroundImageFix" result="shape"/>
<feGaussianBlur stdDeviation="8.53773" result="effect1_foregroundBlur_1371_17677"/>
</filter>
<filter id="filter6_f_1371_17677" x="13.7329" y="195.551" width="418.622" height="508.529" filterUnits="userSpaceOnUse" color-interpolation-filters="sRGB">
<feFlood flood-opacity="0" result="BackgroundImageFix"/>
<feBlend mode="normal" in="SourceGraphic" in2="BackgroundImageFix" result="shape"/>
<feGaussianBlur stdDeviation="5.36815" result="effect1_foregroundBlur_1371_17677"/>
</filter>
<filter id="filter7_f_1371_17677" x="255.041" y="452.139" width="33.1851" height="33.1849" filterUnits="userSpaceOnUse" color-interpolation-filters="sRGB">
<feFlood flood-opacity="0" result="BackgroundImageFix"/>
<feBlend mode="normal" in="SourceGraphic" in2="BackgroundImageFix" result="shape"/>
<feGaussianBlur stdDeviation="4.88013" result="effect1_foregroundBlur_1371_17677"/>
</filter>
<filter id="filter8_f_1371_17677" x="155.483" y="491.181" width="33.1851" height="33.1849" filterUnits="userSpaceOnUse" color-interpolation-filters="sRGB">
<feFlood flood-opacity="0" result="BackgroundImageFix"/>
<feBlend mode="normal" in="SourceGraphic" in2="BackgroundImageFix" result="shape"/>
<feGaussianBlur stdDeviation="4.88013" result="effect1_foregroundBlur_1371_17677"/>
</filter>
<filter id="filter9_f_1371_17677" x="356.547" y="555.599" width="33.1851" height="33.1849" filterUnits="userSpaceOnUse" color-interpolation-filters="sRGB">
<feFlood flood-opacity="0" result="BackgroundImageFix"/>
<feBlend mode="normal" in="SourceGraphic" in2="BackgroundImageFix" result="shape"/>
<feGaussianBlur stdDeviation="4.88013" result="effect1_foregroundBlur_1371_17677"/>
</filter>
<filter id="filter10_f_1371_17677" x="281.395" y="592.687" width="33.1851" height="33.1849" filterUnits="userSpaceOnUse" color-interpolation-filters="sRGB">
<feFlood flood-opacity="0" result="BackgroundImageFix"/>
<feBlend mode="normal" in="SourceGraphic" in2="BackgroundImageFix" result="shape"/>
<feGaussianBlur stdDeviation="4.88013" result="effect1_foregroundBlur_1371_17677"/>
</filter>
<filter id="filter11_f_1371_17677" x="169.429" y="598.823" width="52.1478" height="52.1477" filterUnits="userSpaceOnUse" color-interpolation-filters="sRGB">
<feFlood flood-opacity="0" result="BackgroundImageFix"/>
<feBlend mode="normal" in="SourceGraphic" in2="BackgroundImageFix" result="shape"/>
<feGaussianBlur stdDeviation="7.66878" result="effect1_foregroundBlur_1371_17677"/>
</filter>
<filter id="filter12_f_1371_17677" x="300.716" y="433.41" width="33.1851" height="33.1849" filterUnits="userSpaceOnUse" color-interpolation-filters="sRGB">
<feFlood flood-opacity="0" result="BackgroundImageFix"/>
<feBlend mode="normal" in="SourceGraphic" in2="BackgroundImageFix" result="shape"/>
<feGaussianBlur stdDeviation="4.88013" result="effect1_foregroundBlur_1371_17677"/>
</filter>
<filter id="filter13_f_1371_17677" x="303.7" y="319.258" width="33.1851" height="33.1849" filterUnits="userSpaceOnUse" color-interpolation-filters="sRGB">
<feFlood flood-opacity="0" result="BackgroundImageFix"/>
<feBlend mode="normal" in="SourceGraphic" in2="BackgroundImageFix" result="shape"/>
<feGaussianBlur stdDeviation="4.88013" result="effect1_foregroundBlur_1371_17677"/>
</filter>
<filter id="filter14_f_1371_17677" x="214.046" y="367.225" width="33.1851" height="33.1849" filterUnits="userSpaceOnUse" color-interpolation-filters="sRGB">
<feFlood flood-opacity="0" result="BackgroundImageFix"/>
<feBlend mode="normal" in="SourceGraphic" in2="BackgroundImageFix" result="shape"/>
<feGaussianBlur stdDeviation="4.88013" result="effect1_foregroundBlur_1371_17677"/>
</filter>
<filter id="filter15_f_1371_17677" x="178.91" y="310.616" width="33.1851" height="33.1849" filterUnits="userSpaceOnUse" color-interpolation-filters="sRGB">
<feFlood flood-opacity="0" result="BackgroundImageFix"/>
<feBlend mode="normal" in="SourceGraphic" in2="BackgroundImageFix" result="shape"/>
<feGaussianBlur stdDeviation="4.88013" result="effect1_foregroundBlur_1371_17677"/>
</filter>
<filter id="filter16_f_1371_17677" x="243.327" y="280.36" width="33.1851" height="33.1849" filterUnits="userSpaceOnUse" color-interpolation-filters="sRGB">
<feFlood flood-opacity="0" result="BackgroundImageFix"/>
<feBlend mode="normal" in="SourceGraphic" in2="BackgroundImageFix" result="shape"/>
<feGaussianBlur stdDeviation="4.88013" result="effect1_foregroundBlur_1371_17677"/>
</filter>
<filter id="filter17_f_1371_17677" x="208.191" y="243.271" width="33.1851" height="33.1849" filterUnits="userSpaceOnUse" color-interpolation-filters="sRGB">
<feFlood flood-opacity="0" result="BackgroundImageFix"/>
<feBlend mode="normal" in="SourceGraphic" in2="BackgroundImageFix" result="shape"/>
<feGaussianBlur stdDeviation="4.88013" result="effect1_foregroundBlur_1371_17677"/>
</filter>
<filter id="filter18_f_1371_17677" x="254.068" y="194.468" width="33.1851" height="33.1849" filterUnits="userSpaceOnUse" color-interpolation-filters="sRGB">
<feFlood flood-opacity="0" result="BackgroundImageFix"/>
<feBlend mode="normal" in="SourceGraphic" in2="BackgroundImageFix" result="shape"/>
<feGaussianBlur stdDeviation="4.88013" result="effect1_foregroundBlur_1371_17677"/>
</filter>
<filter id="filter19_f_1371_17677" x="131.085" y="403.338" width="33.1851" height="33.1849" filterUnits="userSpaceOnUse" color-interpolation-filters="sRGB">
<feFlood flood-opacity="0" result="BackgroundImageFix"/>
<feBlend mode="normal" in="SourceGraphic" in2="BackgroundImageFix" result="shape"/>
<feGaussianBlur stdDeviation="4.88013" result="effect1_foregroundBlur_1371_17677"/>
</filter>
<filter id="filter20_f_1371_17677" x="97.7859" y="0.349014" width="305.783" height="295.598" filterUnits="userSpaceOnUse" color-interpolation-filters="sRGB">
<feFlood flood-opacity="0" result="BackgroundImageFix"/>
<feBlend mode="normal" in="SourceGraphic" in2="BackgroundImageFix" result="shape"/>
<feGaussianBlur stdDeviation="18.7674" result="effect1_foregroundBlur_1371_17677"/>
</filter>
<filter id="filter21_f_1371_17677" x="173.452" y="73.6195" width="153.662" height="150.394" filterUnits="userSpaceOnUse" color-interpolation-filters="sRGB">
<feFlood flood-opacity="0" result="BackgroundImageFix"/>
<feBlend mode="normal" in="SourceGraphic" in2="BackgroundImageFix" result="shape"/>
<feGaussianBlur stdDeviation="18.7674" result="effect1_foregroundBlur_1371_17677"/>
</filter>
<filter id="filter22_f_1371_17677" x="209.659" y="106.599" width="87.7004" height="84.0767" filterUnits="userSpaceOnUse" color-interpolation-filters="sRGB">
<feFlood flood-opacity="0" result="BackgroundImageFix"/>
<feBlend mode="normal" in="SourceGraphic" in2="BackgroundImageFix" result="shape"/>
<feGaussianBlur stdDeviation="2.27484" result="effect1_foregroundBlur_1371_17677"/>
</filter>
<linearGradient id="paint0_linear_1371_17677" x1="77.8849" y1="488.821" x2="377.746" y2="516.871" gradientUnits="userSpaceOnUse">
<stop offset="0.176169" stop-color="#200947"/>
<stop offset="1" stop-color="#200D56"/>
</linearGradient>
<linearGradient id="paint1_linear_1371_17677" x1="291.076" y1="451.813" x2="265.353" y2="538.145" gradientUnits="userSpaceOnUse">
<stop stop-color="#FFCDC1"/>
<stop offset="0.592097" stop-color="#EE4F72"/>
</linearGradient>
<linearGradient id="paint2_linear_1371_17677" x1="291.076" y1="451.813" x2="265.353" y2="538.145" gradientUnits="userSpaceOnUse">
<stop stop-color="#FFCDC1"/>
<stop offset="0.592097" stop-color="#EE4F72"/>
</linearGradient>
<linearGradient id="paint3_linear_1371_17677" x1="295.513" y1="451.412" x2="269.789" y2="537.743" gradientUnits="userSpaceOnUse">
<stop stop-color="white"/>
<stop offset="0.592097" stop-color="#F16382"/>
</linearGradient>
<linearGradient id="paint4_linear_1371_17677" x1="296.994" y1="451.277" x2="271.27" y2="537.609" gradientUnits="userSpaceOnUse">
<stop stop-color="#FEAD9A"/>
<stop offset="0.592097" stop-color="#F16382"/>
</linearGradient>
<linearGradient id="paint5_linear_1371_17677" x1="296.994" y1="451.277" x2="271.27" y2="537.609" gradientUnits="userSpaceOnUse">
<stop stop-color="#FFCCC0"/>
<stop offset="0.592097" stop-color="#F16382"/>
</linearGradient>
<linearGradient id="paint6_linear_1371_17677" x1="193.104" y1="298.907" x2="256.101" y2="358.656" gradientUnits="userSpaceOnUse">
<stop stop-color="#E5B12A"/>
<stop offset="1" stop-color="#E94B70"/>
</linearGradient>
<linearGradient id="paint7_linear_1371_17677" x1="195.788" y1="295.686" x2="258.785" y2="355.436" gradientUnits="userSpaceOnUse">
<stop stop-color="#FFCF52"/>
<stop offset="1" stop-color="#F48DA5"/>
</linearGradient>
<linearGradient id="paint8_linear_1371_17677" x1="-49.4783" y1="678.635" x2="466.352" y2="525.887" gradientUnits="userSpaceOnUse">
<stop stop-color="white" stop-opacity="0"/>
<stop offset="0.740815" stop-color="#0C0063"/>
<stop offset="1" stop-color="white" stop-opacity="0"/>
</linearGradient>
<linearGradient id="paint9_linear_1371_17677" x1="-50.4827" y1="678.493" x2="465.347" y2="525.745" gradientUnits="userSpaceOnUse">
<stop stop-color="white" stop-opacity="0"/>
<stop offset="0.885167" stop-color="#FFBA07"/>
<stop offset="1" stop-color="white" stop-opacity="0"/>
</linearGradient>
<linearGradient id="paint10_linear_1371_17677" x1="-49.4783" y1="672.722" x2="466.352" y2="519.974" gradientUnits="userSpaceOnUse">
<stop stop-color="white" stop-opacity="0"/>
<stop offset="0.102127" stop-color="white"/>
<stop offset="1" stop-color="white" stop-opacity="0"/>
</linearGradient>
<linearGradient id="paint11_linear_1371_17677" x1="-49.4783" y1="675.622" x2="466.352" y2="522.874" gradientUnits="userSpaceOnUse">
<stop stop-color="white" stop-opacity="0"/>
<stop offset="0.740815" stop-color="white"/>
<stop offset="1" stop-color="white" stop-opacity="0"/>
</linearGradient>
<linearGradient id="paint12_linear_1371_17677" x1="-49.4783" y1="670.77" x2="466.352" y2="518.022" gradientUnits="userSpaceOnUse">
<stop stop-color="white" stop-opacity="0"/>
<stop offset="0.885167" stop-color="white"/>
<stop offset="1" stop-color="white" stop-opacity="0"/>
</linearGradient>
<linearGradient id="paint13_linear_1371_17677" x1="201.189" y1="156.902" x2="289.908" y2="142.116" gradientUnits="userSpaceOnUse">
<stop stop-color="white"/>
<stop offset="1" stop-color="white"/>
</linearGradient>
<linearGradient id="paint14_linear_1371_17677" x1="201.189" y1="156.902" x2="289.908" y2="142.116" gradientUnits="userSpaceOnUse">
<stop stop-color="white"/>
<stop offset="1" stop-color="white"/>
</linearGradient>
<linearGradient id="paint15_linear_1371_17677" x1="201.189" y1="156.902" x2="289.908" y2="142.116" gradientUnits="userSpaceOnUse">
<stop stop-color="#FFFCF3"/>
<stop offset="1" stop-color="white"/>
</linearGradient>
</defs>
</svg>
