<svg width="104" height="132" viewBox="0 0 104 132" fill="none" xmlns="http://www.w3.org/2000/svg">
<path d="M33.084 56.733L25.4055 66.3385L32.2164 68.398L34.8326 66.1536C36.8388 64.431 38.7049 62.2291 40.332 59.6646L49.8885 67.7929L37.8664 78.4642C36.8712 76.2087 35.5329 74.3844 33.9224 73.0881L31.8217 71.3995L25.0268 69.3449L30.3823 80.5126C31.2259 81.1899 31.9594 82.0846 32.5589 83.1674L20.157 94.2213L27.091 96.318L26.3388 96.5829C26.5111 99.4584 33.9542 95.7764 33.5274 98.7565L38.8982 98.2728L39.4814 94.2009C39.9276 91.082 39.9807 88.0265 39.6378 85.1954L48.7312 74.2793L46.2671 93.0769C44.1617 93.8259 44.9923 95.3825 43.0111 97.1985L35.4758 104.143C37.9086 105.714 39.4286 106.076 42.2972 106.206L44.8803 103.836C45.9184 102.885 38.7622 110.264 39.8644 109.743C42.3347 111.307 43.7968 111.928 46.7695 111.831L52.1602 111.196L53.4991 100.981C54.4972 101.255 50.8914 101.417 51.7089 102.149C54.252 104.148 55.6881 104.678 58.2707 104.324L61.9661 97.03L59.9329 95.2043C58.3731 93.8056 56.5592 92.9494 54.5872 92.6809L57.0512 73.8833L62.862 80.5899C61.7519 83.594 57.3949 90.2315 57.0234 93.3445L63.8829 95.3357L69.2935 94.5488L69.6358 88.4732C69.8299 86.8421 69.157 89.9964 69.6608 88.3906C72.1184 90.0267 73.5649 90.7158 76.5871 90.485L80.2054 83.1258L74.4483 78.229C75.355 76.9687 76.3497 75.8703 77.4002 74.9698L80.0161 72.7272L78.3419 65.9172C75.0948 63.8839 73.6937 63.5222 71.7541 63.9252C69.7479 65.6477 69.8593 70.4463 68.2322 73.0109L65.4481 70.5865L60.6698 66.5223L72.6919 55.851C73.6871 58.1065 70.2984 59.5553 71.9089 60.8516C74.2199 62.8313 75.7447 63.1844 78.7354 62.9158L82.2755 55.4913L80.1748 53.8028C79.3312 53.1254 78.5977 52.2307 77.9982 51.1479L85.2421 44.7026L83.4698 37.9787L76.5219 35.8778C76.4299 34.3422 76.2086 41.2578 76.4428 39.622L77.026 35.5501L70.2148 33.4906L68.013 40.7722C67.5674 43.8946 70.5751 46.2868 70.9205 49.1197L58.8978 59.7966L61.3618 40.999C63.4672 40.25 65.566 38.9327 67.5472 37.1167L70.1304 34.747L68.2612 28.1091C65.8513 26.4891 64.3918 25.9374 61.4576 26.0519C60.4195 27.0028 63.552 32.1779 62.4498 32.6989L63.7888 22.4841C61.2307 21.1068 59.7082 20.6258 56.8092 20.3736L54.9549 32.6979C53.9568 32.4244 55.1384 32.5495 54.3209 31.8172L52.2876 29.9916C49.9156 28.5734 48.4721 28.063 45.5789 27.963L50.6254 39.1109C52.1852 40.5096 51.6604 41.0135 53.6325 41.2819L51.1684 60.0796L43.9501 52.2982C45.0601 49.2941 45.8211 46.1526 46.1926 43.0396L46.6754 38.9795C44.2023 37.353 42.7087 36.906 39.8583 36.9182L37.6849 43.2716C37.4894 44.9056 36.6764 44.9187 36.1702 46.5267L33.9725 43.821L27.185 41.7688L36.1051 56.0777C35.2004 57.3396 34.133 55.8297 33.084 56.733Z" fill="url(#paint0_linear_1427_11368)"/>
<path d="M33.084 56.733L25.4055 66.3385L32.2164 68.398L34.8326 66.1536C36.8388 64.431 38.7049 62.2291 40.332 59.6646L49.8885 67.7929L37.8664 78.4642C36.8712 76.2087 35.5329 74.3844 33.9224 73.0881L31.8217 71.3995L25.0268 69.3449L30.3823 80.5126C31.2259 81.1899 31.9594 82.0846 32.5589 83.1674L20.157 94.2213L27.091 96.318L26.3388 96.5829C26.5111 99.4584 33.9542 95.7764 33.5274 98.7565L38.8982 98.2728L39.4814 94.2009C39.9276 91.082 39.9807 88.0265 39.6378 85.1954L48.7312 74.2793L46.2671 93.0769C44.1617 93.8259 44.9923 95.3825 43.0111 97.1985L35.4758 104.143C37.9086 105.714 39.4286 106.076 42.2972 106.206L44.8803 103.836C45.9184 102.885 38.7622 110.264 39.8644 109.743C42.3347 111.307 43.7968 111.928 46.7695 111.831L52.1602 111.196L53.4991 100.981C54.4972 101.255 50.8914 101.417 51.7089 102.149C54.252 104.148 55.6881 104.678 58.2707 104.324L61.9661 97.03L59.9329 95.2043C58.3731 93.8056 56.5592 92.9494 54.5872 92.6809L57.0512 73.8833L62.862 80.5899C61.7519 83.594 57.3949 90.2315 57.0234 93.3445L63.8829 95.3357L69.2935 94.5488L69.6358 88.4732C69.8299 86.8421 69.157 89.9964 69.6608 88.3906C72.1184 90.0267 73.5649 90.7158 76.5871 90.485L80.2054 83.1258L74.4483 78.229C75.355 76.9687 76.3497 75.8703 77.4002 74.9698L80.0161 72.7272L78.3419 65.9172C75.0948 63.8839 73.6937 63.5222 71.7541 63.9252C69.7479 65.6477 69.8593 70.4463 68.2322 73.0109L65.4481 70.5865L60.6698 66.5223L72.6919 55.851C73.6871 58.1065 70.2984 59.5553 71.9089 60.8516C74.2199 62.8313 75.7447 63.1844 78.7354 62.9158L82.2755 55.4913L80.1748 53.8028C79.3312 53.1254 78.5977 52.2307 77.9982 51.1479L85.2421 44.7026L83.4698 37.9787L76.5219 35.8778C76.4299 34.3422 76.2086 41.2578 76.4428 39.622L77.026 35.5501L70.2148 33.4906L68.013 40.7722C67.5674 43.8946 70.5751 46.2868 70.9205 49.1197L58.8978 59.7966L61.3618 40.999C63.4672 40.25 65.566 38.9327 67.5472 37.1167L70.1304 34.747L68.2612 28.1091C65.8513 26.4891 64.3918 25.9374 61.4576 26.0519C60.4195 27.0028 63.552 32.1779 62.4498 32.6989L63.7888 22.4841C61.2307 21.1068 59.7082 20.6258 56.8092 20.3736L54.9549 32.6979C53.9568 32.4244 55.1384 32.5495 54.3209 31.8172L52.2876 29.9916C49.9156 28.5734 48.4721 28.063 45.5789 27.963L50.6254 39.1109C52.1852 40.5096 51.6604 41.0135 53.6325 41.2819L51.1684 60.0796L43.9501 52.2982C45.0601 49.2941 45.8211 46.1526 46.1926 43.0396L46.6754 38.9795C44.2023 37.353 42.7087 36.906 39.8583 36.9182L37.6849 43.2716C37.4894 44.9056 36.6764 44.9187 36.1702 46.5267L33.9725 43.821L27.185 41.7688L36.1051 56.0777C35.2004 57.3396 34.133 55.8297 33.084 56.733Z" fill="white" fill-opacity="0.6"/>
<path d="M26.3542 57.286L23.738 59.5304L25.4122 66.3404L28.0284 64.096C30.0346 62.3734 31.9007 60.1715 33.5278 57.607L43.0843 65.7353L31.0622 76.4066C30.067 74.1511 28.7287 72.3268 27.1182 71.0304L25.0175 69.3419L21.4774 76.7664L23.5781 78.455C24.4217 79.1323 25.1552 80.027 25.7547 81.1098L18.5132 87.5458L20.2868 94.2604L27.5209 87.8435C27.6129 89.3791 27.5406 90.9913 27.3064 92.6271L26.7232 96.6989L32.094 96.2152L32.6772 92.1433C33.1234 89.0244 33.1765 85.9689 32.8336 83.1378L44.8564 72.461L42.3923 91.2586C40.2869 92.0076 38.1881 93.3249 36.2069 95.1409L33.6237 97.5106L35.493 104.148L38.0761 101.779C39.1142 100.828 40.2021 100.08 41.3043 99.5587L39.9653 109.773L45.356 109.138L46.6949 98.9234C47.693 99.1969 48.6158 99.7081 49.4333 100.44L51.4665 102.266L55.1619 94.9724L53.1287 93.1467C51.5689 91.748 49.755 90.8918 47.783 90.6233L50.247 71.8257L59.804 79.9594C58.694 82.9635 57.9331 86.105 57.5615 89.218L57.0787 93.2781L62.4893 92.4912L62.972 88.4312C63.166 86.8001 63.5208 85.1547 64.0245 83.5489L69.7829 88.4273L73.4012 81.0682L67.6441 76.1714C68.5508 74.9111 69.5455 73.8127 70.596 72.9121L73.2119 70.6696L71.5377 63.8596L68.9215 66.104C66.9153 67.8265 65.0492 70.0285 63.4221 72.593L53.8656 64.4647L65.8877 53.7934C66.8829 56.0489 68.2212 57.8732 69.8317 59.1695L71.9312 60.8582L75.4713 53.4337L73.3706 51.7452C72.527 51.0678 71.7935 50.1731 71.194 49.0903L78.4379 42.6449L76.6656 35.9211L69.4241 42.348C69.3321 40.8124 69.4044 39.2002 69.6386 37.5644L70.2218 33.4925L64.851 33.9763L64.2678 38.0481C63.8223 41.1706 63.7709 44.2292 64.1163 47.0621L52.0936 57.739L54.5576 38.9414C56.663 38.1924 58.7618 36.8751 60.743 35.059L63.3262 32.6894L61.457 26.0515L58.8738 28.4212C57.8357 29.3721 56.7478 30.1203 55.6456 30.6413L56.9846 20.4265L51.594 21.0618L50.255 31.2765C49.2569 31.0031 48.3342 30.4919 47.5167 29.7596L45.4834 27.934L41.788 35.2276L43.8212 37.0532C45.381 38.452 47.1949 39.3082 49.167 39.5766L46.7029 58.3743L37.1459 50.2406C38.2559 47.2365 39.0169 44.095 39.3884 40.982L39.8712 36.9219L34.4607 37.7088L33.9779 41.7688C33.7824 43.4028 33.4257 45.051 32.9195 46.6591L27.1683 41.7634L23.5511 49.1133L29.3009 54.0201C28.3962 55.282 27.4032 56.3826 26.3542 57.286V57.286Z" fill="white"/>
<defs>
<linearGradient id="paint0_linear_1427_11368" x1="85.6545" y1="35.4976" x2="22.9262" y2="54.7841" gradientUnits="userSpaceOnUse">
<stop stop-color="#E3E3E3"/>
<stop offset="0.21988" stop-color="#99C2FF"/>
<stop offset="0.512048" stop-color="#F48DA5"/>
<stop offset="0.75" stop-color="#A699DC"/>
<stop offset="1" stop-color="#E3E3E3"/>
</linearGradient>
</defs>
</svg>
