<svg width="293" height="480" viewBox="0 0 293 480" fill="none" xmlns="http://www.w3.org/2000/svg">
<g opacity="0.4">
<mask id="mask0_1380_12610" style="mask-type:alpha" maskUnits="userSpaceOnUse" x="30" y="257" width="77" height="196">
<rect width="75.8532" height="195.196" transform="matrix(-1 0 0 1 106.697 257.413)" fill="url(#paint0_radial_1380_12610)"/>
</mask>
<g mask="url(#mask0_1380_12610)">
<rect opacity="0.5" width="36.5558" height="192.65" transform="matrix(-1 0 0 1 106.697 259.959)" fill="url(#paint1_linear_1380_12610)"/>
<rect opacity="0.5" x="30.8463" y="259.959" width="36.5558" height="192.65" fill="url(#paint2_linear_1380_12610)"/>
</g>
</g>
<path d="M91.4122 280.88C100.863 275.152 105.589 272.288 106.488 268.848C106.778 267.737 106.778 266.606 106.488 265.495C105.589 262.055 100.863 259.191 91.4122 253.463C81.961 247.734 77.2354 244.87 71.5601 244.325C69.7272 244.149 67.8601 244.149 66.0272 244.325C60.3519 244.87 55.6263 247.734 46.1751 253.463C36.7239 259.191 31.9983 262.055 31.0994 265.495C30.8091 266.606 30.8091 267.737 31.0994 268.848C31.9983 272.288 36.7239 275.152 46.1751 280.88C55.6263 286.609 60.3519 289.473 66.0272 290.018C67.8601 290.194 69.7272 290.194 71.5601 290.018C77.2354 289.473 81.961 286.609 91.4122 280.88Z" fill="url(#paint3_linear_1380_12610)"/>
<path d="M91.4122 280.88C100.863 275.152 105.589 272.288 106.488 268.848C106.778 267.737 106.778 266.606 106.488 265.495C105.589 262.055 100.863 259.191 91.4122 253.463C81.961 247.734 77.2354 244.87 71.5601 244.325C69.7272 244.149 67.8601 244.149 66.0272 244.325C60.3519 244.87 55.6263 247.734 46.1751 253.463C36.7239 259.191 31.9983 262.055 31.0994 265.495C30.8091 266.606 30.8091 267.737 31.0994 268.848C31.9983 272.288 36.7239 275.152 46.1751 280.88C55.6263 286.609 60.3519 289.473 66.0272 290.018C67.8601 290.194 69.7272 290.194 71.5601 290.018C77.2354 289.473 81.961 286.609 91.4122 280.88Z" fill="white" fill-opacity="0.6"/>
<path d="M106.706 263.385H30.8524V267.041H106.706V263.385Z" fill="url(#paint4_linear_1380_12610)"/>
<path d="M106.706 263.385H30.8524V267.041H106.706V263.385Z" fill="white" fill-opacity="0.6"/>
<rect width="52.8974" height="52.8974" rx="14.6223" transform="matrix(-0.855186 -0.518321 -0.855186 0.518321 114.015 262.932)" fill="white"/>
<g filter="url(#filter0_f_1380_12610)">
<circle cx="119.965" cy="179.964" r="4.15131" fill="white"/>
</g>
<circle cx="119.965" cy="179.964" r="4.15131" fill="white"/>
<g filter="url(#filter1_f_1380_12610)">
<circle cx="229.084" cy="310.434" r="4.15131" fill="white"/>
</g>
<circle cx="229.084" cy="310.434" r="4.15131" fill="white"/>
<g filter="url(#filter2_f_1380_12610)">
<circle cx="110.476" cy="213.175" r="4.15131" fill="white"/>
</g>
<circle cx="110.476" cy="213.175" r="4.15131" fill="white"/>
<g filter="url(#filter3_f_1380_12610)">
<circle cx="172.745" cy="162.173" r="4.15131" fill="white"/>
</g>
<circle cx="172.745" cy="162.173" r="4.15131" fill="white"/>
<g filter="url(#filter4_f_1380_12610)">
<circle cx="191.724" cy="198.942" r="4.15131" fill="white"/>
</g>
<circle cx="191.724" cy="198.942" r="4.15131" fill="white"/>
<path d="M292.541 474.193C290.96 478.815 289.131 482.514 287.026 484.881C271.224 502.655 223.815 463.773 223.815 463.773C223.815 463.773 230.66 459.707 244.35 463.24C228.531 456.974 205.517 402.672 205.517 402.672C205.517 402.672 205.517 402.672 218.825 398.229C198.032 383.787 175.575 299.357 175.575 299.357C175.575 299.357 180.565 299.357 202.19 299.357C185.689 293.847 165.087 219.437 164.771 218.271C165.087 218.437 172.281 222.392 173.911 208.261C159.988 188.287 145.551 113.99 145.551 113.99C145.551 113.99 145.686 99.2338 152.353 106.856C154.308 108.29 155.339 111.767 156.703 114.644C158.142 117.244 159.922 119.232 162.309 120.054C162.849 132.93 165.852 141.106 174.003 150.438C173.204 154.704 173.687 159.259 174.577 163.18C175.342 166.024 176.207 168.724 176.598 169.901C176.606 169.923 176.615 169.935 176.615 169.957C181.006 181.877 181.48 183.321 176.107 169.579C177.937 174.389 179.376 178.166 180.399 180.744C181.472 183.432 182.096 184.799 182.337 184.188C182.312 184.488 182.262 184.654 182.187 184.71C182.836 185.587 183.46 185.965 184.125 185.61C184.15 186.054 184.183 186.476 184.208 186.865C184.424 186.709 184.641 186.465 184.865 186.143C184.857 186.632 184.849 187.087 184.832 187.509C185.223 187.443 185.639 187.254 186.08 186.921C185.988 193.019 186.487 196.163 189.897 191.442C188.65 198.552 190.305 197.808 193.881 192.786C191.835 201.407 191.436 205.106 197.067 198.874C193.041 207.173 195.054 205.551 200.119 199.852C195.57 206.862 194.072 209.805 200.768 204.173C195.362 212.15 198.148 211.55 205.126 208.328C199.603 214.86 197.873 218.382 206.324 216.327C199.304 223.337 202.465 224.77 210.299 225.158C210.067 225.336 209.842 225.503 209.626 225.669C209.909 225.614 210.208 225.547 210.507 225.481C209.917 225.758 209.368 226.036 208.861 226.292C208.021 226.969 207.314 227.602 206.773 228.113C207.879 228.091 209.268 227.969 210.873 227.814C208.07 229.158 206.174 230.302 205.999 229.602C205.975 229.724 205.95 229.835 205.941 229.946C206.665 230.202 207.879 230.191 209.676 229.891C208.395 230.702 207.422 231.357 206.748 231.746C206.74 231.924 206.731 232.091 206.723 232.257C206.831 232.291 206.948 232.313 207.072 232.324C207.796 232.391 208.852 232.102 210.316 231.424C209.459 232.257 208.752 232.957 208.17 233.479C208.886 233.357 209.759 233.035 210.79 232.468C210.358 233.146 209.958 233.768 209.601 234.324C209.667 234.312 209.726 234.29 209.792 234.257C210.241 233.946 210.749 233.601 211.322 233.224C211.04 233.468 210.765 233.701 210.516 233.935C211.048 233.668 211.622 233.324 212.246 232.89C211.314 233.646 210.482 234.335 209.784 234.923C210.557 234.435 211.489 233.824 212.553 233.09C210.682 234.801 209.268 235.934 208.32 236.301C208.145 236.568 207.979 236.79 207.846 236.979V237.145C207.846 237.145 207.846 237.145 207.854 237.156C208.644 236.656 209.983 235.723 211.93 234.312C211.281 235.179 210.707 235.99 210.216 236.723C210.998 236.212 211.913 235.39 212.969 234.246C212.312 235.001 211.713 235.69 211.181 236.323C211.813 235.89 212.52 235.379 213.285 234.801C213.094 235.023 212.903 235.246 212.72 235.457C212.678 235.534 212.637 235.612 212.595 235.679C212.645 235.623 212.703 235.557 212.753 235.501C212.529 235.89 212.312 236.268 212.104 236.634C212.578 236.201 213.077 235.69 213.618 235.112C211.597 237.823 210.383 239.978 209.875 241.433C209.9 241.411 209.933 241.389 209.967 241.367C210.774 240.189 212.254 238.445 214.441 236.157C213.393 237.49 212.495 238.712 211.755 239.8C212.595 238.989 213.568 237.967 214.649 236.712C212.803 239.556 211.364 241.322 210.299 242.067C210.058 242.478 209.85 242.844 209.676 243.189C209.676 243.2 209.684 243.2 209.684 243.2C210.308 243.055 211.514 242.344 213.244 241.022C213.734 240.4 214.267 239.678 214.849 238.889C214.317 239.645 213.818 240.334 213.352 240.945C213.967 240.478 214.649 239.945 215.39 239.323C215.623 238.878 215.864 238.423 216.113 237.945C215.964 238.334 215.822 238.712 215.697 239.067C215.997 238.812 216.313 238.545 216.637 238.267C216.263 238.701 215.897 239.101 215.548 239.478C215.223 240.356 214.957 241.145 214.733 241.856C215.423 241.156 216.18 240.345 216.995 239.434C215.897 241.189 214.957 242.667 214.159 243.9C212.994 248.888 215.573 247.377 221.278 241.067C214.924 251.876 213.743 254.742 221.278 243.166C212.87 260.03 213.177 262.441 225.969 249.976C214.907 266.229 216.338 267.607 231.384 259.664C220.496 269.573 223.225 270.173 234.993 267.185C221.736 275.239 219.748 278.938 235.193 283.626C220.771 286.348 223.782 290.047 234.985 297.613C225.761 295.457 224.738 297.168 232.149 304.845C225.129 301.979 226.56 305.1 231.159 310.255C228.531 310.466 229.072 312.721 230.602 313.443C230.585 317.631 231.558 320.287 232.099 315.554C232.789 320.553 233.388 323.73 234.004 324.441C234.619 325.152 235.251 323.397 236.025 318.565C235.725 328.752 236.299 331.762 239.709 322.464C237.447 333.695 238.029 332.618 240.932 321.775C239.202 334.951 239.817 338.994 247.494 329.84C242.022 344.693 243.602 346.338 254.497 338.65C245.373 350.481 245.556 352.97 258.157 348.97C253.117 353.314 251.171 356.036 252.219 357.369C252.776 359.669 256.311 360.591 262.233 361.324C258.506 361.924 256.344 362.402 255.936 362.435C255.629 363.568 258.024 363.912 262.574 364.268C256.294 365.734 258.956 367.145 265.135 369.023C260.32 370.878 259.03 373.2 263.904 376.166C258.057 378.499 258.365 381.487 264.578 378.976C262.54 382.254 261.259 384.476 260.769 384.498C260.827 388.286 262.424 386.442 265.327 380.065C262.141 390.697 261.783 394.785 267.131 387.586C267.722 386.153 268.429 384.442 269.227 382.476C268.836 383.82 268.487 385.042 268.196 386.12C268.487 385.698 268.803 385.242 269.128 384.764C268.687 385.642 268.279 386.453 267.913 387.175C266.441 392.774 266.757 393.541 270.467 385.964C265.784 400.095 266.275 401.517 274.043 389.464C267.14 402.861 269.56 399.94 276.522 388.275C271.989 397.807 270.65 401.639 277.694 393.274C269.236 407.416 269.169 409.36 280.605 398.651C270.367 411.349 271.648 411.404 283.433 402.15C275.865 409.671 278.809 407.883 286.228 402.361C278.318 411.471 275.582 416.137 287.334 414.715C273.577 423.191 274.301 425.591 289.114 427.168C279.399 429.101 283.774 430.201 292.374 431.356C282.834 435.767 279.865 439.833 286.885 448.653C283.317 448.553 282.252 449.642 282.668 451.486C283.076 453.319 284.964 455.908 287.301 458.807C282.444 459.041 284.115 463.617 286.76 466.328C286.411 469.872 287.026 471.549 288.315 470.239C287.026 471.549 288.299 472.26 291.185 472.794C291.534 473.26 291.992 473.727 292.541 474.193Z" fill="#0A0144"/>
<path d="M12.3254 492.77C14.0531 497.295 16.0004 500.885 18.1788 503.127C36.9673 522.471 235.304 486.204 266.541 484.582C266.541 484.582 229.641 428.298 230.599 420.292C250.904 404.671 219.719 393.215 219.719 393.215C219.719 393.215 221.781 318.909 200.18 320.154C216.486 313.701 224.382 330.847 209.505 291.802C209.505 274.984 192.938 243.828 190.854 229.809C204.118 209.058 144.304 149.157 149.056 113.845C147.844 111.102 147.279 108.3 148.253 107.777C146.67 104.912 145.848 103.18 146.054 102.846C144.949 102.654 145.107 104.702 146.325 108.911C142.671 108.399 141.307 112.58 140.511 117.817C138.605 119.361 137.687 122.893 136.417 125.845C135.064 128.524 133.35 130.613 130.992 131.571C130.867 144.462 128.132 152.801 120.291 162.591C121.226 166.805 120.891 171.382 120.128 175.35C119.456 178.235 118.679 180.981 118.326 182.179C118.319 182.202 118.311 182.214 118.312 182.236C114.309 194.394 113.882 195.864 118.806 181.829C117.133 186.739 115.818 190.594 114.879 193.227C113.894 195.974 113.315 197.375 113.054 196.778C113.089 197.077 113.144 197.24 113.221 197.291C112.601 198.205 111.99 198.618 111.314 198.302C111.303 198.747 111.284 199.17 111.271 199.56C111.05 199.417 110.827 199.186 110.592 198.877C110.616 199.365 110.639 199.819 110.669 200.24C110.277 200.196 109.855 200.031 109.404 199.723C109.692 205.81 109.295 208.978 105.736 204.459C107.212 211.488 105.535 210.84 101.8 206.031C104.122 214.523 104.64 218.195 98.8142 212.295C103.103 220.351 101.04 218.847 95.7966 213.447C100.567 220.186 102.158 223.04 95.288 217.8C100.946 225.456 98.1431 225.017 91.0684 222.201C96.7959 228.407 98.6377 231.825 90.1301 230.258C97.3686 236.856 94.2576 238.469 86.4436 239.308C86.682 239.472 86.9117 239.626 87.1331 239.78C86.8488 239.741 86.5476 239.691 86.2463 239.642C86.8452 239.885 87.4025 240.131 87.9175 240.357C88.7786 240.986 89.5052 241.577 90.0617 242.057C88.956 242.098 87.5646 242.056 85.956 241.993C88.7993 243.174 90.7306 244.208 90.8824 243.499C90.9113 243.62 90.9398 243.729 90.9517 243.84C90.2371 244.136 89.0237 244.195 87.2195 243.999C88.5251 244.735 89.5183 245.334 90.2039 245.683C90.2179 245.861 90.2316 246.026 90.2453 246.192C90.1383 246.232 90.0228 246.261 89.8985 246.279C89.1778 246.387 88.1133 246.16 86.6292 245.567C87.5118 246.35 88.2406 247.008 88.8391 247.496C88.1206 247.415 87.2378 247.144 86.1893 246.637C86.6432 247.289 87.0621 247.888 87.4373 248.422C87.3704 248.415 87.3115 248.396 87.244 248.366C86.7853 248.081 86.2674 247.767 85.6819 247.422C85.9723 247.65 86.254 247.867 86.5108 248.086C85.9704 247.85 85.386 247.54 84.7489 247.143C85.7038 247.844 86.5569 248.484 87.2738 249.032C86.4854 248.588 85.5351 248.031 84.448 247.36C86.3726 248.961 87.8216 250.012 88.7806 250.323C88.9636 250.579 89.137 250.792 89.276 250.973L89.2814 251.139C89.2814 251.139 89.2814 251.139 89.2734 251.151C88.468 250.697 87.1002 249.842 85.1105 248.545C85.7865 249.373 86.386 250.15 86.8998 250.854C86.1024 250.388 85.1619 249.62 84.0698 248.538C84.7506 249.255 85.371 249.908 85.9232 250.51C85.2777 250.114 84.555 249.644 83.772 249.111C83.9703 249.322 84.1686 249.533 84.3582 249.733C84.4022 249.808 84.4463 249.884 84.4899 249.948C84.4383 249.895 84.378 249.832 84.3264 249.779C84.5632 250.155 84.7915 250.52 85.011 250.874C84.5234 250.468 84.0084 249.987 83.4498 249.441C85.5562 252.032 86.8387 254.114 87.3925 255.539C87.3668 255.518 87.3329 255.498 87.2989 255.477C86.455 254.348 84.9199 252.691 82.6609 250.531C83.7508 251.802 84.6875 252.971 85.4621 254.016C84.5968 253.254 83.5917 252.289 82.4711 251.098C84.4073 253.832 85.9017 255.513 86.9892 256.196C87.2434 256.592 87.4629 256.946 87.6485 257.28C87.6489 257.291 87.6406 257.292 87.6406 257.292C87.0128 257.184 85.7851 256.543 84.0143 255.322C83.5041 254.729 82.949 254.038 82.342 253.284C82.8981 254.008 83.4188 254.667 83.9038 255.251C83.2739 254.82 82.5754 254.327 81.8159 253.748C81.5689 253.318 81.3133 252.877 81.0486 252.414C81.2107 252.794 81.3642 253.163 81.5003 253.511C81.1929 253.273 80.8686 253.024 80.5356 252.766C80.9235 253.177 81.3019 253.555 81.6631 253.912C82.0154 254.77 82.3067 255.543 82.554 256.24C81.8418 255.581 81.0596 254.814 80.216 253.951C81.3693 255.641 82.3558 257.063 83.1932 258.248C84.5173 263.163 81.893 261.803 75.9898 255.829C82.6862 266.259 83.9585 269.054 76.0576 257.926C85.0015 274.285 84.7719 276.71 71.5914 264.997C83.1659 280.594 81.7814 282.052 66.4952 274.984C77.6906 284.255 74.9848 285.011 63.132 282.704C76.6354 289.985 78.7405 293.566 63.4631 299.137C77.9577 301.025 75.0694 304.893 64.1221 313.094C73.2666 310.411 74.3437 312.061 67.1886 320.154C74.1084 316.887 72.7801 320.088 68.3519 325.501C70.9841 325.56 70.5169 327.844 69.0114 328.653C69.1632 332.835 68.2767 335.543 67.584 330.847C67.0557 335.88 66.56 339.088 65.9681 339.833C65.3762 340.579 64.6882 338.862 63.7596 334.08C64.3874 344.238 63.9112 347.277 60.2048 338.187C62.827 349.274 62.2107 348.231 58.9612 337.569C61.1145 350.629 60.6301 354.703 52.6661 346.002C58.6123 360.522 57.0867 362.255 45.9547 355.204C55.4507 366.496 55.3482 368.992 42.632 365.722C47.807 369.771 49.839 372.377 48.8352 373.769C48.3527 376.098 44.8514 377.222 38.9595 378.295C42.701 378.68 44.8766 379.033 45.2848 379.042C45.6287 380.156 43.2471 380.638 38.7138 381.255C45.034 382.358 42.4208 383.921 36.3083 386.151C41.1787 387.727 42.5414 389.972 37.7684 393.215C43.6844 395.209 43.4734 398.211 37.1861 396.061C39.3274 399.217 40.6785 401.362 41.1695 401.356C41.2335 405.143 39.5788 403.393 36.4735 397.191C39.9986 407.627 40.4878 411.689 34.9132 404.807C34.2771 403.41 33.5157 401.742 32.6546 399.824C33.0885 401.144 33.4769 402.344 33.8024 403.404C33.498 402.999 33.1676 402.562 32.8282 402.104C33.2968 402.955 33.7301 403.741 34.119 404.442C35.7702 409.949 35.4792 410.733 31.5292 403.379C36.6627 417.223 36.2184 418.672 28.0695 407.08C35.3977 420.064 32.8858 417.285 25.5553 406.035C30.3909 415.295 31.8522 419.045 24.545 411.096C33.451 424.734 33.5802 426.672 21.8106 416.634C32.4479 428.727 31.1703 428.856 19.0987 420.292C26.902 427.368 23.9032 425.751 16.3139 420.663C24.5091 429.306 27.3931 433.809 15.6074 433.065C29.623 440.739 28.9776 443.178 14.2312 445.606C23.9978 446.977 19.663 448.327 11.1094 449.976C20.7815 453.832 23.8788 457.722 17.1511 466.936C20.7122 466.631 21.8108 467.657 21.4549 469.523C21.1069 471.377 19.3044 474.071 17.0633 477.101C21.923 477.055 20.4007 481.722 17.8461 484.582C18.3094 488.101 17.7486 489.812 16.4185 488.577C17.7486 489.812 16.5004 490.596 13.6346 491.294C13.3007 491.78 12.8587 492.273 12.3254 492.77Z" fill="url(#paint5_linear_1380_12610)"/>
<ellipse opacity="0.1" cx="200.044" cy="208.304" rx="11.7368" ry="12.1559" fill="white"/>
<ellipse opacity="0.1" cx="195.853" cy="199.082" rx="20.9585" ry="21.3777" fill="white"/>
<path fill-rule="evenodd" clip-rule="evenodd" d="M191.962 321.839C194.796 315.722 196.213 312.663 196.221 309.118C196.224 307.951 196.117 306.771 195.905 305.623C195.259 302.137 193.315 299.383 189.427 293.875L180.163 280.75C176.276 275.242 178.073 272.408 175.989 272.027C175.458 271.169 170.879 272.043 170.227 272.29C168.245 273.039 166.828 276.098 163.994 282.215C161.16 288.333 159.743 291.391 159.734 294.937C159.731 296.104 159.838 297.284 160.051 298.431C160.696 301.917 162.64 304.671 166.528 310.18L175.792 323.305C179.68 328.813 181.624 331.567 183.708 331.948C184.394 332.074 188.228 332.085 189.077 331.461C191.059 330.712 189.127 327.957 191.962 321.839ZM180.382 303.068C180.807 304.717 181.019 305.541 180.797 306.021C180.574 306.501 180.069 306.309 179.059 305.925L176.044 304.78C175.072 304.411 174.586 304.226 174.439 303.624C174.292 303.022 174.58 302.4 175.156 301.156L176.905 297.382C177.482 296.137 177.77 295.515 178.137 295.642C178.504 295.77 178.708 296.563 179.117 298.148L180.382 303.068Z" fill="url(#paint6_linear_1380_12610)"/>
<path d="M179.117 298.148C178.708 296.563 178.504 295.77 178.137 295.642C177.77 295.515 177.482 296.137 176.905 297.382L175.156 301.156C174.58 302.4 174.292 303.022 174.439 303.624C174.586 304.226 175.072 304.411 176.044 304.78L179.059 305.925C180.069 306.309 180.574 306.501 180.797 306.021C181.019 305.541 180.807 304.717 180.382 303.068L179.117 298.148Z" fill="url(#paint7_linear_1380_12610)"/>
<path fill-rule="evenodd" clip-rule="evenodd" d="M194.004 317.429C194.915 315.463 195.371 314.48 195.642 313.512C196.709 309.712 196.277 304.951 194.545 301.405C194.104 300.502 193.479 299.617 192.23 297.847L185.01 287.617C183.76 285.847 183.135 284.962 182.539 284.395C180.196 282.168 177.443 282.417 175.538 285.029C175.053 285.694 174.598 286.677 173.687 288.643C172.776 290.61 172.32 291.593 172.049 292.56C170.983 296.36 171.414 301.121 173.146 304.667C173.587 305.57 174.212 306.455 175.462 308.226L182.682 318.455C183.931 320.225 184.556 321.111 185.153 321.678C187.496 323.905 190.248 323.655 192.153 321.043C192.638 320.378 193.094 319.395 194.004 317.429ZM185.261 302.655C185.714 304.348 185.941 305.195 185.714 305.684C185.488 306.172 184.967 305.96 183.926 305.537L183.052 305.181C182.097 304.793 181.62 304.599 181.476 304.001C181.333 303.403 181.617 302.79 182.184 301.565L182.678 300.499C183.246 299.274 183.53 298.661 183.894 298.783C184.258 298.904 184.466 299.681 184.881 301.234L185.261 302.655Z" fill="white"/>
<path d="M184.881 301.234C184.466 299.681 184.258 298.904 183.894 298.783C183.53 298.661 183.246 299.274 182.678 300.499L182.184 301.565C181.617 302.79 181.333 303.403 181.476 304.001C181.62 304.599 182.097 304.793 183.052 305.181L183.926 305.537C184.967 305.96 185.488 306.172 185.714 305.684C185.941 305.195 185.714 304.348 185.261 302.655L184.881 301.234Z" fill="white"/>
<path fill-rule="evenodd" clip-rule="evenodd" d="M194.657 321.595C197.491 315.478 198.908 312.419 198.916 308.874C198.919 307.707 198.812 306.527 198.6 305.379C197.954 301.893 196.01 299.139 192.122 293.631L182.858 280.506C178.971 274.998 177.027 272.244 174.943 271.862C174.257 271.737 173.574 271.799 172.922 272.046C170.94 272.795 169.523 275.854 166.689 281.971C163.855 288.089 162.438 291.147 162.429 294.693C162.427 295.86 162.533 297.039 162.746 298.187C163.392 301.673 165.335 304.427 169.223 309.935L178.487 323.061C182.375 328.569 184.319 331.323 186.403 331.704C187.089 331.829 187.771 331.768 188.424 331.521C190.405 330.771 191.822 327.713 194.657 321.595ZM183.078 302.824C183.502 304.473 183.714 305.297 183.492 305.777C183.27 306.257 182.764 306.065 181.754 305.681L178.739 304.536C177.767 304.167 177.281 303.982 177.134 303.38C176.987 302.778 177.275 302.156 177.851 300.912L179.6 297.138C180.177 295.893 180.465 295.271 180.832 295.398C181.199 295.525 181.403 296.318 181.812 297.904L183.078 302.824Z" fill="url(#paint8_linear_1380_12610)"/>
<path fill-rule="evenodd" clip-rule="evenodd" d="M195.556 321.514C198.391 315.396 199.808 312.338 199.816 308.792C199.819 307.625 199.712 306.445 199.499 305.298C198.854 301.812 196.91 299.057 193.022 293.549L183.758 280.424C179.87 274.916 177.926 272.162 175.842 271.781C175.156 271.655 174.474 271.717 173.822 271.964C171.84 272.714 170.423 275.772 167.589 281.89C164.754 288.007 163.337 291.066 163.329 294.611C163.326 295.778 163.433 296.958 163.646 298.106C164.291 301.592 166.235 304.346 170.123 309.854L179.387 322.979C183.275 328.487 185.219 331.241 187.303 331.622C187.989 331.748 188.671 331.686 189.323 331.439C191.305 330.69 192.722 327.631 195.556 321.514ZM183.977 302.742C184.401 304.391 184.614 305.216 184.391 305.695C184.169 306.175 183.664 305.983 182.653 305.599L179.639 304.454C178.667 304.085 178.181 303.9 178.034 303.299C177.886 302.697 178.174 302.074 178.751 300.83L180.5 297.056C181.076 295.811 181.364 295.189 181.732 295.317C182.099 295.444 182.303 296.237 182.711 297.823L183.977 302.742Z" fill="url(#paint9_linear_1380_12610)"/>
<path fill-rule="evenodd" clip-rule="evenodd" d="M188.39 286.987L193.022 293.549C196.91 299.057 198.854 301.812 199.499 305.298C199.712 306.445 199.819 307.625 199.816 308.792C199.808 312.338 198.391 315.396 195.556 321.514C192.722 327.631 191.305 330.69 189.323 331.439C188.671 331.686 187.989 331.748 187.303 331.622C185.219 331.241 183.275 328.487 179.387 322.979L166.832 305.191C166.036 304.064 165.638 303.5 165.336 302.959C163.216 299.162 162.716 293.649 164.119 289.533C164.319 288.946 164.609 288.32 165.189 287.068C174.97 280.47 184.732 284.265 188.39 286.987ZM178.751 300.83C178.174 302.074 177.886 302.697 178.034 303.299C178.181 303.9 178.667 304.085 179.639 304.454L182.653 305.599C183.664 305.983 184.169 306.175 184.391 305.695C184.614 305.216 184.401 304.391 183.977 302.742L182.711 297.823C182.303 296.237 182.099 295.444 181.732 295.317C181.364 295.189 181.076 295.811 180.5 297.056L178.751 300.83Z" fill="url(#paint10_linear_1380_12610)"/>
<path fill-rule="evenodd" clip-rule="evenodd" d="M125.969 184.577L127.588 182.634L146.055 186.173L146.707 188.068L154.639 209.064L156.107 210.287C155.763 211.693 154.125 213.863 151.812 214.147C149.282 214.458 146.139 212.868 144.793 210.595C143.446 208.322 145.307 205.844 146.57 204.825C147.826 204.671 149.599 206.076 150.862 206.71L146.344 193.569L130.961 192.232L136.786 208.5L138.175 209.431C138.256 210.327 136.422 212.625 134.104 212.91C131.573 213.221 128.431 211.631 127.084 209.358C125.347 206.427 127.761 204.305 129.045 203.48C129.468 203.209 128.6 204.757 129.227 204.68C130.483 204.525 131.89 204.839 133.153 205.473L125.969 184.577Z" fill="url(#paint11_linear_1380_12610)"/>
<path fill-rule="evenodd" clip-rule="evenodd" d="M127.599 182.621L147.686 184.216L148.338 186.111L148.338 186.111L155.896 208.095L155.883 208.093C156.756 210.131 155.756 211.906 153.443 212.19C150.913 212.501 147.77 210.911 146.423 208.638C145.076 206.365 146.036 204.271 148.566 203.96C149.822 203.805 151.229 204.119 152.493 204.753L147.975 191.613L132.523 190.385L138.187 206.858L138.168 206.842C139.052 208.887 138.052 210.669 135.734 210.954C133.204 211.265 130.061 209.675 128.714 207.402C127.368 205.129 128.327 203.034 130.857 202.723C132.113 202.569 133.52 202.883 134.784 203.516L127.599 182.621L127.599 182.621L127.599 182.621Z" fill="url(#paint12_linear_1380_12610)"/>
<path d="M162.962 130.183C166.125 131.27 168.358 137.003 151.99 151.236C131.53 169.027 108.402 167.841 120.559 183.26M174.229 166.062C179.863 169.324 182.947 178.338 150.211 188.301C109.291 200.755 106.919 207.575 108.995 216.174M192.614 204.017C206.649 201.941 218.174 204.491 151.99 231.297C69.2606 264.804 74.0049 265.694 82.9006 273.107M209.812 241.082C230.173 241.379 250.614 250.69 169.485 285.561C68.0745 329.149 39.6083 326.184 70.1501 352.575M232.051 313.73C258.343 316.102 283.943 329.742 192.614 365.325C78.4527 409.803 -27.1092 381.337 32.7883 424.036" stroke="url(#paint13_linear_1380_12610)" stroke-width="2.37218"/>
<g filter="url(#filter5_f_1380_12610)">
<path d="M162.352 130.096C165.515 131.184 167.749 136.917 151.381 151.15C130.92 168.941 107.792 167.755 119.949 183.174M173.62 165.976C179.254 169.237 183.128 182.258 150.392 192.221C109.472 204.675 106.309 207.489 108.385 216.088M193.95 203.085C207.985 201.01 220.348 207.332 154.164 234.138C71.4347 267.645 73.3952 265.607 82.2908 273.02M209.202 240.996C229.564 241.292 249.964 252.502 168.835 287.373C67.4247 330.961 38.9986 326.098 69.5403 352.488M231.441 313.644C257.733 316.016 285.314 334.366 193.985 369.949C79.8243 414.427 -27.719 381.251 32.1785 423.95" stroke="url(#paint14_linear_1380_12610)" stroke-width="1.18609"/>
</g>
<g filter="url(#filter6_f_1380_12610)">
<path d="M162.962 126.59C166.124 127.677 168.358 133.41 151.99 147.643C131.53 165.435 108.401 164.248 120.559 179.668M174.229 162.469C179.863 165.731 182.947 174.745 150.211 184.708C109.291 197.162 106.919 203.982 108.995 212.582M192.614 200.424C206.649 198.348 218.174 200.899 151.99 227.704C69.2606 261.211 74.0049 262.101 82.9006 269.514M209.812 237.489C230.173 237.786 250.614 247.097 169.485 281.968C68.0745 325.557 39.6083 322.591 70.1501 348.982M227.9 310.137C254.192 312.51 283.943 326.15 192.614 361.732C78.4527 406.211 -27.1092 377.744 32.7883 420.444" stroke="white" stroke-width="2.37218"/>
</g>
<path d="M162.962 126.59C166.125 127.677 168.358 133.41 151.99 147.643C131.53 165.435 108.402 164.248 120.559 179.668M174.229 162.469C179.863 165.731 182.947 174.745 150.211 184.708C109.291 197.162 106.919 203.982 108.995 212.582M192.614 200.424C206.649 198.348 218.174 200.899 151.99 227.704C69.2606 261.211 74.0049 262.101 82.9006 269.514M209.812 237.489C230.173 237.786 250.614 247.097 169.485 281.968C68.0745 325.557 39.6083 322.591 70.1501 348.982M232.051 310.137C258.343 312.51 283.943 326.15 192.614 361.732C78.4527 406.211 -27.1092 377.744 32.7883 420.444" stroke="url(#paint15_linear_1380_12610)" stroke-width="0.593045"/>
<path d="M162.962 128.352C166.125 129.439 168.358 135.172 151.99 149.405C131.53 167.197 108.402 166.011 120.559 181.43M174.229 164.231C179.863 167.493 182.947 176.507 150.211 186.471C109.291 198.925 106.919 205.745 108.995 214.344M192.614 202.186C206.649 200.111 218.174 202.661 151.99 229.466C69.2606 262.973 74.0049 263.863 82.9006 271.276M209.812 239.252C230.173 239.548 250.614 248.859 169.485 283.73C68.0745 327.319 39.6083 324.353 70.1501 350.744M232.051 311.9C258.343 314.272 283.943 327.912 192.614 363.494C78.4527 407.973 -27.1092 379.507 32.7883 422.206" stroke="url(#paint16_linear_1380_12610)" stroke-width="1.22062"/>
<path opacity="0.1" d="M162.962 125.404C166.125 126.491 168.358 132.224 151.99 146.457C131.53 164.248 108.402 163.062 120.559 178.481M174.229 161.283C179.863 164.545 182.947 173.559 150.211 183.522C109.291 195.976 106.919 202.796 108.995 211.395M192.614 199.238C206.649 197.162 218.174 199.712 151.99 226.518C69.2606 260.025 74.0049 260.915 82.9006 268.328M209.812 236.303C230.173 236.6 250.614 245.911 169.485 280.782C68.0745 324.37 39.6083 321.405 70.1501 347.796M232.051 308.951C258.343 311.323 283.943 324.964 192.614 360.546C78.4527 405.025 -27.1092 376.558 32.7883 419.258" stroke="url(#paint17_linear_1380_12610)" stroke-width="0.593045"/>
<g filter="url(#filter7_f_1380_12610)">
<circle cx="164.444" cy="284.933" r="4.15131" fill="white"/>
</g>
<circle cx="164.444" cy="284.933" r="4.15131" fill="white"/>
<g filter="url(#filter8_f_1380_12610)">
<circle cx="103.952" cy="308.655" r="4.15131" fill="white"/>
</g>
<circle cx="103.952" cy="308.655" r="4.15131" fill="white"/>
<g filter="url(#filter9_f_1380_12610)">
<circle cx="226.12" cy="347.796" r="4.15131" fill="white"/>
</g>
<circle cx="226.12" cy="347.796" r="4.15131" fill="white"/>
<g filter="url(#filter10_f_1380_12610)">
<circle cx="180.457" cy="370.331" r="4.15131" fill="white"/>
</g>
<circle cx="180.457" cy="370.331" r="4.15131" fill="white"/>
<g filter="url(#filter11_f_1380_12610)">
<circle cx="118.186" cy="379.82" r="6.52349" fill="white"/>
</g>
<circle cx="118.186" cy="379.82" r="6.52349" fill="white"/>
<g filter="url(#filter12_f_1380_12610)">
<circle cx="192.196" cy="273.553" r="4.15131" fill="white"/>
</g>
<circle cx="192.196" cy="273.553" r="4.15131" fill="white"/>
<g filter="url(#filter13_f_1380_12610)">
<circle cx="194.01" cy="204.193" r="4.15131" fill="white"/>
</g>
<circle cx="194.01" cy="204.193" r="4.15131" fill="white"/>
<g filter="url(#filter14_f_1380_12610)">
<circle cx="139.535" cy="233.338" r="4.15131" fill="white"/>
</g>
<circle cx="139.535" cy="233.338" r="4.15131" fill="white"/>
<g filter="url(#filter15_f_1380_12610)">
<circle cx="118.186" cy="198.942" r="4.15131" fill="white"/>
</g>
<circle cx="118.186" cy="198.942" r="4.15131" fill="white"/>
<g filter="url(#filter16_f_1380_12610)">
<circle cx="157.327" cy="180.557" r="4.15131" fill="white"/>
</g>
<circle cx="157.327" cy="180.557" r="4.15131" fill="white"/>
<g filter="url(#filter17_f_1380_12610)">
<circle cx="135.978" cy="158.022" r="4.15131" fill="white"/>
</g>
<circle cx="135.978" cy="158.022" r="4.15131" fill="white"/>
<g filter="url(#filter18_f_1380_12610)">
<circle cx="163.853" cy="128.369" r="4.15131" fill="white"/>
</g>
<circle cx="163.853" cy="128.369" r="4.15131" fill="white"/>
<g filter="url(#filter19_f_1380_12610)">
<circle cx="89.1271" cy="255.281" r="4.15131" fill="white"/>
</g>
<circle cx="89.1271" cy="255.281" r="4.15131" fill="white"/>
<ellipse opacity="0.1" cx="164.834" cy="124.47" rx="8.38341" ry="8.80258" fill="white"/>
<ellipse opacity="0.1" cx="118.724" cy="182.315" rx="8.38341" ry="8.80258" fill="white"/>
<ellipse opacity="0.1" cx="159.384" cy="183.117" rx="11.3176" ry="11.7368" fill="white"/>
<ellipse opacity="0.1" cx="117.048" cy="200.759" rx="13.4134" ry="13.8326" fill="white"/>
<ellipse opacity="0.1" cx="90.3059" cy="255.67" rx="18.4435" ry="19.2818" fill="white"/>
<ellipse opacity="0.1" cx="138.845" cy="232.616" rx="11.7368" ry="12.1559" fill="white"/>
<ellipse opacity="0.1" cx="164.834" cy="282.916" rx="20.9585" ry="21.3777" fill="white"/>
<ellipse opacity="0.1" cx="190.621" cy="273.479" rx="10.0601" ry="10.4793" fill="white"/>
<ellipse opacity="0.1" cx="100.281" cy="306.39" rx="10.0601" ry="10.4793" fill="white"/>
<ellipse opacity="0.1" cx="103.634" cy="309.743" rx="10.0601" ry="10.4793" fill="white"/>
<ellipse opacity="0.1" cx="69.2635" cy="352.498" rx="10.0601" ry="10.4793" fill="white"/>
<ellipse opacity="0.1" cx="119.564" cy="373.457" rx="10.0601" ry="10.4793" fill="white"/>
<ellipse opacity="0.1" cx="110.341" cy="376.81" rx="10.0601" ry="10.4793" fill="white"/>
<ellipse opacity="0.1" cx="125.431" cy="380.164" rx="10.0601" ry="10.4793" fill="white"/>
<ellipse opacity="0.1" cx="181.601" cy="373.457" rx="10.0601" ry="10.4793" fill="white"/>
<ellipse opacity="0.1" cx="178.247" cy="369.265" rx="11.7368" ry="12.1559" fill="white"/>
<ellipse opacity="0.1" cx="189.984" cy="366.75" rx="14.2518" ry="14.671" fill="white"/>
<ellipse opacity="0.1" cx="230.225" cy="350.822" rx="14.2518" ry="14.671" fill="white"/>
<ellipse opacity="0.9" cx="119.982" cy="274.532" rx="2.93419" ry="2.93419" transform="rotate(180 119.982 274.532)" fill="white"/>
<ellipse opacity="0.9" cx="135.072" cy="343.277" rx="2.93419" ry="2.93419" transform="rotate(180 135.072 343.277)" fill="white"/>
<circle opacity="0.9" cx="104.891" cy="273.694" r="1.25751" transform="rotate(180 104.891 273.694)" fill="white"/>
<circle opacity="0.9" cx="153.515" cy="209.142" r="1.25751" transform="rotate(180 153.515 209.142)" fill="white"/>
<circle opacity="0.9" cx="184.536" cy="260.281" r="1.25751" transform="rotate(180 184.536 260.281)" fill="white"/>
<circle opacity="0.9" cx="197.109" cy="297.168" r="1.25751" transform="rotate(180 197.109 297.168)" fill="white"/>
<circle opacity="0.9" cx="91.4781" cy="348.307" r="1.25751" transform="rotate(180 91.4781 348.307)" fill="white"/>
<circle opacity="0.9" cx="73.8745" cy="370.103" r="1.25751" transform="rotate(180 73.8745 370.103)" fill="white"/>
<g filter="url(#filter20_f_1380_12610)">
<path d="M152.501 23.1447L157.551 88.5905L221.802 75.158L161.12 100.184L193.75 157.14L151.197 107.161L107.112 155.795L141.494 99.8796L81.6186 72.9808L145.422 88.4021L152.501 23.1447Z" fill="#FFE091"/>
</g>
<g filter="url(#filter21_f_1380_12610)">
<path d="M150.479 68.4487C150.99 67.3854 152.512 67.4091 152.989 68.4876L158.811 81.6425C159.005 82.0821 159.414 82.389 159.891 82.453L174.148 84.3685C175.317 84.5255 175.765 85.9804 174.887 86.7676L164.175 96.3695C163.817 96.6904 163.651 97.1742 163.737 97.647L166.322 111.799C166.533 112.959 165.288 113.834 164.268 113.242L151.826 106.022C151.41 105.78 150.899 105.773 150.476 106.001L137.815 112.831C136.777 113.392 135.56 112.478 135.808 111.325L138.83 97.2602C138.931 96.7902 138.781 96.3015 138.433 95.9697L128.024 86.0398C127.171 85.2256 127.664 83.7854 128.837 83.6647L143.147 82.193C143.625 82.1438 144.043 81.8497 144.252 81.4164L150.479 68.4487Z" fill="#FFBA07"/>
</g>
<path d="M150.479 68.4487C150.99 67.3854 152.512 67.4091 152.989 68.4876L158.811 81.6425C159.005 82.0821 159.414 82.389 159.891 82.453L174.148 84.3685C175.317 84.5255 175.765 85.9804 174.887 86.7676L164.175 96.3695C163.817 96.6904 163.651 97.1742 163.737 97.647L166.322 111.799C166.533 112.959 165.288 113.834 164.268 113.242L151.826 106.022C151.41 105.78 150.899 105.773 150.476 106.001L137.815 112.831C136.777 113.392 135.56 112.478 135.808 111.325L138.83 97.2602C138.931 96.7902 138.781 96.3015 138.433 95.9697L128.024 86.0398C127.171 85.2256 127.664 83.7854 128.837 83.6647L143.147 82.193C143.625 82.1438 144.043 81.8497 144.252 81.4164L150.479 68.4487Z" fill="#FFD569"/>
<path d="M147.339 67.7739C147.833 66.7029 149.356 66.7029 149.85 67.7739L155.875 80.8368C156.076 81.2733 156.49 81.5739 156.967 81.6305L171.253 83.3242C172.424 83.4631 172.895 84.9108 172.029 85.7116L161.467 95.4787C161.114 95.8051 160.956 96.2914 161.05 96.7629L163.853 110.873C164.083 112.029 162.852 112.924 161.822 112.348L149.27 105.322C148.85 105.087 148.339 105.087 147.919 105.322L135.367 112.348C134.337 112.924 133.106 112.029 133.336 110.873L136.139 96.7629C136.233 96.2914 136.075 95.8051 135.722 95.4787L125.161 85.7116C124.295 84.9108 124.765 83.4631 125.936 83.3242L140.222 81.6305C140.699 81.5739 141.113 81.2733 141.314 80.8368L147.339 67.7739Z" fill="url(#paint18_linear_1380_12610)"/>
<path d="M147.339 67.7739C147.833 66.7029 149.356 66.7029 149.85 67.7739L155.875 80.8368C156.076 81.2733 156.49 81.5739 156.967 81.6305L171.253 83.3242C172.424 83.4631 172.895 84.9108 172.029 85.7116L161.467 95.4787C161.114 95.8051 160.956 96.2914 161.05 96.7629L163.853 110.873C164.083 112.029 162.852 112.924 161.822 112.348L149.27 105.322C148.85 105.087 148.339 105.087 147.919 105.322L135.367 112.348C134.337 112.924 133.106 112.029 133.336 110.873L136.139 96.7629C136.233 96.2914 136.075 95.8051 135.722 95.4787L125.161 85.7116C124.295 84.9108 124.765 83.4631 125.936 83.3242L140.222 81.6305C140.699 81.5739 141.113 81.2733 141.314 80.8368L147.339 67.7739Z" fill="url(#paint19_linear_1380_12610)"/>
<path d="M147.339 67.7739C147.833 66.7029 149.356 66.7029 149.85 67.7739L155.875 80.8368C156.076 81.2733 156.49 81.5739 156.967 81.6305L171.253 83.3242C172.424 83.4631 172.895 84.9108 172.029 85.7116L161.467 95.4787C161.114 95.8051 160.956 96.2914 161.05 96.7629L163.853 110.873C164.083 112.029 162.852 112.924 161.822 112.348L149.27 105.322C148.85 105.087 148.339 105.087 147.919 105.322L135.367 112.348C134.337 112.924 133.106 112.029 133.336 110.873L136.139 96.7629C136.233 96.2914 136.075 95.8051 135.722 95.4787L125.161 85.7116C124.295 84.9108 124.765 83.4631 125.936 83.3242L140.222 81.6305C140.699 81.5739 141.113 81.2733 141.314 80.8368L147.339 67.7739Z" fill="url(#paint20_linear_1380_12610)"/>
<mask id="mask1_1380_12610" style="mask-type:alpha" maskUnits="userSpaceOnUse" x="124" y="67" width="49" height="47">
<path d="M147.339 68.4648C147.833 67.3937 149.356 67.3937 149.85 68.4648L155.875 81.5276C156.076 81.9642 156.49 82.2647 156.967 82.3213L171.253 84.0151C172.424 84.154 172.894 85.6017 172.029 86.4025L161.467 96.1696C161.114 96.4959 160.956 96.9822 161.05 97.4537L163.853 111.563C164.083 112.72 162.852 113.615 161.822 113.039L149.27 106.012C148.85 105.778 148.339 105.778 147.919 106.012L135.367 113.039C134.337 113.615 133.106 112.72 133.336 111.563L136.139 97.4537C136.233 96.9822 136.075 96.4959 135.722 96.1696L125.161 86.4025C124.295 85.6017 124.765 84.154 125.936 84.0151L140.222 82.3213C140.699 82.2647 141.113 81.9642 141.314 81.5276L147.339 68.4648Z" fill="#A5D9FF"/>
</mask>
<g mask="url(#mask1_1380_12610)">
<g opacity="0.3" filter="url(#filter22_f_1380_12610)">
<path d="M152.177 68.4648C152.671 67.3937 154.193 67.3937 154.687 68.4648L160.712 81.5276C160.913 81.9642 161.327 82.2647 161.805 82.3213L176.09 84.0151C177.261 84.154 177.732 85.6017 176.866 86.4025L166.304 96.1696C165.951 96.4959 165.793 96.9822 165.887 97.4537L168.69 111.563C168.92 112.72 167.689 113.615 166.66 113.039L154.107 106.012C153.687 105.778 153.176 105.778 152.757 106.012L140.204 113.039C139.175 113.615 137.943 112.72 138.173 111.563L140.977 97.4537C141.07 96.9822 140.912 96.4959 140.559 96.1696L129.998 86.4025C129.132 85.6017 129.602 84.154 130.773 84.0151L145.059 82.3213C145.536 82.2647 145.95 81.9642 146.151 81.5276L152.177 68.4648Z" fill="#FFBA07"/>
</g>
</g>
<g opacity="0.4">
<mask id="mask2_1380_12610" style="mask-type:alpha" maskUnits="userSpaceOnUse" x="185" y="140" width="77" height="196">
<rect width="75.8532" height="195.196" transform="matrix(-1 0 0 1 261.697 140.763)" fill="url(#paint21_radial_1380_12610)"/>
</mask>
<g mask="url(#mask2_1380_12610)">
<rect opacity="0.5" width="36.5558" height="192.65" transform="matrix(-1 0 0 1 261.697 143.31)" fill="url(#paint22_linear_1380_12610)"/>
<rect opacity="0.5" x="185.846" y="143.31" width="36.5558" height="192.65" fill="url(#paint23_linear_1380_12610)"/>
</g>
</g>
<path d="M246.412 164.231C255.863 158.502 260.589 155.638 261.488 152.198C261.778 151.088 261.778 149.956 261.488 148.845C260.589 145.405 255.863 142.541 246.412 136.813C236.961 131.084 232.235 128.22 226.56 127.676C224.727 127.5 222.86 127.5 221.027 127.676C215.352 128.22 210.626 131.084 201.175 136.813C191.724 142.541 186.998 145.405 186.099 148.845C185.809 149.956 185.809 151.088 186.099 152.198C186.998 155.638 191.724 158.502 201.175 164.231C210.626 169.959 215.352 172.823 221.027 173.368C222.86 173.544 224.727 173.544 226.56 173.368C232.235 172.823 236.961 169.959 246.412 164.231Z" fill="url(#paint24_linear_1380_12610)"/>
<path d="M246.412 164.231C255.863 158.502 260.589 155.638 261.488 152.198C261.778 151.088 261.778 149.956 261.488 148.845C260.589 145.405 255.863 142.541 246.412 136.813C236.961 131.084 232.235 128.22 226.56 127.676C224.727 127.5 222.86 127.5 221.027 127.676C215.352 128.22 210.626 131.084 201.175 136.813C191.724 142.541 186.998 145.405 186.099 148.845C185.809 149.956 185.809 151.088 186.099 152.198C186.998 155.638 191.724 158.502 201.175 164.231C210.626 169.959 215.352 172.823 221.027 173.368C222.86 173.544 224.727 173.544 226.56 173.368C232.235 172.823 236.961 169.959 246.412 164.231Z" fill="white" fill-opacity="0.6"/>
<path d="M261.706 146.735H185.852V150.391H261.706V146.735Z" fill="url(#paint25_linear_1380_12610)"/>
<path d="M261.706 146.735H185.852V150.391H261.706V146.735Z" fill="white" fill-opacity="0.6"/>
<rect width="52.8974" height="52.8974" rx="14.6223" transform="matrix(-0.855186 -0.518321 -0.855186 0.518321 269.015 146.283)" fill="white"/>
<defs>
<filter id="filter0_f_1380_12610" x="109.884" y="169.882" width="20.1635" height="20.1635" filterUnits="userSpaceOnUse" color-interpolation-filters="sRGB">
<feFlood flood-opacity="0" result="BackgroundImageFix"/>
<feBlend mode="normal" in="SourceGraphic" in2="BackgroundImageFix" result="shape"/>
<feGaussianBlur stdDeviation="2.96522" result="effect1_foregroundBlur_1380_12610"/>
</filter>
<filter id="filter1_f_1380_12610" x="219.002" y="300.352" width="20.1635" height="20.1635" filterUnits="userSpaceOnUse" color-interpolation-filters="sRGB">
<feFlood flood-opacity="0" result="BackgroundImageFix"/>
<feBlend mode="normal" in="SourceGraphic" in2="BackgroundImageFix" result="shape"/>
<feGaussianBlur stdDeviation="2.96522" result="effect1_foregroundBlur_1380_12610"/>
</filter>
<filter id="filter2_f_1380_12610" x="100.394" y="203.093" width="20.1635" height="20.1635" filterUnits="userSpaceOnUse" color-interpolation-filters="sRGB">
<feFlood flood-opacity="0" result="BackgroundImageFix"/>
<feBlend mode="normal" in="SourceGraphic" in2="BackgroundImageFix" result="shape"/>
<feGaussianBlur stdDeviation="2.96522" result="effect1_foregroundBlur_1380_12610"/>
</filter>
<filter id="filter3_f_1380_12610" x="162.664" y="152.091" width="20.1635" height="20.1635" filterUnits="userSpaceOnUse" color-interpolation-filters="sRGB">
<feFlood flood-opacity="0" result="BackgroundImageFix"/>
<feBlend mode="normal" in="SourceGraphic" in2="BackgroundImageFix" result="shape"/>
<feGaussianBlur stdDeviation="2.96522" result="effect1_foregroundBlur_1380_12610"/>
</filter>
<filter id="filter4_f_1380_12610" x="181.642" y="188.86" width="20.1635" height="20.1635" filterUnits="userSpaceOnUse" color-interpolation-filters="sRGB">
<feFlood flood-opacity="0" result="BackgroundImageFix"/>
<feBlend mode="normal" in="SourceGraphic" in2="BackgroundImageFix" result="shape"/>
<feGaussianBlur stdDeviation="2.96522" result="effect1_foregroundBlur_1380_12610"/>
</filter>
<filter id="filter5_f_1380_12610" x="4.07572" y="119.16" width="263.793" height="315.648" filterUnits="userSpaceOnUse" color-interpolation-filters="sRGB">
<feFlood flood-opacity="0" result="BackgroundImageFix"/>
<feBlend mode="normal" in="SourceGraphic" in2="BackgroundImageFix" result="shape"/>
<feGaussianBlur stdDeviation="5.18762" result="effect1_foregroundBlur_1380_12610"/>
</filter>
<filter id="filter6_f_1380_12610" x="7.74045" y="118.945" width="254.359" height="308.988" filterUnits="userSpaceOnUse" color-interpolation-filters="sRGB">
<feFlood flood-opacity="0" result="BackgroundImageFix"/>
<feBlend mode="normal" in="SourceGraphic" in2="BackgroundImageFix" result="shape"/>
<feGaussianBlur stdDeviation="3.26175" result="effect1_foregroundBlur_1380_12610"/>
</filter>
<filter id="filter7_f_1380_12610" x="154.362" y="274.851" width="20.1635" height="20.1635" filterUnits="userSpaceOnUse" color-interpolation-filters="sRGB">
<feFlood flood-opacity="0" result="BackgroundImageFix"/>
<feBlend mode="normal" in="SourceGraphic" in2="BackgroundImageFix" result="shape"/>
<feGaussianBlur stdDeviation="2.96522" result="effect1_foregroundBlur_1380_12610"/>
</filter>
<filter id="filter8_f_1380_12610" x="93.87" y="298.573" width="20.1635" height="20.1635" filterUnits="userSpaceOnUse" color-interpolation-filters="sRGB">
<feFlood flood-opacity="0" result="BackgroundImageFix"/>
<feBlend mode="normal" in="SourceGraphic" in2="BackgroundImageFix" result="shape"/>
<feGaussianBlur stdDeviation="2.96522" result="effect1_foregroundBlur_1380_12610"/>
</filter>
<filter id="filter9_f_1380_12610" x="216.038" y="337.714" width="20.1635" height="20.1635" filterUnits="userSpaceOnUse" color-interpolation-filters="sRGB">
<feFlood flood-opacity="0" result="BackgroundImageFix"/>
<feBlend mode="normal" in="SourceGraphic" in2="BackgroundImageFix" result="shape"/>
<feGaussianBlur stdDeviation="2.96522" result="effect1_foregroundBlur_1380_12610"/>
</filter>
<filter id="filter10_f_1380_12610" x="170.375" y="360.249" width="20.1635" height="20.1635" filterUnits="userSpaceOnUse" color-interpolation-filters="sRGB">
<feFlood flood-opacity="0" result="BackgroundImageFix"/>
<feBlend mode="normal" in="SourceGraphic" in2="BackgroundImageFix" result="shape"/>
<feGaussianBlur stdDeviation="2.96522" result="effect1_foregroundBlur_1380_12610"/>
</filter>
<filter id="filter11_f_1380_12610" x="102.343" y="363.977" width="31.6855" height="31.6855" filterUnits="userSpaceOnUse" color-interpolation-filters="sRGB">
<feFlood flood-opacity="0" result="BackgroundImageFix"/>
<feBlend mode="normal" in="SourceGraphic" in2="BackgroundImageFix" result="shape"/>
<feGaussianBlur stdDeviation="4.65964" result="effect1_foregroundBlur_1380_12610"/>
</filter>
<filter id="filter12_f_1380_12610" x="182.114" y="263.471" width="20.1635" height="20.1635" filterUnits="userSpaceOnUse" color-interpolation-filters="sRGB">
<feFlood flood-opacity="0" result="BackgroundImageFix"/>
<feBlend mode="normal" in="SourceGraphic" in2="BackgroundImageFix" result="shape"/>
<feGaussianBlur stdDeviation="2.96522" result="effect1_foregroundBlur_1380_12610"/>
</filter>
<filter id="filter13_f_1380_12610" x="183.928" y="194.111" width="20.1635" height="20.1635" filterUnits="userSpaceOnUse" color-interpolation-filters="sRGB">
<feFlood flood-opacity="0" result="BackgroundImageFix"/>
<feBlend mode="normal" in="SourceGraphic" in2="BackgroundImageFix" result="shape"/>
<feGaussianBlur stdDeviation="2.96522" result="effect1_foregroundBlur_1380_12610"/>
</filter>
<filter id="filter14_f_1380_12610" x="129.453" y="223.256" width="20.1635" height="20.1635" filterUnits="userSpaceOnUse" color-interpolation-filters="sRGB">
<feFlood flood-opacity="0" result="BackgroundImageFix"/>
<feBlend mode="normal" in="SourceGraphic" in2="BackgroundImageFix" result="shape"/>
<feGaussianBlur stdDeviation="2.96522" result="effect1_foregroundBlur_1380_12610"/>
</filter>
<filter id="filter15_f_1380_12610" x="108.104" y="188.86" width="20.1635" height="20.1635" filterUnits="userSpaceOnUse" color-interpolation-filters="sRGB">
<feFlood flood-opacity="0" result="BackgroundImageFix"/>
<feBlend mode="normal" in="SourceGraphic" in2="BackgroundImageFix" result="shape"/>
<feGaussianBlur stdDeviation="2.96522" result="effect1_foregroundBlur_1380_12610"/>
</filter>
<filter id="filter16_f_1380_12610" x="147.245" y="170.476" width="20.1635" height="20.1635" filterUnits="userSpaceOnUse" color-interpolation-filters="sRGB">
<feFlood flood-opacity="0" result="BackgroundImageFix"/>
<feBlend mode="normal" in="SourceGraphic" in2="BackgroundImageFix" result="shape"/>
<feGaussianBlur stdDeviation="2.96522" result="effect1_foregroundBlur_1380_12610"/>
</filter>
<filter id="filter17_f_1380_12610" x="125.896" y="147.94" width="20.1635" height="20.1635" filterUnits="userSpaceOnUse" color-interpolation-filters="sRGB">
<feFlood flood-opacity="0" result="BackgroundImageFix"/>
<feBlend mode="normal" in="SourceGraphic" in2="BackgroundImageFix" result="shape"/>
<feGaussianBlur stdDeviation="2.96522" result="effect1_foregroundBlur_1380_12610"/>
</filter>
<filter id="filter18_f_1380_12610" x="153.771" y="118.287" width="20.1635" height="20.1635" filterUnits="userSpaceOnUse" color-interpolation-filters="sRGB">
<feFlood flood-opacity="0" result="BackgroundImageFix"/>
<feBlend mode="normal" in="SourceGraphic" in2="BackgroundImageFix" result="shape"/>
<feGaussianBlur stdDeviation="2.96522" result="effect1_foregroundBlur_1380_12610"/>
</filter>
<filter id="filter19_f_1380_12610" x="79.0453" y="245.199" width="20.1635" height="20.1635" filterUnits="userSpaceOnUse" color-interpolation-filters="sRGB">
<feFlood flood-opacity="0" result="BackgroundImageFix"/>
<feBlend mode="normal" in="SourceGraphic" in2="BackgroundImageFix" result="shape"/>
<feGaussianBlur stdDeviation="2.96522" result="effect1_foregroundBlur_1380_12610"/>
</filter>
<filter id="filter20_f_1380_12610" x="58.812" y="0.338047" width="185.797" height="179.609" filterUnits="userSpaceOnUse" color-interpolation-filters="sRGB">
<feFlood flood-opacity="0" result="BackgroundImageFix"/>
<feBlend mode="normal" in="SourceGraphic" in2="BackgroundImageFix" result="shape"/>
<feGaussianBlur stdDeviation="11.4033" result="effect1_foregroundBlur_1380_12610"/>
</filter>
<filter id="filter21_f_1380_12610" x="104.788" y="44.8582" width="93.3667" height="91.381" filterUnits="userSpaceOnUse" color-interpolation-filters="sRGB">
<feFlood flood-opacity="0" result="BackgroundImageFix"/>
<feBlend mode="normal" in="SourceGraphic" in2="BackgroundImageFix" result="shape"/>
<feGaussianBlur stdDeviation="11.4033" result="effect1_foregroundBlur_1380_12610"/>
</filter>
<filter id="filter22_f_1380_12610" x="126.788" y="64.8971" width="53.2878" height="51.0859" filterUnits="userSpaceOnUse" color-interpolation-filters="sRGB">
<feFlood flood-opacity="0" result="BackgroundImageFix"/>
<feBlend mode="normal" in="SourceGraphic" in2="BackgroundImageFix" result="shape"/>
<feGaussianBlur stdDeviation="1.38222" result="effect1_foregroundBlur_1380_12610"/>
</filter>
<radialGradient id="paint0_radial_1380_12610" cx="0" cy="0" r="1" gradientUnits="userSpaceOnUse" gradientTransform="translate(38.3835 1.29106e-06) rotate(90.1341) scale(195.196 182.332)">
<stop stop-opacity="0"/>
<stop offset="0.221563"/>
<stop offset="1" stop-opacity="0"/>
</radialGradient>
<linearGradient id="paint1_linear_1380_12610" x1="36.5558" y1="53.8911" x2="-2.30545e-06" y2="53.8911" gradientUnits="userSpaceOnUse">
<stop stop-color="white" stop-opacity="0"/>
<stop offset="1" stop-color="white"/>
</linearGradient>
<linearGradient id="paint2_linear_1380_12610" x1="67.4021" y1="313.851" x2="30.8463" y2="313.851" gradientUnits="userSpaceOnUse">
<stop stop-color="white" stop-opacity="0"/>
<stop offset="1" stop-color="white"/>
</linearGradient>
<linearGradient id="paint3_linear_1380_12610" x1="106.706" y1="267.041" x2="30.8524" y2="267.041" gradientUnits="userSpaceOnUse">
<stop stop-color="#E3E3E3"/>
<stop offset="0.21988" stop-color="#99C2FF"/>
<stop offset="0.512048" stop-color="#F48DA5"/>
<stop offset="0.75" stop-color="#A699DC"/>
<stop offset="1" stop-color="#E3E3E3"/>
</linearGradient>
<linearGradient id="paint4_linear_1380_12610" x1="106.706" y1="267.041" x2="30.8524" y2="267.041" gradientUnits="userSpaceOnUse">
<stop stop-color="#E3E3E3"/>
<stop offset="0.21988" stop-color="#99C2FF"/>
<stop offset="0.512048" stop-color="#F48DA5"/>
<stop offset="0.75" stop-color="#A699DC"/>
<stop offset="1" stop-color="#E3E3E3"/>
</linearGradient>
<linearGradient id="paint5_linear_1380_12610" x1="46.7198" y1="297.139" x2="228.918" y2="314.182" gradientUnits="userSpaceOnUse">
<stop offset="0.176169" stop-color="#200947"/>
<stop offset="1" stop-color="#200D56"/>
</linearGradient>
<linearGradient id="paint6_linear_1380_12610" x1="176.258" y1="274.653" x2="160.628" y2="327.109" gradientUnits="userSpaceOnUse">
<stop stop-color="#FFCDC1"/>
<stop offset="0.592097" stop-color="#EE4F72"/>
</linearGradient>
<linearGradient id="paint7_linear_1380_12610" x1="176.258" y1="274.653" x2="160.628" y2="327.109" gradientUnits="userSpaceOnUse">
<stop stop-color="#FFCDC1"/>
<stop offset="0.592097" stop-color="#EE4F72"/>
</linearGradient>
<linearGradient id="paint8_linear_1380_12610" x1="178.953" y1="274.409" x2="163.323" y2="326.865" gradientUnits="userSpaceOnUse">
<stop stop-color="white"/>
<stop offset="0.592097" stop-color="#F16382"/>
</linearGradient>
<linearGradient id="paint9_linear_1380_12610" x1="179.853" y1="274.327" x2="164.223" y2="326.783" gradientUnits="userSpaceOnUse">
<stop stop-color="#FEAD9A"/>
<stop offset="0.592097" stop-color="#F16382"/>
</linearGradient>
<linearGradient id="paint10_linear_1380_12610" x1="179.853" y1="274.327" x2="164.223" y2="326.783" gradientUnits="userSpaceOnUse">
<stop stop-color="#FFCCC0"/>
<stop offset="0.592097" stop-color="#F16382"/>
</linearGradient>
<linearGradient id="paint11_linear_1380_12610" x1="116.729" y1="181.745" x2="155.006" y2="218.049" gradientUnits="userSpaceOnUse">
<stop stop-color="#E5B12A"/>
<stop offset="1" stop-color="#E94B70"/>
</linearGradient>
<linearGradient id="paint12_linear_1380_12610" x1="118.359" y1="179.788" x2="156.637" y2="216.093" gradientUnits="userSpaceOnUse">
<stop stop-color="#FFCF52"/>
<stop offset="1" stop-color="#F48DA5"/>
</linearGradient>
<linearGradient id="paint13_linear_1380_12610" x1="-30.6675" y1="412.472" x2="282.757" y2="319.661" gradientUnits="userSpaceOnUse">
<stop stop-color="white" stop-opacity="0"/>
<stop offset="0.740815" stop-color="#0C0063"/>
<stop offset="1" stop-color="white" stop-opacity="0"/>
</linearGradient>
<linearGradient id="paint14_linear_1380_12610" x1="-31.2773" y1="412.386" x2="282.147" y2="319.574" gradientUnits="userSpaceOnUse">
<stop stop-color="white" stop-opacity="0"/>
<stop offset="0.885167" stop-color="#FFBA07"/>
<stop offset="1" stop-color="white" stop-opacity="0"/>
</linearGradient>
<linearGradient id="paint15_linear_1380_12610" x1="-30.6675" y1="408.879" x2="282.757" y2="316.068" gradientUnits="userSpaceOnUse">
<stop stop-color="white" stop-opacity="0"/>
<stop offset="0.102127" stop-color="white"/>
<stop offset="1" stop-color="white" stop-opacity="0"/>
</linearGradient>
<linearGradient id="paint16_linear_1380_12610" x1="-30.6675" y1="410.641" x2="282.757" y2="317.83" gradientUnits="userSpaceOnUse">
<stop stop-color="white" stop-opacity="0"/>
<stop offset="0.740815" stop-color="white"/>
<stop offset="1" stop-color="white" stop-opacity="0"/>
</linearGradient>
<linearGradient id="paint17_linear_1380_12610" x1="-30.6675" y1="407.693" x2="282.757" y2="314.882" gradientUnits="userSpaceOnUse">
<stop stop-color="white" stop-opacity="0"/>
<stop offset="0.885167" stop-color="white"/>
<stop offset="1" stop-color="white" stop-opacity="0"/>
</linearGradient>
<linearGradient id="paint18_linear_1380_12610" x1="121.641" y1="95.4616" x2="175.548" y2="86.4772" gradientUnits="userSpaceOnUse">
<stop stop-color="white"/>
<stop offset="1" stop-color="white"/>
</linearGradient>
<linearGradient id="paint19_linear_1380_12610" x1="121.641" y1="95.4616" x2="175.548" y2="86.4772" gradientUnits="userSpaceOnUse">
<stop stop-color="white"/>
<stop offset="1" stop-color="white"/>
</linearGradient>
<linearGradient id="paint20_linear_1380_12610" x1="121.641" y1="95.4616" x2="175.548" y2="86.4772" gradientUnits="userSpaceOnUse">
<stop stop-color="#FFFCF3"/>
<stop offset="1" stop-color="white"/>
</linearGradient>
<radialGradient id="paint21_radial_1380_12610" cx="0" cy="0" r="1" gradientUnits="userSpaceOnUse" gradientTransform="translate(38.3835 1.29106e-06) rotate(90.1341) scale(195.196 182.332)">
<stop stop-opacity="0"/>
<stop offset="0.221563"/>
<stop offset="1" stop-opacity="0"/>
</radialGradient>
<linearGradient id="paint22_linear_1380_12610" x1="36.5558" y1="53.8911" x2="-2.30545e-06" y2="53.8911" gradientUnits="userSpaceOnUse">
<stop stop-color="white" stop-opacity="0"/>
<stop offset="1" stop-color="white"/>
</linearGradient>
<linearGradient id="paint23_linear_1380_12610" x1="222.402" y1="197.201" x2="185.846" y2="197.201" gradientUnits="userSpaceOnUse">
<stop stop-color="white" stop-opacity="0"/>
<stop offset="1" stop-color="white"/>
</linearGradient>
<linearGradient id="paint24_linear_1380_12610" x1="261.706" y1="150.391" x2="185.852" y2="150.391" gradientUnits="userSpaceOnUse">
<stop stop-color="#E3E3E3"/>
<stop offset="0.21988" stop-color="#99C2FF"/>
<stop offset="0.512048" stop-color="#F48DA5"/>
<stop offset="0.75" stop-color="#A699DC"/>
<stop offset="1" stop-color="#E3E3E3"/>
</linearGradient>
<linearGradient id="paint25_linear_1380_12610" x1="261.706" y1="150.391" x2="185.852" y2="150.391" gradientUnits="userSpaceOnUse">
<stop stop-color="#E3E3E3"/>
<stop offset="0.21988" stop-color="#99C2FF"/>
<stop offset="0.512048" stop-color="#F48DA5"/>
<stop offset="0.75" stop-color="#A699DC"/>
<stop offset="1" stop-color="#E3E3E3"/>
</linearGradient>
</defs>
</svg>
