<svg width="1438" height="122" viewBox="0 0 1438 122" preserveAspectRatio="none" fill="none" xmlns="http://www.w3.org/2000/svg">
<mask id="mask0_1461_11526" style="mask-type:alpha" maskUnits="userSpaceOnUse" x="0" y="0" width="1438" height="122">
<rect width="1438" height="122" fill="#D9D9D9"/>
</mask>
<g mask="url(#mask0_1461_11526)">
<path d="M0 524H1440V39.6187C1440 39.6187 1181.5 83.5272 1104 39.6187C1026.5 -4.28993 1015.5 63.1906 960 39.6187C904.5 16.0467 790.5 39.6187 790.5 39.6187C790.5 39.6187 635 75.2077 539.5 39.6187C444 4.02959 456.5 21.593 249.5 39.6187C42.5 57.6443 0 39.6187 0 39.6187V524Z" fill="url(#paint0_linear_1461_11526)"/>
<path d="M0 524H1440V39.6187C1440 39.6187 1181.5 83.5272 1104 39.6187C1026.5 -4.28993 1015.5 63.1906 960 39.6187C904.5 16.0467 790.5 39.6187 790.5 39.6187C790.5 39.6187 635 75.2077 539.5 39.6187C444 4.02959 456.5 21.593 249.5 39.6187C42.5 57.6443 0 39.6187 0 39.6187V524Z" fill="white"/>
<path d="M1317.5 68.5C1265 62 1244.5 77.0001 1305.5 88.5C1366.5 100 1427 86 1445.5 86C1460.3 86 1453.33 57.3333 1448 43C1422 53.6667 1359.5 73.7 1317.5 68.5Z" fill="#F2F4FF"/>
<path d="M1057 82C1088 70 1130 75.4999 1173.5 82C1217 88.5 1237.5 73 1170 68.5C1102.5 64.0001 1097 31.5 1057 34C1017 36.5 995 63 967 73C939 83 1026 94 1057 82Z" fill="#F2F4FF"/>
<path d="M951 53C975 65 898.5 35.5002 871.5 70.5C844.499 105.5 842.6 64.5001 807 70.5C762.5 77.9998 795.5 53 846 44C896.5 35 927 41 951 53Z" fill="#F2F4FF"/>
<path d="M101.501 77.5C54.301 77.5 5.50101 57.5 -12.999 47.5C-36.1656 52.5 -69.399 68.2 -16.999 91C48.501 119.5 160.501 77.5 101.501 77.5Z" fill="#F2F4FF"/>
<path d="M322.501 47.5C380 47.5 432.501 28.5 478.501 38C524.501 47.5 575.501 74.5 537.001 73.5C498.501 72.5 209.001 65.5 322.501 47.5Z" fill="#F2F4FF"/>
</g>
<defs>
<linearGradient id="paint0_linear_1461_11526" x1="0" y1="524" x2="1387.89" y2="-80.1004" gradientUnits="userSpaceOnUse">
<stop offset="0.129787" stop-color="#6B115C"/>
<stop offset="0.707946" stop-color="#3C0342"/>
<stop offset="1" stop-color="#FE4B4C"/>
</linearGradient>
</defs>
</svg>
