<svg width="1440" height="652" viewBox="0 0 1440 652" fill="none" xmlns="http://www.w3.org/2000/svg">
<g filter="url(#filter0_d_1380_12626)">
<g clip-path="url(#clip0_1380_12626)">
<rect width="1440" height="644" fill="white"/>
<path d="M0 -1H1440V590H0V-1Z" fill="url(#paint0_linear_1380_12626)"/>
<path d="M1409.01 423.52C1407.09 420.124 1405.17 416.679 1403.68 413.1C1402.18 409.521 1401.12 405.784 1401.95 402.132C1397.32 398.992 1394.57 395.924 1398.19 393.064C1394.1 391.359 1391.61 389.704 1390.76 387.732C1389.88 385.76 1390.62 383.447 1392.98 380.44C1388.89 380.392 1386.43 379.649 1385.84 377.811C1383.96 376.448 1383.95 374.025 1384.76 370.617C1382.41 371.262 1380.87 370.946 1380.17 369.655C1378.82 368.852 1378.31 367.075 1378.03 364.823C1374.61 362.193 1372.4 358.286 1370.88 355.559C1370.36 354.658 1369.94 353.879 1369.58 353.258C1368.88 352.005 1368.5 351.311 1368.5 351.311C1368.5 351.311 1367.4 352.735 1365.37 355.352C1364.36 356.655 1363.11 358.261 1361.66 359.673C1360.03 361.621 1358.19 363.362 1356.57 361.572C1354.51 368.121 1352.67 371.14 1349.21 364.092C1347.42 376.825 1344.01 379.503 1328.38 374.171C1340.58 383.922 1340.7 385.504 1324.75 382.072C1339.14 388.353 1337.47 389.607 1320.97 391.104C1335.46 392.212 1335.13 393.551 1321.74 398.079C1333.68 396.253 1332.57 397.616 1322.4 402.79C1330.44 400.38 1329.42 401.767 1322.97 406.113C1327.3 404.591 1326.19 406.028 1322.96 408.828C1323.95 408.925 1322.81 410.398 1321.63 411.907C1320.53 413.356 1319.38 414.853 1318.17 416.095C1316.85 418.103 1315.49 419.88 1313.48 419.99C1312.73 423.447 1311.35 425.249 1307.92 424.129C1308.54 428.864 1307.13 430.69 1301.94 429.436C1304.29 434.318 1302.85 436.119 1296.61 435.888C1299.99 439.807 1298.57 441.706 1292.65 442.473C1294.92 444.506 1292.7 445.395 1288.47 445.273C1290.53 448.195 1290.59 450.094 1288.48 451.14C1288.57 451.956 1286.5 451.907 1283.06 450.885C1286.98 456.569 1285.5 458.335 1277.84 457.653C1282.61 462.072 1281.22 464.031 1274.59 464.859C1277.48 467.05 1275.15 468.122 1271.42 468.389C1272.84 471.116 1272.85 473.052 1271.46 474.342C1270.7 475.559 1268.57 476.119 1265.16 476.119C1268.46 480.587 1266.73 482.753 1261.23 484.165C1263.27 487.245 1261.54 489.546 1258.87 490.666C1257.49 491.761 1249.57 491.676 1246.62 489.29C1245.93 502.595 1242.72 506.734 1225.53 505.03C1231.05 509.85 1233.08 513.21 1232.22 516.083C1231.38 518.955 1227.65 521.341 1221.66 524.19C1224.86 524.944 1225.78 526.174 1224.6 527.111C1225.24 529.144 1223.76 530.885 1221.02 532.163C1221.31 534.05 1220.35 535.474 1218.39 536.521C1218.3 538.274 1217.22 539.674 1215.71 540.842C1213.65 544.287 1211.43 547.148 1213 547.355C1210.5 549.619 1208.78 551.201 1208.71 551.883C1208.62 552.577 1210.18 552.382 1213.55 551.092C1209.99 553.186 1207.65 554.537 1206.93 555.121C1206.44 555.158 1206.14 555.072 1206.02 554.878C1205.61 554.184 1207.54 552.066 1211.6 548.389C1206.69 550.008 1105.31 506.673 1103.36 504.068C1103.22 503.885 1103.09 503.678 1102.98 503.472C1102.3 502.193 1102.02 500.416 1102.07 498.152C1102.13 495.511 1102.64 492.199 1103.5 488.255C1101.96 489.521 1100.68 490.313 1099.92 490.727C1095.67 488.998 1095.47 485.979 1100.21 481.816C1092.54 482.206 1091.13 477.933 1098.69 472.199C1088.84 471.14 1087.95 468.803 1096.41 463.715C1086.35 463.971 1085.63 461.487 1092.88 455.291C1084.36 456.29 1083.81 453.563 1088.6 447.683C1083.99 448.024 1084.71 445.212 1086.94 442.096C1080.08 440.027 1078.08 437.762 1085.18 435.486C1080.34 433.94 1077.78 432.394 1077.81 430.52C1077.38 428.815 1079.55 426.783 1084.16 424.275C1078.57 423.995 1075.44 423.228 1074.99 421.67C1074.32 420.209 1076.34 417.945 1081.07 414.658C1075.17 415.279 1071.96 414.877 1071.26 413.246C1070.53 411.627 1072.28 408.779 1076.28 404.506C1066.25 407.282 1065.21 404.372 1070.65 395.949C1064.26 398.663 1064.36 395.876 1067.87 390.544C1064.31 390.093 1042.81 316.07 1042.57 315.535C1042.56 315.522 1042.56 315.51 1042.56 315.51C1042.55 315.498 1042.55 315.486 1042.55 315.474C1038.29 303.337 1036.45 298.091 1036.45 298.079C1033.49 289.631 1032.41 286.514 1032.01 285.395C1029.49 278.237 1027.63 272.93 1024.32 263.423C1024.32 263.423 1024.32 263.423 1024.32 263.41C1024.19 263.082 1023.32 260.574 1021.61 255.705C1021 253.976 1020.11 251.42 1018.49 246.794C1019.53 250.008 1019.32 252.017 1016.97 253.453C1015.96 254.074 1014.54 254.597 1012.67 255.06C1016.13 261.134 1015.48 262.802 1009.35 260.891C1012.87 269.424 1010.91 274.378 1001.01 280.148C1008.05 281.658 1007.13 283.97 998.651 288.121C1004.32 291.104 1002.43 295.912 995.433 303.642C999.479 303.398 998.553 305.735 994.337 310.325C996.64 310.58 995.653 313.112 993.057 316.971C993.605 318.31 992.545 320.988 991.132 323.934C990.291 326.344 989.096 329.034 987.671 331.469C986.026 336.825 984.124 341.986 978.226 343.642C979.457 352.248 976.691 357.324 967.648 359.807C972.523 367.89 971.133 373.368 963.017 378.286C967.636 384.202 965.516 389.558 961.872 395.243C958.362 407.708 953.353 420.416 948.576 432.54C943.799 444.664 939.254 456.204 935.122 466.697C930.979 477.19 927.262 486.636 924.825 494.464C921.01 502.51 918.475 508.925 920.559 514.123C916.123 517.044 914.612 519.187 916.209 520.684C913.991 518.87 914.405 515.73 918.914 511.579C911.797 507.464 911.151 503.764 918.609 499.187C914.953 497.641 913.089 495.924 912.797 493.928C912.736 493.538 912.736 493.149 912.797 492.747C913.065 490.787 914.673 488.584 917.427 486.101C915.575 485.054 914.052 483.934 912.797 482.705C908.604 478.651 907.593 473.587 908.677 467.269C906.167 462.559 907.166 455.717 910.164 447.902C899.891 438.992 897.673 426.21 895.638 413.758C893.408 401.682 891.36 389.923 889.593 379.71C886.035 359.272 883.549 344.956 883.549 344.956C883.549 344.956 883.329 345.48 882.915 346.466C882.903 346.478 882.903 346.478 882.903 346.49C880.332 352.564 870.436 375.997 858.481 404.275C853.838 415.255 848.89 426.977 837.813 431.956C838.203 438.103 837.922 443.508 836.911 448.438C835.899 453.368 834.169 457.835 830.903 461.207C829.209 466.369 825.955 470.447 820.666 473.831C823.335 479.357 822.969 484.287 817.546 487.817C819.058 490.897 819.313 493.624 818.594 496.131C817.863 498.639 816.157 500.915 814.329 502.972C813.903 505.005 813.464 506.929 813.33 508.718C813.159 510.581 813.293 512.297 814.049 513.831C814.11 514.22 814.159 514.61 814.207 514.987C810.076 518.846 808.955 521.877 813.939 524.506C812.318 525.468 810.966 526.357 809.893 527.184C809.893 527.184 785.557 514.476 749.497 500.927C711.645 486.71 660.888 471.542 611.789 469.12C586.368 467.866 563.725 468.402 543.605 470.227C426.675 480.794 394.43 534.78 394.43 534.78C392.699 532.346 393.174 527.756 395.782 520.428C393.174 527.489 392.102 531.968 393.04 534.196C389.531 532.066 390.091 526.064 393.674 515.571C385.509 526.016 384.754 525.492 392.419 514.756C387.227 517.568 384.144 517.823 383.328 516.107C381.061 513.977 381.073 509.887 384.217 504.165C378.941 504.908 376.796 504.044 382.182 502.486C373.566 500.197 372.47 497.215 381.073 492.711C370.081 491.652 368.789 489.059 378.392 482.729C366.242 483.545 364.987 480.635 373.457 471.871C362.428 474.671 361.124 471.627 367.059 462.607C360.515 465.772 358.894 464.884 361.051 460.806C359.93 460.635 359.016 460.27 358.284 459.747C358.711 459.941 359.722 460.112 361.331 460.282C361.758 459.527 362.294 458.688 362.94 457.75C359.637 458.639 357.919 459.162 358.041 459.552C355.993 457.896 355.494 454.817 355.823 450.921C352.995 449.899 352.691 446.393 353.739 443.24C345.744 435.79 343.149 429.728 346.049 420.83C337.957 417.628 335.362 411.591 334.728 401.025C331.206 398.955 328.574 394.804 326.039 389.473C326.514 390.313 326.587 389.935 326.392 388.474C325.698 388.121 324.564 385.991 323.077 382.802C323.041 382.717 323.004 382.631 322.968 382.546C322.919 382.425 322.858 382.303 322.809 382.181C322.31 381.086 321.774 379.868 321.201 378.554C320.774 377.58 320.336 376.545 319.872 375.474C319.872 375.498 319.885 375.51 319.885 375.535C319.848 375.425 319.775 375.267 319.69 375.072C319.677 375.023 319.653 374.975 319.629 374.926C319.629 374.902 319.616 374.877 319.592 374.841C319.543 374.707 319.482 374.573 319.421 374.427C319.397 374.378 319.373 374.317 319.348 374.257C318.995 373.441 318.556 372.394 318.142 371.445C319.312 374.171 317.947 377.531 311.756 377.105C312.512 383.058 312.049 388.085 309.197 389.631C306.601 396.034 301.617 398.98 291.673 397.482C297.705 408.56 298.79 415.194 292.891 415.973C296.365 427.878 292.867 433.916 280.863 441.073C288.175 445.419 286.981 450.873 280.047 460.014C281.729 461.11 281.972 463.131 280.425 465.091C280.693 468.402 279.182 471.652 276.561 473.563C276.5 477.75 275.587 480.331 275.172 480.38C273.759 485.444 272.832 487.963 274.612 487.769C272.126 491.871 270.346 495.218 271.772 497.081C269.932 499.503 271.285 500.441 275.099 499.722C271.272 502.206 269.018 504.251 271.492 506.052C267.799 507.939 268.847 509.607 272.905 511.408C265.642 513.052 263.51 514.878 266.727 517.933C264.229 517.154 262.12 516.436 260.414 515.778C261.816 514.232 265.191 513.027 270.066 511.81C263.973 512.686 259.72 513.368 257.489 514.013C257.282 514.074 257.1 514.123 256.929 514.184C254.418 512.723 254.553 511.518 257.636 510.374C259.561 509.643 262.62 508.949 266.91 508.207C262.486 507.148 259.525 506.052 257.855 504.823C255.479 503.07 255.722 501.049 258.111 498.493C259.866 496.606 262.791 494.427 266.703 491.859C263.278 493.745 260.426 495.291 258.184 496.484C250.385 500.623 249.995 500.465 258.221 495.657C259.988 494.622 262.157 493.368 264.728 491.895C262.267 492.662 260.122 493.307 258.294 493.831C248.13 496.74 247.935 495.742 258.464 489.546C259.622 488.864 260.902 488.122 262.315 487.318C260.938 487.683 259.671 488 258.513 488.255C245.425 491.128 246.522 486.71 256.051 474.573C256.064 474.561 256.088 474.549 256.1 474.525C256.234 474.342 256.381 474.159 256.527 473.977C256.271 474.22 256.027 474.464 255.783 474.707C245.291 480.781 246.79 476.095 253.968 467.403C245.339 470.215 242.524 468.925 250.202 465.054C243.146 466.892 240.428 465.407 241.403 461.037C242.268 461.183 244.377 460.684 247.606 460.027C240.185 458.164 236.809 455.681 237.138 453.149C236.736 452.419 240.051 451.652 247.192 451.518C231.106 445.504 230.338 442.096 246.205 435.961C228.278 433.1 226.999 427.464 237.114 412.333C225.549 416.326 225.378 410.836 230.033 399.88C223.257 401.512 221.308 397.702 221.856 391.749C220.686 390.349 222.014 386.807 225.463 383.264C215.933 378.858 214.922 374.427 221.405 369.436C217.03 366.977 214.447 363.995 213.423 362.534C211.473 357.397 211.071 353.757 213.301 358.322C209.487 348.45 207.902 343.131 208.829 347.598C208.731 347.196 208.646 346.807 208.548 346.429C208.487 346.162 208.426 345.894 208.366 345.638C208.268 345.163 208.158 344.713 208.061 344.287C208.012 344.056 207.963 343.837 207.915 343.63C207.902 343.569 207.89 343.52 207.878 343.459C207.866 343.447 207.866 343.423 207.866 343.41C207.866 343.398 207.866 343.398 207.866 343.398C207.842 343.35 207.829 343.301 207.829 343.252C207.781 343.045 207.732 342.851 207.695 342.668C207.647 342.461 207.598 342.278 207.561 342.084C207.549 342.023 207.525 341.962 207.525 341.913C207.488 341.731 207.439 341.56 207.403 341.378C207.366 341.244 207.342 341.122 207.317 341C207.305 340.952 207.293 340.915 207.281 340.866C207.208 340.526 207.135 340.197 207.062 339.893C207.037 339.783 207.013 339.673 206.988 339.576C206.964 339.466 206.94 339.357 206.915 339.26C206.879 339.113 206.854 338.967 206.818 338.834C206.818 338.821 206.818 338.821 206.818 338.809C206.806 338.785 206.806 338.76 206.793 338.748C206.793 338.748 206.793 338.736 206.793 338.724C206.757 338.541 206.708 338.359 206.684 338.188C206.659 338.115 206.635 338.054 206.635 337.994C206.623 337.957 206.611 337.933 206.611 337.896C206.562 337.677 206.513 337.458 206.464 337.251C206.428 337.105 206.403 336.971 206.367 336.837V336.825C206.33 336.703 206.306 336.581 206.282 336.484C206.282 336.484 206.282 336.472 206.282 336.46C206.221 336.216 206.172 336.009 206.135 335.827C206.135 335.79 206.123 335.754 206.111 335.717C206.099 335.669 206.087 335.62 206.074 335.571C206.074 335.571 206.074 335.571 206.087 335.583C206.062 335.498 206.05 335.413 206.026 335.34C206.014 335.279 206.001 335.23 205.989 335.182C205.989 335.169 205.989 335.169 205.989 335.169C205.989 335.157 205.977 335.133 205.977 335.121C205.977 335.096 205.965 335.084 205.965 335.072C205.953 335.048 205.953 335.023 205.953 335.011C205.953 334.987 205.94 334.963 205.94 334.938C205.928 334.926 205.928 334.914 205.928 334.902C205.928 334.889 205.928 334.877 205.928 334.877C205.916 334.865 205.916 334.853 205.916 334.853C201.894 317.202 201.127 313.867 201.041 313.453C199.116 305.005 197.946 299.868 192.998 278.152C192.998 278.14 192.998 278.127 192.986 278.115C192.986 278.079 192.974 278.042 192.962 277.993C192.962 277.981 192.962 277.969 192.95 277.957C192.95 277.945 192.95 277.92 192.937 277.896C192.937 277.884 192.937 277.872 192.925 277.847V277.811C192.913 277.787 192.913 277.75 192.901 277.714V277.701C192.901 277.701 192.901 277.701 192.889 277.689V277.653C192.876 277.64 192.876 277.628 192.876 277.616C192.864 277.543 192.852 277.47 192.828 277.385C192.828 277.348 192.816 277.324 192.803 277.287C192.803 277.287 192.803 277.287 192.803 277.275C192.791 277.239 192.779 277.178 192.767 277.129C192.767 277.129 192.767 277.117 192.767 277.105C192.742 277.032 192.73 276.947 192.706 276.849C192.694 276.801 192.681 276.74 192.669 276.679C192.633 276.545 192.596 276.411 192.572 276.253C192.56 276.192 192.535 276.119 192.523 276.046C192.474 275.827 192.413 275.571 192.352 275.303C192.352 275.291 192.352 275.291 192.352 275.279C192.34 275.23 192.328 275.194 192.316 275.145C192.291 275.035 192.267 274.902 192.231 274.78C192.206 274.658 192.182 274.524 192.145 274.39C192.084 274.123 192.023 273.843 191.95 273.538C191.926 273.429 191.902 273.319 191.877 273.21C191.853 273.1 191.828 273.003 191.804 272.893C191.792 272.832 191.78 272.771 191.767 272.71C191.731 272.552 191.694 272.394 191.658 272.236C191.646 272.187 191.633 272.138 191.621 272.09V272.077C191.572 271.907 191.536 271.724 191.499 271.554C191.499 271.554 191.499 271.554 191.499 271.542C191.475 271.445 191.451 271.335 191.426 271.238C191.39 271.104 191.365 270.958 191.329 270.824C191.28 270.58 191.219 270.325 191.158 270.069C191.195 270.178 191.219 270.3 191.243 270.41C191.146 270.008 191.061 269.606 190.963 269.18C190.866 268.779 190.768 268.353 190.671 267.902C190.671 267.902 190.671 267.902 190.671 267.89C190.671 267.89 190.671 267.878 190.658 267.854C190.658 267.854 190.658 267.854 190.658 267.841C190.658 267.829 190.646 267.817 190.646 267.805C190.646 267.793 190.646 267.793 190.646 267.78C190.634 267.768 190.634 267.756 190.634 267.744C190.634 267.732 190.634 267.732 190.634 267.72C190.622 267.671 190.61 267.634 190.598 267.586V267.574C190.585 267.549 190.585 267.537 190.585 267.513C190.585 267.513 190.585 267.513 190.585 267.5C190.561 267.44 190.549 267.379 190.537 267.318C190.537 267.306 190.524 267.294 190.524 267.281V267.269C190.5 267.135 190.463 267.001 190.427 266.855C190.427 266.855 190.427 266.843 190.427 266.831C190.415 266.758 190.39 266.685 190.378 266.6C190.342 266.441 190.305 266.283 190.269 266.125C190.256 266.101 190.256 266.088 190.256 266.064C190.244 265.991 190.22 265.906 190.195 265.821C190.195 265.808 190.195 265.784 190.183 265.76C190.159 265.638 190.122 265.516 190.098 265.382C190.061 265.248 190.025 265.102 190 264.956C189.964 264.81 189.927 264.664 189.903 264.506C189.854 264.348 189.818 264.177 189.793 264.019C189.696 263.605 189.586 263.143 189.476 262.643V262.631C189.415 262.4 189.367 262.169 189.318 261.937C189.294 261.877 189.281 261.816 189.269 261.755C189.208 261.487 189.147 261.207 189.086 260.927C189.062 260.842 189.05 260.757 189.025 260.671C189.025 260.647 189.013 260.623 189.013 260.611L189.001 260.598C189.001 260.598 189.001 260.586 189.001 260.574V260.562C189.001 260.55 188.989 260.525 188.989 260.513V260.501C188.989 260.489 188.977 260.477 188.977 260.452C188.977 260.44 188.977 260.44 188.977 260.428C188.965 260.416 188.965 260.416 188.965 260.404C188.952 260.379 188.952 260.355 188.94 260.331C188.94 260.306 188.94 260.294 188.928 260.27C188.928 260.245 188.916 260.221 188.916 260.197C188.904 260.148 188.891 260.099 188.879 260.039C188.879 260.026 188.879 260.026 188.867 260.014C188.867 259.965 188.855 259.917 188.843 259.868C188.831 259.844 188.831 259.807 188.818 259.771C188.818 259.746 188.806 259.722 188.794 259.698V259.685C188.794 259.637 188.782 259.612 188.77 259.564C188.745 259.491 188.733 259.406 188.709 259.32C188.684 259.186 188.648 259.04 188.611 258.882C188.599 258.821 188.587 258.76 188.575 258.687C188.562 258.639 188.55 258.602 188.538 258.553C188.514 258.456 188.489 258.346 188.465 258.237C188.441 258.115 188.416 257.981 188.38 257.86C188.087 256.557 187.709 254.902 187.295 253.112C185.857 246.758 184.309 239.99 183.249 235.328C182.883 233.684 182.567 232.309 182.311 231.213C181.848 229.18 181.604 228.097 181.604 228.097C181.604 228.097 180.921 230.385 179.691 234.585C178.448 238.785 176.644 244.895 174.377 252.528C173.256 256.35 172.013 260.55 168.698 262.242C169.027 269.266 167.285 273.794 159.583 273.49C164.238 284.092 162.934 289.886 150.577 292.491C158.12 301.317 154.598 306.953 145.288 312.857C150.126 315.827 150.54 319.15 147.104 323.484C150.662 325.748 150.382 329.047 148.615 332.954C149.358 335.62 148.627 338.919 147.408 341.731C146.19 344.555 144.496 346.892 142.083 348.292C141.474 363.873 137.939 375.863 122.987 386.795C124.949 390.069 126.192 393.283 126.874 396.411C127.557 399.527 127.678 402.558 127.057 404.664C127.313 408.706 126.825 411.822 124.291 412.078C124.303 417.056 122.268 419.187 117.149 418.055C120.525 425.103 120.805 428.901 115.382 428.548C118.331 435.072 115.577 437.458 106.815 437.555C113.895 443.216 114.956 446.6 108.448 448.426C113.847 452.954 111.665 455.912 103.281 457.105C112.506 461.889 111.495 465.334 103.123 465.529C109.508 472.09 108.533 475.413 102.221 472.321C105.133 475.961 105.779 478.98 104.573 480.976C104.512 481.086 104.439 481.183 104.366 481.28C104.183 481.524 103.976 481.755 103.744 481.962C103.476 481.67 101.49 480.161 97.8823 476.837C101.27 483.727 102.355 488 101.221 489.132C100.417 490.008 97.3949 487.732 91.8256 481.889C98.6257 492.321 99.7956 496.582 93.5317 496.083C92.179 494.658 89.9854 492.333 87.1703 488.986C92.7762 498.748 94.7991 502.79 91.1919 503.812C91.0822 503.192 90.3145 501.999 89.1689 500.075C89.9733 503.313 88.4865 505.565 84.3918 507.671C91.9353 509.935 93.4586 511.871 88.5231 515.511C87.865 515.401 85.2571 515.657 84.4771 516.947C84.3187 517.495 87.6944 520.051 86.8779 525.663C86.6707 524.385 86.1467 523.338 85.5252 522.595C85.4886 519.649 84.0019 518.079 81.4061 517.336C80.4556 517.057 79.3344 516.898 78.0914 516.837C79.4319 515.949 80.5896 515.182 81.528 514.525C81.9058 514.257 82.2592 514.013 82.5638 513.782C84.075 513.806 85.0986 514.013 85.5374 514.488C85.3911 513.672 84.9037 513.003 84.1359 512.455C84.404 512.175 84.4893 511.956 84.4162 511.798C84.6234 511.664 84.5502 511.615 84.1846 511.627C84.2943 511.676 84.3674 511.737 84.404 511.798C84.27 511.883 84.014 511.993 83.6362 512.139C83.0879 511.81 82.4298 511.518 81.6742 511.25C80.3946 510.8 78.8348 510.434 77.0677 510.106C79.0419 509.168 80.6506 508.292 81.8205 507.367C83.5144 506.04 84.3065 504.628 84.014 502.875C84.014 503.119 83.2585 503.033 81.9789 502.595C80.4677 502.084 78.2132 501.086 75.5566 499.588C78.4204 498.59 80.7115 496.862 82.2226 493.794C82.9172 492.382 83.4534 490.714 83.8069 488.694C83.5388 489.546 83.0269 489.984 82.3201 490.081C81.1502 490.24 79.4319 489.461 77.3358 487.915C79.5294 488.17 81.2599 487.513 82.4054 485.736C83.2463 484.433 83.7825 482.546 83.9531 479.954C81.8448 483.752 83.5631 480.769 84.8915 473.818C84.0872 474.585 83.295 475.097 82.5638 475.352C80.2118 476.192 78.5179 474.378 79.3588 469.448C73.1071 472.735 71.2303 470.666 73.3508 463.678C68.4031 465.772 67.4647 462.96 68.0497 457.872C66.2461 456.91 65.9901 453.672 65.9292 450.398C63.7844 444.628 62.4682 438.675 67.5013 433.429C59.9456 426.113 58.7391 419.503 65.6367 410.593C56.2775 406.052 55.0222 399.223 56.9721 389.74C52.5118 385.419 51.2688 378.456 50.038 371.481C47.3204 357.202 44.7002 342.863 61.1155 331.152C46.6623 319.844 40.6787 309.692 38.6923 297.799C37.693 291.858 37.693 285.468 38.1561 278.322C34.8901 274.95 32.6234 269.801 32.2212 270.605C30.2226 262.376 28.9796 256.606 28.9187 256.606C28.9187 256.654 28.9552 256.861 29.0162 257.239C24.0319 230.081 21.5946 216.752 16.2934 187.866C16.2934 187.829 16.2812 187.793 16.269 187.756V187.719C16.2568 187.695 16.2568 187.659 16.2447 187.622C16.2447 187.586 16.2325 187.537 16.2325 187.5C16.2081 187.415 16.1959 187.306 16.1715 187.196C16.1472 187.026 16.0984 186.819 16.0619 186.587C16.0497 186.551 16.0497 186.514 16.0375 186.466C16.0253 186.368 16.0009 186.259 15.9766 186.137C15.9644 186.076 15.9522 186.015 15.94 185.942V185.906C15.9034 185.735 15.8669 185.541 15.8303 185.334C15.1844 181.803 13.9414 174.962 12.5521 167.427C11.1872 160.014 9.38364 150.154 7.7872 141.414L0 121V628L1438 616.813V475.182C1438 475.182 1424.27 450.714 1409.01 423.52ZM70.2554 555.973C71.9372 554.951 73.363 554.038 74.4476 553.271C76.2878 553.186 77.7623 553.721 78.457 554.488C78.3229 555.535 78.1889 556.57 78.0548 557.58C78.0304 557.604 78.0183 557.629 77.9939 557.653C78.5545 555.851 75.4347 555.523 70.2554 555.973ZM78.3595 559.564C77.9695 559.674 77.0555 559.99 75.4835 560.562C75.7759 560.319 76.044 560.088 76.2878 559.856C78.6398 559.15 79.1516 559.138 78.3595 559.564ZM79.0175 549.753C78.2376 549.911 77.0555 550.313 75.6297 551.055C75.6175 551.043 75.6175 551.055 75.6053 551.055C75.2885 551.128 74.9107 551.238 74.4598 551.384C76.7143 549.838 78.262 549.181 79.0785 549.108C79.0663 549.327 79.0419 549.546 79.0175 549.753ZM80.1387 537.726C80.1265 537.75 80.1143 537.787 80.1022 537.823C80.1143 537.811 80.1143 537.811 80.1265 537.799C80.1021 538.103 80.0778 538.383 80.0534 538.675C79.9803 538.663 79.9193 538.651 79.8462 538.651C79.5659 539.54 79.2735 540.587 78.9688 541.78C79.2247 541.938 79.4806 542.145 79.7366 542.4C79.6269 543.691 79.505 544.969 79.3831 546.211C78.201 547.294 76.5071 549.035 74.3014 551.433C73.9601 551.554 73.5824 551.688 73.1558 551.847C75.3616 546.746 76.7143 544.677 78.7007 546.162C77.7623 544.859 76.8605 543.8 76.0928 543.058C75.9709 543.788 75.8856 544.616 75.8734 545.553C75.7881 544.47 75.849 543.618 76.0075 542.973C75.849 542.826 75.7028 542.693 75.5566 542.583C75.9831 540.964 76.3974 539.808 76.763 539.102C75.8003 536.107 75.386 534.537 75.2153 534.379C76.8118 533.039 78.652 533.027 80.3703 534.622C80.285 535.669 80.2118 536.704 80.1387 537.726ZM80.4312 533.745C78.3717 530.617 76.2146 529.315 74.4963 529.643C75.8125 528.146 77.7502 528.986 80.4678 533.21C80.4556 533.392 80.4434 533.563 80.4312 533.745ZM80.5043 532.601C78.4204 526.892 79.2369 525.395 80.8699 526.977C80.7602 528.889 80.6384 530.763 80.5043 532.601ZM81.0405 524.019C80.1509 522.839 78.9688 522.607 77.4089 523.094C78.7982 522.388 80.0656 521.889 81.1624 521.646C81.1258 522.449 81.0893 523.24 81.0405 524.019ZM209.109 349.022C209.109 348.998 209.097 348.986 209.097 348.961C209.06 348.803 209.024 348.645 208.999 348.487C209.048 348.657 209.085 348.84 209.121 349.034C209.121 349.034 209.121 349.034 209.109 349.022ZM250.97 479.321C250.007 480.258 249.251 480.976 248.715 481.475C249.239 480.94 249.995 480.234 250.97 479.321ZM256.953 527.148C256.222 525.991 256.222 525.127 257.051 524.579L256.953 527.148ZM807.151 530.069C806.42 531.664 807.639 532.82 811.075 533.599C806.396 532.65 804.897 531.445 807.151 530.069Z" fill="#2B166A"/>
<path d="M1453.15 180.137C1451.55 188.878 1449.75 198.739 1448.39 206.153C1447 213.689 1445.76 220.531 1445.11 224.062C1445.08 224.269 1445.04 224.463 1445 224.634V224.67C1444.99 224.743 1444.98 224.804 1444.97 224.865C1444.94 224.987 1444.92 225.097 1444.91 225.194C1444.89 225.243 1444.89 225.279 1444.88 225.316C1444.85 225.547 1444.8 225.754 1444.77 225.924C1444.75 226.034 1444.74 226.144 1444.71 226.229C1444.71 226.265 1444.7 226.314 1444.7 226.35C1444.69 226.387 1444.69 226.424 1444.68 226.448V226.484C1444.66 226.521 1444.65 226.557 1444.65 226.594C1439.36 255.483 1436.92 268.814 1431.94 295.975C1432 295.597 1432.04 295.39 1432.04 295.342C1431.98 295.342 1430.74 301.112 1428.74 309.342C1428.34 308.539 1426.07 313.688 1422.81 317.06C1423.27 324.207 1423.27 330.598 1422.28 336.539C1420.29 348.433 1414.31 358.587 1399.87 369.896C1416.27 381.608 1413.66 395.949 1410.94 410.23C1409.71 417.205 1408.47 424.169 1404.01 428.491C1405.96 437.975 1404.71 444.804 1395.36 449.345C1402.25 458.257 1401.04 464.867 1393.5 472.184C1398.52 477.431 1397.21 483.384 1395.07 489.155C1395.01 492.43 1394.75 495.668 1392.95 496.63C1393.53 501.719 1392.59 504.531 1387.65 502.437C1389.77 509.425 1387.9 511.495 1381.65 508.208C1382.49 513.138 1380.8 514.952 1378.45 514.112C1377.72 513.856 1376.93 513.345 1376.12 512.578C1377.45 519.53 1379.17 522.512 1377.06 518.714C1377.23 521.307 1377.77 523.194 1378.61 524.497C1379.75 526.274 1381.48 526.931 1383.67 526.676C1381.58 528.222 1379.86 529.001 1378.69 528.843C1377.99 528.745 1377.47 528.307 1377.21 527.455C1377.56 529.476 1378.09 531.144 1378.79 532.556C1380.3 535.624 1382.59 537.353 1385.45 538.351C1382.79 539.848 1380.54 540.847 1379.03 541.358C1377.75 541.796 1377 541.881 1377 541.638C1376.71 543.391 1377.5 544.803 1379.19 546.13C1380.36 547.055 1381.97 547.932 1383.94 548.869C1382.17 549.198 1380.61 549.563 1379.34 550.014C1378.58 550.282 1377.92 550.574 1377.38 550.902C1377 550.756 1376.74 550.647 1376.61 550.562C1376.65 550.501 1376.72 550.44 1376.83 550.391C1376.46 550.379 1376.39 550.428 1376.6 550.562C1376.52 550.72 1376.61 550.939 1376.88 551.219C1376.11 551.767 1375.62 552.436 1375.48 553.252C1375.92 552.777 1376.94 552.57 1378.45 552.546C1378.75 552.777 1379.11 553.021 1379.48 553.289C1380.42 553.946 1381.58 554.713 1382.92 555.602C1381.67 555.663 1380.55 555.821 1379.6 556.101C1377.01 556.843 1375.53 558.414 1375.49 561.36C1374.87 562.103 1374.35 563.15 1374.14 564.428C1373.32 558.816 1376.69 556.259 1376.54 555.711C1375.76 554.421 1373.15 554.165 1372.49 554.275C1367.56 550.635 1369.09 548.699 1376.62 546.434C1372.53 544.328 1371.05 542.076 1371.85 538.838C1370.71 540.761 1369.94 541.954 1369.83 542.575C1366.22 541.553 1368.25 537.511 1373.85 527.747C1371.03 531.095 1368.84 533.42 1367.49 534.845C1361.23 535.344 1362.4 531.083 1369.2 520.65C1363.63 526.493 1360.61 528.77 1359.81 527.893C1358.68 526.761 1359.76 522.488 1363.15 515.597C1359.54 518.921 1357.56 520.43 1357.29 520.723C1357.06 520.516 1356.85 520.284 1356.67 520.041C1356.6 519.943 1356.52 519.846 1356.46 519.736C1355.26 517.74 1355.9 514.721 1358.81 511.081C1352.5 514.173 1351.53 510.849 1357.91 504.287C1349.55 504.093 1348.54 500.647 1357.75 495.863C1349.38 494.67 1347.2 491.711 1352.59 487.183C1346.09 485.357 1347.15 481.972 1354.22 476.311C1345.47 476.214 1342.72 473.828 1345.66 467.302C1340.25 467.655 1340.53 463.857 1343.9 456.808C1338.78 457.94 1336.75 455.81 1336.76 450.831C1334.23 450.575 1333.74 447.458 1334 443.416C1333.38 441.31 1333.5 438.279 1334.18 435.162C1334.86 432.034 1336.11 428.82 1338.07 425.545C1323.13 414.612 1319.6 402.621 1318.99 387.038C1316.58 385.638 1314.89 383.3 1313.67 380.476C1312.45 377.664 1311.72 374.364 1312.46 371.698C1310.7 367.79 1310.42 364.491 1313.97 362.227C1310.54 357.893 1310.95 354.569 1315.79 351.599C1306.49 345.694 1302.97 340.057 1310.5 331.231C1298.16 328.626 1296.86 322.831 1301.51 312.227C1293.81 312.532 1292.07 308.003 1292.4 300.978C1289.09 299.286 1287.85 295.086 1286.73 291.263C1284.46 283.63 1282.66 277.519 1281.42 273.319C1280.19 269.118 1279.51 266.83 1279.51 266.83C1279.51 266.83 1279.26 267.913 1278.8 269.946C1278.55 271.042 1278.23 272.418 1277.86 274.061C1276.81 278.724 1275.26 285.493 1273.82 291.848C1273.41 293.637 1273.03 295.293 1272.74 296.596C1272.7 296.717 1272.68 296.851 1272.65 296.973C1272.63 297.083 1272.61 297.192 1272.58 297.29C1272.57 297.338 1272.56 297.375 1272.54 297.423C1272.53 297.497 1272.52 297.557 1272.51 297.618C1272.47 297.777 1272.44 297.923 1272.41 298.057C1272.39 298.142 1272.37 298.227 1272.35 298.3C1272.34 298.349 1272.33 298.385 1272.33 298.434C1272.3 298.495 1272.29 298.556 1272.28 298.604C1272.26 298.653 1272.25 298.702 1272.25 298.75C1272.24 298.763 1272.24 298.763 1272.24 298.775C1272.23 298.836 1272.22 298.884 1272.2 298.933C1272.2 298.957 1272.19 298.982 1272.19 299.006C1272.18 299.03 1272.18 299.043 1272.18 299.067C1272.17 299.091 1272.17 299.116 1272.16 299.14C1272.16 299.152 1272.16 299.152 1272.14 299.164C1272.14 299.177 1272.14 299.177 1272.14 299.189C1272.14 299.213 1272.13 299.225 1272.13 299.237V299.25C1272.13 299.262 1272.12 299.286 1272.12 299.298V299.31C1272.12 299.323 1272.12 299.335 1272.12 299.335L1272.11 299.347C1272.11 299.359 1272.09 299.384 1272.09 299.408C1272.07 299.493 1272.06 299.578 1272.03 299.664C1271.97 299.944 1271.91 300.224 1271.85 300.491C1271.84 300.552 1271.83 300.613 1271.8 300.674C1271.75 300.905 1271.7 301.137 1271.64 301.368V301.38C1271.53 301.879 1271.42 302.342 1271.33 302.756C1271.3 302.914 1271.27 303.084 1271.22 303.243C1271.19 303.401 1271.16 303.547 1271.12 303.693C1271.1 303.839 1271.06 303.985 1271.02 304.119C1271 304.253 1270.96 304.375 1270.94 304.497C1270.93 304.521 1270.93 304.545 1270.93 304.558C1270.9 304.643 1270.88 304.728 1270.86 304.801C1270.86 304.825 1270.86 304.838 1270.85 304.862C1270.82 305.02 1270.78 305.178 1270.74 305.337C1270.73 305.422 1270.71 305.495 1270.69 305.568C1270.69 305.58 1270.69 305.592 1270.69 305.592C1270.66 305.738 1270.62 305.872 1270.6 306.006V306.018C1270.6 306.031 1270.58 306.043 1270.58 306.055C1270.57 306.116 1270.56 306.177 1270.54 306.238C1270.54 306.25 1270.54 306.25 1270.54 306.25C1270.54 306.274 1270.54 306.286 1270.52 306.311V306.323C1270.51 306.371 1270.5 306.408 1270.49 306.457C1270.49 306.469 1270.49 306.469 1270.49 306.481C1270.49 306.493 1270.49 306.505 1270.47 306.518C1270.47 306.53 1270.47 306.53 1270.47 306.542C1270.47 306.554 1270.46 306.566 1270.46 306.578C1270.46 306.591 1270.46 306.591 1270.46 306.591C1270.45 306.615 1270.45 306.627 1270.45 306.627C1270.45 306.639 1270.45 306.639 1270.45 306.639C1270.35 307.09 1270.26 307.516 1270.16 307.918C1270.06 308.344 1269.98 308.745 1269.88 309.147C1269.9 309.038 1269.93 308.916 1269.96 308.806C1269.9 309.062 1269.84 309.318 1269.79 309.561C1269.76 309.695 1269.73 309.841 1269.7 309.975C1269.67 310.072 1269.65 310.182 1269.62 310.279C1269.62 310.292 1269.62 310.292 1269.62 310.292C1269.59 310.462 1269.55 310.645 1269.5 310.815V310.827C1269.49 310.876 1269.48 310.925 1269.46 310.973C1269.43 311.132 1269.39 311.29 1269.35 311.448C1269.34 311.509 1269.33 311.57 1269.32 311.631C1269.29 311.74 1269.27 311.838 1269.25 311.947C1269.22 312.057 1269.2 312.166 1269.17 312.276C1269.1 312.58 1269.04 312.86 1268.98 313.128C1268.94 313.262 1268.92 313.396 1268.89 313.518C1268.86 313.639 1268.83 313.773 1268.81 313.883C1268.79 313.932 1268.78 313.968 1268.77 314.017C1268.77 314.029 1268.77 314.029 1268.77 314.041C1268.71 314.309 1268.65 314.565 1268.6 314.784C1268.59 314.857 1268.56 314.93 1268.55 314.991C1268.53 315.149 1268.49 315.283 1268.45 315.417C1268.44 315.478 1268.43 315.539 1268.42 315.587C1268.39 315.685 1268.38 315.77 1268.36 315.843C1268.36 315.855 1268.36 315.867 1268.36 315.867C1268.34 315.916 1268.33 315.977 1268.32 316.013C1268.32 316.026 1268.32 316.026 1268.32 316.026C1268.31 316.062 1268.3 316.086 1268.3 316.123C1268.27 316.208 1268.26 316.281 1268.25 316.354C1268.25 316.367 1268.25 316.379 1268.23 316.391V316.427C1268.22 316.44 1268.22 316.44 1268.22 316.44V316.452C1268.21 316.488 1268.21 316.525 1268.2 316.549V316.586C1268.19 316.61 1268.19 316.622 1268.19 316.634C1268.17 316.659 1268.17 316.683 1268.17 316.695C1268.16 316.707 1268.16 316.72 1268.16 316.732C1268.15 316.78 1268.14 316.817 1268.14 316.853C1268.13 316.866 1268.13 316.878 1268.13 316.89C1263.18 338.609 1262.01 343.746 1260.09 352.195C1260.01 352.609 1259.24 355.945 1255.22 373.597C1255.22 373.597 1255.22 373.61 1255.21 373.622C1255.21 373.622 1255.21 373.634 1255.21 373.646C1255.21 373.658 1255.21 373.67 1255.2 373.683C1255.2 373.707 1255.18 373.731 1255.18 373.756C1255.18 373.768 1255.18 373.792 1255.17 373.817C1255.17 373.829 1255.16 373.841 1255.16 373.865C1255.16 373.877 1255.15 373.902 1255.15 373.914C1255.15 373.914 1255.15 373.914 1255.15 373.926C1255.14 373.975 1255.12 374.024 1255.11 374.084C1255.09 374.157 1255.07 374.243 1255.05 374.328C1255.06 374.316 1255.06 374.316 1255.06 374.316C1255.05 374.364 1255.04 374.413 1255.03 374.462C1255.01 374.498 1255 374.535 1255 374.571C1254.97 374.754 1254.92 374.961 1254.86 375.204C1254.86 375.217 1254.86 375.229 1254.86 375.229C1254.83 375.326 1254.81 375.448 1254.77 375.57V375.582C1254.73 375.716 1254.71 375.85 1254.67 375.996C1254.62 376.203 1254.58 376.422 1254.53 376.641C1254.53 376.678 1254.51 376.702 1254.5 376.738C1254.5 376.799 1254.48 376.86 1254.45 376.933C1254.43 377.104 1254.38 377.286 1254.34 377.469C1254.34 377.481 1254.34 377.493 1254.34 377.493C1254.33 377.505 1254.33 377.53 1254.32 377.554C1254.32 377.566 1254.32 377.566 1254.32 377.578C1254.28 377.712 1254.26 377.858 1254.22 378.004C1254.2 378.102 1254.17 378.211 1254.15 378.321C1254.13 378.418 1254.1 378.528 1254.08 378.638C1254 378.942 1253.93 379.271 1253.86 379.611C1253.85 379.66 1253.83 379.697 1253.82 379.745C1253.8 379.867 1253.77 379.989 1253.74 380.123C1253.7 380.305 1253.65 380.476 1253.61 380.658C1253.61 380.707 1253.59 380.768 1253.58 380.829C1253.54 381.024 1253.49 381.206 1253.44 381.413C1253.41 381.596 1253.36 381.791 1253.31 381.998C1253.31 382.046 1253.3 382.095 1253.27 382.144C1253.27 382.144 1253.27 382.144 1253.27 382.156C1253.27 382.168 1253.27 382.192 1253.26 382.205C1253.25 382.265 1253.24 382.314 1253.22 382.375C1253.18 382.582 1253.13 382.801 1253.08 383.032C1252.98 383.459 1252.87 383.909 1252.77 384.384C1252.71 384.639 1252.65 384.907 1252.59 385.175C1252.49 385.552 1252.41 385.942 1252.31 386.344C1253.24 381.876 1251.65 387.196 1247.84 397.069C1250.07 392.504 1249.67 396.144 1247.72 401.282C1246.7 402.742 1244.12 405.725 1239.75 408.184C1246.22 413.176 1245.21 417.607 1235.69 422.014C1239.14 425.557 1240.47 429.1 1239.3 430.5C1239.84 436.453 1237.9 440.263 1231.13 438.632C1235.78 449.589 1235.61 455.079 1224.05 451.086C1234.16 466.219 1232.88 471.855 1214.97 474.716C1230.82 480.852 1230.06 484.261 1213.99 490.275C1221.12 490.409 1224.43 491.176 1224.03 491.906C1224.36 494.439 1220.99 496.922 1213.57 498.785C1216.8 499.442 1218.91 499.941 1219.77 499.795C1220.74 504.166 1218.03 505.651 1210.98 503.813C1218.65 507.684 1215.84 508.975 1207.22 506.162C1214.39 514.855 1215.89 519.542 1205.4 513.467C1205.16 513.223 1204.92 512.98 1204.66 512.736C1204.81 512.919 1204.95 513.102 1205.09 513.284C1205.1 513.309 1205.12 513.321 1205.14 513.333C1214.66 525.471 1215.75 529.89 1202.68 527.017C1201.52 526.761 1200.25 526.444 1198.88 526.079C1200.29 526.883 1201.57 527.625 1202.73 528.307C1213.24 534.504 1213.05 535.502 1202.9 532.592C1201.07 532.069 1198.93 531.424 1196.47 530.657C1199.04 532.13 1201.2 533.384 1202.97 534.419C1211.19 539.227 1210.8 539.386 1203.01 535.246C1200.77 534.053 1197.92 532.507 1194.5 530.62C1198.4 533.189 1201.33 535.368 1203.08 537.255C1205.46 539.812 1205.71 541.833 1203.33 543.586C1201.67 544.815 1198.71 545.911 1194.29 546.97C1198.57 547.713 1201.63 548.407 1203.55 549.137C1206.63 550.282 1206.77 551.487 1204.26 552.948C1204.09 552.887 1203.91 552.838 1203.7 552.777C1201.47 552.132 1197.22 551.45 1191.14 550.574C1196.01 551.791 1199.38 552.996 1200.78 554.543C1199.07 555.2 1196.97 555.918 1194.47 556.697C1197.69 553.642 1195.56 551.815 1188.3 550.172C1192.35 548.37 1193.4 546.702 1189.71 544.815C1192.18 543.014 1189.93 540.968 1186.11 538.485C1189.92 539.203 1191.27 538.266 1189.43 535.843C1190.86 533.98 1189.08 530.632 1186.59 526.53C1188.37 526.724 1187.45 524.204 1186.03 519.14C1185.62 519.091 1184.71 516.51 1184.65 512.322C1182.03 510.411 1180.52 507.161 1180.79 503.849C1179.24 501.889 1179.48 499.868 1181.17 498.773C1174.24 489.63 1173.04 484.176 1180.35 479.829C1168.36 472.671 1164.86 466.633 1168.33 454.726C1162.44 453.947 1163.52 447.312 1169.55 436.234C1159.62 437.731 1154.64 434.785 1152.04 428.381C1149.2 426.835 1148.73 421.807 1149.49 415.854C1143.3 416.28 1141.94 412.92 1143.11 410.193C1142.69 411.143 1142.26 412.19 1141.9 413.005C1141.88 413.066 1141.85 413.127 1141.83 413.176C1141.77 413.322 1141.71 413.456 1141.66 413.59C1141.64 413.626 1141.62 413.651 1141.62 413.675C1141.6 413.724 1141.57 413.772 1141.56 413.821C1141.48 414.016 1141.4 414.174 1141.37 414.284C1141.37 414.259 1141.38 414.247 1141.38 414.223C1140.92 415.294 1140.48 416.329 1140.05 417.303C1139.48 418.618 1138.94 419.835 1138.45 420.931C1138.4 421.052 1138.34 421.174 1138.29 421.296C1138.25 421.381 1138.21 421.466 1138.18 421.552C1136.69 424.741 1135.56 426.872 1134.87 427.225C1134.67 428.686 1134.74 429.063 1135.22 428.223C1132.69 433.555 1130.06 437.707 1126.54 439.776C1125.91 450.344 1123.31 456.382 1115.23 459.584C1118.13 468.483 1115.53 474.546 1107.55 481.996C1108.59 485.15 1108.29 488.656 1105.47 489.678C1105.79 493.574 1105.3 496.654 1103.25 498.31C1103.37 497.92 1101.66 497.397 1098.36 496.508C1099 497.445 1099.54 498.286 1099.96 499.04C1101.57 498.87 1102.58 498.699 1103.01 498.505C1102.28 499.028 1101.36 499.393 1100.24 499.564C1102.4 503.642 1100.78 504.531 1094.24 501.366C1100.17 510.387 1098.87 513.43 1087.85 510.63C1096.31 519.396 1095.06 522.305 1082.92 521.49C1092.51 527.82 1091.22 530.413 1080.24 531.472C1088.84 535.977 1087.74 538.96 1079.13 541.248C1084.51 542.807 1082.37 543.671 1077.1 542.928C1080.24 548.65 1080.25 552.741 1077.99 554.871C1077.17 556.588 1074.09 556.332 1068.91 553.52C1076.56 564.258 1075.81 564.781 1067.65 554.336C1071.23 564.83 1071.79 570.832 1068.29 572.962C1069.22 570.734 1068.15 566.254 1065.55 559.193C1068.15 566.522 1068.63 571.112 1066.9 573.546C1064.9 574.106 1062.06 573.912 1058.3 572.999C1061.65 574.24 1064.11 574.813 1065.79 574.63C1064 575.847 1061.08 576.006 1057.01 575.3C1057.86 574.776 1053.15 569.979 1047.3 562.736C1041.61 571.952 1029.22 566.765 1019.3 562.614C1015.62 561.08 1012.28 559.692 1010.01 558.256C1009.2 557.744 1008.53 557.233 1008.02 556.722C1003.8 556.137 1001.94 555.358 1003.82 553.922C1001.94 555.358 1001.04 553.52 1001.55 549.636C997.676 546.666 995.229 541.65 1002.34 541.394C998.917 538.217 996.154 535.38 995.557 533.372C994.949 531.351 996.507 530.158 1001.73 530.267C991.455 520.601 995.801 516.145 1009.76 511.312C997.176 510.046 990.773 508.841 1004.99 506.722C983.31 504.994 982.251 502.364 1002.39 493.075C985.185 494.633 989.19 489.52 1000.77 479.537C989.908 485.588 985.599 487.548 996.677 479.306C979.426 489.447 977.552 489.386 992.538 475.471C975.799 487.207 975.896 485.077 988.277 469.579C977.966 478.746 979.926 474.546 986.561 464.1C976.371 476.883 972.828 480.085 982.933 465.403C971.562 478.612 970.844 477.054 977.698 461.568C972.268 469.871 971.805 469.031 973.96 462.895C974.496 462.104 975.092 461.215 975.738 460.253C975.263 460.777 974.8 461.276 974.374 461.739C974.8 460.558 975.312 459.219 975.884 457.745C974.715 459.9 973.68 461.775 972.816 463.346C964.988 471.234 965.511 466.754 970.174 455.104C965.925 462.092 963.588 464.113 963.503 459.961C964.221 459.937 966.096 457.502 969.078 453.911C959.984 456.662 959.534 453.387 968.092 450.831C960.958 447.58 962.845 445.036 969.894 443.003C960.849 440.945 956.953 439.399 966.144 437.792C959.485 437.402 955.979 437.025 956.429 435.783C957.026 435.747 960.191 435.223 965.645 434.566C956.977 433.762 951.803 432.752 950.988 430.232C949.454 428.771 952.302 425.788 959.68 421.028C941.236 425.411 940.968 422.684 954.323 409.718C938.375 418.143 936.062 416.341 944.073 400.064C932.836 410.096 931.935 405.664 934.467 391.226C930.218 403.108 929.366 404.289 932.677 391.98C927.686 402.17 926.846 398.871 927.284 387.707C926.152 393.003 925.227 394.927 924.326 394.147C923.425 393.368 922.549 389.886 921.538 384.408C920.747 389.594 919.322 386.685 919.347 382.095C917.107 381.304 916.315 378.832 920.162 378.601C913.43 372.952 911.336 369.531 921.611 372.672C910.764 364.26 912.261 362.385 925.763 364.747C909.364 356.456 904.957 352.402 926.067 349.419C903.459 344.282 906.369 340.228 925.775 331.402C908.548 334.677 904.555 334.019 920.491 323.16C898.468 331.864 896.374 330.355 912.566 312.544C893.842 326.203 893.391 323.561 905.7 305.081C894.67 317.767 896.398 314.626 905.7 302.78C897.348 309.695 893.574 311.351 895.278 305.885C896.447 304.533 897.823 302.914 899.43 300.99C898.237 301.989 897.129 302.877 896.118 303.644C896.447 302.865 896.837 302.001 897.311 301.039C897.044 301.258 896.788 301.465 896.532 301.648C895.631 302.938 894.828 304.095 894.134 305.118C889.666 308.295 887.414 308.916 887.548 307.516C887.365 307.492 887.243 307.382 887.195 307.187C887.256 307.321 887.377 307.406 887.56 307.406C887.645 306.883 888.023 306.116 888.704 305.118C888.716 305.13 888.716 305.13 888.729 305.118C888.729 305.118 888.716 305.118 888.716 305.105C888.972 304.728 889.276 304.326 889.63 303.876C889.264 304.071 888.936 304.192 888.631 304.253C888.68 303.985 888.777 303.669 888.936 303.328C888.583 303.73 888.327 304.058 888.181 304.326H888.083C888.229 304.034 888.388 303.73 888.595 303.401C888.717 303.34 888.863 303.255 889.009 303.182C889.751 301.587 891.529 299.225 894.487 296.255C893.696 296.888 892.965 297.448 892.271 297.923C891.614 298.799 891.017 299.627 890.482 300.394C890.981 299.651 891.541 298.86 892.162 298.008C891.419 298.531 890.75 298.97 890.129 299.323C890.957 298.617 891.906 297.801 892.99 296.876C893.051 296.803 893.111 296.717 893.172 296.632C891.967 297.679 890.908 298.604 889.995 299.396C889.727 299.542 889.471 299.676 889.228 299.785C888.035 300.735 887.183 301.392 886.647 301.77C886.501 302.013 886.391 302.244 886.306 302.451C886.27 302.33 886.245 302.208 886.221 302.074C885.856 302.305 885.843 302.232 886.184 301.879C886.111 301.441 886.05 300.93 886.038 300.37C885.722 300.248 885.454 300.053 885.247 299.773C885.442 299.773 885.697 299.724 886.014 299.639C886.014 299.274 886.026 298.897 886.038 298.495V298.3C886.233 298.093 886.476 297.85 886.732 297.557C888.12 297.156 890.19 295.914 892.929 294.039C891.37 294.843 890.007 295.512 888.875 296.048C888.169 296.498 887.548 296.9 887.012 297.253C887.146 297.083 887.316 296.9 887.475 296.705C887.012 297.058 886.598 297.387 886.257 297.679C886.306 297.667 886.355 297.667 886.403 297.655C886.282 297.74 886.16 297.813 886.063 297.886V297.85C886.014 297.898 885.977 297.935 885.929 297.971L885.916 297.983C885.904 297.996 885.892 298.008 885.88 298.008C885.782 298.069 885.697 298.142 885.612 298.19C885.454 298.057 885.308 297.886 885.174 297.691C885.052 298.142 884.979 298.47 884.967 298.677C884.894 298.75 884.833 298.799 884.796 298.848C884.602 298.203 884.529 297.35 884.565 296.303C884.614 296.839 884.772 297.204 885.028 297.436C884.821 297.058 884.675 296.596 884.577 296.06C884.577 295.902 884.589 295.743 884.614 295.585C884.748 295.536 884.906 295.463 885.076 295.366C885.32 295.488 885.588 295.561 885.868 295.61C885.612 296.303 885.417 296.888 885.271 297.363C885.417 297.241 885.697 297.058 886.136 296.803C886.172 296.437 886.209 296.06 886.245 295.67C886.927 295.731 887.718 295.634 888.607 295.39C889.13 294.782 889.715 294.1 890.348 293.357C888.838 293.978 887.56 294.331 886.513 294.465C887.365 293.893 888.4 293.126 889.654 292.213C887.511 292.956 885.965 293.272 884.906 293.199C884.723 293.187 884.553 293.162 884.395 293.126C884.407 292.943 884.419 292.761 884.431 292.566C884.419 292.566 884.407 292.578 884.395 292.59C884.322 292.761 884.273 292.919 884.224 293.077C884.029 293.029 883.871 292.943 883.725 292.834C883.567 292.895 883.421 292.943 883.299 292.968C883.409 293.394 883.542 293.771 883.725 294.1C883.263 293.82 882.934 293.418 882.727 292.907C882.824 293.016 883.019 293.029 883.299 292.968C883.177 292.493 883.116 291.957 883.092 291.349C882.751 292.055 882.605 292.517 882.678 292.773C882.435 292.103 882.398 291.275 882.52 290.302C882.702 290.423 882.946 290.521 883.238 290.594C882.995 291.665 883.129 292.432 883.725 292.834C883.92 292.773 884.139 292.688 884.395 292.59C884.407 292.554 884.419 292.517 884.431 292.469V292.566C885.417 292.14 886.842 291.422 888.716 290.533C886.087 290.862 884.309 290.874 883.25 290.594C883.262 290.472 883.299 290.35 883.336 290.216C883.591 290.983 886.367 289.729 890.47 288.256C888.12 288.427 886.087 288.561 884.468 288.585C885.259 288.025 886.294 287.331 887.523 286.588C885.223 287.477 883.53 288.195 882.69 288.573C881.631 288.524 880.901 288.39 880.572 288.135C879.622 288.281 881.351 287.599 886.805 286.223C887.39 286.126 887.998 286.028 888.643 285.907C888.96 285.724 889.289 285.541 889.63 285.347C878.161 284.921 873.535 283.35 883.81 275.668C871.441 277.92 873.974 274.061 882.057 266.903C871.843 270.433 867.765 271.091 875.678 262.35C865.878 268.522 868.069 265.296 874.728 257.614C867.314 263.859 864.368 265.637 870.26 256.542C862.018 263.372 862.603 259.318 865.598 249.871C860.363 255.374 857.94 256.189 859.766 248.398C854.775 253.572 854.044 250.127 854.178 243.443C853.533 243.808 852.924 244.015 852.352 244.088C852.182 249.628 851.975 249.36 851.5 244.1C850.964 244.04 850.453 243.845 849.966 243.54C850.453 243.711 850.94 243.674 851.439 243.382C851.403 242.956 851.354 242.493 851.317 242.006C850.343 242.396 849.43 241.982 848.481 241.02C848.59 240.96 848.663 240.777 848.7 240.448C848.347 241.118 847.434 239.62 845.863 236.674C844.463 234.032 842.515 230.222 840.081 225.413C847.409 239.426 846.606 237.624 840.324 224.853C840.324 224.829 840.312 224.817 840.3 224.792C839.727 223.502 838.461 220.543 837.341 217.427C836.039 213.129 835.333 208.138 836.501 203.463C824.571 193.237 820.176 184.276 819.384 170.167C815.89 169.266 813.285 167.086 811.179 164.238C809.182 161.085 807.673 157.274 804.812 155.704C803.4 150.018 801.208 145.526 795.888 146.317C797.471 141.63 797.605 139.378 795.998 139.658C796.314 140.011 795.194 141.959 793.015 145.197C794.464 145.709 793.77 148.813 792.126 151.893C791.725 152.648 791.274 153.391 790.775 154.097C789.485 162.326 787.159 169.521 780.391 172.699C781.827 186.03 778.82 195.343 768.74 206.482C772.258 215.662 768.703 226.667 764.369 238.853C762.774 244.393 760.985 250.236 759.086 256.275C758.136 259.306 757.15 262.374 756.127 265.466C755.117 268.583 754.058 271.712 751.635 272.296C751.172 280.66 749.322 286.528 739.23 284.287C745.524 298.397 743.588 304.387 726.702 305.385C739.692 316.476 737.72 322.563 723.549 330.428C733.763 334.798 731.779 340.946 726.763 348.628C727.81 353.254 725.814 359.414 723.184 365.027C720.567 370.639 717.292 375.716 712.763 379.685C713.347 387.926 712.678 395.061 708.575 398.871C708.551 403.595 707.662 407.49 705.324 410.449C703.157 413.59 699.542 415.805 694.063 417.169C697.642 421.71 699.347 425.386 696.912 427.456C697.971 431.449 694.891 433.823 688.804 435.686C693.808 439.484 695.816 442.771 692.188 445.462C695.183 449.236 692.541 452.401 687.611 455.919C690.581 458.488 691.251 461.386 689.875 464.66C690.861 467.497 689.79 470.687 688.28 473.572C687.66 476.956 686.6 480.036 684.397 482.203C684.409 486.075 683.289 489.033 679.174 488.814C680.952 494.767 680.404 497.726 674.451 494.037C678.967 503.46 678.091 506.223 668.729 500.453C676.459 511.604 675.717 514.222 663.567 508.025C671.091 514.867 672.43 517.716 662.313 514.794C670.981 520.272 668.205 519.98 659.221 516.912C664.663 522.074 665.697 525.531 658.368 527.26C665.503 530.791 664.285 532.592 656.81 533.104C662.897 537.633 662.739 540.871 657.273 543.975C659.148 545.741 655.727 547.36 650.723 548.553C654.594 550.829 656.895 552.704 656.774 554.262C657.431 555.541 655.666 556.527 651.405 557.026C658.807 561.08 658.368 563.649 651.855 565.95C650.784 565.122 649.433 564.233 647.813 563.271C652.793 560.642 651.673 557.61 647.546 553.751C647.436 553.654 647.326 553.544 647.217 553.447C647.4 553.167 647.57 552.887 647.704 552.595C648.459 551.061 648.593 549.344 648.422 547.482C648.288 545.692 647.85 543.768 647.424 541.735C645.598 539.678 643.893 537.401 643.163 534.893C642.445 532.385 642.7 529.658 644.21 526.578C638.792 523.048 638.427 518.117 641.093 512.59C635.81 509.206 632.559 505.127 630.867 499.966C627.604 496.593 625.876 492.125 624.865 487.195C623.855 482.264 623.575 476.859 623.964 470.711C612.898 465.732 607.955 454.008 603.317 443.027C591.374 414.746 581.488 391.311 578.92 385.236C578.92 385.224 578.92 385.224 578.907 385.212C578.494 384.225 578.274 383.702 578.274 383.702C578.274 383.702 575.791 398.019 572.236 418.459C570.471 428.673 568.425 440.434 566.198 452.511C564.165 464.965 561.949 477.748 551.686 486.659C554.681 494.475 555.679 501.317 553.171 506.028C554.255 512.347 553.244 517.411 549.056 521.465C547.802 522.695 546.281 523.815 544.43 524.862C547.182 527.345 548.789 529.549 549.056 531.509C549.117 531.911 549.117 532.3 549.056 532.69C548.764 534.686 546.902 536.403 543.249 537.949C550.7 542.527 550.055 546.228 542.945 550.342C547.449 554.494 547.863 557.635 545.648 559.449C547.242 557.951 545.733 555.809 541.301 552.887C543.383 547.688 540.851 541.273 537.04 533.226C534.606 525.397 530.892 515.95 526.753 505.456C522.626 494.962 518.085 483.421 513.313 471.295C508.541 459.17 503.537 446.46 500.031 433.994C496.391 428.308 494.272 422.952 498.887 417.035C490.778 412.117 489.391 406.638 494.26 398.555C485.227 396.071 482.464 390.994 483.693 382.387C477.801 380.732 475.902 375.57 474.258 370.213C472.834 367.778 471.641 365.088 470.801 362.677C469.388 359.731 468.329 357.053 468.877 355.714C466.284 351.854 465.298 349.322 467.599 349.066C463.387 344.477 462.461 342.139 466.503 342.383C459.515 334.652 457.628 329.843 463.289 326.861C454.816 322.709 453.903 320.396 460.927 318.887C451.042 313.116 449.082 308.161 452.6 299.627C446.477 301.538 445.831 299.87 449.289 293.796C447.414 293.333 446.002 292.809 444.991 292.189C442.642 290.752 442.435 288.743 443.47 285.529C441.85 290.155 440.962 292.712 440.353 294.441C438.649 299.31 437.772 301.818 437.65 302.147C437.65 302.159 437.65 302.159 437.65 302.159C434.339 311.667 432.476 316.975 429.968 324.134C429.567 325.254 428.483 328.37 425.525 336.819C425.525 336.831 423.686 342.078 419.438 354.216C419.438 354.228 419.438 354.24 419.425 354.253C419.425 354.253 419.426 354.265 419.413 354.277C419.17 354.813 417.356 359.39 413.984 365.794C412.766 366.037 409.175 369.081 403.368 370.663C404.317 373.293 404.609 376.495 404.256 379.161C403.916 381.815 402.942 383.933 400.909 385.236C403.136 393.125 401.103 397.727 392.569 399.93C394.128 406.334 389.185 410.363 382.452 414.466C385.459 417.23 387.456 420.042 388.26 422.757C389.319 425.849 397.695 428.844 394.14 429.294C397.646 434.627 397.743 437.415 391.364 434.7C396.794 443.124 395.759 446.034 385.74 443.258C389.733 447.531 391.486 450.38 390.755 451.999C390.049 453.631 386.847 454.032 380.955 453.411C385.679 456.699 387.7 458.963 387.03 460.424C386.579 461.982 383.451 462.749 377.863 463.029C382.477 465.537 384.644 467.57 384.206 469.274C384.242 471.149 381.685 472.695 376.852 474.242C383.938 476.518 381.941 478.782 375.087 480.852C377.315 483.969 378.033 486.781 373.431 486.44C378.216 492.32 377.668 495.047 369.158 494.049C376.402 500.246 375.684 502.729 365.628 502.473C374.077 507.562 373.188 509.9 363.351 510.959C370.899 516.693 369.499 520.966 361.829 520.577C366.565 524.74 366.37 527.759 362.122 529.488C361.367 529.074 360.088 528.283 358.542 527.017C359.407 530.961 359.918 534.272 359.979 536.914C360.028 539.179 359.748 540.956 359.066 542.234C358.956 542.441 358.822 542.648 358.688 542.831C356.741 545.436 352.492 545.327 345.005 542.393C351.189 549.064 354.123 552.923 353.502 554.177C353.32 554.543 352.857 554.689 352.114 554.628C351.019 553.569 347.452 551.109 342.034 547.299C347.147 549.661 349.521 550.014 349.4 548.748C349.278 547.494 346.66 544.621 342.862 540.506C345.26 540.128 341.876 534.918 338.735 528.66C336.434 526.518 334.79 523.985 334.657 520.796C331.674 518.884 330.213 516.303 330.651 512.87C326.475 510.557 324.223 507.38 325.197 503.691C323.395 501.974 324.82 499.734 329.677 498.371C320.559 493.185 314.886 488.851 313.595 483.628C312.293 478.405 315.385 472.294 323.797 463.528C297.598 466.608 292.716 459.085 291.657 434.907C287.165 439.241 275.1 439.411 272.994 437.415C268.928 435.394 266.286 431.194 269.391 425.606C261.015 423.049 258.373 419.105 263.413 410.984C258.215 410.984 254.952 409.95 253.808 407.746C251.689 405.396 251.714 401.89 253.869 396.923C248.183 396.436 244.628 394.488 249.035 390.495C238.931 388.986 236.8 385.419 244.068 377.384C232.405 378.638 230.141 375.411 236.119 365.088C230.896 366.938 227.731 367.023 227.864 365.55C224.663 363.651 224.748 360.206 227.889 354.886C221.449 355.105 218.064 353.473 221.522 349.785C212.501 348.385 210.334 344.939 215.483 337.805C205.975 338.219 203.784 334.944 207.375 326.069C199.462 328.346 197.307 325.035 198.257 316.427C193.046 318.46 190.928 315.186 189.796 308.904C186.716 308.709 184.634 305.483 182.637 301.831C180.799 299.566 179.034 296.851 177.366 294.222C175.552 291.47 173.823 288.804 175.333 288.622C170.414 283.533 168.722 280.927 175.308 283.691C165.472 275.79 163.913 273.27 176.173 277.653C160.663 268.242 158.971 265.758 177.171 269.082C156.767 260.84 156.256 258.405 178.34 256.396C153.188 253.682 150.644 251.393 172.581 239.973C148.27 246.219 148.452 243.334 167.042 225.608C143.254 235.311 138.043 230.441 135.316 207.286C130.033 220.093 127.233 214.602 124.092 202.696C121.62 205.959 118.82 202.781 116.337 199.251C114.121 196.694 112.222 193.772 110.688 191.398C107.596 186.638 105.916 184.045 105.916 184.045C105.916 184.045 105.331 185.287 104.26 187.576C103.724 188.72 103.067 190.12 102.288 191.764C99.9623 196.706 96.6144 203.816 91.3917 208.601C90.9534 212.703 90.1743 215.929 88.1168 217.39C87.0577 219.74 84.7202 220.324 81.1289 219.143C82.3463 225.34 82.3341 229.759 79.4732 232.231C78.5723 235.566 74.8226 236.93 68.5894 237.015C72.2052 242.493 73.3374 246.681 71.9739 250.273C70.6834 253.876 66.885 256.871 60.664 259.976C66.1911 265.174 61.991 270.75 54.93 276.459C56.1839 283.107 54.5769 289.888 52.2882 296.401C50.0116 302.914 47.0776 309.172 44.168 315.344C20.9274 364.783 0 409.268 0 409.268V666.752H1460.9V159.697L1453.15 180.137ZM650.65 572.341C654.083 571.562 655.301 570.405 654.57 568.811C656.822 570.186 655.325 571.392 650.65 572.341ZM842.065 233.168C842.917 234.617 843.721 235.932 844.475 237.076C843.684 235.919 842.881 234.592 842.065 233.168ZM840.129 226.947C842.345 231.062 844.098 234.3 845.401 236.638C843.855 234.02 842.114 230.721 840.129 226.947ZM847.239 240.387C847.263 240.4 847.276 240.424 847.3 240.436C847.349 240.533 847.409 240.631 847.458 240.728C847.385 240.619 847.312 240.509 847.239 240.387ZM880.207 287.258C880.621 287.234 881.729 287.075 883.409 286.795C880.499 287.319 879.586 287.453 880.207 287.258ZM884.541 295.829C884.516 295.756 884.504 295.695 884.504 295.622C884.529 295.622 884.541 295.61 884.553 295.61C884.541 295.683 884.541 295.756 884.541 295.829ZM884.894 299.116C884.869 299.079 884.857 299.03 884.833 298.982C884.882 298.982 884.93 298.97 885.003 298.945C884.955 299.006 884.918 299.067 884.894 299.116ZM888.534 303.425C888.351 303.742 888.181 304.034 888.035 304.314C887.682 304.314 887.39 304.192 887.134 303.985C887.511 303.9 887.974 303.718 888.534 303.425ZM1202.87 578.733C1202.73 578.72 1202.53 578.733 1202.28 578.781C1201.92 579.049 1201.18 579.536 1200.04 580.254C1200.23 579.914 1200.4 579.585 1200.56 579.268C1199.4 579.646 1197.88 580.242 1196.02 580.985C1197.99 580.157 1199.56 579.512 1200.64 579.098C1201.59 577.089 1201.84 575.519 1201.11 574.411C1204.02 574.472 1204.28 576.042 1202.87 578.733ZM1204.21 565.889C1203.85 566.51 1203.26 567.204 1202.48 567.995C1201.51 568.287 1200.08 568.811 1198.2 569.553C1198.84 569.833 1199.32 570.186 1199.61 570.625C1199.16 571.002 1198.68 571.392 1198.17 571.806C1198.73 571.465 1199.26 571.148 1199.74 570.856C1200.06 571.477 1200.06 572.268 1199.66 573.266C1198.96 572.962 1198.05 572.755 1196.91 572.658C1197.21 570.966 1196.52 569.724 1195.08 568.762C1196.24 568.92 1197.23 569.139 1198.01 569.468C1201.93 566.668 1199.21 566.924 1193.92 568.08C1192.19 567.24 1189.83 566.595 1187.07 565.986C1192.18 564.489 1195.23 563.162 1192.79 563.125C1196.99 560.885 1195.71 559.936 1190.47 559.619C1192.22 558.536 1193.55 557.586 1194.45 556.722C1197.31 556.247 1199.6 555.821 1201.34 555.443C1202.06 557.245 1200.4 559.485 1195.84 562.59C1200.32 562.297 1202.99 562.529 1204.11 563.32C1204.94 563.868 1204.94 564.732 1204.21 565.889ZM1210.19 518.056C1211.16 518.97 1211.92 519.676 1212.44 520.211C1211.9 519.712 1211.15 518.994 1210.19 518.056ZM1252.02 387.683C1252.02 387.707 1252.01 387.719 1252.01 387.744C1251.99 387.756 1251.99 387.756 1251.99 387.756C1252.03 387.561 1252.07 387.379 1252.12 387.208C1252.09 387.366 1252.06 387.525 1252.02 387.683ZM1387.82 590.59C1387.4 590.432 1387.02 590.298 1386.68 590.176C1384.47 587.778 1382.78 586.037 1381.6 584.954C1380.37 583.809 1379.67 583.371 1379.47 583.59C1379.98 582.592 1380.6 581.752 1381.25 581.143C1381.5 580.887 1381.76 580.681 1382.02 580.522C1381.71 579.329 1381.42 578.282 1381.14 577.393C1381.07 577.393 1381 577.406 1380.93 577.418C1379.8 577.527 1378.63 578.282 1377.73 579.5C1378.34 576.7 1379.78 575.397 1380.86 576.541C1380.87 576.553 1380.87 576.553 1380.88 576.566C1380.87 576.529 1380.86 576.493 1380.85 576.468C1380.42 575.105 1380.1 574.228 1380.08 573.899C1380.26 573.705 1380.43 573.522 1380.62 573.364C1382.33 571.769 1384.17 571.781 1385.76 573.12C1385.59 573.279 1385.18 574.849 1384.22 577.844C1384.58 578.55 1385 579.707 1385.42 581.326C1385.28 581.435 1385.13 581.569 1384.97 581.715C1385.13 582.361 1385.19 583.213 1385.11 584.296C1385.1 583.359 1385.01 582.531 1384.89 581.801C1384.12 582.543 1383.22 583.602 1382.28 584.905C1384.27 583.42 1385.62 585.489 1387.82 590.59ZM1381.32 588.411C1381.13 588.009 1381.32 587.778 1381.91 587.851C1382.72 587.924 1384.27 588.582 1386.52 590.128C1386.07 589.982 1385.69 589.872 1385.38 589.799C1385.36 589.799 1385.36 589.787 1385.35 589.799C1383.93 589.056 1382.75 588.655 1381.97 588.496C1381.7 588.435 1381.48 588.411 1381.32 588.411ZM1377.36 562.711C1378.16 561.263 1378.17 560.459 1377.79 560.203C1378.37 560.143 1379.06 560.204 1379.82 560.386C1380.92 560.63 1382.19 561.129 1383.57 561.835C1382.02 561.348 1380.83 561.579 1379.95 562.76C1379.14 563.831 1378.58 565.67 1378.18 568.445C1378.86 567.192 1379.54 566.266 1380.12 565.718C1381.75 564.136 1382.56 565.633 1380.48 571.343C1380.26 571.915 1380.03 572.524 1379.76 573.169C1380.02 572.731 1380.26 572.329 1380.52 571.952C1383.23 567.727 1385.17 566.887 1386.48 568.385C1384.77 568.056 1382.61 569.359 1380.55 572.487C1380.33 572.804 1380.13 573.145 1379.92 573.51C1377.86 571.781 1376.31 570.819 1375.49 570.698C1376.79 563.783 1380.21 560.703 1377.36 562.711ZM1382.62 598.309C1381.83 597.883 1382.34 597.895 1384.69 598.601C1384.94 598.832 1385.2 599.064 1385.5 599.307C1383.93 598.735 1383.01 598.418 1382.62 598.309ZM1382.99 596.397C1382.96 596.373 1382.95 596.349 1382.93 596.324C1381.95 595.034 1381.82 594.048 1382.48 593.281C1382.49 593.269 1382.5 593.244 1382.53 593.232C1383.22 592.465 1384.69 591.929 1386.53 592.015C1387.62 592.782 1389.04 593.695 1390.72 594.717C1385.55 594.267 1382.43 594.596 1382.99 596.397Z" fill="#301973"/>
<path d="M647.546 593.751C647.01 597.732 646.572 601.409 646.243 604.671C636.918 586.142 601.99 569.951 599.153 568.648C601.187 569.476 619.862 576.963 623.319 574.662C612.362 571.01 586.797 540.574 586.797 540.574C586.797 540.574 586.797 540.574 607.493 543.009C600.298 541.816 593.115 512.306 592.896 511.38C593.079 511.502 594.783 512.647 605.058 513.791C597.753 512.574 590.449 493.095 590.449 493.095C590.449 493.095 590.449 493.095 598.971 493.095C590.218 485.693 583.339 452.993 578.92 425.236C581.489 431.311 591.374 454.746 603.317 483.027C607.955 494.008 612.898 505.732 623.964 510.711C623.575 516.859 623.855 522.264 624.865 527.195C625.876 532.125 627.605 536.593 630.867 539.965C632.559 545.127 635.81 549.206 641.094 552.59C638.427 558.117 638.793 563.048 644.21 566.578C642.701 569.658 642.445 572.385 643.163 574.893C643.894 577.401 645.598 579.678 647.424 581.735C647.85 583.768 648.288 585.692 648.422 587.481C648.167 589.222 647.935 590.939 647.704 592.595C647.643 592.984 647.595 593.374 647.546 593.751Z" fill="#231B5E"/>
<path d="M549.056 572.69V618.489L499.142 597.793C499.142 597.793 499.142 597.793 524.708 591.706C507.664 590.488 483.316 562.488 483.316 562.488C483.316 562.488 483.316 562.488 504.012 558.836C490.62 555.183 473.576 525.965 473.576 525.965C473.576 525.965 473.576 525.965 493.055 522.313C476.754 516.494 459.332 470.573 457.859 466.592C458.614 466.859 461.913 467.115 474.794 466.312C467.489 466.312 455.315 443.181 455.315 443.181C455.315 443.181 454.098 409.093 455.315 396.919C456.118 388.932 449.581 354.759 444.991 332.188C446.002 332.809 447.414 333.333 449.289 333.795C445.831 339.87 446.476 341.538 452.6 339.627C449.082 348.161 451.042 353.116 460.927 358.887C453.903 360.396 454.816 362.709 463.289 366.861C457.628 369.843 459.515 374.652 466.503 382.383C462.461 382.139 463.386 384.477 467.599 389.066C465.298 389.322 466.284 391.854 468.877 395.713C468.329 397.053 469.388 399.731 470.801 402.677C471.641 405.088 472.834 407.778 474.258 410.213C475.902 415.57 477.801 420.731 483.693 422.387C482.463 430.994 485.227 436.071 494.26 438.554C489.391 446.638 490.778 452.117 498.886 457.035C494.272 462.952 496.391 468.308 500.031 473.994C503.537 486.46 508.541 499.17 513.313 511.295C518.085 523.421 522.626 534.962 526.753 545.456C530.892 555.95 534.606 565.397 537.04 573.225C540.851 581.273 543.383 587.688 541.301 592.887C545.733 595.809 547.242 597.951 545.648 599.449C547.863 597.635 547.449 594.494 542.945 590.342C550.055 586.227 550.7 582.527 543.249 577.949C546.901 576.403 548.764 574.686 549.056 572.69Z" fill="#231B5E"/>
<path d="M1224.72 624.576C1224.72 624.576 1212.55 658.664 1200.38 665.969C1188.2 673.273 1162.64 661.099 1162.64 661.099C1162.64 661.099 1201.59 644.055 1186.98 645.272C1177.24 645.272 1152.9 630.663 1152.9 630.663C1152.9 630.663 1152.9 630.663 1182.11 622.141C1168.72 623.359 1151.68 603.88 1151.68 603.88C1151.68 603.88 1160.2 606.315 1174.81 603.88C1162.64 601.445 1140.72 578.314 1140.72 578.314C1140.72 578.314 1152.9 578.314 1161.42 572.227C1139.5 572.227 1149.24 555.183 1149.24 555.183C1149.24 555.183 1149.24 554.003 1165.63 555.135C1156.6 553.966 1143.15 529.313 1138.62 520.523C1141.03 523.08 1147.16 525.174 1162.64 517.443C1144.37 515.009 1140.72 493.095 1140.72 493.095C1140.72 493.095 1149.24 494.312 1151.68 493.095C1146.03 489.333 1142.32 472.618 1140.05 457.303C1140.48 456.329 1140.92 455.294 1141.38 454.223C1141.38 454.247 1141.37 454.259 1141.37 454.284C1141.4 454.174 1141.48 454.016 1141.56 453.821C1141.57 453.772 1141.6 453.724 1141.62 453.675C1141.62 453.651 1141.64 453.626 1141.66 453.59C1141.71 453.456 1141.77 453.322 1141.83 453.176C1141.85 453.127 1141.88 453.066 1141.9 453.005C1142.26 452.19 1142.69 451.143 1143.11 450.193C1141.94 452.92 1143.3 456.28 1149.49 455.854C1148.73 461.807 1149.2 466.835 1152.04 468.381C1154.64 474.785 1159.62 477.731 1169.55 476.234C1163.52 487.312 1162.44 493.947 1168.33 494.726C1164.86 506.633 1168.36 512.671 1180.35 519.83C1173.04 524.176 1174.24 529.63 1181.16 538.773C1179.48 539.868 1179.24 541.889 1180.79 543.849C1180.52 547.161 1182.03 550.411 1184.65 552.322C1184.71 556.51 1185.62 559.091 1186.03 559.14C1187.45 564.204 1188.37 566.725 1186.59 566.53C1189.08 570.632 1190.86 573.98 1189.43 575.843C1191.27 578.266 1189.92 579.203 1186.11 578.485C1189.93 580.968 1192.18 583.014 1189.71 584.815C1193.4 586.702 1192.35 588.37 1188.3 590.172C1195.55 591.816 1197.69 593.642 1194.47 596.697C1196.97 595.918 1199.07 595.2 1200.78 594.543C1199.38 592.996 1196.01 591.791 1191.14 590.574C1197.22 591.45 1201.47 592.132 1203.7 592.777L1204.11 603.32L1204.21 605.889L1205.25 631.881L1224.72 624.576Z" fill="#231B5E"/>
<circle opacity="0.1" cx="955" cy="328" r="662" fill="#11003E"/>
<ellipse opacity="0.1" cx="955" cy="328" rx="475.764" ry="475.764" fill="#0E0037"/>
<circle opacity="0.1" cx="955" cy="328" r="286.397" fill="#120052"/>
</g>
<rect x="0.5" y="0.5" width="1439" height="643" stroke="black"/>
</g>
<defs>
<filter id="filter0_d_1380_12626" x="-4" y="0" width="1448" height="652" filterUnits="userSpaceOnUse" color-interpolation-filters="sRGB">
<feFlood flood-opacity="0" result="BackgroundImageFix"/>
<feColorMatrix in="SourceAlpha" type="matrix" values="0 0 0 0 0 0 0 0 0 0 0 0 0 0 0 0 0 0 127 0" result="hardAlpha"/>
<feOffset dy="4"/>
<feGaussianBlur stdDeviation="2"/>
<feComposite in2="hardAlpha" operator="out"/>
<feColorMatrix type="matrix" values="0 0 0 0 0 0 0 0 0 0 0 0 0 0 0 0 0 0 0.25 0"/>
<feBlend mode="normal" in2="BackgroundImageFix" result="effect1_dropShadow_1380_12626"/>
<feBlend mode="normal" in="SourceGraphic" in2="effect1_dropShadow_1380_12626" result="shape"/>
</filter>
<linearGradient id="paint0_linear_1380_12626" x1="0" y1="-1" x2="1464.46" y2="521.433" gradientUnits="userSpaceOnUse">
<stop stop-color="#410060"/>
<stop offset="0.707946" stop-color="#FF4C4C"/>
<stop offset="1" stop-color="#0C0344"/>
</linearGradient>
<clipPath id="clip0_1380_12626">
<rect width="1440" height="644" fill="white"/>
</clipPath>
</defs>
</svg>
