<svg width="126" height="237" viewBox="0 0 126 237" fill="none" xmlns="http://www.w3.org/2000/svg">
<g clip-path="url(#clip0_748_2420)">
<g opacity="0.4">
<mask id="mask0_748_2420" style="mask-type:alpha" maskUnits="userSpaceOnUse" x="20" y="132" width="63" height="288">
<rect x="20.0656" y="132.53" width="62.932" height="287.118" fill="url(#paint0_radial_748_2420)"/>
</mask>
<g mask="url(#mask0_748_2420)">
<rect opacity="0.5" x="20.0656" y="136.274" width="30.3287" height="283.373" fill="url(#paint1_linear_748_2420)"/>
<rect opacity="0.5" width="30.3287" height="283.373" transform="matrix(-1 0 0 1 82.9986 136.274)" fill="url(#paint2_linear_748_2420)"/>
</g>
</g>
<path d="M32.7537 144.639C24.9124 139.887 20.9918 137.51 20.246 134.657C20.0052 133.735 20.0052 132.796 20.246 131.874C20.9918 129.021 24.9124 126.644 32.7537 121.892C40.5949 117.139 44.5156 114.763 49.2241 114.311C50.7447 114.165 52.2938 114.165 53.8145 114.311C58.523 114.763 62.4436 117.139 70.2849 121.892C78.1262 126.644 82.0468 129.021 82.7925 131.874C83.0334 132.796 83.0334 133.735 82.7925 134.657C82.0468 137.51 78.1262 139.887 70.2849 144.639C62.4436 149.392 58.523 151.768 53.8145 152.22C52.2938 152.366 50.7447 152.366 49.2241 152.22C44.5156 151.768 40.5949 149.392 32.7537 144.639Z" fill="url(#paint3_linear_748_2420)"/>
<path d="M32.7537 144.639C24.9124 139.887 20.9918 137.51 20.246 134.657C20.0052 133.735 20.0052 132.796 20.246 131.874C20.9918 129.021 24.9124 126.644 32.7537 121.892C40.5949 117.139 44.5156 114.763 49.2241 114.311C50.7447 114.165 52.2938 114.165 53.8145 114.311C58.523 114.763 62.4436 117.139 70.2849 121.892C78.1262 126.644 82.0468 129.021 82.7925 131.874C83.0334 132.796 83.0334 133.735 82.7925 134.657C82.0468 137.51 78.1262 139.887 70.2849 144.639C62.4436 149.392 58.523 151.768 53.8145 152.22C52.2938 152.366 50.7447 152.366 49.2241 152.22C44.5156 151.768 40.5949 149.392 32.7537 144.639Z" fill="white" fill-opacity="0.6"/>
<path d="M20.0654 130.124H82.9974V133.157H20.0654V130.124Z" fill="url(#paint4_linear_748_2420)"/>
<path d="M20.0654 130.124H82.9974V133.157H20.0654V130.124Z" fill="white" fill-opacity="0.6"/>
<rect width="43.8866" height="43.8866" rx="12.1315" transform="matrix(0.855186 -0.518321 0.855186 0.518321 14.0011 129.747)" fill="white"/>
<g opacity="0.4">
<mask id="mask1_748_2420" style="mask-type:alpha" maskUnits="userSpaceOnUse" x="57" y="54" width="63" height="288">
<rect x="57.0656" y="54.5299" width="62.932" height="287.118" fill="url(#paint5_radial_748_2420)"/>
</mask>
<g mask="url(#mask1_748_2420)">
<rect opacity="0.5" x="57.0656" y="58.274" width="30.3287" height="283.373" fill="url(#paint6_linear_748_2420)"/>
<rect opacity="0.5" width="30.3287" height="283.373" transform="matrix(-1 0 0 1 119.999 58.274)" fill="url(#paint7_linear_748_2420)"/>
</g>
</g>
<path d="M69.7537 66.6392C61.9124 61.8866 57.9918 59.5104 57.246 56.6566C57.0052 55.7349 57.0052 54.796 57.246 53.8744C57.9918 51.0206 61.9124 48.6443 69.7537 43.8918C77.5949 39.1393 81.5156 36.763 86.2241 36.311C87.7447 36.165 89.2938 36.165 90.8145 36.311C95.523 36.763 99.4436 39.1393 107.285 43.8918C115.126 48.6443 119.047 51.0206 119.793 53.8744C120.033 54.796 120.033 55.7349 119.793 56.6566C119.047 59.5104 115.126 61.8866 107.285 66.6392C99.4436 71.3917 95.523 73.7679 90.8145 74.2199C89.2938 74.3659 87.7447 74.3659 86.2241 74.2199C81.5156 73.7679 77.5949 71.3917 69.7537 66.6392Z" fill="url(#paint8_linear_748_2420)"/>
<path d="M69.7537 66.6392C61.9124 61.8866 57.9918 59.5104 57.246 56.6566C57.0052 55.7349 57.0052 54.796 57.246 53.8744C57.9918 51.0206 61.9124 48.6443 69.7537 43.8918C77.5949 39.1393 81.5156 36.763 86.2241 36.311C87.7447 36.165 89.2938 36.165 90.8145 36.311C95.523 36.763 99.4436 39.1393 107.285 43.8918C115.126 48.6443 119.047 51.0206 119.793 53.8744C120.033 54.796 120.033 55.7349 119.793 56.6566C119.047 59.5104 115.126 61.8866 107.285 66.6392C99.4436 71.3917 95.523 73.7679 90.8145 74.2199C89.2938 74.3659 87.7447 74.3659 86.2241 74.2199C81.5156 73.7679 77.5949 71.3917 69.7537 66.6392Z" fill="white" fill-opacity="0.6"/>
<path d="M57.0654 52.1241H119.997V55.157H57.0654V52.1241Z" fill="url(#paint9_linear_748_2420)"/>
<path d="M57.0654 52.1241H119.997V55.157H57.0654V52.1241Z" fill="white" fill-opacity="0.6"/>
<rect width="43.8866" height="43.8866" rx="12.1315" transform="matrix(0.855186 -0.518321 0.855186 0.518321 51.0011 51.7472)" fill="white"/>
</g>
<defs>
<radialGradient id="paint0_radial_748_2420" cx="0" cy="0" r="1" gradientUnits="userSpaceOnUse" gradientTransform="translate(51.9108 132.53) rotate(90.0757) scale(287.118 151.273)">
<stop stop-opacity="0"/>
<stop offset="0.221563"/>
<stop offset="1" stop-opacity="0"/>
</radialGradient>
<linearGradient id="paint1_linear_748_2420" x1="50.3943" y1="215.544" x2="20.0656" y2="215.544" gradientUnits="userSpaceOnUse">
<stop stop-color="white" stop-opacity="0"/>
<stop offset="1" stop-color="white"/>
</linearGradient>
<linearGradient id="paint2_linear_748_2420" x1="30.3287" y1="79.2695" x2="-1.91273e-06" y2="79.2695" gradientUnits="userSpaceOnUse">
<stop stop-color="white" stop-opacity="0"/>
<stop offset="1" stop-color="white"/>
</linearGradient>
<linearGradient id="paint3_linear_748_2420" x1="20.0654" y1="133.157" x2="82.9974" y2="133.157" gradientUnits="userSpaceOnUse">
<stop stop-color="#E3E3E3"/>
<stop offset="0.21988" stop-color="#99C2FF"/>
<stop offset="0.512048" stop-color="#F48DA5"/>
<stop offset="0.75" stop-color="#A699DC"/>
<stop offset="1" stop-color="#E3E3E3"/>
</linearGradient>
<linearGradient id="paint4_linear_748_2420" x1="20.0654" y1="133.157" x2="82.9974" y2="133.157" gradientUnits="userSpaceOnUse">
<stop stop-color="#E3E3E3"/>
<stop offset="0.21988" stop-color="#99C2FF"/>
<stop offset="0.512048" stop-color="#F48DA5"/>
<stop offset="0.75" stop-color="#A699DC"/>
<stop offset="1" stop-color="#E3E3E3"/>
</linearGradient>
<radialGradient id="paint5_radial_748_2420" cx="0" cy="0" r="1" gradientUnits="userSpaceOnUse" gradientTransform="translate(88.9108 54.5299) rotate(90.0757) scale(287.118 151.273)">
<stop stop-opacity="0"/>
<stop offset="0.221563"/>
<stop offset="1" stop-opacity="0"/>
</radialGradient>
<linearGradient id="paint6_linear_748_2420" x1="87.3943" y1="137.544" x2="57.0656" y2="137.544" gradientUnits="userSpaceOnUse">
<stop stop-color="white" stop-opacity="0"/>
<stop offset="1" stop-color="white"/>
</linearGradient>
<linearGradient id="paint7_linear_748_2420" x1="30.3287" y1="79.2695" x2="-1.91273e-06" y2="79.2695" gradientUnits="userSpaceOnUse">
<stop stop-color="white" stop-opacity="0"/>
<stop offset="1" stop-color="white"/>
</linearGradient>
<linearGradient id="paint8_linear_748_2420" x1="57.0654" y1="55.157" x2="119.997" y2="55.157" gradientUnits="userSpaceOnUse">
<stop stop-color="#E3E3E3"/>
<stop offset="0.21988" stop-color="#99C2FF"/>
<stop offset="0.512048" stop-color="#F48DA5"/>
<stop offset="0.75" stop-color="#A699DC"/>
<stop offset="1" stop-color="#E3E3E3"/>
</linearGradient>
<linearGradient id="paint9_linear_748_2420" x1="57.0654" y1="55.157" x2="119.997" y2="55.157" gradientUnits="userSpaceOnUse">
<stop stop-color="#E3E3E3"/>
<stop offset="0.21988" stop-color="#99C2FF"/>
<stop offset="0.512048" stop-color="#F48DA5"/>
<stop offset="0.75" stop-color="#A699DC"/>
<stop offset="1" stop-color="#E3E3E3"/>
</linearGradient>
<clipPath id="clip0_748_2420">
<rect width="126" height="237" fill="white"/>
</clipPath>
</defs>
</svg>
