<svg width="558" height="550" viewBox="0 0 558 550" fill="none" xmlns="http://www.w3.org/2000/svg">
<path d="M379.123 434H364.263L362.624 415.797C304.023 351.397 265.335 308.785 265.335 256.796C265.335 214.184 292.872 180.95 327.918 180.95C347.718 180.95 366.72 192.12 379.123 209.633C388.5 196.393 405.447 180.95 409.693 180.95C413.939 180.95 425.497 180.95 430.327 180.95C465.374 180.95 492.911 214.184 492.911 256.796C492.911 308.785 454.223 351.397 395.622 415.797L379.123 434Z" fill="url(#paint0_linear_1096_16076)"/>
<path d="M379.123 434H364.263L362.624 415.797C304.023 351.397 265.335 308.785 265.335 256.796C265.335 214.184 292.872 180.95 327.918 180.95C347.718 180.95 366.72 192.12 379.123 209.633C388.5 196.393 405.447 180.95 409.693 180.95C413.939 180.95 425.497 180.95 430.327 180.95C465.374 180.95 492.911 214.184 492.911 256.796C492.911 308.785 454.223 351.397 395.622 415.797L379.123 434Z" fill="url(#paint1_radial_1096_16076)"/>
<path d="M364.687 434L350.281 415.797C299.115 351.397 265.335 308.785 265.335 256.796C265.335 214.184 289.378 180.95 319.979 180.95C337.266 180.95 353.858 192.12 364.687 209.633C375.517 192.12 392.108 180.95 409.396 180.95C439.996 180.95 464.039 214.184 464.039 256.796C464.039 308.785 430.259 351.397 379.093 415.797L364.687 434Z" fill="url(#paint2_linear_1096_16076)"/>
<path d="M364.263 434L349.918 415.797C298.971 351.397 265.335 308.785 265.335 256.796C265.335 214.184 289.276 180.95 319.745 180.95C336.959 180.95 353.479 192.12 364.263 209.633C375.046 192.12 391.567 180.95 408.78 180.95C439.25 180.95 463.19 214.184 463.19 256.796C463.19 308.785 429.555 351.397 378.607 415.797L364.263 434Z" fill="url(#paint3_linear_1096_16076)"/>
<path opacity="0.3" d="M255 392L240.645 374.448C189.66 312.351 156 271.263 156 221.134C156 180.046 179.958 148 210.45 148C227.676 148 244.209 158.771 255 175.658C265.791 158.771 282.324 148 299.55 148C330.042 148 354 180.046 354 221.134C354 271.263 320.34 312.351 269.355 374.448L255 392Z" fill="#2C053F"/>
<path d="M212.123 420.602H194.999L193.11 399.626C125.582 325.414 81 276.311 81 216.401C81 167.298 112.732 129 153.118 129C175.933 129 197.831 141.872 212.123 162.054C222.928 146.796 242.457 129 247.35 129C252.243 129 265.561 129 271.128 129C311.514 129 343.246 167.298 343.246 216.401C343.246 276.311 298.664 325.414 231.136 399.626L212.123 420.602Z" fill="url(#paint4_linear_1096_16076)"/>
<path d="M195.488 420.602L178.887 399.626C119.926 325.414 81 276.311 81 216.401C81 167.298 108.706 129 143.968 129C163.889 129 183.009 141.872 195.488 162.053C207.967 141.872 227.087 129 247.007 129C282.27 129 309.976 167.298 309.976 216.401C309.976 276.311 271.05 325.414 212.089 399.626L195.488 420.602Z" fill="url(#paint5_linear_1096_16076)"/>
<path d="M194.999 420.602L178.469 399.625C119.76 325.414 81 276.311 81 216.401C81 167.298 108.588 129 143.699 129C163.535 129 182.573 141.872 194.999 162.053C207.425 141.872 226.462 129 246.298 129C281.41 129 308.997 167.298 308.997 216.401C308.997 276.311 270.238 325.414 211.528 399.625L194.999 420.602Z" fill="url(#paint6_linear_1096_16076)"/>
<defs>
<linearGradient id="paint0_linear_1096_16076" x1="369.782" y1="443.341" x2="419.883" y2="165.665" gradientUnits="userSpaceOnUse">
<stop offset="0.24262" stop-color="#2C053F"/>
<stop offset="0.636213" stop-color="#801BB1"/>
<stop offset="0.702693" stop-color="#801BB1"/>
<stop offset="0.84853" stop-color="#BD3FC8"/>
<stop offset="0.977562" stop-color="#801BB1"/>
</linearGradient>
<radialGradient id="paint1_radial_1096_16076" cx="0" cy="0" r="1" gradientUnits="userSpaceOnUse" gradientTransform="translate(330.5 181) rotate(30.6386) scale(75.5463 67.941)">
<stop offset="0.718685" stop-color="#390055"/>
<stop offset="1" stop-color="#9C2BBD" stop-opacity="0"/>
</radialGradient>
<linearGradient id="paint2_linear_1096_16076" x1="265.335" y1="277.754" x2="464.039" y2="277.754" gradientUnits="userSpaceOnUse">
<stop offset="0.104654" stop-color="#2C053F"/>
<stop offset="0.596592" stop-color="#530E75"/>
<stop offset="1" stop-color="#D683FF"/>
</linearGradient>
<linearGradient id="paint3_linear_1096_16076" x1="304" y1="349.5" x2="463.19" y2="277.754" gradientUnits="userSpaceOnUse">
<stop offset="0.104654" stop-color="#2C053F"/>
<stop offset="0.596592" stop-color="#530E75"/>
<stop offset="1" stop-color="#952CC9"/>
</linearGradient>
<linearGradient id="paint4_linear_1096_16076" x1="201.359" y1="431.366" x2="203.805" y2="108.451" gradientUnits="userSpaceOnUse">
<stop stop-color="#3A053F"/>
<stop offset="0.636213" stop-color="#8A1BB1"/>
<stop offset="0.702693" stop-color="#9C1BB1"/>
<stop offset="0.84853" stop-color="#BD3FC8"/>
<stop offset="0.977562" stop-color="#390552"/>
</linearGradient>
<linearGradient id="paint5_linear_1096_16076" x1="81" y1="240.552" x2="309.976" y2="240.552" gradientUnits="userSpaceOnUse">
<stop offset="0.104654" stop-color="#2C053F"/>
<stop offset="0.596592" stop-color="#530E75"/>
<stop offset="1" stop-color="#D683FF"/>
</linearGradient>
<linearGradient id="paint6_linear_1096_16076" x1="81" y1="240.552" x2="308.997" y2="240.552" gradientUnits="userSpaceOnUse">
<stop offset="0.104654" stop-color="#2C053F"/>
<stop offset="0.596592" stop-color="#6D0E75"/>
<stop offset="1" stop-color="#C62CC9"/>
</linearGradient>
</defs>
</svg>
