<svg width="10" height="38" viewBox="0 0 10 38" fill="none" xmlns="http://www.w3.org/2000/svg">
<path d="M0.921922 33.436C0.921922 31.808 1.31792 30.664 2.10992 30.004C2.90192 29.344 3.84792 29.014 4.94792 29.014C6.09192 29.014 7.05992 29.344 7.85192 30.004C8.68792 30.664 9.10592 31.808 9.10592 33.436C9.10592 35.02 8.68792 36.164 7.85192 36.868C7.05992 37.572 6.09192 37.924 4.94792 37.924C3.84792 37.924 2.90192 37.572 2.10992 36.868C1.31792 36.164 0.921922 35.02 0.921922 33.436ZM0.921922 5.188C0.921922 3.516 1.31792 2.35 2.10992 1.69C2.90192 1.03 3.84792 0.699999 4.94792 0.699999C6.09192 0.699999 7.05992 1.03 7.85192 1.69C8.68792 2.35 9.10592 3.516 9.10592 5.188C9.10592 6.772 8.68792 7.916 7.85192 8.62C7.05992 9.324 6.09192 9.676 4.94792 9.676C3.84792 9.676 2.90192 9.324 2.10992 8.62C1.31792 7.916 0.921922 6.772 0.921922 5.188Z" fill="white"/>
</svg>
